<?xml version="1.0" encoding="utf-8"?>
<svg xmlns="http://www.w3.org/2000/svg" xmlns:xlink="http://www.w3.org/1999/xlink" width="600" height="400" viewBox="0 0 2400 1600">
<defs>
  <clipPath id="clip090">
    <rect x="0" y="0" width="2400" height="1600"/>
  </clipPath>
</defs>
<path clip-path="url(#clip090)" d="
M0 1600 L2400 1600 L2400 0 L0 0  Z
  " fill="#282c34" fill-rule="evenodd" fill-opacity="1"/>
<defs>
  <clipPath id="clip091">
    <rect x="480" y="0" width="1681" height="1600"/>
  </clipPath>
</defs>
<path clip-path="url(#clip090)" d="
M175.445 1423.18 L2352.76 1423.18 L2352.76 47.2441 L175.445 47.2441  Z
  " fill="#21252b" fill-rule="evenodd" fill-opacity="1"/>
<defs>
  <clipPath id="clip092">
    <rect x="175" y="47" width="2178" height="1377"/>
  </clipPath>
</defs>
<polyline clip-path="url(#clip092)" style="stroke:#adb2b7; stroke-width:2; stroke-opacity:0.1; fill:none" points="
  465.297,1423.18 465.297,47.2441 
  "/>
<polyline clip-path="url(#clip092)" style="stroke:#adb2b7; stroke-width:2; stroke-opacity:0.1; fill:none" points="
  921.756,1423.18 921.756,47.2441 
  "/>
<polyline clip-path="url(#clip092)" style="stroke:#adb2b7; stroke-width:2; stroke-opacity:0.1; fill:none" points="
  1378.22,1423.18 1378.22,47.2441 
  "/>
<polyline clip-path="url(#clip092)" style="stroke:#adb2b7; stroke-width:2; stroke-opacity:0.1; fill:none" points="
  1834.67,1423.18 1834.67,47.2441 
  "/>
<polyline clip-path="url(#clip092)" style="stroke:#adb2b7; stroke-width:2; stroke-opacity:0.1; fill:none" points="
  2291.13,1423.18 2291.13,47.2441 
  "/>
<polyline clip-path="url(#clip090)" style="stroke:#adb2b7; stroke-width:4; stroke-opacity:1; fill:none" points="
  175.445,1423.18 2352.76,1423.18 
  "/>
<polyline clip-path="url(#clip090)" style="stroke:#adb2b7; stroke-width:4; stroke-opacity:1; fill:none" points="
  465.297,1423.18 465.297,1406.67 
  "/>
<polyline clip-path="url(#clip090)" style="stroke:#adb2b7; stroke-width:4; stroke-opacity:1; fill:none" points="
  921.756,1423.18 921.756,1406.67 
  "/>
<polyline clip-path="url(#clip090)" style="stroke:#adb2b7; stroke-width:4; stroke-opacity:1; fill:none" points="
  1378.22,1423.18 1378.22,1406.67 
  "/>
<polyline clip-path="url(#clip090)" style="stroke:#adb2b7; stroke-width:4; stroke-opacity:1; fill:none" points="
  1834.67,1423.18 1834.67,1406.67 
  "/>
<polyline clip-path="url(#clip090)" style="stroke:#adb2b7; stroke-width:4; stroke-opacity:1; fill:none" points="
  2291.13,1423.18 2291.13,1406.67 
  "/>
<path clip-path="url(#clip090)" d="M 0 0 M459.95 1479.92 L476.269 1479.92 L476.269 1483.85 L454.325 1483.85 L454.325 1479.92 Q456.987 1477.16 461.57 1472.53 Q466.176 1467.88 467.357 1466.54 Q469.602 1464.01 470.482 1462.28 Q471.385 1460.52 471.385 1458.83 Q471.385 1456.07 469.44 1454.34 Q467.519 1452.6 464.417 1452.6 Q462.218 1452.6 459.764 1453.37 Q457.334 1454.13 454.556 1455.68 L454.556 1450.96 Q457.38 1449.82 459.834 1449.25 Q462.288 1448.67 464.325 1448.67 Q469.695 1448.67 472.889 1451.35 Q476.084 1454.04 476.084 1458.53 Q476.084 1460.66 475.274 1462.58 Q474.487 1464.48 472.38 1467.07 Q471.801 1467.74 468.7 1470.96 Q465.598 1474.15 459.95 1479.92 Z" fill="#9eb1be" fill-rule="evenodd" fill-opacity="1" /><path clip-path="url(#clip090)" d="M 0 0 M924.765 1453.37 L912.96 1471.81 L924.765 1471.81 L924.765 1453.37 M923.539 1449.29 L929.418 1449.29 L929.418 1471.81 L934.349 1471.81 L934.349 1475.7 L929.418 1475.7 L929.418 1483.85 L924.765 1483.85 L924.765 1475.7 L909.164 1475.7 L909.164 1471.19 L923.539 1449.29 Z" fill="#9eb1be" fill-rule="evenodd" fill-opacity="1" /><path clip-path="url(#clip090)" d="M 0 0 M1378.62 1464.71 Q1375.47 1464.71 1373.62 1466.86 Q1371.79 1469.01 1371.79 1472.76 Q1371.79 1476.49 1373.62 1478.67 Q1375.47 1480.82 1378.62 1480.82 Q1381.77 1480.82 1383.6 1478.67 Q1385.45 1476.49 1385.45 1472.76 Q1385.45 1469.01 1383.6 1466.86 Q1381.77 1464.71 1378.62 1464.71 M1387.9 1450.06 L1387.9 1454.31 Q1386.14 1453.48 1384.34 1453.04 Q1382.56 1452.6 1380.8 1452.6 Q1376.17 1452.6 1373.71 1455.73 Q1371.28 1458.85 1370.94 1465.17 Q1372.3 1463.16 1374.36 1462.09 Q1376.42 1461 1378.9 1461 Q1384.11 1461 1387.12 1464.18 Q1390.15 1467.32 1390.15 1472.76 Q1390.15 1478.09 1387 1481.31 Q1383.85 1484.52 1378.62 1484.52 Q1372.63 1484.52 1369.45 1479.94 Q1366.28 1475.33 1366.28 1466.61 Q1366.28 1458.41 1370.17 1453.55 Q1374.06 1448.67 1380.61 1448.67 Q1382.37 1448.67 1384.15 1449.01 Q1385.96 1449.36 1387.9 1450.06 Z" fill="#9eb1be" fill-rule="evenodd" fill-opacity="1" /><path clip-path="url(#clip090)" d="M 0 0 M1834.67 1467.44 Q1831.34 1467.44 1829.42 1469.22 Q1827.52 1471 1827.52 1474.13 Q1827.52 1477.25 1829.42 1479.04 Q1831.34 1480.82 1834.67 1480.82 Q1838.01 1480.82 1839.93 1479.04 Q1841.85 1477.23 1841.85 1474.13 Q1841.85 1471 1839.93 1469.22 Q1838.03 1467.44 1834.67 1467.44 M1830 1465.45 Q1826.99 1464.71 1825.3 1462.65 Q1823.63 1460.59 1823.63 1457.63 Q1823.63 1453.48 1826.57 1451.07 Q1829.54 1448.67 1834.67 1448.67 Q1839.84 1448.67 1842.78 1451.07 Q1845.72 1453.48 1845.72 1457.63 Q1845.72 1460.59 1844.03 1462.65 Q1842.36 1464.71 1839.37 1465.45 Q1842.75 1466.24 1844.63 1468.53 Q1846.53 1470.82 1846.53 1474.13 Q1846.53 1479.15 1843.45 1481.84 Q1840.39 1484.52 1834.67 1484.52 Q1828.96 1484.52 1825.88 1481.84 Q1822.82 1479.15 1822.82 1474.13 Q1822.82 1470.82 1824.72 1468.53 Q1826.62 1466.24 1830 1465.45 M1828.29 1458.06 Q1828.29 1460.75 1829.95 1462.25 Q1831.64 1463.76 1834.67 1463.76 Q1837.68 1463.76 1839.37 1462.25 Q1841.09 1460.75 1841.09 1458.06 Q1841.09 1455.38 1839.37 1453.88 Q1837.68 1452.37 1834.67 1452.37 Q1831.64 1452.37 1829.95 1453.88 Q1828.29 1455.38 1828.29 1458.06 Z" fill="#9eb1be" fill-rule="evenodd" fill-opacity="1" /><path clip-path="url(#clip090)" d="M 0 0 M2268.01 1479.92 L2275.65 1479.92 L2275.65 1453.55 L2267.34 1455.22 L2267.34 1450.96 L2275.6 1449.29 L2280.28 1449.29 L2280.28 1479.92 L2287.92 1479.92 L2287.92 1483.85 L2268.01 1483.85 L2268.01 1479.92 Z" fill="#9eb1be" fill-rule="evenodd" fill-opacity="1" /><path clip-path="url(#clip090)" d="M 0 0 M2302.99 1452.37 Q2299.37 1452.37 2297.55 1455.94 Q2295.74 1459.48 2295.74 1466.61 Q2295.74 1473.71 2297.55 1477.28 Q2299.37 1480.82 2302.99 1480.82 Q2306.62 1480.82 2308.43 1477.28 Q2310.25 1473.71 2310.25 1466.61 Q2310.25 1459.48 2308.43 1455.94 Q2306.62 1452.37 2302.99 1452.37 M2302.99 1448.67 Q2308.8 1448.67 2311.85 1453.27 Q2314.93 1457.86 2314.93 1466.61 Q2314.93 1475.33 2311.85 1479.94 Q2308.8 1484.52 2302.99 1484.52 Q2297.18 1484.52 2294.1 1479.94 Q2291.04 1475.33 2291.04 1466.61 Q2291.04 1457.86 2294.1 1453.27 Q2297.18 1448.67 2302.99 1448.67 Z" fill="#9eb1be" fill-rule="evenodd" fill-opacity="1" /><path clip-path="url(#clip090)" d="M 0 0 M1249.32 1520.52 L1255.75 1520.52 L1255.75 1562.63 L1278.88 1562.63 L1278.88 1568.04 L1249.32 1568.04 L1249.32 1520.52 Z" fill="#9eb1be" fill-rule="evenodd" fill-opacity="1" /><polyline clip-path="url(#clip092)" style="stroke:#adb2b7; stroke-width:2; stroke-opacity:0.1; fill:none" points="
  175.445,1150.82 2352.76,1150.82 
  "/>
<polyline clip-path="url(#clip092)" style="stroke:#adb2b7; stroke-width:2; stroke-opacity:0.1; fill:none" points="
  175.445,837.574 2352.76,837.574 
  "/>
<polyline clip-path="url(#clip092)" style="stroke:#adb2b7; stroke-width:2; stroke-opacity:0.1; fill:none" points="
  175.445,524.328 2352.76,524.328 
  "/>
<polyline clip-path="url(#clip092)" style="stroke:#adb2b7; stroke-width:2; stroke-opacity:0.1; fill:none" points="
  175.445,211.082 2352.76,211.082 
  "/>
<polyline clip-path="url(#clip090)" style="stroke:#adb2b7; stroke-width:4; stroke-opacity:1; fill:none" points="
  175.445,1423.18 175.445,47.2441 
  "/>
<polyline clip-path="url(#clip090)" style="stroke:#adb2b7; stroke-width:4; stroke-opacity:1; fill:none" points="
  175.445,1150.82 201.573,1150.82 
  "/>
<polyline clip-path="url(#clip090)" style="stroke:#adb2b7; stroke-width:4; stroke-opacity:1; fill:none" points="
  175.445,837.574 201.573,837.574 
  "/>
<polyline clip-path="url(#clip090)" style="stroke:#adb2b7; stroke-width:4; stroke-opacity:1; fill:none" points="
  175.445,524.328 201.573,524.328 
  "/>
<polyline clip-path="url(#clip090)" style="stroke:#adb2b7; stroke-width:4; stroke-opacity:1; fill:none" points="
  175.445,211.082 201.573,211.082 
  "/>
<path clip-path="url(#clip090)" d="M 0 0 M119.538 1164.17 L127.177 1164.17 L127.177 1137.8 L118.867 1139.47 L118.867 1135.21 L127.13 1133.54 L131.806 1133.54 L131.806 1164.17 L139.445 1164.17 L139.445 1168.1 L119.538 1168.1 L119.538 1164.17 Z" fill="#9eb1be" fill-rule="evenodd" fill-opacity="1" /><path clip-path="url(#clip090)" d="M 0 0 M123.126 850.919 L139.445 850.919 L139.445 854.854 L117.501 854.854 L117.501 850.919 Q120.163 848.165 124.746 843.535 Q129.353 838.882 130.533 837.54 Q132.779 835.017 133.658 833.28 Q134.561 831.521 134.561 829.831 Q134.561 827.077 132.617 825.341 Q130.695 823.605 127.593 823.605 Q125.394 823.605 122.941 824.368 Q120.51 825.132 117.732 826.683 L117.732 821.961 Q120.556 820.827 123.01 820.248 Q125.464 819.669 127.501 819.669 Q132.871 819.669 136.066 822.355 Q139.26 825.04 139.26 829.53 Q139.26 831.66 138.45 833.581 Q137.663 835.48 135.556 838.072 Q134.978 838.743 131.876 841.961 Q128.774 845.155 123.126 850.919 Z" fill="#9eb1be" fill-rule="evenodd" fill-opacity="1" /><path clip-path="url(#clip090)" d="M 0 0 M132.316 522.974 Q135.672 523.692 137.547 525.96 Q139.445 528.229 139.445 531.562 Q139.445 536.678 135.927 539.479 Q132.408 542.28 125.927 542.28 Q123.751 542.28 121.436 541.84 Q119.144 541.423 116.691 540.567 L116.691 536.053 Q118.635 537.187 120.95 537.766 Q123.265 538.344 125.788 538.344 Q130.186 538.344 132.478 536.608 Q134.792 534.872 134.792 531.562 Q134.792 528.506 132.64 526.794 Q130.51 525.057 126.691 525.057 L122.663 525.057 L122.663 521.215 L126.876 521.215 Q130.325 521.215 132.154 519.849 Q133.982 518.46 133.982 515.868 Q133.982 513.206 132.084 511.794 Q130.209 510.358 126.691 510.358 Q124.769 510.358 122.57 510.775 Q120.371 511.192 117.732 512.071 L117.732 507.905 Q120.394 507.164 122.709 506.794 Q125.047 506.423 127.107 506.423 Q132.431 506.423 135.533 508.854 Q138.635 511.261 138.635 515.382 Q138.635 518.252 136.992 520.243 Q135.348 522.21 132.316 522.974 Z" fill="#9eb1be" fill-rule="evenodd" fill-opacity="1" /><path clip-path="url(#clip090)" d="M 0 0 M129.862 197.876 L118.056 216.325 L129.862 216.325 L129.862 197.876 M128.635 193.802 L134.515 193.802 L134.515 216.325 L139.445 216.325 L139.445 220.214 L134.515 220.214 L134.515 228.362 L129.862 228.362 L129.862 220.214 L114.26 220.214 L114.26 215.7 L128.635 193.802 Z" fill="#9eb1be" fill-rule="evenodd" fill-opacity="1" /><path clip-path="url(#clip090)" d="M 0 0 M20.049 734.321 L64.0042 717.865 L64.0042 724.072 L37.6501 734.066 L64.0042 746.352 L64.0042 752.559 L29.8203 736.931 L23.5183 739.286 Q19.5079 740.782 19.5079 744.188 L19.5079 747.243 L14.479 747.243 L14.5426 743.519 Q14.6381 736.326 20.049 734.321 Z" fill="#9eb1be" fill-rule="evenodd" fill-opacity="1" /><polyline clip-path="url(#clip092)" style="stroke:#fe4365; stroke-width:4; stroke-opacity:1; fill:none" points="
  237.067,86.1857 465.297,775.126 693.526,1004.77 921.756,1119.6 1149.99,1188.49 1378.22,1234.42 1606.45,1267.23 1834.67,1291.83 2062.9,1310.97 2291.13,1326.28 
  
  "/>
<polyline clip-path="url(#clip092)" style="stroke:#eca25c; stroke-width:4; stroke-opacity:1; fill:none" points="
  237.067,374.756 465.297,919.411 693.526,1100.96 921.756,1191.74 1149.99,1246.2 1378.22,1282.51 1606.45,1308.45 1834.67,1327.9 2062.9,1343.03 2291.13,1355.14 
  
  "/>
<polyline clip-path="url(#clip092)" style="stroke:#3f9778; stroke-width:4; stroke-opacity:1; fill:none" points="
  237.067,665.782 465.297,1064.92 693.526,1197.97 921.756,1264.5 1149.99,1304.41 1378.22,1331.02 1606.45,1350.03 1834.67,1364.28 2062.9,1375.37 2291.13,1384.24 
  
  "/>
<circle clip-path="url(#clip092)" cx="237.067" cy="86.1857" r="14" fill="#005d7f" fill-rule="evenodd" fill-opacity="1" stroke="#adb2b7" stroke-opacity="1" stroke-width="3.2"/>
<circle clip-path="url(#clip092)" cx="465.297" cy="775.126" r="14" fill="#005d7f" fill-rule="evenodd" fill-opacity="1" stroke="#adb2b7" stroke-opacity="1" stroke-width="3.2"/>
<circle clip-path="url(#clip092)" cx="693.526" cy="1004.77" r="14" fill="#005d7f" fill-rule="evenodd" fill-opacity="1" stroke="#adb2b7" stroke-opacity="1" stroke-width="3.2"/>
<circle clip-path="url(#clip092)" cx="921.756" cy="1119.6" r="14" fill="#005d7f" fill-rule="evenodd" fill-opacity="1" stroke="#adb2b7" stroke-opacity="1" stroke-width="3.2"/>
<circle clip-path="url(#clip092)" cx="1149.99" cy="1188.49" r="14" fill="#005d7f" fill-rule="evenodd" fill-opacity="1" stroke="#adb2b7" stroke-opacity="1" stroke-width="3.2"/>
<circle clip-path="url(#clip092)" cx="1378.22" cy="1234.42" r="14" fill="#005d7f" fill-rule="evenodd" fill-opacity="1" stroke="#adb2b7" stroke-opacity="1" stroke-width="3.2"/>
<circle clip-path="url(#clip092)" cx="1606.45" cy="1267.23" r="14" fill="#005d7f" fill-rule="evenodd" fill-opacity="1" stroke="#adb2b7" stroke-opacity="1" stroke-width="3.2"/>
<circle clip-path="url(#clip092)" cx="1834.67" cy="1291.83" r="14" fill="#005d7f" fill-rule="evenodd" fill-opacity="1" stroke="#adb2b7" stroke-opacity="1" stroke-width="3.2"/>
<circle clip-path="url(#clip092)" cx="2062.9" cy="1310.97" r="14" fill="#005d7f" fill-rule="evenodd" fill-opacity="1" stroke="#adb2b7" stroke-opacity="1" stroke-width="3.2"/>
<circle clip-path="url(#clip092)" cx="2291.13" cy="1326.28" r="14" fill="#005d7f" fill-rule="evenodd" fill-opacity="1" stroke="#adb2b7" stroke-opacity="1" stroke-width="3.2"/>
<circle clip-path="url(#clip092)" cx="237.067" cy="374.756" r="14" fill="#00a8ff" fill-rule="evenodd" fill-opacity="1" stroke="#adb2b7" stroke-opacity="1" stroke-width="3.2"/>
<circle clip-path="url(#clip092)" cx="465.297" cy="919.411" r="14" fill="#00a8ff" fill-rule="evenodd" fill-opacity="1" stroke="#adb2b7" stroke-opacity="1" stroke-width="3.2"/>
<circle clip-path="url(#clip092)" cx="693.526" cy="1100.96" r="14" fill="#00a8ff" fill-rule="evenodd" fill-opacity="1" stroke="#adb2b7" stroke-opacity="1" stroke-width="3.2"/>
<circle clip-path="url(#clip092)" cx="921.756" cy="1191.74" r="14" fill="#00a8ff" fill-rule="evenodd" fill-opacity="1" stroke="#adb2b7" stroke-opacity="1" stroke-width="3.2"/>
<circle clip-path="url(#clip092)" cx="1149.99" cy="1246.2" r="14" fill="#00a8ff" fill-rule="evenodd" fill-opacity="1" stroke="#adb2b7" stroke-opacity="1" stroke-width="3.2"/>
<circle clip-path="url(#clip092)" cx="1378.22" cy="1282.51" r="14" fill="#00a8ff" fill-rule="evenodd" fill-opacity="1" stroke="#adb2b7" stroke-opacity="1" stroke-width="3.2"/>
<circle clip-path="url(#clip092)" cx="1606.45" cy="1308.45" r="14" fill="#00a8ff" fill-rule="evenodd" fill-opacity="1" stroke="#adb2b7" stroke-opacity="1" stroke-width="3.2"/>
<circle clip-path="url(#clip092)" cx="1834.67" cy="1327.9" r="14" fill="#00a8ff" fill-rule="evenodd" fill-opacity="1" stroke="#adb2b7" stroke-opacity="1" stroke-width="3.2"/>
<circle clip-path="url(#clip092)" cx="2062.9" cy="1343.03" r="14" fill="#00a8ff" fill-rule="evenodd" fill-opacity="1" stroke="#adb2b7" stroke-opacity="1" stroke-width="3.2"/>
<circle clip-path="url(#clip092)" cx="2291.13" cy="1355.14" r="14" fill="#00a8ff" fill-rule="evenodd" fill-opacity="1" stroke="#adb2b7" stroke-opacity="1" stroke-width="3.2"/>
<circle clip-path="url(#clip092)" cx="237.067" cy="665.782" r="14" fill="#dc3df1" fill-rule="evenodd" fill-opacity="1" stroke="#adb2b7" stroke-opacity="1" stroke-width="3.2"/>
<circle clip-path="url(#clip092)" cx="465.297" cy="1064.92" r="14" fill="#dc3df1" fill-rule="evenodd" fill-opacity="1" stroke="#adb2b7" stroke-opacity="1" stroke-width="3.2"/>
<circle clip-path="url(#clip092)" cx="693.526" cy="1197.97" r="14" fill="#dc3df1" fill-rule="evenodd" fill-opacity="1" stroke="#adb2b7" stroke-opacity="1" stroke-width="3.2"/>
<circle clip-path="url(#clip092)" cx="921.756" cy="1264.5" r="14" fill="#dc3df1" fill-rule="evenodd" fill-opacity="1" stroke="#adb2b7" stroke-opacity="1" stroke-width="3.2"/>
<circle clip-path="url(#clip092)" cx="1149.99" cy="1304.41" r="14" fill="#dc3df1" fill-rule="evenodd" fill-opacity="1" stroke="#adb2b7" stroke-opacity="1" stroke-width="3.2"/>
<circle clip-path="url(#clip092)" cx="1378.22" cy="1331.02" r="14" fill="#dc3df1" fill-rule="evenodd" fill-opacity="1" stroke="#adb2b7" stroke-opacity="1" stroke-width="3.2"/>
<circle clip-path="url(#clip092)" cx="1606.45" cy="1350.03" r="14" fill="#dc3df1" fill-rule="evenodd" fill-opacity="1" stroke="#adb2b7" stroke-opacity="1" stroke-width="3.2"/>
<circle clip-path="url(#clip092)" cx="1834.67" cy="1364.28" r="14" fill="#dc3df1" fill-rule="evenodd" fill-opacity="1" stroke="#adb2b7" stroke-opacity="1" stroke-width="3.2"/>
<circle clip-path="url(#clip092)" cx="2062.9" cy="1375.37" r="14" fill="#dc3df1" fill-rule="evenodd" fill-opacity="1" stroke="#adb2b7" stroke-opacity="1" stroke-width="3.2"/>
<circle clip-path="url(#clip092)" cx="2291.13" cy="1384.24" r="14" fill="#dc3df1" fill-rule="evenodd" fill-opacity="1" stroke="#adb2b7" stroke-opacity="1" stroke-width="3.2"/>
<path clip-path="url(#clip090)" d="
M1834.32 335.029 L2280.18 335.029 L2280.18 93.1086 L1834.32 93.1086  Z
  " fill="#282c34" fill-rule="evenodd" fill-opacity="1"/>
<polyline clip-path="url(#clip090)" style="stroke:#9eb1be; stroke-width:4; stroke-opacity:1; fill:none" points="
  1834.32,335.029 2280.18,335.029 2280.18,93.1086 1834.32,93.1086 1834.32,335.029 
  "/>
<polyline clip-path="url(#clip090)" style="stroke:#fe4365; stroke-width:4; stroke-opacity:1; fill:none" points="
  1858.51,153.589 2003.67,153.589 
  "/>
<path clip-path="url(#clip090)" d="M 0 0 M2050.11 137.443 L2050.11 142.003 Q2047.44 140.73 2045.08 140.105 Q2042.72 139.48 2040.52 139.48 Q2036.7 139.48 2034.62 140.961 Q2032.56 142.443 2032.56 145.174 Q2032.56 147.466 2033.92 148.647 Q2035.31 149.804 2039.16 150.522 L2041.98 151.1 Q2047.21 152.096 2049.69 154.619 Q2052.19 157.119 2052.19 161.332 Q2052.19 166.355 2048.81 168.947 Q2045.45 171.54 2038.95 171.54 Q2036.49 171.54 2033.72 170.984 Q2030.96 170.429 2028 169.341 L2028 164.526 Q2030.85 166.123 2033.58 166.933 Q2036.31 167.744 2038.95 167.744 Q2042.95 167.744 2045.13 166.17 Q2047.3 164.596 2047.3 161.679 Q2047.3 159.133 2045.73 157.697 Q2044.18 156.262 2040.61 155.545 L2037.77 154.989 Q2032.54 153.947 2030.2 151.725 Q2027.86 149.503 2027.86 145.545 Q2027.86 140.961 2031.08 138.322 Q2034.32 135.684 2039.99 135.684 Q2042.42 135.684 2044.94 136.123 Q2047.47 136.563 2050.11 137.443 Z" fill="#adb2b7" fill-rule="evenodd" fill-opacity="1" /><path clip-path="url(#clip090)" d="M 0 0 M2059.2 157.929 Q2059.2 162.628 2061.12 165.313 Q2063.07 167.975 2066.45 167.975 Q2069.83 167.975 2071.77 165.313 Q2073.72 162.628 2073.72 157.929 Q2073.72 153.23 2071.77 150.568 Q2069.83 147.883 2066.45 147.883 Q2063.07 147.883 2061.12 150.568 Q2059.2 153.23 2059.2 157.929 M2073.72 166.98 Q2072.37 169.295 2070.31 170.429 Q2068.28 171.54 2065.41 171.54 Q2060.71 171.54 2057.74 167.79 Q2054.8 164.04 2054.8 157.929 Q2054.8 151.818 2057.74 148.068 Q2060.71 144.318 2065.41 144.318 Q2068.28 144.318 2070.31 145.452 Q2072.37 146.563 2073.72 148.878 L2073.72 144.943 L2077.98 144.943 L2077.98 180.73 L2073.72 180.73 L2073.72 166.98 Z" fill="#adb2b7" fill-rule="evenodd" fill-opacity="1" /><path clip-path="url(#clip090)" d="M 0 0 M2082 160.637 L2082 144.943 L2086.26 144.943 L2086.26 160.475 Q2086.26 164.156 2087.7 166.008 Q2089.13 167.836 2092 167.836 Q2095.45 167.836 2097.44 165.637 Q2099.46 163.438 2099.46 159.642 L2099.46 144.943 L2103.72 144.943 L2103.72 170.869 L2099.46 170.869 L2099.46 166.887 Q2097.91 169.248 2095.85 170.406 Q2093.81 171.54 2091.1 171.54 Q2086.63 171.54 2084.32 168.762 Q2082 165.984 2082 160.637 M2092.72 144.318 L2092.72 144.318 Z" fill="#adb2b7" fill-rule="evenodd" fill-opacity="1" /><path clip-path="url(#clip090)" d="M 0 0 M2119.97 157.836 Q2114.8 157.836 2112.81 159.017 Q2110.82 160.197 2110.82 163.045 Q2110.82 165.313 2112.3 166.656 Q2113.81 167.975 2116.38 167.975 Q2119.92 167.975 2122.05 165.475 Q2124.2 162.952 2124.2 158.785 L2124.2 157.836 L2119.97 157.836 M2128.46 156.077 L2128.46 170.869 L2124.2 170.869 L2124.2 166.933 Q2122.74 169.295 2120.57 170.429 Q2118.39 171.54 2115.24 171.54 Q2111.26 171.54 2108.9 169.318 Q2106.56 167.072 2106.56 163.322 Q2106.56 158.947 2109.48 156.725 Q2112.42 154.503 2118.23 154.503 L2124.2 154.503 L2124.2 154.086 Q2124.2 151.147 2122.26 149.549 Q2120.34 147.929 2116.84 147.929 Q2114.62 147.929 2112.51 148.461 Q2110.41 148.994 2108.46 150.059 L2108.46 146.123 Q2110.8 145.221 2113 144.781 Q2115.2 144.318 2117.28 144.318 Q2122.91 144.318 2125.68 147.234 Q2128.46 150.151 2128.46 156.077 Z" fill="#adb2b7" fill-rule="evenodd" fill-opacity="1" /><path clip-path="url(#clip090)" d="M 0 0 M2147.95 148.924 Q2147.23 148.508 2146.38 148.322 Q2145.54 148.114 2144.53 148.114 Q2140.92 148.114 2138.97 150.475 Q2137.05 152.813 2137.05 157.211 L2137.05 170.869 L2132.77 170.869 L2132.77 144.943 L2137.05 144.943 L2137.05 148.971 Q2138.39 146.609 2140.54 145.475 Q2142.7 144.318 2145.78 144.318 Q2146.22 144.318 2146.75 144.387 Q2147.28 144.434 2147.93 144.549 L2147.95 148.924 Z" fill="#adb2b7" fill-rule="evenodd" fill-opacity="1" /><path clip-path="url(#clip090)" d="M 0 0 M2173.55 156.841 L2173.55 158.924 L2153.97 158.924 Q2154.25 163.322 2156.61 165.637 Q2158.99 167.929 2163.23 167.929 Q2165.68 167.929 2167.98 167.327 Q2170.29 166.725 2172.56 165.521 L2172.56 169.549 Q2170.27 170.521 2167.86 171.031 Q2165.45 171.54 2162.98 171.54 Q2156.77 171.54 2153.14 167.929 Q2149.53 164.318 2149.53 158.16 Q2149.53 151.795 2152.95 148.068 Q2156.4 144.318 2162.23 144.318 Q2167.47 144.318 2170.5 147.697 Q2173.55 151.054 2173.55 156.841 M2169.29 155.591 Q2169.25 152.096 2167.33 150.012 Q2165.43 147.929 2162.28 147.929 Q2158.72 147.929 2156.56 149.943 Q2154.43 151.957 2154.11 155.614 L2169.29 155.591 Z" fill="#adb2b7" fill-rule="evenodd" fill-opacity="1" /><polyline clip-path="url(#clip090)" style="stroke:#eca25c; stroke-width:4; stroke-opacity:1; fill:none" points="
  1858.51,214.069 2003.67,214.069 
  "/>
<path clip-path="url(#clip090)" d="M 0 0 M2044.25 215.145 Q2045.75 215.654 2047.17 217.321 Q2048.6 218.988 2050.04 221.904 L2054.78 231.349 L2049.76 231.349 L2045.34 222.483 Q2043.62 219.011 2042 217.876 Q2040.41 216.742 2037.63 216.742 L2032.54 216.742 L2032.54 231.349 L2027.86 231.349 L2027.86 196.789 L2038.42 196.789 Q2044.34 196.789 2047.26 199.265 Q2050.17 201.742 2050.17 206.742 Q2050.17 210.006 2048.65 212.159 Q2047.14 214.312 2044.25 215.145 M2032.54 200.631 L2032.54 212.9 L2038.42 212.9 Q2041.8 212.9 2043.51 211.349 Q2045.24 209.775 2045.24 206.742 Q2045.24 203.71 2043.51 202.182 Q2041.8 200.631 2038.42 200.631 L2032.54 200.631 Z" fill="#adb2b7" fill-rule="evenodd" fill-opacity="1" /><path clip-path="url(#clip090)" d="M 0 0 M2079.3 217.321 L2079.3 219.404 L2059.71 219.404 Q2059.99 223.802 2062.35 226.117 Q2064.73 228.409 2068.97 228.409 Q2071.42 228.409 2073.72 227.807 Q2076.03 227.205 2078.3 226.001 L2078.3 230.029 Q2076.01 231.001 2073.6 231.511 Q2071.19 232.02 2068.72 232.02 Q2062.51 232.02 2058.88 228.409 Q2055.27 224.798 2055.27 218.64 Q2055.27 212.275 2058.69 208.548 Q2062.14 204.798 2067.98 204.798 Q2073.21 204.798 2076.24 208.177 Q2079.3 211.534 2079.3 217.321 M2075.04 216.071 Q2074.99 212.576 2073.07 210.492 Q2071.17 208.409 2068.02 208.409 Q2064.46 208.409 2062.3 210.423 Q2060.17 212.437 2059.85 216.094 L2075.04 216.071 Z" fill="#adb2b7" fill-rule="evenodd" fill-opacity="1" /><path clip-path="url(#clip090)" d="M 0 0 M2102.42 206.418 L2102.42 210.4 Q2100.61 209.404 2098.79 208.918 Q2096.98 208.409 2095.13 208.409 Q2090.98 208.409 2088.69 211.048 Q2086.4 213.664 2086.4 218.409 Q2086.4 223.154 2088.69 225.793 Q2090.98 228.409 2095.13 228.409 Q2096.98 228.409 2098.79 227.923 Q2100.61 227.413 2102.42 226.418 L2102.42 230.353 Q2100.64 231.187 2098.72 231.603 Q2096.82 232.02 2094.67 232.02 Q2088.81 232.02 2085.36 228.339 Q2081.91 224.659 2081.91 218.409 Q2081.91 212.066 2085.38 208.432 Q2088.88 204.798 2094.94 204.798 Q2096.91 204.798 2098.79 205.215 Q2100.66 205.608 2102.42 206.418 Z" fill="#adb2b7" fill-rule="evenodd" fill-opacity="1" /><path clip-path="url(#clip090)" d="M 0 0 M2111.1 198.062 L2111.1 205.423 L2119.87 205.423 L2119.87 208.733 L2111.1 208.733 L2111.1 222.807 Q2111.1 225.978 2111.96 226.881 Q2112.84 227.784 2115.5 227.784 L2119.87 227.784 L2119.87 231.349 L2115.5 231.349 Q2110.57 231.349 2108.69 229.52 Q2106.82 227.668 2106.82 222.807 L2106.82 208.733 L2103.69 208.733 L2103.69 205.423 L2106.82 205.423 L2106.82 198.062 L2111.1 198.062 Z" fill="#adb2b7" fill-rule="evenodd" fill-opacity="1" /><path clip-path="url(#clip090)" d="M 0 0 M2136.12 218.316 Q2130.96 218.316 2128.97 219.497 Q2126.98 220.677 2126.98 223.525 Q2126.98 225.793 2128.46 227.136 Q2129.97 228.455 2132.54 228.455 Q2136.08 228.455 2138.21 225.955 Q2140.36 223.432 2140.36 219.265 L2140.36 218.316 L2136.12 218.316 M2144.62 216.557 L2144.62 231.349 L2140.36 231.349 L2140.36 227.413 Q2138.9 229.775 2136.73 230.909 Q2134.55 232.02 2131.4 232.02 Q2127.42 232.02 2125.06 229.798 Q2122.72 227.552 2122.72 223.802 Q2122.72 219.427 2125.64 217.205 Q2128.58 214.983 2134.39 214.983 L2140.36 214.983 L2140.36 214.566 Q2140.36 211.627 2138.42 210.029 Q2136.49 208.409 2133 208.409 Q2130.78 208.409 2128.67 208.941 Q2126.56 209.474 2124.62 210.539 L2124.62 206.603 Q2126.96 205.701 2129.16 205.261 Q2131.35 204.798 2133.44 204.798 Q2139.06 204.798 2141.84 207.714 Q2144.62 210.631 2144.62 216.557 Z" fill="#adb2b7" fill-rule="evenodd" fill-opacity="1" /><path clip-path="url(#clip090)" d="M 0 0 M2170.64 215.701 L2170.64 231.349 L2166.38 231.349 L2166.38 215.839 Q2166.38 212.159 2164.94 210.33 Q2163.51 208.502 2160.64 208.502 Q2157.19 208.502 2155.2 210.701 Q2153.21 212.9 2153.21 216.696 L2153.21 231.349 L2148.92 231.349 L2148.92 205.423 L2153.21 205.423 L2153.21 209.451 Q2154.73 207.113 2156.79 205.955 Q2158.88 204.798 2161.59 204.798 Q2166.05 204.798 2168.35 207.576 Q2170.64 210.33 2170.64 215.701 Z" fill="#adb2b7" fill-rule="evenodd" fill-opacity="1" /><path clip-path="url(#clip090)" d="M 0 0 M2192.16 218.085 Q2192.16 213.455 2190.24 210.909 Q2188.35 208.363 2184.9 208.363 Q2181.47 208.363 2179.55 210.909 Q2177.65 213.455 2177.65 218.085 Q2177.65 222.691 2179.55 225.238 Q2181.47 227.784 2184.9 227.784 Q2188.35 227.784 2190.24 225.238 Q2192.16 222.691 2192.16 218.085 M2196.42 228.131 Q2196.42 234.751 2193.48 237.969 Q2190.54 241.21 2184.48 241.21 Q2182.23 241.21 2180.24 240.862 Q2178.25 240.538 2176.38 239.844 L2176.38 235.7 Q2178.25 236.719 2180.08 237.205 Q2181.91 237.691 2183.81 237.691 Q2188 237.691 2190.08 235.492 Q2192.16 233.316 2192.16 228.895 L2192.16 226.788 Q2190.85 229.08 2188.79 230.214 Q2186.72 231.349 2183.85 231.349 Q2179.09 231.349 2176.17 227.714 Q2173.25 224.08 2173.25 218.085 Q2173.25 212.066 2176.17 208.432 Q2179.09 204.798 2183.85 204.798 Q2186.72 204.798 2188.79 205.932 Q2190.85 207.066 2192.16 209.358 L2192.16 205.423 L2196.42 205.423 L2196.42 228.131 Z" fill="#adb2b7" fill-rule="evenodd" fill-opacity="1" /><path clip-path="url(#clip090)" d="M 0 0 M2200.89 195.33 L2205.15 195.33 L2205.15 231.349 L2200.89 231.349 L2200.89 195.33 Z" fill="#adb2b7" fill-rule="evenodd" fill-opacity="1" /><path clip-path="url(#clip090)" d="M 0 0 M2231.79 217.321 L2231.79 219.404 L2212.21 219.404 Q2212.49 223.802 2214.85 226.117 Q2217.23 228.409 2221.47 228.409 Q2223.92 228.409 2226.22 227.807 Q2228.53 227.205 2230.8 226.001 L2230.8 230.029 Q2228.51 231.001 2226.1 231.511 Q2223.69 232.02 2221.22 232.02 Q2215.01 232.02 2211.38 228.409 Q2207.77 224.798 2207.77 218.64 Q2207.77 212.275 2211.19 208.548 Q2214.64 204.798 2220.47 204.798 Q2225.71 204.798 2228.74 208.177 Q2231.79 211.534 2231.79 217.321 M2227.53 216.071 Q2227.49 212.576 2225.57 210.492 Q2223.67 208.409 2220.52 208.409 Q2216.96 208.409 2214.8 210.423 Q2212.67 212.437 2212.35 216.094 L2227.53 216.071 Z" fill="#adb2b7" fill-rule="evenodd" fill-opacity="1" /><polyline clip-path="url(#clip090)" style="stroke:#3f9778; stroke-width:4; stroke-opacity:1; fill:none" points="
  1858.51,274.549 2003.67,274.549 
  "/>
<path clip-path="url(#clip090)" d="M 0 0 M2055.73 259.931 L2055.73 264.861 Q2053.37 262.662 2050.68 261.574 Q2048.02 260.486 2045.01 260.486 Q2039.09 260.486 2035.94 264.12 Q2032.79 267.732 2032.79 274.583 Q2032.79 281.412 2035.94 285.046 Q2039.09 288.657 2045.01 288.657 Q2048.02 288.657 2050.68 287.569 Q2053.37 286.481 2055.73 284.282 L2055.73 289.167 Q2053.28 290.833 2050.52 291.667 Q2047.79 292.5 2044.74 292.5 Q2036.89 292.5 2032.37 287.708 Q2027.86 282.893 2027.86 274.583 Q2027.86 266.25 2032.37 261.458 Q2036.89 256.644 2044.74 256.644 Q2047.84 256.644 2050.57 257.477 Q2053.32 258.287 2055.73 259.931 Z" fill="#adb2b7" fill-rule="evenodd" fill-opacity="1" /><path clip-path="url(#clip090)" d="M 0 0 M2060.2 265.903 L2064.46 265.903 L2064.46 291.829 L2060.2 291.829 L2060.2 265.903 M2060.2 255.81 L2064.46 255.81 L2064.46 261.204 L2060.2 261.204 L2060.2 255.81 Z" fill="#adb2b7" fill-rule="evenodd" fill-opacity="1" /><path clip-path="url(#clip090)" d="M 0 0 M2083.95 269.884 Q2083.23 269.468 2082.37 269.282 Q2081.54 269.074 2080.52 269.074 Q2076.91 269.074 2074.97 271.435 Q2073.05 273.773 2073.05 278.171 L2073.05 291.829 L2068.76 291.829 L2068.76 265.903 L2073.05 265.903 L2073.05 269.931 Q2074.39 267.569 2076.54 266.435 Q2078.69 265.278 2081.77 265.278 Q2082.21 265.278 2082.74 265.347 Q2083.28 265.394 2083.92 265.509 L2083.95 269.884 Z" fill="#adb2b7" fill-rule="evenodd" fill-opacity="1" /><path clip-path="url(#clip090)" d="M 0 0 M2106.03 266.898 L2106.03 270.88 Q2104.23 269.884 2102.4 269.398 Q2100.59 268.889 2098.74 268.889 Q2094.6 268.889 2092.3 271.528 Q2090.01 274.144 2090.01 278.889 Q2090.01 283.634 2092.3 286.273 Q2094.6 288.889 2098.74 288.889 Q2100.59 288.889 2102.4 288.403 Q2104.23 287.893 2106.03 286.898 L2106.03 290.833 Q2104.25 291.667 2102.33 292.083 Q2100.43 292.5 2098.28 292.5 Q2092.42 292.5 2088.97 288.819 Q2085.52 285.139 2085.52 278.889 Q2085.52 272.546 2088.99 268.912 Q2092.49 265.278 2098.55 265.278 Q2100.52 265.278 2102.4 265.695 Q2104.27 266.088 2106.03 266.898 Z" fill="#adb2b7" fill-rule="evenodd" fill-opacity="1" /><path clip-path="url(#clip090)" d="M 0 0 M2110.5 255.81 L2114.76 255.81 L2114.76 291.829 L2110.5 291.829 L2110.5 255.81 Z" fill="#adb2b7" fill-rule="evenodd" fill-opacity="1" /><path clip-path="url(#clip090)" d="M 0 0 M2141.4 277.801 L2141.4 279.884 L2121.82 279.884 Q2122.1 284.282 2124.46 286.597 Q2126.84 288.889 2131.08 288.889 Q2133.53 288.889 2135.82 288.287 Q2138.14 287.685 2140.41 286.481 L2140.41 290.509 Q2138.11 291.481 2135.71 291.991 Q2133.3 292.5 2130.82 292.5 Q2124.62 292.5 2120.98 288.889 Q2117.37 285.278 2117.37 279.12 Q2117.37 272.755 2120.8 269.028 Q2124.25 265.278 2130.08 265.278 Q2135.31 265.278 2138.35 268.657 Q2141.4 272.014 2141.4 277.801 M2137.14 276.551 Q2137.1 273.056 2135.17 270.972 Q2133.28 268.889 2130.13 268.889 Q2126.56 268.889 2124.41 270.903 Q2122.28 272.917 2121.96 276.574 L2137.14 276.551 Z" fill="#adb2b7" fill-rule="evenodd" fill-opacity="1" /></svg>
