<?xml version="1.0" encoding="utf-8"?>
<svg xmlns="http://www.w3.org/2000/svg" xmlns:xlink="http://www.w3.org/1999/xlink" width="600" height="400" viewBox="0 0 2400 1600">
<defs>
  <clipPath id="clip110">
    <rect x="0" y="0" width="2400" height="1600"/>
  </clipPath>
</defs>
<path clip-path="url(#clip110)" d="
M0 1600 L2400 1600 L2400 0 L0 0  Z
  " fill="#282c34" fill-rule="evenodd" fill-opacity="1"/>
<defs>
  <clipPath id="clip111">
    <rect x="480" y="0" width="1681" height="1600"/>
  </clipPath>
</defs>
<path clip-path="url(#clip110)" d="
M268.325 1423.18 L2352.76 1423.18 L2352.76 123.472 L268.325 123.472  Z
  " fill="#21252b" fill-rule="evenodd" fill-opacity="1"/>
<defs>
  <clipPath id="clip112">
    <rect x="268" y="123" width="2085" height="1301"/>
  </clipPath>
</defs>
<polyline clip-path="url(#clip112)" style="stroke:#adb2b7; stroke-width:2; stroke-opacity:0.1; fill:none" points="
  608.239,1423.18 608.239,123.472 
  "/>
<polyline clip-path="url(#clip112)" style="stroke:#adb2b7; stroke-width:2; stroke-opacity:0.1; fill:none" points="
  959.39,1423.18 959.39,123.472 
  "/>
<polyline clip-path="url(#clip112)" style="stroke:#adb2b7; stroke-width:2; stroke-opacity:0.1; fill:none" points="
  1310.54,1423.18 1310.54,123.472 
  "/>
<polyline clip-path="url(#clip112)" style="stroke:#adb2b7; stroke-width:2; stroke-opacity:0.1; fill:none" points="
  1661.69,1423.18 1661.69,123.472 
  "/>
<polyline clip-path="url(#clip112)" style="stroke:#adb2b7; stroke-width:2; stroke-opacity:0.1; fill:none" points="
  2012.84,1423.18 2012.84,123.472 
  "/>
<polyline clip-path="url(#clip110)" style="stroke:#adb2b7; stroke-width:4; stroke-opacity:1; fill:none" points="
  268.325,1423.18 2352.76,1423.18 
  "/>
<polyline clip-path="url(#clip110)" style="stroke:#adb2b7; stroke-width:4; stroke-opacity:1; fill:none" points="
  608.239,1423.18 608.239,1407.58 
  "/>
<polyline clip-path="url(#clip110)" style="stroke:#adb2b7; stroke-width:4; stroke-opacity:1; fill:none" points="
  959.39,1423.18 959.39,1407.58 
  "/>
<polyline clip-path="url(#clip110)" style="stroke:#adb2b7; stroke-width:4; stroke-opacity:1; fill:none" points="
  1310.54,1423.18 1310.54,1407.58 
  "/>
<polyline clip-path="url(#clip110)" style="stroke:#adb2b7; stroke-width:4; stroke-opacity:1; fill:none" points="
  1661.69,1423.18 1661.69,1407.58 
  "/>
<polyline clip-path="url(#clip110)" style="stroke:#adb2b7; stroke-width:4; stroke-opacity:1; fill:none" points="
  2012.84,1423.18 2012.84,1407.58 
  "/>
<path clip-path="url(#clip110)" d="M 0 0 M567.58 1479.92 L575.218 1479.92 L575.218 1453.55 L566.908 1455.22 L566.908 1450.96 L575.172 1449.29 L579.848 1449.29 L579.848 1479.92 L587.487 1479.92 L587.487 1483.85 L567.58 1483.85 L567.58 1479.92 Z" fill="#9eb1be" fill-rule="evenodd" fill-opacity="1" /><path clip-path="url(#clip110)" d="M 0 0 M592.556 1477.97 L597.441 1477.97 L597.441 1483.85 L592.556 1483.85 L592.556 1477.97 Z" fill="#9eb1be" fill-rule="evenodd" fill-opacity="1" /><path clip-path="url(#clip110)" d="M 0 0 M601.329 1449.29 L623.552 1449.29 L623.552 1451.28 L611.005 1483.85 L606.121 1483.85 L617.927 1453.23 L601.329 1453.23 L601.329 1449.29 Z" fill="#9eb1be" fill-rule="evenodd" fill-opacity="1" /><path clip-path="url(#clip110)" d="M 0 0 M628.667 1449.29 L647.024 1449.29 L647.024 1453.23 L632.95 1453.23 L632.95 1461.7 Q633.968 1461.35 634.987 1461.19 Q636.005 1461 637.024 1461 Q642.811 1461 646.19 1464.18 Q649.57 1467.35 649.57 1472.76 Q649.57 1478.34 646.098 1481.44 Q642.625 1484.52 636.306 1484.52 Q634.13 1484.52 631.862 1484.15 Q629.616 1483.78 627.209 1483.04 L627.209 1478.34 Q629.292 1479.48 631.514 1480.03 Q633.737 1480.59 636.213 1480.59 Q640.218 1480.59 642.556 1478.48 Q644.894 1476.38 644.894 1472.76 Q644.894 1469.15 642.556 1467.05 Q640.218 1464.94 636.213 1464.94 Q634.339 1464.94 632.464 1465.36 Q630.612 1465.77 628.667 1466.65 L628.667 1449.29 Z" fill="#9eb1be" fill-rule="evenodd" fill-opacity="1" /><path clip-path="url(#clip110)" d="M 0 0 M917.828 1479.92 L925.466 1479.92 L925.466 1453.55 L917.156 1455.22 L917.156 1450.96 L925.42 1449.29 L930.096 1449.29 L930.096 1479.92 L937.735 1479.92 L937.735 1483.85 L917.828 1483.85 L917.828 1479.92 Z" fill="#9eb1be" fill-rule="evenodd" fill-opacity="1" /><path clip-path="url(#clip110)" d="M 0 0 M942.804 1477.97 L947.689 1477.97 L947.689 1483.85 L942.804 1483.85 L942.804 1477.97 Z" fill="#9eb1be" fill-rule="evenodd" fill-opacity="1" /><path clip-path="url(#clip110)" d="M 0 0 M962.758 1467.44 Q959.425 1467.44 957.503 1469.22 Q955.605 1471 955.605 1474.13 Q955.605 1477.25 957.503 1479.04 Q959.425 1480.82 962.758 1480.82 Q966.091 1480.82 968.012 1479.04 Q969.934 1477.23 969.934 1474.13 Q969.934 1471 968.012 1469.22 Q966.114 1467.44 962.758 1467.44 M958.082 1465.45 Q955.073 1464.71 953.383 1462.65 Q951.716 1460.59 951.716 1457.63 Q951.716 1453.48 954.656 1451.07 Q957.619 1448.67 962.758 1448.67 Q967.92 1448.67 970.86 1451.07 Q973.799 1453.48 973.799 1457.63 Q973.799 1460.59 972.11 1462.65 Q970.443 1464.71 967.457 1465.45 Q970.837 1466.24 972.712 1468.53 Q974.61 1470.82 974.61 1474.13 Q974.61 1479.15 971.531 1481.84 Q968.475 1484.52 962.758 1484.52 Q957.04 1484.52 953.962 1481.84 Q950.906 1479.15 950.906 1474.13 Q950.906 1470.82 952.804 1468.53 Q954.702 1466.24 958.082 1465.45 M956.369 1458.06 Q956.369 1460.75 958.036 1462.25 Q959.725 1463.76 962.758 1463.76 Q965.767 1463.76 967.457 1462.25 Q969.17 1460.75 969.17 1458.06 Q969.17 1455.38 967.457 1453.88 Q965.767 1452.37 962.758 1452.37 Q959.725 1452.37 958.036 1453.88 Q956.369 1455.38 956.369 1458.06 Z" fill="#9eb1be" fill-rule="evenodd" fill-opacity="1" /><path clip-path="url(#clip110)" d="M 0 0 M989.679 1452.37 Q986.068 1452.37 984.239 1455.94 Q982.434 1459.48 982.434 1466.61 Q982.434 1473.71 984.239 1477.28 Q986.068 1480.82 989.679 1480.82 Q993.313 1480.82 995.119 1477.28 Q996.948 1473.71 996.948 1466.61 Q996.948 1459.48 995.119 1455.94 Q993.313 1452.37 989.679 1452.37 M989.679 1448.67 Q995.489 1448.67 998.545 1453.27 Q1001.62 1457.86 1001.62 1466.61 Q1001.62 1475.33 998.545 1479.94 Q995.489 1484.52 989.679 1484.52 Q983.869 1484.52 980.79 1479.94 Q977.735 1475.33 977.735 1466.61 Q977.735 1457.86 980.79 1453.27 Q983.869 1448.67 989.679 1448.67 Z" fill="#9eb1be" fill-rule="evenodd" fill-opacity="1" /><path clip-path="url(#clip110)" d="M 0 0 M1269.48 1479.92 L1277.11 1479.92 L1277.11 1453.55 L1268.8 1455.22 L1268.8 1450.96 L1277.07 1449.29 L1281.74 1449.29 L1281.74 1479.92 L1289.38 1479.92 L1289.38 1483.85 L1269.48 1483.85 L1269.48 1479.92 Z" fill="#9eb1be" fill-rule="evenodd" fill-opacity="1" /><path clip-path="url(#clip110)" d="M 0 0 M1294.45 1477.97 L1299.34 1477.97 L1299.34 1483.85 L1294.45 1483.85 L1294.45 1477.97 Z" fill="#9eb1be" fill-rule="evenodd" fill-opacity="1" /><path clip-path="url(#clip110)" d="M 0 0 M1314.41 1467.44 Q1311.07 1467.44 1309.15 1469.22 Q1307.25 1471 1307.25 1474.13 Q1307.25 1477.25 1309.15 1479.04 Q1311.07 1480.82 1314.41 1480.82 Q1317.74 1480.82 1319.66 1479.04 Q1321.58 1477.23 1321.58 1474.13 Q1321.58 1471 1319.66 1469.22 Q1317.76 1467.44 1314.41 1467.44 M1309.73 1465.45 Q1306.72 1464.71 1305.03 1462.65 Q1303.36 1460.59 1303.36 1457.63 Q1303.36 1453.48 1306.3 1451.07 Q1309.27 1448.67 1314.41 1448.67 Q1319.57 1448.67 1322.51 1451.07 Q1325.45 1453.48 1325.45 1457.63 Q1325.45 1460.59 1323.76 1462.65 Q1322.09 1464.71 1319.11 1465.45 Q1322.48 1466.24 1324.36 1468.53 Q1326.26 1470.82 1326.26 1474.13 Q1326.26 1479.15 1323.18 1481.84 Q1320.12 1484.52 1314.41 1484.52 Q1308.69 1484.52 1305.61 1481.84 Q1302.55 1479.15 1302.55 1474.13 Q1302.55 1470.82 1304.45 1468.53 Q1306.35 1466.24 1309.73 1465.45 M1308.02 1458.06 Q1308.02 1460.75 1309.68 1462.25 Q1311.37 1463.76 1314.41 1463.76 Q1317.42 1463.76 1319.11 1462.25 Q1320.82 1460.75 1320.82 1458.06 Q1320.82 1455.38 1319.11 1453.88 Q1317.42 1452.37 1314.41 1452.37 Q1311.37 1452.37 1309.68 1453.88 Q1308.02 1455.38 1308.02 1458.06 Z" fill="#9eb1be" fill-rule="evenodd" fill-opacity="1" /><path clip-path="url(#clip110)" d="M 0 0 M1331.37 1449.29 L1349.73 1449.29 L1349.73 1453.23 L1335.66 1453.23 L1335.66 1461.7 Q1336.67 1461.35 1337.69 1461.19 Q1338.71 1461 1339.73 1461 Q1345.52 1461 1348.9 1464.18 Q1352.28 1467.35 1352.28 1472.76 Q1352.28 1478.34 1348.8 1481.44 Q1345.33 1484.52 1339.01 1484.52 Q1336.84 1484.52 1334.57 1484.15 Q1332.32 1483.78 1329.92 1483.04 L1329.92 1478.34 Q1332 1479.48 1334.22 1480.03 Q1336.44 1480.59 1338.92 1480.59 Q1342.92 1480.59 1345.26 1478.48 Q1347.6 1476.38 1347.6 1472.76 Q1347.6 1469.15 1345.26 1467.05 Q1342.92 1464.94 1338.92 1464.94 Q1337.05 1464.94 1335.17 1465.36 Q1333.32 1465.77 1331.37 1466.65 L1331.37 1449.29 Z" fill="#9eb1be" fill-rule="evenodd" fill-opacity="1" /><path clip-path="url(#clip110)" d="M 0 0 M1620.18 1479.92 L1627.81 1479.92 L1627.81 1453.55 L1619.5 1455.22 L1619.5 1450.96 L1627.77 1449.29 L1632.44 1449.29 L1632.44 1479.92 L1640.08 1479.92 L1640.08 1483.85 L1620.18 1483.85 L1620.18 1479.92 Z" fill="#9eb1be" fill-rule="evenodd" fill-opacity="1" /><path clip-path="url(#clip110)" d="M 0 0 M1645.15 1477.97 L1650.04 1477.97 L1650.04 1483.85 L1645.15 1483.85 L1645.15 1477.97 Z" fill="#9eb1be" fill-rule="evenodd" fill-opacity="1" /><path clip-path="url(#clip110)" d="M 0 0 M1655.24 1483.13 L1655.24 1478.88 Q1657 1479.71 1658.81 1480.15 Q1660.61 1480.59 1662.35 1480.59 Q1666.98 1480.59 1669.41 1477.49 Q1671.86 1474.36 1672.21 1468.02 Q1670.87 1470.01 1668.81 1471.07 Q1666.75 1472.14 1664.25 1472.14 Q1659.06 1472.14 1656.03 1469.01 Q1653.02 1465.87 1653.02 1460.43 Q1653.02 1455.1 1656.17 1451.88 Q1659.32 1448.67 1664.55 1448.67 Q1670.55 1448.67 1673.69 1453.27 Q1676.86 1457.86 1676.86 1466.61 Q1676.86 1474.78 1672.98 1479.66 Q1669.11 1484.52 1662.56 1484.52 Q1660.8 1484.52 1658.99 1484.18 Q1657.19 1483.83 1655.24 1483.13 M1664.55 1468.48 Q1667.7 1468.48 1669.53 1466.33 Q1671.38 1464.18 1671.38 1460.43 Q1671.38 1456.7 1669.53 1454.55 Q1667.7 1452.37 1664.55 1452.37 Q1661.4 1452.37 1659.55 1454.55 Q1657.72 1456.7 1657.72 1460.43 Q1657.72 1464.18 1659.55 1466.33 Q1661.4 1468.48 1664.55 1468.48 Z" fill="#9eb1be" fill-rule="evenodd" fill-opacity="1" /><path clip-path="url(#clip110)" d="M 0 0 M1691.93 1452.37 Q1688.32 1452.37 1686.49 1455.94 Q1684.69 1459.48 1684.69 1466.61 Q1684.69 1473.71 1686.49 1477.28 Q1688.32 1480.82 1691.93 1480.82 Q1695.57 1480.82 1697.37 1477.28 Q1699.2 1473.71 1699.2 1466.61 Q1699.2 1459.48 1697.37 1455.94 Q1695.57 1452.37 1691.93 1452.37 M1691.93 1448.67 Q1697.74 1448.67 1700.8 1453.27 Q1703.88 1457.86 1703.88 1466.61 Q1703.88 1475.33 1700.8 1479.94 Q1697.74 1484.52 1691.93 1484.52 Q1686.12 1484.52 1683.05 1479.94 Q1679.99 1475.33 1679.99 1466.61 Q1679.99 1457.86 1683.05 1453.27 Q1686.12 1448.67 1691.93 1448.67 Z" fill="#9eb1be" fill-rule="evenodd" fill-opacity="1" /><path clip-path="url(#clip110)" d="M 0 0 M1971.82 1479.92 L1979.46 1479.92 L1979.46 1453.55 L1971.15 1455.22 L1971.15 1450.96 L1979.42 1449.29 L1984.09 1449.29 L1984.09 1479.92 L1991.73 1479.92 L1991.73 1483.85 L1971.82 1483.85 L1971.82 1479.92 Z" fill="#9eb1be" fill-rule="evenodd" fill-opacity="1" /><path clip-path="url(#clip110)" d="M 0 0 M1996.8 1477.97 L2001.68 1477.97 L2001.68 1483.85 L1996.8 1483.85 L1996.8 1477.97 Z" fill="#9eb1be" fill-rule="evenodd" fill-opacity="1" /><path clip-path="url(#clip110)" d="M 0 0 M2006.89 1483.13 L2006.89 1478.88 Q2008.65 1479.71 2010.46 1480.15 Q2012.26 1480.59 2014 1480.59 Q2018.63 1480.59 2021.06 1477.49 Q2023.51 1474.36 2023.86 1468.02 Q2022.52 1470.01 2020.46 1471.07 Q2018.4 1472.14 2015.9 1472.14 Q2010.71 1472.14 2007.68 1469.01 Q2004.67 1465.87 2004.67 1460.43 Q2004.67 1455.1 2007.82 1451.88 Q2010.97 1448.67 2016.2 1448.67 Q2022.19 1448.67 2025.34 1453.27 Q2028.51 1457.86 2028.51 1466.61 Q2028.51 1474.78 2024.62 1479.66 Q2020.76 1484.52 2014.21 1484.52 Q2012.45 1484.52 2010.64 1484.18 Q2008.84 1483.83 2006.89 1483.13 M2016.2 1468.48 Q2019.35 1468.48 2021.18 1466.33 Q2023.03 1464.18 2023.03 1460.43 Q2023.03 1456.7 2021.18 1454.55 Q2019.35 1452.37 2016.2 1452.37 Q2013.05 1452.37 2011.2 1454.55 Q2009.37 1456.7 2009.37 1460.43 Q2009.37 1464.18 2011.2 1466.33 Q2013.05 1468.48 2016.2 1468.48 Z" fill="#9eb1be" fill-rule="evenodd" fill-opacity="1" /><path clip-path="url(#clip110)" d="M 0 0 M2033.63 1449.29 L2051.99 1449.29 L2051.99 1453.23 L2037.91 1453.23 L2037.91 1461.7 Q2038.93 1461.35 2039.95 1461.19 Q2040.97 1461 2041.99 1461 Q2047.77 1461 2051.15 1464.18 Q2054.53 1467.35 2054.53 1472.76 Q2054.53 1478.34 2051.06 1481.44 Q2047.59 1484.52 2041.27 1484.52 Q2039.09 1484.52 2036.82 1484.15 Q2034.58 1483.78 2032.17 1483.04 L2032.17 1478.34 Q2034.25 1479.48 2036.48 1480.03 Q2038.7 1480.59 2041.18 1480.59 Q2045.18 1480.59 2047.52 1478.48 Q2049.86 1476.38 2049.86 1472.76 Q2049.86 1469.15 2047.52 1467.05 Q2045.18 1464.94 2041.18 1464.94 Q2039.3 1464.94 2037.43 1465.36 Q2035.57 1465.77 2033.63 1466.65 L2033.63 1449.29 Z" fill="#9eb1be" fill-rule="evenodd" fill-opacity="1" /><path clip-path="url(#clip110)" d="M 0 0 M1300.83 1568.97 Q1287.62 1568.97 1287.62 1550.06 Q1287.62 1542.58 1292.56 1532.4 L1298.86 1532.4 Q1294.31 1542.58 1294.31 1550.22 Q1294.31 1564 1301.37 1564 Q1307.84 1564 1307.84 1546.88 L1313.25 1546.88 Q1313.25 1564 1319.71 1564 Q1326.77 1564 1326.77 1550.22 Q1326.77 1542.58 1322.22 1532.4 L1328.52 1532.4 Q1333.46 1542.58 1333.46 1550.06 Q1333.46 1568.97 1320.25 1568.97 Q1311.59 1568.97 1310.54 1559.45 Q1309.24 1568.97 1300.83 1568.97 Z" fill="#9eb1be" fill-rule="evenodd" fill-opacity="1" /><polyline clip-path="url(#clip112)" style="stroke:#adb2b7; stroke-width:2; stroke-opacity:0.1; fill:none" points="
  268.325,1316.92 2352.76,1316.92 
  "/>
<polyline clip-path="url(#clip112)" style="stroke:#adb2b7; stroke-width:2; stroke-opacity:0.1; fill:none" points="
  268.325,1050.96 2352.76,1050.96 
  "/>
<polyline clip-path="url(#clip112)" style="stroke:#adb2b7; stroke-width:2; stroke-opacity:0.1; fill:none" points="
  268.325,785.002 2352.76,785.002 
  "/>
<polyline clip-path="url(#clip112)" style="stroke:#adb2b7; stroke-width:2; stroke-opacity:0.1; fill:none" points="
  268.325,519.044 2352.76,519.044 
  "/>
<polyline clip-path="url(#clip112)" style="stroke:#adb2b7; stroke-width:2; stroke-opacity:0.1; fill:none" points="
  268.325,253.086 2352.76,253.086 
  "/>
<polyline clip-path="url(#clip110)" style="stroke:#adb2b7; stroke-width:4; stroke-opacity:1; fill:none" points="
  268.325,1423.18 268.325,123.472 
  "/>
<polyline clip-path="url(#clip110)" style="stroke:#adb2b7; stroke-width:4; stroke-opacity:1; fill:none" points="
  268.325,1316.92 293.338,1316.92 
  "/>
<polyline clip-path="url(#clip110)" style="stroke:#adb2b7; stroke-width:4; stroke-opacity:1; fill:none" points="
  268.325,1050.96 293.338,1050.96 
  "/>
<polyline clip-path="url(#clip110)" style="stroke:#adb2b7; stroke-width:4; stroke-opacity:1; fill:none" points="
  268.325,785.002 293.338,785.002 
  "/>
<polyline clip-path="url(#clip110)" style="stroke:#adb2b7; stroke-width:4; stroke-opacity:1; fill:none" points="
  268.325,519.044 293.338,519.044 
  "/>
<polyline clip-path="url(#clip110)" style="stroke:#adb2b7; stroke-width:4; stroke-opacity:1; fill:none" points="
  268.325,253.086 293.338,253.086 
  "/>
<path clip-path="url(#clip110)" d="M 0 0 M117.696 1336.71 L125.335 1336.71 L125.335 1310.35 L117.025 1312.01 L117.025 1307.75 L125.289 1306.09 L129.965 1306.09 L129.965 1336.71 L137.603 1336.71 L137.603 1340.65 L117.696 1340.65 L117.696 1336.71 Z" fill="#9eb1be" fill-rule="evenodd" fill-opacity="1" /><path clip-path="url(#clip110)" d="M 0 0 M152.673 1309.16 Q149.062 1309.16 147.233 1312.73 Q145.428 1316.27 145.428 1323.4 Q145.428 1330.51 147.233 1334.07 Q149.062 1337.61 152.673 1337.61 Q156.307 1337.61 158.113 1334.07 Q159.941 1330.51 159.941 1323.4 Q159.941 1316.27 158.113 1312.73 Q156.307 1309.16 152.673 1309.16 M152.673 1305.46 Q158.483 1305.46 161.539 1310.07 Q164.617 1314.65 164.617 1323.4 Q164.617 1332.13 161.539 1336.73 Q158.483 1341.32 152.673 1341.32 Q146.863 1341.32 143.784 1336.73 Q140.728 1332.13 140.728 1323.4 Q140.728 1314.65 143.784 1310.07 Q146.863 1305.46 152.673 1305.46 Z" fill="#9eb1be" fill-rule="evenodd" fill-opacity="1" /><path clip-path="url(#clip110)" d="M 0 0 M169.188 1310.04 L182.447 1310.04 L182.447 1313.24 L164.617 1313.24 L164.617 1310.04 Q166.78 1307.8 170.504 1304.04 Q174.247 1300.26 175.206 1299.17 Q177.03 1297.12 177.745 1295.71 Q178.479 1294.28 178.479 1292.9 Q178.479 1290.67 176.899 1289.26 Q175.338 1287.84 172.817 1287.84 Q171.031 1287.84 169.037 1288.47 Q167.062 1289.09 164.805 1290.35 L164.805 1286.51 Q167.1 1285.59 169.093 1285.12 Q171.087 1284.65 172.742 1284.65 Q177.106 1284.65 179.701 1286.83 Q182.297 1289.01 182.297 1292.66 Q182.297 1294.39 181.638 1295.95 Q180.999 1297.49 179.287 1299.6 Q178.817 1300.15 176.297 1302.76 Q173.777 1305.36 169.188 1310.04 Z" fill="#9eb1be" fill-rule="evenodd" fill-opacity="1" /><path clip-path="url(#clip110)" d="M 0 0 M186.566 1308.46 L190.534 1308.46 L190.534 1313.24 L186.566 1313.24 L186.566 1308.46 Z" fill="#9eb1be" fill-rule="evenodd" fill-opacity="1" /><path clip-path="url(#clip110)" d="M 0 0 M197.926 1310.04 L211.185 1310.04 L211.185 1313.24 L193.356 1313.24 L193.356 1310.04 Q195.518 1307.8 199.242 1304.04 Q202.985 1300.26 203.944 1299.17 Q205.769 1297.12 206.483 1295.71 Q207.217 1294.28 207.217 1292.9 Q207.217 1290.67 205.637 1289.26 Q204.076 1287.84 201.556 1287.84 Q199.769 1287.84 197.775 1288.47 Q195.801 1289.09 193.544 1290.35 L193.544 1286.51 Q195.838 1285.59 197.832 1285.12 Q199.825 1284.65 201.48 1284.65 Q205.844 1284.65 208.439 1286.83 Q211.035 1289.01 211.035 1292.66 Q211.035 1294.39 210.377 1295.95 Q209.737 1297.49 208.026 1299.6 Q207.555 1300.15 205.035 1302.76 Q202.515 1305.36 197.926 1310.04 Z" fill="#9eb1be" fill-rule="evenodd" fill-opacity="1" /><path clip-path="url(#clip110)" d="M 0 0 M215.342 1285.16 L230.256 1285.16 L230.256 1288.35 L218.821 1288.35 L218.821 1295.24 Q219.649 1294.95 220.476 1294.82 Q221.304 1294.67 222.131 1294.67 Q226.833 1294.67 229.579 1297.25 Q232.325 1299.83 232.325 1304.23 Q232.325 1308.76 229.504 1311.28 Q226.683 1313.78 221.548 1313.78 Q219.78 1313.78 217.937 1313.48 Q216.113 1313.18 214.157 1312.58 L214.157 1308.76 Q215.85 1309.68 217.655 1310.13 Q219.461 1310.58 221.473 1310.58 Q224.727 1310.58 226.626 1308.87 Q228.526 1307.16 228.526 1304.23 Q228.526 1301.29 226.626 1299.58 Q224.727 1297.87 221.473 1297.87 Q219.95 1297.87 218.426 1298.21 Q216.922 1298.55 215.342 1299.26 L215.342 1285.16 Z" fill="#9eb1be" fill-rule="evenodd" fill-opacity="1" /><path clip-path="url(#clip110)" d="M 0 0 M116.398 1070.75 L124.037 1070.75 L124.037 1044.39 L115.727 1046.05 L115.727 1041.79 L123.991 1040.13 L128.667 1040.13 L128.667 1070.75 L136.306 1070.75 L136.306 1074.69 L116.398 1074.69 L116.398 1070.75 Z" fill="#9eb1be" fill-rule="evenodd" fill-opacity="1" /><path clip-path="url(#clip110)" d="M 0 0 M151.375 1043.21 Q147.764 1043.21 145.935 1046.77 Q144.13 1050.31 144.13 1057.44 Q144.13 1064.55 145.935 1068.11 Q147.764 1071.66 151.375 1071.66 Q155.009 1071.66 156.815 1068.11 Q158.644 1064.55 158.644 1057.44 Q158.644 1050.31 156.815 1046.77 Q155.009 1043.21 151.375 1043.21 M151.375 1039.5 Q157.185 1039.5 160.241 1044.11 Q163.32 1048.69 163.32 1057.44 Q163.32 1066.17 160.241 1070.78 Q157.185 1075.36 151.375 1075.36 Q145.565 1075.36 142.486 1070.78 Q139.431 1066.17 139.431 1057.44 Q139.431 1048.69 142.486 1044.11 Q145.565 1039.5 151.375 1039.5 Z" fill="#9eb1be" fill-rule="evenodd" fill-opacity="1" /><path clip-path="url(#clip110)" d="M 0 0 M167.89 1044.08 L181.149 1044.08 L181.149 1047.28 L163.32 1047.28 L163.32 1044.08 Q165.482 1041.84 169.206 1038.08 Q172.949 1034.3 173.908 1033.21 Q175.733 1031.16 176.447 1029.75 Q177.181 1028.32 177.181 1026.95 Q177.181 1024.71 175.601 1023.3 Q174.04 1021.89 171.52 1021.89 Q169.733 1021.89 167.739 1022.51 Q165.765 1023.13 163.508 1024.39 L163.508 1020.55 Q165.802 1019.63 167.796 1019.16 Q169.789 1018.69 171.444 1018.69 Q175.808 1018.69 178.403 1020.87 Q180.999 1023.05 180.999 1026.7 Q180.999 1028.43 180.341 1029.99 Q179.701 1031.54 177.99 1033.64 Q177.519 1034.19 174.999 1036.8 Q172.479 1039.4 167.89 1044.08 Z" fill="#9eb1be" fill-rule="evenodd" fill-opacity="1" /><path clip-path="url(#clip110)" d="M 0 0 M185.268 1042.5 L189.237 1042.5 L189.237 1047.28 L185.268 1047.28 L185.268 1042.5 Z" fill="#9eb1be" fill-rule="evenodd" fill-opacity="1" /><path clip-path="url(#clip110)" d="M 0 0 M193.393 1019.2 L208.308 1019.2 L208.308 1022.39 L196.873 1022.39 L196.873 1029.28 Q197.7 1029 198.528 1028.86 Q199.355 1028.71 200.183 1028.71 Q204.885 1028.71 207.631 1031.29 Q210.377 1033.87 210.377 1038.27 Q210.377 1042.8 207.555 1045.32 Q204.734 1047.82 199.6 1047.82 Q197.832 1047.82 195.989 1047.52 Q194.164 1047.22 192.208 1046.62 L192.208 1042.8 Q193.901 1043.72 195.706 1044.17 Q197.512 1044.63 199.524 1044.63 Q202.778 1044.63 204.678 1042.91 Q206.577 1041.2 206.577 1038.27 Q206.577 1035.33 204.678 1033.62 Q202.778 1031.91 199.524 1031.91 Q198.001 1031.91 196.478 1032.25 Q194.973 1032.59 193.393 1033.3 L193.393 1019.2 Z" fill="#9eb1be" fill-rule="evenodd" fill-opacity="1" /><path clip-path="url(#clip110)" d="M 0 0 M222.62 1021.7 Q219.686 1021.7 218.201 1024.6 Q216.734 1027.47 216.734 1033.27 Q216.734 1039.04 218.201 1041.94 Q219.686 1044.81 222.62 1044.81 Q225.573 1044.81 227.04 1041.94 Q228.526 1039.04 228.526 1033.27 Q228.526 1027.47 227.04 1024.6 Q225.573 1021.7 222.62 1021.7 M222.62 1018.69 Q227.341 1018.69 229.824 1022.43 Q232.325 1026.16 232.325 1033.27 Q232.325 1040.36 229.824 1044.1 Q227.341 1047.82 222.62 1047.82 Q217.9 1047.82 215.398 1044.1 Q212.916 1040.36 212.916 1033.27 Q212.916 1026.16 215.398 1022.43 Q217.9 1018.69 222.62 1018.69 Z" fill="#9eb1be" fill-rule="evenodd" fill-opacity="1" /><path clip-path="url(#clip110)" d="M 0 0 M117.132 804.794 L124.771 804.794 L124.771 778.429 L116.461 780.096 L116.461 775.836 L124.725 774.17 L129.4 774.17 L129.4 804.794 L137.039 804.794 L137.039 808.73 L117.132 808.73 L117.132 804.794 Z" fill="#9eb1be" fill-rule="evenodd" fill-opacity="1" /><path clip-path="url(#clip110)" d="M 0 0 M152.109 777.248 Q148.498 777.248 146.669 780.813 Q144.863 784.355 144.863 791.484 Q144.863 798.591 146.669 802.156 Q148.498 805.697 152.109 805.697 Q155.743 805.697 157.548 802.156 Q159.377 798.591 159.377 791.484 Q159.377 784.355 157.548 780.813 Q155.743 777.248 152.109 777.248 M152.109 773.545 Q157.919 773.545 160.974 778.151 Q164.053 782.734 164.053 791.484 Q164.053 800.211 160.974 804.818 Q157.919 809.401 152.109 809.401 Q146.298 809.401 143.22 804.818 Q140.164 800.211 140.164 791.484 Q140.164 782.734 143.22 778.151 Q146.298 773.545 152.109 773.545 Z" fill="#9eb1be" fill-rule="evenodd" fill-opacity="1" /><path clip-path="url(#clip110)" d="M 0 0 M168.623 778.122 L181.883 778.122 L181.883 781.319 L164.053 781.319 L164.053 778.122 Q166.216 775.884 169.94 772.122 Q173.683 768.342 174.642 767.251 Q176.466 765.201 177.181 763.79 Q177.914 762.361 177.914 760.988 Q177.914 758.75 176.334 757.339 Q174.773 755.929 172.253 755.929 Q170.466 755.929 168.473 756.549 Q166.498 757.17 164.241 758.43 L164.241 754.593 Q166.536 753.672 168.529 753.202 Q170.523 752.731 172.178 752.731 Q176.541 752.731 179.137 754.913 Q181.732 757.095 181.732 760.744 Q181.732 762.474 181.074 764.035 Q180.435 765.577 178.723 767.684 Q178.253 768.229 175.733 770.843 Q173.212 773.439 168.623 778.122 Z" fill="#9eb1be" fill-rule="evenodd" fill-opacity="1" /><path clip-path="url(#clip110)" d="M 0 0 M186.002 776.542 L189.97 776.542 L189.97 781.319 L186.002 781.319 L186.002 776.542 Z" fill="#9eb1be" fill-rule="evenodd" fill-opacity="1" /><path clip-path="url(#clip110)" d="M 0 0 M193.13 753.239 L211.185 753.239 L211.185 754.857 L200.991 781.319 L197.023 781.319 L206.615 756.437 L193.13 756.437 L193.13 753.239 Z" fill="#9eb1be" fill-rule="evenodd" fill-opacity="1" /><path clip-path="url(#clip110)" d="M 0 0 M215.342 753.239 L230.256 753.239 L230.256 756.437 L218.821 756.437 L218.821 763.32 Q219.649 763.038 220.476 762.906 Q221.304 762.756 222.131 762.756 Q226.833 762.756 229.579 765.333 Q232.325 767.909 232.325 772.31 Q232.325 776.843 229.504 779.363 Q226.683 781.865 221.548 781.865 Q219.78 781.865 217.937 781.564 Q216.113 781.263 214.157 780.661 L214.157 776.843 Q215.85 777.765 217.655 778.216 Q219.461 778.667 221.473 778.667 Q224.727 778.667 226.626 776.956 Q228.526 775.244 228.526 772.31 Q228.526 769.376 226.626 767.665 Q224.727 765.953 221.473 765.953 Q219.95 765.953 218.426 766.292 Q216.922 766.63 215.342 767.345 L215.342 753.239 Z" fill="#9eb1be" fill-rule="evenodd" fill-opacity="1" /><path clip-path="url(#clip110)" d="M 0 0 M114.931 538.836 L122.57 538.836 L122.57 512.471 L114.26 514.137 L114.26 509.878 L122.524 508.212 L127.2 508.212 L127.2 538.836 L134.839 538.836 L134.839 542.772 L114.931 542.772 L114.931 538.836 Z" fill="#9eb1be" fill-rule="evenodd" fill-opacity="1" /><path clip-path="url(#clip110)" d="M 0 0 M149.908 511.29 Q146.297 511.29 144.468 514.855 Q142.663 518.397 142.663 525.526 Q142.663 532.633 144.468 536.198 Q146.297 539.739 149.908 539.739 Q153.542 539.739 155.348 536.198 Q157.177 532.633 157.177 525.526 Q157.177 518.397 155.348 514.855 Q153.542 511.29 149.908 511.29 M149.908 507.587 Q155.718 507.587 158.774 512.193 Q161.852 516.776 161.852 525.526 Q161.852 534.253 158.774 538.86 Q155.718 543.443 149.908 543.443 Q144.098 543.443 141.019 538.86 Q137.964 534.253 137.964 525.526 Q137.964 516.776 141.019 512.193 Q144.098 507.587 149.908 507.587 Z" fill="#9eb1be" fill-rule="evenodd" fill-opacity="1" /><path clip-path="url(#clip110)" d="M 0 0 M174.548 500.221 Q177.275 500.804 178.798 502.647 Q180.341 504.49 180.341 507.199 Q180.341 511.355 177.482 513.631 Q174.623 515.907 169.357 515.907 Q167.589 515.907 165.708 515.549 Q163.846 515.211 161.852 514.515 L161.852 510.847 Q163.432 511.769 165.313 512.239 Q167.194 512.709 169.244 512.709 Q172.817 512.709 174.679 511.299 Q176.56 509.888 176.56 507.199 Q176.56 504.716 174.811 503.324 Q173.081 501.914 169.977 501.914 L166.705 501.914 L166.705 498.792 L170.128 498.792 Q172.93 498.792 174.416 497.682 Q175.902 496.553 175.902 494.447 Q175.902 492.284 174.36 491.137 Q172.836 489.971 169.977 489.971 Q168.416 489.971 166.63 490.309 Q164.843 490.648 162.699 491.362 L162.699 487.977 Q164.862 487.375 166.743 487.074 Q168.642 486.773 170.316 486.773 Q174.642 486.773 177.162 488.748 Q179.682 490.704 179.682 494.052 Q179.682 496.384 178.347 498.002 Q177.012 499.6 174.548 500.221 Z" fill="#9eb1be" fill-rule="evenodd" fill-opacity="1" /><path clip-path="url(#clip110)" d="M 0 0 M184.459 510.584 L188.428 510.584 L188.428 515.361 L184.459 515.361 L184.459 510.584 Z" fill="#9eb1be" fill-rule="evenodd" fill-opacity="1" /><path clip-path="url(#clip110)" d="M 0 0 M200.672 489.783 Q197.738 489.783 196.252 492.679 Q194.785 495.557 194.785 501.349 Q194.785 507.123 196.252 510.02 Q197.738 512.897 200.672 512.897 Q203.625 512.897 205.092 510.02 Q206.577 507.123 206.577 501.349 Q206.577 495.557 205.092 492.679 Q203.625 489.783 200.672 489.783 M200.672 486.773 Q205.392 486.773 207.875 490.516 Q210.377 494.24 210.377 501.349 Q210.377 508.44 207.875 512.183 Q205.392 515.907 200.672 515.907 Q195.951 515.907 193.45 512.183 Q190.967 508.44 190.967 501.349 Q190.967 494.24 193.45 490.516 Q195.951 486.773 200.672 486.773 Z" fill="#9eb1be" fill-rule="evenodd" fill-opacity="1" /><path clip-path="url(#clip110)" d="M 0 0 M222.62 489.783 Q219.686 489.783 218.201 492.679 Q216.734 495.557 216.734 501.349 Q216.734 507.123 218.201 510.02 Q219.686 512.897 222.62 512.897 Q225.573 512.897 227.04 510.02 Q228.526 507.123 228.526 501.349 Q228.526 495.557 227.04 492.679 Q225.573 489.783 222.62 489.783 M222.62 486.773 Q227.341 486.773 229.824 490.516 Q232.325 494.24 232.325 501.349 Q232.325 508.44 229.824 512.183 Q227.341 515.907 222.62 515.907 Q217.9 515.907 215.398 512.183 Q212.916 508.44 212.916 501.349 Q212.916 494.24 215.398 490.516 Q217.9 486.773 222.62 486.773 Z" fill="#9eb1be" fill-rule="evenodd" fill-opacity="1" /><path clip-path="url(#clip110)" d="M 0 0 M117.038 272.878 L124.677 272.878 L124.677 246.513 L116.367 248.179 L116.367 243.92 L124.63 242.253 L129.306 242.253 L129.306 272.878 L136.945 272.878 L136.945 276.813 L117.038 276.813 L117.038 272.878 Z" fill="#9eb1be" fill-rule="evenodd" fill-opacity="1" /><path clip-path="url(#clip110)" d="M 0 0 M152.015 245.332 Q148.403 245.332 146.575 248.897 Q144.769 252.439 144.769 259.568 Q144.769 266.675 146.575 270.239 Q148.403 273.781 152.015 273.781 Q155.649 273.781 157.454 270.239 Q159.283 266.675 159.283 259.568 Q159.283 252.439 157.454 248.897 Q155.649 245.332 152.015 245.332 M152.015 241.628 Q157.825 241.628 160.88 246.235 Q163.959 250.818 163.959 259.568 Q163.959 268.295 160.88 272.901 Q157.825 277.485 152.015 277.485 Q146.204 277.485 143.126 272.901 Q140.07 268.295 140.07 259.568 Q140.07 250.818 143.126 246.235 Q146.204 241.628 152.015 241.628 Z" fill="#9eb1be" fill-rule="evenodd" fill-opacity="1" /><path clip-path="url(#clip110)" d="M 0 0 M176.654 234.263 Q179.381 234.846 180.905 236.689 Q182.447 238.532 182.447 241.24 Q182.447 245.397 179.588 247.673 Q176.729 249.948 171.463 249.948 Q169.695 249.948 167.815 249.591 Q165.953 249.253 163.959 248.557 L163.959 244.889 Q165.539 245.811 167.42 246.281 Q169.3 246.751 171.35 246.751 Q174.924 246.751 176.786 245.341 Q178.667 243.93 178.667 241.24 Q178.667 238.758 176.918 237.366 Q175.187 235.955 172.084 235.955 L168.811 235.955 L168.811 232.833 L172.234 232.833 Q175.037 232.833 176.523 231.724 Q178.008 230.595 178.008 228.489 Q178.008 226.326 176.466 225.179 Q174.943 224.013 172.084 224.013 Q170.523 224.013 168.736 224.351 Q166.949 224.69 164.805 225.404 L164.805 222.019 Q166.968 221.417 168.849 221.116 Q170.749 220.815 172.422 220.815 Q176.748 220.815 179.268 222.79 Q181.789 224.746 181.789 228.094 Q181.789 230.426 180.453 232.043 Q179.118 233.642 176.654 234.263 Z" fill="#9eb1be" fill-rule="evenodd" fill-opacity="1" /><path clip-path="url(#clip110)" d="M 0 0 M186.566 244.626 L190.534 244.626 L190.534 249.403 L186.566 249.403 L186.566 244.626 Z" fill="#9eb1be" fill-rule="evenodd" fill-opacity="1" /><path clip-path="url(#clip110)" d="M 0 0 M197.926 246.206 L211.185 246.206 L211.185 249.403 L193.356 249.403 L193.356 246.206 Q195.518 243.968 199.242 240.206 Q202.985 236.426 203.944 235.335 Q205.769 233.285 206.483 231.874 Q207.217 230.445 207.217 229.072 Q207.217 226.834 205.637 225.423 Q204.076 224.013 201.556 224.013 Q199.769 224.013 197.775 224.633 Q195.801 225.254 193.544 226.514 L193.544 222.677 Q195.838 221.756 197.832 221.285 Q199.825 220.815 201.48 220.815 Q205.844 220.815 208.439 222.997 Q211.035 225.179 211.035 228.827 Q211.035 230.558 210.377 232.119 Q209.737 233.661 208.026 235.767 Q207.555 236.313 205.035 238.927 Q202.515 241.523 197.926 246.206 Z" fill="#9eb1be" fill-rule="evenodd" fill-opacity="1" /><path clip-path="url(#clip110)" d="M 0 0 M215.342 221.323 L230.256 221.323 L230.256 224.52 L218.821 224.52 L218.821 231.404 Q219.649 231.122 220.476 230.99 Q221.304 230.84 222.131 230.84 Q226.833 230.84 229.579 233.416 Q232.325 235.993 232.325 240.394 Q232.325 244.927 229.504 247.447 Q226.683 249.948 221.548 249.948 Q219.78 249.948 217.937 249.648 Q216.113 249.347 214.157 248.745 L214.157 244.927 Q215.85 245.848 217.655 246.3 Q219.461 246.751 221.473 246.751 Q224.727 246.751 226.626 245.04 Q228.526 243.328 228.526 240.394 Q228.526 237.46 226.626 235.749 Q224.727 234.037 221.473 234.037 Q219.95 234.037 218.426 234.376 Q216.922 234.714 215.342 235.429 L215.342 221.323 Z" fill="#9eb1be" fill-rule="evenodd" fill-opacity="1" /><path clip-path="url(#clip110)" d="M 0 0 M35.3266 913.849 L35.3266 923.111 L45.9574 925.785 L45.9574 916.459 L35.3266 913.849 M17.2162 918.623 L30.4251 921.933 L30.4251 912.639 L17.2162 909.297 L17.2162 904.205 L30.4251 907.483 L30.4251 897.553 L35.3266 897.553 L35.3266 908.725 L45.9574 911.335 L45.9574 901.213 L50.8271 901.213 L50.8271 912.576 L64.0042 915.886 L64.0042 920.979 L50.8271 917.7 L50.8271 927.026 L64.0042 930.304 L64.0042 935.429 L50.8271 932.119 L50.8271 942.145 L45.9574 942.145 L45.9574 930.941 L35.3266 928.267 L35.3266 938.516 L30.4251 938.516 L30.4251 927.026 L17.2162 923.779 L17.2162 918.623 Z" fill="#9eb1be" fill-rule="evenodd" fill-opacity="1" /><path clip-path="url(#clip110)" d="M 0 0 M28.3562 870.689 L28.3562 864.833 L64.0042 864.833 L64.0042 870.689 L28.3562 870.689 M14.479 870.689 L14.479 864.833 L21.895 864.833 L21.895 870.689 L14.479 870.689 Z" fill="#9eb1be" fill-rule="evenodd" fill-opacity="1" /><path clip-path="url(#clip110)" d="M 0 0 M18.2347 852.897 L28.3562 852.897 L28.3562 840.834 L32.9077 840.834 L32.9077 852.897 L52.2594 852.897 Q56.6199 852.897 57.8613 851.72 Q59.1026 850.51 59.1026 846.85 L59.1026 840.834 L64.0042 840.834 L64.0042 846.85 Q64.0042 853.629 61.4897 856.207 Q58.9434 858.786 52.2594 858.786 L32.9077 858.786 L32.9077 863.082 L28.3562 863.082 L28.3562 858.786 L18.2347 858.786 L18.2347 852.897 Z" fill="#9eb1be" fill-rule="evenodd" fill-opacity="1" /><path clip-path="url(#clip110)" d="M 0 0 M44.7161 804.2 L47.5806 804.2 L47.5806 831.127 Q53.6281 830.745 56.8109 827.498 Q59.9619 824.22 59.9619 818.395 Q59.9619 815.021 59.1344 811.87 Q58.3069 808.687 56.6518 805.568 L62.1899 805.568 Q63.5267 808.719 64.227 812.029 Q64.9272 815.34 64.9272 818.745 Q64.9272 827.275 59.9619 832.272 Q54.9967 837.238 46.5303 837.238 Q37.7774 837.238 32.6531 832.527 Q27.4968 827.785 27.4968 819.764 Q27.4968 812.571 32.1438 808.401 Q36.7589 804.2 44.7161 804.2 M42.9973 810.056 Q38.1912 810.12 35.3266 812.762 Q32.4621 815.371 32.4621 819.7 Q32.4621 824.602 35.2312 827.562 Q38.0002 830.49 43.0292 830.936 L42.9973 810.056 Z" fill="#9eb1be" fill-rule="evenodd" fill-opacity="1" /><path clip-path="url(#clip110)" d="M 0 0 M33.8307 777.4 Q33.2578 778.387 33.0032 779.564 Q32.7167 780.71 32.7167 782.111 Q32.7167 787.076 35.9632 789.75 Q39.1779 792.391 45.2253 792.391 L64.0042 792.391 L64.0042 798.28 L28.3562 798.28 L28.3562 792.391 L33.8944 792.391 Q30.6479 790.545 29.0883 787.585 Q27.4968 784.625 27.4968 780.392 Q27.4968 779.787 27.5923 779.055 Q27.656 778.323 27.8151 777.432 L33.8307 777.4 Z" fill="#9eb1be" fill-rule="evenodd" fill-opacity="1" /><path clip-path="url(#clip110)" d="M 0 0 M46.0847 755.056 Q46.0847 762.154 47.7079 764.891 Q49.3312 767.629 53.2461 767.629 Q56.3653 767.629 58.2114 765.592 Q60.0256 763.523 60.0256 759.99 Q60.0256 755.12 56.5881 752.192 Q53.1188 749.232 47.3897 749.232 L46.0847 749.232 L46.0847 755.056 M43.6657 743.375 L64.0042 743.375 L64.0042 749.232 L58.5933 749.232 Q61.8398 751.237 63.3994 754.229 Q64.9272 757.221 64.9272 761.549 Q64.9272 767.024 61.8716 770.27 Q58.7843 773.485 53.6281 773.485 Q47.6125 773.485 44.5569 769.475 Q41.5014 765.433 41.5014 757.444 L41.5014 749.232 L40.9285 749.232 Q36.8862 749.232 34.6901 751.905 Q32.4621 754.547 32.4621 759.353 Q32.4621 762.409 33.1941 765.305 Q33.9262 768.202 35.3903 770.875 L29.9795 770.875 Q28.7381 767.661 28.1334 764.637 Q27.4968 761.613 27.4968 758.749 Q27.4968 751.014 31.5072 747.195 Q35.5176 743.375 43.6657 743.375 Z" fill="#9eb1be" fill-rule="evenodd" fill-opacity="1" /><path clip-path="url(#clip110)" d="M 0 0 M18.2347 731.44 L28.3562 731.44 L28.3562 719.377 L32.9077 719.377 L32.9077 731.44 L52.2594 731.44 Q56.6199 731.44 57.8613 730.262 Q59.1026 729.052 59.1026 725.392 L59.1026 719.377 L64.0042 719.377 L64.0042 725.392 Q64.0042 732.172 61.4897 734.75 Q58.9434 737.328 52.2594 737.328 L32.9077 737.328 L32.9077 741.625 L28.3562 741.625 L28.3562 737.328 L18.2347 737.328 L18.2347 731.44 Z" fill="#9eb1be" fill-rule="evenodd" fill-opacity="1" /><path clip-path="url(#clip110)" d="M 0 0 M28.3562 713.234 L28.3562 707.377 L64.0042 707.377 L64.0042 713.234 L28.3562 713.234 M14.479 713.234 L14.479 707.377 L21.895 707.377 L21.895 713.234 L14.479 713.234 Z" fill="#9eb1be" fill-rule="evenodd" fill-opacity="1" /><path clip-path="url(#clip110)" d="M 0 0 M32.4621 687.421 Q32.4621 692.131 36.1542 694.869 Q39.8145 697.606 46.212 697.606 Q52.6095 697.606 56.3017 694.9 Q59.9619 692.163 59.9619 687.421 Q59.9619 682.742 56.2698 680.005 Q52.5777 677.267 46.212 677.267 Q39.8781 677.267 36.186 680.005 Q32.4621 682.742 32.4621 687.421 M27.4968 687.421 Q27.4968 679.782 32.4621 675.421 Q37.4273 671.061 46.212 671.061 Q54.9649 671.061 59.9619 675.421 Q64.9272 679.782 64.9272 687.421 Q64.9272 695.091 59.9619 699.452 Q54.9649 703.781 46.212 703.781 Q37.4273 703.781 32.4621 699.452 Q27.4968 695.091 27.4968 687.421 Z" fill="#9eb1be" fill-rule="evenodd" fill-opacity="1" /><path clip-path="url(#clip110)" d="M 0 0 M42.4881 635.286 L64.0042 635.286 L64.0042 641.142 L42.679 641.142 Q37.6183 641.142 35.1038 643.115 Q32.5894 645.089 32.5894 649.036 Q32.5894 653.778 35.6131 656.515 Q38.6368 659.253 43.8567 659.253 L64.0042 659.253 L64.0042 665.141 L28.3562 665.141 L28.3562 659.253 L33.8944 659.253 Q30.6797 657.152 29.0883 654.319 Q27.4968 651.455 27.4968 647.731 Q27.4968 641.588 31.3163 638.437 Q35.1038 635.286 42.4881 635.286 Z" fill="#9eb1be" fill-rule="evenodd" fill-opacity="1" /><path clip-path="url(#clip110)" d="M 0 0 M29.4065 606.417 L34.9447 606.417 Q33.6716 608.9 33.035 611.573 Q32.3984 614.247 32.3984 617.112 Q32.3984 621.472 33.7352 623.668 Q35.072 625.833 37.7456 625.833 Q39.7826 625.833 40.9603 624.273 Q42.1061 622.713 43.1565 618.003 L43.6021 615.998 Q44.9389 609.759 47.3897 607.149 Q49.8086 604.507 54.1691 604.507 Q59.1344 604.507 62.0308 608.454 Q64.9272 612.369 64.9272 619.244 Q64.9272 622.109 64.3543 625.228 Q63.8132 628.315 62.6992 631.753 L56.6518 631.753 Q58.3387 628.506 59.198 625.355 Q60.0256 622.204 60.0256 619.117 Q60.0256 614.979 58.6251 612.751 Q57.1929 610.523 54.6147 610.523 Q52.2276 610.523 50.9545 612.146 Q49.6813 613.738 48.5037 619.18 L48.0262 621.217 Q46.8804 626.66 44.5251 629.079 Q42.138 631.498 38.0002 631.498 Q32.9713 631.498 30.2341 627.933 Q27.4968 624.368 27.4968 617.812 Q27.4968 614.565 27.9743 611.701 Q28.4517 608.836 29.4065 606.417 Z" fill="#9eb1be" fill-rule="evenodd" fill-opacity="1" /><path clip-path="url(#clip110)" d="M 0 0 M1039.82 36.0774 L1028.03 36.0774 L1024.63 49.6074 L1036.5 49.6074 L1039.82 36.0774 M1033.74 13.0277 L1029.53 29.839 L1041.36 29.839 L1045.61 13.0277 L1052.09 13.0277 L1047.92 29.839 L1060.56 29.839 L1060.56 36.0774 L1046.34 36.0774 L1043.02 49.6074 L1055.9 49.6074 L1055.9 55.8053 L1041.44 55.8053 L1037.23 72.576 L1030.74 72.576 L1034.92 55.8053 L1023.05 55.8053 L1018.88 72.576 L1012.35 72.576 L1016.57 55.8053 L1003.81 55.8053 L1003.81 49.6074 L1018.07 49.6074 L1021.47 36.0774 L1008.42 36.0774 L1008.42 29.839 L1023.05 29.839 L1027.18 13.0277 L1033.74 13.0277 Z" fill="#adb2b7" fill-rule="evenodd" fill-opacity="1" /><path clip-path="url(#clip110)" d="M 0 0 M1123.67 28.5427 L1123.67 35.5912 Q1120.51 33.9709 1117.11 33.1607 Q1113.71 32.3505 1110.06 32.3505 Q1104.51 32.3505 1101.72 34.0519 Q1098.96 35.7533 1098.96 39.156 Q1098.96 41.7486 1100.95 43.2475 Q1102.93 44.7058 1108.93 46.0426 L1111.48 46.6097 Q1119.42 48.3111 1122.74 51.4303 Q1126.1 54.509 1126.1 60.0587 Q1126.1 66.3781 1121.08 70.0644 Q1116.1 73.7508 1107.35 73.7508 Q1103.7 73.7508 1099.73 73.0216 Q1095.8 72.3329 1091.43 70.9151 L1091.43 63.2184 Q1095.56 65.3654 1099.57 66.4591 Q1103.58 67.5124 1107.51 67.5124 Q1112.78 67.5124 1115.61 65.73 Q1118.45 63.9071 1118.45 60.6258 Q1118.45 57.5877 1116.38 55.9673 Q1114.36 54.3469 1107.43 52.8481 L1104.84 52.2405 Q1097.91 50.7821 1094.83 47.7845 Q1091.75 44.7463 1091.75 39.4801 Q1091.75 33.0797 1096.29 29.5959 Q1100.83 26.1121 1109.17 26.1121 Q1113.3 26.1121 1116.95 26.7198 Q1120.59 27.3274 1123.67 28.5427 Z" fill="#adb2b7" fill-rule="evenodd" fill-opacity="1" /><path clip-path="url(#clip110)" d="M 0 0 M1133.92 27.2059 L1141.37 27.2059 L1141.37 72.576 L1133.92 72.576 L1133.92 27.2059 M1133.92 9.54393 L1141.37 9.54393 L1141.37 18.9825 L1133.92 18.9825 L1133.92 9.54393 Z" fill="#adb2b7" fill-rule="evenodd" fill-opacity="1" /><path clip-path="url(#clip110)" d="M 0 0 M1186.91 45.1919 L1186.91 72.576 L1179.45 72.576 L1179.45 45.4349 Q1179.45 38.994 1176.94 35.7938 Q1174.43 32.5936 1169.41 32.5936 Q1163.37 32.5936 1159.89 36.4419 Q1156.4 40.2903 1156.4 46.9338 L1156.4 72.576 L1148.91 72.576 L1148.91 27.2059 L1156.4 27.2059 L1156.4 34.2544 Q1159.08 30.163 1162.68 28.1376 Q1166.33 26.1121 1171.07 26.1121 Q1178.89 26.1121 1182.9 30.9732 Q1186.91 35.7938 1186.91 45.1919 Z" fill="#adb2b7" fill-rule="evenodd" fill-opacity="1" /><path clip-path="url(#clip110)" d="M 0 0 M1194.44 9.54393 L1201.94 9.54393 L1201.94 46.7717 L1224.18 27.2059 L1233.69 27.2059 L1209.63 48.4326 L1234.71 72.576 L1224.99 72.576 L1201.94 50.4176 L1201.94 72.576 L1194.44 72.576 L1194.44 9.54393 Z" fill="#adb2b7" fill-rule="evenodd" fill-opacity="1" /><path clip-path="url(#clip110)" d="M 0 0 M1286.48 32.4315 Q1280.48 32.4315 1277 37.1306 Q1273.52 41.7891 1273.52 49.9314 Q1273.52 58.0738 1276.96 62.7728 Q1280.44 67.4314 1286.48 67.4314 Q1292.43 67.4314 1295.92 62.7323 Q1299.4 58.0333 1299.4 49.9314 Q1299.4 41.8701 1295.92 37.1711 Q1292.43 32.4315 1286.48 32.4315 M1286.48 26.1121 Q1296.2 26.1121 1301.75 32.4315 Q1307.3 38.7509 1307.3 49.9314 Q1307.3 61.0714 1301.75 67.4314 Q1296.2 73.7508 1286.48 73.7508 Q1276.72 73.7508 1271.17 67.4314 Q1265.66 61.0714 1265.66 49.9314 Q1265.66 38.7509 1271.17 32.4315 Q1276.72 26.1121 1286.48 26.1121 Z" fill="#adb2b7" fill-rule="evenodd" fill-opacity="1" /><path clip-path="url(#clip110)" d="M 0 0 M1347.69 49.9314 Q1347.69 41.7081 1344.28 37.0496 Q1340.92 32.3505 1335.01 32.3505 Q1329.09 32.3505 1325.69 37.0496 Q1322.33 41.7081 1322.33 49.9314 Q1322.33 58.1548 1325.69 62.8538 Q1329.09 67.5124 1335.01 67.5124 Q1340.92 67.5124 1344.28 62.8538 Q1347.69 58.1548 1347.69 49.9314 M1322.33 34.0924 Q1324.68 30.0415 1328.24 28.0971 Q1331.85 26.1121 1336.83 26.1121 Q1345.09 26.1121 1350.24 32.6746 Q1355.42 39.2371 1355.42 49.9314 Q1355.42 60.6258 1350.24 67.1883 Q1345.09 73.7508 1336.83 73.7508 Q1331.85 73.7508 1328.24 71.8063 Q1324.68 69.8214 1322.33 65.7705 L1322.33 72.576 L1314.83 72.576 L1314.83 9.54393 L1322.33 9.54393 L1322.33 34.0924 Z" fill="#adb2b7" fill-rule="evenodd" fill-opacity="1" /><path clip-path="url(#clip110)" d="M 0 0 M1363.24 27.2059 L1370.7 27.2059 L1370.7 73.3862 Q1370.7 82.0551 1367.37 85.944 Q1364.09 89.8329 1356.76 89.8329 L1353.93 89.8329 L1353.93 83.5134 L1355.91 83.5134 Q1360.16 83.5134 1361.7 81.5285 Q1363.24 79.5841 1363.24 73.3862 L1363.24 27.2059 M1363.24 9.54393 L1370.7 9.54393 L1370.7 18.9825 L1363.24 18.9825 L1363.24 9.54393 Z" fill="#adb2b7" fill-rule="evenodd" fill-opacity="1" /><path clip-path="url(#clip110)" d="M 0 0 M1417.32 48.0275 L1417.32 51.6733 L1383.05 51.6733 Q1383.54 59.3701 1387.67 63.421 Q1391.84 67.4314 1399.26 67.4314 Q1403.55 67.4314 1407.56 66.3781 Q1411.61 65.3249 1415.58 63.2184 L1415.58 70.267 Q1411.57 71.9684 1407.36 72.8596 Q1403.14 73.7508 1398.81 73.7508 Q1387.95 73.7508 1381.59 67.4314 Q1375.27 61.1119 1375.27 50.3365 Q1375.27 39.1965 1381.27 32.6746 Q1387.31 26.1121 1397.51 26.1121 Q1406.67 26.1121 1411.98 32.0264 Q1417.32 37.9003 1417.32 48.0275 M1409.87 45.84 Q1409.79 39.7232 1406.43 36.0774 Q1403.1 32.4315 1397.59 32.4315 Q1391.36 32.4315 1387.59 35.9558 Q1383.86 39.4801 1383.29 45.8805 L1409.87 45.84 Z" fill="#adb2b7" fill-rule="evenodd" fill-opacity="1" /><path clip-path="url(#clip110)" d="M 0 0 M1457.79 28.9478 L1457.79 35.9153 Q1454.63 34.1734 1451.43 33.3227 Q1448.27 32.4315 1445.03 32.4315 Q1437.78 32.4315 1433.77 37.0496 Q1429.76 41.6271 1429.76 49.9314 Q1429.76 58.2358 1433.77 62.8538 Q1437.78 67.4314 1445.03 67.4314 Q1448.27 67.4314 1451.43 66.5807 Q1454.63 65.6895 1457.79 63.9476 L1457.79 70.8341 Q1454.67 72.2924 1451.31 73.0216 Q1447.99 73.7508 1444.22 73.7508 Q1433.97 73.7508 1427.94 67.3098 Q1421.9 60.8689 1421.9 49.9314 Q1421.9 38.832 1427.98 32.472 Q1434.09 26.1121 1444.71 26.1121 Q1448.15 26.1121 1451.43 26.8413 Q1454.71 27.5299 1457.79 28.9478 Z" fill="#adb2b7" fill-rule="evenodd" fill-opacity="1" /><path clip-path="url(#clip110)" d="M 0 0 M1472.98 14.324 L1472.98 27.2059 L1488.33 27.2059 L1488.33 32.9987 L1472.98 32.9987 L1472.98 57.6282 Q1472.98 63.1779 1474.48 64.7578 Q1476.02 66.3376 1480.68 66.3376 L1488.33 66.3376 L1488.33 72.576 L1480.68 72.576 Q1472.05 72.576 1468.77 69.3758 Q1465.49 66.1351 1465.49 57.6282 L1465.49 32.9987 L1460.02 32.9987 L1460.02 27.2059 L1465.49 27.2059 L1465.49 14.324 L1472.98 14.324 Z" fill="#adb2b7" fill-rule="evenodd" fill-opacity="1" /><path clip-path="url(#clip110)" d="M 0 0 M1525.08 28.5427 L1525.08 35.5912 Q1521.92 33.9709 1518.51 33.1607 Q1515.11 32.3505 1511.47 32.3505 Q1505.92 32.3505 1503.12 34.0519 Q1500.37 35.7533 1500.37 39.156 Q1500.37 41.7486 1502.35 43.2475 Q1504.34 44.7058 1510.33 46.0426 L1512.88 46.6097 Q1520.82 48.3111 1524.14 51.4303 Q1527.51 54.509 1527.51 60.0587 Q1527.51 66.3781 1522.48 70.0644 Q1517.5 73.7508 1508.75 73.7508 Q1505.11 73.7508 1501.14 73.0216 Q1497.21 72.3329 1492.83 70.9151 L1492.83 63.2184 Q1496.96 65.3654 1500.97 66.4591 Q1504.98 67.5124 1508.91 67.5124 Q1514.18 67.5124 1517.02 65.73 Q1519.85 63.9071 1519.85 60.6258 Q1519.85 57.5877 1517.78 55.9673 Q1515.76 54.3469 1508.83 52.8481 L1506.24 52.2405 Q1499.31 50.7821 1496.23 47.7845 Q1493.16 44.7463 1493.16 39.4801 Q1493.16 33.0797 1497.69 29.5959 Q1502.23 26.1121 1510.57 26.1121 Q1514.71 26.1121 1518.35 26.7198 Q1522 27.3274 1525.08 28.5427 Z" fill="#adb2b7" fill-rule="evenodd" fill-opacity="1" /><path clip-path="url(#clip110)" d="M 0 0 M1537.23 62.2867 L1545.78 62.2867 L1545.78 72.576 L1537.23 72.576 L1537.23 62.2867 M1537.23 29.6769 L1545.78 29.6769 L1545.78 39.9662 L1537.23 39.9662 L1537.23 29.6769 Z" fill="#adb2b7" fill-rule="evenodd" fill-opacity="1" /><path clip-path="url(#clip110)" d="M 0 0 M1582.44 65.6895 L1595.81 65.6895 L1595.81 19.5497 L1581.26 22.4663 L1581.26 15.0127 L1595.72 12.096 L1603.91 12.096 L1603.91 65.6895 L1617.28 65.6895 L1617.28 72.576 L1582.44 72.576 L1582.44 65.6895 Z" fill="#adb2b7" fill-rule="evenodd" fill-opacity="1" /><polyline clip-path="url(#clip112)" style="stroke:#fe4365; stroke-width:4; stroke-opacity:1; fill:none" points="
  327.319,998.829 347.182,1004.08 367.045,1009.39 386.908,1014.76 406.771,1020.2 426.634,1025.7 446.497,1031.26 466.36,1036.9 486.223,1042.6 506.086,1048.38 
  525.949,1054.23 545.812,1060.15 565.675,1066.15 585.538,1072.23 605.402,1078.39 625.265,1084.63 645.128,1090.96 664.991,1097.38 684.854,1103.89 704.717,1110.49 
  724.58,1117.18 744.443,1123.98 764.306,1130.87 784.169,1137.87 804.032,1146.78 823.895,1154.02 843.758,1161.39 863.621,1168.87 883.485,1176.47 903.348,1184.21 
  923.211,1192.07 943.074,1200.07 962.937,1210.27 982.8,1218.6 1002.66,1227.07 1022.53,1235.71 1042.39,1246.74 1062.25,1255.75 1082.12,1267.27 1101.98,1276.7 
  1121.84,1288.77 1141.7,1298.65 1161.57,1311.31 1181.43,1324.32 1201.29,1337.72 1221.16,1351.51 1241.02,1368.62 1260.88,1386.4 1280.75,1380.4 1300.61,1374.47 
  1320.47,1362.85 1340.34,1351.51 1360.2,1345.94 1380.06,1337.72 1399.92,1329.64 1419.79,1321.69 1439.65,1308.75 1459.51,1296.16 1479.38,1283.9 1499.24,1274.33 
  1519.1,1267.27 1538.97,1260.33 1558.83,1244.51 1578.69,1235.71 1598.56,1229.22 1618.42,1218.6 1638.28,1202.09 1658.14,1186.16 1678.01,1174.56 1697.87,1155.85 
  1717.73,1146.78 1737.6,1137.87 1757.46,1120.57 1777.32,1108.83 1797.19,1089.37 1817.05,1070.7 1836.91,1054.23 1856.78,1041.17 1876.64,1022.94 1896.5,1005.4 
  1916.36,984.691 1936.23,966.084 1956.09,942.385 1975.95,919.844 1995.82,897.302 2015.68,876.81 2035.54,852.41 2055.41,821.169 2075.27,792.741 2095.13,757.37 
  2114.99,725.958 2134.86,692.495 2154.72,654.429 2174.58,607.363 2194.45,561.096 2214.31,500.923 2234.17,437.124 2254.04,360.628 2273.9,273.07 2293.76,160.256 
  
  "/>
<path clip-path="url(#clip110)" d="
M1900.82 287.756 L2283.27 287.756 L2283.27 166.796 L1900.82 166.796  Z
  " fill="#282c34" fill-rule="evenodd" fill-opacity="1"/>
<polyline clip-path="url(#clip110)" style="stroke:#9eb1be; stroke-width:4; stroke-opacity:1; fill:none" points="
  1900.82,287.756 2283.27,287.756 2283.27,166.796 1900.82,166.796 1900.82,287.756 
  "/>
<polyline clip-path="url(#clip110)" style="stroke:#fe4365; stroke-width:4; stroke-opacity:1; fill:none" points="
  1923.98,227.276 2062.94,227.276 
  "/>
<path clip-path="url(#clip110)" d="M 0 0 M2086.1 209.996 L2092.39 209.996 L2107.72 238.908 L2107.72 209.996 L2112.26 209.996 L2112.26 244.556 L2105.96 244.556 L2090.64 215.644 L2090.64 244.556 L2086.1 244.556 L2086.1 209.996 Z" fill="#adb2b7" fill-rule="evenodd" fill-opacity="1" /><path clip-path="url(#clip110)" d="M 0 0 M2117.28 223.028 L2146.95 223.028 L2146.95 226.917 L2117.28 226.917 L2117.28 223.028 M2117.28 232.472 L2146.95 232.472 L2146.95 236.408 L2117.28 236.408 L2117.28 232.472 Z" fill="#adb2b7" fill-rule="evenodd" fill-opacity="1" /><path clip-path="url(#clip110)" d="M 0 0 M2152.07 209.996 L2170.43 209.996 L2170.43 213.931 L2156.35 213.931 L2156.35 222.403 Q2157.37 222.056 2158.39 221.894 Q2159.41 221.709 2160.43 221.709 Q2166.21 221.709 2169.59 224.88 Q2172.97 228.051 2172.97 233.468 Q2172.97 239.046 2169.5 242.148 Q2166.03 245.227 2159.71 245.227 Q2157.53 245.227 2155.26 244.857 Q2153.02 244.486 2150.61 243.746 L2150.61 239.046 Q2152.7 240.181 2154.92 240.736 Q2157.14 241.292 2159.62 241.292 Q2163.62 241.292 2165.96 239.185 Q2168.3 237.079 2168.3 233.468 Q2168.3 229.857 2165.96 227.75 Q2163.62 225.644 2159.62 225.644 Q2157.74 225.644 2155.87 226.06 Q2154.01 226.477 2152.07 227.357 L2152.07 209.996 Z" fill="#adb2b7" fill-rule="evenodd" fill-opacity="1" /><path clip-path="url(#clip110)" d="M 0 0 M2188.04 213.074 Q2184.43 213.074 2182.6 216.639 Q2180.8 220.181 2180.8 227.31 Q2180.8 234.417 2182.6 237.982 Q2184.43 241.523 2188.04 241.523 Q2191.68 241.523 2193.48 237.982 Q2195.31 234.417 2195.31 227.31 Q2195.31 220.181 2193.48 216.639 Q2191.68 213.074 2188.04 213.074 M2188.04 209.371 Q2193.85 209.371 2196.91 213.977 Q2199.99 218.56 2199.99 227.31 Q2199.99 236.037 2196.91 240.644 Q2193.85 245.227 2188.04 245.227 Q2182.23 245.227 2179.15 240.644 Q2176.1 236.037 2176.1 227.31 Q2176.1 218.56 2179.15 213.977 Q2182.23 209.371 2188.04 209.371 Z" fill="#adb2b7" fill-rule="evenodd" fill-opacity="1" /><path clip-path="url(#clip110)" d="M 0 0 M2205.06 238.676 L2209.94 238.676 L2209.94 244.556 L2205.06 244.556 L2205.06 238.676 Z" fill="#adb2b7" fill-rule="evenodd" fill-opacity="1" /><path clip-path="url(#clip110)" d="M 0 0 M2225.01 213.074 Q2221.4 213.074 2219.57 216.639 Q2217.76 220.181 2217.76 227.31 Q2217.76 234.417 2219.57 237.982 Q2221.4 241.523 2225.01 241.523 Q2228.64 241.523 2230.45 237.982 Q2232.28 234.417 2232.28 227.31 Q2232.28 220.181 2230.45 216.639 Q2228.64 213.074 2225.01 213.074 M2225.01 209.371 Q2230.82 209.371 2233.88 213.977 Q2236.95 218.56 2236.95 227.31 Q2236.95 236.037 2233.88 240.644 Q2230.82 245.227 2225.01 245.227 Q2219.2 245.227 2216.12 240.644 Q2213.07 236.037 2213.07 227.31 Q2213.07 218.56 2216.12 213.977 Q2219.2 209.371 2225.01 209.371 Z" fill="#adb2b7" fill-rule="evenodd" fill-opacity="1" /></svg>
