<?xml version="1.0" encoding="utf-8"?>
<svg xmlns="http://www.w3.org/2000/svg" xmlns:xlink="http://www.w3.org/1999/xlink" width="600" height="400" viewBox="0 0 2400 1600">
<defs>
  <clipPath id="clip950">
    <rect x="0" y="0" width="2400" height="1600"/>
  </clipPath>
</defs>
<path clip-path="url(#clip950)" d="
M0 1600 L2400 1600 L2400 0 L0 0  Z
  " fill="#282c34" fill-rule="evenodd" fill-opacity="1"/>
<defs>
  <clipPath id="clip951">
    <rect x="480" y="0" width="1681" height="1600"/>
  </clipPath>
</defs>
<path clip-path="url(#clip950)" d="
M268.325 1423.18 L2352.76 1423.18 L2352.76 123.472 L268.325 123.472  Z
  " fill="#21252b" fill-rule="evenodd" fill-opacity="1"/>
<defs>
  <clipPath id="clip952">
    <rect x="268" y="123" width="2085" height="1301"/>
  </clipPath>
</defs>
<polyline clip-path="url(#clip952)" style="stroke:#adb2b7; stroke-width:2; stroke-opacity:0.1; fill:none" points="
  608.239,1423.18 608.239,123.472 
  "/>
<polyline clip-path="url(#clip952)" style="stroke:#adb2b7; stroke-width:2; stroke-opacity:0.1; fill:none" points="
  959.39,1423.18 959.39,123.472 
  "/>
<polyline clip-path="url(#clip952)" style="stroke:#adb2b7; stroke-width:2; stroke-opacity:0.1; fill:none" points="
  1310.54,1423.18 1310.54,123.472 
  "/>
<polyline clip-path="url(#clip952)" style="stroke:#adb2b7; stroke-width:2; stroke-opacity:0.1; fill:none" points="
  1661.69,1423.18 1661.69,123.472 
  "/>
<polyline clip-path="url(#clip952)" style="stroke:#adb2b7; stroke-width:2; stroke-opacity:0.1; fill:none" points="
  2012.84,1423.18 2012.84,123.472 
  "/>
<polyline clip-path="url(#clip950)" style="stroke:#adb2b7; stroke-width:4; stroke-opacity:1; fill:none" points="
  268.325,1423.18 2352.76,1423.18 
  "/>
<polyline clip-path="url(#clip950)" style="stroke:#adb2b7; stroke-width:4; stroke-opacity:1; fill:none" points="
  608.239,1423.18 608.239,1407.58 
  "/>
<polyline clip-path="url(#clip950)" style="stroke:#adb2b7; stroke-width:4; stroke-opacity:1; fill:none" points="
  959.39,1423.18 959.39,1407.58 
  "/>
<polyline clip-path="url(#clip950)" style="stroke:#adb2b7; stroke-width:4; stroke-opacity:1; fill:none" points="
  1310.54,1423.18 1310.54,1407.58 
  "/>
<polyline clip-path="url(#clip950)" style="stroke:#adb2b7; stroke-width:4; stroke-opacity:1; fill:none" points="
  1661.69,1423.18 1661.69,1407.58 
  "/>
<polyline clip-path="url(#clip950)" style="stroke:#adb2b7; stroke-width:4; stroke-opacity:1; fill:none" points="
  2012.84,1423.18 2012.84,1407.58 
  "/>
<path clip-path="url(#clip950)" d="M 0 0 M567.58 1479.92 L575.218 1479.92 L575.218 1453.55 L566.908 1455.22 L566.908 1450.96 L575.172 1449.29 L579.848 1449.29 L579.848 1479.92 L587.487 1479.92 L587.487 1483.85 L567.58 1483.85 L567.58 1479.92 Z" fill="#9eb1be" fill-rule="evenodd" fill-opacity="1" /><path clip-path="url(#clip950)" d="M 0 0 M592.556 1477.97 L597.441 1477.97 L597.441 1483.85 L592.556 1483.85 L592.556 1477.97 Z" fill="#9eb1be" fill-rule="evenodd" fill-opacity="1" /><path clip-path="url(#clip950)" d="M 0 0 M601.329 1449.29 L623.552 1449.29 L623.552 1451.28 L611.005 1483.85 L606.121 1483.85 L617.927 1453.23 L601.329 1453.23 L601.329 1449.29 Z" fill="#9eb1be" fill-rule="evenodd" fill-opacity="1" /><path clip-path="url(#clip950)" d="M 0 0 M628.667 1449.29 L647.024 1449.29 L647.024 1453.23 L632.95 1453.23 L632.95 1461.7 Q633.968 1461.35 634.987 1461.19 Q636.005 1461 637.024 1461 Q642.811 1461 646.19 1464.18 Q649.57 1467.35 649.57 1472.76 Q649.57 1478.34 646.098 1481.44 Q642.625 1484.52 636.306 1484.52 Q634.13 1484.52 631.862 1484.15 Q629.616 1483.78 627.209 1483.04 L627.209 1478.34 Q629.292 1479.48 631.514 1480.03 Q633.737 1480.59 636.213 1480.59 Q640.218 1480.59 642.556 1478.48 Q644.894 1476.38 644.894 1472.76 Q644.894 1469.15 642.556 1467.05 Q640.218 1464.94 636.213 1464.94 Q634.339 1464.94 632.464 1465.36 Q630.612 1465.77 628.667 1466.65 L628.667 1449.29 Z" fill="#9eb1be" fill-rule="evenodd" fill-opacity="1" /><path clip-path="url(#clip950)" d="M 0 0 M917.828 1479.92 L925.466 1479.92 L925.466 1453.55 L917.156 1455.22 L917.156 1450.96 L925.42 1449.29 L930.096 1449.29 L930.096 1479.92 L937.735 1479.92 L937.735 1483.85 L917.828 1483.85 L917.828 1479.92 Z" fill="#9eb1be" fill-rule="evenodd" fill-opacity="1" /><path clip-path="url(#clip950)" d="M 0 0 M942.804 1477.97 L947.689 1477.97 L947.689 1483.85 L942.804 1483.85 L942.804 1477.97 Z" fill="#9eb1be" fill-rule="evenodd" fill-opacity="1" /><path clip-path="url(#clip950)" d="M 0 0 M962.758 1467.44 Q959.425 1467.44 957.503 1469.22 Q955.605 1471 955.605 1474.13 Q955.605 1477.25 957.503 1479.04 Q959.425 1480.82 962.758 1480.82 Q966.091 1480.82 968.012 1479.04 Q969.934 1477.23 969.934 1474.13 Q969.934 1471 968.012 1469.22 Q966.114 1467.44 962.758 1467.44 M958.082 1465.45 Q955.073 1464.71 953.383 1462.65 Q951.716 1460.59 951.716 1457.63 Q951.716 1453.48 954.656 1451.07 Q957.619 1448.67 962.758 1448.67 Q967.92 1448.67 970.86 1451.07 Q973.799 1453.48 973.799 1457.63 Q973.799 1460.59 972.11 1462.65 Q970.443 1464.71 967.457 1465.45 Q970.837 1466.24 972.712 1468.53 Q974.61 1470.82 974.61 1474.13 Q974.61 1479.15 971.531 1481.84 Q968.475 1484.52 962.758 1484.52 Q957.04 1484.52 953.962 1481.84 Q950.906 1479.15 950.906 1474.13 Q950.906 1470.82 952.804 1468.53 Q954.702 1466.24 958.082 1465.45 M956.369 1458.06 Q956.369 1460.75 958.036 1462.25 Q959.725 1463.76 962.758 1463.76 Q965.767 1463.76 967.457 1462.25 Q969.17 1460.75 969.17 1458.06 Q969.17 1455.38 967.457 1453.88 Q965.767 1452.37 962.758 1452.37 Q959.725 1452.37 958.036 1453.88 Q956.369 1455.38 956.369 1458.06 Z" fill="#9eb1be" fill-rule="evenodd" fill-opacity="1" /><path clip-path="url(#clip950)" d="M 0 0 M989.679 1452.37 Q986.068 1452.37 984.239 1455.94 Q982.434 1459.48 982.434 1466.61 Q982.434 1473.71 984.239 1477.28 Q986.068 1480.82 989.679 1480.82 Q993.313 1480.82 995.119 1477.28 Q996.948 1473.71 996.948 1466.61 Q996.948 1459.48 995.119 1455.94 Q993.313 1452.37 989.679 1452.37 M989.679 1448.67 Q995.489 1448.67 998.545 1453.27 Q1001.62 1457.86 1001.62 1466.61 Q1001.62 1475.33 998.545 1479.94 Q995.489 1484.52 989.679 1484.52 Q983.869 1484.52 980.79 1479.94 Q977.735 1475.33 977.735 1466.61 Q977.735 1457.86 980.79 1453.27 Q983.869 1448.67 989.679 1448.67 Z" fill="#9eb1be" fill-rule="evenodd" fill-opacity="1" /><path clip-path="url(#clip950)" d="M 0 0 M1269.48 1479.92 L1277.11 1479.92 L1277.11 1453.55 L1268.8 1455.22 L1268.8 1450.96 L1277.07 1449.29 L1281.74 1449.29 L1281.74 1479.92 L1289.38 1479.92 L1289.38 1483.85 L1269.48 1483.85 L1269.48 1479.92 Z" fill="#9eb1be" fill-rule="evenodd" fill-opacity="1" /><path clip-path="url(#clip950)" d="M 0 0 M1294.45 1477.97 L1299.34 1477.97 L1299.34 1483.85 L1294.45 1483.85 L1294.45 1477.97 Z" fill="#9eb1be" fill-rule="evenodd" fill-opacity="1" /><path clip-path="url(#clip950)" d="M 0 0 M1314.41 1467.44 Q1311.07 1467.44 1309.15 1469.22 Q1307.25 1471 1307.25 1474.13 Q1307.25 1477.25 1309.15 1479.04 Q1311.07 1480.82 1314.41 1480.82 Q1317.74 1480.82 1319.66 1479.04 Q1321.58 1477.23 1321.58 1474.13 Q1321.58 1471 1319.66 1469.22 Q1317.76 1467.44 1314.41 1467.44 M1309.73 1465.45 Q1306.72 1464.71 1305.03 1462.65 Q1303.36 1460.59 1303.36 1457.63 Q1303.36 1453.48 1306.3 1451.07 Q1309.27 1448.67 1314.41 1448.67 Q1319.57 1448.67 1322.51 1451.07 Q1325.45 1453.48 1325.45 1457.63 Q1325.45 1460.59 1323.76 1462.65 Q1322.09 1464.71 1319.11 1465.45 Q1322.48 1466.24 1324.36 1468.53 Q1326.26 1470.82 1326.26 1474.13 Q1326.26 1479.15 1323.18 1481.84 Q1320.12 1484.52 1314.41 1484.52 Q1308.69 1484.52 1305.61 1481.84 Q1302.55 1479.15 1302.55 1474.13 Q1302.55 1470.82 1304.45 1468.53 Q1306.35 1466.24 1309.73 1465.45 M1308.02 1458.06 Q1308.02 1460.75 1309.68 1462.25 Q1311.37 1463.76 1314.41 1463.76 Q1317.42 1463.76 1319.11 1462.25 Q1320.82 1460.75 1320.82 1458.06 Q1320.82 1455.38 1319.11 1453.88 Q1317.42 1452.37 1314.41 1452.37 Q1311.37 1452.37 1309.68 1453.88 Q1308.02 1455.38 1308.02 1458.06 Z" fill="#9eb1be" fill-rule="evenodd" fill-opacity="1" /><path clip-path="url(#clip950)" d="M 0 0 M1331.37 1449.29 L1349.73 1449.29 L1349.73 1453.23 L1335.66 1453.23 L1335.66 1461.7 Q1336.67 1461.35 1337.69 1461.19 Q1338.71 1461 1339.73 1461 Q1345.52 1461 1348.9 1464.18 Q1352.28 1467.35 1352.28 1472.76 Q1352.28 1478.34 1348.8 1481.44 Q1345.33 1484.52 1339.01 1484.52 Q1336.84 1484.52 1334.57 1484.15 Q1332.32 1483.78 1329.92 1483.04 L1329.92 1478.34 Q1332 1479.48 1334.22 1480.03 Q1336.44 1480.59 1338.92 1480.59 Q1342.92 1480.59 1345.26 1478.48 Q1347.6 1476.38 1347.6 1472.76 Q1347.6 1469.15 1345.26 1467.05 Q1342.92 1464.94 1338.92 1464.94 Q1337.05 1464.94 1335.17 1465.36 Q1333.32 1465.77 1331.37 1466.65 L1331.37 1449.29 Z" fill="#9eb1be" fill-rule="evenodd" fill-opacity="1" /><path clip-path="url(#clip950)" d="M 0 0 M1620.18 1479.92 L1627.81 1479.92 L1627.81 1453.55 L1619.5 1455.22 L1619.5 1450.96 L1627.77 1449.29 L1632.44 1449.29 L1632.44 1479.92 L1640.08 1479.92 L1640.08 1483.85 L1620.18 1483.85 L1620.18 1479.92 Z" fill="#9eb1be" fill-rule="evenodd" fill-opacity="1" /><path clip-path="url(#clip950)" d="M 0 0 M1645.15 1477.97 L1650.04 1477.97 L1650.04 1483.85 L1645.15 1483.85 L1645.15 1477.97 Z" fill="#9eb1be" fill-rule="evenodd" fill-opacity="1" /><path clip-path="url(#clip950)" d="M 0 0 M1655.24 1483.13 L1655.24 1478.88 Q1657 1479.71 1658.81 1480.15 Q1660.61 1480.59 1662.35 1480.59 Q1666.98 1480.59 1669.41 1477.49 Q1671.86 1474.36 1672.21 1468.02 Q1670.87 1470.01 1668.81 1471.07 Q1666.75 1472.14 1664.25 1472.14 Q1659.06 1472.14 1656.03 1469.01 Q1653.02 1465.87 1653.02 1460.43 Q1653.02 1455.1 1656.17 1451.88 Q1659.32 1448.67 1664.55 1448.67 Q1670.55 1448.67 1673.69 1453.27 Q1676.86 1457.86 1676.86 1466.61 Q1676.86 1474.78 1672.98 1479.66 Q1669.11 1484.52 1662.56 1484.52 Q1660.8 1484.52 1658.99 1484.18 Q1657.19 1483.83 1655.24 1483.13 M1664.55 1468.48 Q1667.7 1468.48 1669.53 1466.33 Q1671.38 1464.18 1671.38 1460.43 Q1671.38 1456.7 1669.53 1454.55 Q1667.7 1452.37 1664.55 1452.37 Q1661.4 1452.37 1659.55 1454.55 Q1657.72 1456.7 1657.72 1460.43 Q1657.72 1464.18 1659.55 1466.33 Q1661.4 1468.48 1664.55 1468.48 Z" fill="#9eb1be" fill-rule="evenodd" fill-opacity="1" /><path clip-path="url(#clip950)" d="M 0 0 M1691.93 1452.37 Q1688.32 1452.37 1686.49 1455.94 Q1684.69 1459.48 1684.69 1466.61 Q1684.69 1473.71 1686.49 1477.28 Q1688.32 1480.82 1691.93 1480.82 Q1695.57 1480.82 1697.37 1477.28 Q1699.2 1473.71 1699.2 1466.61 Q1699.2 1459.48 1697.37 1455.94 Q1695.57 1452.37 1691.93 1452.37 M1691.93 1448.67 Q1697.74 1448.67 1700.8 1453.27 Q1703.88 1457.86 1703.88 1466.61 Q1703.88 1475.33 1700.8 1479.94 Q1697.74 1484.52 1691.93 1484.52 Q1686.12 1484.52 1683.05 1479.94 Q1679.99 1475.33 1679.99 1466.61 Q1679.99 1457.86 1683.05 1453.27 Q1686.12 1448.67 1691.93 1448.67 Z" fill="#9eb1be" fill-rule="evenodd" fill-opacity="1" /><path clip-path="url(#clip950)" d="M 0 0 M1971.82 1479.92 L1979.46 1479.92 L1979.46 1453.55 L1971.15 1455.22 L1971.15 1450.96 L1979.42 1449.29 L1984.09 1449.29 L1984.09 1479.92 L1991.73 1479.92 L1991.73 1483.85 L1971.82 1483.85 L1971.82 1479.92 Z" fill="#9eb1be" fill-rule="evenodd" fill-opacity="1" /><path clip-path="url(#clip950)" d="M 0 0 M1996.8 1477.97 L2001.68 1477.97 L2001.68 1483.85 L1996.8 1483.85 L1996.8 1477.97 Z" fill="#9eb1be" fill-rule="evenodd" fill-opacity="1" /><path clip-path="url(#clip950)" d="M 0 0 M2006.89 1483.13 L2006.89 1478.88 Q2008.65 1479.71 2010.46 1480.15 Q2012.26 1480.59 2014 1480.59 Q2018.63 1480.59 2021.06 1477.49 Q2023.51 1474.36 2023.86 1468.02 Q2022.52 1470.01 2020.46 1471.07 Q2018.4 1472.14 2015.9 1472.14 Q2010.71 1472.14 2007.68 1469.01 Q2004.67 1465.87 2004.67 1460.43 Q2004.67 1455.1 2007.82 1451.88 Q2010.97 1448.67 2016.2 1448.67 Q2022.19 1448.67 2025.34 1453.27 Q2028.51 1457.86 2028.51 1466.61 Q2028.51 1474.78 2024.62 1479.66 Q2020.76 1484.52 2014.21 1484.52 Q2012.45 1484.52 2010.64 1484.18 Q2008.84 1483.83 2006.89 1483.13 M2016.2 1468.48 Q2019.35 1468.48 2021.18 1466.33 Q2023.03 1464.18 2023.03 1460.43 Q2023.03 1456.7 2021.18 1454.55 Q2019.35 1452.37 2016.2 1452.37 Q2013.05 1452.37 2011.2 1454.55 Q2009.37 1456.7 2009.37 1460.43 Q2009.37 1464.18 2011.2 1466.33 Q2013.05 1468.48 2016.2 1468.48 Z" fill="#9eb1be" fill-rule="evenodd" fill-opacity="1" /><path clip-path="url(#clip950)" d="M 0 0 M2033.63 1449.29 L2051.99 1449.29 L2051.99 1453.23 L2037.91 1453.23 L2037.91 1461.7 Q2038.93 1461.35 2039.95 1461.19 Q2040.97 1461 2041.99 1461 Q2047.77 1461 2051.15 1464.18 Q2054.53 1467.35 2054.53 1472.76 Q2054.53 1478.34 2051.06 1481.44 Q2047.59 1484.52 2041.27 1484.52 Q2039.09 1484.52 2036.82 1484.15 Q2034.58 1483.78 2032.17 1483.04 L2032.17 1478.34 Q2034.25 1479.48 2036.48 1480.03 Q2038.7 1480.59 2041.18 1480.59 Q2045.18 1480.59 2047.52 1478.48 Q2049.86 1476.38 2049.86 1472.76 Q2049.86 1469.15 2047.52 1467.05 Q2045.18 1464.94 2041.18 1464.94 Q2039.3 1464.94 2037.43 1465.36 Q2035.57 1465.77 2033.63 1466.65 L2033.63 1449.29 Z" fill="#9eb1be" fill-rule="evenodd" fill-opacity="1" /><path clip-path="url(#clip950)" d="M 0 0 M1300.83 1568.97 Q1287.62 1568.97 1287.62 1550.06 Q1287.62 1542.58 1292.56 1532.4 L1298.86 1532.4 Q1294.31 1542.58 1294.31 1550.22 Q1294.31 1564 1301.37 1564 Q1307.84 1564 1307.84 1546.88 L1313.25 1546.88 Q1313.25 1564 1319.71 1564 Q1326.77 1564 1326.77 1550.22 Q1326.77 1542.58 1322.22 1532.4 L1328.52 1532.4 Q1333.46 1542.58 1333.46 1550.06 Q1333.46 1568.97 1320.25 1568.97 Q1311.59 1568.97 1310.54 1559.45 Q1309.24 1568.97 1300.83 1568.97 Z" fill="#9eb1be" fill-rule="evenodd" fill-opacity="1" /><polyline clip-path="url(#clip952)" style="stroke:#adb2b7; stroke-width:2; stroke-opacity:0.1; fill:none" points="
  268.325,1309.75 2352.76,1309.75 
  "/>
<polyline clip-path="url(#clip952)" style="stroke:#adb2b7; stroke-width:2; stroke-opacity:0.1; fill:none" points="
  268.325,1050.51 2352.76,1050.51 
  "/>
<polyline clip-path="url(#clip952)" style="stroke:#adb2b7; stroke-width:2; stroke-opacity:0.1; fill:none" points="
  268.325,791.264 2352.76,791.264 
  "/>
<polyline clip-path="url(#clip952)" style="stroke:#adb2b7; stroke-width:2; stroke-opacity:0.1; fill:none" points="
  268.325,532.019 2352.76,532.019 
  "/>
<polyline clip-path="url(#clip952)" style="stroke:#adb2b7; stroke-width:2; stroke-opacity:0.1; fill:none" points="
  268.325,272.775 2352.76,272.775 
  "/>
<polyline clip-path="url(#clip950)" style="stroke:#adb2b7; stroke-width:4; stroke-opacity:1; fill:none" points="
  268.325,1423.18 268.325,123.472 
  "/>
<polyline clip-path="url(#clip950)" style="stroke:#adb2b7; stroke-width:4; stroke-opacity:1; fill:none" points="
  268.325,1309.75 293.338,1309.75 
  "/>
<polyline clip-path="url(#clip950)" style="stroke:#adb2b7; stroke-width:4; stroke-opacity:1; fill:none" points="
  268.325,1050.51 293.338,1050.51 
  "/>
<polyline clip-path="url(#clip950)" style="stroke:#adb2b7; stroke-width:4; stroke-opacity:1; fill:none" points="
  268.325,791.264 293.338,791.264 
  "/>
<polyline clip-path="url(#clip950)" style="stroke:#adb2b7; stroke-width:4; stroke-opacity:1; fill:none" points="
  268.325,532.019 293.338,532.019 
  "/>
<polyline clip-path="url(#clip950)" style="stroke:#adb2b7; stroke-width:4; stroke-opacity:1; fill:none" points="
  268.325,272.775 293.338,272.775 
  "/>
<path clip-path="url(#clip950)" d="M 0 0 M117.696 1329.55 L125.335 1329.55 L125.335 1303.18 L117.025 1304.85 L117.025 1300.59 L125.289 1298.92 L129.965 1298.92 L129.965 1329.55 L137.603 1329.55 L137.603 1333.48 L117.696 1333.48 L117.696 1329.55 Z" fill="#9eb1be" fill-rule="evenodd" fill-opacity="1" /><path clip-path="url(#clip950)" d="M 0 0 M152.673 1302 Q149.062 1302 147.233 1305.56 Q145.428 1309.11 145.428 1316.24 Q145.428 1323.34 147.233 1326.91 Q149.062 1330.45 152.673 1330.45 Q156.307 1330.45 158.113 1326.91 Q159.941 1323.34 159.941 1316.24 Q159.941 1309.11 158.113 1305.56 Q156.307 1302 152.673 1302 M152.673 1298.3 Q158.483 1298.3 161.539 1302.9 Q164.617 1307.49 164.617 1316.24 Q164.617 1324.96 161.539 1329.57 Q158.483 1334.15 152.673 1334.15 Q146.863 1334.15 143.784 1329.57 Q140.728 1324.96 140.728 1316.24 Q140.728 1307.49 143.784 1302.9 Q146.863 1298.3 152.673 1298.3 Z" fill="#9eb1be" fill-rule="evenodd" fill-opacity="1" /><path clip-path="url(#clip950)" d="M 0 0 M169.188 1302.87 L182.447 1302.87 L182.447 1306.07 L164.617 1306.07 L164.617 1302.87 Q166.78 1300.64 170.504 1296.87 Q174.247 1293.09 175.206 1292 Q177.03 1289.95 177.745 1288.54 Q178.479 1287.11 178.479 1285.74 Q178.479 1283.5 176.899 1282.09 Q175.338 1280.68 172.817 1280.68 Q171.031 1280.68 169.037 1281.3 Q167.062 1281.92 164.805 1283.18 L164.805 1279.35 Q167.1 1278.42 169.093 1277.95 Q171.087 1277.48 172.742 1277.48 Q177.106 1277.48 179.701 1279.66 Q182.297 1281.85 182.297 1285.5 Q182.297 1287.23 181.638 1288.79 Q180.999 1290.33 179.287 1292.44 Q178.817 1292.98 176.297 1295.6 Q173.777 1298.19 169.188 1302.87 Z" fill="#9eb1be" fill-rule="evenodd" fill-opacity="1" /><path clip-path="url(#clip950)" d="M 0 0 M186.566 1301.29 L190.534 1301.29 L190.534 1306.07 L186.566 1306.07 L186.566 1301.29 Z" fill="#9eb1be" fill-rule="evenodd" fill-opacity="1" /><path clip-path="url(#clip950)" d="M 0 0 M197.926 1302.87 L211.185 1302.87 L211.185 1306.07 L193.356 1306.07 L193.356 1302.87 Q195.518 1300.64 199.242 1296.87 Q202.985 1293.09 203.944 1292 Q205.769 1289.95 206.483 1288.54 Q207.217 1287.11 207.217 1285.74 Q207.217 1283.5 205.637 1282.09 Q204.076 1280.68 201.556 1280.68 Q199.769 1280.68 197.775 1281.3 Q195.801 1281.92 193.544 1283.18 L193.544 1279.35 Q195.838 1278.42 197.832 1277.95 Q199.825 1277.48 201.48 1277.48 Q205.844 1277.48 208.439 1279.66 Q211.035 1281.85 211.035 1285.5 Q211.035 1287.23 210.377 1288.79 Q209.737 1290.33 208.026 1292.44 Q207.555 1292.98 205.035 1295.6 Q202.515 1298.19 197.926 1302.87 Z" fill="#9eb1be" fill-rule="evenodd" fill-opacity="1" /><path clip-path="url(#clip950)" d="M 0 0 M215.342 1277.99 L230.256 1277.99 L230.256 1281.19 L218.821 1281.19 L218.821 1288.07 Q219.649 1287.79 220.476 1287.66 Q221.304 1287.51 222.131 1287.51 Q226.833 1287.51 229.579 1290.08 Q232.325 1292.66 232.325 1297.06 Q232.325 1301.59 229.504 1304.12 Q226.683 1306.62 221.548 1306.62 Q219.78 1306.62 217.937 1306.32 Q216.113 1306.01 214.157 1305.41 L214.157 1301.59 Q215.85 1302.52 217.655 1302.97 Q219.461 1303.42 221.473 1303.42 Q224.727 1303.42 226.626 1301.71 Q228.526 1300 228.526 1297.06 Q228.526 1294.13 226.626 1292.42 Q224.727 1290.71 221.473 1290.71 Q219.95 1290.71 218.426 1291.04 Q216.922 1291.38 215.342 1292.1 L215.342 1277.99 Z" fill="#9eb1be" fill-rule="evenodd" fill-opacity="1" /><path clip-path="url(#clip950)" d="M 0 0 M116.398 1070.3 L124.037 1070.3 L124.037 1043.94 L115.727 1045.6 L115.727 1041.34 L123.991 1039.68 L128.667 1039.68 L128.667 1070.3 L136.306 1070.3 L136.306 1074.24 L116.398 1074.24 L116.398 1070.3 Z" fill="#9eb1be" fill-rule="evenodd" fill-opacity="1" /><path clip-path="url(#clip950)" d="M 0 0 M151.375 1042.76 Q147.764 1042.76 145.935 1046.32 Q144.13 1049.86 144.13 1056.99 Q144.13 1064.1 145.935 1067.66 Q147.764 1071.2 151.375 1071.2 Q155.009 1071.2 156.815 1067.66 Q158.644 1064.1 158.644 1056.99 Q158.644 1049.86 156.815 1046.32 Q155.009 1042.76 151.375 1042.76 M151.375 1039.05 Q157.185 1039.05 160.241 1043.66 Q163.32 1048.24 163.32 1056.99 Q163.32 1065.72 160.241 1070.32 Q157.185 1074.91 151.375 1074.91 Q145.565 1074.91 142.486 1070.32 Q139.431 1065.72 139.431 1056.99 Q139.431 1048.24 142.486 1043.66 Q145.565 1039.05 151.375 1039.05 Z" fill="#9eb1be" fill-rule="evenodd" fill-opacity="1" /><path clip-path="url(#clip950)" d="M 0 0 M167.89 1043.63 L181.149 1043.63 L181.149 1046.83 L163.32 1046.83 L163.32 1043.63 Q165.482 1041.39 169.206 1037.63 Q172.949 1033.85 173.908 1032.76 Q175.733 1030.71 176.447 1029.3 Q177.181 1027.87 177.181 1026.5 Q177.181 1024.26 175.601 1022.85 Q174.04 1021.44 171.52 1021.44 Q169.733 1021.44 167.739 1022.06 Q165.765 1022.68 163.508 1023.94 L163.508 1020.1 Q165.802 1019.18 167.796 1018.71 Q169.789 1018.24 171.444 1018.24 Q175.808 1018.24 178.403 1020.42 Q180.999 1022.6 180.999 1026.25 Q180.999 1027.98 180.341 1029.54 Q179.701 1031.08 177.99 1033.19 Q177.519 1033.74 174.999 1036.35 Q172.479 1038.95 167.89 1043.63 Z" fill="#9eb1be" fill-rule="evenodd" fill-opacity="1" /><path clip-path="url(#clip950)" d="M 0 0 M185.268 1042.05 L189.237 1042.05 L189.237 1046.83 L185.268 1046.83 L185.268 1042.05 Z" fill="#9eb1be" fill-rule="evenodd" fill-opacity="1" /><path clip-path="url(#clip950)" d="M 0 0 M193.393 1018.75 L208.308 1018.75 L208.308 1021.94 L196.873 1021.94 L196.873 1028.83 Q197.7 1028.55 198.528 1028.41 Q199.355 1028.26 200.183 1028.26 Q204.885 1028.26 207.631 1030.84 Q210.377 1033.42 210.377 1037.82 Q210.377 1042.35 207.555 1044.87 Q204.734 1047.37 199.6 1047.37 Q197.832 1047.37 195.989 1047.07 Q194.164 1046.77 192.208 1046.17 L192.208 1042.35 Q193.901 1043.27 195.706 1043.72 Q197.512 1044.17 199.524 1044.17 Q202.778 1044.17 204.678 1042.46 Q206.577 1040.75 206.577 1037.82 Q206.577 1034.88 204.678 1033.17 Q202.778 1031.46 199.524 1031.46 Q198.001 1031.46 196.478 1031.8 Q194.973 1032.14 193.393 1032.85 L193.393 1018.75 Z" fill="#9eb1be" fill-rule="evenodd" fill-opacity="1" /><path clip-path="url(#clip950)" d="M 0 0 M222.62 1021.25 Q219.686 1021.25 218.201 1024.14 Q216.734 1027.02 216.734 1032.81 Q216.734 1038.59 218.201 1041.48 Q219.686 1044.36 222.62 1044.36 Q225.573 1044.36 227.04 1041.48 Q228.526 1038.59 228.526 1032.81 Q228.526 1027.02 227.04 1024.14 Q225.573 1021.25 222.62 1021.25 M222.62 1018.24 Q227.341 1018.24 229.824 1021.98 Q232.325 1025.71 232.325 1032.81 Q232.325 1039.9 229.824 1043.65 Q227.341 1047.37 222.62 1047.37 Q217.9 1047.37 215.398 1043.65 Q212.916 1039.9 212.916 1032.81 Q212.916 1025.71 215.398 1021.98 Q217.9 1018.24 222.62 1018.24 Z" fill="#9eb1be" fill-rule="evenodd" fill-opacity="1" /><path clip-path="url(#clip950)" d="M 0 0 M117.132 811.057 L124.771 811.057 L124.771 784.691 L116.461 786.358 L116.461 782.099 L124.725 780.432 L129.4 780.432 L129.4 811.057 L137.039 811.057 L137.039 814.992 L117.132 814.992 L117.132 811.057 Z" fill="#9eb1be" fill-rule="evenodd" fill-opacity="1" /><path clip-path="url(#clip950)" d="M 0 0 M152.109 783.511 Q148.498 783.511 146.669 787.075 Q144.863 790.617 144.863 797.747 Q144.863 804.853 146.669 808.418 Q148.498 811.959 152.109 811.959 Q155.743 811.959 157.548 808.418 Q159.377 804.853 159.377 797.747 Q159.377 790.617 157.548 787.075 Q155.743 783.511 152.109 783.511 M152.109 779.807 Q157.919 779.807 160.974 784.413 Q164.053 788.997 164.053 797.747 Q164.053 806.473 160.974 811.08 Q157.919 815.663 152.109 815.663 Q146.298 815.663 143.22 811.08 Q140.164 806.473 140.164 797.747 Q140.164 788.997 143.22 784.413 Q146.298 779.807 152.109 779.807 Z" fill="#9eb1be" fill-rule="evenodd" fill-opacity="1" /><path clip-path="url(#clip950)" d="M 0 0 M168.623 784.384 L181.883 784.384 L181.883 787.581 L164.053 787.581 L164.053 784.384 Q166.216 782.146 169.94 778.384 Q173.683 774.604 174.642 773.513 Q176.466 771.463 177.181 770.053 Q177.914 768.623 177.914 767.25 Q177.914 765.012 176.334 763.602 Q174.773 762.191 172.253 762.191 Q170.466 762.191 168.473 762.812 Q166.498 763.432 164.241 764.692 L164.241 760.856 Q166.536 759.934 168.529 759.464 Q170.523 758.994 172.178 758.994 Q176.541 758.994 179.137 761.175 Q181.732 763.357 181.732 767.006 Q181.732 768.736 181.074 770.297 Q180.435 771.839 178.723 773.946 Q178.253 774.491 175.733 777.106 Q173.212 779.701 168.623 784.384 Z" fill="#9eb1be" fill-rule="evenodd" fill-opacity="1" /><path clip-path="url(#clip950)" d="M 0 0 M186.002 782.804 L189.97 782.804 L189.97 787.581 L186.002 787.581 L186.002 782.804 Z" fill="#9eb1be" fill-rule="evenodd" fill-opacity="1" /><path clip-path="url(#clip950)" d="M 0 0 M193.13 759.501 L211.185 759.501 L211.185 761.119 L200.991 787.581 L197.023 787.581 L206.615 762.699 L193.13 762.699 L193.13 759.501 Z" fill="#9eb1be" fill-rule="evenodd" fill-opacity="1" /><path clip-path="url(#clip950)" d="M 0 0 M215.342 759.501 L230.256 759.501 L230.256 762.699 L218.821 762.699 L218.821 769.582 Q219.649 769.3 220.476 769.169 Q221.304 769.018 222.131 769.018 Q226.833 769.018 229.579 771.595 Q232.325 774.172 232.325 778.573 Q232.325 783.105 229.504 785.625 Q226.683 788.127 221.548 788.127 Q219.78 788.127 217.937 787.826 Q216.113 787.525 214.157 786.923 L214.157 783.105 Q215.85 784.027 217.655 784.478 Q219.461 784.93 221.473 784.93 Q224.727 784.93 226.626 783.218 Q228.526 781.507 228.526 778.573 Q228.526 775.639 226.626 773.927 Q224.727 772.216 221.473 772.216 Q219.95 772.216 218.426 772.554 Q216.922 772.893 215.342 773.607 L215.342 759.501 Z" fill="#9eb1be" fill-rule="evenodd" fill-opacity="1" /><path clip-path="url(#clip950)" d="M 0 0 M114.931 551.812 L122.57 551.812 L122.57 525.446 L114.26 527.113 L114.26 522.854 L122.524 521.187 L127.2 521.187 L127.2 551.812 L134.839 551.812 L134.839 555.747 L114.931 555.747 L114.931 551.812 Z" fill="#9eb1be" fill-rule="evenodd" fill-opacity="1" /><path clip-path="url(#clip950)" d="M 0 0 M149.908 524.266 Q146.297 524.266 144.468 527.831 Q142.663 531.372 142.663 538.502 Q142.663 545.608 144.468 549.173 Q146.297 552.715 149.908 552.715 Q153.542 552.715 155.348 549.173 Q157.177 545.608 157.177 538.502 Q157.177 531.372 155.348 527.831 Q153.542 524.266 149.908 524.266 M149.908 520.562 Q155.718 520.562 158.774 525.169 Q161.852 529.752 161.852 538.502 Q161.852 547.229 158.774 551.835 Q155.718 556.418 149.908 556.418 Q144.098 556.418 141.019 551.835 Q137.964 547.229 137.964 538.502 Q137.964 529.752 141.019 525.169 Q144.098 520.562 149.908 520.562 Z" fill="#9eb1be" fill-rule="evenodd" fill-opacity="1" /><path clip-path="url(#clip950)" d="M 0 0 M174.548 513.196 Q177.275 513.779 178.798 515.623 Q180.341 517.466 180.341 520.174 Q180.341 524.331 177.482 526.606 Q174.623 528.882 169.357 528.882 Q167.589 528.882 165.708 528.525 Q163.846 528.186 161.852 527.49 L161.852 523.823 Q163.432 524.744 165.313 525.215 Q167.194 525.685 169.244 525.685 Q172.817 525.685 174.679 524.274 Q176.56 522.864 176.56 520.174 Q176.56 517.691 174.811 516.3 Q173.081 514.889 169.977 514.889 L166.705 514.889 L166.705 511.767 L170.128 511.767 Q172.93 511.767 174.416 510.657 Q175.902 509.529 175.902 507.422 Q175.902 505.26 174.36 504.112 Q172.836 502.946 169.977 502.946 Q168.416 502.946 166.63 503.285 Q164.843 503.623 162.699 504.338 L162.699 500.953 Q164.862 500.351 166.743 500.05 Q168.642 499.749 170.316 499.749 Q174.642 499.749 177.162 501.724 Q179.682 503.68 179.682 507.027 Q179.682 509.36 178.347 510.977 Q177.012 512.576 174.548 513.196 Z" fill="#9eb1be" fill-rule="evenodd" fill-opacity="1" /><path clip-path="url(#clip950)" d="M 0 0 M184.459 523.559 L188.428 523.559 L188.428 528.337 L184.459 528.337 L184.459 523.559 Z" fill="#9eb1be" fill-rule="evenodd" fill-opacity="1" /><path clip-path="url(#clip950)" d="M 0 0 M200.672 502.758 Q197.738 502.758 196.252 505.654 Q194.785 508.532 194.785 514.325 Q194.785 520.099 196.252 522.995 Q197.738 525.873 200.672 525.873 Q203.625 525.873 205.092 522.995 Q206.577 520.099 206.577 514.325 Q206.577 508.532 205.092 505.654 Q203.625 502.758 200.672 502.758 M200.672 499.749 Q205.392 499.749 207.875 503.492 Q210.377 507.216 210.377 514.325 Q210.377 521.415 207.875 525.158 Q205.392 528.882 200.672 528.882 Q195.951 528.882 193.45 525.158 Q190.967 521.415 190.967 514.325 Q190.967 507.216 193.45 503.492 Q195.951 499.749 200.672 499.749 Z" fill="#9eb1be" fill-rule="evenodd" fill-opacity="1" /><path clip-path="url(#clip950)" d="M 0 0 M222.62 502.758 Q219.686 502.758 218.201 505.654 Q216.734 508.532 216.734 514.325 Q216.734 520.099 218.201 522.995 Q219.686 525.873 222.62 525.873 Q225.573 525.873 227.04 522.995 Q228.526 520.099 228.526 514.325 Q228.526 508.532 227.04 505.654 Q225.573 502.758 222.62 502.758 M222.62 499.749 Q227.341 499.749 229.824 503.492 Q232.325 507.216 232.325 514.325 Q232.325 521.415 229.824 525.158 Q227.341 528.882 222.62 528.882 Q217.9 528.882 215.398 525.158 Q212.916 521.415 212.916 514.325 Q212.916 507.216 215.398 503.492 Q217.9 499.749 222.62 499.749 Z" fill="#9eb1be" fill-rule="evenodd" fill-opacity="1" /><path clip-path="url(#clip950)" d="M 0 0 M117.038 292.567 L124.677 292.567 L124.677 266.202 L116.367 267.868 L116.367 263.609 L124.63 261.942 L129.306 261.942 L129.306 292.567 L136.945 292.567 L136.945 296.502 L117.038 296.502 L117.038 292.567 Z" fill="#9eb1be" fill-rule="evenodd" fill-opacity="1" /><path clip-path="url(#clip950)" d="M 0 0 M152.015 265.021 Q148.403 265.021 146.575 268.586 Q144.769 272.127 144.769 279.257 Q144.769 286.363 146.575 289.928 Q148.403 293.47 152.015 293.47 Q155.649 293.47 157.454 289.928 Q159.283 286.363 159.283 279.257 Q159.283 272.127 157.454 268.586 Q155.649 265.021 152.015 265.021 M152.015 261.317 Q157.825 261.317 160.88 265.924 Q163.959 270.507 163.959 279.257 Q163.959 287.984 160.88 292.59 Q157.825 297.174 152.015 297.174 Q146.204 297.174 143.126 292.59 Q140.07 287.984 140.07 279.257 Q140.07 270.507 143.126 265.924 Q146.204 261.317 152.015 261.317 Z" fill="#9eb1be" fill-rule="evenodd" fill-opacity="1" /><path clip-path="url(#clip950)" d="M 0 0 M176.654 253.952 Q179.381 254.535 180.905 256.378 Q182.447 258.221 182.447 260.929 Q182.447 265.086 179.588 267.362 Q176.729 269.637 171.463 269.637 Q169.695 269.637 167.815 269.28 Q165.953 268.941 163.959 268.246 L163.959 264.578 Q165.539 265.5 167.42 265.97 Q169.3 266.44 171.35 266.44 Q174.924 266.44 176.786 265.029 Q178.667 263.619 178.667 260.929 Q178.667 258.447 176.918 257.055 Q175.187 255.644 172.084 255.644 L168.811 255.644 L168.811 252.522 L172.234 252.522 Q175.037 252.522 176.523 251.413 Q178.008 250.284 178.008 248.178 Q178.008 246.015 176.466 244.867 Q174.943 243.701 172.084 243.701 Q170.523 243.701 168.736 244.04 Q166.949 244.378 164.805 245.093 L164.805 241.708 Q166.968 241.106 168.849 240.805 Q170.749 240.504 172.422 240.504 Q176.748 240.504 179.268 242.479 Q181.789 244.435 181.789 247.783 Q181.789 250.115 180.453 251.732 Q179.118 253.331 176.654 253.952 Z" fill="#9eb1be" fill-rule="evenodd" fill-opacity="1" /><path clip-path="url(#clip950)" d="M 0 0 M186.566 264.315 L190.534 264.315 L190.534 269.092 L186.566 269.092 L186.566 264.315 Z" fill="#9eb1be" fill-rule="evenodd" fill-opacity="1" /><path clip-path="url(#clip950)" d="M 0 0 M197.926 265.895 L211.185 265.895 L211.185 269.092 L193.356 269.092 L193.356 265.895 Q195.518 263.656 199.242 259.895 Q202.985 256.115 203.944 255.024 Q205.769 252.974 206.483 251.563 Q207.217 250.134 207.217 248.761 Q207.217 246.523 205.637 245.112 Q204.076 243.701 201.556 243.701 Q199.769 243.701 197.775 244.322 Q195.801 244.943 193.544 246.203 L193.544 242.366 Q195.838 241.444 197.832 240.974 Q199.825 240.504 201.48 240.504 Q205.844 240.504 208.439 242.686 Q211.035 244.867 211.035 248.516 Q211.035 250.246 210.377 251.808 Q209.737 253.35 208.026 255.456 Q207.555 256.002 205.035 258.616 Q202.515 261.211 197.926 265.895 Z" fill="#9eb1be" fill-rule="evenodd" fill-opacity="1" /><path clip-path="url(#clip950)" d="M 0 0 M215.342 241.012 L230.256 241.012 L230.256 244.209 L218.821 244.209 L218.821 251.093 Q219.649 250.811 220.476 250.679 Q221.304 250.529 222.131 250.529 Q226.833 250.529 229.579 253.105 Q232.325 255.682 232.325 260.083 Q232.325 264.616 229.504 267.136 Q226.683 269.637 221.548 269.637 Q219.78 269.637 217.937 269.336 Q216.113 269.035 214.157 268.434 L214.157 264.616 Q215.85 265.537 217.655 265.989 Q219.461 266.44 221.473 266.44 Q224.727 266.44 226.626 264.728 Q228.526 263.017 228.526 260.083 Q228.526 257.149 226.626 255.437 Q224.727 253.726 221.473 253.726 Q219.95 253.726 218.426 254.064 Q216.922 254.403 215.342 255.118 L215.342 241.012 Z" fill="#9eb1be" fill-rule="evenodd" fill-opacity="1" /><path clip-path="url(#clip950)" d="M 0 0 M35.3266 913.849 L35.3266 923.111 L45.9574 925.785 L45.9574 916.459 L35.3266 913.849 M17.2162 918.623 L30.4251 921.933 L30.4251 912.639 L17.2162 909.297 L17.2162 904.205 L30.4251 907.483 L30.4251 897.553 L35.3266 897.553 L35.3266 908.725 L45.9574 911.335 L45.9574 901.213 L50.8271 901.213 L50.8271 912.576 L64.0042 915.886 L64.0042 920.979 L50.8271 917.7 L50.8271 927.026 L64.0042 930.304 L64.0042 935.429 L50.8271 932.119 L50.8271 942.145 L45.9574 942.145 L45.9574 930.941 L35.3266 928.267 L35.3266 938.516 L30.4251 938.516 L30.4251 927.026 L17.2162 923.779 L17.2162 918.623 Z" fill="#9eb1be" fill-rule="evenodd" fill-opacity="1" /><path clip-path="url(#clip950)" d="M 0 0 M28.3562 870.689 L28.3562 864.833 L64.0042 864.833 L64.0042 870.689 L28.3562 870.689 M14.479 870.689 L14.479 864.833 L21.895 864.833 L21.895 870.689 L14.479 870.689 Z" fill="#9eb1be" fill-rule="evenodd" fill-opacity="1" /><path clip-path="url(#clip950)" d="M 0 0 M18.2347 852.897 L28.3562 852.897 L28.3562 840.834 L32.9077 840.834 L32.9077 852.897 L52.2594 852.897 Q56.6199 852.897 57.8613 851.72 Q59.1026 850.51 59.1026 846.85 L59.1026 840.834 L64.0042 840.834 L64.0042 846.85 Q64.0042 853.629 61.4897 856.207 Q58.9434 858.786 52.2594 858.786 L32.9077 858.786 L32.9077 863.082 L28.3562 863.082 L28.3562 858.786 L18.2347 858.786 L18.2347 852.897 Z" fill="#9eb1be" fill-rule="evenodd" fill-opacity="1" /><path clip-path="url(#clip950)" d="M 0 0 M44.7161 804.2 L47.5806 804.2 L47.5806 831.127 Q53.6281 830.745 56.8109 827.498 Q59.9619 824.22 59.9619 818.395 Q59.9619 815.021 59.1344 811.87 Q58.3069 808.687 56.6518 805.568 L62.1899 805.568 Q63.5267 808.719 64.227 812.029 Q64.9272 815.34 64.9272 818.745 Q64.9272 827.275 59.9619 832.272 Q54.9967 837.238 46.5303 837.238 Q37.7774 837.238 32.6531 832.527 Q27.4968 827.785 27.4968 819.764 Q27.4968 812.571 32.1438 808.401 Q36.7589 804.2 44.7161 804.2 M42.9973 810.056 Q38.1912 810.12 35.3266 812.762 Q32.4621 815.371 32.4621 819.7 Q32.4621 824.602 35.2312 827.562 Q38.0002 830.49 43.0292 830.936 L42.9973 810.056 Z" fill="#9eb1be" fill-rule="evenodd" fill-opacity="1" /><path clip-path="url(#clip950)" d="M 0 0 M33.8307 777.4 Q33.2578 778.387 33.0032 779.564 Q32.7167 780.71 32.7167 782.111 Q32.7167 787.076 35.9632 789.75 Q39.1779 792.391 45.2253 792.391 L64.0042 792.391 L64.0042 798.28 L28.3562 798.28 L28.3562 792.391 L33.8944 792.391 Q30.6479 790.545 29.0883 787.585 Q27.4968 784.625 27.4968 780.392 Q27.4968 779.787 27.5923 779.055 Q27.656 778.323 27.8151 777.432 L33.8307 777.4 Z" fill="#9eb1be" fill-rule="evenodd" fill-opacity="1" /><path clip-path="url(#clip950)" d="M 0 0 M46.0847 755.056 Q46.0847 762.154 47.7079 764.891 Q49.3312 767.629 53.2461 767.629 Q56.3653 767.629 58.2114 765.592 Q60.0256 763.523 60.0256 759.99 Q60.0256 755.12 56.5881 752.192 Q53.1188 749.232 47.3897 749.232 L46.0847 749.232 L46.0847 755.056 M43.6657 743.375 L64.0042 743.375 L64.0042 749.232 L58.5933 749.232 Q61.8398 751.237 63.3994 754.229 Q64.9272 757.221 64.9272 761.549 Q64.9272 767.024 61.8716 770.27 Q58.7843 773.485 53.6281 773.485 Q47.6125 773.485 44.5569 769.475 Q41.5014 765.433 41.5014 757.444 L41.5014 749.232 L40.9285 749.232 Q36.8862 749.232 34.6901 751.905 Q32.4621 754.547 32.4621 759.353 Q32.4621 762.409 33.1941 765.305 Q33.9262 768.202 35.3903 770.875 L29.9795 770.875 Q28.7381 767.661 28.1334 764.637 Q27.4968 761.613 27.4968 758.749 Q27.4968 751.014 31.5072 747.195 Q35.5176 743.375 43.6657 743.375 Z" fill="#9eb1be" fill-rule="evenodd" fill-opacity="1" /><path clip-path="url(#clip950)" d="M 0 0 M18.2347 731.44 L28.3562 731.44 L28.3562 719.377 L32.9077 719.377 L32.9077 731.44 L52.2594 731.44 Q56.6199 731.44 57.8613 730.262 Q59.1026 729.052 59.1026 725.392 L59.1026 719.377 L64.0042 719.377 L64.0042 725.392 Q64.0042 732.172 61.4897 734.75 Q58.9434 737.328 52.2594 737.328 L32.9077 737.328 L32.9077 741.625 L28.3562 741.625 L28.3562 737.328 L18.2347 737.328 L18.2347 731.44 Z" fill="#9eb1be" fill-rule="evenodd" fill-opacity="1" /><path clip-path="url(#clip950)" d="M 0 0 M28.3562 713.234 L28.3562 707.377 L64.0042 707.377 L64.0042 713.234 L28.3562 713.234 M14.479 713.234 L14.479 707.377 L21.895 707.377 L21.895 713.234 L14.479 713.234 Z" fill="#9eb1be" fill-rule="evenodd" fill-opacity="1" /><path clip-path="url(#clip950)" d="M 0 0 M32.4621 687.421 Q32.4621 692.131 36.1542 694.869 Q39.8145 697.606 46.212 697.606 Q52.6095 697.606 56.3017 694.9 Q59.9619 692.163 59.9619 687.421 Q59.9619 682.742 56.2698 680.005 Q52.5777 677.267 46.212 677.267 Q39.8781 677.267 36.186 680.005 Q32.4621 682.742 32.4621 687.421 M27.4968 687.421 Q27.4968 679.782 32.4621 675.421 Q37.4273 671.061 46.212 671.061 Q54.9649 671.061 59.9619 675.421 Q64.9272 679.782 64.9272 687.421 Q64.9272 695.091 59.9619 699.452 Q54.9649 703.781 46.212 703.781 Q37.4273 703.781 32.4621 699.452 Q27.4968 695.091 27.4968 687.421 Z" fill="#9eb1be" fill-rule="evenodd" fill-opacity="1" /><path clip-path="url(#clip950)" d="M 0 0 M42.4881 635.286 L64.0042 635.286 L64.0042 641.142 L42.679 641.142 Q37.6183 641.142 35.1038 643.115 Q32.5894 645.089 32.5894 649.036 Q32.5894 653.778 35.6131 656.515 Q38.6368 659.253 43.8567 659.253 L64.0042 659.253 L64.0042 665.141 L28.3562 665.141 L28.3562 659.253 L33.8944 659.253 Q30.6797 657.152 29.0883 654.319 Q27.4968 651.455 27.4968 647.731 Q27.4968 641.588 31.3163 638.437 Q35.1038 635.286 42.4881 635.286 Z" fill="#9eb1be" fill-rule="evenodd" fill-opacity="1" /><path clip-path="url(#clip950)" d="M 0 0 M29.4065 606.417 L34.9447 606.417 Q33.6716 608.9 33.035 611.573 Q32.3984 614.247 32.3984 617.112 Q32.3984 621.472 33.7352 623.668 Q35.072 625.833 37.7456 625.833 Q39.7826 625.833 40.9603 624.273 Q42.1061 622.713 43.1565 618.003 L43.6021 615.998 Q44.9389 609.759 47.3897 607.149 Q49.8086 604.507 54.1691 604.507 Q59.1344 604.507 62.0308 608.454 Q64.9272 612.369 64.9272 619.244 Q64.9272 622.109 64.3543 625.228 Q63.8132 628.315 62.6992 631.753 L56.6518 631.753 Q58.3387 628.506 59.198 625.355 Q60.0256 622.204 60.0256 619.117 Q60.0256 614.979 58.6251 612.751 Q57.1929 610.523 54.6147 610.523 Q52.2276 610.523 50.9545 612.146 Q49.6813 613.738 48.5037 619.18 L48.0262 621.217 Q46.8804 626.66 44.5251 629.079 Q42.138 631.498 38.0002 631.498 Q32.9713 631.498 30.2341 627.933 Q27.4968 624.368 27.4968 617.812 Q27.4968 614.565 27.9743 611.701 Q28.4517 608.836 29.4065 606.417 Z" fill="#9eb1be" fill-rule="evenodd" fill-opacity="1" /><path clip-path="url(#clip950)" d="M 0 0 M1040.14 36.0774 L1028.35 36.0774 L1024.95 49.6074 L1036.82 49.6074 L1040.14 36.0774 M1034.07 13.0277 L1029.85 29.839 L1041.68 29.839 L1045.94 13.0277 L1052.42 13.0277 L1048.24 29.839 L1060.88 29.839 L1060.88 36.0774 L1046.66 36.0774 L1043.34 49.6074 L1056.22 49.6074 L1056.22 55.8053 L1041.76 55.8053 L1037.55 72.576 L1031.07 72.576 L1035.24 55.8053 L1023.37 55.8053 L1019.2 72.576 L1012.68 72.576 L1016.89 55.8053 L1004.13 55.8053 L1004.13 49.6074 L1018.39 49.6074 L1021.79 36.0774 L1008.75 36.0774 L1008.75 29.839 L1023.37 29.839 L1027.5 13.0277 L1034.07 13.0277 Z" fill="#adb2b7" fill-rule="evenodd" fill-opacity="1" /><path clip-path="url(#clip950)" d="M 0 0 M1124 28.5427 L1124 35.5912 Q1120.84 33.9709 1117.43 33.1607 Q1114.03 32.3505 1110.39 32.3505 Q1104.84 32.3505 1102.04 34.0519 Q1099.29 35.7533 1099.29 39.156 Q1099.29 41.7486 1101.27 43.2475 Q1103.26 44.7058 1109.25 46.0426 L1111.8 46.6097 Q1119.74 48.3111 1123.06 51.4303 Q1126.43 54.509 1126.43 60.0587 Q1126.43 66.3781 1121.4 70.0644 Q1116.42 73.7508 1107.67 73.7508 Q1104.03 73.7508 1100.06 73.0216 Q1096.13 72.3329 1091.75 70.9151 L1091.75 63.2184 Q1095.88 65.3654 1099.89 66.4591 Q1103.9 67.5124 1107.83 67.5124 Q1113.1 67.5124 1115.94 65.73 Q1118.77 63.9071 1118.77 60.6258 Q1118.77 57.5877 1116.7 55.9673 Q1114.68 54.3469 1107.75 52.8481 L1105.16 52.2405 Q1098.23 50.7821 1095.15 47.7845 Q1092.08 44.7463 1092.08 39.4801 Q1092.08 33.0797 1096.61 29.5959 Q1101.15 26.1121 1109.49 26.1121 Q1113.63 26.1121 1117.27 26.7198 Q1120.92 27.3274 1124 28.5427 Z" fill="#adb2b7" fill-rule="evenodd" fill-opacity="1" /><path clip-path="url(#clip950)" d="M 0 0 M1134.25 27.2059 L1141.7 27.2059 L1141.7 72.576 L1134.25 72.576 L1134.25 27.2059 M1134.25 9.54393 L1141.7 9.54393 L1141.7 18.9825 L1134.25 18.9825 L1134.25 9.54393 Z" fill="#adb2b7" fill-rule="evenodd" fill-opacity="1" /><path clip-path="url(#clip950)" d="M 0 0 M1187.23 45.1919 L1187.23 72.576 L1179.78 72.576 L1179.78 45.4349 Q1179.78 38.994 1177.27 35.7938 Q1174.75 32.5936 1169.73 32.5936 Q1163.7 32.5936 1160.21 36.4419 Q1156.73 40.2903 1156.73 46.9338 L1156.73 72.576 L1149.23 72.576 L1149.23 27.2059 L1156.73 27.2059 L1156.73 34.2544 Q1159.4 30.163 1163.01 28.1376 Q1166.65 26.1121 1171.39 26.1121 Q1179.21 26.1121 1183.22 30.9732 Q1187.23 35.7938 1187.23 45.1919 Z" fill="#adb2b7" fill-rule="evenodd" fill-opacity="1" /><path clip-path="url(#clip950)" d="M 0 0 M1194.77 9.54393 L1202.26 9.54393 L1202.26 46.7717 L1224.5 27.2059 L1234.02 27.2059 L1209.96 48.4326 L1235.03 72.576 L1225.31 72.576 L1202.26 50.4176 L1202.26 72.576 L1194.77 72.576 L1194.77 9.54393 Z" fill="#adb2b7" fill-rule="evenodd" fill-opacity="1" /><path clip-path="url(#clip950)" d="M 0 0 M1286.8 32.4315 Q1280.81 32.4315 1277.32 37.1306 Q1273.84 41.7891 1273.84 49.9314 Q1273.84 58.0738 1277.28 62.7728 Q1280.77 67.4314 1286.8 67.4314 Q1292.76 67.4314 1296.24 62.7323 Q1299.72 58.0333 1299.72 49.9314 Q1299.72 41.8701 1296.24 37.1711 Q1292.76 32.4315 1286.8 32.4315 M1286.8 26.1121 Q1296.52 26.1121 1302.07 32.4315 Q1307.62 38.7509 1307.62 49.9314 Q1307.62 61.0714 1302.07 67.4314 Q1296.52 73.7508 1286.8 73.7508 Q1277.04 73.7508 1271.49 67.4314 Q1265.98 61.0714 1265.98 49.9314 Q1265.98 38.7509 1271.49 32.4315 Q1277.04 26.1121 1286.8 26.1121 Z" fill="#adb2b7" fill-rule="evenodd" fill-opacity="1" /><path clip-path="url(#clip950)" d="M 0 0 M1348.01 49.9314 Q1348.01 41.7081 1344.61 37.0496 Q1341.25 32.3505 1335.33 32.3505 Q1329.42 32.3505 1326.02 37.0496 Q1322.65 41.7081 1322.65 49.9314 Q1322.65 58.1548 1326.02 62.8538 Q1329.42 67.5124 1335.33 67.5124 Q1341.25 67.5124 1344.61 62.8538 Q1348.01 58.1548 1348.01 49.9314 M1322.65 34.0924 Q1325 30.0415 1328.57 28.0971 Q1332.17 26.1121 1337.15 26.1121 Q1345.42 26.1121 1350.56 32.6746 Q1355.75 39.2371 1355.75 49.9314 Q1355.75 60.6258 1350.56 67.1883 Q1345.42 73.7508 1337.15 73.7508 Q1332.17 73.7508 1328.57 71.8063 Q1325 69.8214 1322.65 65.7705 L1322.65 72.576 L1315.16 72.576 L1315.16 9.54393 L1322.65 9.54393 L1322.65 34.0924 Z" fill="#adb2b7" fill-rule="evenodd" fill-opacity="1" /><path clip-path="url(#clip950)" d="M 0 0 M1363.57 27.2059 L1371.02 27.2059 L1371.02 73.3862 Q1371.02 82.0551 1367.7 85.944 Q1364.42 89.8329 1357.09 89.8329 L1354.25 89.8329 L1354.25 83.5134 L1356.23 83.5134 Q1360.49 83.5134 1362.03 81.5285 Q1363.57 79.5841 1363.57 73.3862 L1363.57 27.2059 M1363.57 9.54393 L1371.02 9.54393 L1371.02 18.9825 L1363.57 18.9825 L1363.57 9.54393 Z" fill="#adb2b7" fill-rule="evenodd" fill-opacity="1" /><path clip-path="url(#clip950)" d="M 0 0 M1417.65 48.0275 L1417.65 51.6733 L1383.38 51.6733 Q1383.86 59.3701 1387.99 63.421 Q1392.17 67.4314 1399.58 67.4314 Q1403.87 67.4314 1407.88 66.3781 Q1411.93 65.3249 1415.9 63.2184 L1415.9 70.267 Q1411.89 71.9684 1407.68 72.8596 Q1403.47 73.7508 1399.13 73.7508 Q1388.28 73.7508 1381.92 67.4314 Q1375.6 61.1119 1375.6 50.3365 Q1375.6 39.1965 1381.59 32.6746 Q1387.63 26.1121 1397.84 26.1121 Q1406.99 26.1121 1412.3 32.0264 Q1417.65 37.9003 1417.65 48.0275 M1410.19 45.84 Q1410.11 39.7232 1406.75 36.0774 Q1403.43 32.4315 1397.92 32.4315 Q1391.68 32.4315 1387.91 35.9558 Q1384.19 39.4801 1383.62 45.8805 L1410.19 45.84 Z" fill="#adb2b7" fill-rule="evenodd" fill-opacity="1" /><path clip-path="url(#clip950)" d="M 0 0 M1458.11 28.9478 L1458.11 35.9153 Q1454.96 34.1734 1451.76 33.3227 Q1448.6 32.4315 1445.35 32.4315 Q1438.1 32.4315 1434.09 37.0496 Q1430.08 41.6271 1430.08 49.9314 Q1430.08 58.2358 1434.09 62.8538 Q1438.1 67.4314 1445.35 67.4314 Q1448.6 67.4314 1451.76 66.5807 Q1454.96 65.6895 1458.11 63.9476 L1458.11 70.8341 Q1455 72.2924 1451.63 73.0216 Q1448.31 73.7508 1444.54 73.7508 Q1434.3 73.7508 1428.26 67.3098 Q1422.22 60.8689 1422.22 49.9314 Q1422.22 38.832 1428.3 32.472 Q1434.42 26.1121 1445.03 26.1121 Q1448.47 26.1121 1451.76 26.8413 Q1455.04 27.5299 1458.11 28.9478 Z" fill="#adb2b7" fill-rule="evenodd" fill-opacity="1" /><path clip-path="url(#clip950)" d="M 0 0 M1473.31 14.324 L1473.31 27.2059 L1488.66 27.2059 L1488.66 32.9987 L1473.31 32.9987 L1473.31 57.6282 Q1473.31 63.1779 1474.8 64.7578 Q1476.34 66.3376 1481 66.3376 L1488.66 66.3376 L1488.66 72.576 L1481 72.576 Q1472.37 72.576 1469.09 69.3758 Q1465.81 66.1351 1465.81 57.6282 L1465.81 32.9987 L1460.34 32.9987 L1460.34 27.2059 L1465.81 27.2059 L1465.81 14.324 L1473.31 14.324 Z" fill="#adb2b7" fill-rule="evenodd" fill-opacity="1" /><path clip-path="url(#clip950)" d="M 0 0 M1525.4 28.5427 L1525.4 35.5912 Q1522.24 33.9709 1518.84 33.1607 Q1515.44 32.3505 1511.79 32.3505 Q1506.24 32.3505 1503.44 34.0519 Q1500.69 35.7533 1500.69 39.156 Q1500.69 41.7486 1502.67 43.2475 Q1504.66 44.7058 1510.66 46.0426 L1513.21 46.6097 Q1521.15 48.3111 1524.47 51.4303 Q1527.83 54.509 1527.83 60.0587 Q1527.83 66.3781 1522.81 70.0644 Q1517.83 73.7508 1509.08 73.7508 Q1505.43 73.7508 1501.46 73.0216 Q1497.53 72.3329 1493.16 70.9151 L1493.16 63.2184 Q1497.29 65.3654 1501.3 66.4591 Q1505.31 67.5124 1509.24 67.5124 Q1514.5 67.5124 1517.34 65.73 Q1520.17 63.9071 1520.17 60.6258 Q1520.17 57.5877 1518.11 55.9673 Q1516.08 54.3469 1509.16 52.8481 L1506.56 52.2405 Q1499.64 50.7821 1496.56 47.7845 Q1493.48 44.7463 1493.48 39.4801 Q1493.48 33.0797 1498.02 29.5959 Q1502.55 26.1121 1510.9 26.1121 Q1515.03 26.1121 1518.68 26.7198 Q1522.32 27.3274 1525.4 28.5427 Z" fill="#adb2b7" fill-rule="evenodd" fill-opacity="1" /><path clip-path="url(#clip950)" d="M 0 0 M1537.55 62.2867 L1546.1 62.2867 L1546.1 72.576 L1537.55 72.576 L1537.55 62.2867 M1537.55 29.6769 L1546.1 29.6769 L1546.1 39.9662 L1537.55 39.9662 L1537.55 29.6769 Z" fill="#adb2b7" fill-rule="evenodd" fill-opacity="1" /><path clip-path="url(#clip950)" d="M 0 0 M1588.39 65.6895 L1616.95 65.6895 L1616.95 72.576 L1578.55 72.576 L1578.55 65.6895 Q1583.21 60.8689 1591.23 52.7671 Q1599.29 44.6248 1601.35 42.2752 Q1605.28 37.8598 1606.82 34.8216 Q1608.4 31.7429 1608.4 28.7857 Q1608.4 23.9651 1605 20.927 Q1601.64 17.8888 1596.21 17.8888 Q1592.36 17.8888 1588.07 19.2256 Q1583.81 20.5624 1578.95 23.2765 L1578.95 15.0127 Q1583.9 13.0277 1588.19 12.015 Q1592.48 11.0023 1596.05 11.0023 Q1605.45 11.0023 1611.04 15.7013 Q1616.63 20.4004 1616.63 28.2591 Q1616.63 31.9859 1615.21 35.3482 Q1613.83 38.6699 1610.15 43.2069 Q1609.13 44.3817 1603.7 50.0125 Q1598.28 55.6027 1588.39 65.6895 Z" fill="#adb2b7" fill-rule="evenodd" fill-opacity="1" /><polyline clip-path="url(#clip952)" style="stroke:#fe4365; stroke-width:4; stroke-opacity:1; fill:none" points="
  327.319,1086.41 347.182,1091.06 367.045,1097.33 386.908,1102.1 406.771,1106.92 426.634,1111.79 446.497,1118.36 466.36,1123.35 486.223,1128.41 506.086,1133.51 
  525.949,1138.68 545.812,1145.66 565.675,1150.97 585.538,1156.34 605.402,1161.78 625.265,1169.13 645.128,1174.73 664.991,1180.39 684.854,1186.13 704.717,1191.94 
  724.58,1199.81 744.443,1205.8 764.306,1211.87 784.169,1218.03 804.032,1226.37 823.895,1232.72 843.758,1239.17 863.621,1245.72 883.485,1254.59 903.348,1261.36 
  923.211,1268.24 943.074,1277.57 962.937,1284.7 982.8,1291.95 1002.66,1301.79 1022.53,1309.32 1042.39,1316.97 1062.25,1327.39 1082.12,1335.36 1101.98,1346.21 
  1121.84,1354.52 1141.7,1365.85 1161.57,1377.48 1181.43,1383.4 1201.29,1386.4 1221.16,1386.4 1241.02,1386.4 1260.88,1383.4 1280.75,1371.63 1300.61,1365.85 
  1320.47,1357.33 1340.34,1346.21 1360.2,1338.05 1380.06,1327.39 1399.92,1324.76 1419.79,1316.97 1439.65,1311.86 1459.51,1299.31 1479.38,1287.1 1499.24,1272.88 
  1519.1,1259.09 1538.97,1245.72 1558.83,1239.17 1578.69,1228.48 1598.56,1213.91 1618.42,1209.84 1638.28,1195.86 1658.14,1178.5 1678.01,1169.13 1697.87,1158.15 
  1717.73,1143.91 1737.6,1128.41 1757.46,1111.79 1777.32,1097.33 1797.19,1081.8 1817.05,1066.79 1836.91,1052.26 1856.78,1034.05 1876.64,1015.22 1896.5,995.893 
  1916.36,977.357 1936.23,953.773 1956.09,932.457 1975.95,908.974 1995.82,883.695 2015.68,860.693 2035.54,836.147 2055.41,806.198 2075.27,780.456 2095.13,745.855 
  2114.99,713.723 2134.86,674.368 2154.72,635.904 2174.58,595.773 2194.45,545.273 2214.31,491.559 2234.17,427.937 2254.04,352.731 2273.9,268.309 2293.76,160.256 
  
  "/>
<path clip-path="url(#clip950)" d="
M1900.82 287.756 L2283.27 287.756 L2283.27 166.796 L1900.82 166.796  Z
  " fill="#282c34" fill-rule="evenodd" fill-opacity="1"/>
<polyline clip-path="url(#clip950)" style="stroke:#9eb1be; stroke-width:4; stroke-opacity:1; fill:none" points="
  1900.82,287.756 2283.27,287.756 2283.27,166.796 1900.82,166.796 1900.82,287.756 
  "/>
<polyline clip-path="url(#clip950)" style="stroke:#fe4365; stroke-width:4; stroke-opacity:1; fill:none" points="
  1923.98,227.276 2062.94,227.276 
  "/>
<path clip-path="url(#clip950)" d="M 0 0 M2086.1 209.996 L2092.39 209.996 L2107.72 238.908 L2107.72 209.996 L2112.26 209.996 L2112.26 244.556 L2105.96 244.556 L2090.64 215.644 L2090.64 244.556 L2086.1 244.556 L2086.1 209.996 Z" fill="#adb2b7" fill-rule="evenodd" fill-opacity="1" /><path clip-path="url(#clip950)" d="M 0 0 M2117.28 223.028 L2146.95 223.028 L2146.95 226.917 L2117.28 226.917 L2117.28 223.028 M2117.28 232.472 L2146.95 232.472 L2146.95 236.408 L2117.28 236.408 L2117.28 232.472 Z" fill="#adb2b7" fill-rule="evenodd" fill-opacity="1" /><path clip-path="url(#clip950)" d="M 0 0 M2152.07 209.996 L2170.43 209.996 L2170.43 213.931 L2156.35 213.931 L2156.35 222.403 Q2157.37 222.056 2158.39 221.894 Q2159.41 221.709 2160.43 221.709 Q2166.21 221.709 2169.59 224.88 Q2172.97 228.051 2172.97 233.468 Q2172.97 239.046 2169.5 242.148 Q2166.03 245.227 2159.71 245.227 Q2157.53 245.227 2155.26 244.857 Q2153.02 244.486 2150.61 243.746 L2150.61 239.046 Q2152.7 240.181 2154.92 240.736 Q2157.14 241.292 2159.62 241.292 Q2163.62 241.292 2165.96 239.185 Q2168.3 237.079 2168.3 233.468 Q2168.3 229.857 2165.96 227.75 Q2163.62 225.644 2159.62 225.644 Q2157.74 225.644 2155.87 226.06 Q2154.01 226.477 2152.07 227.357 L2152.07 209.996 Z" fill="#adb2b7" fill-rule="evenodd" fill-opacity="1" /><path clip-path="url(#clip950)" d="M 0 0 M2188.04 213.074 Q2184.43 213.074 2182.6 216.639 Q2180.8 220.181 2180.8 227.31 Q2180.8 234.417 2182.6 237.982 Q2184.43 241.523 2188.04 241.523 Q2191.68 241.523 2193.48 237.982 Q2195.31 234.417 2195.31 227.31 Q2195.31 220.181 2193.48 216.639 Q2191.68 213.074 2188.04 213.074 M2188.04 209.371 Q2193.85 209.371 2196.91 213.977 Q2199.99 218.56 2199.99 227.31 Q2199.99 236.037 2196.91 240.644 Q2193.85 245.227 2188.04 245.227 Q2182.23 245.227 2179.15 240.644 Q2176.1 236.037 2176.1 227.31 Q2176.1 218.56 2179.15 213.977 Q2182.23 209.371 2188.04 209.371 Z" fill="#adb2b7" fill-rule="evenodd" fill-opacity="1" /><path clip-path="url(#clip950)" d="M 0 0 M2205.06 238.676 L2209.94 238.676 L2209.94 244.556 L2205.06 244.556 L2205.06 238.676 Z" fill="#adb2b7" fill-rule="evenodd" fill-opacity="1" /><path clip-path="url(#clip950)" d="M 0 0 M2225.01 213.074 Q2221.4 213.074 2219.57 216.639 Q2217.76 220.181 2217.76 227.31 Q2217.76 234.417 2219.57 237.982 Q2221.4 241.523 2225.01 241.523 Q2228.64 241.523 2230.45 237.982 Q2232.28 234.417 2232.28 227.31 Q2232.28 220.181 2230.45 216.639 Q2228.64 213.074 2225.01 213.074 M2225.01 209.371 Q2230.82 209.371 2233.88 213.977 Q2236.95 218.56 2236.95 227.31 Q2236.95 236.037 2233.88 240.644 Q2230.82 245.227 2225.01 245.227 Q2219.2 245.227 2216.12 240.644 Q2213.07 236.037 2213.07 227.31 Q2213.07 218.56 2216.12 213.977 Q2219.2 209.371 2225.01 209.371 Z" fill="#adb2b7" fill-rule="evenodd" fill-opacity="1" /></svg>
