<?xml version="1.0" encoding="utf-8"?>
<svg xmlns="http://www.w3.org/2000/svg" xmlns:xlink="http://www.w3.org/1999/xlink" width="600" height="400" viewBox="0 0 2400 1600">
<defs>
  <clipPath id="clip170">
    <rect x="0" y="0" width="2400" height="1600"/>
  </clipPath>
</defs>
<path clip-path="url(#clip170)" d="
M0 1600 L2400 1600 L2400 0 L0 0  Z
  " fill="#282c34" fill-rule="evenodd" fill-opacity="1"/>
<defs>
  <clipPath id="clip171">
    <rect x="480" y="0" width="1681" height="1600"/>
  </clipPath>
</defs>
<path clip-path="url(#clip170)" d="
M242.922 1423.18 L2352.76 1423.18 L2352.76 123.472 L242.922 123.472  Z
  " fill="#21252b" fill-rule="evenodd" fill-opacity="1"/>
<defs>
  <clipPath id="clip172">
    <rect x="242" y="123" width="2111" height="1301"/>
  </clipPath>
</defs>
<polyline clip-path="url(#clip172)" style="stroke:#adb2b7; stroke-width:2; stroke-opacity:0.1; fill:none" points="
  302.634,1423.18 302.634,123.472 
  "/>
<polyline clip-path="url(#clip172)" style="stroke:#adb2b7; stroke-width:2; stroke-opacity:0.1; fill:none" points="
  800.236,1423.18 800.236,123.472 
  "/>
<polyline clip-path="url(#clip172)" style="stroke:#adb2b7; stroke-width:2; stroke-opacity:0.1; fill:none" points="
  1297.84,1423.18 1297.84,123.472 
  "/>
<polyline clip-path="url(#clip172)" style="stroke:#adb2b7; stroke-width:2; stroke-opacity:0.1; fill:none" points="
  1795.44,1423.18 1795.44,123.472 
  "/>
<polyline clip-path="url(#clip172)" style="stroke:#adb2b7; stroke-width:2; stroke-opacity:0.1; fill:none" points="
  2293.04,1423.18 2293.04,123.472 
  "/>
<polyline clip-path="url(#clip170)" style="stroke:#adb2b7; stroke-width:4; stroke-opacity:1; fill:none" points="
  242.922,1423.18 2352.76,1423.18 
  "/>
<polyline clip-path="url(#clip170)" style="stroke:#adb2b7; stroke-width:4; stroke-opacity:1; fill:none" points="
  302.634,1423.18 302.634,1407.58 
  "/>
<polyline clip-path="url(#clip170)" style="stroke:#adb2b7; stroke-width:4; stroke-opacity:1; fill:none" points="
  800.236,1423.18 800.236,1407.58 
  "/>
<polyline clip-path="url(#clip170)" style="stroke:#adb2b7; stroke-width:4; stroke-opacity:1; fill:none" points="
  1297.84,1423.18 1297.84,1407.58 
  "/>
<polyline clip-path="url(#clip170)" style="stroke:#adb2b7; stroke-width:4; stroke-opacity:1; fill:none" points="
  1795.44,1423.18 1795.44,1407.58 
  "/>
<polyline clip-path="url(#clip170)" style="stroke:#adb2b7; stroke-width:4; stroke-opacity:1; fill:none" points="
  2293.04,1423.18 2293.04,1407.58 
  "/>
<path clip-path="url(#clip170)" d="M 0 0 M270.643 1452.37 Q267.032 1452.37 265.204 1455.94 Q263.398 1459.48 263.398 1466.61 Q263.398 1473.71 265.204 1477.28 Q267.032 1480.82 270.643 1480.82 Q274.278 1480.82 276.083 1477.28 Q277.912 1473.71 277.912 1466.61 Q277.912 1459.48 276.083 1455.94 Q274.278 1452.37 270.643 1452.37 M270.643 1448.67 Q276.454 1448.67 279.509 1453.27 Q282.588 1457.86 282.588 1466.61 Q282.588 1475.33 279.509 1479.94 Q276.454 1484.52 270.643 1484.52 Q264.833 1484.52 261.755 1479.94 Q258.699 1475.33 258.699 1466.61 Q258.699 1457.86 261.755 1453.27 Q264.833 1448.67 270.643 1448.67 Z" fill="#9eb1be" fill-rule="evenodd" fill-opacity="1" /><path clip-path="url(#clip170)" d="M 0 0 M287.657 1477.97 L292.541 1477.97 L292.541 1483.85 L287.657 1483.85 L287.657 1477.97 Z" fill="#9eb1be" fill-rule="evenodd" fill-opacity="1" /><path clip-path="url(#clip170)" d="M 0 0 M307.611 1452.37 Q304 1452.37 302.171 1455.94 Q300.365 1459.48 300.365 1466.61 Q300.365 1473.71 302.171 1477.28 Q304 1480.82 307.611 1480.82 Q311.245 1480.82 313.051 1477.28 Q314.879 1473.71 314.879 1466.61 Q314.879 1459.48 313.051 1455.94 Q311.245 1452.37 307.611 1452.37 M307.611 1448.67 Q313.421 1448.67 316.477 1453.27 Q319.555 1457.86 319.555 1466.61 Q319.555 1475.33 316.477 1479.94 Q313.421 1484.52 307.611 1484.52 Q301.801 1484.52 298.722 1479.94 Q295.666 1475.33 295.666 1466.61 Q295.666 1457.86 298.722 1453.27 Q301.801 1448.67 307.611 1448.67 Z" fill="#9eb1be" fill-rule="evenodd" fill-opacity="1" /><path clip-path="url(#clip170)" d="M 0 0 M334.625 1452.37 Q331.013 1452.37 329.185 1455.94 Q327.379 1459.48 327.379 1466.61 Q327.379 1473.71 329.185 1477.28 Q331.013 1480.82 334.625 1480.82 Q338.259 1480.82 340.064 1477.28 Q341.893 1473.71 341.893 1466.61 Q341.893 1459.48 340.064 1455.94 Q338.259 1452.37 334.625 1452.37 M334.625 1448.67 Q340.435 1448.67 343.49 1453.27 Q346.569 1457.86 346.569 1466.61 Q346.569 1475.33 343.49 1479.94 Q340.435 1484.52 334.625 1484.52 Q328.814 1484.52 325.736 1479.94 Q322.68 1475.33 322.68 1466.61 Q322.68 1457.86 325.736 1453.27 Q328.814 1448.67 334.625 1448.67 Z" fill="#9eb1be" fill-rule="evenodd" fill-opacity="1" /><path clip-path="url(#clip170)" d="M 0 0 M769.542 1452.37 Q765.931 1452.37 764.102 1455.94 Q762.297 1459.48 762.297 1466.61 Q762.297 1473.71 764.102 1477.28 Q765.931 1480.82 769.542 1480.82 Q773.176 1480.82 774.982 1477.28 Q776.811 1473.71 776.811 1466.61 Q776.811 1459.48 774.982 1455.94 Q773.176 1452.37 769.542 1452.37 M769.542 1448.67 Q775.352 1448.67 778.408 1453.27 Q781.486 1457.86 781.486 1466.61 Q781.486 1475.33 778.408 1479.94 Q775.352 1484.52 769.542 1484.52 Q763.732 1484.52 760.653 1479.94 Q757.598 1475.33 757.598 1466.61 Q757.598 1457.86 760.653 1453.27 Q763.732 1448.67 769.542 1448.67 Z" fill="#9eb1be" fill-rule="evenodd" fill-opacity="1" /><path clip-path="url(#clip170)" d="M 0 0 M786.556 1477.97 L791.44 1477.97 L791.44 1483.85 L786.556 1483.85 L786.556 1477.97 Z" fill="#9eb1be" fill-rule="evenodd" fill-opacity="1" /><path clip-path="url(#clip170)" d="M 0 0 M800.537 1479.92 L816.857 1479.92 L816.857 1483.85 L794.912 1483.85 L794.912 1479.92 Q797.574 1477.16 802.158 1472.53 Q806.764 1467.88 807.945 1466.54 Q810.19 1464.01 811.07 1462.28 Q811.972 1460.52 811.972 1458.83 Q811.972 1456.07 810.028 1454.34 Q808.107 1452.6 805.005 1452.6 Q802.806 1452.6 800.352 1453.37 Q797.922 1454.13 795.144 1455.68 L795.144 1450.96 Q797.968 1449.82 800.422 1449.25 Q802.875 1448.67 804.912 1448.67 Q810.283 1448.67 813.477 1451.35 Q816.671 1454.04 816.671 1458.53 Q816.671 1460.66 815.861 1462.58 Q815.074 1464.48 812.968 1467.07 Q812.389 1467.74 809.287 1470.96 Q806.185 1474.15 800.537 1479.92 Z" fill="#9eb1be" fill-rule="evenodd" fill-opacity="1" /><path clip-path="url(#clip170)" d="M 0 0 M821.972 1449.29 L840.329 1449.29 L840.329 1453.23 L826.255 1453.23 L826.255 1461.7 Q827.273 1461.35 828.292 1461.19 Q829.31 1461 830.329 1461 Q836.116 1461 839.495 1464.18 Q842.875 1467.35 842.875 1472.76 Q842.875 1478.34 839.403 1481.44 Q835.931 1484.52 829.611 1484.52 Q827.435 1484.52 825.167 1484.15 Q822.921 1483.78 820.514 1483.04 L820.514 1478.34 Q822.597 1479.48 824.82 1480.03 Q827.042 1480.59 829.519 1480.59 Q833.523 1480.59 835.861 1478.48 Q838.199 1476.38 838.199 1472.76 Q838.199 1469.15 835.861 1467.05 Q833.523 1464.94 829.519 1464.94 Q827.644 1464.94 825.769 1465.36 Q823.917 1465.77 821.972 1466.65 L821.972 1449.29 Z" fill="#9eb1be" fill-rule="evenodd" fill-opacity="1" /><path clip-path="url(#clip170)" d="M 0 0 M1266.35 1452.37 Q1262.73 1452.37 1260.91 1455.94 Q1259.1 1459.48 1259.1 1466.61 Q1259.1 1473.71 1260.91 1477.28 Q1262.73 1480.82 1266.35 1480.82 Q1269.98 1480.82 1271.79 1477.28 Q1273.61 1473.71 1273.61 1466.61 Q1273.61 1459.48 1271.79 1455.94 Q1269.98 1452.37 1266.35 1452.37 M1266.35 1448.67 Q1272.16 1448.67 1275.21 1453.27 Q1278.29 1457.86 1278.29 1466.61 Q1278.29 1475.33 1275.21 1479.94 Q1272.16 1484.52 1266.35 1484.52 Q1260.54 1484.52 1257.46 1479.94 Q1254.4 1475.33 1254.4 1466.61 Q1254.4 1457.86 1257.46 1453.27 Q1260.54 1448.67 1266.35 1448.67 Z" fill="#9eb1be" fill-rule="evenodd" fill-opacity="1" /><path clip-path="url(#clip170)" d="M 0 0 M1283.36 1477.97 L1288.24 1477.97 L1288.24 1483.85 L1283.36 1483.85 L1283.36 1477.97 Z" fill="#9eb1be" fill-rule="evenodd" fill-opacity="1" /><path clip-path="url(#clip170)" d="M 0 0 M1293.36 1449.29 L1311.72 1449.29 L1311.72 1453.23 L1297.64 1453.23 L1297.64 1461.7 Q1298.66 1461.35 1299.68 1461.19 Q1300.7 1461 1301.72 1461 Q1307.5 1461 1310.88 1464.18 Q1314.26 1467.35 1314.26 1472.76 Q1314.26 1478.34 1310.79 1481.44 Q1307.32 1484.52 1301 1484.52 Q1298.82 1484.52 1296.55 1484.15 Q1294.31 1483.78 1291.9 1483.04 L1291.9 1478.34 Q1293.98 1479.48 1296.21 1480.03 Q1298.43 1480.59 1300.91 1480.59 Q1304.91 1480.59 1307.25 1478.48 Q1309.59 1476.38 1309.59 1472.76 Q1309.59 1469.15 1307.25 1467.05 Q1304.91 1464.94 1300.91 1464.94 Q1299.03 1464.94 1297.16 1465.36 Q1295.3 1465.77 1293.36 1466.65 L1293.36 1449.29 Z" fill="#9eb1be" fill-rule="evenodd" fill-opacity="1" /><path clip-path="url(#clip170)" d="M 0 0 M1329.33 1452.37 Q1325.72 1452.37 1323.89 1455.94 Q1322.09 1459.48 1322.09 1466.61 Q1322.09 1473.71 1323.89 1477.28 Q1325.72 1480.82 1329.33 1480.82 Q1332.97 1480.82 1334.77 1477.28 Q1336.6 1473.71 1336.6 1466.61 Q1336.6 1459.48 1334.77 1455.94 Q1332.97 1452.37 1329.33 1452.37 M1329.33 1448.67 Q1335.14 1448.67 1338.2 1453.27 Q1341.28 1457.86 1341.28 1466.61 Q1341.28 1475.33 1338.2 1479.94 Q1335.14 1484.52 1329.33 1484.52 Q1323.52 1484.52 1320.44 1479.94 Q1317.39 1475.33 1317.39 1466.61 Q1317.39 1457.86 1320.44 1453.27 Q1323.52 1448.67 1329.33 1448.67 Z" fill="#9eb1be" fill-rule="evenodd" fill-opacity="1" /><path clip-path="url(#clip170)" d="M 0 0 M1764.4 1452.37 Q1760.79 1452.37 1758.96 1455.94 Q1757.15 1459.48 1757.15 1466.61 Q1757.15 1473.71 1758.96 1477.28 Q1760.79 1480.82 1764.4 1480.82 Q1768.03 1480.82 1769.84 1477.28 Q1771.67 1473.71 1771.67 1466.61 Q1771.67 1459.48 1769.84 1455.94 Q1768.03 1452.37 1764.4 1452.37 M1764.4 1448.67 Q1770.21 1448.67 1773.27 1453.27 Q1776.34 1457.86 1776.34 1466.61 Q1776.34 1475.33 1773.27 1479.94 Q1770.21 1484.52 1764.4 1484.52 Q1758.59 1484.52 1755.51 1479.94 Q1752.46 1475.33 1752.46 1466.61 Q1752.46 1457.86 1755.51 1453.27 Q1758.59 1448.67 1764.4 1448.67 Z" fill="#9eb1be" fill-rule="evenodd" fill-opacity="1" /><path clip-path="url(#clip170)" d="M 0 0 M1781.41 1477.97 L1786.3 1477.97 L1786.3 1483.85 L1781.41 1483.85 L1781.41 1477.97 Z" fill="#9eb1be" fill-rule="evenodd" fill-opacity="1" /><path clip-path="url(#clip170)" d="M 0 0 M1790.19 1449.29 L1812.41 1449.29 L1812.41 1451.28 L1799.86 1483.85 L1794.98 1483.85 L1806.78 1453.23 L1790.19 1453.23 L1790.19 1449.29 Z" fill="#9eb1be" fill-rule="evenodd" fill-opacity="1" /><path clip-path="url(#clip170)" d="M 0 0 M1817.52 1449.29 L1835.88 1449.29 L1835.88 1453.23 L1821.81 1453.23 L1821.81 1461.7 Q1822.83 1461.35 1823.84 1461.19 Q1824.86 1461 1825.88 1461 Q1831.67 1461 1835.05 1464.18 Q1838.43 1467.35 1838.43 1472.76 Q1838.43 1478.34 1834.95 1481.44 Q1831.48 1484.52 1825.16 1484.52 Q1822.99 1484.52 1820.72 1484.15 Q1818.47 1483.78 1816.07 1483.04 L1816.07 1478.34 Q1818.15 1479.48 1820.37 1480.03 Q1822.59 1480.59 1825.07 1480.59 Q1829.08 1480.59 1831.41 1478.48 Q1833.75 1476.38 1833.75 1472.76 Q1833.75 1469.15 1831.41 1467.05 Q1829.08 1464.94 1825.07 1464.94 Q1823.2 1464.94 1821.32 1465.36 Q1819.47 1465.77 1817.52 1466.65 L1817.52 1449.29 Z" fill="#9eb1be" fill-rule="evenodd" fill-opacity="1" /><path clip-path="url(#clip170)" d="M 0 0 M2251.44 1479.92 L2259.07 1479.92 L2259.07 1453.55 L2250.76 1455.22 L2250.76 1450.96 L2259.03 1449.29 L2263.7 1449.29 L2263.7 1479.92 L2271.34 1479.92 L2271.34 1483.85 L2251.44 1483.85 L2251.44 1479.92 Z" fill="#9eb1be" fill-rule="evenodd" fill-opacity="1" /><path clip-path="url(#clip170)" d="M 0 0 M2276.41 1477.97 L2281.3 1477.97 L2281.3 1483.85 L2276.41 1483.85 L2276.41 1477.97 Z" fill="#9eb1be" fill-rule="evenodd" fill-opacity="1" /><path clip-path="url(#clip170)" d="M 0 0 M2296.37 1452.37 Q2292.75 1452.37 2290.93 1455.94 Q2289.12 1459.48 2289.12 1466.61 Q2289.12 1473.71 2290.93 1477.28 Q2292.75 1480.82 2296.37 1480.82 Q2300 1480.82 2301.81 1477.28 Q2303.63 1473.71 2303.63 1466.61 Q2303.63 1459.48 2301.81 1455.94 Q2300 1452.37 2296.37 1452.37 M2296.37 1448.67 Q2302.18 1448.67 2305.23 1453.27 Q2308.31 1457.86 2308.31 1466.61 Q2308.31 1475.33 2305.23 1479.94 Q2302.18 1484.52 2296.37 1484.52 Q2290.56 1484.52 2287.48 1479.94 Q2284.42 1475.33 2284.42 1466.61 Q2284.42 1457.86 2287.48 1453.27 Q2290.56 1448.67 2296.37 1448.67 Z" fill="#9eb1be" fill-rule="evenodd" fill-opacity="1" /><path clip-path="url(#clip170)" d="M 0 0 M2323.38 1452.37 Q2319.77 1452.37 2317.94 1455.94 Q2316.13 1459.48 2316.13 1466.61 Q2316.13 1473.71 2317.94 1477.28 Q2319.77 1480.82 2323.38 1480.82 Q2327.01 1480.82 2328.82 1477.28 Q2330.65 1473.71 2330.65 1466.61 Q2330.65 1459.48 2328.82 1455.94 Q2327.01 1452.37 2323.38 1452.37 M2323.38 1448.67 Q2329.19 1448.67 2332.24 1453.27 Q2335.32 1457.86 2335.32 1466.61 Q2335.32 1475.33 2332.24 1479.94 Q2329.19 1484.52 2323.38 1484.52 Q2317.57 1484.52 2314.49 1479.94 Q2311.43 1475.33 2311.43 1466.61 Q2311.43 1457.86 2314.49 1453.27 Q2317.57 1448.67 2323.38 1448.67 Z" fill="#9eb1be" fill-rule="evenodd" fill-opacity="1" /><path clip-path="url(#clip170)" d="M 0 0 M1314.45 1532.4 L1301.56 1549.74 L1315.12 1568.04 L1308.21 1568.04 L1297.84 1554.04 L1287.46 1568.04 L1280.56 1568.04 L1294.4 1549.39 L1281.73 1532.4 L1288.64 1532.4 L1298.09 1545.1 L1307.55 1532.4 L1314.45 1532.4 Z" fill="#9eb1be" fill-rule="evenodd" fill-opacity="1" /><polyline clip-path="url(#clip172)" style="stroke:#adb2b7; stroke-width:2; stroke-opacity:0.1; fill:none" points="
  242.922,1386.47 2352.76,1386.47 
  "/>
<polyline clip-path="url(#clip172)" style="stroke:#adb2b7; stroke-width:2; stroke-opacity:0.1; fill:none" points="
  242.922,1079.9 2352.76,1079.9 
  "/>
<polyline clip-path="url(#clip172)" style="stroke:#adb2b7; stroke-width:2; stroke-opacity:0.1; fill:none" points="
  242.922,773.326 2352.76,773.326 
  "/>
<polyline clip-path="url(#clip172)" style="stroke:#adb2b7; stroke-width:2; stroke-opacity:0.1; fill:none" points="
  242.922,466.753 2352.76,466.753 
  "/>
<polyline clip-path="url(#clip172)" style="stroke:#adb2b7; stroke-width:2; stroke-opacity:0.1; fill:none" points="
  242.922,160.179 2352.76,160.179 
  "/>
<polyline clip-path="url(#clip170)" style="stroke:#adb2b7; stroke-width:4; stroke-opacity:1; fill:none" points="
  242.922,1423.18 242.922,123.472 
  "/>
<polyline clip-path="url(#clip170)" style="stroke:#adb2b7; stroke-width:4; stroke-opacity:1; fill:none" points="
  242.922,1386.47 268.24,1386.47 
  "/>
<polyline clip-path="url(#clip170)" style="stroke:#adb2b7; stroke-width:4; stroke-opacity:1; fill:none" points="
  242.922,1079.9 268.24,1079.9 
  "/>
<polyline clip-path="url(#clip170)" style="stroke:#adb2b7; stroke-width:4; stroke-opacity:1; fill:none" points="
  242.922,773.326 268.24,773.326 
  "/>
<polyline clip-path="url(#clip170)" style="stroke:#adb2b7; stroke-width:4; stroke-opacity:1; fill:none" points="
  242.922,466.753 268.24,466.753 
  "/>
<polyline clip-path="url(#clip170)" style="stroke:#adb2b7; stroke-width:4; stroke-opacity:1; fill:none" points="
  242.922,160.179 268.24,160.179 
  "/>
<path clip-path="url(#clip170)" d="M 0 0 M114.492 1386.92 L144.167 1386.92 L144.167 1390.86 L114.492 1390.86 L114.492 1386.92 Z" fill="#9eb1be" fill-rule="evenodd" fill-opacity="1" /><path clip-path="url(#clip170)" d="M 0 0 M150.047 1399.82 L157.686 1399.82 L157.686 1373.45 L149.376 1375.12 L149.376 1370.86 L157.64 1369.19 L162.315 1369.19 L162.315 1399.82 L169.954 1399.82 L169.954 1403.75 L150.047 1403.75 L150.047 1399.82 Z" fill="#9eb1be" fill-rule="evenodd" fill-opacity="1" /><path clip-path="url(#clip170)" d="M 0 0 M175.024 1397.87 L179.908 1397.87 L179.908 1403.75 L175.024 1403.75 L175.024 1397.87 Z" fill="#9eb1be" fill-rule="evenodd" fill-opacity="1" /><path clip-path="url(#clip170)" d="M 0 0 M194.977 1372.27 Q191.366 1372.27 189.538 1375.84 Q187.732 1379.38 187.732 1386.51 Q187.732 1393.61 189.538 1397.18 Q191.366 1400.72 194.977 1400.72 Q198.612 1400.72 200.417 1397.18 Q202.246 1393.61 202.246 1386.51 Q202.246 1379.38 200.417 1375.84 Q198.612 1372.27 194.977 1372.27 M194.977 1368.57 Q200.787 1368.57 203.843 1373.17 Q206.922 1377.76 206.922 1386.51 Q206.922 1395.23 203.843 1399.84 Q200.787 1404.42 194.977 1404.42 Q189.167 1404.42 186.088 1399.84 Q183.033 1395.23 183.033 1386.51 Q183.033 1377.76 186.088 1373.17 Q189.167 1368.57 194.977 1368.57 Z" fill="#9eb1be" fill-rule="evenodd" fill-opacity="1" /><path clip-path="url(#clip170)" d="M 0 0 M114.26 1080.35 L143.936 1080.35 L143.936 1084.29 L114.26 1084.29 L114.26 1080.35 Z" fill="#9eb1be" fill-rule="evenodd" fill-opacity="1" /><path clip-path="url(#clip170)" d="M 0 0 M159.005 1065.7 Q155.394 1065.7 153.566 1069.26 Q151.76 1072.8 151.76 1079.93 Q151.76 1087.04 153.566 1090.61 Q155.394 1094.15 159.005 1094.15 Q162.64 1094.15 164.445 1090.61 Q166.274 1087.04 166.274 1079.93 Q166.274 1072.8 164.445 1069.26 Q162.64 1065.7 159.005 1065.7 M159.005 1061.99 Q164.815 1061.99 167.871 1066.6 Q170.95 1071.18 170.95 1079.93 Q170.95 1088.66 167.871 1093.27 Q164.815 1097.85 159.005 1097.85 Q153.195 1097.85 150.116 1093.27 Q147.061 1088.66 147.061 1079.93 Q147.061 1071.18 150.116 1066.6 Q153.195 1061.99 159.005 1061.99 Z" fill="#9eb1be" fill-rule="evenodd" fill-opacity="1" /><path clip-path="url(#clip170)" d="M 0 0 M176.019 1091.3 L180.903 1091.3 L180.903 1097.18 L176.019 1097.18 L176.019 1091.3 Z" fill="#9eb1be" fill-rule="evenodd" fill-opacity="1" /><path clip-path="url(#clip170)" d="M 0 0 M186.019 1062.62 L204.375 1062.62 L204.375 1066.55 L190.301 1066.55 L190.301 1075.03 Q191.32 1074.68 192.338 1074.52 Q193.357 1074.33 194.375 1074.33 Q200.162 1074.33 203.542 1077.5 Q206.922 1080.67 206.922 1086.09 Q206.922 1091.67 203.449 1094.77 Q199.977 1097.85 193.658 1097.85 Q191.482 1097.85 189.213 1097.48 Q186.968 1097.11 184.561 1096.37 L184.561 1091.67 Q186.644 1092.8 188.866 1093.36 Q191.088 1093.92 193.565 1093.92 Q197.57 1093.92 199.908 1091.81 Q202.246 1089.7 202.246 1086.09 Q202.246 1082.48 199.908 1080.37 Q197.57 1078.27 193.565 1078.27 Q191.69 1078.27 189.815 1078.68 Q187.963 1079.1 186.019 1079.98 L186.019 1062.62 Z" fill="#9eb1be" fill-rule="evenodd" fill-opacity="1" /><path clip-path="url(#clip170)" d="M 0 0 M158.01 759.125 Q154.399 759.125 152.57 762.689 Q150.765 766.231 150.765 773.361 Q150.765 780.467 152.57 784.032 Q154.399 787.574 158.01 787.574 Q161.644 787.574 163.45 784.032 Q165.278 780.467 165.278 773.361 Q165.278 766.231 163.45 762.689 Q161.644 759.125 158.01 759.125 M158.01 755.421 Q163.82 755.421 166.876 760.027 Q169.954 764.611 169.954 773.361 Q169.954 782.088 166.876 786.694 Q163.82 791.277 158.01 791.277 Q152.2 791.277 149.121 786.694 Q146.066 782.088 146.066 773.361 Q146.066 764.611 149.121 760.027 Q152.2 755.421 158.01 755.421 Z" fill="#9eb1be" fill-rule="evenodd" fill-opacity="1" /><path clip-path="url(#clip170)" d="M 0 0 M175.024 784.726 L179.908 784.726 L179.908 790.606 L175.024 790.606 L175.024 784.726 Z" fill="#9eb1be" fill-rule="evenodd" fill-opacity="1" /><path clip-path="url(#clip170)" d="M 0 0 M194.977 759.125 Q191.366 759.125 189.538 762.689 Q187.732 766.231 187.732 773.361 Q187.732 780.467 189.538 784.032 Q191.366 787.574 194.977 787.574 Q198.612 787.574 200.417 784.032 Q202.246 780.467 202.246 773.361 Q202.246 766.231 200.417 762.689 Q198.612 759.125 194.977 759.125 M194.977 755.421 Q200.787 755.421 203.843 760.027 Q206.922 764.611 206.922 773.361 Q206.922 782.088 203.843 786.694 Q200.787 791.277 194.977 791.277 Q189.167 791.277 186.088 786.694 Q183.033 782.088 183.033 773.361 Q183.033 764.611 186.088 760.027 Q189.167 755.421 194.977 755.421 Z" fill="#9eb1be" fill-rule="evenodd" fill-opacity="1" /><path clip-path="url(#clip170)" d="M 0 0 M159.005 452.551 Q155.394 452.551 153.566 456.116 Q151.76 459.658 151.76 466.787 Q151.76 473.894 153.566 477.459 Q155.394 481 159.005 481 Q162.64 481 164.445 477.459 Q166.274 473.894 166.274 466.787 Q166.274 459.658 164.445 456.116 Q162.64 452.551 159.005 452.551 M159.005 448.848 Q164.815 448.848 167.871 453.454 Q170.95 458.037 170.95 466.787 Q170.95 475.514 167.871 480.121 Q164.815 484.704 159.005 484.704 Q153.195 484.704 150.116 480.121 Q147.061 475.514 147.061 466.787 Q147.061 458.037 150.116 453.454 Q153.195 448.848 159.005 448.848 Z" fill="#9eb1be" fill-rule="evenodd" fill-opacity="1" /><path clip-path="url(#clip170)" d="M 0 0 M176.019 478.153 L180.903 478.153 L180.903 484.033 L176.019 484.033 L176.019 478.153 Z" fill="#9eb1be" fill-rule="evenodd" fill-opacity="1" /><path clip-path="url(#clip170)" d="M 0 0 M186.019 449.473 L204.375 449.473 L204.375 453.408 L190.301 453.408 L190.301 461.88 Q191.32 461.533 192.338 461.371 Q193.357 461.185 194.375 461.185 Q200.162 461.185 203.542 464.357 Q206.922 467.528 206.922 472.945 Q206.922 478.523 203.449 481.625 Q199.977 484.704 193.658 484.704 Q191.482 484.704 189.213 484.333 Q186.968 483.963 184.561 483.222 L184.561 478.523 Q186.644 479.658 188.866 480.213 Q191.088 480.769 193.565 480.769 Q197.57 480.769 199.908 478.662 Q202.246 476.556 202.246 472.945 Q202.246 469.334 199.908 467.227 Q197.57 465.121 193.565 465.121 Q191.69 465.121 189.815 465.537 Q187.963 465.954 186.019 466.834 L186.019 449.473 Z" fill="#9eb1be" fill-rule="evenodd" fill-opacity="1" /><path clip-path="url(#clip170)" d="M 0 0 M150.047 173.524 L157.686 173.524 L157.686 147.158 L149.376 148.825 L149.376 144.566 L157.64 142.899 L162.315 142.899 L162.315 173.524 L169.954 173.524 L169.954 177.459 L150.047 177.459 L150.047 173.524 Z" fill="#9eb1be" fill-rule="evenodd" fill-opacity="1" /><path clip-path="url(#clip170)" d="M 0 0 M175.024 171.58 L179.908 171.58 L179.908 177.459 L175.024 177.459 L175.024 171.58 Z" fill="#9eb1be" fill-rule="evenodd" fill-opacity="1" /><path clip-path="url(#clip170)" d="M 0 0 M194.977 145.978 Q191.366 145.978 189.538 149.543 Q187.732 153.084 187.732 160.214 Q187.732 167.32 189.538 170.885 Q191.366 174.427 194.977 174.427 Q198.612 174.427 200.417 170.885 Q202.246 167.32 202.246 160.214 Q202.246 153.084 200.417 149.543 Q198.612 145.978 194.977 145.978 M194.977 142.274 Q200.787 142.274 203.843 146.881 Q206.922 151.464 206.922 160.214 Q206.922 168.941 203.843 173.547 Q200.787 178.13 194.977 178.13 Q189.167 178.13 186.088 173.547 Q183.033 168.941 183.033 160.214 Q183.033 151.464 186.088 146.881 Q189.167 142.274 194.977 142.274 Z" fill="#9eb1be" fill-rule="evenodd" fill-opacity="1" /><path clip-path="url(#clip170)" d="M 0 0 M64.0042 776.541 Q59.7391 776.509 54.1373 776.541 Q54.1373 783.352 47.4533 789.336 Q40.9603 795.192 29.502 795.351 L16.4842 795.351 L16.4842 788.572 L29.502 788.572 Q38.4777 788.572 43.6976 784.434 Q48.1535 780.933 48.5991 776.541 L16.4842 776.541 L16.4842 770.111 L48.5991 770.111 Q48.1535 765.719 43.6976 762.218 Q38.4777 758.08 29.502 758.08 L16.4842 758.08 L16.4842 751.301 L29.502 751.301 Q40.9603 751.46 47.4533 757.316 Q54.1373 763.3 54.1373 770.111 Q56.429 770.143 64.0042 770.111 L64.0042 776.541 Z" fill="#9eb1be" fill-rule="evenodd" fill-opacity="1" /><path clip-path="url(#clip170)" d="M 0 0 M1256.78 65.6895 L1285.34 65.6895 L1285.34 72.576 L1246.94 72.576 L1246.94 65.6895 Q1251.6 60.8689 1259.62 52.7671 Q1267.68 44.6248 1269.75 42.2752 Q1273.68 37.8598 1275.21 34.8216 Q1276.79 31.7429 1276.79 28.7857 Q1276.79 23.9651 1273.39 20.927 Q1270.03 17.8888 1264.6 17.8888 Q1260.75 17.8888 1256.46 19.2256 Q1252.21 20.5624 1247.34 23.2765 L1247.34 15.0127 Q1252.29 13.0277 1256.58 12.015 Q1260.87 11.0023 1264.44 11.0023 Q1273.84 11.0023 1279.43 15.7013 Q1285.02 20.4004 1285.02 28.2591 Q1285.02 31.9859 1283.6 35.3482 Q1282.22 38.6699 1278.54 43.2069 Q1277.52 44.3817 1272.1 50.0125 Q1266.67 55.6027 1256.78 65.6895 Z" fill="#adb2b7" fill-rule="evenodd" fill-opacity="1" /><path clip-path="url(#clip170)" d="M 0 0 M1300.37 65.7705 L1300.37 89.8329 L1292.88 89.8329 L1292.88 27.2059 L1300.37 27.2059 L1300.37 34.0924 Q1302.72 30.0415 1306.28 28.0971 Q1309.89 26.1121 1314.87 26.1121 Q1323.14 26.1121 1328.28 32.6746 Q1333.47 39.2371 1333.47 49.9314 Q1333.47 60.6258 1328.28 67.1883 Q1323.14 73.7508 1314.87 73.7508 Q1309.89 73.7508 1306.28 71.8063 Q1302.72 69.8214 1300.37 65.7705 M1325.73 49.9314 Q1325.73 41.7081 1322.33 37.0496 Q1318.96 32.3505 1313.05 32.3505 Q1307.14 32.3505 1303.73 37.0496 Q1300.37 41.7081 1300.37 49.9314 Q1300.37 58.1548 1303.73 62.8538 Q1307.14 67.5124 1313.05 67.5124 Q1318.96 67.5124 1322.33 62.8538 Q1325.73 58.1548 1325.73 49.9314 Z" fill="#adb2b7" fill-rule="evenodd" fill-opacity="1" /><path clip-path="url(#clip170)" d="M 0 0 M1341.28 27.2059 L1348.74 27.2059 L1348.74 72.576 L1341.28 72.576 L1341.28 27.2059 M1341.28 9.54393 L1348.74 9.54393 L1348.74 18.9825 L1341.28 18.9825 L1341.28 9.54393 Z" fill="#adb2b7" fill-rule="evenodd" fill-opacity="1" /><polyline clip-path="url(#clip172)" style="stroke:#fe4365; stroke-width:4; stroke-opacity:1; fill:none" points="
  302.634,773.326 322.739,734.438 342.844,695.706 362.949,657.287 383.055,619.335 403.16,582.004 423.265,545.442 443.37,509.799 463.475,475.216 483.58,441.834 
  503.685,409.786 523.791,379.203 543.896,350.206 564.001,322.913 584.106,297.434 604.211,273.871 624.316,252.32 644.421,232.866 664.527,215.588 684.632,200.556 
  704.737,187.831 724.842,177.463 744.947,169.494 765.052,163.957 785.158,160.874 805.263,160.256 825.368,162.108 845.473,166.42 865.578,173.176 885.683,182.349 
  905.788,193.902 925.894,207.787 945.999,223.95 966.104,242.325 986.209,262.838 1006.31,285.407 1026.42,309.941 1046.52,336.34 1066.63,364.499 1086.73,394.304 
  1106.84,425.635 1126.95,458.366 1147.05,492.366 1167.16,527.497 1187.26,563.617 1207.37,600.583 1227.47,638.243 1247.58,676.448 1267.68,715.043 1287.79,753.872 
  1307.89,792.78 1328,831.609 1348.1,870.204 1368.21,908.409 1388.31,946.069 1408.42,983.035 1428.52,1019.16 1448.63,1054.29 1468.73,1088.29 1488.84,1121.02 
  1508.94,1152.35 1529.05,1182.15 1549.15,1210.31 1569.26,1236.71 1589.36,1261.24 1609.47,1283.81 1629.57,1304.33 1649.68,1322.7 1669.78,1338.86 1689.89,1352.75 
  1709.99,1364.3 1730.1,1373.48 1750.2,1380.23 1770.31,1384.54 1790.41,1386.4 1810.52,1385.78 1830.63,1382.69 1850.73,1377.16 1870.84,1369.19 1890.94,1358.82 
  1911.05,1346.1 1931.15,1331.06 1951.26,1313.79 1971.36,1294.33 1991.47,1272.78 2011.57,1249.22 2031.68,1223.74 2051.78,1196.45 2071.89,1167.45 2091.99,1136.87 
  2112.1,1104.82 2132.2,1071.44 2152.31,1036.85 2172.41,1001.21 2192.52,964.648 2212.62,927.317 2232.73,889.365 2252.83,850.946 2272.94,812.214 2293.04,773.326 
  
  "/>
<polyline clip-path="url(#clip172)" style="stroke:#eca25c; stroke-width:4; stroke-opacity:1; fill:none" points="
  302.634,773.326 322.739,793.712 342.844,814.016 362.949,834.157 383.055,854.052 403.16,873.623 423.265,892.789 443.37,911.475 463.475,929.604 483.58,947.104 
  503.685,963.904 523.791,979.937 543.896,995.137 564.001,1009.45 584.106,1022.8 604.211,1035.15 624.316,1046.45 644.421,1056.65 664.527,1065.71 684.632,1073.59 
  704.737,1080.26 724.842,1085.69 744.947,1089.87 765.052,1092.77 785.158,1094.39 805.263,1094.71 825.368,1093.74 845.473,1091.48 865.578,1087.94 885.683,1083.13 
  905.788,1077.08 925.894,1069.8 945.999,1061.32 966.104,1051.69 986.209,1040.94 1006.31,1029.11 1026.42,1016.25 1046.52,1002.41 1066.63,987.645 1086.73,972.02 
  1106.84,955.596 1126.95,938.437 1147.05,920.613 1167.16,902.197 1187.26,883.261 1207.37,863.883 1227.47,844.14 1247.58,824.112 1267.68,803.88 1287.79,783.524 
  1307.89,763.128 1328,742.772 1348.1,722.54 1368.21,702.512 1388.31,682.769 1408.42,663.391 1428.52,644.455 1448.63,626.039 1468.73,608.215 1488.84,591.056 
  1508.94,574.632 1529.05,559.007 1549.15,544.245 1569.26,530.406 1589.36,517.545 1609.47,505.714 1629.57,494.96 1649.68,485.327 1669.78,476.854 1689.89,469.575 
  1709.99,463.519 1730.1,458.71 1750.2,455.169 1770.31,452.908 1790.41,451.937 1810.52,452.261 1830.63,453.877 1850.73,456.78 1870.84,460.957 1890.94,466.393 
  1911.05,473.064 1931.15,480.944 1951.26,490.001 1971.36,500.199 1991.47,511.498 2011.57,523.85 2031.68,537.207 2051.78,551.514 2071.89,566.715 2091.99,582.748 
  2112.1,599.548 2132.2,617.048 2152.31,635.177 2172.41,653.863 2192.52,673.029 2212.62,692.6 2232.73,712.495 2252.83,732.635 2272.94,752.94 2293.04,773.326 
  
  "/>
<polyline clip-path="url(#clip172)" style="stroke:#3f9778; stroke-width:4; stroke-opacity:1; fill:none" points="
  302.634,773.326 322.739,734.538 342.844,695.907 362.949,657.587 383.055,619.733 403.16,582.497 423.265,546.03 443.37,510.479 463.475,475.985 483.58,442.689 
  503.685,410.725 523.791,380.22 543.896,351.298 564.001,324.076 584.106,298.662 604.211,275.16 624.316,253.664 644.421,234.26 664.527,217.027 684.632,202.034 
  704.737,189.342 724.842,179.001 744.947,171.053 765.052,165.53 785.158,162.454 805.263,161.839 825.368,163.685 845.473,167.986 865.578,174.725 885.683,183.874 
  905.788,195.397 925.894,209.247 945.999,225.368 966.104,243.696 986.209,264.156 1006.31,286.666 1026.42,311.136 1046.52,337.468 1066.63,365.554 1086.73,395.282 
  1106.84,426.532 1126.95,459.179 1147.05,493.091 1167.16,528.131 1187.26,564.159 1207.37,601.028 1227.47,638.592 1247.58,676.698 1267.68,715.193 1287.79,753.922 
  1307.89,792.73 1328,831.459 1348.1,869.954 1368.21,908.06 1388.31,945.624 1408.42,982.493 1428.52,1018.52 1448.63,1053.56 1468.73,1087.47 1488.84,1120.12 
  1508.94,1151.37 1529.05,1181.1 1549.15,1209.18 1569.26,1235.52 1589.36,1259.99 1609.47,1282.5 1629.57,1302.96 1649.68,1321.28 1669.78,1337.41 1689.89,1351.25 
  1709.99,1362.78 1730.1,1371.93 1750.2,1378.67 1770.31,1382.97 1790.41,1384.81 1810.52,1384.2 1830.63,1381.12 1850.73,1375.6 1870.84,1367.65 1890.94,1357.31 
  1911.05,1344.62 1931.15,1329.62 1951.26,1312.39 1971.36,1292.99 1991.47,1271.49 2011.57,1247.99 2031.68,1222.58 2051.78,1195.35 2071.89,1166.43 2091.99,1135.93 
  2112.1,1103.96 2132.2,1070.67 2152.31,1036.17 2172.41,1000.62 2192.52,964.155 2212.62,926.919 2232.73,889.065 2252.83,850.745 2272.94,812.114 2293.04,773.326 
  
  "/>
<polyline clip-path="url(#clip172)" style="stroke:#005d7f; stroke-width:4; stroke-opacity:1; fill:none" points="
  302.634,773.326 322.739,734.788 342.844,696.405 362.949,658.332 383.055,620.722 403.16,583.727 423.265,547.495 443.37,512.172 463.475,477.901 483.58,444.819 
  503.685,413.06 523.791,382.752 543.896,354.017 564.001,326.97 584.106,301.72 604.211,278.369 624.316,257.011 644.421,237.733 664.527,220.611 684.632,205.714 
  704.737,193.103 724.842,182.829 744.947,174.932 765.052,169.445 785.158,166.389 805.263,165.777 825.368,167.612 845.473,171.886 865.578,178.581 885.683,187.671 
  905.788,199.12 925.894,212.88 945.999,228.898 966.104,247.107 986.209,267.436 1006.31,289.801 1026.42,314.113 1046.52,340.275 1066.63,368.18 1086.73,397.717 
  1106.84,428.766 1126.95,461.203 1147.05,494.896 1167.16,529.71 1187.26,565.506 1207.37,602.138 1227.47,639.46 1247.58,677.32 1267.68,715.568 1287.79,754.047 
  1307.89,792.605 1328,831.084 1348.1,869.332 1368.21,907.192 1388.31,944.514 1408.42,981.146 1428.52,1016.94 1448.63,1051.76 1468.73,1085.45 1488.84,1117.89 
  1508.94,1148.93 1529.05,1178.47 1549.15,1206.38 1569.26,1232.54 1589.36,1256.85 1609.47,1279.22 1629.57,1299.54 1649.68,1317.75 1669.78,1333.77 1689.89,1347.53 
  1709.99,1358.98 1730.1,1368.07 1750.2,1374.77 1770.31,1379.04 1790.41,1380.87 1810.52,1380.26 1830.63,1377.21 1850.73,1371.72 1870.84,1363.82 1890.94,1353.55 
  1911.05,1340.94 1931.15,1326.04 1951.26,1308.92 1971.36,1289.64 1991.47,1268.28 2011.57,1244.93 2031.68,1219.68 2051.78,1192.64 2071.89,1163.9 2091.99,1133.59 
  2112.1,1101.83 2132.2,1068.75 2152.31,1034.48 2172.41,999.157 2192.52,962.925 2212.62,925.93 2232.73,888.32 2252.83,850.247 2272.94,811.864 2293.04,773.326 
  
  "/>
<polyline clip-path="url(#clip172)" style="stroke:#00a8ff; stroke-width:4; stroke-opacity:1; fill:none" points="
  302.634,773.326 322.739,799.702 342.844,825.972 362.949,852.03 383.055,877.772 403.16,903.092 423.265,927.89 443.37,952.066 463.475,975.522 483.58,998.164 
  503.685,1019.9 523.791,1040.64 543.896,1060.31 564.001,1078.82 584.106,1096.1 604.211,1112.09 624.316,1126.7 644.421,1139.9 664.527,1151.62 684.632,1161.81 
  704.737,1170.44 724.842,1177.48 744.947,1182.88 765.052,1186.64 785.158,1188.73 805.263,1189.15 825.368,1187.89 845.473,1184.97 865.578,1180.38 885.683,1174.16 
  905.788,1166.33 925.894,1156.91 945.999,1145.95 966.104,1133.48 986.209,1119.57 1006.31,1104.26 1026.42,1087.62 1046.52,1069.72 1066.63,1050.62 1086.73,1030.4 
  1106.84,1009.15 1126.95,986.951 1147.05,963.89 1167.16,940.062 1187.26,915.563 1207.37,890.491 1227.47,864.947 1247.58,839.035 1267.68,812.857 1287.79,786.521 
  1307.89,760.131 1328,733.795 1348.1,707.617 1368.21,681.705 1388.31,656.161 1408.42,631.089 1428.52,606.59 1448.63,582.762 1468.73,559.701 1488.84,537.501 
  1508.94,516.25 1529.05,496.035 1549.15,476.936 1569.26,459.03 1589.36,442.39 1609.47,427.083 1629.57,413.169 1649.68,400.706 1669.78,389.744 1689.89,380.326 
  1709.99,372.49 1730.1,366.268 1750.2,361.686 1770.31,358.761 1790.41,357.505 1810.52,357.924 1830.63,360.015 1850.73,363.771 1870.84,369.176 1890.94,376.208 
  1911.05,384.839 1931.15,395.035 1951.26,406.753 1971.36,419.948 1991.47,434.566 2011.57,450.548 2031.68,467.829 2051.78,486.341 2071.89,506.008 2091.99,526.752 
  2112.1,548.488 2132.2,571.13 2152.31,594.586 2172.41,618.762 2192.52,643.56 2212.62,668.88 2232.73,694.621 2252.83,720.68 2272.94,746.95 2293.04,773.326 
  
  "/>
<polyline clip-path="url(#clip172)" style="stroke:#dc3df1; stroke-width:4; stroke-opacity:1; fill:none" points="
  302.634,773.326 322.739,736.51 342.844,699.842 362.949,663.47 383.055,627.54 403.16,592.198 423.265,557.584 443.37,523.84 463.475,491.1 483.58,459.496 
  503.685,429.157 523.791,400.203 543.896,372.751 564.001,346.912 584.106,322.791 604.211,300.483 624.316,280.08 644.421,261.663 664.527,245.306 684.632,231.075 
  704.737,219.027 724.842,209.212 744.947,201.668 765.052,196.426 785.158,193.506 805.263,192.922 825.368,194.675 845.473,198.757 865.578,205.154 885.683,213.838 
  905.788,224.775 925.894,237.921 945.999,253.222 966.104,270.618 986.209,290.038 1006.31,311.405 1026.42,334.631 1046.52,359.623 1066.63,386.282 1086.73,414.499 
  1106.84,444.161 1126.95,475.148 1147.05,507.336 1167.16,540.595 1187.26,574.791 1207.37,609.787 1227.47,645.441 1247.58,681.61 1267.68,718.148 1287.79,754.909 
  1307.89,791.743 1328,828.504 1348.1,865.042 1368.21,901.211 1388.31,936.865 1408.42,971.861 1428.52,1006.06 1448.63,1039.32 1468.73,1071.5 1488.84,1102.49 
  1508.94,1132.15 1529.05,1160.37 1549.15,1187.03 1569.26,1212.02 1589.36,1235.25 1609.47,1256.61 1629.57,1276.03 1649.68,1293.43 1669.78,1308.73 1689.89,1321.88 
  1709.99,1332.81 1730.1,1341.5 1750.2,1347.89 1770.31,1351.98 1790.41,1353.73 1810.52,1353.15 1830.63,1350.23 1850.73,1344.98 1870.84,1337.44 1890.94,1327.62 
  1911.05,1315.58 1931.15,1301.35 1951.26,1284.99 1971.36,1266.57 1991.47,1246.17 2011.57,1223.86 2031.68,1199.74 2051.78,1173.9 2071.89,1146.45 2091.99,1117.5 
  2112.1,1087.16 2132.2,1055.55 2152.31,1022.81 2172.41,989.067 2192.52,954.454 2212.62,919.112 2232.73,883.182 2252.83,846.81 2272.94,810.142 2293.04,773.326 
  
  "/>
<polyline clip-path="url(#clip172)" style="stroke:#759500; stroke-width:4; stroke-opacity:1; fill:none" points="
  302.634,773.326 322.739,738.464 342.844,703.743 362.949,669.302 383.055,635.28 403.16,601.813 423.265,569.038 443.37,537.084 463.475,506.083 483.58,476.157 
  503.685,447.428 523.791,420.011 543.896,394.016 564.001,369.55 584.106,346.709 604.211,325.585 624.316,306.265 644.421,288.825 664.527,273.337 684.632,259.861 
  704.737,248.453 724.842,239.159 744.947,232.016 765.052,227.052 785.158,224.288 805.263,223.734 825.368,225.394 845.473,229.26 865.578,235.316 885.683,243.54 
  905.788,253.896 925.894,266.344 945.999,280.833 966.104,297.306 986.209,315.695 1006.31,335.927 1026.42,357.92 1046.52,381.586 1066.63,406.829 1086.73,433.548 
  1106.84,461.635 1126.95,490.978 1147.05,521.457 1167.16,552.95 1187.26,585.331 1207.37,618.469 1227.47,652.23 1247.58,686.479 1267.68,721.077 1287.79,755.886 
  1307.89,790.766 1328,825.575 1348.1,860.173 1368.21,894.422 1388.31,928.183 1408.42,961.321 1428.52,993.702 1448.63,1025.2 1468.73,1055.67 1488.84,1085.02 
  1508.94,1113.1 1529.05,1139.82 1549.15,1165.07 1569.26,1188.73 1589.36,1210.73 1609.47,1230.96 1629.57,1249.35 1649.68,1265.82 1669.78,1280.31 1689.89,1292.76 
  1709.99,1303.11 1730.1,1311.34 1750.2,1317.39 1770.31,1321.26 1790.41,1322.92 1810.52,1322.36 1830.63,1319.6 1850.73,1314.64 1870.84,1307.49 1890.94,1298.2 
  1911.05,1286.79 1931.15,1273.32 1951.26,1257.83 1971.36,1240.39 1991.47,1221.07 2011.57,1199.94 2031.68,1177.1 2051.78,1152.64 2071.89,1126.64 2091.99,1099.22 
  2112.1,1070.5 2132.2,1040.57 2152.31,1009.57 2172.41,977.614 2192.52,944.839 2212.62,911.372 2232.73,877.35 2252.83,842.909 2272.94,808.188 2293.04,773.326 
  
  "/>
<path clip-path="url(#clip170)" d="
M1876.73 650.636 L2282.43 650.636 L2282.43 166.796 L1876.73 166.796  Z
  " fill="#282c34" fill-rule="evenodd" fill-opacity="1"/>
<polyline clip-path="url(#clip170)" style="stroke:#9eb1be; stroke-width:4; stroke-opacity:1; fill:none" points="
  1876.73,650.636 2282.43,650.636 2282.43,166.796 1876.73,166.796 1876.73,650.636 
  "/>
<polyline clip-path="url(#clip170)" style="stroke:#fe4365; stroke-width:4; stroke-opacity:1; fill:none" points="
  1900.17,227.276 2040.83,227.276 
  "/>
<path clip-path="url(#clip170)" d="M 0 0 M2071.68 211.269 L2071.68 218.63 L2080.45 218.63 L2080.45 221.94 L2071.68 221.94 L2071.68 236.014 Q2071.68 239.185 2072.53 240.088 Q2073.41 240.991 2076.08 240.991 L2080.45 240.991 L2080.45 244.556 L2076.08 244.556 Q2071.15 244.556 2069.27 242.727 Q2067.4 240.875 2067.4 236.014 L2067.4 221.94 L2064.27 221.94 L2064.27 218.63 L2067.4 218.63 L2067.4 211.269 L2071.68 211.269 Z" fill="#adb2b7" fill-rule="evenodd" fill-opacity="1" /><path clip-path="url(#clip170)" d="M 0 0 M2100.54 223.028 L2130.22 223.028 L2130.22 226.917 L2100.54 226.917 L2100.54 223.028 M2100.54 232.472 L2130.22 232.472 L2130.22 236.408 L2100.54 236.408 L2100.54 232.472 Z" fill="#adb2b7" fill-rule="evenodd" fill-opacity="1" /><path clip-path="url(#clip170)" d="M 0 0 M2160.36 213.074 Q2156.75 213.074 2154.92 216.639 Q2153.11 220.181 2153.11 227.31 Q2153.11 234.417 2154.92 237.982 Q2156.75 241.523 2160.36 241.523 Q2163.99 241.523 2165.8 237.982 Q2167.63 234.417 2167.63 227.31 Q2167.63 220.181 2165.8 216.639 Q2163.99 213.074 2160.36 213.074 M2160.36 209.371 Q2166.17 209.371 2169.22 213.977 Q2172.3 218.56 2172.3 227.31 Q2172.3 236.037 2169.22 240.644 Q2166.17 245.227 2160.36 245.227 Q2154.55 245.227 2151.47 240.644 Q2148.41 236.037 2148.41 227.31 Q2148.41 218.56 2151.47 213.977 Q2154.55 209.371 2160.36 209.371 Z" fill="#adb2b7" fill-rule="evenodd" fill-opacity="1" /><path clip-path="url(#clip170)" d="M 0 0 M2177.37 238.676 L2182.26 238.676 L2182.26 244.556 L2177.37 244.556 L2177.37 238.676 Z" fill="#adb2b7" fill-rule="evenodd" fill-opacity="1" /><path clip-path="url(#clip170)" d="M 0 0 M2197.33 213.074 Q2193.71 213.074 2191.89 216.639 Q2190.08 220.181 2190.08 227.31 Q2190.08 234.417 2191.89 237.982 Q2193.71 241.523 2197.33 241.523 Q2200.96 241.523 2202.77 237.982 Q2204.59 234.417 2204.59 227.31 Q2204.59 220.181 2202.77 216.639 Q2200.96 213.074 2197.33 213.074 M2197.33 209.371 Q2203.14 209.371 2206.19 213.977 Q2209.27 218.56 2209.27 227.31 Q2209.27 236.037 2206.19 240.644 Q2203.14 245.227 2197.33 245.227 Q2191.52 245.227 2188.44 240.644 Q2185.38 236.037 2185.38 227.31 Q2185.38 218.56 2188.44 213.977 Q2191.52 209.371 2197.33 209.371 Z" fill="#adb2b7" fill-rule="evenodd" fill-opacity="1" /><polyline clip-path="url(#clip170)" style="stroke:#eca25c; stroke-width:4; stroke-opacity:1; fill:none" points="
  1900.17,287.756 2040.83,287.756 
  "/>
<path clip-path="url(#clip170)" d="M 0 0 M2071.68 271.749 L2071.68 279.11 L2080.45 279.11 L2080.45 282.42 L2071.68 282.42 L2071.68 296.494 Q2071.68 299.665 2072.53 300.568 Q2073.41 301.471 2076.08 301.471 L2080.45 301.471 L2080.45 305.036 L2076.08 305.036 Q2071.15 305.036 2069.27 303.207 Q2067.4 301.355 2067.4 296.494 L2067.4 282.42 L2064.27 282.42 L2064.27 279.11 L2067.4 279.11 L2067.4 271.749 L2071.68 271.749 Z" fill="#adb2b7" fill-rule="evenodd" fill-opacity="1" /><path clip-path="url(#clip170)" d="M 0 0 M2100.54 283.508 L2130.22 283.508 L2130.22 287.397 L2100.54 287.397 L2100.54 283.508 M2100.54 292.952 L2130.22 292.952 L2130.22 296.888 L2100.54 296.888 L2100.54 292.952 Z" fill="#adb2b7" fill-rule="evenodd" fill-opacity="1" /><path clip-path="url(#clip170)" d="M 0 0 M2160.36 273.554 Q2156.75 273.554 2154.92 277.119 Q2153.11 280.661 2153.11 287.79 Q2153.11 294.897 2154.92 298.462 Q2156.75 302.003 2160.36 302.003 Q2163.99 302.003 2165.8 298.462 Q2167.63 294.897 2167.63 287.79 Q2167.63 280.661 2165.8 277.119 Q2163.99 273.554 2160.36 273.554 M2160.36 269.851 Q2166.17 269.851 2169.22 274.457 Q2172.3 279.04 2172.3 287.79 Q2172.3 296.517 2169.22 301.124 Q2166.17 305.707 2160.36 305.707 Q2154.55 305.707 2151.47 301.124 Q2148.41 296.517 2148.41 287.79 Q2148.41 279.04 2151.47 274.457 Q2154.55 269.851 2160.36 269.851 Z" fill="#adb2b7" fill-rule="evenodd" fill-opacity="1" /><path clip-path="url(#clip170)" d="M 0 0 M2177.37 299.156 L2182.26 299.156 L2182.26 305.036 L2177.37 305.036 L2177.37 299.156 Z" fill="#adb2b7" fill-rule="evenodd" fill-opacity="1" /><path clip-path="url(#clip170)" d="M 0 0 M2201.49 286.402 Q2204.85 287.119 2206.72 289.388 Q2208.62 291.656 2208.62 294.989 Q2208.62 300.105 2205.1 302.906 Q2201.58 305.707 2195.1 305.707 Q2192.93 305.707 2190.61 305.267 Q2188.32 304.851 2185.87 303.994 L2185.87 299.48 Q2187.81 300.614 2190.13 301.193 Q2192.44 301.772 2194.96 301.772 Q2199.36 301.772 2201.65 300.036 Q2203.97 298.3 2203.97 294.989 Q2203.97 291.934 2201.82 290.221 Q2199.69 288.485 2195.87 288.485 L2191.84 288.485 L2191.84 284.642 L2196.05 284.642 Q2199.5 284.642 2201.33 283.277 Q2203.16 281.888 2203.16 279.295 Q2203.16 276.633 2201.26 275.221 Q2199.39 273.786 2195.87 273.786 Q2193.95 273.786 2191.75 274.203 Q2189.55 274.619 2186.91 275.499 L2186.91 271.332 Q2189.57 270.591 2191.89 270.221 Q2194.22 269.851 2196.28 269.851 Q2201.61 269.851 2204.71 272.281 Q2207.81 274.689 2207.81 278.809 Q2207.81 281.679 2206.17 283.67 Q2204.52 285.638 2201.49 286.402 Z" fill="#adb2b7" fill-rule="evenodd" fill-opacity="1" /><path clip-path="url(#clip170)" d="M 0 0 M2227.86 286.402 Q2231.21 287.119 2233.09 289.388 Q2234.99 291.656 2234.99 294.989 Q2234.99 300.105 2231.47 302.906 Q2227.95 305.707 2221.47 305.707 Q2219.29 305.707 2216.98 305.267 Q2214.69 304.851 2212.23 303.994 L2212.23 299.48 Q2214.18 300.614 2216.49 301.193 Q2218.81 301.772 2221.33 301.772 Q2225.73 301.772 2228.02 300.036 Q2230.33 298.3 2230.33 294.989 Q2230.33 291.934 2228.18 290.221 Q2226.05 288.485 2222.23 288.485 L2218.21 288.485 L2218.21 284.642 L2222.42 284.642 Q2225.87 284.642 2227.7 283.277 Q2229.52 281.888 2229.52 279.295 Q2229.52 276.633 2227.63 275.221 Q2225.75 273.786 2222.23 273.786 Q2220.31 273.786 2218.11 274.203 Q2215.91 274.619 2213.27 275.499 L2213.27 271.332 Q2215.94 270.591 2218.25 270.221 Q2220.59 269.851 2222.65 269.851 Q2227.97 269.851 2231.08 272.281 Q2234.18 274.689 2234.18 278.809 Q2234.18 281.679 2232.53 283.67 Q2230.89 285.638 2227.86 286.402 Z" fill="#adb2b7" fill-rule="evenodd" fill-opacity="1" /><polyline clip-path="url(#clip170)" style="stroke:#3f9778; stroke-width:4; stroke-opacity:1; fill:none" points="
  1900.17,348.236 2040.83,348.236 
  "/>
<path clip-path="url(#clip170)" d="M 0 0 M2071.68 332.229 L2071.68 339.59 L2080.45 339.59 L2080.45 342.9 L2071.68 342.9 L2071.68 356.974 Q2071.68 360.145 2072.53 361.048 Q2073.41 361.951 2076.08 361.951 L2080.45 361.951 L2080.45 365.516 L2076.08 365.516 Q2071.15 365.516 2069.27 363.687 Q2067.4 361.835 2067.4 356.974 L2067.4 342.9 L2064.27 342.9 L2064.27 339.59 L2067.4 339.59 L2067.4 332.229 L2071.68 332.229 Z" fill="#adb2b7" fill-rule="evenodd" fill-opacity="1" /><path clip-path="url(#clip170)" d="M 0 0 M2100.54 343.988 L2130.22 343.988 L2130.22 347.877 L2100.54 347.877 L2100.54 343.988 M2100.54 353.432 L2130.22 353.432 L2130.22 357.368 L2100.54 357.368 L2100.54 353.432 Z" fill="#adb2b7" fill-rule="evenodd" fill-opacity="1" /><path clip-path="url(#clip170)" d="M 0 0 M2160.36 334.034 Q2156.75 334.034 2154.92 337.599 Q2153.11 341.141 2153.11 348.27 Q2153.11 355.377 2154.92 358.942 Q2156.75 362.483 2160.36 362.483 Q2163.99 362.483 2165.8 358.942 Q2167.63 355.377 2167.63 348.27 Q2167.63 341.141 2165.8 337.599 Q2163.99 334.034 2160.36 334.034 M2160.36 330.331 Q2166.17 330.331 2169.22 334.937 Q2172.3 339.52 2172.3 348.27 Q2172.3 356.997 2169.22 361.604 Q2166.17 366.187 2160.36 366.187 Q2154.55 366.187 2151.47 361.604 Q2148.41 356.997 2148.41 348.27 Q2148.41 339.52 2151.47 334.937 Q2154.55 330.331 2160.36 330.331 Z" fill="#adb2b7" fill-rule="evenodd" fill-opacity="1" /><path clip-path="url(#clip170)" d="M 0 0 M2177.37 359.636 L2182.26 359.636 L2182.26 365.516 L2177.37 365.516 L2177.37 359.636 Z" fill="#adb2b7" fill-rule="evenodd" fill-opacity="1" /><path clip-path="url(#clip170)" d="M 0 0 M2197.9 346.372 Q2194.76 346.372 2192.9 348.525 Q2191.08 350.678 2191.08 354.428 Q2191.08 358.155 2192.9 360.331 Q2194.76 362.483 2197.9 362.483 Q2201.05 362.483 2202.88 360.331 Q2204.73 358.155 2204.73 354.428 Q2204.73 350.678 2202.88 348.525 Q2201.05 346.372 2197.9 346.372 M2207.19 331.72 L2207.19 335.979 Q2205.43 335.146 2203.62 334.706 Q2201.84 334.266 2200.08 334.266 Q2195.45 334.266 2193 337.391 Q2190.57 340.516 2190.22 346.835 Q2191.58 344.821 2193.64 343.757 Q2195.71 342.669 2198.18 342.669 Q2203.39 342.669 2206.4 345.84 Q2209.43 348.988 2209.43 354.428 Q2209.43 359.752 2206.28 362.969 Q2203.14 366.187 2197.9 366.187 Q2191.91 366.187 2188.74 361.604 Q2185.57 356.997 2185.57 348.27 Q2185.57 340.076 2189.46 335.215 Q2193.34 330.331 2199.89 330.331 Q2201.65 330.331 2203.44 330.678 Q2205.24 331.025 2207.19 331.72 Z" fill="#adb2b7" fill-rule="evenodd" fill-opacity="1" /><path clip-path="url(#clip170)" d="M 0 0 M2213.32 330.956 L2235.54 330.956 L2235.54 332.946 L2223 365.516 L2218.11 365.516 L2229.92 334.891 L2213.32 334.891 L2213.32 330.956 Z" fill="#adb2b7" fill-rule="evenodd" fill-opacity="1" /><polyline clip-path="url(#clip170)" style="stroke:#005d7f; stroke-width:4; stroke-opacity:1; fill:none" points="
  1900.17,408.716 2040.83,408.716 
  "/>
<path clip-path="url(#clip170)" d="M 0 0 M2071.68 392.709 L2071.68 400.07 L2080.45 400.07 L2080.45 403.38 L2071.68 403.38 L2071.68 417.454 Q2071.68 420.625 2072.53 421.528 Q2073.41 422.431 2076.08 422.431 L2080.45 422.431 L2080.45 425.996 L2076.08 425.996 Q2071.15 425.996 2069.27 424.167 Q2067.4 422.315 2067.4 417.454 L2067.4 403.38 L2064.27 403.38 L2064.27 400.07 L2067.4 400.07 L2067.4 392.709 L2071.68 392.709 Z" fill="#adb2b7" fill-rule="evenodd" fill-opacity="1" /><path clip-path="url(#clip170)" d="M 0 0 M2100.54 404.468 L2130.22 404.468 L2130.22 408.357 L2100.54 408.357 L2100.54 404.468 M2100.54 413.912 L2130.22 413.912 L2130.22 417.848 L2100.54 417.848 L2100.54 413.912 Z" fill="#adb2b7" fill-rule="evenodd" fill-opacity="1" /><path clip-path="url(#clip170)" d="M 0 0 M2151.17 422.061 L2158.81 422.061 L2158.81 395.695 L2150.5 397.362 L2150.5 393.102 L2158.76 391.436 L2163.44 391.436 L2163.44 422.061 L2171.08 422.061 L2171.08 425.996 L2151.17 425.996 L2151.17 422.061 Z" fill="#adb2b7" fill-rule="evenodd" fill-opacity="1" /><path clip-path="url(#clip170)" d="M 0 0 M2176.15 420.116 L2181.03 420.116 L2181.03 425.996 L2176.15 425.996 L2176.15 420.116 Z" fill="#adb2b7" fill-rule="evenodd" fill-opacity="1" /><path clip-path="url(#clip170)" d="M 0 0 M2196.1 394.514 Q2192.49 394.514 2190.66 398.079 Q2188.85 401.621 2188.85 408.75 Q2188.85 415.857 2190.66 419.422 Q2192.49 422.963 2196.1 422.963 Q2199.73 422.963 2201.54 419.422 Q2203.37 415.857 2203.37 408.75 Q2203.37 401.621 2201.54 398.079 Q2199.73 394.514 2196.1 394.514 M2196.1 390.811 Q2201.91 390.811 2204.96 395.417 Q2208.04 400 2208.04 408.75 Q2208.04 417.477 2204.96 422.084 Q2201.91 426.667 2196.1 426.667 Q2190.29 426.667 2187.21 422.084 Q2184.15 417.477 2184.15 408.75 Q2184.15 400 2187.21 395.417 Q2190.29 390.811 2196.1 390.811 Z" fill="#adb2b7" fill-rule="evenodd" fill-opacity="1" /><polyline clip-path="url(#clip170)" style="stroke:#00a8ff; stroke-width:4; stroke-opacity:1; fill:none" points="
  1900.17,469.196 2040.83,469.196 
  "/>
<path clip-path="url(#clip170)" d="M 0 0 M2071.68 453.189 L2071.68 460.55 L2080.45 460.55 L2080.45 463.86 L2071.68 463.86 L2071.68 477.934 Q2071.68 481.105 2072.53 482.008 Q2073.41 482.911 2076.08 482.911 L2080.45 482.911 L2080.45 486.476 L2076.08 486.476 Q2071.15 486.476 2069.27 484.647 Q2067.4 482.795 2067.4 477.934 L2067.4 463.86 L2064.27 463.86 L2064.27 460.55 L2067.4 460.55 L2067.4 453.189 L2071.68 453.189 Z" fill="#adb2b7" fill-rule="evenodd" fill-opacity="1" /><path clip-path="url(#clip170)" d="M 0 0 M2100.54 464.948 L2130.22 464.948 L2130.22 468.837 L2100.54 468.837 L2100.54 464.948 M2100.54 474.392 L2130.22 474.392 L2130.22 478.328 L2100.54 478.328 L2100.54 474.392 Z" fill="#adb2b7" fill-rule="evenodd" fill-opacity="1" /><path clip-path="url(#clip170)" d="M 0 0 M2151.17 482.541 L2158.81 482.541 L2158.81 456.175 L2150.5 457.842 L2150.5 453.582 L2158.76 451.916 L2163.44 451.916 L2163.44 482.541 L2171.08 482.541 L2171.08 486.476 L2151.17 486.476 L2151.17 482.541 Z" fill="#adb2b7" fill-rule="evenodd" fill-opacity="1" /><path clip-path="url(#clip170)" d="M 0 0 M2176.15 480.596 L2181.03 480.596 L2181.03 486.476 L2176.15 486.476 L2176.15 480.596 Z" fill="#adb2b7" fill-rule="evenodd" fill-opacity="1" /><path clip-path="url(#clip170)" d="M 0 0 M2200.27 467.842 Q2203.62 468.559 2205.5 470.828 Q2207.39 473.096 2207.39 476.429 Q2207.39 481.545 2203.88 484.346 Q2200.36 487.147 2193.88 487.147 Q2191.7 487.147 2189.39 486.707 Q2187.09 486.291 2184.64 485.434 L2184.64 480.92 Q2186.58 482.054 2188.9 482.633 Q2191.21 483.212 2193.74 483.212 Q2198.14 483.212 2200.43 481.476 Q2202.74 479.74 2202.74 476.429 Q2202.74 473.374 2200.59 471.661 Q2198.46 469.925 2194.64 469.925 L2190.61 469.925 L2190.61 466.082 L2194.83 466.082 Q2198.27 466.082 2200.1 464.717 Q2201.93 463.328 2201.93 460.735 Q2201.93 458.073 2200.03 456.661 Q2198.16 455.226 2194.64 455.226 Q2192.72 455.226 2190.52 455.643 Q2188.32 456.059 2185.68 456.939 L2185.68 452.772 Q2188.34 452.031 2190.66 451.661 Q2193 451.291 2195.06 451.291 Q2200.38 451.291 2203.48 453.721 Q2206.58 456.129 2206.58 460.249 Q2206.58 463.119 2204.94 465.11 Q2203.3 467.078 2200.27 467.842 Z" fill="#adb2b7" fill-rule="evenodd" fill-opacity="1" /><path clip-path="url(#clip170)" d="M 0 0 M2226.63 467.842 Q2229.99 468.559 2231.86 470.828 Q2233.76 473.096 2233.76 476.429 Q2233.76 481.545 2230.24 484.346 Q2226.72 487.147 2220.24 487.147 Q2218.07 487.147 2215.75 486.707 Q2213.46 486.291 2211.01 485.434 L2211.01 480.92 Q2212.95 482.054 2215.27 482.633 Q2217.58 483.212 2220.1 483.212 Q2224.5 483.212 2226.79 481.476 Q2229.11 479.74 2229.11 476.429 Q2229.11 473.374 2226.95 471.661 Q2224.83 469.925 2221.01 469.925 L2216.98 469.925 L2216.98 466.082 L2221.19 466.082 Q2224.64 466.082 2226.47 464.717 Q2228.3 463.328 2228.3 460.735 Q2228.3 458.073 2226.4 456.661 Q2224.52 455.226 2221.01 455.226 Q2219.08 455.226 2216.89 455.643 Q2214.69 456.059 2212.05 456.939 L2212.05 452.772 Q2214.71 452.031 2217.02 451.661 Q2219.36 451.291 2221.42 451.291 Q2226.75 451.291 2229.85 453.721 Q2232.95 456.129 2232.95 460.249 Q2232.95 463.119 2231.31 465.11 Q2229.66 467.078 2226.63 467.842 Z" fill="#adb2b7" fill-rule="evenodd" fill-opacity="1" /><polyline clip-path="url(#clip170)" style="stroke:#dc3df1; stroke-width:4; stroke-opacity:1; fill:none" points="
  1900.17,529.676 2040.83,529.676 
  "/>
<path clip-path="url(#clip170)" d="M 0 0 M2071.68 513.669 L2071.68 521.03 L2080.45 521.03 L2080.45 524.34 L2071.68 524.34 L2071.68 538.414 Q2071.68 541.585 2072.53 542.488 Q2073.41 543.391 2076.08 543.391 L2080.45 543.391 L2080.45 546.956 L2076.08 546.956 Q2071.15 546.956 2069.27 545.127 Q2067.4 543.275 2067.4 538.414 L2067.4 524.34 L2064.27 524.34 L2064.27 521.03 L2067.4 521.03 L2067.4 513.669 L2071.68 513.669 Z" fill="#adb2b7" fill-rule="evenodd" fill-opacity="1" /><path clip-path="url(#clip170)" d="M 0 0 M2100.54 525.428 L2130.22 525.428 L2130.22 529.317 L2100.54 529.317 L2100.54 525.428 M2100.54 534.872 L2130.22 534.872 L2130.22 538.808 L2100.54 538.808 L2100.54 534.872 Z" fill="#adb2b7" fill-rule="evenodd" fill-opacity="1" /><path clip-path="url(#clip170)" d="M 0 0 M2151.17 543.021 L2158.81 543.021 L2158.81 516.655 L2150.5 518.322 L2150.5 514.062 L2158.76 512.396 L2163.44 512.396 L2163.44 543.021 L2171.08 543.021 L2171.08 546.956 L2151.17 546.956 L2151.17 543.021 Z" fill="#adb2b7" fill-rule="evenodd" fill-opacity="1" /><path clip-path="url(#clip170)" d="M 0 0 M2176.15 541.076 L2181.03 541.076 L2181.03 546.956 L2176.15 546.956 L2176.15 541.076 Z" fill="#adb2b7" fill-rule="evenodd" fill-opacity="1" /><path clip-path="url(#clip170)" d="M 0 0 M2196.68 527.812 Q2193.53 527.812 2191.68 529.965 Q2189.85 532.118 2189.85 535.868 Q2189.85 539.595 2191.68 541.771 Q2193.53 543.923 2196.68 543.923 Q2199.83 543.923 2201.65 541.771 Q2203.51 539.595 2203.51 535.868 Q2203.51 532.118 2201.65 529.965 Q2199.83 527.812 2196.68 527.812 M2205.96 513.16 L2205.96 517.419 Q2204.2 516.586 2202.39 516.146 Q2200.61 515.706 2198.85 515.706 Q2194.22 515.706 2191.77 518.831 Q2189.34 521.956 2188.99 528.275 Q2190.36 526.261 2192.42 525.197 Q2194.48 524.109 2196.96 524.109 Q2202.16 524.109 2205.17 527.28 Q2208.21 530.428 2208.21 535.868 Q2208.21 541.192 2205.06 544.409 Q2201.91 547.627 2196.68 547.627 Q2190.68 547.627 2187.51 543.044 Q2184.34 538.437 2184.34 529.71 Q2184.34 521.516 2188.23 516.655 Q2192.12 511.771 2198.67 511.771 Q2200.43 511.771 2202.21 512.118 Q2204.02 512.465 2205.96 513.16 Z" fill="#adb2b7" fill-rule="evenodd" fill-opacity="1" /><path clip-path="url(#clip170)" d="M 0 0 M2212.09 512.396 L2234.32 512.396 L2234.32 514.386 L2221.77 546.956 L2216.89 546.956 L2228.69 516.331 L2212.09 516.331 L2212.09 512.396 Z" fill="#adb2b7" fill-rule="evenodd" fill-opacity="1" /><polyline clip-path="url(#clip170)" style="stroke:#759500; stroke-width:4; stroke-opacity:1; fill:none" points="
  1900.17,590.156 2040.83,590.156 
  "/>
<path clip-path="url(#clip170)" d="M 0 0 M2071.68 574.149 L2071.68 581.51 L2080.45 581.51 L2080.45 584.82 L2071.68 584.82 L2071.68 598.894 Q2071.68 602.065 2072.53 602.968 Q2073.41 603.871 2076.08 603.871 L2080.45 603.871 L2080.45 607.436 L2076.08 607.436 Q2071.15 607.436 2069.27 605.607 Q2067.4 603.755 2067.4 598.894 L2067.4 584.82 L2064.27 584.82 L2064.27 581.51 L2067.4 581.51 L2067.4 574.149 L2071.68 574.149 Z" fill="#adb2b7" fill-rule="evenodd" fill-opacity="1" /><path clip-path="url(#clip170)" d="M 0 0 M2100.54 585.908 L2130.22 585.908 L2130.22 589.797 L2100.54 589.797 L2100.54 585.908 M2100.54 595.352 L2130.22 595.352 L2130.22 599.288 L2100.54 599.288 L2100.54 595.352 Z" fill="#adb2b7" fill-rule="evenodd" fill-opacity="1" /><path clip-path="url(#clip170)" d="M 0 0 M2154.39 603.501 L2170.71 603.501 L2170.71 607.436 L2148.76 607.436 L2148.76 603.501 Q2151.42 600.746 2156.01 596.116 Q2160.61 591.464 2161.79 590.121 Q2164.04 587.598 2164.92 585.862 Q2165.82 584.103 2165.82 582.413 Q2165.82 579.658 2163.88 577.922 Q2161.96 576.186 2158.85 576.186 Q2156.65 576.186 2154.2 576.95 Q2151.77 577.714 2148.99 579.265 L2148.99 574.542 Q2151.82 573.408 2154.27 572.829 Q2156.72 572.251 2158.76 572.251 Q2164.13 572.251 2167.33 574.936 Q2170.52 577.621 2170.52 582.112 Q2170.52 584.241 2169.71 586.163 Q2168.92 588.061 2166.82 590.653 Q2166.24 591.325 2163.14 594.542 Q2160.03 597.737 2154.39 603.501 Z" fill="#adb2b7" fill-rule="evenodd" fill-opacity="1" /><path clip-path="url(#clip170)" d="M 0 0 M2175.77 601.556 L2180.66 601.556 L2180.66 607.436 L2175.77 607.436 L2175.77 601.556 Z" fill="#adb2b7" fill-rule="evenodd" fill-opacity="1" /><path clip-path="url(#clip170)" d="M 0 0 M2195.73 575.954 Q2192.12 575.954 2190.29 579.519 Q2188.48 583.061 2188.48 590.19 Q2188.48 597.297 2190.29 600.862 Q2192.12 604.403 2195.73 604.403 Q2199.36 604.403 2201.17 600.862 Q2203 597.297 2203 590.19 Q2203 583.061 2201.17 579.519 Q2199.36 575.954 2195.73 575.954 M2195.73 572.251 Q2201.54 572.251 2204.59 576.857 Q2207.67 581.44 2207.67 590.19 Q2207.67 598.917 2204.59 603.524 Q2201.54 608.107 2195.73 608.107 Q2189.92 608.107 2186.84 603.524 Q2183.78 598.917 2183.78 590.19 Q2183.78 581.44 2186.84 576.857 Q2189.92 572.251 2195.73 572.251 Z" fill="#adb2b7" fill-rule="evenodd" fill-opacity="1" /></svg>
