<?xml version="1.0" encoding="utf-8"?>
<svg xmlns="http://www.w3.org/2000/svg" xmlns:xlink="http://www.w3.org/1999/xlink" width="600" height="400" viewBox="0 0 2400 1600">
<defs>
  <clipPath id="clip200">
    <rect x="0" y="0" width="2400" height="1600"/>
  </clipPath>
</defs>
<path clip-path="url(#clip200)" d="
M0 1600 L2400 1600 L2400 0 L0 0  Z
  " fill="#282c34" fill-rule="evenodd" fill-opacity="1"/>
<defs>
  <clipPath id="clip201">
    <rect x="480" y="0" width="1681" height="1600"/>
  </clipPath>
</defs>
<path clip-path="url(#clip200)" d="
M242.922 1423.18 L2352.76 1423.18 L2352.76 123.472 L242.922 123.472  Z
  " fill="#21252b" fill-rule="evenodd" fill-opacity="1"/>
<defs>
  <clipPath id="clip202">
    <rect x="242" y="123" width="2111" height="1301"/>
  </clipPath>
</defs>
<polyline clip-path="url(#clip202)" style="stroke:#adb2b7; stroke-width:2; stroke-opacity:0.1; fill:none" points="
  302.634,1423.18 302.634,123.472 
  "/>
<polyline clip-path="url(#clip202)" style="stroke:#adb2b7; stroke-width:2; stroke-opacity:0.1; fill:none" points="
  800.236,1423.18 800.236,123.472 
  "/>
<polyline clip-path="url(#clip202)" style="stroke:#adb2b7; stroke-width:2; stroke-opacity:0.1; fill:none" points="
  1297.84,1423.18 1297.84,123.472 
  "/>
<polyline clip-path="url(#clip202)" style="stroke:#adb2b7; stroke-width:2; stroke-opacity:0.1; fill:none" points="
  1795.44,1423.18 1795.44,123.472 
  "/>
<polyline clip-path="url(#clip202)" style="stroke:#adb2b7; stroke-width:2; stroke-opacity:0.1; fill:none" points="
  2293.04,1423.18 2293.04,123.472 
  "/>
<polyline clip-path="url(#clip200)" style="stroke:#adb2b7; stroke-width:4; stroke-opacity:1; fill:none" points="
  242.922,1423.18 2352.76,1423.18 
  "/>
<polyline clip-path="url(#clip200)" style="stroke:#adb2b7; stroke-width:4; stroke-opacity:1; fill:none" points="
  302.634,1423.18 302.634,1407.58 
  "/>
<polyline clip-path="url(#clip200)" style="stroke:#adb2b7; stroke-width:4; stroke-opacity:1; fill:none" points="
  800.236,1423.18 800.236,1407.58 
  "/>
<polyline clip-path="url(#clip200)" style="stroke:#adb2b7; stroke-width:4; stroke-opacity:1; fill:none" points="
  1297.84,1423.18 1297.84,1407.58 
  "/>
<polyline clip-path="url(#clip200)" style="stroke:#adb2b7; stroke-width:4; stroke-opacity:1; fill:none" points="
  1795.44,1423.18 1795.44,1407.58 
  "/>
<polyline clip-path="url(#clip200)" style="stroke:#adb2b7; stroke-width:4; stroke-opacity:1; fill:none" points="
  2293.04,1423.18 2293.04,1407.58 
  "/>
<path clip-path="url(#clip200)" d="M 0 0 M270.643 1452.37 Q267.032 1452.37 265.204 1455.94 Q263.398 1459.48 263.398 1466.61 Q263.398 1473.71 265.204 1477.28 Q267.032 1480.82 270.643 1480.82 Q274.278 1480.82 276.083 1477.28 Q277.912 1473.71 277.912 1466.61 Q277.912 1459.48 276.083 1455.94 Q274.278 1452.37 270.643 1452.37 M270.643 1448.67 Q276.454 1448.67 279.509 1453.27 Q282.588 1457.86 282.588 1466.61 Q282.588 1475.33 279.509 1479.94 Q276.454 1484.52 270.643 1484.52 Q264.833 1484.52 261.755 1479.94 Q258.699 1475.33 258.699 1466.61 Q258.699 1457.86 261.755 1453.27 Q264.833 1448.67 270.643 1448.67 Z" fill="#9eb1be" fill-rule="evenodd" fill-opacity="1" /><path clip-path="url(#clip200)" d="M 0 0 M287.657 1477.97 L292.541 1477.97 L292.541 1483.85 L287.657 1483.85 L287.657 1477.97 Z" fill="#9eb1be" fill-rule="evenodd" fill-opacity="1" /><path clip-path="url(#clip200)" d="M 0 0 M307.611 1452.37 Q304 1452.37 302.171 1455.94 Q300.365 1459.48 300.365 1466.61 Q300.365 1473.71 302.171 1477.28 Q304 1480.82 307.611 1480.82 Q311.245 1480.82 313.051 1477.28 Q314.879 1473.71 314.879 1466.61 Q314.879 1459.48 313.051 1455.94 Q311.245 1452.37 307.611 1452.37 M307.611 1448.67 Q313.421 1448.67 316.477 1453.27 Q319.555 1457.86 319.555 1466.61 Q319.555 1475.33 316.477 1479.94 Q313.421 1484.52 307.611 1484.52 Q301.801 1484.52 298.722 1479.94 Q295.666 1475.33 295.666 1466.61 Q295.666 1457.86 298.722 1453.27 Q301.801 1448.67 307.611 1448.67 Z" fill="#9eb1be" fill-rule="evenodd" fill-opacity="1" /><path clip-path="url(#clip200)" d="M 0 0 M334.625 1452.37 Q331.013 1452.37 329.185 1455.94 Q327.379 1459.48 327.379 1466.61 Q327.379 1473.71 329.185 1477.28 Q331.013 1480.82 334.625 1480.82 Q338.259 1480.82 340.064 1477.28 Q341.893 1473.71 341.893 1466.61 Q341.893 1459.48 340.064 1455.94 Q338.259 1452.37 334.625 1452.37 M334.625 1448.67 Q340.435 1448.67 343.49 1453.27 Q346.569 1457.86 346.569 1466.61 Q346.569 1475.33 343.49 1479.94 Q340.435 1484.52 334.625 1484.52 Q328.814 1484.52 325.736 1479.94 Q322.68 1475.33 322.68 1466.61 Q322.68 1457.86 325.736 1453.27 Q328.814 1448.67 334.625 1448.67 Z" fill="#9eb1be" fill-rule="evenodd" fill-opacity="1" /><path clip-path="url(#clip200)" d="M 0 0 M769.542 1452.37 Q765.931 1452.37 764.102 1455.94 Q762.297 1459.48 762.297 1466.61 Q762.297 1473.71 764.102 1477.28 Q765.931 1480.82 769.542 1480.82 Q773.176 1480.82 774.982 1477.28 Q776.811 1473.71 776.811 1466.61 Q776.811 1459.48 774.982 1455.94 Q773.176 1452.37 769.542 1452.37 M769.542 1448.67 Q775.352 1448.67 778.408 1453.27 Q781.486 1457.86 781.486 1466.61 Q781.486 1475.33 778.408 1479.94 Q775.352 1484.52 769.542 1484.52 Q763.732 1484.52 760.653 1479.94 Q757.598 1475.33 757.598 1466.61 Q757.598 1457.86 760.653 1453.27 Q763.732 1448.67 769.542 1448.67 Z" fill="#9eb1be" fill-rule="evenodd" fill-opacity="1" /><path clip-path="url(#clip200)" d="M 0 0 M786.556 1477.97 L791.44 1477.97 L791.44 1483.85 L786.556 1483.85 L786.556 1477.97 Z" fill="#9eb1be" fill-rule="evenodd" fill-opacity="1" /><path clip-path="url(#clip200)" d="M 0 0 M800.537 1479.92 L816.857 1479.92 L816.857 1483.85 L794.912 1483.85 L794.912 1479.92 Q797.574 1477.16 802.158 1472.53 Q806.764 1467.88 807.945 1466.54 Q810.19 1464.01 811.07 1462.28 Q811.972 1460.52 811.972 1458.83 Q811.972 1456.07 810.028 1454.34 Q808.107 1452.6 805.005 1452.6 Q802.806 1452.6 800.352 1453.37 Q797.922 1454.13 795.144 1455.68 L795.144 1450.96 Q797.968 1449.82 800.422 1449.25 Q802.875 1448.67 804.912 1448.67 Q810.283 1448.67 813.477 1451.35 Q816.671 1454.04 816.671 1458.53 Q816.671 1460.66 815.861 1462.58 Q815.074 1464.48 812.968 1467.07 Q812.389 1467.74 809.287 1470.96 Q806.185 1474.15 800.537 1479.92 Z" fill="#9eb1be" fill-rule="evenodd" fill-opacity="1" /><path clip-path="url(#clip200)" d="M 0 0 M821.972 1449.29 L840.329 1449.29 L840.329 1453.23 L826.255 1453.23 L826.255 1461.7 Q827.273 1461.35 828.292 1461.19 Q829.31 1461 830.329 1461 Q836.116 1461 839.495 1464.18 Q842.875 1467.35 842.875 1472.76 Q842.875 1478.34 839.403 1481.44 Q835.931 1484.52 829.611 1484.52 Q827.435 1484.52 825.167 1484.15 Q822.921 1483.78 820.514 1483.04 L820.514 1478.34 Q822.597 1479.48 824.82 1480.03 Q827.042 1480.59 829.519 1480.59 Q833.523 1480.59 835.861 1478.48 Q838.199 1476.38 838.199 1472.76 Q838.199 1469.15 835.861 1467.05 Q833.523 1464.94 829.519 1464.94 Q827.644 1464.94 825.769 1465.36 Q823.917 1465.77 821.972 1466.65 L821.972 1449.29 Z" fill="#9eb1be" fill-rule="evenodd" fill-opacity="1" /><path clip-path="url(#clip200)" d="M 0 0 M1266.35 1452.37 Q1262.73 1452.37 1260.91 1455.94 Q1259.1 1459.48 1259.1 1466.61 Q1259.1 1473.71 1260.91 1477.28 Q1262.73 1480.82 1266.35 1480.82 Q1269.98 1480.82 1271.79 1477.28 Q1273.61 1473.71 1273.61 1466.61 Q1273.61 1459.48 1271.79 1455.94 Q1269.98 1452.37 1266.35 1452.37 M1266.35 1448.67 Q1272.16 1448.67 1275.21 1453.27 Q1278.29 1457.86 1278.29 1466.61 Q1278.29 1475.33 1275.21 1479.94 Q1272.16 1484.52 1266.35 1484.52 Q1260.54 1484.52 1257.46 1479.94 Q1254.4 1475.33 1254.4 1466.61 Q1254.4 1457.86 1257.46 1453.27 Q1260.54 1448.67 1266.35 1448.67 Z" fill="#9eb1be" fill-rule="evenodd" fill-opacity="1" /><path clip-path="url(#clip200)" d="M 0 0 M1283.36 1477.97 L1288.24 1477.97 L1288.24 1483.85 L1283.36 1483.85 L1283.36 1477.97 Z" fill="#9eb1be" fill-rule="evenodd" fill-opacity="1" /><path clip-path="url(#clip200)" d="M 0 0 M1293.36 1449.29 L1311.72 1449.29 L1311.72 1453.23 L1297.64 1453.23 L1297.64 1461.7 Q1298.66 1461.35 1299.68 1461.19 Q1300.7 1461 1301.72 1461 Q1307.5 1461 1310.88 1464.18 Q1314.26 1467.35 1314.26 1472.76 Q1314.26 1478.34 1310.79 1481.44 Q1307.32 1484.52 1301 1484.52 Q1298.82 1484.52 1296.55 1484.15 Q1294.31 1483.78 1291.9 1483.04 L1291.9 1478.34 Q1293.98 1479.48 1296.21 1480.03 Q1298.43 1480.59 1300.91 1480.59 Q1304.91 1480.59 1307.25 1478.48 Q1309.59 1476.38 1309.59 1472.76 Q1309.59 1469.15 1307.25 1467.05 Q1304.91 1464.94 1300.91 1464.94 Q1299.03 1464.94 1297.16 1465.36 Q1295.3 1465.77 1293.36 1466.65 L1293.36 1449.29 Z" fill="#9eb1be" fill-rule="evenodd" fill-opacity="1" /><path clip-path="url(#clip200)" d="M 0 0 M1329.33 1452.37 Q1325.72 1452.37 1323.89 1455.94 Q1322.09 1459.48 1322.09 1466.61 Q1322.09 1473.71 1323.89 1477.28 Q1325.72 1480.82 1329.33 1480.82 Q1332.97 1480.82 1334.77 1477.28 Q1336.6 1473.71 1336.6 1466.61 Q1336.6 1459.48 1334.77 1455.94 Q1332.97 1452.37 1329.33 1452.37 M1329.33 1448.67 Q1335.14 1448.67 1338.2 1453.27 Q1341.28 1457.86 1341.28 1466.61 Q1341.28 1475.33 1338.2 1479.94 Q1335.14 1484.52 1329.33 1484.52 Q1323.52 1484.52 1320.44 1479.94 Q1317.39 1475.33 1317.39 1466.61 Q1317.39 1457.86 1320.44 1453.27 Q1323.52 1448.67 1329.33 1448.67 Z" fill="#9eb1be" fill-rule="evenodd" fill-opacity="1" /><path clip-path="url(#clip200)" d="M 0 0 M1764.4 1452.37 Q1760.79 1452.37 1758.96 1455.94 Q1757.15 1459.48 1757.15 1466.61 Q1757.15 1473.71 1758.96 1477.28 Q1760.79 1480.82 1764.4 1480.82 Q1768.03 1480.82 1769.84 1477.28 Q1771.67 1473.71 1771.67 1466.61 Q1771.67 1459.48 1769.84 1455.94 Q1768.03 1452.37 1764.4 1452.37 M1764.4 1448.67 Q1770.21 1448.67 1773.27 1453.27 Q1776.34 1457.86 1776.34 1466.61 Q1776.34 1475.33 1773.27 1479.94 Q1770.21 1484.52 1764.4 1484.52 Q1758.59 1484.52 1755.51 1479.94 Q1752.46 1475.33 1752.46 1466.61 Q1752.46 1457.86 1755.51 1453.27 Q1758.59 1448.67 1764.4 1448.67 Z" fill="#9eb1be" fill-rule="evenodd" fill-opacity="1" /><path clip-path="url(#clip200)" d="M 0 0 M1781.41 1477.97 L1786.3 1477.97 L1786.3 1483.85 L1781.41 1483.85 L1781.41 1477.97 Z" fill="#9eb1be" fill-rule="evenodd" fill-opacity="1" /><path clip-path="url(#clip200)" d="M 0 0 M1790.19 1449.29 L1812.41 1449.29 L1812.41 1451.28 L1799.86 1483.85 L1794.98 1483.85 L1806.78 1453.23 L1790.19 1453.23 L1790.19 1449.29 Z" fill="#9eb1be" fill-rule="evenodd" fill-opacity="1" /><path clip-path="url(#clip200)" d="M 0 0 M1817.52 1449.29 L1835.88 1449.29 L1835.88 1453.23 L1821.81 1453.23 L1821.81 1461.7 Q1822.83 1461.35 1823.84 1461.19 Q1824.86 1461 1825.88 1461 Q1831.67 1461 1835.05 1464.18 Q1838.43 1467.35 1838.43 1472.76 Q1838.43 1478.34 1834.95 1481.44 Q1831.48 1484.52 1825.16 1484.52 Q1822.99 1484.52 1820.72 1484.15 Q1818.47 1483.78 1816.07 1483.04 L1816.07 1478.34 Q1818.15 1479.48 1820.37 1480.03 Q1822.59 1480.59 1825.07 1480.59 Q1829.08 1480.59 1831.41 1478.48 Q1833.75 1476.38 1833.75 1472.76 Q1833.75 1469.15 1831.41 1467.05 Q1829.08 1464.94 1825.07 1464.94 Q1823.2 1464.94 1821.32 1465.36 Q1819.47 1465.77 1817.52 1466.65 L1817.52 1449.29 Z" fill="#9eb1be" fill-rule="evenodd" fill-opacity="1" /><path clip-path="url(#clip200)" d="M 0 0 M2251.44 1479.92 L2259.07 1479.92 L2259.07 1453.55 L2250.76 1455.22 L2250.76 1450.96 L2259.03 1449.29 L2263.7 1449.29 L2263.7 1479.92 L2271.34 1479.92 L2271.34 1483.85 L2251.44 1483.85 L2251.44 1479.92 Z" fill="#9eb1be" fill-rule="evenodd" fill-opacity="1" /><path clip-path="url(#clip200)" d="M 0 0 M2276.41 1477.97 L2281.3 1477.97 L2281.3 1483.85 L2276.41 1483.85 L2276.41 1477.97 Z" fill="#9eb1be" fill-rule="evenodd" fill-opacity="1" /><path clip-path="url(#clip200)" d="M 0 0 M2296.37 1452.37 Q2292.75 1452.37 2290.93 1455.94 Q2289.12 1459.48 2289.12 1466.61 Q2289.12 1473.71 2290.93 1477.28 Q2292.75 1480.82 2296.37 1480.82 Q2300 1480.82 2301.81 1477.28 Q2303.63 1473.71 2303.63 1466.61 Q2303.63 1459.48 2301.81 1455.94 Q2300 1452.37 2296.37 1452.37 M2296.37 1448.67 Q2302.18 1448.67 2305.23 1453.27 Q2308.31 1457.86 2308.31 1466.61 Q2308.31 1475.33 2305.23 1479.94 Q2302.18 1484.52 2296.37 1484.52 Q2290.56 1484.52 2287.48 1479.94 Q2284.42 1475.33 2284.42 1466.61 Q2284.42 1457.86 2287.48 1453.27 Q2290.56 1448.67 2296.37 1448.67 Z" fill="#9eb1be" fill-rule="evenodd" fill-opacity="1" /><path clip-path="url(#clip200)" d="M 0 0 M2323.38 1452.37 Q2319.77 1452.37 2317.94 1455.94 Q2316.13 1459.48 2316.13 1466.61 Q2316.13 1473.71 2317.94 1477.28 Q2319.77 1480.82 2323.38 1480.82 Q2327.01 1480.82 2328.82 1477.28 Q2330.65 1473.71 2330.65 1466.61 Q2330.65 1459.48 2328.82 1455.94 Q2327.01 1452.37 2323.38 1452.37 M2323.38 1448.67 Q2329.19 1448.67 2332.24 1453.27 Q2335.32 1457.86 2335.32 1466.61 Q2335.32 1475.33 2332.24 1479.94 Q2329.19 1484.52 2323.38 1484.52 Q2317.57 1484.52 2314.49 1479.94 Q2311.43 1475.33 2311.43 1466.61 Q2311.43 1457.86 2314.49 1453.27 Q2317.57 1448.67 2323.38 1448.67 Z" fill="#9eb1be" fill-rule="evenodd" fill-opacity="1" /><path clip-path="url(#clip200)" d="M 0 0 M1314.45 1532.4 L1301.56 1549.74 L1315.12 1568.04 L1308.21 1568.04 L1297.84 1554.04 L1287.46 1568.04 L1280.56 1568.04 L1294.4 1549.39 L1281.73 1532.4 L1288.64 1532.4 L1298.09 1545.1 L1307.55 1532.4 L1314.45 1532.4 Z" fill="#9eb1be" fill-rule="evenodd" fill-opacity="1" /><polyline clip-path="url(#clip202)" style="stroke:#adb2b7; stroke-width:2; stroke-opacity:0.1; fill:none" points="
  242.922,1387.09 2352.76,1387.09 
  "/>
<polyline clip-path="url(#clip202)" style="stroke:#adb2b7; stroke-width:2; stroke-opacity:0.1; fill:none" points="
  242.922,1080.36 2352.76,1080.36 
  "/>
<polyline clip-path="url(#clip202)" style="stroke:#adb2b7; stroke-width:2; stroke-opacity:0.1; fill:none" points="
  242.922,773.635 2352.76,773.635 
  "/>
<polyline clip-path="url(#clip202)" style="stroke:#adb2b7; stroke-width:2; stroke-opacity:0.1; fill:none" points="
  242.922,466.907 2352.76,466.907 
  "/>
<polyline clip-path="url(#clip202)" style="stroke:#adb2b7; stroke-width:2; stroke-opacity:0.1; fill:none" points="
  242.922,160.179 2352.76,160.179 
  "/>
<polyline clip-path="url(#clip200)" style="stroke:#adb2b7; stroke-width:4; stroke-opacity:1; fill:none" points="
  242.922,1423.18 242.922,123.472 
  "/>
<polyline clip-path="url(#clip200)" style="stroke:#adb2b7; stroke-width:4; stroke-opacity:1; fill:none" points="
  242.922,1387.09 268.24,1387.09 
  "/>
<polyline clip-path="url(#clip200)" style="stroke:#adb2b7; stroke-width:4; stroke-opacity:1; fill:none" points="
  242.922,1080.36 268.24,1080.36 
  "/>
<polyline clip-path="url(#clip200)" style="stroke:#adb2b7; stroke-width:4; stroke-opacity:1; fill:none" points="
  242.922,773.635 268.24,773.635 
  "/>
<polyline clip-path="url(#clip200)" style="stroke:#adb2b7; stroke-width:4; stroke-opacity:1; fill:none" points="
  242.922,466.907 268.24,466.907 
  "/>
<polyline clip-path="url(#clip200)" style="stroke:#adb2b7; stroke-width:4; stroke-opacity:1; fill:none" points="
  242.922,160.179 268.24,160.179 
  "/>
<path clip-path="url(#clip200)" d="M 0 0 M114.492 1387.54 L144.167 1387.54 L144.167 1391.48 L114.492 1391.48 L114.492 1387.54 Z" fill="#9eb1be" fill-rule="evenodd" fill-opacity="1" /><path clip-path="url(#clip200)" d="M 0 0 M150.047 1400.44 L157.686 1400.44 L157.686 1374.07 L149.376 1375.74 L149.376 1371.48 L157.64 1369.81 L162.315 1369.81 L162.315 1400.44 L169.954 1400.44 L169.954 1404.37 L150.047 1404.37 L150.047 1400.44 Z" fill="#9eb1be" fill-rule="evenodd" fill-opacity="1" /><path clip-path="url(#clip200)" d="M 0 0 M175.024 1398.49 L179.908 1398.49 L179.908 1404.37 L175.024 1404.37 L175.024 1398.49 Z" fill="#9eb1be" fill-rule="evenodd" fill-opacity="1" /><path clip-path="url(#clip200)" d="M 0 0 M194.977 1372.89 Q191.366 1372.89 189.538 1376.45 Q187.732 1380 187.732 1387.13 Q187.732 1394.23 189.538 1397.8 Q191.366 1401.34 194.977 1401.34 Q198.612 1401.34 200.417 1397.8 Q202.246 1394.23 202.246 1387.13 Q202.246 1380 200.417 1376.45 Q198.612 1372.89 194.977 1372.89 M194.977 1369.19 Q200.787 1369.19 203.843 1373.79 Q206.922 1378.38 206.922 1387.13 Q206.922 1395.85 203.843 1400.46 Q200.787 1405.04 194.977 1405.04 Q189.167 1405.04 186.088 1400.46 Q183.033 1395.85 183.033 1387.13 Q183.033 1378.38 186.088 1373.79 Q189.167 1369.19 194.977 1369.19 Z" fill="#9eb1be" fill-rule="evenodd" fill-opacity="1" /><path clip-path="url(#clip200)" d="M 0 0 M114.26 1080.81 L143.936 1080.81 L143.936 1084.75 L114.26 1084.75 L114.26 1080.81 Z" fill="#9eb1be" fill-rule="evenodd" fill-opacity="1" /><path clip-path="url(#clip200)" d="M 0 0 M159.005 1066.16 Q155.394 1066.16 153.566 1069.73 Q151.76 1073.27 151.76 1080.4 Q151.76 1087.5 153.566 1091.07 Q155.394 1094.61 159.005 1094.61 Q162.64 1094.61 164.445 1091.07 Q166.274 1087.5 166.274 1080.4 Q166.274 1073.27 164.445 1069.73 Q162.64 1066.16 159.005 1066.16 M159.005 1062.46 Q164.815 1062.46 167.871 1067.06 Q170.95 1071.65 170.95 1080.4 Q170.95 1089.12 167.871 1093.73 Q164.815 1098.31 159.005 1098.31 Q153.195 1098.31 150.116 1093.73 Q147.061 1089.12 147.061 1080.4 Q147.061 1071.65 150.116 1067.06 Q153.195 1062.46 159.005 1062.46 Z" fill="#9eb1be" fill-rule="evenodd" fill-opacity="1" /><path clip-path="url(#clip200)" d="M 0 0 M176.019 1091.76 L180.903 1091.76 L180.903 1097.64 L176.019 1097.64 L176.019 1091.76 Z" fill="#9eb1be" fill-rule="evenodd" fill-opacity="1" /><path clip-path="url(#clip200)" d="M 0 0 M186.019 1063.08 L204.375 1063.08 L204.375 1067.02 L190.301 1067.02 L190.301 1075.49 Q191.32 1075.14 192.338 1074.98 Q193.357 1074.8 194.375 1074.8 Q200.162 1074.8 203.542 1077.97 Q206.922 1081.14 206.922 1086.55 Q206.922 1092.13 203.449 1095.24 Q199.977 1098.31 193.658 1098.31 Q191.482 1098.31 189.213 1097.94 Q186.968 1097.57 184.561 1096.83 L184.561 1092.13 Q186.644 1093.27 188.866 1093.82 Q191.088 1094.38 193.565 1094.38 Q197.57 1094.38 199.908 1092.27 Q202.246 1090.17 202.246 1086.55 Q202.246 1082.94 199.908 1080.84 Q197.57 1078.73 193.565 1078.73 Q191.69 1078.73 189.815 1079.15 Q187.963 1079.56 186.019 1080.44 L186.019 1063.08 Z" fill="#9eb1be" fill-rule="evenodd" fill-opacity="1" /><path clip-path="url(#clip200)" d="M 0 0 M158.01 759.433 Q154.399 759.433 152.57 762.998 Q150.765 766.54 150.765 773.67 Q150.765 780.776 152.57 784.341 Q154.399 787.882 158.01 787.882 Q161.644 787.882 163.45 784.341 Q165.278 780.776 165.278 773.67 Q165.278 766.54 163.45 762.998 Q161.644 759.433 158.01 759.433 M158.01 755.73 Q163.82 755.73 166.876 760.336 Q169.954 764.92 169.954 773.67 Q169.954 782.396 166.876 787.003 Q163.82 791.586 158.01 791.586 Q152.2 791.586 149.121 787.003 Q146.066 782.396 146.066 773.67 Q146.066 764.92 149.121 760.336 Q152.2 755.73 158.01 755.73 Z" fill="#9eb1be" fill-rule="evenodd" fill-opacity="1" /><path clip-path="url(#clip200)" d="M 0 0 M175.024 785.035 L179.908 785.035 L179.908 790.915 L175.024 790.915 L175.024 785.035 Z" fill="#9eb1be" fill-rule="evenodd" fill-opacity="1" /><path clip-path="url(#clip200)" d="M 0 0 M194.977 759.433 Q191.366 759.433 189.538 762.998 Q187.732 766.54 187.732 773.67 Q187.732 780.776 189.538 784.341 Q191.366 787.882 194.977 787.882 Q198.612 787.882 200.417 784.341 Q202.246 780.776 202.246 773.67 Q202.246 766.54 200.417 762.998 Q198.612 759.433 194.977 759.433 M194.977 755.73 Q200.787 755.73 203.843 760.336 Q206.922 764.92 206.922 773.67 Q206.922 782.396 203.843 787.003 Q200.787 791.586 194.977 791.586 Q189.167 791.586 186.088 787.003 Q183.033 782.396 183.033 773.67 Q183.033 764.92 186.088 760.336 Q189.167 755.73 194.977 755.73 Z" fill="#9eb1be" fill-rule="evenodd" fill-opacity="1" /><path clip-path="url(#clip200)" d="M 0 0 M159.005 452.706 Q155.394 452.706 153.566 456.27 Q151.76 459.812 151.76 466.942 Q151.76 474.048 153.566 477.613 Q155.394 481.155 159.005 481.155 Q162.64 481.155 164.445 477.613 Q166.274 474.048 166.274 466.942 Q166.274 459.812 164.445 456.27 Q162.64 452.706 159.005 452.706 M159.005 449.002 Q164.815 449.002 167.871 453.608 Q170.95 458.192 170.95 466.942 Q170.95 475.668 167.871 480.275 Q164.815 484.858 159.005 484.858 Q153.195 484.858 150.116 480.275 Q147.061 475.668 147.061 466.942 Q147.061 458.192 150.116 453.608 Q153.195 449.002 159.005 449.002 Z" fill="#9eb1be" fill-rule="evenodd" fill-opacity="1" /><path clip-path="url(#clip200)" d="M 0 0 M176.019 478.307 L180.903 478.307 L180.903 484.187 L176.019 484.187 L176.019 478.307 Z" fill="#9eb1be" fill-rule="evenodd" fill-opacity="1" /><path clip-path="url(#clip200)" d="M 0 0 M186.019 449.627 L204.375 449.627 L204.375 453.562 L190.301 453.562 L190.301 462.034 Q191.32 461.687 192.338 461.525 Q193.357 461.34 194.375 461.34 Q200.162 461.34 203.542 464.511 Q206.922 467.682 206.922 473.099 Q206.922 478.678 203.449 481.78 Q199.977 484.858 193.658 484.858 Q191.482 484.858 189.213 484.488 Q186.968 484.117 184.561 483.377 L184.561 478.678 Q186.644 479.812 188.866 480.368 Q191.088 480.923 193.565 480.923 Q197.57 480.923 199.908 478.817 Q202.246 476.71 202.246 473.099 Q202.246 469.488 199.908 467.381 Q197.57 465.275 193.565 465.275 Q191.69 465.275 189.815 465.692 Q187.963 466.108 186.019 466.988 L186.019 449.627 Z" fill="#9eb1be" fill-rule="evenodd" fill-opacity="1" /><path clip-path="url(#clip200)" d="M 0 0 M150.047 173.524 L157.686 173.524 L157.686 147.158 L149.376 148.825 L149.376 144.566 L157.64 142.899 L162.315 142.899 L162.315 173.524 L169.954 173.524 L169.954 177.459 L150.047 177.459 L150.047 173.524 Z" fill="#9eb1be" fill-rule="evenodd" fill-opacity="1" /><path clip-path="url(#clip200)" d="M 0 0 M175.024 171.579 L179.908 171.579 L179.908 177.459 L175.024 177.459 L175.024 171.579 Z" fill="#9eb1be" fill-rule="evenodd" fill-opacity="1" /><path clip-path="url(#clip200)" d="M 0 0 M194.977 145.978 Q191.366 145.978 189.538 149.543 Q187.732 153.084 187.732 160.214 Q187.732 167.32 189.538 170.885 Q191.366 174.427 194.977 174.427 Q198.612 174.427 200.417 170.885 Q202.246 167.32 202.246 160.214 Q202.246 153.084 200.417 149.543 Q198.612 145.978 194.977 145.978 M194.977 142.274 Q200.787 142.274 203.843 146.881 Q206.922 151.464 206.922 160.214 Q206.922 168.941 203.843 173.547 Q200.787 178.13 194.977 178.13 Q189.167 178.13 186.088 173.547 Q183.033 168.941 183.033 160.214 Q183.033 151.464 186.088 146.881 Q189.167 142.274 194.977 142.274 Z" fill="#9eb1be" fill-rule="evenodd" fill-opacity="1" /><path clip-path="url(#clip200)" d="M 0 0 M64.0042 776.541 Q59.7391 776.509 54.1373 776.541 Q54.1373 783.352 47.4533 789.336 Q40.9603 795.192 29.502 795.351 L16.4842 795.351 L16.4842 788.572 L29.502 788.572 Q38.4777 788.572 43.6976 784.434 Q48.1535 780.933 48.5991 776.541 L16.4842 776.541 L16.4842 770.111 L48.5991 770.111 Q48.1535 765.719 43.6976 762.218 Q38.4777 758.08 29.502 758.08 L16.4842 758.08 L16.4842 751.301 L29.502 751.301 Q40.9603 751.46 47.4533 757.316 Q54.1373 763.3 54.1373 770.111 Q56.429 770.143 64.0042 770.111 L64.0042 776.541 Z" fill="#9eb1be" fill-rule="evenodd" fill-opacity="1" /><path clip-path="url(#clip200)" d="M 0 0 M1249.13 12.096 L1281.25 12.096 L1281.25 18.9825 L1256.62 18.9825 L1256.62 33.8088 Q1258.4 33.2012 1260.19 32.9176 Q1261.97 32.5936 1263.75 32.5936 Q1273.88 32.5936 1279.79 38.1433 Q1285.71 43.6931 1285.71 53.1722 Q1285.71 62.9348 1279.63 68.3631 Q1273.55 73.7508 1262.49 73.7508 Q1258.69 73.7508 1254.72 73.1026 Q1250.79 72.4545 1246.57 71.1582 L1246.57 62.9348 Q1250.22 64.9198 1254.11 65.892 Q1258 66.8642 1262.33 66.8642 Q1269.34 66.8642 1273.43 63.1779 Q1277.52 59.4916 1277.52 53.1722 Q1277.52 46.8528 1273.43 43.1664 Q1269.34 39.4801 1262.33 39.4801 Q1259.05 39.4801 1255.77 40.2093 Q1252.53 40.9384 1249.13 42.4778 L1249.13 12.096 Z" fill="#adb2b7" fill-rule="evenodd" fill-opacity="1" /><path clip-path="url(#clip200)" d="M 0 0 M1300.74 65.7705 L1300.74 89.8329 L1293.24 89.8329 L1293.24 27.2059 L1300.74 27.2059 L1300.74 34.0924 Q1303.08 30.0415 1306.65 28.0971 Q1310.25 26.1121 1315.24 26.1121 Q1323.5 26.1121 1328.65 32.6746 Q1333.83 39.2371 1333.83 49.9314 Q1333.83 60.6258 1328.65 67.1883 Q1323.5 73.7508 1315.24 73.7508 Q1310.25 73.7508 1306.65 71.8063 Q1303.08 69.8214 1300.74 65.7705 M1326.09 49.9314 Q1326.09 41.7081 1322.69 37.0496 Q1319.33 32.3505 1313.41 32.3505 Q1307.5 32.3505 1304.1 37.0496 Q1300.74 41.7081 1300.74 49.9314 Q1300.74 58.1548 1304.1 62.8538 Q1307.5 67.5124 1313.41 67.5124 Q1319.33 67.5124 1322.69 62.8538 Q1326.09 58.1548 1326.09 49.9314 Z" fill="#adb2b7" fill-rule="evenodd" fill-opacity="1" /><path clip-path="url(#clip200)" d="M 0 0 M1341.65 27.2059 L1349.1 27.2059 L1349.1 72.576 L1341.65 72.576 L1341.65 27.2059 M1341.65 9.54393 L1349.1 9.54393 L1349.1 18.9825 L1341.65 18.9825 L1341.65 9.54393 Z" fill="#adb2b7" fill-rule="evenodd" fill-opacity="1" /><polyline clip-path="url(#clip202)" style="stroke:#fe4365; stroke-width:4; stroke-opacity:1; fill:none" points="
  302.634,773.635 322.739,676.708 342.844,582.216 362.949,492.533 383.055,409.912 403.16,336.428 423.265,273.929 443.37,223.982 463.475,187.845 483.58,166.423 
  503.685,160.256 523.791,169.499 543.896,193.919 564.001,232.902 584.106,285.47 604.211,350.302 624.316,425.769 644.421,509.975 664.527,600.804 684.632,695.976 
  704.737,793.098 724.842,889.732 744.947,983.449 765.052,1071.89 785.158,1152.85 805.263,1224.27 825.368,1284.38 845.473,1331.65 865.578,1364.91 885.683,1383.31 
  905.788,1386.4 925.894,1374.09 945.999,1346.69 966.104,1304.9 986.209,1249.77 1006.31,1182.67 1026.42,1105.29 1046.52,1019.59 1066.63,927.703 1086.73,831.947 
  1106.84,734.727 1126.95,638.484 1147.05,545.636 1167.16,458.516 1187.26,379.313 1207.37,310.016 1227.47,252.366 1247.58,207.811 1267.68,177.471 1287.79,162.109 
  1307.89,162.109 1328,177.471 1348.1,207.811 1368.21,252.366 1388.31,310.016 1408.42,379.313 1428.52,458.516 1448.63,545.636 1468.73,638.484 1488.84,734.727 
  1508.94,831.947 1529.05,927.703 1549.15,1019.59 1569.26,1105.29 1589.36,1182.67 1609.47,1249.77 1629.57,1304.9 1649.68,1346.69 1669.78,1374.09 1689.89,1386.4 
  1709.99,1383.31 1730.1,1364.91 1750.2,1331.65 1770.31,1284.38 1790.41,1224.27 1810.52,1152.85 1830.63,1071.89 1850.73,983.449 1870.84,889.732 1890.94,793.098 
  1911.05,695.976 1931.15,600.804 1951.26,509.975 1971.36,425.769 1991.47,350.302 2011.57,285.47 2031.68,232.902 2051.78,193.919 2071.89,169.499 2091.99,160.256 
  2112.1,166.423 2132.2,187.845 2152.31,223.982 2172.41,273.929 2192.52,336.428 2212.62,409.912 2232.73,492.533 2252.83,582.216 2272.94,676.708 2293.04,773.635 
  
  "/>
<polyline clip-path="url(#clip202)" style="stroke:#eca25c; stroke-width:4; stroke-opacity:1; fill:none" points="
  302.634,773.635 322.739,719.748 342.844,667.215 362.949,617.355 383.055,571.422 403.16,530.568 423.265,495.821 443.37,468.054 463.475,447.963 483.58,436.053 
  503.685,432.625 523.791,437.763 543.896,451.34 564.001,473.013 584.106,502.238 604.211,538.281 624.316,580.237 644.421,627.052 664.527,677.549 684.632,730.46 
  704.737,784.456 724.842,838.179 744.947,890.282 765.052,939.454 785.158,984.46 805.263,1024.17 825.368,1057.59 845.473,1083.87 865.578,1102.36 885.683,1112.59 
  905.788,1114.3 925.894,1107.46 945.999,1092.23 966.104,1069 986.209,1038.34 1006.31,1001.04 1026.42,958.022 1046.52,910.373 1066.63,859.29 1086.73,806.054 
  1106.84,752.004 1126.95,698.497 1147.05,646.878 1167.16,598.444 1187.26,554.41 1207.37,515.884 1227.47,483.834 1247.58,459.063 1267.68,442.196 1287.79,433.655 
  1307.89,433.655 1328,442.196 1348.1,459.063 1368.21,483.834 1388.31,515.884 1408.42,554.41 1428.52,598.444 1448.63,646.878 1468.73,698.497 1488.84,752.004 
  1508.94,806.054 1529.05,859.29 1549.15,910.373 1569.26,958.022 1589.36,1001.04 1609.47,1038.34 1629.57,1069 1649.68,1092.23 1669.78,1107.46 1689.89,1114.3 
  1709.99,1112.59 1730.1,1102.36 1750.2,1083.87 1770.31,1057.59 1790.41,1024.17 1810.52,984.46 1830.63,939.454 1850.73,890.282 1870.84,838.179 1890.94,784.456 
  1911.05,730.46 1931.15,677.549 1951.26,627.052 1971.36,580.237 1991.47,538.281 2011.57,502.238 2031.68,473.013 2051.78,451.34 2071.89,437.763 2091.99,432.625 
  2112.1,436.053 2132.2,447.963 2152.31,468.054 2172.41,495.821 2192.52,530.568 2212.62,571.422 2232.73,617.355 2252.83,667.215 2272.94,719.748 2293.04,773.635 
  
  "/>
<polyline clip-path="url(#clip202)" style="stroke:#3f9778; stroke-width:4; stroke-opacity:1; fill:none" points="
  302.634,773.635 322.739,869.233 342.844,962.429 362.949,1050.88 383.055,1132.37 403.16,1204.85 423.265,1266.49 443.37,1315.75 463.475,1351.39 483.58,1372.52 
  503.685,1378.6 523.791,1369.49 543.896,1345.4 564.001,1306.95 584.106,1255.11 604.211,1191.16 624.316,1116.73 644.421,1033.68 664.527,944.096 684.632,850.229 
  704.737,754.438 724.842,659.129 744.947,566.697 765.052,479.464 785.158,399.621 805.263,329.174 825.368,269.893 845.473,223.266 865.578,190.467 885.683,172.318 
  905.788,169.275 925.894,181.415 945.999,208.433 966.104,249.65 986.209,304.031 1006.31,370.21 1026.42,446.523 1046.52,531.054 1066.63,621.679 1086.73,716.122 
  1106.84,812.009 1126.95,906.933 1147.05,998.507 1167.16,1084.43 1187.26,1162.55 1207.37,1230.9 1227.47,1287.76 1247.58,1331.7 1267.68,1361.62 1287.79,1376.78 
  1307.89,1376.78 1328,1361.62 1348.1,1331.7 1368.21,1287.76 1388.31,1230.9 1408.42,1162.55 1428.52,1084.43 1448.63,998.507 1468.73,906.933 1488.84,812.009 
  1508.94,716.122 1529.05,621.679 1549.15,531.054 1569.26,446.523 1589.36,370.21 1609.47,304.031 1629.57,249.65 1649.68,208.433 1669.78,181.415 1689.89,169.275 
  1709.99,172.318 1730.1,190.467 1750.2,223.266 1770.31,269.893 1790.41,329.174 1810.52,399.621 1830.63,479.464 1850.73,566.697 1870.84,659.129 1890.94,754.438 
  1911.05,850.229 1931.15,944.096 1951.26,1033.68 1971.36,1116.73 1991.47,1191.16 2011.57,1255.11 2031.68,1306.95 2051.78,1345.4 2071.89,1369.49 2091.99,1378.6 
  2112.1,1372.52 2132.2,1351.39 2152.31,1315.75 2172.41,1266.49 2192.52,1204.85 2212.62,1132.37 2232.73,1050.88 2252.83,962.429 2272.94,869.233 2293.04,773.635 
  
  "/>
<polyline clip-path="url(#clip202)" style="stroke:#005d7f; stroke-width:4; stroke-opacity:1; fill:none" points="
  302.634,773.635 322.739,681.271 342.844,591.228 362.949,505.767 383.055,427.035 403.16,357.011 423.265,297.454 443.37,249.859 463.475,215.422 483.58,195.009 
  503.685,189.133 523.791,197.94 543.896,221.21 564.001,258.359 584.106,308.452 604.211,370.231 624.316,442.145 644.421,522.387 664.527,608.941 684.632,699.632 
  704.737,792.182 724.842,884.266 744.947,973.571 765.052,1057.85 785.158,1135 805.263,1203.06 825.368,1260.33 845.473,1305.38 865.578,1337.07 885.683,1354.61 
  905.788,1357.55 925.894,1345.82 945.999,1319.71 966.104,1279.89 986.209,1227.35 1006.31,1163.41 1026.42,1089.68 1046.52,1008.01 1066.63,920.45 1086.73,829.202 
  1106.84,736.559 1126.95,644.847 1147.05,556.37 1167.16,473.352 1187.26,397.877 1207.37,331.842 1227.47,276.906 1247.58,234.449 1267.68,205.538 1287.79,190.898 
  1307.89,190.898 1328,205.538 1348.1,234.449 1368.21,276.906 1388.31,331.842 1408.42,397.877 1428.52,473.352 1448.63,556.37 1468.73,644.847 1488.84,736.559 
  1508.94,829.202 1529.05,920.45 1549.15,1008.01 1569.26,1089.68 1589.36,1163.41 1609.47,1227.35 1629.57,1279.89 1649.68,1319.71 1669.78,1345.82 1689.89,1357.55 
  1709.99,1354.61 1730.1,1337.07 1750.2,1305.38 1770.31,1260.33 1790.41,1203.06 1810.52,1135 1830.63,1057.85 1850.73,973.571 1870.84,884.266 1890.94,792.182 
  1911.05,699.632 1931.15,608.941 1951.26,522.387 1971.36,442.145 1991.47,370.231 2011.57,308.452 2031.68,258.359 2051.78,221.21 2071.89,197.94 2091.99,189.133 
  2112.1,195.009 2132.2,215.422 2152.31,249.859 2172.41,297.454 2192.52,357.011 2212.62,427.035 2232.73,505.767 2252.83,591.228 2272.94,681.271 2293.04,773.635 
  
  "/>
<polyline clip-path="url(#clip202)" style="stroke:#00a8ff; stroke-width:4; stroke-opacity:1; fill:none" points="
  302.634,773.635 322.739,856.828 342.844,937.932 362.949,1014.91 383.055,1085.82 403.16,1148.89 423.265,1202.54 443.37,1245.41 463.475,1276.43 483.58,1294.81 
  503.685,1300.11 523.791,1292.17 543.896,1271.21 564.001,1237.75 584.106,1192.63 604.211,1136.99 624.316,1072.21 644.421,999.938 664.527,921.977 684.632,840.29 
  704.737,756.929 724.842,673.987 744.947,593.548 765.052,517.634 785.158,448.151 805.263,386.845 825.368,335.256 845.473,294.68 865.578,266.136 885.683,250.342 
  905.788,247.694 925.894,258.259 945.999,281.771 966.104,317.64 986.209,364.965 1006.31,422.556 1026.42,488.967 1046.52,562.53 1066.63,641.396 1086.73,723.584 
  1106.84,807.03 1126.95,889.636 1147.05,969.329 1167.16,1044.11 1187.26,1112.09 1207.37,1171.57 1227.47,1221.05 1247.58,1259.29 1267.68,1285.33 1287.79,1298.52 
  1307.89,1298.52 1328,1285.33 1348.1,1259.29 1368.21,1221.05 1388.31,1171.57 1408.42,1112.09 1428.52,1044.11 1448.63,969.329 1468.73,889.636 1488.84,807.03 
  1508.94,723.584 1529.05,641.396 1549.15,562.53 1569.26,488.967 1589.36,422.556 1609.47,364.965 1629.57,317.64 1649.68,281.771 1669.78,258.259 1689.89,247.694 
  1709.99,250.342 1730.1,266.136 1750.2,294.68 1770.31,335.256 1790.41,386.845 1810.52,448.151 1830.63,517.634 1850.73,593.548 1870.84,673.987 1890.94,756.929 
  1911.05,840.29 1931.15,921.977 1951.26,999.938 1971.36,1072.21 1991.47,1136.99 2011.57,1192.63 2031.68,1237.75 2051.78,1271.21 2071.89,1292.17 2091.99,1300.11 
  2112.1,1294.81 2132.2,1276.43 2152.31,1245.41 2172.41,1202.54 2192.52,1148.89 2212.62,1085.82 2232.73,1014.91 2252.83,937.932 2272.94,856.828 2293.04,773.635 
  
  "/>
<polyline clip-path="url(#clip202)" style="stroke:#dc3df1; stroke-width:4; stroke-opacity:1; fill:none" points="
  302.634,773.635 322.739,844.518 342.844,913.62 362.949,979.206 383.055,1039.63 403.16,1093.37 423.265,1139.07 443.37,1175.6 463.475,1202.03 483.58,1217.69 
  503.685,1222.2 523.791,1215.44 543.896,1197.58 564.001,1169.08 584.106,1130.63 604.211,1083.22 624.316,1028.03 644.421,966.451 664.527,900.027 684.632,830.427 
  704.737,759.401 724.842,688.732 744.947,620.196 765.052,555.515 785.158,496.314 805.263,444.08 825.368,400.124 845.473,365.552 865.578,341.232 885.683,327.775 
  905.788,325.519 925.894,334.521 945.999,354.554 966.104,385.115 986.209,425.437 1006.31,474.506 1026.42,531.091 1046.52,593.768 1066.63,660.964 1086.73,730.99 
  1106.84,802.088 1126.95,872.471 1147.05,940.371 1167.16,1004.08 1187.26,1062 1207.37,1112.68 1227.47,1154.84 1247.58,1187.42 1267.68,1209.61 1287.79,1220.85 
  1307.89,1220.85 1328,1209.61 1348.1,1187.42 1368.21,1154.84 1388.31,1112.68 1408.42,1062 1428.52,1004.08 1448.63,940.371 1468.73,872.471 1488.84,802.088 
  1508.94,730.99 1529.05,660.964 1549.15,593.768 1569.26,531.091 1589.36,474.506 1609.47,425.437 1629.57,385.115 1649.68,354.554 1669.78,334.521 1689.89,325.519 
  1709.99,327.775 1730.1,341.232 1750.2,365.552 1770.31,400.124 1790.41,444.08 1810.52,496.314 1830.63,555.515 1850.73,620.196 1870.84,688.732 1890.94,759.401 
  1911.05,830.427 1931.15,900.027 1951.26,966.451 1971.36,1028.03 1991.47,1083.22 2011.57,1130.63 2031.68,1169.08 2051.78,1197.58 2071.89,1215.44 2091.99,1222.2 
  2112.1,1217.69 2132.2,1202.03 2152.31,1175.6 2172.41,1139.07 2192.52,1093.37 2212.62,1039.63 2232.73,979.206 2252.83,913.62 2272.94,844.518 2293.04,773.635 
  
  "/>
<polyline clip-path="url(#clip202)" style="stroke:#759500; stroke-width:4; stroke-opacity:1; fill:none" points="
  302.634,773.635 322.739,821.794 342.844,868.744 362.949,913.304 383.055,954.355 403.16,990.867 423.265,1021.92 443.37,1046.74 463.475,1064.69 483.58,1075.34 
  503.685,1078.4 523.791,1073.81 543.896,1061.67 564.001,1042.3 584.106,1016.19 604.211,983.973 624.316,946.477 644.421,904.638 664.527,859.508 684.632,812.221 
  704.737,763.964 724.842,715.95 744.947,669.386 765.052,625.44 785.158,585.218 805.263,549.729 825.368,519.864 845.473,496.376 865.578,479.852 885.683,470.709 
  905.788,469.176 925.894,475.292 945.999,488.903 966.104,509.667 986.209,537.063 1006.31,570.401 1026.42,608.846 1046.52,651.43 1066.63,697.084 1086.73,744.661 
  1106.84,792.967 1126.95,840.786 1147.05,886.919 1167.16,930.206 1187.26,969.559 1207.37,1003.99 1227.47,1032.63 1247.58,1054.77 1267.68,1069.85 1287.79,1077.48 
  1307.89,1077.48 1328,1069.85 1348.1,1054.77 1368.21,1032.63 1388.31,1003.99 1408.42,969.559 1428.52,930.206 1448.63,886.919 1468.73,840.786 1488.84,792.967 
  1508.94,744.661 1529.05,697.084 1549.15,651.43 1569.26,608.846 1589.36,570.401 1609.47,537.063 1629.57,509.667 1649.68,488.903 1669.78,475.292 1689.89,469.176 
  1709.99,470.709 1730.1,479.852 1750.2,496.376 1770.31,519.864 1790.41,549.729 1810.52,585.218 1830.63,625.44 1850.73,669.386 1870.84,715.95 1890.94,763.964 
  1911.05,812.221 1931.15,859.508 1951.26,904.638 1971.36,946.477 1991.47,983.973 2011.57,1016.19 2031.68,1042.3 2051.78,1061.67 2071.89,1073.81 2091.99,1078.4 
  2112.1,1075.34 2132.2,1064.69 2152.31,1046.74 2172.41,1021.92 2192.52,990.867 2212.62,954.355 2232.73,913.304 2252.83,868.744 2272.94,821.794 2293.04,773.635 
  
  "/>
<path clip-path="url(#clip200)" d="
M1876.73 650.636 L2282.43 650.636 L2282.43 166.796 L1876.73 166.796  Z
  " fill="#282c34" fill-rule="evenodd" fill-opacity="1"/>
<polyline clip-path="url(#clip200)" style="stroke:#9eb1be; stroke-width:4; stroke-opacity:1; fill:none" points="
  1876.73,650.636 2282.43,650.636 2282.43,166.796 1876.73,166.796 1876.73,650.636 
  "/>
<polyline clip-path="url(#clip200)" style="stroke:#fe4365; stroke-width:4; stroke-opacity:1; fill:none" points="
  1900.17,227.276 2040.83,227.276 
  "/>
<path clip-path="url(#clip200)" d="M 0 0 M2071.68 211.269 L2071.68 218.63 L2080.45 218.63 L2080.45 221.94 L2071.68 221.94 L2071.68 236.014 Q2071.68 239.185 2072.53 240.088 Q2073.41 240.991 2076.08 240.991 L2080.45 240.991 L2080.45 244.556 L2076.08 244.556 Q2071.15 244.556 2069.27 242.727 Q2067.4 240.875 2067.4 236.014 L2067.4 221.94 L2064.27 221.94 L2064.27 218.63 L2067.4 218.63 L2067.4 211.269 L2071.68 211.269 Z" fill="#adb2b7" fill-rule="evenodd" fill-opacity="1" /><path clip-path="url(#clip200)" d="M 0 0 M2100.54 223.028 L2130.22 223.028 L2130.22 226.917 L2100.54 226.917 L2100.54 223.028 M2100.54 232.472 L2130.22 232.472 L2130.22 236.408 L2100.54 236.408 L2100.54 232.472 Z" fill="#adb2b7" fill-rule="evenodd" fill-opacity="1" /><path clip-path="url(#clip200)" d="M 0 0 M2160.36 213.074 Q2156.75 213.074 2154.92 216.639 Q2153.11 220.181 2153.11 227.31 Q2153.11 234.417 2154.92 237.982 Q2156.75 241.523 2160.36 241.523 Q2163.99 241.523 2165.8 237.982 Q2167.63 234.417 2167.63 227.31 Q2167.63 220.181 2165.8 216.639 Q2163.99 213.074 2160.36 213.074 M2160.36 209.371 Q2166.17 209.371 2169.22 213.977 Q2172.3 218.56 2172.3 227.31 Q2172.3 236.037 2169.22 240.644 Q2166.17 245.227 2160.36 245.227 Q2154.55 245.227 2151.47 240.644 Q2148.41 236.037 2148.41 227.31 Q2148.41 218.56 2151.47 213.977 Q2154.55 209.371 2160.36 209.371 Z" fill="#adb2b7" fill-rule="evenodd" fill-opacity="1" /><path clip-path="url(#clip200)" d="M 0 0 M2177.37 238.676 L2182.26 238.676 L2182.26 244.556 L2177.37 244.556 L2177.37 238.676 Z" fill="#adb2b7" fill-rule="evenodd" fill-opacity="1" /><path clip-path="url(#clip200)" d="M 0 0 M2197.33 213.074 Q2193.71 213.074 2191.89 216.639 Q2190.08 220.181 2190.08 227.31 Q2190.08 234.417 2191.89 237.982 Q2193.71 241.523 2197.33 241.523 Q2200.96 241.523 2202.77 237.982 Q2204.59 234.417 2204.59 227.31 Q2204.59 220.181 2202.77 216.639 Q2200.96 213.074 2197.33 213.074 M2197.33 209.371 Q2203.14 209.371 2206.19 213.977 Q2209.27 218.56 2209.27 227.31 Q2209.27 236.037 2206.19 240.644 Q2203.14 245.227 2197.33 245.227 Q2191.52 245.227 2188.44 240.644 Q2185.38 236.037 2185.38 227.31 Q2185.38 218.56 2188.44 213.977 Q2191.52 209.371 2197.33 209.371 Z" fill="#adb2b7" fill-rule="evenodd" fill-opacity="1" /><polyline clip-path="url(#clip200)" style="stroke:#eca25c; stroke-width:4; stroke-opacity:1; fill:none" points="
  1900.17,287.756 2040.83,287.756 
  "/>
<path clip-path="url(#clip200)" d="M 0 0 M2071.68 271.749 L2071.68 279.11 L2080.45 279.11 L2080.45 282.42 L2071.68 282.42 L2071.68 296.494 Q2071.68 299.665 2072.53 300.568 Q2073.41 301.471 2076.08 301.471 L2080.45 301.471 L2080.45 305.036 L2076.08 305.036 Q2071.15 305.036 2069.27 303.207 Q2067.4 301.355 2067.4 296.494 L2067.4 282.42 L2064.27 282.42 L2064.27 279.11 L2067.4 279.11 L2067.4 271.749 L2071.68 271.749 Z" fill="#adb2b7" fill-rule="evenodd" fill-opacity="1" /><path clip-path="url(#clip200)" d="M 0 0 M2100.54 283.508 L2130.22 283.508 L2130.22 287.397 L2100.54 287.397 L2100.54 283.508 M2100.54 292.952 L2130.22 292.952 L2130.22 296.888 L2100.54 296.888 L2100.54 292.952 Z" fill="#adb2b7" fill-rule="evenodd" fill-opacity="1" /><path clip-path="url(#clip200)" d="M 0 0 M2160.36 273.554 Q2156.75 273.554 2154.92 277.119 Q2153.11 280.661 2153.11 287.79 Q2153.11 294.897 2154.92 298.462 Q2156.75 302.003 2160.36 302.003 Q2163.99 302.003 2165.8 298.462 Q2167.63 294.897 2167.63 287.79 Q2167.63 280.661 2165.8 277.119 Q2163.99 273.554 2160.36 273.554 M2160.36 269.851 Q2166.17 269.851 2169.22 274.457 Q2172.3 279.04 2172.3 287.79 Q2172.3 296.517 2169.22 301.124 Q2166.17 305.707 2160.36 305.707 Q2154.55 305.707 2151.47 301.124 Q2148.41 296.517 2148.41 287.79 Q2148.41 279.04 2151.47 274.457 Q2154.55 269.851 2160.36 269.851 Z" fill="#adb2b7" fill-rule="evenodd" fill-opacity="1" /><path clip-path="url(#clip200)" d="M 0 0 M2177.37 299.156 L2182.26 299.156 L2182.26 305.036 L2177.37 305.036 L2177.37 299.156 Z" fill="#adb2b7" fill-rule="evenodd" fill-opacity="1" /><path clip-path="url(#clip200)" d="M 0 0 M2201.49 286.402 Q2204.85 287.119 2206.72 289.388 Q2208.62 291.656 2208.62 294.989 Q2208.62 300.105 2205.1 302.906 Q2201.58 305.707 2195.1 305.707 Q2192.93 305.707 2190.61 305.267 Q2188.32 304.851 2185.87 303.994 L2185.87 299.48 Q2187.81 300.614 2190.13 301.193 Q2192.44 301.772 2194.96 301.772 Q2199.36 301.772 2201.65 300.036 Q2203.97 298.3 2203.97 294.989 Q2203.97 291.934 2201.82 290.221 Q2199.69 288.485 2195.87 288.485 L2191.84 288.485 L2191.84 284.642 L2196.05 284.642 Q2199.5 284.642 2201.33 283.277 Q2203.16 281.888 2203.16 279.295 Q2203.16 276.633 2201.26 275.221 Q2199.39 273.786 2195.87 273.786 Q2193.95 273.786 2191.75 274.203 Q2189.55 274.619 2186.91 275.499 L2186.91 271.332 Q2189.57 270.591 2191.89 270.221 Q2194.22 269.851 2196.28 269.851 Q2201.61 269.851 2204.71 272.281 Q2207.81 274.689 2207.81 278.809 Q2207.81 281.679 2206.17 283.67 Q2204.52 285.638 2201.49 286.402 Z" fill="#adb2b7" fill-rule="evenodd" fill-opacity="1" /><path clip-path="url(#clip200)" d="M 0 0 M2227.86 286.402 Q2231.21 287.119 2233.09 289.388 Q2234.99 291.656 2234.99 294.989 Q2234.99 300.105 2231.47 302.906 Q2227.95 305.707 2221.47 305.707 Q2219.29 305.707 2216.98 305.267 Q2214.69 304.851 2212.23 303.994 L2212.23 299.48 Q2214.18 300.614 2216.49 301.193 Q2218.81 301.772 2221.33 301.772 Q2225.73 301.772 2228.02 300.036 Q2230.33 298.3 2230.33 294.989 Q2230.33 291.934 2228.18 290.221 Q2226.05 288.485 2222.23 288.485 L2218.21 288.485 L2218.21 284.642 L2222.42 284.642 Q2225.87 284.642 2227.7 283.277 Q2229.52 281.888 2229.52 279.295 Q2229.52 276.633 2227.63 275.221 Q2225.75 273.786 2222.23 273.786 Q2220.31 273.786 2218.11 274.203 Q2215.91 274.619 2213.27 275.499 L2213.27 271.332 Q2215.94 270.591 2218.25 270.221 Q2220.59 269.851 2222.65 269.851 Q2227.97 269.851 2231.08 272.281 Q2234.18 274.689 2234.18 278.809 Q2234.18 281.679 2232.53 283.67 Q2230.89 285.638 2227.86 286.402 Z" fill="#adb2b7" fill-rule="evenodd" fill-opacity="1" /><polyline clip-path="url(#clip200)" style="stroke:#3f9778; stroke-width:4; stroke-opacity:1; fill:none" points="
  1900.17,348.236 2040.83,348.236 
  "/>
<path clip-path="url(#clip200)" d="M 0 0 M2071.68 332.229 L2071.68 339.59 L2080.45 339.59 L2080.45 342.9 L2071.68 342.9 L2071.68 356.974 Q2071.68 360.145 2072.53 361.048 Q2073.41 361.951 2076.08 361.951 L2080.45 361.951 L2080.45 365.516 L2076.08 365.516 Q2071.15 365.516 2069.27 363.687 Q2067.4 361.835 2067.4 356.974 L2067.4 342.9 L2064.27 342.9 L2064.27 339.59 L2067.4 339.59 L2067.4 332.229 L2071.68 332.229 Z" fill="#adb2b7" fill-rule="evenodd" fill-opacity="1" /><path clip-path="url(#clip200)" d="M 0 0 M2100.54 343.988 L2130.22 343.988 L2130.22 347.877 L2100.54 347.877 L2100.54 343.988 M2100.54 353.432 L2130.22 353.432 L2130.22 357.368 L2100.54 357.368 L2100.54 353.432 Z" fill="#adb2b7" fill-rule="evenodd" fill-opacity="1" /><path clip-path="url(#clip200)" d="M 0 0 M2160.36 334.034 Q2156.75 334.034 2154.92 337.599 Q2153.11 341.141 2153.11 348.27 Q2153.11 355.377 2154.92 358.942 Q2156.75 362.483 2160.36 362.483 Q2163.99 362.483 2165.8 358.942 Q2167.63 355.377 2167.63 348.27 Q2167.63 341.141 2165.8 337.599 Q2163.99 334.034 2160.36 334.034 M2160.36 330.331 Q2166.17 330.331 2169.22 334.937 Q2172.3 339.52 2172.3 348.27 Q2172.3 356.997 2169.22 361.604 Q2166.17 366.187 2160.36 366.187 Q2154.55 366.187 2151.47 361.604 Q2148.41 356.997 2148.41 348.27 Q2148.41 339.52 2151.47 334.937 Q2154.55 330.331 2160.36 330.331 Z" fill="#adb2b7" fill-rule="evenodd" fill-opacity="1" /><path clip-path="url(#clip200)" d="M 0 0 M2177.37 359.636 L2182.26 359.636 L2182.26 365.516 L2177.37 365.516 L2177.37 359.636 Z" fill="#adb2b7" fill-rule="evenodd" fill-opacity="1" /><path clip-path="url(#clip200)" d="M 0 0 M2197.9 346.372 Q2194.76 346.372 2192.9 348.525 Q2191.08 350.678 2191.08 354.428 Q2191.08 358.155 2192.9 360.331 Q2194.76 362.483 2197.9 362.483 Q2201.05 362.483 2202.88 360.331 Q2204.73 358.155 2204.73 354.428 Q2204.73 350.678 2202.88 348.525 Q2201.05 346.372 2197.9 346.372 M2207.19 331.72 L2207.19 335.979 Q2205.43 335.146 2203.62 334.706 Q2201.84 334.266 2200.08 334.266 Q2195.45 334.266 2193 337.391 Q2190.57 340.516 2190.22 346.835 Q2191.58 344.821 2193.64 343.757 Q2195.71 342.669 2198.18 342.669 Q2203.39 342.669 2206.4 345.84 Q2209.43 348.988 2209.43 354.428 Q2209.43 359.752 2206.28 362.969 Q2203.14 366.187 2197.9 366.187 Q2191.91 366.187 2188.74 361.604 Q2185.57 356.997 2185.57 348.27 Q2185.57 340.076 2189.46 335.215 Q2193.34 330.331 2199.89 330.331 Q2201.65 330.331 2203.44 330.678 Q2205.24 331.025 2207.19 331.72 Z" fill="#adb2b7" fill-rule="evenodd" fill-opacity="1" /><path clip-path="url(#clip200)" d="M 0 0 M2213.32 330.956 L2235.54 330.956 L2235.54 332.946 L2223 365.516 L2218.11 365.516 L2229.92 334.891 L2213.32 334.891 L2213.32 330.956 Z" fill="#adb2b7" fill-rule="evenodd" fill-opacity="1" /><polyline clip-path="url(#clip200)" style="stroke:#005d7f; stroke-width:4; stroke-opacity:1; fill:none" points="
  1900.17,408.716 2040.83,408.716 
  "/>
<path clip-path="url(#clip200)" d="M 0 0 M2071.68 392.709 L2071.68 400.07 L2080.45 400.07 L2080.45 403.38 L2071.68 403.38 L2071.68 417.454 Q2071.68 420.625 2072.53 421.528 Q2073.41 422.431 2076.08 422.431 L2080.45 422.431 L2080.45 425.996 L2076.08 425.996 Q2071.15 425.996 2069.27 424.167 Q2067.4 422.315 2067.4 417.454 L2067.4 403.38 L2064.27 403.38 L2064.27 400.07 L2067.4 400.07 L2067.4 392.709 L2071.68 392.709 Z" fill="#adb2b7" fill-rule="evenodd" fill-opacity="1" /><path clip-path="url(#clip200)" d="M 0 0 M2100.54 404.468 L2130.22 404.468 L2130.22 408.357 L2100.54 408.357 L2100.54 404.468 M2100.54 413.912 L2130.22 413.912 L2130.22 417.848 L2100.54 417.848 L2100.54 413.912 Z" fill="#adb2b7" fill-rule="evenodd" fill-opacity="1" /><path clip-path="url(#clip200)" d="M 0 0 M2151.17 422.061 L2158.81 422.061 L2158.81 395.695 L2150.5 397.362 L2150.5 393.102 L2158.76 391.436 L2163.44 391.436 L2163.44 422.061 L2171.08 422.061 L2171.08 425.996 L2151.17 425.996 L2151.17 422.061 Z" fill="#adb2b7" fill-rule="evenodd" fill-opacity="1" /><path clip-path="url(#clip200)" d="M 0 0 M2176.15 420.116 L2181.03 420.116 L2181.03 425.996 L2176.15 425.996 L2176.15 420.116 Z" fill="#adb2b7" fill-rule="evenodd" fill-opacity="1" /><path clip-path="url(#clip200)" d="M 0 0 M2196.1 394.514 Q2192.49 394.514 2190.66 398.079 Q2188.85 401.621 2188.85 408.75 Q2188.85 415.857 2190.66 419.422 Q2192.49 422.963 2196.1 422.963 Q2199.73 422.963 2201.54 419.422 Q2203.37 415.857 2203.37 408.75 Q2203.37 401.621 2201.54 398.079 Q2199.73 394.514 2196.1 394.514 M2196.1 390.811 Q2201.91 390.811 2204.96 395.417 Q2208.04 400 2208.04 408.75 Q2208.04 417.477 2204.96 422.084 Q2201.91 426.667 2196.1 426.667 Q2190.29 426.667 2187.21 422.084 Q2184.15 417.477 2184.15 408.75 Q2184.15 400 2187.21 395.417 Q2190.29 390.811 2196.1 390.811 Z" fill="#adb2b7" fill-rule="evenodd" fill-opacity="1" /><polyline clip-path="url(#clip200)" style="stroke:#00a8ff; stroke-width:4; stroke-opacity:1; fill:none" points="
  1900.17,469.196 2040.83,469.196 
  "/>
<path clip-path="url(#clip200)" d="M 0 0 M2071.68 453.189 L2071.68 460.55 L2080.45 460.55 L2080.45 463.86 L2071.68 463.86 L2071.68 477.934 Q2071.68 481.105 2072.53 482.008 Q2073.41 482.911 2076.08 482.911 L2080.45 482.911 L2080.45 486.476 L2076.08 486.476 Q2071.15 486.476 2069.27 484.647 Q2067.4 482.795 2067.4 477.934 L2067.4 463.86 L2064.27 463.86 L2064.27 460.55 L2067.4 460.55 L2067.4 453.189 L2071.68 453.189 Z" fill="#adb2b7" fill-rule="evenodd" fill-opacity="1" /><path clip-path="url(#clip200)" d="M 0 0 M2100.54 464.948 L2130.22 464.948 L2130.22 468.837 L2100.54 468.837 L2100.54 464.948 M2100.54 474.392 L2130.22 474.392 L2130.22 478.328 L2100.54 478.328 L2100.54 474.392 Z" fill="#adb2b7" fill-rule="evenodd" fill-opacity="1" /><path clip-path="url(#clip200)" d="M 0 0 M2151.17 482.541 L2158.81 482.541 L2158.81 456.175 L2150.5 457.842 L2150.5 453.582 L2158.76 451.916 L2163.44 451.916 L2163.44 482.541 L2171.08 482.541 L2171.08 486.476 L2151.17 486.476 L2151.17 482.541 Z" fill="#adb2b7" fill-rule="evenodd" fill-opacity="1" /><path clip-path="url(#clip200)" d="M 0 0 M2176.15 480.596 L2181.03 480.596 L2181.03 486.476 L2176.15 486.476 L2176.15 480.596 Z" fill="#adb2b7" fill-rule="evenodd" fill-opacity="1" /><path clip-path="url(#clip200)" d="M 0 0 M2200.27 467.842 Q2203.62 468.559 2205.5 470.828 Q2207.39 473.096 2207.39 476.429 Q2207.39 481.545 2203.88 484.346 Q2200.36 487.147 2193.88 487.147 Q2191.7 487.147 2189.39 486.707 Q2187.09 486.291 2184.64 485.434 L2184.64 480.92 Q2186.58 482.054 2188.9 482.633 Q2191.21 483.212 2193.74 483.212 Q2198.14 483.212 2200.43 481.476 Q2202.74 479.74 2202.74 476.429 Q2202.74 473.374 2200.59 471.661 Q2198.46 469.925 2194.64 469.925 L2190.61 469.925 L2190.61 466.082 L2194.83 466.082 Q2198.27 466.082 2200.1 464.717 Q2201.93 463.328 2201.93 460.735 Q2201.93 458.073 2200.03 456.661 Q2198.16 455.226 2194.64 455.226 Q2192.72 455.226 2190.52 455.643 Q2188.32 456.059 2185.68 456.939 L2185.68 452.772 Q2188.34 452.031 2190.66 451.661 Q2193 451.291 2195.06 451.291 Q2200.38 451.291 2203.48 453.721 Q2206.58 456.129 2206.58 460.249 Q2206.58 463.119 2204.94 465.11 Q2203.3 467.078 2200.27 467.842 Z" fill="#adb2b7" fill-rule="evenodd" fill-opacity="1" /><path clip-path="url(#clip200)" d="M 0 0 M2226.63 467.842 Q2229.99 468.559 2231.86 470.828 Q2233.76 473.096 2233.76 476.429 Q2233.76 481.545 2230.24 484.346 Q2226.72 487.147 2220.24 487.147 Q2218.07 487.147 2215.75 486.707 Q2213.46 486.291 2211.01 485.434 L2211.01 480.92 Q2212.95 482.054 2215.27 482.633 Q2217.58 483.212 2220.1 483.212 Q2224.5 483.212 2226.79 481.476 Q2229.11 479.74 2229.11 476.429 Q2229.11 473.374 2226.95 471.661 Q2224.83 469.925 2221.01 469.925 L2216.98 469.925 L2216.98 466.082 L2221.19 466.082 Q2224.64 466.082 2226.47 464.717 Q2228.3 463.328 2228.3 460.735 Q2228.3 458.073 2226.4 456.661 Q2224.52 455.226 2221.01 455.226 Q2219.08 455.226 2216.89 455.643 Q2214.69 456.059 2212.05 456.939 L2212.05 452.772 Q2214.71 452.031 2217.02 451.661 Q2219.36 451.291 2221.42 451.291 Q2226.75 451.291 2229.85 453.721 Q2232.95 456.129 2232.95 460.249 Q2232.95 463.119 2231.31 465.11 Q2229.66 467.078 2226.63 467.842 Z" fill="#adb2b7" fill-rule="evenodd" fill-opacity="1" /><polyline clip-path="url(#clip200)" style="stroke:#dc3df1; stroke-width:4; stroke-opacity:1; fill:none" points="
  1900.17,529.676 2040.83,529.676 
  "/>
<path clip-path="url(#clip200)" d="M 0 0 M2071.68 513.669 L2071.68 521.03 L2080.45 521.03 L2080.45 524.34 L2071.68 524.34 L2071.68 538.414 Q2071.68 541.585 2072.53 542.488 Q2073.41 543.391 2076.08 543.391 L2080.45 543.391 L2080.45 546.956 L2076.08 546.956 Q2071.15 546.956 2069.27 545.127 Q2067.4 543.275 2067.4 538.414 L2067.4 524.34 L2064.27 524.34 L2064.27 521.03 L2067.4 521.03 L2067.4 513.669 L2071.68 513.669 Z" fill="#adb2b7" fill-rule="evenodd" fill-opacity="1" /><path clip-path="url(#clip200)" d="M 0 0 M2100.54 525.428 L2130.22 525.428 L2130.22 529.317 L2100.54 529.317 L2100.54 525.428 M2100.54 534.872 L2130.22 534.872 L2130.22 538.808 L2100.54 538.808 L2100.54 534.872 Z" fill="#adb2b7" fill-rule="evenodd" fill-opacity="1" /><path clip-path="url(#clip200)" d="M 0 0 M2151.17 543.021 L2158.81 543.021 L2158.81 516.655 L2150.5 518.322 L2150.5 514.062 L2158.76 512.396 L2163.44 512.396 L2163.44 543.021 L2171.08 543.021 L2171.08 546.956 L2151.17 546.956 L2151.17 543.021 Z" fill="#adb2b7" fill-rule="evenodd" fill-opacity="1" /><path clip-path="url(#clip200)" d="M 0 0 M2176.15 541.076 L2181.03 541.076 L2181.03 546.956 L2176.15 546.956 L2176.15 541.076 Z" fill="#adb2b7" fill-rule="evenodd" fill-opacity="1" /><path clip-path="url(#clip200)" d="M 0 0 M2196.68 527.812 Q2193.53 527.812 2191.68 529.965 Q2189.85 532.118 2189.85 535.868 Q2189.85 539.595 2191.68 541.771 Q2193.53 543.923 2196.68 543.923 Q2199.83 543.923 2201.65 541.771 Q2203.51 539.595 2203.51 535.868 Q2203.51 532.118 2201.65 529.965 Q2199.83 527.812 2196.68 527.812 M2205.96 513.16 L2205.96 517.419 Q2204.2 516.586 2202.39 516.146 Q2200.61 515.706 2198.85 515.706 Q2194.22 515.706 2191.77 518.831 Q2189.34 521.956 2188.99 528.275 Q2190.36 526.261 2192.42 525.197 Q2194.48 524.109 2196.96 524.109 Q2202.16 524.109 2205.17 527.28 Q2208.21 530.428 2208.21 535.868 Q2208.21 541.192 2205.06 544.409 Q2201.91 547.627 2196.68 547.627 Q2190.68 547.627 2187.51 543.044 Q2184.34 538.437 2184.34 529.71 Q2184.34 521.516 2188.23 516.655 Q2192.12 511.771 2198.67 511.771 Q2200.43 511.771 2202.21 512.118 Q2204.02 512.465 2205.96 513.16 Z" fill="#adb2b7" fill-rule="evenodd" fill-opacity="1" /><path clip-path="url(#clip200)" d="M 0 0 M2212.09 512.396 L2234.32 512.396 L2234.32 514.386 L2221.77 546.956 L2216.89 546.956 L2228.69 516.331 L2212.09 516.331 L2212.09 512.396 Z" fill="#adb2b7" fill-rule="evenodd" fill-opacity="1" /><polyline clip-path="url(#clip200)" style="stroke:#759500; stroke-width:4; stroke-opacity:1; fill:none" points="
  1900.17,590.156 2040.83,590.156 
  "/>
<path clip-path="url(#clip200)" d="M 0 0 M2071.68 574.149 L2071.68 581.51 L2080.45 581.51 L2080.45 584.82 L2071.68 584.82 L2071.68 598.894 Q2071.68 602.065 2072.53 602.968 Q2073.41 603.871 2076.08 603.871 L2080.45 603.871 L2080.45 607.436 L2076.08 607.436 Q2071.15 607.436 2069.27 605.607 Q2067.4 603.755 2067.4 598.894 L2067.4 584.82 L2064.27 584.82 L2064.27 581.51 L2067.4 581.51 L2067.4 574.149 L2071.68 574.149 Z" fill="#adb2b7" fill-rule="evenodd" fill-opacity="1" /><path clip-path="url(#clip200)" d="M 0 0 M2100.54 585.908 L2130.22 585.908 L2130.22 589.797 L2100.54 589.797 L2100.54 585.908 M2100.54 595.352 L2130.22 595.352 L2130.22 599.288 L2100.54 599.288 L2100.54 595.352 Z" fill="#adb2b7" fill-rule="evenodd" fill-opacity="1" /><path clip-path="url(#clip200)" d="M 0 0 M2154.39 603.501 L2170.71 603.501 L2170.71 607.436 L2148.76 607.436 L2148.76 603.501 Q2151.42 600.746 2156.01 596.116 Q2160.61 591.464 2161.79 590.121 Q2164.04 587.598 2164.92 585.862 Q2165.82 584.103 2165.82 582.413 Q2165.82 579.658 2163.88 577.922 Q2161.96 576.186 2158.85 576.186 Q2156.65 576.186 2154.2 576.95 Q2151.77 577.714 2148.99 579.265 L2148.99 574.542 Q2151.82 573.408 2154.27 572.829 Q2156.72 572.251 2158.76 572.251 Q2164.13 572.251 2167.33 574.936 Q2170.52 577.621 2170.52 582.112 Q2170.52 584.241 2169.71 586.163 Q2168.92 588.061 2166.82 590.653 Q2166.24 591.325 2163.14 594.542 Q2160.03 597.737 2154.39 603.501 Z" fill="#adb2b7" fill-rule="evenodd" fill-opacity="1" /><path clip-path="url(#clip200)" d="M 0 0 M2175.77 601.556 L2180.66 601.556 L2180.66 607.436 L2175.77 607.436 L2175.77 601.556 Z" fill="#adb2b7" fill-rule="evenodd" fill-opacity="1" /><path clip-path="url(#clip200)" d="M 0 0 M2195.73 575.954 Q2192.12 575.954 2190.29 579.519 Q2188.48 583.061 2188.48 590.19 Q2188.48 597.297 2190.29 600.862 Q2192.12 604.403 2195.73 604.403 Q2199.36 604.403 2201.17 600.862 Q2203 597.297 2203 590.19 Q2203 583.061 2201.17 579.519 Q2199.36 575.954 2195.73 575.954 M2195.73 572.251 Q2201.54 572.251 2204.59 576.857 Q2207.67 581.44 2207.67 590.19 Q2207.67 598.917 2204.59 603.524 Q2201.54 608.107 2195.73 608.107 Q2189.92 608.107 2186.84 603.524 Q2183.78 598.917 2183.78 590.19 Q2183.78 581.44 2186.84 576.857 Q2189.92 572.251 2195.73 572.251 Z" fill="#adb2b7" fill-rule="evenodd" fill-opacity="1" /></svg>
