<?xml version="1.0" encoding="utf-8"?>
<svg xmlns="http://www.w3.org/2000/svg" xmlns:xlink="http://www.w3.org/1999/xlink" width="600" height="400" viewBox="0 0 2400 1600">
<defs>
  <clipPath id="clip230">
    <rect x="0" y="0" width="2400" height="1600"/>
  </clipPath>
</defs>
<path clip-path="url(#clip230)" d="
M0 1600 L2400 1600 L2400 0 L0 0  Z
  " fill="#282c34" fill-rule="evenodd" fill-opacity="1"/>
<defs>
  <clipPath id="clip231">
    <rect x="480" y="0" width="1681" height="1600"/>
  </clipPath>
</defs>
<path clip-path="url(#clip230)" d="
M242.922 1423.18 L2352.76 1423.18 L2352.76 123.472 L242.922 123.472  Z
  " fill="#21252b" fill-rule="evenodd" fill-opacity="1"/>
<defs>
  <clipPath id="clip232">
    <rect x="242" y="123" width="2111" height="1301"/>
  </clipPath>
</defs>
<polyline clip-path="url(#clip232)" style="stroke:#adb2b7; stroke-width:2; stroke-opacity:0.1; fill:none" points="
  302.634,1423.18 302.634,123.472 
  "/>
<polyline clip-path="url(#clip232)" style="stroke:#adb2b7; stroke-width:2; stroke-opacity:0.1; fill:none" points="
  800.236,1423.18 800.236,123.472 
  "/>
<polyline clip-path="url(#clip232)" style="stroke:#adb2b7; stroke-width:2; stroke-opacity:0.1; fill:none" points="
  1297.84,1423.18 1297.84,123.472 
  "/>
<polyline clip-path="url(#clip232)" style="stroke:#adb2b7; stroke-width:2; stroke-opacity:0.1; fill:none" points="
  1795.44,1423.18 1795.44,123.472 
  "/>
<polyline clip-path="url(#clip232)" style="stroke:#adb2b7; stroke-width:2; stroke-opacity:0.1; fill:none" points="
  2293.04,1423.18 2293.04,123.472 
  "/>
<polyline clip-path="url(#clip230)" style="stroke:#adb2b7; stroke-width:4; stroke-opacity:1; fill:none" points="
  242.922,1423.18 2352.76,1423.18 
  "/>
<polyline clip-path="url(#clip230)" style="stroke:#adb2b7; stroke-width:4; stroke-opacity:1; fill:none" points="
  302.634,1423.18 302.634,1407.58 
  "/>
<polyline clip-path="url(#clip230)" style="stroke:#adb2b7; stroke-width:4; stroke-opacity:1; fill:none" points="
  800.236,1423.18 800.236,1407.58 
  "/>
<polyline clip-path="url(#clip230)" style="stroke:#adb2b7; stroke-width:4; stroke-opacity:1; fill:none" points="
  1297.84,1423.18 1297.84,1407.58 
  "/>
<polyline clip-path="url(#clip230)" style="stroke:#adb2b7; stroke-width:4; stroke-opacity:1; fill:none" points="
  1795.44,1423.18 1795.44,1407.58 
  "/>
<polyline clip-path="url(#clip230)" style="stroke:#adb2b7; stroke-width:4; stroke-opacity:1; fill:none" points="
  2293.04,1423.18 2293.04,1407.58 
  "/>
<path clip-path="url(#clip230)" d="M 0 0 M270.643 1452.37 Q267.032 1452.37 265.204 1455.94 Q263.398 1459.48 263.398 1466.61 Q263.398 1473.71 265.204 1477.28 Q267.032 1480.82 270.643 1480.82 Q274.278 1480.82 276.083 1477.28 Q277.912 1473.71 277.912 1466.61 Q277.912 1459.48 276.083 1455.94 Q274.278 1452.37 270.643 1452.37 M270.643 1448.67 Q276.454 1448.67 279.509 1453.27 Q282.588 1457.86 282.588 1466.61 Q282.588 1475.33 279.509 1479.94 Q276.454 1484.52 270.643 1484.52 Q264.833 1484.52 261.755 1479.94 Q258.699 1475.33 258.699 1466.61 Q258.699 1457.86 261.755 1453.27 Q264.833 1448.67 270.643 1448.67 Z" fill="#9eb1be" fill-rule="evenodd" fill-opacity="1" /><path clip-path="url(#clip230)" d="M 0 0 M287.657 1477.97 L292.541 1477.97 L292.541 1483.85 L287.657 1483.85 L287.657 1477.97 Z" fill="#9eb1be" fill-rule="evenodd" fill-opacity="1" /><path clip-path="url(#clip230)" d="M 0 0 M307.611 1452.37 Q304 1452.37 302.171 1455.94 Q300.365 1459.48 300.365 1466.61 Q300.365 1473.71 302.171 1477.28 Q304 1480.82 307.611 1480.82 Q311.245 1480.82 313.051 1477.28 Q314.879 1473.71 314.879 1466.61 Q314.879 1459.48 313.051 1455.94 Q311.245 1452.37 307.611 1452.37 M307.611 1448.67 Q313.421 1448.67 316.477 1453.27 Q319.555 1457.86 319.555 1466.61 Q319.555 1475.33 316.477 1479.94 Q313.421 1484.52 307.611 1484.52 Q301.801 1484.52 298.722 1479.94 Q295.666 1475.33 295.666 1466.61 Q295.666 1457.86 298.722 1453.27 Q301.801 1448.67 307.611 1448.67 Z" fill="#9eb1be" fill-rule="evenodd" fill-opacity="1" /><path clip-path="url(#clip230)" d="M 0 0 M334.625 1452.37 Q331.013 1452.37 329.185 1455.94 Q327.379 1459.48 327.379 1466.61 Q327.379 1473.71 329.185 1477.28 Q331.013 1480.82 334.625 1480.82 Q338.259 1480.82 340.064 1477.28 Q341.893 1473.71 341.893 1466.61 Q341.893 1459.48 340.064 1455.94 Q338.259 1452.37 334.625 1452.37 M334.625 1448.67 Q340.435 1448.67 343.49 1453.27 Q346.569 1457.86 346.569 1466.61 Q346.569 1475.33 343.49 1479.94 Q340.435 1484.52 334.625 1484.52 Q328.814 1484.52 325.736 1479.94 Q322.68 1475.33 322.68 1466.61 Q322.68 1457.86 325.736 1453.27 Q328.814 1448.67 334.625 1448.67 Z" fill="#9eb1be" fill-rule="evenodd" fill-opacity="1" /><path clip-path="url(#clip230)" d="M 0 0 M769.542 1452.37 Q765.931 1452.37 764.102 1455.94 Q762.297 1459.48 762.297 1466.61 Q762.297 1473.71 764.102 1477.28 Q765.931 1480.82 769.542 1480.82 Q773.176 1480.82 774.982 1477.28 Q776.811 1473.71 776.811 1466.61 Q776.811 1459.48 774.982 1455.94 Q773.176 1452.37 769.542 1452.37 M769.542 1448.67 Q775.352 1448.67 778.408 1453.27 Q781.486 1457.86 781.486 1466.61 Q781.486 1475.33 778.408 1479.94 Q775.352 1484.52 769.542 1484.52 Q763.732 1484.52 760.653 1479.94 Q757.598 1475.33 757.598 1466.61 Q757.598 1457.86 760.653 1453.27 Q763.732 1448.67 769.542 1448.67 Z" fill="#9eb1be" fill-rule="evenodd" fill-opacity="1" /><path clip-path="url(#clip230)" d="M 0 0 M786.556 1477.97 L791.44 1477.97 L791.44 1483.85 L786.556 1483.85 L786.556 1477.97 Z" fill="#9eb1be" fill-rule="evenodd" fill-opacity="1" /><path clip-path="url(#clip230)" d="M 0 0 M800.537 1479.92 L816.857 1479.92 L816.857 1483.85 L794.912 1483.85 L794.912 1479.92 Q797.574 1477.16 802.158 1472.53 Q806.764 1467.88 807.945 1466.54 Q810.19 1464.01 811.07 1462.28 Q811.972 1460.52 811.972 1458.83 Q811.972 1456.07 810.028 1454.34 Q808.107 1452.6 805.005 1452.6 Q802.806 1452.6 800.352 1453.37 Q797.922 1454.13 795.144 1455.68 L795.144 1450.96 Q797.968 1449.82 800.422 1449.25 Q802.875 1448.67 804.912 1448.67 Q810.283 1448.67 813.477 1451.35 Q816.671 1454.04 816.671 1458.53 Q816.671 1460.66 815.861 1462.58 Q815.074 1464.48 812.968 1467.07 Q812.389 1467.74 809.287 1470.96 Q806.185 1474.15 800.537 1479.92 Z" fill="#9eb1be" fill-rule="evenodd" fill-opacity="1" /><path clip-path="url(#clip230)" d="M 0 0 M821.972 1449.29 L840.329 1449.29 L840.329 1453.23 L826.255 1453.23 L826.255 1461.7 Q827.273 1461.35 828.292 1461.19 Q829.31 1461 830.329 1461 Q836.116 1461 839.495 1464.18 Q842.875 1467.35 842.875 1472.76 Q842.875 1478.34 839.403 1481.44 Q835.931 1484.52 829.611 1484.52 Q827.435 1484.52 825.167 1484.15 Q822.921 1483.78 820.514 1483.04 L820.514 1478.34 Q822.597 1479.48 824.82 1480.03 Q827.042 1480.59 829.519 1480.59 Q833.523 1480.59 835.861 1478.48 Q838.199 1476.38 838.199 1472.76 Q838.199 1469.15 835.861 1467.05 Q833.523 1464.94 829.519 1464.94 Q827.644 1464.94 825.769 1465.36 Q823.917 1465.77 821.972 1466.65 L821.972 1449.29 Z" fill="#9eb1be" fill-rule="evenodd" fill-opacity="1" /><path clip-path="url(#clip230)" d="M 0 0 M1266.35 1452.37 Q1262.73 1452.37 1260.91 1455.94 Q1259.1 1459.48 1259.1 1466.61 Q1259.1 1473.71 1260.91 1477.28 Q1262.73 1480.82 1266.35 1480.82 Q1269.98 1480.82 1271.79 1477.28 Q1273.61 1473.71 1273.61 1466.61 Q1273.61 1459.48 1271.79 1455.94 Q1269.98 1452.37 1266.35 1452.37 M1266.35 1448.67 Q1272.16 1448.67 1275.21 1453.27 Q1278.29 1457.86 1278.29 1466.61 Q1278.29 1475.33 1275.21 1479.94 Q1272.16 1484.52 1266.35 1484.52 Q1260.54 1484.52 1257.46 1479.94 Q1254.4 1475.33 1254.4 1466.61 Q1254.4 1457.86 1257.46 1453.27 Q1260.54 1448.67 1266.35 1448.67 Z" fill="#9eb1be" fill-rule="evenodd" fill-opacity="1" /><path clip-path="url(#clip230)" d="M 0 0 M1283.36 1477.97 L1288.24 1477.97 L1288.24 1483.85 L1283.36 1483.85 L1283.36 1477.97 Z" fill="#9eb1be" fill-rule="evenodd" fill-opacity="1" /><path clip-path="url(#clip230)" d="M 0 0 M1293.36 1449.29 L1311.72 1449.29 L1311.72 1453.23 L1297.64 1453.23 L1297.64 1461.7 Q1298.66 1461.35 1299.68 1461.19 Q1300.7 1461 1301.72 1461 Q1307.5 1461 1310.88 1464.18 Q1314.26 1467.35 1314.26 1472.76 Q1314.26 1478.34 1310.79 1481.44 Q1307.32 1484.52 1301 1484.52 Q1298.82 1484.52 1296.55 1484.15 Q1294.31 1483.78 1291.9 1483.04 L1291.9 1478.34 Q1293.98 1479.48 1296.21 1480.03 Q1298.43 1480.59 1300.91 1480.59 Q1304.91 1480.59 1307.25 1478.48 Q1309.59 1476.38 1309.59 1472.76 Q1309.59 1469.15 1307.25 1467.05 Q1304.91 1464.94 1300.91 1464.94 Q1299.03 1464.94 1297.16 1465.36 Q1295.3 1465.77 1293.36 1466.65 L1293.36 1449.29 Z" fill="#9eb1be" fill-rule="evenodd" fill-opacity="1" /><path clip-path="url(#clip230)" d="M 0 0 M1329.33 1452.37 Q1325.72 1452.37 1323.89 1455.94 Q1322.09 1459.48 1322.09 1466.61 Q1322.09 1473.71 1323.89 1477.28 Q1325.72 1480.82 1329.33 1480.82 Q1332.97 1480.82 1334.77 1477.28 Q1336.6 1473.71 1336.6 1466.61 Q1336.6 1459.48 1334.77 1455.94 Q1332.97 1452.37 1329.33 1452.37 M1329.33 1448.67 Q1335.14 1448.67 1338.2 1453.27 Q1341.28 1457.86 1341.28 1466.61 Q1341.28 1475.33 1338.2 1479.94 Q1335.14 1484.52 1329.33 1484.52 Q1323.52 1484.52 1320.44 1479.94 Q1317.39 1475.33 1317.39 1466.61 Q1317.39 1457.86 1320.44 1453.27 Q1323.52 1448.67 1329.33 1448.67 Z" fill="#9eb1be" fill-rule="evenodd" fill-opacity="1" /><path clip-path="url(#clip230)" d="M 0 0 M1764.4 1452.37 Q1760.79 1452.37 1758.96 1455.94 Q1757.15 1459.48 1757.15 1466.61 Q1757.15 1473.71 1758.96 1477.28 Q1760.79 1480.82 1764.4 1480.82 Q1768.03 1480.82 1769.84 1477.28 Q1771.67 1473.71 1771.67 1466.61 Q1771.67 1459.48 1769.84 1455.94 Q1768.03 1452.37 1764.4 1452.37 M1764.4 1448.67 Q1770.21 1448.67 1773.27 1453.27 Q1776.34 1457.86 1776.34 1466.61 Q1776.34 1475.33 1773.27 1479.94 Q1770.21 1484.52 1764.4 1484.52 Q1758.59 1484.52 1755.51 1479.94 Q1752.46 1475.33 1752.46 1466.61 Q1752.46 1457.86 1755.51 1453.27 Q1758.59 1448.67 1764.4 1448.67 Z" fill="#9eb1be" fill-rule="evenodd" fill-opacity="1" /><path clip-path="url(#clip230)" d="M 0 0 M1781.41 1477.97 L1786.3 1477.97 L1786.3 1483.85 L1781.41 1483.85 L1781.41 1477.97 Z" fill="#9eb1be" fill-rule="evenodd" fill-opacity="1" /><path clip-path="url(#clip230)" d="M 0 0 M1790.19 1449.29 L1812.41 1449.29 L1812.41 1451.28 L1799.86 1483.85 L1794.98 1483.85 L1806.78 1453.23 L1790.19 1453.23 L1790.19 1449.29 Z" fill="#9eb1be" fill-rule="evenodd" fill-opacity="1" /><path clip-path="url(#clip230)" d="M 0 0 M1817.52 1449.29 L1835.88 1449.29 L1835.88 1453.23 L1821.81 1453.23 L1821.81 1461.7 Q1822.83 1461.35 1823.84 1461.19 Q1824.86 1461 1825.88 1461 Q1831.67 1461 1835.05 1464.18 Q1838.43 1467.35 1838.43 1472.76 Q1838.43 1478.34 1834.95 1481.44 Q1831.48 1484.52 1825.16 1484.52 Q1822.99 1484.52 1820.72 1484.15 Q1818.47 1483.78 1816.07 1483.04 L1816.07 1478.34 Q1818.15 1479.48 1820.37 1480.03 Q1822.59 1480.59 1825.07 1480.59 Q1829.08 1480.59 1831.41 1478.48 Q1833.75 1476.38 1833.75 1472.76 Q1833.75 1469.15 1831.41 1467.05 Q1829.08 1464.94 1825.07 1464.94 Q1823.2 1464.94 1821.32 1465.36 Q1819.47 1465.77 1817.52 1466.65 L1817.52 1449.29 Z" fill="#9eb1be" fill-rule="evenodd" fill-opacity="1" /><path clip-path="url(#clip230)" d="M 0 0 M2251.44 1479.92 L2259.07 1479.92 L2259.07 1453.55 L2250.76 1455.22 L2250.76 1450.96 L2259.03 1449.29 L2263.7 1449.29 L2263.7 1479.92 L2271.34 1479.92 L2271.34 1483.85 L2251.44 1483.85 L2251.44 1479.92 Z" fill="#9eb1be" fill-rule="evenodd" fill-opacity="1" /><path clip-path="url(#clip230)" d="M 0 0 M2276.41 1477.97 L2281.3 1477.97 L2281.3 1483.85 L2276.41 1483.85 L2276.41 1477.97 Z" fill="#9eb1be" fill-rule="evenodd" fill-opacity="1" /><path clip-path="url(#clip230)" d="M 0 0 M2296.37 1452.37 Q2292.75 1452.37 2290.93 1455.94 Q2289.12 1459.48 2289.12 1466.61 Q2289.12 1473.71 2290.93 1477.28 Q2292.75 1480.82 2296.37 1480.82 Q2300 1480.82 2301.81 1477.28 Q2303.63 1473.71 2303.63 1466.61 Q2303.63 1459.48 2301.81 1455.94 Q2300 1452.37 2296.37 1452.37 M2296.37 1448.67 Q2302.18 1448.67 2305.23 1453.27 Q2308.31 1457.86 2308.31 1466.61 Q2308.31 1475.33 2305.23 1479.94 Q2302.18 1484.52 2296.37 1484.52 Q2290.56 1484.52 2287.48 1479.94 Q2284.42 1475.33 2284.42 1466.61 Q2284.42 1457.86 2287.48 1453.27 Q2290.56 1448.67 2296.37 1448.67 Z" fill="#9eb1be" fill-rule="evenodd" fill-opacity="1" /><path clip-path="url(#clip230)" d="M 0 0 M2323.38 1452.37 Q2319.77 1452.37 2317.94 1455.94 Q2316.13 1459.48 2316.13 1466.61 Q2316.13 1473.71 2317.94 1477.28 Q2319.77 1480.82 2323.38 1480.82 Q2327.01 1480.82 2328.82 1477.28 Q2330.65 1473.71 2330.65 1466.61 Q2330.65 1459.48 2328.82 1455.94 Q2327.01 1452.37 2323.38 1452.37 M2323.38 1448.67 Q2329.19 1448.67 2332.24 1453.27 Q2335.32 1457.86 2335.32 1466.61 Q2335.32 1475.33 2332.24 1479.94 Q2329.19 1484.52 2323.38 1484.52 Q2317.57 1484.52 2314.49 1479.94 Q2311.43 1475.33 2311.43 1466.61 Q2311.43 1457.86 2314.49 1453.27 Q2317.57 1448.67 2323.38 1448.67 Z" fill="#9eb1be" fill-rule="evenodd" fill-opacity="1" /><path clip-path="url(#clip230)" d="M 0 0 M1314.45 1532.4 L1301.56 1549.74 L1315.12 1568.04 L1308.21 1568.04 L1297.84 1554.04 L1287.46 1568.04 L1280.56 1568.04 L1294.4 1549.39 L1281.73 1532.4 L1288.64 1532.4 L1298.09 1545.1 L1307.55 1532.4 L1314.45 1532.4 Z" fill="#9eb1be" fill-rule="evenodd" fill-opacity="1" /><polyline clip-path="url(#clip232)" style="stroke:#adb2b7; stroke-width:2; stroke-opacity:0.1; fill:none" points="
  242.922,1387.1 2352.76,1387.1 
  "/>
<polyline clip-path="url(#clip232)" style="stroke:#adb2b7; stroke-width:2; stroke-opacity:0.1; fill:none" points="
  242.922,1074.31 2352.76,1074.31 
  "/>
<polyline clip-path="url(#clip232)" style="stroke:#adb2b7; stroke-width:2; stroke-opacity:0.1; fill:none" points="
  242.922,761.507 2352.76,761.507 
  "/>
<polyline clip-path="url(#clip232)" style="stroke:#adb2b7; stroke-width:2; stroke-opacity:0.1; fill:none" points="
  242.922,448.708 2352.76,448.708 
  "/>
<polyline clip-path="url(#clip232)" style="stroke:#adb2b7; stroke-width:2; stroke-opacity:0.1; fill:none" points="
  242.922,135.91 2352.76,135.91 
  "/>
<polyline clip-path="url(#clip230)" style="stroke:#adb2b7; stroke-width:4; stroke-opacity:1; fill:none" points="
  242.922,1423.18 242.922,123.472 
  "/>
<polyline clip-path="url(#clip230)" style="stroke:#adb2b7; stroke-width:4; stroke-opacity:1; fill:none" points="
  242.922,1387.1 268.24,1387.1 
  "/>
<polyline clip-path="url(#clip230)" style="stroke:#adb2b7; stroke-width:4; stroke-opacity:1; fill:none" points="
  242.922,1074.31 268.24,1074.31 
  "/>
<polyline clip-path="url(#clip230)" style="stroke:#adb2b7; stroke-width:4; stroke-opacity:1; fill:none" points="
  242.922,761.507 268.24,761.507 
  "/>
<polyline clip-path="url(#clip230)" style="stroke:#adb2b7; stroke-width:4; stroke-opacity:1; fill:none" points="
  242.922,448.708 268.24,448.708 
  "/>
<polyline clip-path="url(#clip230)" style="stroke:#adb2b7; stroke-width:4; stroke-opacity:1; fill:none" points="
  242.922,135.91 268.24,135.91 
  "/>
<path clip-path="url(#clip230)" d="M 0 0 M114.492 1387.56 L144.167 1387.56 L144.167 1391.49 L114.492 1391.49 L114.492 1387.56 Z" fill="#9eb1be" fill-rule="evenodd" fill-opacity="1" /><path clip-path="url(#clip230)" d="M 0 0 M150.047 1400.45 L157.686 1400.45 L157.686 1374.08 L149.376 1375.75 L149.376 1371.49 L157.64 1369.82 L162.315 1369.82 L162.315 1400.45 L169.954 1400.45 L169.954 1404.38 L150.047 1404.38 L150.047 1400.45 Z" fill="#9eb1be" fill-rule="evenodd" fill-opacity="1" /><path clip-path="url(#clip230)" d="M 0 0 M175.024 1398.5 L179.908 1398.5 L179.908 1404.38 L175.024 1404.38 L175.024 1398.5 Z" fill="#9eb1be" fill-rule="evenodd" fill-opacity="1" /><path clip-path="url(#clip230)" d="M 0 0 M194.977 1372.9 Q191.366 1372.9 189.538 1376.47 Q187.732 1380.01 187.732 1387.14 Q187.732 1394.25 189.538 1397.81 Q191.366 1401.35 194.977 1401.35 Q198.612 1401.35 200.417 1397.81 Q202.246 1394.25 202.246 1387.14 Q202.246 1380.01 200.417 1376.47 Q198.612 1372.9 194.977 1372.9 M194.977 1369.2 Q200.787 1369.2 203.843 1373.81 Q206.922 1378.39 206.922 1387.14 Q206.922 1395.87 203.843 1400.47 Q200.787 1405.06 194.977 1405.06 Q189.167 1405.06 186.088 1400.47 Q183.033 1395.87 183.033 1387.14 Q183.033 1378.39 186.088 1373.81 Q189.167 1369.2 194.977 1369.2 Z" fill="#9eb1be" fill-rule="evenodd" fill-opacity="1" /><path clip-path="url(#clip230)" d="M 0 0 M114.26 1074.76 L143.936 1074.76 L143.936 1078.69 L114.26 1078.69 L114.26 1074.76 Z" fill="#9eb1be" fill-rule="evenodd" fill-opacity="1" /><path clip-path="url(#clip230)" d="M 0 0 M159.005 1060.1 Q155.394 1060.1 153.566 1063.67 Q151.76 1067.21 151.76 1074.34 Q151.76 1081.45 153.566 1085.01 Q155.394 1088.55 159.005 1088.55 Q162.64 1088.55 164.445 1085.01 Q166.274 1081.45 166.274 1074.34 Q166.274 1067.21 164.445 1063.67 Q162.64 1060.1 159.005 1060.1 M159.005 1056.4 Q164.815 1056.4 167.871 1061.01 Q170.95 1065.59 170.95 1074.34 Q170.95 1083.07 167.871 1087.67 Q164.815 1092.26 159.005 1092.26 Q153.195 1092.26 150.116 1087.67 Q147.061 1083.07 147.061 1074.34 Q147.061 1065.59 150.116 1061.01 Q153.195 1056.4 159.005 1056.4 Z" fill="#9eb1be" fill-rule="evenodd" fill-opacity="1" /><path clip-path="url(#clip230)" d="M 0 0 M176.019 1085.71 L180.903 1085.71 L180.903 1091.59 L176.019 1091.59 L176.019 1085.71 Z" fill="#9eb1be" fill-rule="evenodd" fill-opacity="1" /><path clip-path="url(#clip230)" d="M 0 0 M186.019 1057.03 L204.375 1057.03 L204.375 1060.96 L190.301 1060.96 L190.301 1069.43 Q191.32 1069.09 192.338 1068.92 Q193.357 1068.74 194.375 1068.74 Q200.162 1068.74 203.542 1071.91 Q206.922 1075.08 206.922 1080.5 Q206.922 1086.08 203.449 1089.18 Q199.977 1092.26 193.658 1092.26 Q191.482 1092.26 189.213 1091.89 Q186.968 1091.52 184.561 1090.78 L184.561 1086.08 Q186.644 1087.21 188.866 1087.77 Q191.088 1088.32 193.565 1088.32 Q197.57 1088.32 199.908 1086.22 Q202.246 1084.11 202.246 1080.5 Q202.246 1076.89 199.908 1074.78 Q197.57 1072.67 193.565 1072.67 Q191.69 1072.67 189.815 1073.09 Q187.963 1073.51 186.019 1074.39 L186.019 1057.03 Z" fill="#9eb1be" fill-rule="evenodd" fill-opacity="1" /><path clip-path="url(#clip230)" d="M 0 0 M158.01 747.306 Q154.399 747.306 152.57 750.87 Q150.765 754.412 150.765 761.542 Q150.765 768.648 152.57 772.213 Q154.399 775.755 158.01 775.755 Q161.644 775.755 163.45 772.213 Q165.278 768.648 165.278 761.542 Q165.278 754.412 163.45 750.87 Q161.644 747.306 158.01 747.306 M158.01 743.602 Q163.82 743.602 166.876 748.208 Q169.954 752.792 169.954 761.542 Q169.954 770.268 166.876 774.875 Q163.82 779.458 158.01 779.458 Q152.2 779.458 149.121 774.875 Q146.066 770.268 146.066 761.542 Q146.066 752.792 149.121 748.208 Q152.2 743.602 158.01 743.602 Z" fill="#9eb1be" fill-rule="evenodd" fill-opacity="1" /><path clip-path="url(#clip230)" d="M 0 0 M175.024 772.907 L179.908 772.907 L179.908 778.787 L175.024 778.787 L175.024 772.907 Z" fill="#9eb1be" fill-rule="evenodd" fill-opacity="1" /><path clip-path="url(#clip230)" d="M 0 0 M194.977 747.306 Q191.366 747.306 189.538 750.87 Q187.732 754.412 187.732 761.542 Q187.732 768.648 189.538 772.213 Q191.366 775.755 194.977 775.755 Q198.612 775.755 200.417 772.213 Q202.246 768.648 202.246 761.542 Q202.246 754.412 200.417 750.87 Q198.612 747.306 194.977 747.306 M194.977 743.602 Q200.787 743.602 203.843 748.208 Q206.922 752.792 206.922 761.542 Q206.922 770.268 203.843 774.875 Q200.787 779.458 194.977 779.458 Q189.167 779.458 186.088 774.875 Q183.033 770.268 183.033 761.542 Q183.033 752.792 186.088 748.208 Q189.167 743.602 194.977 743.602 Z" fill="#9eb1be" fill-rule="evenodd" fill-opacity="1" /><path clip-path="url(#clip230)" d="M 0 0 M159.005 434.507 Q155.394 434.507 153.566 438.072 Q151.76 441.613 151.76 448.743 Q151.76 455.849 153.566 459.414 Q155.394 462.956 159.005 462.956 Q162.64 462.956 164.445 459.414 Q166.274 455.849 166.274 448.743 Q166.274 441.613 164.445 438.072 Q162.64 434.507 159.005 434.507 M159.005 430.803 Q164.815 430.803 167.871 435.41 Q170.95 439.993 170.95 448.743 Q170.95 457.47 167.871 462.076 Q164.815 466.66 159.005 466.66 Q153.195 466.66 150.116 462.076 Q147.061 457.47 147.061 448.743 Q147.061 439.993 150.116 435.41 Q153.195 430.803 159.005 430.803 Z" fill="#9eb1be" fill-rule="evenodd" fill-opacity="1" /><path clip-path="url(#clip230)" d="M 0 0 M176.019 460.109 L180.903 460.109 L180.903 465.988 L176.019 465.988 L176.019 460.109 Z" fill="#9eb1be" fill-rule="evenodd" fill-opacity="1" /><path clip-path="url(#clip230)" d="M 0 0 M186.019 431.428 L204.375 431.428 L204.375 435.363 L190.301 435.363 L190.301 443.836 Q191.32 443.488 192.338 443.326 Q193.357 443.141 194.375 443.141 Q200.162 443.141 203.542 446.312 Q206.922 449.484 206.922 454.9 Q206.922 460.479 203.449 463.581 Q199.977 466.66 193.658 466.66 Q191.482 466.66 189.213 466.289 Q186.968 465.919 184.561 465.178 L184.561 460.479 Q186.644 461.613 188.866 462.169 Q191.088 462.724 193.565 462.724 Q197.57 462.724 199.908 460.618 Q202.246 458.511 202.246 454.9 Q202.246 451.289 199.908 449.183 Q197.57 447.076 193.565 447.076 Q191.69 447.076 189.815 447.493 Q187.963 447.91 186.019 448.789 L186.019 431.428 Z" fill="#9eb1be" fill-rule="evenodd" fill-opacity="1" /><path clip-path="url(#clip230)" d="M 0 0 M150.047 149.254 L157.686 149.254 L157.686 122.889 L149.376 124.556 L149.376 120.296 L157.64 118.63 L162.315 118.63 L162.315 149.254 L169.954 149.254 L169.954 153.19 L150.047 153.19 L150.047 149.254 Z" fill="#9eb1be" fill-rule="evenodd" fill-opacity="1" /><path clip-path="url(#clip230)" d="M 0 0 M175.024 147.31 L179.908 147.31 L179.908 153.19 L175.024 153.19 L175.024 147.31 Z" fill="#9eb1be" fill-rule="evenodd" fill-opacity="1" /><path clip-path="url(#clip230)" d="M 0 0 M194.977 121.708 Q191.366 121.708 189.538 125.273 Q187.732 128.815 187.732 135.944 Q187.732 143.051 189.538 146.616 Q191.366 150.157 194.977 150.157 Q198.612 150.157 200.417 146.616 Q202.246 143.051 202.246 135.944 Q202.246 128.815 200.417 125.273 Q198.612 121.708 194.977 121.708 M194.977 118.005 Q200.787 118.005 203.843 122.611 Q206.922 127.194 206.922 135.944 Q206.922 144.671 203.843 149.278 Q200.787 153.861 194.977 153.861 Q189.167 153.861 186.088 149.278 Q183.033 144.671 183.033 135.944 Q183.033 127.194 186.088 122.611 Q189.167 118.005 194.977 118.005 Z" fill="#9eb1be" fill-rule="evenodd" fill-opacity="1" /><path clip-path="url(#clip230)" d="M 0 0 M64.0042 776.541 Q59.7391 776.509 54.1373 776.541 Q54.1373 783.352 47.4533 789.336 Q40.9603 795.192 29.502 795.351 L16.4842 795.351 L16.4842 788.572 L29.502 788.572 Q38.4777 788.572 43.6976 784.434 Q48.1535 780.933 48.5991 776.541 L16.4842 776.541 L16.4842 770.111 L48.5991 770.111 Q48.1535 765.719 43.6976 762.218 Q38.4777 758.08 29.502 758.08 L16.4842 758.08 L16.4842 751.301 L29.502 751.301 Q40.9603 751.46 47.4533 757.316 Q54.1373 763.3 54.1373 770.111 Q56.429 770.143 64.0042 770.111 L64.0042 776.541 Z" fill="#9eb1be" fill-rule="evenodd" fill-opacity="1" /><path clip-path="url(#clip230)" d="M 0 0 M1132.6 27.2059 L1140.06 27.2059 L1140.06 72.576 L1132.6 72.576 L1132.6 27.2059 M1132.6 9.54393 L1140.06 9.54393 L1140.06 18.9825 L1132.6 18.9825 L1132.6 9.54393 Z" fill="#adb2b7" fill-rule="evenodd" fill-opacity="1" /><path clip-path="url(#clip230)" d="M 0 0 M1185.59 45.1919 L1185.59 72.576 L1178.13 72.576 L1178.13 45.4349 Q1178.13 38.994 1175.62 35.7938 Q1173.11 32.5936 1168.09 32.5936 Q1162.05 32.5936 1158.57 36.4419 Q1155.08 40.2903 1155.08 46.9338 L1155.08 72.576 L1147.59 72.576 L1147.59 27.2059 L1155.08 27.2059 L1155.08 34.2544 Q1157.76 30.163 1161.36 28.1376 Q1165.01 26.1121 1169.75 26.1121 Q1177.57 26.1121 1181.58 30.9732 Q1185.59 35.7938 1185.59 45.1919 Z" fill="#adb2b7" fill-rule="evenodd" fill-opacity="1" /><path clip-path="url(#clip230)" d="M 0 0 M1231.12 45.1919 L1231.12 72.576 L1223.67 72.576 L1223.67 45.4349 Q1223.67 38.994 1221.16 35.7938 Q1218.64 32.5936 1213.62 32.5936 Q1207.58 32.5936 1204.1 36.4419 Q1200.62 40.2903 1200.62 46.9338 L1200.62 72.576 L1193.12 72.576 L1193.12 27.2059 L1200.62 27.2059 L1200.62 34.2544 Q1203.29 30.163 1206.9 28.1376 Q1210.54 26.1121 1215.28 26.1121 Q1223.1 26.1121 1227.11 30.9732 Q1231.12 35.7938 1231.12 45.1919 Z" fill="#adb2b7" fill-rule="evenodd" fill-opacity="1" /><path clip-path="url(#clip230)" d="M 0 0 M1277.75 48.0275 L1277.75 51.6733 L1243.48 51.6733 Q1243.96 59.3701 1248.09 63.421 Q1252.27 67.4314 1259.68 67.4314 Q1263.97 67.4314 1267.98 66.3781 Q1272.03 65.3249 1276 63.2184 L1276 70.267 Q1271.99 71.9684 1267.78 72.8596 Q1263.57 73.7508 1259.23 73.7508 Q1248.38 73.7508 1242.02 67.4314 Q1235.7 61.1119 1235.7 50.3365 Q1235.7 39.1965 1241.69 32.6746 Q1247.73 26.1121 1257.94 26.1121 Q1267.09 26.1121 1272.4 32.0264 Q1277.75 37.9003 1277.75 48.0275 M1270.29 45.84 Q1270.21 39.7232 1266.85 36.0774 Q1263.53 32.4315 1258.02 32.4315 Q1251.78 32.4315 1248.01 35.9558 Q1244.29 39.4801 1243.72 45.8805 L1270.29 45.84 Z" fill="#adb2b7" fill-rule="evenodd" fill-opacity="1" /><path clip-path="url(#clip230)" d="M 0 0 M1311.85 34.1734 Q1310.6 33.4443 1309.1 33.1202 Q1307.64 32.7556 1305.86 32.7556 Q1299.54 32.7556 1296.14 36.8875 Q1292.78 40.9789 1292.78 48.6757 L1292.78 72.576 L1285.28 72.576 L1285.28 27.2059 L1292.78 27.2059 L1292.78 34.2544 Q1295.12 30.1225 1298.89 28.1376 Q1302.66 26.1121 1308.05 26.1121 Q1308.82 26.1121 1309.75 26.2337 Q1310.68 26.3147 1311.81 26.5172 L1311.85 34.1734 Z" fill="#adb2b7" fill-rule="evenodd" fill-opacity="1" /><path clip-path="url(#clip230)" d="M 0 0 M1354.15 86.3491 L1354.15 92.1419 L1311.04 92.1419 L1311.04 86.3491 L1354.15 86.3491 Z" fill="#adb2b7" fill-rule="evenodd" fill-opacity="1" /><path clip-path="url(#clip230)" d="M 0 0 M1363.1 12.096 L1395.22 12.096 L1395.22 18.9825 L1370.59 18.9825 L1370.59 33.8088 Q1372.38 33.2012 1374.16 32.9176 Q1375.94 32.5936 1377.72 32.5936 Q1387.85 32.5936 1393.76 38.1433 Q1399.68 43.6931 1399.68 53.1722 Q1399.68 62.9348 1393.6 68.3631 Q1387.53 73.7508 1376.47 73.7508 Q1372.66 73.7508 1368.69 73.1026 Q1364.76 72.4545 1360.55 71.1582 L1360.55 62.9348 Q1364.19 64.9198 1368.08 65.892 Q1371.97 66.8642 1376.3 66.8642 Q1383.31 66.8642 1387.4 63.1779 Q1391.5 59.4916 1391.5 53.1722 Q1391.5 46.8528 1387.4 43.1664 Q1383.31 39.4801 1376.3 39.4801 Q1373.02 39.4801 1369.74 40.2093 Q1366.5 40.9384 1363.1 42.4778 L1363.1 12.096 Z" fill="#adb2b7" fill-rule="evenodd" fill-opacity="1" /><path clip-path="url(#clip230)" d="M 0 0 M1414.71 65.7705 L1414.71 89.8329 L1407.21 89.8329 L1407.21 27.2059 L1414.71 27.2059 L1414.71 34.0924 Q1417.06 30.0415 1420.62 28.0971 Q1424.23 26.1121 1429.21 26.1121 Q1437.47 26.1121 1442.62 32.6746 Q1447.8 39.2371 1447.8 49.9314 Q1447.8 60.6258 1442.62 67.1883 Q1437.47 73.7508 1429.21 73.7508 Q1424.23 73.7508 1420.62 71.8063 Q1417.06 69.8214 1414.71 65.7705 M1440.07 49.9314 Q1440.07 41.7081 1436.66 37.0496 Q1433.3 32.3505 1427.39 32.3505 Q1421.47 32.3505 1418.07 37.0496 Q1414.71 41.7081 1414.71 49.9314 Q1414.71 58.1548 1418.07 62.8538 Q1421.47 67.5124 1427.39 67.5124 Q1433.3 67.5124 1436.66 62.8538 Q1440.07 58.1548 1440.07 49.9314 Z" fill="#adb2b7" fill-rule="evenodd" fill-opacity="1" /><path clip-path="url(#clip230)" d="M 0 0 M1455.62 27.2059 L1463.08 27.2059 L1463.08 72.576 L1455.62 72.576 L1455.62 27.2059 M1455.62 9.54393 L1463.08 9.54393 L1463.08 18.9825 L1455.62 18.9825 L1455.62 9.54393 Z" fill="#adb2b7" fill-rule="evenodd" fill-opacity="1" /><polyline clip-path="url(#clip232)" style="stroke:#fe4365; stroke-width:4; stroke-opacity:1; fill:none" points="
  302.634,761.507 322.739,761.507 342.844,761.507 362.949,761.507 383.055,761.507 403.16,761.507 423.265,761.507 443.37,761.507 463.475,761.507 483.58,761.507 
  503.685,761.507 523.791,761.507 543.896,761.507 564.001,761.507 584.106,761.507 604.211,761.507 624.316,761.507 644.421,761.507 664.527,761.507 684.632,761.507 
  704.737,781.356 724.842,879.902 744.947,975.474 765.052,1065.67 785.158,1148.23 805.263,1221.07 825.368,1282.36 845.473,1330.57 865.578,1364.48 885.683,1383.25 
  905.788,1386.4 925.894,1373.84 945.999,1345.91 966.104,1303.29 986.209,1247.06 1006.31,1178.64 1026.42,1099.73 1046.52,1012.33 1066.63,918.624 1086.73,820.974 
  1106.84,761.507 1126.95,761.507 1147.05,761.507 1167.16,761.507 1187.26,761.507 1207.37,761.507 1227.47,761.507 1247.58,761.507 1267.68,761.507 1287.79,761.507 
  1307.89,761.507 1328,761.507 1348.1,761.507 1368.21,761.507 1388.31,761.507 1408.42,761.507 1428.52,761.507 1448.63,761.507 1468.73,761.507 1488.84,761.507 
  1508.94,761.507 1529.05,761.507 1549.15,761.507 1569.26,761.507 1589.36,761.507 1609.47,761.507 1629.57,761.507 1649.68,761.507 1669.78,761.507 1689.89,761.507 
  1709.99,761.507 1730.1,761.507 1750.2,761.507 1770.31,761.507 1790.41,761.507 1810.52,761.507 1830.63,761.507 1850.73,761.507 1870.84,761.507 1890.94,761.507 
  1911.05,761.507 1931.15,761.507 1951.26,761.507 1971.36,761.507 1991.47,761.507 2011.57,761.507 2031.68,761.507 2051.78,761.507 2071.89,761.507 2091.99,761.507 
  2112.1,761.507 2132.2,761.507 2152.31,761.507 2172.41,761.507 2192.52,761.507 2212.62,761.507 2232.73,761.507 2252.83,761.507 2272.94,761.507 2293.04,761.507 
  
  "/>
<polyline clip-path="url(#clip232)" style="stroke:#eca25c; stroke-width:4; stroke-opacity:1; fill:none" points="
  302.634,761.507 322.739,705.58 342.844,655.311 362.949,603.936 383.055,553.076 403.16,522.222 423.265,504.472 443.37,486.207 463.475,493.049 483.58,532.132 
  503.685,592.896 523.791,661.424 543.896,703.933 564.001,727.902 584.106,741.176 604.211,754.058 624.316,764.299 644.421,759.68 664.527,759.489 684.632,760.816 
  704.737,765.012 724.842,758.295 744.947,762.461 765.052,761.919 785.158,761.516 805.263,760.334 825.368,763.257 845.473,760.281 865.578,761.421 885.683,763.027 
  905.788,759.061 925.894,763.955 945.999,760.084 966.104,761.221 986.209,763.319 1006.31,759.447 1026.42,762.061 1046.52,763.132 1066.63,759.416 1086.73,761.051 
  1106.84,765.042 1126.95,758.974 1147.05,759.28 1167.16,764.443 1187.26,764.978 1207.37,756.514 1227.47,757.267 1247.58,765.086 1267.68,770.703 1287.79,763.948 
  1307.89,749.39 1328,744.116 1348.1,750.029 1368.21,775.239 1388.31,811.824 1408.42,851.468 1428.52,897.768 1448.63,939.518 1468.73,974.805 1488.84,1011.06 
  1508.94,1038.81 1529.05,1054.28 1549.15,1068.17 1569.26,1078.03 1589.36,1072.45 1609.47,1055.47 1629.57,1039.14 1649.68,1022.26 1669.78,993.055 1689.89,946.843 
  1709.99,892.162 1730.1,842.248 1750.2,805.428 1770.31,782.693 1790.41,770.641 1810.52,765.054 1830.63,762.756 1850.73,761.908 1870.84,761.625 1890.94,761.539 
  1911.05,761.515 1931.15,761.509 1951.26,761.507 1971.36,761.507 1991.47,761.507 2011.57,761.507 2031.68,761.507 2051.78,761.507 2071.89,761.507 2091.99,761.507 
  2112.1,761.507 2132.2,761.507 2152.31,761.507 2172.41,761.507 2192.52,761.507 2212.62,761.507 2232.73,761.507 2252.83,761.507 2272.94,761.507 2293.04,761.507 
  
  "/>
<polyline clip-path="url(#clip232)" style="stroke:#3f9778; stroke-width:4; stroke-opacity:1; fill:none" points="
  302.634,761.507 322.739,761.812 342.844,761.145 362.949,761.678 383.055,761.521 403.16,761.551 423.265,761.219 443.37,761.877 463.475,761.47 483.58,761.057 
  503.685,761.886 523.791,762.234 543.896,759.131 564.001,764.717 584.106,759.29 604.211,761.482 624.316,763.094 644.421,760.395 664.527,760.931 684.632,762.848 
  704.737,761.071 724.842,761.025 744.947,761.355 765.052,762.641 785.158,761.308 805.263,759.782 825.368,762.484 845.473,764.211 865.578,757.279 885.683,762.362 
  905.788,763.71 925.894,761.599 945.999,758.104 966.104,763.402 986.209,761.872 1006.31,763.038 1026.42,759.814 1046.52,758.756 1066.63,763.307 1086.73,765.878 
  1106.84,760.629 1126.95,754.696 1147.05,762.513 1167.16,766.321 1187.26,764.07 1207.37,759.85 1227.47,757.002 1247.58,758.267 1267.68,760.409 1287.79,770.87 
  1307.89,770.171 1328,759.413 1348.1,748.91 1368.21,747.649 1388.31,756.419 1408.42,763.524 1428.52,768.518 1448.63,774.184 1468.73,762.903 1488.84,731.719 
  1508.94,676.381 1529.05,603.683 1549.15,528.84 1569.26,442.178 1589.36,352.58 1609.47,270.705 1629.57,206.258 1649.68,172.649 1669.78,163.185 1689.89,161.153 
  1709.99,160.256 1730.1,165.749 1750.2,182.334 1770.31,227.541 1790.41,303.66 1810.52,387.998 1830.63,476.415 1850.73,562.179 1870.84,634.981 1890.94,700.104 
  1911.05,749.218 1931.15,770.721 1951.26,771.733 1971.36,766.674 1991.47,762.215 2011.57,752.22 2031.68,743.682 2051.78,753.331 2071.89,768.215 2091.99,769.432 
  2112.1,764.835 2132.2,761.876 2152.31,757.89 2172.41,755.976 2192.52,759.906 2212.62,767.03 2232.73,768.355 2252.83,758.498 2272.94,751.782 2293.04,761.507 
  
  "/>
<polyline clip-path="url(#clip232)" style="stroke:#005d7f; stroke-width:4; stroke-opacity:1; fill:none" points="
  302.634,761.507 322.739,761.645 342.844,758.567 362.949,758.083 383.055,763.602 403.16,772.596 423.265,769.097 443.37,755.085 463.475,741.382 483.58,747.744 
  503.685,766.842 523.791,783.328 543.896,783.8 564.001,774.699 584.106,765.851 604.211,761.344 624.316,760.06 644.421,762.337 664.527,770.159 684.632,788.687 
  704.737,828.142 724.842,889.451 744.947,968.744 765.052,1048.94 785.158,1131.52 805.263,1209.44 825.368,1271.71 845.473,1313.94 865.578,1337.93 885.683,1359.57 
  905.788,1364.08 925.894,1350.04 945.999,1323.96 966.104,1287.05 986.209,1237.24 1006.31,1166.14 1026.42,1083.54 1046.52,1000.97 1066.63,917.772 1086.73,852.269 
  1106.84,802.878 1126.95,776.782 1147.05,764.905 1167.16,760.596 1187.26,758.123 1207.37,763.638 1227.47,775.3 1247.58,781.011 1267.68,779.286 1287.79,772.531 
  1307.89,758.697 1328,746.134 1348.1,749.629 1368.21,759.644 1388.31,768.047 1408.42,765.945 1428.52,766.704 1448.63,764.149 1468.73,756.308 1488.84,758.973 
  1508.94,758.281 1529.05,759.152 1549.15,766.254 1569.26,769.688 1589.36,759.478 1609.47,755.365 1629.57,757.489 1649.68,763.37 1669.78,768.506 1689.89,761.99 
  1709.99,757.951 1730.1,757.642 1750.2,762.709 1770.31,766.033 1790.41,760.387 1810.52,760.06 1830.63,762.395 1850.73,759.112 1870.84,761.827 1890.94,765.57 
  1911.05,760.499 1931.15,757.575 1951.26,762.596 1971.36,763.921 1991.47,761.338 2011.57,761.108 2031.68,758.891 2051.78,762.72 2071.89,764.718 2091.99,759.383 
  2112.1,759.753 2132.2,761.906 2152.31,764.273 2172.41,761.1 2192.52,757.829 2212.62,763.772 2232.73,763.263 2252.83,759.506 2272.94,761.559 2293.04,761.507 
  
  "/>
<polyline clip-path="url(#clip232)" style="stroke:#00a8ff; stroke-width:4; stroke-opacity:1; fill:none" points="
  302.634,761.507 322.739,757.77 342.844,762.053 362.949,765.205 383.055,760.34 403.16,758.365 423.265,762.029 443.37,766.026 463.475,759.365 483.58,757.469 
  503.685,764.263 523.791,764.821 543.896,757.544 564.001,760.103 584.106,762.96 604.211,760.008 624.316,760.985 644.421,756.654 664.527,754.494 684.632,755.729 
  704.737,751.475 724.842,737.659 744.947,733.073 765.052,722.241 785.158,702.731 805.263,679.55 825.368,655.522 845.473,623.395 865.578,582.681 885.683,549.498 
  905.788,515.828 925.894,474.813 945.999,444.823 966.104,437.484 986.209,434.096 1006.31,441.567 1026.42,467.106 1046.52,496.49 1066.63,537.064 1086.73,583.625 
  1106.84,622.576 1126.95,647.182 1147.05,677.735 1167.16,711.227 1187.26,744.189 1207.37,768.756 1227.47,787.674 1247.58,799.601 1267.68,808.773 1287.79,806.79 
  1307.89,789.449 1328,765.198 1348.1,747.799 1368.21,739.464 1388.31,738.667 1408.42,748.11 1428.52,759.058 1448.63,764.449 1468.73,767.151 1488.84,766.85 
  1508.94,769.382 1529.05,766.761 1549.15,761.325 1569.26,765.789 1589.36,758.764 1609.47,752.402 1629.57,748.183 1649.68,754.102 1669.78,772.944 1689.89,775.169 
  1709.99,771.345 1730.1,762.463 1750.2,755.777 1770.31,750.575 1790.41,752.095 1810.52,762.828 1830.63,768.656 1850.73,771.577 1870.84,772.46 1890.94,774.016 
  1911.05,786.295 1931.15,792.871 1951.26,796.386 1971.36,807.445 1991.47,812.849 2011.57,834.717 2031.68,867.155 2051.78,913.228 2071.89,974.841 2091.99,1030.81 
  2112.1,1079.59 2132.2,1109.73 2152.31,1119.79 2172.41,1109.41 2192.52,1081.92 2212.62,1037.15 2232.73,976.216 2252.83,907.263 2272.94,832.714 2293.04,761.507 
  
  "/>
<polyline clip-path="url(#clip232)" style="stroke:#dc3df1; stroke-width:4; stroke-opacity:1; fill:none" points="
  302.634,761.507 322.739,761.767 342.844,763.66 362.949,756.549 383.055,759.259 403.16,767.105 423.265,764.144 443.37,760.205 463.475,759.133 483.58,759.226 
  503.685,763.001 523.791,761.554 543.896,759.447 564.001,764.777 584.106,768.131 604.211,759.224 624.316,755.592 644.421,754.515 664.527,760.508 684.632,770.319 
  704.737,771.602 724.842,764.376 744.947,753.994 765.052,744.766 785.158,759.284 805.263,770.535 825.368,772.848 845.473,762.879 865.578,758.069 885.683,761.253 
  905.788,761.113 925.894,752.744 945.999,755.3 966.104,762.247 986.209,770.99 1006.31,768.979 1026.42,762.811 1046.52,759.731 1066.63,761.952 1086.73,763.029 
  1106.84,757.152 1126.95,748.132 1147.05,746.792 1167.16,759.566 1187.26,772.332 1207.37,778.447 1227.47,780.232 1247.58,768.641 1267.68,760.06 1287.79,747.542 
  1307.89,729.683 1328,713.562 1348.1,712.22 1368.21,712.246 1388.31,720.696 1408.42,727.795 1428.52,719.765 1448.63,702.034 1468.73,678.434 1488.84,647.15 
  1508.94,606.632 1529.05,560.926 1549.15,516.947 1569.26,475.384 1589.36,420.012 1609.47,370.572 1629.57,328.178 1649.68,295.396 1669.78,274.133 1689.89,262.211 
  1709.99,264.84 1730.1,277.131 1750.2,304.967 1770.31,341.208 1790.41,391.535 1810.52,450.402 1830.63,495.779 1850.73,534.516 1870.84,574.105 1890.94,617.467 
  1911.05,659.04 1931.15,692.266 1951.26,720.299 1971.36,731.283 1991.47,722.262 2011.57,709.275 2031.68,706.519 2051.78,709.923 2071.89,720.073 2091.99,738.287 
  2112.1,759.476 2132.2,770.828 2152.31,776.043 2172.41,776.932 2192.52,768.389 2212.62,761.116 2232.73,750.018 2252.83,750.552 2272.94,753.135 2293.04,761.507 
  
  "/>
<polyline clip-path="url(#clip232)" style="stroke:#759500; stroke-width:4; stroke-opacity:1; fill:none" points="
  302.634,761.507 322.739,761.348 342.844,767.49 362.949,769.501 383.055,758.945 403.16,751.38 423.265,752.727 443.37,760.778 463.475,773.975 483.58,776.664 
  503.685,760.423 523.791,746.89 543.896,748.605 564.001,763.272 584.106,770.13 604.211,769.207 624.316,764.517 644.421,757.969 664.527,758.371 684.632,761.086 
  704.737,758.051 724.842,759.567 744.947,760.283 765.052,764.323 785.158,764.213 805.263,764.675 825.368,764.896 845.473,762.85 865.578,760.763 885.683,756.572 
  905.788,753.279 925.894,755.249 945.999,757.653 966.104,766.909 986.209,773.497 1006.31,773.485 1026.42,772.38 1046.52,762.515 1066.63,750.254 1086.73,743.664 
  1106.84,742.93 1126.95,747.193 1147.05,756.375 1167.16,771.59 1187.26,783.41 1207.37,783.217 1227.47,775.895 1247.58,757.086 1267.68,738.774 1287.79,719.907 
  1307.89,715.408 1328,712.334 1348.1,693.553 1368.21,675.159 1388.31,671.513 1408.42,669.306 1428.52,661.942 1448.63,643.578 1468.73,610.54 1488.84,587.656 
  1508.94,562.593 1529.05,537.077 1549.15,518.954 1569.26,498.762 1589.36,473.771 1609.47,441.181 1629.57,416.097 1649.68,394.94 1669.78,382.251 1689.89,373.022 
  1709.99,386.991 1730.1,403.749 1750.2,409.396 1770.31,419.805 1790.41,445.238 1810.52,476.784 1830.63,503.239 1850.73,526.081 1870.84,551.662 1890.94,585.935 
  1911.05,604.169 1931.15,621.478 1951.26,640.779 1971.36,659.532 1991.47,671.505 2011.57,676.516 2031.68,684.034 2051.78,697.824 2071.89,708.678 2091.99,720.54 
  2112.1,741.386 2132.2,755.121 2152.31,765.303 2172.41,767.534 2192.52,768.02 2212.62,766.978 2232.73,763.06 2252.83,758.445 2272.94,761.446 2293.04,761.507 
  
  "/>
<path clip-path="url(#clip230)" d="
M1876.73 650.636 L2282.43 650.636 L2282.43 166.796 L1876.73 166.796  Z
  " fill="#282c34" fill-rule="evenodd" fill-opacity="1"/>
<polyline clip-path="url(#clip230)" style="stroke:#9eb1be; stroke-width:4; stroke-opacity:1; fill:none" points="
  1876.73,650.636 2282.43,650.636 2282.43,166.796 1876.73,166.796 1876.73,650.636 
  "/>
<polyline clip-path="url(#clip230)" style="stroke:#fe4365; stroke-width:4; stroke-opacity:1; fill:none" points="
  1900.17,227.276 2040.83,227.276 
  "/>
<path clip-path="url(#clip230)" d="M 0 0 M2071.68 211.269 L2071.68 218.63 L2080.45 218.63 L2080.45 221.94 L2071.68 221.94 L2071.68 236.014 Q2071.68 239.185 2072.53 240.088 Q2073.41 240.991 2076.08 240.991 L2080.45 240.991 L2080.45 244.556 L2076.08 244.556 Q2071.15 244.556 2069.27 242.727 Q2067.4 240.875 2067.4 236.014 L2067.4 221.94 L2064.27 221.94 L2064.27 218.63 L2067.4 218.63 L2067.4 211.269 L2071.68 211.269 Z" fill="#adb2b7" fill-rule="evenodd" fill-opacity="1" /><path clip-path="url(#clip230)" d="M 0 0 M2100.54 223.028 L2130.22 223.028 L2130.22 226.917 L2100.54 226.917 L2100.54 223.028 M2100.54 232.472 L2130.22 232.472 L2130.22 236.408 L2100.54 236.408 L2100.54 232.472 Z" fill="#adb2b7" fill-rule="evenodd" fill-opacity="1" /><path clip-path="url(#clip230)" d="M 0 0 M2160.36 213.074 Q2156.75 213.074 2154.92 216.639 Q2153.11 220.181 2153.11 227.31 Q2153.11 234.417 2154.92 237.982 Q2156.75 241.523 2160.36 241.523 Q2163.99 241.523 2165.8 237.982 Q2167.63 234.417 2167.63 227.31 Q2167.63 220.181 2165.8 216.639 Q2163.99 213.074 2160.36 213.074 M2160.36 209.371 Q2166.17 209.371 2169.22 213.977 Q2172.3 218.56 2172.3 227.31 Q2172.3 236.037 2169.22 240.644 Q2166.17 245.227 2160.36 245.227 Q2154.55 245.227 2151.47 240.644 Q2148.41 236.037 2148.41 227.31 Q2148.41 218.56 2151.47 213.977 Q2154.55 209.371 2160.36 209.371 Z" fill="#adb2b7" fill-rule="evenodd" fill-opacity="1" /><path clip-path="url(#clip230)" d="M 0 0 M2177.37 238.676 L2182.26 238.676 L2182.26 244.556 L2177.37 244.556 L2177.37 238.676 Z" fill="#adb2b7" fill-rule="evenodd" fill-opacity="1" /><path clip-path="url(#clip230)" d="M 0 0 M2197.33 213.074 Q2193.71 213.074 2191.89 216.639 Q2190.08 220.181 2190.08 227.31 Q2190.08 234.417 2191.89 237.982 Q2193.71 241.523 2197.33 241.523 Q2200.96 241.523 2202.77 237.982 Q2204.59 234.417 2204.59 227.31 Q2204.59 220.181 2202.77 216.639 Q2200.96 213.074 2197.33 213.074 M2197.33 209.371 Q2203.14 209.371 2206.19 213.977 Q2209.27 218.56 2209.27 227.31 Q2209.27 236.037 2206.19 240.644 Q2203.14 245.227 2197.33 245.227 Q2191.52 245.227 2188.44 240.644 Q2185.38 236.037 2185.38 227.31 Q2185.38 218.56 2188.44 213.977 Q2191.52 209.371 2197.33 209.371 Z" fill="#adb2b7" fill-rule="evenodd" fill-opacity="1" /><polyline clip-path="url(#clip230)" style="stroke:#eca25c; stroke-width:4; stroke-opacity:1; fill:none" points="
  1900.17,287.756 2040.83,287.756 
  "/>
<path clip-path="url(#clip230)" d="M 0 0 M2071.68 271.749 L2071.68 279.11 L2080.45 279.11 L2080.45 282.42 L2071.68 282.42 L2071.68 296.494 Q2071.68 299.665 2072.53 300.568 Q2073.41 301.471 2076.08 301.471 L2080.45 301.471 L2080.45 305.036 L2076.08 305.036 Q2071.15 305.036 2069.27 303.207 Q2067.4 301.355 2067.4 296.494 L2067.4 282.42 L2064.27 282.42 L2064.27 279.11 L2067.4 279.11 L2067.4 271.749 L2071.68 271.749 Z" fill="#adb2b7" fill-rule="evenodd" fill-opacity="1" /><path clip-path="url(#clip230)" d="M 0 0 M2100.54 283.508 L2130.22 283.508 L2130.22 287.397 L2100.54 287.397 L2100.54 283.508 M2100.54 292.952 L2130.22 292.952 L2130.22 296.888 L2100.54 296.888 L2100.54 292.952 Z" fill="#adb2b7" fill-rule="evenodd" fill-opacity="1" /><path clip-path="url(#clip230)" d="M 0 0 M2160.36 273.554 Q2156.75 273.554 2154.92 277.119 Q2153.11 280.661 2153.11 287.79 Q2153.11 294.897 2154.92 298.462 Q2156.75 302.003 2160.36 302.003 Q2163.99 302.003 2165.8 298.462 Q2167.63 294.897 2167.63 287.79 Q2167.63 280.661 2165.8 277.119 Q2163.99 273.554 2160.36 273.554 M2160.36 269.851 Q2166.17 269.851 2169.22 274.457 Q2172.3 279.04 2172.3 287.79 Q2172.3 296.517 2169.22 301.124 Q2166.17 305.707 2160.36 305.707 Q2154.55 305.707 2151.47 301.124 Q2148.41 296.517 2148.41 287.79 Q2148.41 279.04 2151.47 274.457 Q2154.55 269.851 2160.36 269.851 Z" fill="#adb2b7" fill-rule="evenodd" fill-opacity="1" /><path clip-path="url(#clip230)" d="M 0 0 M2177.37 299.156 L2182.26 299.156 L2182.26 305.036 L2177.37 305.036 L2177.37 299.156 Z" fill="#adb2b7" fill-rule="evenodd" fill-opacity="1" /><path clip-path="url(#clip230)" d="M 0 0 M2201.49 286.402 Q2204.85 287.119 2206.72 289.388 Q2208.62 291.656 2208.62 294.989 Q2208.62 300.105 2205.1 302.906 Q2201.58 305.707 2195.1 305.707 Q2192.93 305.707 2190.61 305.267 Q2188.32 304.851 2185.87 303.994 L2185.87 299.48 Q2187.81 300.614 2190.13 301.193 Q2192.44 301.772 2194.96 301.772 Q2199.36 301.772 2201.65 300.036 Q2203.97 298.3 2203.97 294.989 Q2203.97 291.934 2201.82 290.221 Q2199.69 288.485 2195.87 288.485 L2191.84 288.485 L2191.84 284.642 L2196.05 284.642 Q2199.5 284.642 2201.33 283.277 Q2203.16 281.888 2203.16 279.295 Q2203.16 276.633 2201.26 275.221 Q2199.39 273.786 2195.87 273.786 Q2193.95 273.786 2191.75 274.203 Q2189.55 274.619 2186.91 275.499 L2186.91 271.332 Q2189.57 270.591 2191.89 270.221 Q2194.22 269.851 2196.28 269.851 Q2201.61 269.851 2204.71 272.281 Q2207.81 274.689 2207.81 278.809 Q2207.81 281.679 2206.17 283.67 Q2204.52 285.638 2201.49 286.402 Z" fill="#adb2b7" fill-rule="evenodd" fill-opacity="1" /><path clip-path="url(#clip230)" d="M 0 0 M2227.86 286.402 Q2231.21 287.119 2233.09 289.388 Q2234.99 291.656 2234.99 294.989 Q2234.99 300.105 2231.47 302.906 Q2227.95 305.707 2221.47 305.707 Q2219.29 305.707 2216.98 305.267 Q2214.69 304.851 2212.23 303.994 L2212.23 299.48 Q2214.18 300.614 2216.49 301.193 Q2218.81 301.772 2221.33 301.772 Q2225.73 301.772 2228.02 300.036 Q2230.33 298.3 2230.33 294.989 Q2230.33 291.934 2228.18 290.221 Q2226.05 288.485 2222.23 288.485 L2218.21 288.485 L2218.21 284.642 L2222.42 284.642 Q2225.87 284.642 2227.7 283.277 Q2229.52 281.888 2229.52 279.295 Q2229.52 276.633 2227.63 275.221 Q2225.75 273.786 2222.23 273.786 Q2220.31 273.786 2218.11 274.203 Q2215.91 274.619 2213.27 275.499 L2213.27 271.332 Q2215.94 270.591 2218.25 270.221 Q2220.59 269.851 2222.65 269.851 Q2227.97 269.851 2231.08 272.281 Q2234.18 274.689 2234.18 278.809 Q2234.18 281.679 2232.53 283.67 Q2230.89 285.638 2227.86 286.402 Z" fill="#adb2b7" fill-rule="evenodd" fill-opacity="1" /><polyline clip-path="url(#clip230)" style="stroke:#3f9778; stroke-width:4; stroke-opacity:1; fill:none" points="
  1900.17,348.236 2040.83,348.236 
  "/>
<path clip-path="url(#clip230)" d="M 0 0 M2071.68 332.229 L2071.68 339.59 L2080.45 339.59 L2080.45 342.9 L2071.68 342.9 L2071.68 356.974 Q2071.68 360.145 2072.53 361.048 Q2073.41 361.951 2076.08 361.951 L2080.45 361.951 L2080.45 365.516 L2076.08 365.516 Q2071.15 365.516 2069.27 363.687 Q2067.4 361.835 2067.4 356.974 L2067.4 342.9 L2064.27 342.9 L2064.27 339.59 L2067.4 339.59 L2067.4 332.229 L2071.68 332.229 Z" fill="#adb2b7" fill-rule="evenodd" fill-opacity="1" /><path clip-path="url(#clip230)" d="M 0 0 M2100.54 343.988 L2130.22 343.988 L2130.22 347.877 L2100.54 347.877 L2100.54 343.988 M2100.54 353.432 L2130.22 353.432 L2130.22 357.368 L2100.54 357.368 L2100.54 353.432 Z" fill="#adb2b7" fill-rule="evenodd" fill-opacity="1" /><path clip-path="url(#clip230)" d="M 0 0 M2160.36 334.034 Q2156.75 334.034 2154.92 337.599 Q2153.11 341.141 2153.11 348.27 Q2153.11 355.377 2154.92 358.942 Q2156.75 362.483 2160.36 362.483 Q2163.99 362.483 2165.8 358.942 Q2167.63 355.377 2167.63 348.27 Q2167.63 341.141 2165.8 337.599 Q2163.99 334.034 2160.36 334.034 M2160.36 330.331 Q2166.17 330.331 2169.22 334.937 Q2172.3 339.52 2172.3 348.27 Q2172.3 356.997 2169.22 361.604 Q2166.17 366.187 2160.36 366.187 Q2154.55 366.187 2151.47 361.604 Q2148.41 356.997 2148.41 348.27 Q2148.41 339.52 2151.47 334.937 Q2154.55 330.331 2160.36 330.331 Z" fill="#adb2b7" fill-rule="evenodd" fill-opacity="1" /><path clip-path="url(#clip230)" d="M 0 0 M2177.37 359.636 L2182.26 359.636 L2182.26 365.516 L2177.37 365.516 L2177.37 359.636 Z" fill="#adb2b7" fill-rule="evenodd" fill-opacity="1" /><path clip-path="url(#clip230)" d="M 0 0 M2197.9 346.372 Q2194.76 346.372 2192.9 348.525 Q2191.08 350.678 2191.08 354.428 Q2191.08 358.155 2192.9 360.331 Q2194.76 362.483 2197.9 362.483 Q2201.05 362.483 2202.88 360.331 Q2204.73 358.155 2204.73 354.428 Q2204.73 350.678 2202.88 348.525 Q2201.05 346.372 2197.9 346.372 M2207.19 331.72 L2207.19 335.979 Q2205.43 335.146 2203.62 334.706 Q2201.84 334.266 2200.08 334.266 Q2195.45 334.266 2193 337.391 Q2190.57 340.516 2190.22 346.835 Q2191.58 344.821 2193.64 343.757 Q2195.71 342.669 2198.18 342.669 Q2203.39 342.669 2206.4 345.84 Q2209.43 348.988 2209.43 354.428 Q2209.43 359.752 2206.28 362.969 Q2203.14 366.187 2197.9 366.187 Q2191.91 366.187 2188.74 361.604 Q2185.57 356.997 2185.57 348.27 Q2185.57 340.076 2189.46 335.215 Q2193.34 330.331 2199.89 330.331 Q2201.65 330.331 2203.44 330.678 Q2205.24 331.025 2207.19 331.72 Z" fill="#adb2b7" fill-rule="evenodd" fill-opacity="1" /><path clip-path="url(#clip230)" d="M 0 0 M2213.32 330.956 L2235.54 330.956 L2235.54 332.946 L2223 365.516 L2218.11 365.516 L2229.92 334.891 L2213.32 334.891 L2213.32 330.956 Z" fill="#adb2b7" fill-rule="evenodd" fill-opacity="1" /><polyline clip-path="url(#clip230)" style="stroke:#005d7f; stroke-width:4; stroke-opacity:1; fill:none" points="
  1900.17,408.716 2040.83,408.716 
  "/>
<path clip-path="url(#clip230)" d="M 0 0 M2071.68 392.709 L2071.68 400.07 L2080.45 400.07 L2080.45 403.38 L2071.68 403.38 L2071.68 417.454 Q2071.68 420.625 2072.53 421.528 Q2073.41 422.431 2076.08 422.431 L2080.45 422.431 L2080.45 425.996 L2076.08 425.996 Q2071.15 425.996 2069.27 424.167 Q2067.4 422.315 2067.4 417.454 L2067.4 403.38 L2064.27 403.38 L2064.27 400.07 L2067.4 400.07 L2067.4 392.709 L2071.68 392.709 Z" fill="#adb2b7" fill-rule="evenodd" fill-opacity="1" /><path clip-path="url(#clip230)" d="M 0 0 M2100.54 404.468 L2130.22 404.468 L2130.22 408.357 L2100.54 408.357 L2100.54 404.468 M2100.54 413.912 L2130.22 413.912 L2130.22 417.848 L2100.54 417.848 L2100.54 413.912 Z" fill="#adb2b7" fill-rule="evenodd" fill-opacity="1" /><path clip-path="url(#clip230)" d="M 0 0 M2151.17 422.061 L2158.81 422.061 L2158.81 395.695 L2150.5 397.362 L2150.5 393.102 L2158.76 391.436 L2163.44 391.436 L2163.44 422.061 L2171.08 422.061 L2171.08 425.996 L2151.17 425.996 L2151.17 422.061 Z" fill="#adb2b7" fill-rule="evenodd" fill-opacity="1" /><path clip-path="url(#clip230)" d="M 0 0 M2176.15 420.116 L2181.03 420.116 L2181.03 425.996 L2176.15 425.996 L2176.15 420.116 Z" fill="#adb2b7" fill-rule="evenodd" fill-opacity="1" /><path clip-path="url(#clip230)" d="M 0 0 M2196.1 394.514 Q2192.49 394.514 2190.66 398.079 Q2188.85 401.621 2188.85 408.75 Q2188.85 415.857 2190.66 419.422 Q2192.49 422.963 2196.1 422.963 Q2199.73 422.963 2201.54 419.422 Q2203.37 415.857 2203.37 408.75 Q2203.37 401.621 2201.54 398.079 Q2199.73 394.514 2196.1 394.514 M2196.1 390.811 Q2201.91 390.811 2204.96 395.417 Q2208.04 400 2208.04 408.75 Q2208.04 417.477 2204.96 422.084 Q2201.91 426.667 2196.1 426.667 Q2190.29 426.667 2187.21 422.084 Q2184.15 417.477 2184.15 408.75 Q2184.15 400 2187.21 395.417 Q2190.29 390.811 2196.1 390.811 Z" fill="#adb2b7" fill-rule="evenodd" fill-opacity="1" /><polyline clip-path="url(#clip230)" style="stroke:#00a8ff; stroke-width:4; stroke-opacity:1; fill:none" points="
  1900.17,469.196 2040.83,469.196 
  "/>
<path clip-path="url(#clip230)" d="M 0 0 M2071.68 453.189 L2071.68 460.55 L2080.45 460.55 L2080.45 463.86 L2071.68 463.86 L2071.68 477.934 Q2071.68 481.105 2072.53 482.008 Q2073.41 482.911 2076.08 482.911 L2080.45 482.911 L2080.45 486.476 L2076.08 486.476 Q2071.15 486.476 2069.27 484.647 Q2067.4 482.795 2067.4 477.934 L2067.4 463.86 L2064.27 463.86 L2064.27 460.55 L2067.4 460.55 L2067.4 453.189 L2071.68 453.189 Z" fill="#adb2b7" fill-rule="evenodd" fill-opacity="1" /><path clip-path="url(#clip230)" d="M 0 0 M2100.54 464.948 L2130.22 464.948 L2130.22 468.837 L2100.54 468.837 L2100.54 464.948 M2100.54 474.392 L2130.22 474.392 L2130.22 478.328 L2100.54 478.328 L2100.54 474.392 Z" fill="#adb2b7" fill-rule="evenodd" fill-opacity="1" /><path clip-path="url(#clip230)" d="M 0 0 M2151.17 482.541 L2158.81 482.541 L2158.81 456.175 L2150.5 457.842 L2150.5 453.582 L2158.76 451.916 L2163.44 451.916 L2163.44 482.541 L2171.08 482.541 L2171.08 486.476 L2151.17 486.476 L2151.17 482.541 Z" fill="#adb2b7" fill-rule="evenodd" fill-opacity="1" /><path clip-path="url(#clip230)" d="M 0 0 M2176.15 480.596 L2181.03 480.596 L2181.03 486.476 L2176.15 486.476 L2176.15 480.596 Z" fill="#adb2b7" fill-rule="evenodd" fill-opacity="1" /><path clip-path="url(#clip230)" d="M 0 0 M2200.27 467.842 Q2203.62 468.559 2205.5 470.828 Q2207.39 473.096 2207.39 476.429 Q2207.39 481.545 2203.88 484.346 Q2200.36 487.147 2193.88 487.147 Q2191.7 487.147 2189.39 486.707 Q2187.09 486.291 2184.64 485.434 L2184.64 480.92 Q2186.58 482.054 2188.9 482.633 Q2191.21 483.212 2193.74 483.212 Q2198.14 483.212 2200.43 481.476 Q2202.74 479.74 2202.74 476.429 Q2202.74 473.374 2200.59 471.661 Q2198.46 469.925 2194.64 469.925 L2190.61 469.925 L2190.61 466.082 L2194.83 466.082 Q2198.27 466.082 2200.1 464.717 Q2201.93 463.328 2201.93 460.735 Q2201.93 458.073 2200.03 456.661 Q2198.16 455.226 2194.64 455.226 Q2192.72 455.226 2190.52 455.643 Q2188.32 456.059 2185.68 456.939 L2185.68 452.772 Q2188.34 452.031 2190.66 451.661 Q2193 451.291 2195.06 451.291 Q2200.38 451.291 2203.48 453.721 Q2206.58 456.129 2206.58 460.249 Q2206.58 463.119 2204.94 465.11 Q2203.3 467.078 2200.27 467.842 Z" fill="#adb2b7" fill-rule="evenodd" fill-opacity="1" /><path clip-path="url(#clip230)" d="M 0 0 M2226.63 467.842 Q2229.99 468.559 2231.86 470.828 Q2233.76 473.096 2233.76 476.429 Q2233.76 481.545 2230.24 484.346 Q2226.72 487.147 2220.24 487.147 Q2218.07 487.147 2215.75 486.707 Q2213.46 486.291 2211.01 485.434 L2211.01 480.92 Q2212.95 482.054 2215.27 482.633 Q2217.58 483.212 2220.1 483.212 Q2224.5 483.212 2226.79 481.476 Q2229.11 479.74 2229.11 476.429 Q2229.11 473.374 2226.95 471.661 Q2224.83 469.925 2221.01 469.925 L2216.98 469.925 L2216.98 466.082 L2221.19 466.082 Q2224.64 466.082 2226.47 464.717 Q2228.3 463.328 2228.3 460.735 Q2228.3 458.073 2226.4 456.661 Q2224.52 455.226 2221.01 455.226 Q2219.08 455.226 2216.89 455.643 Q2214.69 456.059 2212.05 456.939 L2212.05 452.772 Q2214.71 452.031 2217.02 451.661 Q2219.36 451.291 2221.42 451.291 Q2226.75 451.291 2229.85 453.721 Q2232.95 456.129 2232.95 460.249 Q2232.95 463.119 2231.31 465.11 Q2229.66 467.078 2226.63 467.842 Z" fill="#adb2b7" fill-rule="evenodd" fill-opacity="1" /><polyline clip-path="url(#clip230)" style="stroke:#dc3df1; stroke-width:4; stroke-opacity:1; fill:none" points="
  1900.17,529.676 2040.83,529.676 
  "/>
<path clip-path="url(#clip230)" d="M 0 0 M2071.68 513.669 L2071.68 521.03 L2080.45 521.03 L2080.45 524.34 L2071.68 524.34 L2071.68 538.414 Q2071.68 541.585 2072.53 542.488 Q2073.41 543.391 2076.08 543.391 L2080.45 543.391 L2080.45 546.956 L2076.08 546.956 Q2071.15 546.956 2069.27 545.127 Q2067.4 543.275 2067.4 538.414 L2067.4 524.34 L2064.27 524.34 L2064.27 521.03 L2067.4 521.03 L2067.4 513.669 L2071.68 513.669 Z" fill="#adb2b7" fill-rule="evenodd" fill-opacity="1" /><path clip-path="url(#clip230)" d="M 0 0 M2100.54 525.428 L2130.22 525.428 L2130.22 529.317 L2100.54 529.317 L2100.54 525.428 M2100.54 534.872 L2130.22 534.872 L2130.22 538.808 L2100.54 538.808 L2100.54 534.872 Z" fill="#adb2b7" fill-rule="evenodd" fill-opacity="1" /><path clip-path="url(#clip230)" d="M 0 0 M2151.17 543.021 L2158.81 543.021 L2158.81 516.655 L2150.5 518.322 L2150.5 514.062 L2158.76 512.396 L2163.44 512.396 L2163.44 543.021 L2171.08 543.021 L2171.08 546.956 L2151.17 546.956 L2151.17 543.021 Z" fill="#adb2b7" fill-rule="evenodd" fill-opacity="1" /><path clip-path="url(#clip230)" d="M 0 0 M2176.15 541.076 L2181.03 541.076 L2181.03 546.956 L2176.15 546.956 L2176.15 541.076 Z" fill="#adb2b7" fill-rule="evenodd" fill-opacity="1" /><path clip-path="url(#clip230)" d="M 0 0 M2196.68 527.812 Q2193.53 527.812 2191.68 529.965 Q2189.85 532.118 2189.85 535.868 Q2189.85 539.595 2191.68 541.771 Q2193.53 543.923 2196.68 543.923 Q2199.83 543.923 2201.65 541.771 Q2203.51 539.595 2203.51 535.868 Q2203.51 532.118 2201.65 529.965 Q2199.83 527.812 2196.68 527.812 M2205.96 513.16 L2205.96 517.419 Q2204.2 516.586 2202.39 516.146 Q2200.61 515.706 2198.85 515.706 Q2194.22 515.706 2191.77 518.831 Q2189.34 521.956 2188.99 528.275 Q2190.36 526.261 2192.42 525.197 Q2194.48 524.109 2196.96 524.109 Q2202.16 524.109 2205.17 527.28 Q2208.21 530.428 2208.21 535.868 Q2208.21 541.192 2205.06 544.409 Q2201.91 547.627 2196.68 547.627 Q2190.68 547.627 2187.51 543.044 Q2184.34 538.437 2184.34 529.71 Q2184.34 521.516 2188.23 516.655 Q2192.12 511.771 2198.67 511.771 Q2200.43 511.771 2202.21 512.118 Q2204.02 512.465 2205.96 513.16 Z" fill="#adb2b7" fill-rule="evenodd" fill-opacity="1" /><path clip-path="url(#clip230)" d="M 0 0 M2212.09 512.396 L2234.32 512.396 L2234.32 514.386 L2221.77 546.956 L2216.89 546.956 L2228.69 516.331 L2212.09 516.331 L2212.09 512.396 Z" fill="#adb2b7" fill-rule="evenodd" fill-opacity="1" /><polyline clip-path="url(#clip230)" style="stroke:#759500; stroke-width:4; stroke-opacity:1; fill:none" points="
  1900.17,590.156 2040.83,590.156 
  "/>
<path clip-path="url(#clip230)" d="M 0 0 M2071.68 574.149 L2071.68 581.51 L2080.45 581.51 L2080.45 584.82 L2071.68 584.82 L2071.68 598.894 Q2071.68 602.065 2072.53 602.968 Q2073.41 603.871 2076.08 603.871 L2080.45 603.871 L2080.45 607.436 L2076.08 607.436 Q2071.15 607.436 2069.27 605.607 Q2067.4 603.755 2067.4 598.894 L2067.4 584.82 L2064.27 584.82 L2064.27 581.51 L2067.4 581.51 L2067.4 574.149 L2071.68 574.149 Z" fill="#adb2b7" fill-rule="evenodd" fill-opacity="1" /><path clip-path="url(#clip230)" d="M 0 0 M2100.54 585.908 L2130.22 585.908 L2130.22 589.797 L2100.54 589.797 L2100.54 585.908 M2100.54 595.352 L2130.22 595.352 L2130.22 599.288 L2100.54 599.288 L2100.54 595.352 Z" fill="#adb2b7" fill-rule="evenodd" fill-opacity="1" /><path clip-path="url(#clip230)" d="M 0 0 M2154.39 603.501 L2170.71 603.501 L2170.71 607.436 L2148.76 607.436 L2148.76 603.501 Q2151.42 600.746 2156.01 596.116 Q2160.61 591.464 2161.79 590.121 Q2164.04 587.598 2164.92 585.862 Q2165.82 584.103 2165.82 582.413 Q2165.82 579.658 2163.88 577.922 Q2161.96 576.186 2158.85 576.186 Q2156.65 576.186 2154.2 576.95 Q2151.77 577.714 2148.99 579.265 L2148.99 574.542 Q2151.82 573.408 2154.27 572.829 Q2156.72 572.251 2158.76 572.251 Q2164.13 572.251 2167.33 574.936 Q2170.52 577.621 2170.52 582.112 Q2170.52 584.241 2169.71 586.163 Q2168.92 588.061 2166.82 590.653 Q2166.24 591.325 2163.14 594.542 Q2160.03 597.737 2154.39 603.501 Z" fill="#adb2b7" fill-rule="evenodd" fill-opacity="1" /><path clip-path="url(#clip230)" d="M 0 0 M2175.77 601.556 L2180.66 601.556 L2180.66 607.436 L2175.77 607.436 L2175.77 601.556 Z" fill="#adb2b7" fill-rule="evenodd" fill-opacity="1" /><path clip-path="url(#clip230)" d="M 0 0 M2195.73 575.954 Q2192.12 575.954 2190.29 579.519 Q2188.48 583.061 2188.48 590.19 Q2188.48 597.297 2190.29 600.862 Q2192.12 604.403 2195.73 604.403 Q2199.36 604.403 2201.17 600.862 Q2203 597.297 2203 590.19 Q2203 583.061 2201.17 579.519 Q2199.36 575.954 2195.73 575.954 M2195.73 572.251 Q2201.54 572.251 2204.59 576.857 Q2207.67 581.44 2207.67 590.19 Q2207.67 598.917 2204.59 603.524 Q2201.54 608.107 2195.73 608.107 Q2189.92 608.107 2186.84 603.524 Q2183.78 598.917 2183.78 590.19 Q2183.78 581.44 2186.84 576.857 Q2189.92 572.251 2195.73 572.251 Z" fill="#adb2b7" fill-rule="evenodd" fill-opacity="1" /></svg>
