<?xml version="1.0" encoding="utf-8"?>
<svg xmlns="http://www.w3.org/2000/svg" xmlns:xlink="http://www.w3.org/1999/xlink" width="600" height="400" viewBox="0 0 2400 1600">
<defs>
  <clipPath id="clip260">
    <rect x="0" y="0" width="2400" height="1600"/>
  </clipPath>
</defs>
<path clip-path="url(#clip260)" d="
M0 1600 L2400 1600 L2400 0 L0 0  Z
  " fill="#282c34" fill-rule="evenodd" fill-opacity="1"/>
<defs>
  <clipPath id="clip261">
    <rect x="480" y="0" width="1681" height="1600"/>
  </clipPath>
</defs>
<path clip-path="url(#clip260)" d="
M242.922 1423.18 L2352.76 1423.18 L2352.76 47.2441 L242.922 47.2441  Z
  " fill="#21252b" fill-rule="evenodd" fill-opacity="1"/>
<defs>
  <clipPath id="clip262">
    <rect x="242" y="47" width="2111" height="1377"/>
  </clipPath>
</defs>
<polyline clip-path="url(#clip262)" style="stroke:#adb2b7; stroke-width:2; stroke-opacity:0.1; fill:none" points="
  302.634,1423.18 302.634,47.2441 
  "/>
<polyline clip-path="url(#clip262)" style="stroke:#adb2b7; stroke-width:2; stroke-opacity:0.1; fill:none" points="
  800.236,1423.18 800.236,47.2441 
  "/>
<polyline clip-path="url(#clip262)" style="stroke:#adb2b7; stroke-width:2; stroke-opacity:0.1; fill:none" points="
  1297.84,1423.18 1297.84,47.2441 
  "/>
<polyline clip-path="url(#clip262)" style="stroke:#adb2b7; stroke-width:2; stroke-opacity:0.1; fill:none" points="
  1795.44,1423.18 1795.44,47.2441 
  "/>
<polyline clip-path="url(#clip262)" style="stroke:#adb2b7; stroke-width:2; stroke-opacity:0.1; fill:none" points="
  2293.04,1423.18 2293.04,47.2441 
  "/>
<polyline clip-path="url(#clip260)" style="stroke:#adb2b7; stroke-width:4; stroke-opacity:1; fill:none" points="
  242.922,1423.18 2352.76,1423.18 
  "/>
<polyline clip-path="url(#clip260)" style="stroke:#adb2b7; stroke-width:4; stroke-opacity:1; fill:none" points="
  302.634,1423.18 302.634,1406.67 
  "/>
<polyline clip-path="url(#clip260)" style="stroke:#adb2b7; stroke-width:4; stroke-opacity:1; fill:none" points="
  800.236,1423.18 800.236,1406.67 
  "/>
<polyline clip-path="url(#clip260)" style="stroke:#adb2b7; stroke-width:4; stroke-opacity:1; fill:none" points="
  1297.84,1423.18 1297.84,1406.67 
  "/>
<polyline clip-path="url(#clip260)" style="stroke:#adb2b7; stroke-width:4; stroke-opacity:1; fill:none" points="
  1795.44,1423.18 1795.44,1406.67 
  "/>
<polyline clip-path="url(#clip260)" style="stroke:#adb2b7; stroke-width:4; stroke-opacity:1; fill:none" points="
  2293.04,1423.18 2293.04,1406.67 
  "/>
<path clip-path="url(#clip260)" d="M 0 0 M284.15 1452.37 Q280.539 1452.37 278.711 1455.94 Q276.905 1459.48 276.905 1466.61 Q276.905 1473.71 278.711 1477.28 Q280.539 1480.82 284.15 1480.82 Q287.785 1480.82 289.59 1477.28 Q291.419 1473.71 291.419 1466.61 Q291.419 1459.48 289.59 1455.94 Q287.785 1452.37 284.15 1452.37 M284.15 1448.67 Q289.96 1448.67 293.016 1453.27 Q296.095 1457.86 296.095 1466.61 Q296.095 1475.33 293.016 1479.94 Q289.96 1484.52 284.15 1484.52 Q278.34 1484.52 275.261 1479.94 Q272.206 1475.33 272.206 1466.61 Q272.206 1457.86 275.261 1453.27 Q278.34 1448.67 284.15 1448.67 Z" fill="#9eb1be" fill-rule="evenodd" fill-opacity="1" /><path clip-path="url(#clip260)" d="M 0 0 M301.164 1477.97 L306.048 1477.97 L306.048 1483.85 L301.164 1483.85 L301.164 1477.97 Z" fill="#9eb1be" fill-rule="evenodd" fill-opacity="1" /><path clip-path="url(#clip260)" d="M 0 0 M321.118 1452.37 Q317.507 1452.37 315.678 1455.94 Q313.872 1459.48 313.872 1466.61 Q313.872 1473.71 315.678 1477.28 Q317.507 1480.82 321.118 1480.82 Q324.752 1480.82 326.557 1477.28 Q328.386 1473.71 328.386 1466.61 Q328.386 1459.48 326.557 1455.94 Q324.752 1452.37 321.118 1452.37 M321.118 1448.67 Q326.928 1448.67 329.983 1453.27 Q333.062 1457.86 333.062 1466.61 Q333.062 1475.33 329.983 1479.94 Q326.928 1484.52 321.118 1484.52 Q315.308 1484.52 312.229 1479.94 Q309.173 1475.33 309.173 1466.61 Q309.173 1457.86 312.229 1453.27 Q315.308 1448.67 321.118 1448.67 Z" fill="#9eb1be" fill-rule="evenodd" fill-opacity="1" /><path clip-path="url(#clip260)" d="M 0 0 M776.903 1479.92 L793.223 1479.92 L793.223 1483.85 L771.278 1483.85 L771.278 1479.92 Q773.94 1477.16 778.524 1472.53 Q783.13 1467.88 784.311 1466.54 Q786.556 1464.01 787.436 1462.28 Q788.338 1460.52 788.338 1458.83 Q788.338 1456.07 786.394 1454.34 Q784.473 1452.6 781.371 1452.6 Q779.172 1452.6 776.718 1453.37 Q774.287 1454.13 771.51 1455.68 L771.51 1450.96 Q774.334 1449.82 776.787 1449.25 Q779.241 1448.67 781.278 1448.67 Q786.649 1448.67 789.843 1451.35 Q793.037 1454.04 793.037 1458.53 Q793.037 1460.66 792.227 1462.58 Q791.44 1464.48 789.334 1467.07 Q788.755 1467.74 785.653 1470.96 Q782.551 1474.15 776.903 1479.92 Z" fill="#9eb1be" fill-rule="evenodd" fill-opacity="1" /><path clip-path="url(#clip260)" d="M 0 0 M798.292 1477.97 L803.176 1477.97 L803.176 1483.85 L798.292 1483.85 L798.292 1477.97 Z" fill="#9eb1be" fill-rule="evenodd" fill-opacity="1" /><path clip-path="url(#clip260)" d="M 0 0 M808.292 1449.29 L826.648 1449.29 L826.648 1453.23 L812.574 1453.23 L812.574 1461.7 Q813.593 1461.35 814.611 1461.19 Q815.63 1461 816.648 1461 Q822.435 1461 825.815 1464.18 Q829.195 1467.35 829.195 1472.76 Q829.195 1478.34 825.722 1481.44 Q822.25 1484.52 815.931 1484.52 Q813.755 1484.52 811.486 1484.15 Q809.241 1483.78 806.834 1483.04 L806.834 1478.34 Q808.917 1479.48 811.139 1480.03 Q813.361 1480.59 815.838 1480.59 Q819.843 1480.59 822.181 1478.48 Q824.519 1476.38 824.519 1472.76 Q824.519 1469.15 822.181 1467.05 Q819.843 1464.94 815.838 1464.94 Q813.963 1464.94 812.088 1465.36 Q810.236 1465.77 808.292 1466.65 L808.292 1449.29 Z" fill="#9eb1be" fill-rule="evenodd" fill-opacity="1" /><path clip-path="url(#clip260)" d="M 0 0 M1269.63 1449.29 L1287.99 1449.29 L1287.99 1453.23 L1273.92 1453.23 L1273.92 1461.7 Q1274.93 1461.35 1275.95 1461.19 Q1276.97 1461 1277.99 1461 Q1283.78 1461 1287.16 1464.18 Q1290.54 1467.35 1290.54 1472.76 Q1290.54 1478.34 1287.06 1481.44 Q1283.59 1484.52 1277.27 1484.52 Q1275.1 1484.52 1272.83 1484.15 Q1270.58 1483.78 1268.17 1483.04 L1268.17 1478.34 Q1270.26 1479.48 1272.48 1480.03 Q1274.7 1480.59 1277.18 1480.59 Q1281.18 1480.59 1283.52 1478.48 Q1285.86 1476.38 1285.86 1472.76 Q1285.86 1469.15 1283.52 1467.05 Q1281.18 1464.94 1277.18 1464.94 Q1275.3 1464.94 1273.43 1465.36 Q1271.58 1465.77 1269.63 1466.65 L1269.63 1449.29 Z" fill="#9eb1be" fill-rule="evenodd" fill-opacity="1" /><path clip-path="url(#clip260)" d="M 0 0 M1295.61 1477.97 L1300.49 1477.97 L1300.49 1483.85 L1295.61 1483.85 L1295.61 1477.97 Z" fill="#9eb1be" fill-rule="evenodd" fill-opacity="1" /><path clip-path="url(#clip260)" d="M 0 0 M1315.56 1452.37 Q1311.95 1452.37 1310.12 1455.94 Q1308.31 1459.48 1308.31 1466.61 Q1308.31 1473.71 1310.12 1477.28 Q1311.95 1480.82 1315.56 1480.82 Q1319.19 1480.82 1321 1477.28 Q1322.83 1473.71 1322.83 1466.61 Q1322.83 1459.48 1321 1455.94 Q1319.19 1452.37 1315.56 1452.37 M1315.56 1448.67 Q1321.37 1448.67 1324.42 1453.27 Q1327.5 1457.86 1327.5 1466.61 Q1327.5 1475.33 1324.42 1479.94 Q1321.37 1484.52 1315.56 1484.52 Q1309.75 1484.52 1306.67 1479.94 Q1303.61 1475.33 1303.61 1466.61 Q1303.61 1457.86 1306.67 1453.27 Q1309.75 1448.67 1315.56 1448.67 Z" fill="#9eb1be" fill-rule="evenodd" fill-opacity="1" /><path clip-path="url(#clip260)" d="M 0 0 M1766.34 1449.29 L1788.57 1449.29 L1788.57 1451.28 L1776.02 1483.85 L1771.14 1483.85 L1782.94 1453.23 L1766.34 1453.23 L1766.34 1449.29 Z" fill="#9eb1be" fill-rule="evenodd" fill-opacity="1" /><path clip-path="url(#clip260)" d="M 0 0 M1793.64 1477.97 L1798.52 1477.97 L1798.52 1483.85 L1793.64 1483.85 L1793.64 1477.97 Z" fill="#9eb1be" fill-rule="evenodd" fill-opacity="1" /><path clip-path="url(#clip260)" d="M 0 0 M1803.64 1449.29 L1821.99 1449.29 L1821.99 1453.23 L1807.92 1453.23 L1807.92 1461.7 Q1808.94 1461.35 1809.96 1461.19 Q1810.97 1461 1811.99 1461 Q1817.78 1461 1821.16 1464.18 Q1824.54 1467.35 1824.54 1472.76 Q1824.54 1478.34 1821.07 1481.44 Q1817.59 1484.52 1811.27 1484.52 Q1809.1 1484.52 1806.83 1484.15 Q1804.58 1483.78 1802.18 1483.04 L1802.18 1478.34 Q1804.26 1479.48 1806.48 1480.03 Q1808.71 1480.59 1811.18 1480.59 Q1815.19 1480.59 1817.52 1478.48 Q1819.86 1476.38 1819.86 1472.76 Q1819.86 1469.15 1817.52 1467.05 Q1815.19 1464.94 1811.18 1464.94 Q1809.31 1464.94 1807.43 1465.36 Q1805.58 1465.77 1803.64 1466.65 L1803.64 1449.29 Z" fill="#9eb1be" fill-rule="evenodd" fill-opacity="1" /><path clip-path="url(#clip260)" d="M 0 0 M2251.44 1479.92 L2259.07 1479.92 L2259.07 1453.55 L2250.76 1455.22 L2250.76 1450.96 L2259.03 1449.29 L2263.7 1449.29 L2263.7 1479.92 L2271.34 1479.92 L2271.34 1483.85 L2251.44 1483.85 L2251.44 1479.92 Z" fill="#9eb1be" fill-rule="evenodd" fill-opacity="1" /><path clip-path="url(#clip260)" d="M 0 0 M2286.41 1452.37 Q2282.8 1452.37 2280.97 1455.94 Q2279.17 1459.48 2279.17 1466.61 Q2279.17 1473.71 2280.97 1477.28 Q2282.8 1480.82 2286.41 1480.82 Q2290.05 1480.82 2291.85 1477.28 Q2293.68 1473.71 2293.68 1466.61 Q2293.68 1459.48 2291.85 1455.94 Q2290.05 1452.37 2286.41 1452.37 M2286.41 1448.67 Q2292.22 1448.67 2295.28 1453.27 Q2298.36 1457.86 2298.36 1466.61 Q2298.36 1475.33 2295.28 1479.94 Q2292.22 1484.52 2286.41 1484.52 Q2280.6 1484.52 2277.52 1479.94 Q2274.47 1475.33 2274.47 1466.61 Q2274.47 1457.86 2277.52 1453.27 Q2280.6 1448.67 2286.41 1448.67 Z" fill="#9eb1be" fill-rule="evenodd" fill-opacity="1" /><path clip-path="url(#clip260)" d="M 0 0 M2303.43 1477.97 L2308.31 1477.97 L2308.31 1483.85 L2303.43 1483.85 L2303.43 1477.97 Z" fill="#9eb1be" fill-rule="evenodd" fill-opacity="1" /><path clip-path="url(#clip260)" d="M 0 0 M2323.38 1452.37 Q2319.77 1452.37 2317.94 1455.94 Q2316.13 1459.48 2316.13 1466.61 Q2316.13 1473.71 2317.94 1477.28 Q2319.77 1480.82 2323.38 1480.82 Q2327.01 1480.82 2328.82 1477.28 Q2330.65 1473.71 2330.65 1466.61 Q2330.65 1459.48 2328.82 1455.94 Q2327.01 1452.37 2323.38 1452.37 M2323.38 1448.67 Q2329.19 1448.67 2332.24 1453.27 Q2335.32 1457.86 2335.32 1466.61 Q2335.32 1475.33 2332.24 1479.94 Q2329.19 1484.52 2323.38 1484.52 Q2317.57 1484.52 2314.49 1479.94 Q2311.43 1475.33 2311.43 1466.61 Q2311.43 1457.86 2314.49 1453.27 Q2317.57 1448.67 2323.38 1448.67 Z" fill="#9eb1be" fill-rule="evenodd" fill-opacity="1" /><path clip-path="url(#clip260)" d="M 0 0 M1296.9 1522.27 L1296.9 1532.4 L1308.96 1532.4 L1308.96 1536.95 L1296.9 1536.95 L1296.9 1556.3 Q1296.9 1560.66 1298.08 1561.9 Q1299.29 1563.14 1302.95 1563.14 L1308.96 1563.14 L1308.96 1568.04 L1302.95 1568.04 Q1296.17 1568.04 1293.59 1565.53 Q1291.01 1562.98 1291.01 1556.3 L1291.01 1536.95 L1286.71 1536.95 L1286.71 1532.4 L1291.01 1532.4 L1291.01 1522.27 L1296.9 1522.27 Z" fill="#9eb1be" fill-rule="evenodd" fill-opacity="1" /><polyline clip-path="url(#clip262)" style="stroke:#adb2b7; stroke-width:2; stroke-opacity:0.1; fill:none" points="
  242.922,1340.43 2352.76,1340.43 
  "/>
<polyline clip-path="url(#clip262)" style="stroke:#adb2b7; stroke-width:2; stroke-opacity:0.1; fill:none" points="
  242.922,1037.82 2352.76,1037.82 
  "/>
<polyline clip-path="url(#clip262)" style="stroke:#adb2b7; stroke-width:2; stroke-opacity:0.1; fill:none" points="
  242.922,735.21 2352.76,735.21 
  "/>
<polyline clip-path="url(#clip262)" style="stroke:#adb2b7; stroke-width:2; stroke-opacity:0.1; fill:none" points="
  242.922,432.599 2352.76,432.599 
  "/>
<polyline clip-path="url(#clip262)" style="stroke:#adb2b7; stroke-width:2; stroke-opacity:0.1; fill:none" points="
  242.922,129.989 2352.76,129.989 
  "/>
<polyline clip-path="url(#clip260)" style="stroke:#adb2b7; stroke-width:4; stroke-opacity:1; fill:none" points="
  242.922,1423.18 242.922,47.2441 
  "/>
<polyline clip-path="url(#clip260)" style="stroke:#adb2b7; stroke-width:4; stroke-opacity:1; fill:none" points="
  242.922,1340.43 268.24,1340.43 
  "/>
<polyline clip-path="url(#clip260)" style="stroke:#adb2b7; stroke-width:4; stroke-opacity:1; fill:none" points="
  242.922,1037.82 268.24,1037.82 
  "/>
<polyline clip-path="url(#clip260)" style="stroke:#adb2b7; stroke-width:4; stroke-opacity:1; fill:none" points="
  242.922,735.21 268.24,735.21 
  "/>
<polyline clip-path="url(#clip260)" style="stroke:#adb2b7; stroke-width:4; stroke-opacity:1; fill:none" points="
  242.922,432.599 268.24,432.599 
  "/>
<polyline clip-path="url(#clip260)" style="stroke:#adb2b7; stroke-width:4; stroke-opacity:1; fill:none" points="
  242.922,129.989 268.24,129.989 
  "/>
<path clip-path="url(#clip260)" d="M 0 0 M114.492 1340.88 L144.167 1340.88 L144.167 1344.82 L114.492 1344.82 L114.492 1340.88 Z" fill="#9eb1be" fill-rule="evenodd" fill-opacity="1" /><path clip-path="url(#clip260)" d="M 0 0 M150.047 1353.78 L157.686 1353.78 L157.686 1327.41 L149.376 1329.08 L149.376 1324.82 L157.64 1323.15 L162.315 1323.15 L162.315 1353.78 L169.954 1353.78 L169.954 1357.71 L150.047 1357.71 L150.047 1353.78 Z" fill="#9eb1be" fill-rule="evenodd" fill-opacity="1" /><path clip-path="url(#clip260)" d="M 0 0 M175.024 1351.83 L179.908 1351.83 L179.908 1357.71 L175.024 1357.71 L175.024 1351.83 Z" fill="#9eb1be" fill-rule="evenodd" fill-opacity="1" /><path clip-path="url(#clip260)" d="M 0 0 M194.977 1326.23 Q191.366 1326.23 189.538 1329.8 Q187.732 1333.34 187.732 1340.47 Q187.732 1347.57 189.538 1351.14 Q191.366 1354.68 194.977 1354.68 Q198.612 1354.68 200.417 1351.14 Q202.246 1347.57 202.246 1340.47 Q202.246 1333.34 200.417 1329.8 Q198.612 1326.23 194.977 1326.23 M194.977 1322.53 Q200.787 1322.53 203.843 1327.13 Q206.922 1331.72 206.922 1340.47 Q206.922 1349.19 203.843 1353.8 Q200.787 1358.38 194.977 1358.38 Q189.167 1358.38 186.088 1353.8 Q183.033 1349.19 183.033 1340.47 Q183.033 1331.72 186.088 1327.13 Q189.167 1322.53 194.977 1322.53 Z" fill="#9eb1be" fill-rule="evenodd" fill-opacity="1" /><path clip-path="url(#clip260)" d="M 0 0 M114.26 1038.27 L143.936 1038.27 L143.936 1042.21 L114.26 1042.21 L114.26 1038.27 Z" fill="#9eb1be" fill-rule="evenodd" fill-opacity="1" /><path clip-path="url(#clip260)" d="M 0 0 M159.005 1023.62 Q155.394 1023.62 153.566 1027.18 Q151.76 1030.73 151.76 1037.86 Q151.76 1044.96 153.566 1048.53 Q155.394 1052.07 159.005 1052.07 Q162.64 1052.07 164.445 1048.53 Q166.274 1044.96 166.274 1037.86 Q166.274 1030.73 164.445 1027.18 Q162.64 1023.62 159.005 1023.62 M159.005 1019.92 Q164.815 1019.92 167.871 1024.52 Q170.95 1029.11 170.95 1037.86 Q170.95 1046.58 167.871 1051.19 Q164.815 1055.77 159.005 1055.77 Q153.195 1055.77 150.116 1051.19 Q147.061 1046.58 147.061 1037.86 Q147.061 1029.11 150.116 1024.52 Q153.195 1019.92 159.005 1019.92 Z" fill="#9eb1be" fill-rule="evenodd" fill-opacity="1" /><path clip-path="url(#clip260)" d="M 0 0 M176.019 1049.22 L180.903 1049.22 L180.903 1055.1 L176.019 1055.1 L176.019 1049.22 Z" fill="#9eb1be" fill-rule="evenodd" fill-opacity="1" /><path clip-path="url(#clip260)" d="M 0 0 M186.019 1020.54 L204.375 1020.54 L204.375 1024.48 L190.301 1024.48 L190.301 1032.95 Q191.32 1032.6 192.338 1032.44 Q193.357 1032.25 194.375 1032.25 Q200.162 1032.25 203.542 1035.43 Q206.922 1038.6 206.922 1044.01 Q206.922 1049.59 203.449 1052.69 Q199.977 1055.77 193.658 1055.77 Q191.482 1055.77 189.213 1055.4 Q186.968 1055.03 184.561 1054.29 L184.561 1049.59 Q186.644 1050.73 188.866 1051.28 Q191.088 1051.84 193.565 1051.84 Q197.57 1051.84 199.908 1049.73 Q202.246 1047.62 202.246 1044.01 Q202.246 1040.4 199.908 1038.3 Q197.57 1036.19 193.565 1036.19 Q191.69 1036.19 189.815 1036.61 Q187.963 1037.02 186.019 1037.9 L186.019 1020.54 Z" fill="#9eb1be" fill-rule="evenodd" fill-opacity="1" /><path clip-path="url(#clip260)" d="M 0 0 M158.01 721.009 Q154.399 721.009 152.57 724.574 Q150.765 728.115 150.765 735.245 Q150.765 742.351 152.57 745.916 Q154.399 749.458 158.01 749.458 Q161.644 749.458 163.45 745.916 Q165.278 742.351 165.278 735.245 Q165.278 728.115 163.45 724.574 Q161.644 721.009 158.01 721.009 M158.01 717.305 Q163.82 717.305 166.876 721.912 Q169.954 726.495 169.954 735.245 Q169.954 743.972 166.876 748.578 Q163.82 753.161 158.01 753.161 Q152.2 753.161 149.121 748.578 Q146.066 743.972 146.066 735.245 Q146.066 726.495 149.121 721.912 Q152.2 717.305 158.01 717.305 Z" fill="#9eb1be" fill-rule="evenodd" fill-opacity="1" /><path clip-path="url(#clip260)" d="M 0 0 M175.024 746.611 L179.908 746.611 L179.908 752.49 L175.024 752.49 L175.024 746.611 Z" fill="#9eb1be" fill-rule="evenodd" fill-opacity="1" /><path clip-path="url(#clip260)" d="M 0 0 M194.977 721.009 Q191.366 721.009 189.538 724.574 Q187.732 728.115 187.732 735.245 Q187.732 742.351 189.538 745.916 Q191.366 749.458 194.977 749.458 Q198.612 749.458 200.417 745.916 Q202.246 742.351 202.246 735.245 Q202.246 728.115 200.417 724.574 Q198.612 721.009 194.977 721.009 M194.977 717.305 Q200.787 717.305 203.843 721.912 Q206.922 726.495 206.922 735.245 Q206.922 743.972 203.843 748.578 Q200.787 753.161 194.977 753.161 Q189.167 753.161 186.088 748.578 Q183.033 743.972 183.033 735.245 Q183.033 726.495 186.088 721.912 Q189.167 717.305 194.977 717.305 Z" fill="#9eb1be" fill-rule="evenodd" fill-opacity="1" /><path clip-path="url(#clip260)" d="M 0 0 M159.005 418.398 Q155.394 418.398 153.566 421.963 Q151.76 425.505 151.76 432.634 Q151.76 439.741 153.566 443.305 Q155.394 446.847 159.005 446.847 Q162.64 446.847 164.445 443.305 Q166.274 439.741 166.274 432.634 Q166.274 425.505 164.445 421.963 Q162.64 418.398 159.005 418.398 M159.005 414.694 Q164.815 414.694 167.871 419.301 Q170.95 423.884 170.95 432.634 Q170.95 441.361 167.871 445.967 Q164.815 450.551 159.005 450.551 Q153.195 450.551 150.116 445.967 Q147.061 441.361 147.061 432.634 Q147.061 423.884 150.116 419.301 Q153.195 414.694 159.005 414.694 Z" fill="#9eb1be" fill-rule="evenodd" fill-opacity="1" /><path clip-path="url(#clip260)" d="M 0 0 M176.019 444 L180.903 444 L180.903 449.879 L176.019 449.879 L176.019 444 Z" fill="#9eb1be" fill-rule="evenodd" fill-opacity="1" /><path clip-path="url(#clip260)" d="M 0 0 M186.019 415.319 L204.375 415.319 L204.375 419.255 L190.301 419.255 L190.301 427.727 Q191.32 427.38 192.338 427.217 Q193.357 427.032 194.375 427.032 Q200.162 427.032 203.542 430.204 Q206.922 433.375 206.922 438.791 Q206.922 444.37 203.449 447.472 Q199.977 450.551 193.658 450.551 Q191.482 450.551 189.213 450.18 Q186.968 449.81 184.561 449.069 L184.561 444.37 Q186.644 445.504 188.866 446.06 Q191.088 446.616 193.565 446.616 Q197.57 446.616 199.908 444.509 Q202.246 442.403 202.246 438.791 Q202.246 435.18 199.908 433.074 Q197.57 430.967 193.565 430.967 Q191.69 430.967 189.815 431.384 Q187.963 431.801 186.019 432.68 L186.019 415.319 Z" fill="#9eb1be" fill-rule="evenodd" fill-opacity="1" /><path clip-path="url(#clip260)" d="M 0 0 M150.047 143.333 L157.686 143.333 L157.686 116.968 L149.376 118.635 L149.376 114.375 L157.64 112.709 L162.315 112.709 L162.315 143.333 L169.954 143.333 L169.954 147.269 L150.047 147.269 L150.047 143.333 Z" fill="#9eb1be" fill-rule="evenodd" fill-opacity="1" /><path clip-path="url(#clip260)" d="M 0 0 M175.024 141.389 L179.908 141.389 L179.908 147.269 L175.024 147.269 L175.024 141.389 Z" fill="#9eb1be" fill-rule="evenodd" fill-opacity="1" /><path clip-path="url(#clip260)" d="M 0 0 M194.977 115.787 Q191.366 115.787 189.538 119.352 Q187.732 122.894 187.732 130.023 Q187.732 137.13 189.538 140.695 Q191.366 144.236 194.977 144.236 Q198.612 144.236 200.417 140.695 Q202.246 137.13 202.246 130.023 Q202.246 122.894 200.417 119.352 Q198.612 115.787 194.977 115.787 M194.977 112.084 Q200.787 112.084 203.843 116.69 Q206.922 121.273 206.922 130.023 Q206.922 138.75 203.843 143.357 Q200.787 147.94 194.977 147.94 Q189.167 147.94 186.088 143.357 Q183.033 138.75 183.033 130.023 Q183.033 121.273 186.088 116.69 Q189.167 112.084 194.977 112.084 Z" fill="#9eb1be" fill-rule="evenodd" fill-opacity="1" /><path clip-path="url(#clip260)" d="M 0 0 M28.3562 718.597 L45.7028 731.488 L64.0042 717.929 L64.0042 724.836 L49.9996 735.212 L64.0042 745.588 L64.0042 752.495 L45.3526 738.649 L28.3562 751.317 L28.3562 744.41 L41.0558 734.957 L28.3562 725.504 L28.3562 718.597 Z" fill="#9eb1be" fill-rule="evenodd" fill-opacity="1" /><polyline clip-path="url(#clip262)" style="stroke:#fe4365; stroke-width:4; stroke-opacity:1; fill:none" points="
  302.634,129.989 304.626,131.822 306.619,133.692 308.611,135.599 310.604,137.541 312.596,139.519 314.588,141.532 316.581,143.582 318.573,145.666 320.566,147.787 
  322.558,149.942 324.55,152.133 326.543,154.358 328.535,156.619 330.528,158.914 332.52,161.243 334.512,163.607 336.505,166.006 338.497,168.438 340.49,170.905 
  342.482,173.405 344.474,175.94 346.467,178.507 348.459,181.108 350.452,183.743 352.444,186.41 354.436,189.11 356.429,191.844 358.421,194.609 360.414,197.407 
  362.406,200.238 364.398,203.1 366.391,205.995 368.383,208.921 370.376,211.879 372.368,214.868 374.36,217.888 376.353,220.94 378.345,224.022 380.338,227.135 
  382.33,230.279 384.322,233.452 386.315,236.656 388.307,239.89 390.3,243.153 392.292,246.446 394.284,249.769 396.277,253.12 398.269,256.501 400.262,259.91 
  402.254,263.347 404.246,266.813 406.239,270.307 408.231,273.829 410.224,277.379 412.216,280.956 414.209,284.56 416.201,288.192 418.193,291.85 420.186,295.535 
  422.178,299.246 424.171,302.983 426.163,306.747 428.155,310.536 430.148,314.35 432.14,318.19 434.133,322.055 436.125,325.944 438.117,329.858 440.11,333.797 
  442.102,337.759 444.095,341.745 446.087,345.755 448.079,349.789 450.072,353.845 452.064,357.924 454.057,362.026 456.049,366.151 458.041,370.297 460.034,374.466 
  462.026,378.656 464.019,382.867 466.011,387.1 468.003,391.353 469.996,395.627 471.988,399.922 473.981,404.236 475.973,408.571 477.965,412.925 479.958,417.298 
  481.95,421.691 483.943,426.102 485.935,430.532 487.927,434.98 489.92,439.446 491.912,443.93 493.905,448.431 495.897,452.949 497.889,457.485 499.882,462.037 
  501.874,466.606 503.867,471.19 505.859,475.791 507.851,480.407 509.844,485.038 511.836,489.684 513.829,494.345 515.821,499.021 517.813,503.711 519.806,508.414 
  521.798,513.131 523.791,517.862 525.783,522.606 527.775,527.362 529.768,532.131 531.76,536.912 533.753,541.704 535.745,546.509 537.737,551.325 539.73,556.152 
  541.722,560.989 543.715,565.837 545.707,570.695 547.699,575.563 549.692,580.441 551.684,585.328 553.677,590.224 555.669,595.129 557.661,600.042 559.654,604.963 
  561.646,609.892 563.639,614.828 565.631,619.772 567.623,624.722 569.616,629.68 571.608,634.643 573.601,639.613 575.593,644.588 577.585,649.569 579.578,654.555 
  581.57,659.546 583.563,664.541 585.555,669.541 587.547,674.544 589.54,679.551 591.532,684.562 593.525,689.575 595.517,694.591 597.509,699.61 599.502,704.631 
  601.494,709.654 603.487,714.678 605.479,719.703 607.471,724.729 609.464,729.756 611.456,734.784 613.449,739.811 615.441,744.838 617.434,749.865 619.426,754.89 
  621.418,759.915 623.411,764.938 625.403,769.959 627.396,774.978 629.388,779.994 631.38,785.008 633.373,790.019 635.365,795.027 637.358,800.031 639.35,805.031 
  641.342,810.028 643.335,815.019 645.327,820.006 647.32,824.988 649.312,829.964 651.304,834.934 653.297,839.899 655.289,844.857 657.282,849.809 659.274,854.754 
  661.266,859.692 663.259,864.622 665.251,869.544 667.244,874.459 669.236,879.365 671.228,884.262 673.221,889.151 675.213,894.03 677.206,898.9 679.198,903.76 
  681.19,908.609 683.183,913.449 685.175,918.278 687.168,923.095 689.16,927.902 691.152,932.696 693.145,937.479 695.137,942.25 697.13,947.009 699.122,951.755 
  701.114,956.487 703.107,961.207 705.099,965.913 707.092,970.605 709.084,975.283 711.076,979.946 713.069,984.595 715.061,989.229 717.054,993.848 719.046,998.451 
  721.038,1003.04 723.031,1007.61 725.023,1012.16 727.016,1016.7 729.008,1021.22 731,1025.73 732.993,1030.22 734.985,1034.68 736.978,1039.14 738.97,1043.57 
  740.962,1047.98 742.955,1052.38 744.947,1056.76 746.94,1061.11 748.932,1065.45 750.924,1069.77 752.917,1074.07 754.909,1078.34 756.902,1082.6 758.894,1086.84 
  760.886,1091.05 762.879,1095.25 764.871,1099.42 766.864,1103.57 768.856,1107.7 770.848,1111.8 772.841,1115.88 774.833,1119.95 776.826,1123.98 778.818,1128 
  780.81,1131.99 782.803,1135.95 784.795,1139.9 786.788,1143.81 788.78,1147.71 790.772,1151.58 792.765,1155.42 794.757,1159.24 796.75,1163.03 798.742,1166.8 
  800.734,1170.54 802.727,1174.26 804.719,1177.95 806.712,1181.61 808.704,1185.25 810.697,1188.85 812.689,1192.44 814.681,1195.99 816.674,1199.52 818.666,1203.02 
  820.659,1206.49 822.651,1209.93 824.643,1213.34 826.636,1216.73 828.628,1220.09 830.621,1223.41 832.613,1226.71 834.605,1229.98 836.598,1233.22 838.59,1236.43 
  840.583,1239.61 842.575,1242.75 844.567,1245.87 846.56,1248.96 848.552,1252.02 850.545,1255.04 852.537,1258.04 854.529,1261 856.522,1263.93 858.514,1266.83 
  860.507,1269.7 862.499,1272.53 864.491,1275.34 866.484,1278.11 868.476,1280.85 870.469,1283.55 872.461,1286.23 874.453,1288.87 876.446,1291.47 878.438,1294.05 
  880.431,1296.59 882.423,1299.09 884.415,1301.57 886.408,1304 888.4,1306.41 890.393,1308.78 892.385,1311.11 894.377,1313.41 896.37,1315.68 898.362,1317.91 
  900.355,1320.11 902.347,1322.27 904.339,1324.4 906.332,1326.49 908.324,1328.54 910.317,1330.56 912.309,1332.55 914.301,1334.49 916.294,1336.41 918.286,1338.28 
  920.279,1340.12 922.271,1341.93 924.263,1343.69 926.256,1345.42 928.248,1347.12 930.241,1348.78 932.233,1350.4 934.225,1351.98 936.218,1353.53 938.21,1355.04 
  940.203,1356.51 942.195,1357.94 944.187,1359.34 946.18,1360.7 948.172,1362.03 950.165,1363.31 952.157,1364.56 954.149,1365.77 956.142,1366.94 958.134,1368.07 
  960.127,1369.17 962.119,1370.23 964.111,1371.25 966.104,1372.23 968.096,1373.17 970.089,1374.08 972.081,1374.95 974.073,1375.77 976.066,1376.56 978.058,1377.32 
  980.051,1378.03 982.043,1378.7 984.035,1379.34 986.028,1379.94 988.02,1380.49 990.013,1381.01 992.005,1381.5 993.997,1381.94 995.99,1382.34 997.982,1382.71 
  999.975,1383.03 1001.97,1383.32 1003.96,1383.57 1005.95,1383.78 1007.94,1383.95 1009.94,1384.08 1011.93,1384.17 1013.92,1384.22 1015.91,1384.24 1017.91,1384.21 
  1019.9,1384.15 1021.89,1384.05 1023.88,1383.91 1025.88,1383.73 1027.87,1383.51 1029.86,1383.25 1031.85,1382.95 1033.85,1382.62 1035.84,1382.24 1037.83,1381.83 
  1039.82,1381.38 1041.82,1380.89 1043.81,1380.36 1045.8,1379.79 1047.79,1379.18 1049.78,1378.54 1051.78,1377.85 1053.77,1377.13 1055.76,1376.37 1057.75,1375.57 
  1059.75,1374.73 1061.74,1373.85 1063.73,1372.94 1065.72,1371.98 1067.72,1370.99 1069.71,1369.96 1071.7,1368.9 1073.69,1367.79 1075.69,1366.65 1077.68,1365.46 
  1079.67,1364.25 1081.66,1362.99 1083.66,1361.69 1085.65,1360.36 1087.64,1358.99 1089.63,1357.58 1091.63,1356.14 1093.62,1354.66 1095.61,1353.14 1097.6,1351.58 
  1099.59,1349.99 1101.59,1348.36 1103.58,1346.69 1105.57,1344.99 1107.56,1343.25 1109.56,1341.47 1111.55,1339.66 1113.54,1337.81 1115.53,1335.93 1117.53,1334 
  1119.52,1332.05 1121.51,1330.05 1123.5,1328.03 1125.5,1325.96 1127.49,1323.86 1129.48,1321.73 1131.47,1319.56 1133.47,1317.35 1135.46,1315.11 1137.45,1312.83 
  1139.44,1310.53 1141.44,1308.18 1143.43,1305.8 1145.42,1303.39 1147.41,1300.94 1149.4,1298.46 1151.4,1295.95 1153.39,1293.4 1155.38,1290.82 1157.37,1288.2 
  1159.37,1285.55 1161.36,1282.87 1163.35,1280.16 1165.34,1277.41 1167.34,1274.63 1169.33,1271.82 1171.32,1268.98 1173.31,1266.1 1175.31,1263.19 1177.3,1260.25 
  1179.29,1257.28 1181.28,1254.28 1183.28,1251.24 1185.27,1248.18 1187.26,1245.08 1189.25,1241.96 1191.25,1238.8 1193.24,1235.62 1195.23,1232.4 1197.22,1229.15 
  1199.21,1225.88 1201.21,1222.57 1203.2,1219.24 1205.19,1215.87 1207.18,1212.48 1209.18,1209.06 1211.17,1205.61 1213.16,1202.13 1215.15,1198.63 1217.15,1195.09 
  1219.14,1191.53 1221.13,1187.94 1223.12,1184.33 1225.12,1180.68 1227.11,1177.01 1229.1,1173.32 1231.09,1169.6 1233.09,1165.85 1235.08,1162.07 1237.07,1158.27 
  1239.06,1154.45 1241.06,1150.6 1243.05,1146.72 1245.04,1142.82 1247.03,1138.9 1249.02,1134.95 1251.02,1130.98 1253.01,1126.98 1255,1122.96 1256.99,1118.92 
  1258.99,1114.85 1260.98,1110.76 1262.97,1106.65 1264.96,1102.52 1266.96,1098.36 1268.95,1094.18 1270.94,1089.99 1272.93,1085.76 1274.93,1081.52 1276.92,1077.26 
  1278.91,1072.98 1280.9,1068.68 1282.9,1064.35 1284.89,1060.01 1286.88,1055.65 1288.87,1051.27 1290.87,1046.87 1292.86,1042.45 1294.85,1038.01 1296.84,1033.55 
  1298.84,1029.08 1300.83,1024.59 1302.82,1020.08 1304.81,1015.55 1306.8,1011.01 1308.8,1006.45 1310.79,1001.88 1312.78,997.285 1314.77,992.678 1316.77,988.056 
  1318.76,983.418 1320.75,978.765 1322.74,974.098 1324.74,969.417 1326.73,964.721 1328.72,960.012 1330.71,955.289 1332.71,950.553 1334.7,945.804 1336.69,941.042 
  1338.68,936.268 1340.68,931.482 1342.67,926.684 1344.66,921.875 1346.65,917.054 1348.65,912.223 1350.64,907.381 1352.63,902.529 1354.62,897.666 1356.61,892.794 
  1358.61,887.912 1360.6,883.022 1362.59,878.122 1364.58,873.214 1366.58,868.297 1368.57,863.373 1370.56,858.441 1372.55,853.501 1374.55,848.554 1376.54,843.601 
  1378.53,838.641 1380.52,833.675 1382.52,828.703 1384.51,823.725 1386.5,818.742 1388.49,813.754 1390.49,808.761 1392.48,803.764 1394.47,798.763 1396.46,793.758 
  1398.46,788.749 1400.45,783.738 1402.44,778.723 1404.43,773.706 1406.42,768.686 1408.42,763.664 1410.41,758.641 1412.4,753.616 1414.39,748.59 1416.39,743.564 
  1418.38,738.537 1420.37,733.509 1422.36,728.482 1424.36,723.455 1426.35,718.429 1428.34,713.404 1430.33,708.38 1432.33,703.358 1434.32,698.338 1436.31,693.319 
  1438.3,688.304 1440.3,683.291 1442.29,678.282 1444.28,673.275 1446.27,668.273 1448.27,663.274 1450.26,658.28 1452.25,653.291 1454.24,648.306 1456.23,643.326 
  1458.23,638.353 1460.22,633.384 1462.21,628.422 1464.2,623.467 1466.2,618.518 1468.19,613.576 1470.18,608.641 1472.17,603.714 1474.17,598.795 1476.16,593.884 
  1478.15,588.982 1480.14,584.088 1482.14,579.204 1484.13,574.328 1486.12,569.463 1488.11,564.607 1490.11,559.762 1492.1,554.927 1494.09,550.103 1496.08,545.29 
  1498.08,540.488 1500.07,535.698 1502.06,530.921 1504.05,526.155 1506.04,521.402 1508.04,516.662 1510.03,511.934 1512.02,507.221 1514.01,502.52 1516.01,497.834 
  1518,493.162 1519.99,488.505 1521.98,483.863 1523.98,479.235 1525.97,474.623 1527.96,470.026 1529.95,465.446 1531.95,460.881 1533.94,456.334 1535.93,451.802 
  1537.92,447.288 1539.92,442.791 1541.91,438.312 1543.9,433.85 1545.89,429.407 1547.89,424.982 1549.88,420.575 1551.87,416.188 1553.86,411.819 1555.85,407.47 
  1557.85,403.141 1559.84,398.831 1561.83,394.542 1563.82,390.273 1565.82,386.025 1567.81,381.797 1569.8,377.591 1571.79,373.407 1573.79,369.244 1575.78,365.103 
  1577.77,360.984 1579.76,356.888 1581.76,352.815 1583.75,348.764 1585.74,344.737 1587.73,340.733 1589.73,336.752 1591.72,332.796 1593.71,328.864 1595.7,324.956 
  1597.7,321.072 1599.69,317.214 1601.68,313.381 1603.67,309.573 1605.66,305.79 1607.66,302.033 1609.65,298.303 1611.64,294.598 1613.63,290.92 1615.63,287.269 
  1617.62,283.644 1619.61,280.047 1621.6,276.476 1623.6,272.934 1625.59,269.419 1627.58,265.932 1629.57,262.473 1631.57,259.043 1633.56,255.641 1635.55,252.268 
  1637.54,248.924 1639.54,245.609 1641.53,242.323 1643.52,239.067 1645.51,235.841 1647.51,232.645 1649.5,229.479 1651.49,226.343 1653.48,223.238 1655.47,220.163 
  1657.47,217.12 1659.46,214.107 1661.45,211.126 1663.44,208.176 1665.44,205.258 1667.43,202.372 1669.42,199.517 1671.41,196.695 1673.41,193.905 1675.4,191.148 
  1677.39,188.423 1679.38,185.731 1681.38,183.072 1683.37,180.446 1685.36,177.853 1687.35,175.294 1689.35,172.768 1691.34,170.276 1693.33,167.818 1695.32,165.395 
  1697.32,163.005 1699.31,160.649 1701.3,158.329 1703.29,156.042 1705.29,153.791 1707.28,151.574 1709.27,149.392 1711.26,147.246 1713.25,145.135 1715.25,143.059 
  1717.24,141.018 1719.23,139.014 1721.22,137.045 1723.22,135.112 1725.21,133.215 1727.2,131.354 1729.19,129.53 1731.19,127.741 1733.18,125.989 1735.17,124.274 
  1737.16,122.595 1739.16,120.954 1741.15,119.349 1743.14,117.781 1745.13,116.25 1747.13,114.756 1749.12,113.299 1751.11,111.88 1753.1,110.498 1755.1,109.153 
  1757.09,107.846 1759.08,106.577 1761.07,105.346 1763.06,104.152 1765.06,102.996 1767.05,101.878 1769.04,100.798 1771.03,99.7562 1773.03,98.7524 1775.02,97.7869 
  1777.01,96.8595 1779,95.9705 1781,95.1199 1782.99,94.3076 1784.98,93.5338 1786.97,92.7985 1788.97,92.1017 1790.96,91.4436 1792.95,90.824 1794.94,90.2431 
  1796.94,89.7009 1798.93,89.1975 1800.92,88.7328 1802.91,88.3069 1804.91,87.9198 1806.9,87.5715 1808.89,87.2621 1810.88,86.9916 1812.87,86.76 1814.87,86.5673 
  1816.86,86.4135 1818.85,86.2986 1820.84,86.2227 1822.84,86.1857 1824.83,86.1876 1826.82,86.2285 1828.81,86.3083 1830.81,86.4271 1832.8,86.5848 1834.79,86.7814 
  1836.78,87.0169 1838.78,87.2913 1840.77,87.6045 1842.76,87.9567 1844.75,88.3476 1846.75,88.7774 1848.74,89.246 1850.73,89.7533 1852.72,90.2994 1854.72,90.8841 
  1856.71,91.5075 1858.7,92.1695 1860.69,92.8701 1862.68,93.6093 1864.68,94.3869 1866.67,95.203 1868.66,96.0575 1870.65,96.9504 1872.65,97.8815 1874.64,98.8509 
  1876.63,99.8584 1878.62,100.904 1880.62,101.988 1882.61,103.11 1884.6,104.269 1886.59,105.467 1888.59,106.702 1890.58,107.975 1892.57,109.286 1894.56,110.634 
  1896.56,112.02 1898.55,113.443 1900.54,114.903 1902.53,116.401 1904.53,117.935 1906.52,119.507 1908.51,121.116 1910.5,122.761 1912.49,124.444 1914.49,126.163 
  1916.48,127.918 1918.47,129.71 1920.46,131.538 1922.46,133.403 1924.45,135.303 1926.44,137.24 1928.43,139.212 1930.43,141.22 1932.42,143.264 1934.41,145.344 
  1936.4,147.458 1938.4,149.608 1940.39,151.794 1942.38,154.014 1944.37,156.269 1946.37,158.559 1948.36,160.883 1950.35,163.242 1952.34,165.635 1954.34,168.062 
  1956.33,170.524 1958.32,173.019 1960.31,175.548 1962.3,178.11 1964.3,180.706 1966.29,183.336 1968.28,185.998 1970.27,188.693 1972.27,191.421 1974.26,194.182 
  1976.25,196.975 1978.24,199.801 1980.24,202.658 1982.23,205.548 1984.22,208.469 1986.21,211.422 1988.21,214.407 1990.2,217.422 1992.19,220.469 1994.18,223.546 
  1996.18,226.655 1998.17,229.793 2000.16,232.963 2002.15,236.162 2004.15,239.391 2006.14,242.65 2008.13,245.938 2010.12,249.256 2012.11,252.603 2014.11,255.979 
  2016.1,259.384 2018.09,262.817 2020.08,266.279 2022.08,269.768 2024.07,273.286 2026.06,276.832 2028.05,280.404 2030.05,284.005 2032.04,287.632 2034.03,291.286 
  2036.02,294.967 2038.02,298.674 2040.01,302.407 2042,306.166 2043.99,309.952 2045.99,313.762 2047.98,317.598 2049.97,321.459 2051.96,325.345 2053.96,329.255 
  2055.95,333.19 2057.94,337.148 2059.93,341.131 2061.92,345.137 2063.92,349.167 2065.91,353.22 2067.9,357.296 2069.89,361.394 2071.89,365.515 2073.88,369.658 
  2075.87,373.823 2077.86,378.01 2079.86,382.218 2081.85,386.448 2083.84,390.698 2085.83,394.969 2087.83,399.26 2089.82,403.572 2091.81,407.903 2093.8,412.254 
  2095.8,416.625 2097.79,421.014 2099.78,425.423 2101.77,429.849 2103.77,434.295 2105.76,438.758 2107.75,443.239 2109.74,447.738 2111.74,452.254 2113.73,456.787 
  2115.72,461.336 2117.71,465.902 2119.7,470.484 2121.7,475.083 2123.69,479.696 2125.68,484.325 2127.67,488.969 2129.67,493.628 2131.66,498.301 2133.65,502.989 
  2135.64,507.69 2137.64,512.406 2139.63,517.134 2141.62,521.876 2143.61,526.63 2145.61,531.397 2147.6,536.176 2149.59,540.967 2151.58,545.77 2153.58,550.584 
  2155.57,555.409 2157.56,560.245 2159.55,565.091 2161.55,569.948 2163.54,574.815 2165.53,579.691 2167.52,584.576 2169.51,589.471 2171.51,594.374 2173.5,599.286 
  2175.49,604.206 2177.48,609.134 2179.48,614.069 2181.47,619.011 2183.46,623.961 2185.45,628.917 2187.45,633.88 2189.44,638.849 2191.43,643.823 2193.42,648.803 
  2195.42,653.788 2197.41,658.778 2199.4,663.773 2201.39,668.772 2203.39,673.775 2205.38,678.781 2207.37,683.791 2209.36,688.804 2211.36,693.82 2213.35,698.838 
  2215.34,703.859 2217.33,708.881 2219.32,713.905 2221.32,718.931 2223.31,723.957 2225.3,728.984 2227.29,734.011 2229.29,739.038 2231.28,744.065 2233.27,749.092 
  2235.26,754.118 2237.26,759.142 2239.25,764.166 2241.24,769.187 2243.23,774.206 2245.23,779.223 2247.22,784.238 2249.21,789.249 2251.2,794.258 2253.2,799.262 
  2255.19,804.263 2257.18,809.26 2259.17,814.252 2261.17,819.24 2263.16,824.222 2265.15,829.199 2267.14,834.171 2269.13,839.136 2271.13,844.096 2273.12,849.048 
  2275.11,853.994 2277.1,858.933 2279.1,863.865 2281.09,868.788 2283.08,873.704 2285.07,878.611 2287.07,883.51 2289.06,888.4 2291.05,893.281 2293.04,898.152 
  
  "/>
<polyline clip-path="url(#clip262)" style="stroke:#eca25c; stroke-width:4; stroke-opacity:1; fill:none" points="
  302.634,129.989 304.626,131.211 306.619,132.45 308.611,133.704 310.604,134.975 312.596,136.262 314.588,137.565 316.581,138.883 318.573,140.218 320.566,141.568 
  322.558,142.934 324.55,144.316 326.543,145.713 328.535,147.127 330.528,148.556 332.52,150 334.512,151.461 336.505,152.936 338.497,154.428 340.49,155.934 
  342.482,157.456 344.474,158.994 346.467,160.547 348.459,162.115 350.452,163.699 352.444,165.297 354.436,166.911 356.429,168.54 358.421,170.184 360.414,171.843 
  362.406,173.517 364.398,175.206 366.391,176.91 368.383,178.629 370.376,180.363 372.368,182.111 374.36,183.874 376.353,185.652 378.345,187.445 380.338,189.252 
  382.33,191.073 384.322,192.91 386.315,194.76 388.307,196.625 390.3,198.504 392.292,200.398 394.284,202.305 396.277,204.227 398.269,206.163 400.262,208.114 
  402.254,210.078 404.246,212.056 406.239,214.048 408.231,216.054 410.224,218.074 412.216,220.107 414.209,222.155 416.201,224.216 418.193,226.29 420.186,228.378 
  422.178,230.48 424.171,232.595 426.163,234.723 428.155,236.865 430.148,239.02 432.14,241.188 434.133,243.369 436.125,245.563 438.117,247.771 440.11,249.991 
  442.102,252.224 444.095,254.47 446.087,256.729 448.079,259.001 450.072,261.285 452.064,263.582 454.057,265.892 456.049,268.214 458.041,270.548 460.034,272.895 
  462.026,275.254 464.019,277.625 466.011,280.008 468.003,282.404 469.996,284.811 471.988,287.231 473.981,289.662 475.973,292.106 477.965,294.561 479.958,297.028 
  481.95,299.506 483.943,301.996 485.935,304.498 487.927,307.011 489.92,309.535 491.912,312.071 493.905,314.618 495.897,317.176 497.889,319.745 499.882,322.326 
  501.874,324.917 503.867,327.519 505.859,330.132 507.851,332.756 509.844,335.39 511.836,338.036 513.829,340.691 515.821,343.357 517.813,346.034 519.806,348.721 
  521.798,351.418 523.791,354.125 525.783,356.843 527.775,359.571 529.768,362.308 531.76,365.056 533.753,367.813 535.745,370.58 537.737,373.357 539.73,376.143 
  541.722,378.939 543.715,381.744 545.707,384.559 547.699,387.383 549.692,390.216 551.684,393.059 553.677,395.91 555.669,398.771 557.661,401.64 559.654,404.519 
  561.646,407.406 563.639,410.302 565.631,413.206 567.623,416.119 569.616,419.041 571.608,421.97 573.601,424.909 575.593,427.855 577.585,430.81 579.578,433.772 
  581.57,436.743 583.563,439.721 585.555,442.708 587.547,445.702 589.54,448.704 591.532,451.713 593.525,454.73 595.517,457.755 597.509,460.786 599.502,463.825 
  601.494,466.872 603.487,469.925 605.479,472.985 607.471,476.053 609.464,479.127 611.456,482.208 613.449,485.296 615.441,488.39 617.434,491.491 619.426,494.598 
  621.418,497.712 623.411,500.832 625.403,503.958 627.396,507.09 629.388,510.229 631.38,513.373 633.373,516.523 635.365,519.679 637.358,522.841 639.35,526.008 
  641.342,529.181 643.335,532.359 645.327,535.543 647.32,538.732 649.312,541.926 651.304,545.125 653.297,548.329 655.289,551.539 657.282,554.753 659.274,557.972 
  661.266,561.195 663.259,564.423 665.251,567.656 667.244,570.893 669.236,574.134 671.228,577.38 673.221,580.63 675.213,583.884 677.206,587.142 679.198,590.403 
  681.19,593.669 683.183,596.938 685.175,600.211 687.168,603.488 689.16,606.768 691.152,610.051 693.145,613.338 695.137,616.628 697.13,619.921 699.122,623.217 
  701.114,626.516 703.107,629.818 705.099,633.122 707.092,636.43 709.084,639.739 711.076,643.052 713.069,646.367 715.061,649.684 717.054,653.003 719.046,656.325 
  721.038,659.648 723.031,662.974 725.023,666.301 727.016,669.63 729.008,672.961 731,676.294 732.993,679.628 734.985,682.963 736.978,686.3 738.97,689.638 
  740.962,692.977 742.955,696.318 744.947,699.659 746.94,703.001 748.932,706.344 750.924,709.688 752.917,713.033 754.909,716.378 756.902,719.723 758.894,723.069 
  760.886,726.415 762.879,729.761 764.871,733.108 766.864,736.454 768.856,739.8 770.848,743.146 772.841,746.492 774.833,749.838 776.826,753.183 778.818,756.527 
  780.81,759.871 782.803,763.215 784.795,766.557 786.788,769.899 788.78,773.239 790.772,776.579 792.765,779.917 794.757,783.254 796.75,786.59 798.742,789.925 
  800.734,793.258 802.727,796.589 804.719,799.919 806.712,803.246 808.704,806.572 810.697,809.896 812.689,813.219 814.681,816.538 816.674,819.856 818.666,823.172 
  820.659,826.485 822.651,829.795 824.643,833.103 826.636,836.408 828.628,839.711 830.621,843.011 832.613,846.307 834.605,849.601 836.598,852.892 838.59,856.18 
  840.583,859.464 842.575,862.745 844.567,866.022 846.56,869.296 848.552,872.566 850.545,875.833 852.537,879.096 854.529,882.355 856.522,885.61 858.514,888.861 
  860.507,892.107 862.499,895.35 864.491,898.588 866.484,901.822 868.476,905.051 870.469,908.276 872.461,911.496 874.453,914.712 876.446,917.922 878.438,921.128 
  880.431,924.328 882.423,927.524 884.415,930.714 886.408,933.899 888.4,937.079 890.393,940.254 892.385,943.422 894.377,946.586 896.37,949.743 898.362,952.895 
  900.355,956.041 902.347,959.181 904.339,962.315 906.332,965.443 908.324,968.565 910.317,971.68 912.309,974.789 914.301,977.892 916.294,980.988 918.286,984.078 
  920.279,987.161 922.271,990.237 924.263,993.306 926.256,996.368 928.248,999.424 930.241,1002.47 932.233,1005.51 934.225,1008.55 936.218,1011.57 938.21,1014.59 
  940.203,1017.6 942.195,1020.61 944.187,1023.6 946.18,1026.59 948.172,1029.57 950.165,1032.55 952.157,1035.51 954.149,1038.47 956.142,1041.42 958.134,1044.36 
  960.127,1047.29 962.119,1050.22 964.111,1053.13 966.104,1056.04 968.096,1058.94 970.089,1061.83 972.081,1064.71 974.073,1067.58 976.066,1070.44 978.058,1073.3 
  980.051,1076.14 982.043,1078.98 984.035,1081.81 986.028,1084.62 988.02,1087.43 990.013,1090.23 992.005,1093.02 993.997,1095.8 995.99,1098.57 997.982,1101.33 
  999.975,1104.08 1001.97,1106.82 1003.96,1109.55 1005.95,1112.27 1007.94,1114.98 1009.94,1117.68 1011.93,1120.37 1013.92,1123.05 1015.91,1125.72 1017.91,1128.38 
  1019.9,1131.03 1021.89,1133.67 1023.88,1136.3 1025.88,1138.91 1027.87,1141.52 1029.86,1144.11 1031.85,1146.7 1033.85,1149.27 1035.84,1151.83 1037.83,1154.38 
  1039.82,1156.92 1041.82,1159.45 1043.81,1161.97 1045.8,1164.47 1047.79,1166.97 1049.78,1169.45 1051.78,1171.92 1053.77,1174.38 1055.76,1176.83 1057.75,1179.26 
  1059.75,1181.69 1061.74,1184.1 1063.73,1186.5 1065.72,1188.89 1067.72,1191.26 1069.71,1193.63 1071.7,1195.98 1073.69,1198.32 1075.69,1200.64 1077.68,1202.96 
  1079.67,1205.26 1081.66,1207.55 1083.66,1209.82 1085.65,1212.09 1087.64,1214.34 1089.63,1216.58 1091.63,1218.8 1093.62,1221.02 1095.61,1223.21 1097.6,1225.4 
  1099.59,1227.57 1101.59,1229.73 1103.58,1231.88 1105.57,1234.01 1107.56,1236.13 1109.56,1238.24 1111.55,1240.34 1113.54,1242.42 1115.53,1244.48 1117.53,1246.53 
  1119.52,1248.57 1121.51,1250.6 1123.5,1252.61 1125.5,1254.61 1127.49,1256.59 1129.48,1258.56 1131.47,1260.52 1133.47,1262.46 1135.46,1264.39 1137.45,1266.3 
  1139.44,1268.2 1141.44,1270.09 1143.43,1271.96 1145.42,1273.81 1147.41,1275.66 1149.4,1277.48 1151.4,1279.3 1153.39,1281.1 1155.38,1282.88 1157.37,1284.65 
  1159.37,1286.41 1161.36,1288.15 1163.35,1289.87 1165.34,1291.58 1167.34,1293.28 1169.33,1294.96 1171.32,1296.62 1173.31,1298.28 1175.31,1299.91 1177.3,1301.53 
  1179.29,1303.14 1181.28,1304.73 1183.28,1306.3 1185.27,1307.86 1187.26,1309.41 1189.25,1310.94 1191.25,1312.45 1193.24,1313.95 1195.23,1315.43 1197.22,1316.9 
  1199.21,1318.35 1201.21,1319.79 1203.2,1321.21 1205.19,1322.62 1207.18,1324.01 1209.18,1325.38 1211.17,1326.74 1213.16,1328.08 1215.15,1329.41 1217.15,1330.72 
  1219.14,1332.01 1221.13,1333.29 1223.12,1334.56 1225.12,1335.8 1227.11,1337.03 1229.1,1338.25 1231.09,1339.45 1233.09,1340.63 1235.08,1341.8 1237.07,1342.95 
  1239.06,1344.08 1241.06,1345.2 1243.05,1346.3 1245.04,1347.38 1247.03,1348.45 1249.02,1349.51 1251.02,1350.54 1253.01,1351.56 1255,1352.57 1256.99,1353.55 
  1258.99,1354.52 1260.98,1355.48 1262.97,1356.41 1264.96,1357.33 1266.96,1358.24 1268.95,1359.13 1270.94,1360 1272.93,1360.85 1274.93,1361.69 1276.92,1362.51 
  1278.91,1363.31 1280.9,1364.1 1282.9,1364.87 1284.89,1365.62 1286.88,1366.36 1288.87,1367.08 1290.87,1367.78 1292.86,1368.47 1294.85,1369.14 1296.84,1369.79 
  1298.84,1370.43 1300.83,1371.04 1302.82,1371.65 1304.81,1372.23 1306.8,1372.8 1308.8,1373.35 1310.79,1373.88 1312.78,1374.4 1314.77,1374.9 1316.77,1375.38 
  1318.76,1375.85 1320.75,1376.29 1322.74,1376.72 1324.74,1377.14 1326.73,1377.54 1328.72,1377.91 1330.71,1378.28 1332.71,1378.62 1334.7,1378.95 1336.69,1379.26 
  1338.68,1379.56 1340.68,1379.83 1342.67,1380.09 1344.66,1380.33 1346.65,1380.56 1348.65,1380.77 1350.64,1380.96 1352.63,1381.13 1354.62,1381.29 1356.61,1381.43 
  1358.61,1381.55 1360.6,1381.65 1362.59,1381.74 1364.58,1381.81 1366.58,1381.86 1368.57,1381.9 1370.56,1381.92 1372.55,1381.92 1374.55,1381.9 1376.54,1381.87 
  1378.53,1381.82 1380.52,1381.75 1382.52,1381.66 1384.51,1381.56 1386.5,1381.44 1388.49,1381.31 1390.49,1381.15 1392.48,1380.98 1394.47,1380.79 1396.46,1380.59 
  1398.46,1380.36 1400.45,1380.12 1402.44,1379.87 1404.43,1379.59 1406.42,1379.3 1408.42,1378.99 1410.41,1378.66 1412.4,1378.32 1414.39,1377.96 1416.39,1377.58 
  1418.38,1377.19 1420.37,1376.78 1422.36,1376.35 1424.36,1375.9 1426.35,1375.44 1428.34,1374.96 1430.33,1374.46 1432.33,1373.95 1434.32,1373.42 1436.31,1372.87 
  1438.3,1372.3 1440.3,1371.72 1442.29,1371.12 1444.28,1370.51 1446.27,1369.87 1448.27,1369.22 1450.26,1368.56 1452.25,1367.87 1454.24,1367.17 1456.23,1366.46 
  1458.23,1365.72 1460.22,1364.97 1462.21,1364.2 1464.2,1363.42 1466.2,1362.62 1468.19,1361.8 1470.18,1360.96 1472.17,1360.11 1474.17,1359.24 1476.16,1358.36 
  1478.15,1357.46 1480.14,1356.54 1482.14,1355.61 1484.13,1354.65 1486.12,1353.69 1488.11,1352.7 1490.11,1351.7 1492.1,1350.69 1494.09,1349.65 1496.08,1348.6 
  1498.08,1347.54 1500.07,1346.45 1502.06,1345.36 1504.05,1344.24 1506.04,1343.11 1508.04,1341.96 1510.03,1340.8 1512.02,1339.62 1514.01,1338.42 1516.01,1337.21 
  1518,1335.99 1519.99,1334.74 1521.98,1333.48 1523.98,1332.21 1525.97,1330.91 1527.96,1329.61 1529.95,1328.28 1531.95,1326.94 1533.94,1325.59 1535.93,1324.22 
  1537.92,1322.83 1539.92,1321.43 1541.91,1320.01 1543.9,1318.58 1545.89,1317.13 1547.89,1315.67 1549.88,1314.19 1551.87,1312.69 1553.86,1311.18 1555.85,1309.66 
  1557.85,1308.12 1559.84,1306.56 1561.83,1304.99 1563.82,1303.4 1565.82,1301.8 1567.81,1300.18 1569.8,1298.55 1571.79,1296.9 1573.79,1295.24 1575.78,1293.57 
  1577.77,1291.87 1579.76,1290.17 1581.76,1288.45 1583.75,1286.71 1585.74,1284.96 1587.73,1283.19 1589.73,1281.42 1591.72,1279.62 1593.71,1277.81 1595.7,1275.99 
  1597.7,1274.15 1599.69,1272.3 1601.68,1270.43 1603.67,1268.55 1605.66,1266.66 1607.66,1264.75 1609.65,1262.82 1611.64,1260.89 1613.63,1258.94 1615.63,1256.97 
  1617.62,1254.99 1619.61,1253 1621.6,1250.99 1623.6,1248.97 1625.59,1246.94 1627.58,1244.89 1629.57,1242.83 1631.57,1240.76 1633.56,1238.67 1635.55,1236.57 
  1637.54,1234.45 1639.54,1232.32 1641.53,1230.18 1643.52,1228.03 1645.51,1225.86 1647.51,1223.68 1649.5,1221.48 1651.49,1219.28 1653.48,1217.06 1655.47,1214.83 
  1657.47,1212.58 1659.46,1210.32 1661.45,1208.05 1663.44,1205.77 1665.44,1203.47 1667.43,1201.17 1669.42,1198.85 1671.41,1196.51 1673.41,1194.17 1675.4,1191.81 
  1677.39,1189.44 1679.38,1187.06 1681.38,1184.67 1683.37,1182.26 1685.36,1179.84 1687.35,1177.42 1689.35,1174.97 1691.34,1172.52 1693.33,1170.06 1695.32,1167.58 
  1697.32,1165.09 1699.31,1162.6 1701.3,1160.09 1703.29,1157.56 1705.29,1155.03 1707.28,1152.49 1709.27,1149.93 1711.26,1147.37 1713.25,1144.79 1715.25,1142.2 
  1717.24,1139.6 1719.23,1137 1721.22,1134.38 1723.22,1131.74 1725.21,1129.1 1727.2,1126.45 1729.19,1123.79 1731.19,1121.12 1733.18,1118.44 1735.17,1115.74 
  1737.16,1113.04 1739.16,1110.33 1741.15,1107.6 1743.14,1104.87 1745.13,1102.13 1747.13,1099.38 1749.12,1096.61 1751.11,1093.84 1753.1,1091.06 1755.1,1088.27 
  1757.09,1085.47 1759.08,1082.66 1761.07,1079.84 1763.06,1077.02 1765.06,1074.18 1767.05,1071.33 1769.04,1068.48 1771.03,1065.62 1773.03,1062.74 1775.02,1059.86 
  1777.01,1056.97 1779,1054.08 1781,1051.17 1782.99,1048.25 1784.98,1045.33 1786.97,1042.4 1788.97,1039.46 1790.96,1036.51 1792.95,1033.56 1794.94,1030.59 
  1796.94,1027.62 1798.93,1024.64 1800.92,1021.65 1802.91,1018.66 1804.91,1015.66 1806.9,1012.65 1808.89,1009.63 1810.88,1006.61 1812.87,1003.58 1814.87,1000.54 
  1816.86,997.493 1818.85,994.44 1820.84,991.381 1822.84,988.315 1824.83,985.242 1826.82,982.163 1828.81,979.077 1830.81,975.985 1832.8,972.886 1834.79,969.781 
  1836.78,966.669 1838.78,963.552 1840.77,960.429 1842.76,957.299 1844.75,954.164 1846.75,951.023 1848.74,947.876 1850.73,944.723 1852.72,941.565 1854.72,938.402 
  1856.71,935.233 1858.7,932.059 1860.69,928.88 1862.68,925.695 1864.68,922.506 1866.67,919.311 1868.66,916.112 1870.65,912.908 1872.65,909.699 1874.64,906.486 
  1876.63,903.268 1878.62,900.046 1880.62,896.819 1882.61,893.588 1884.6,890.353 1886.59,887.114 1888.59,883.87 1890.58,880.623 1892.57,877.372 1894.56,874.117 
  1896.56,870.859 1898.55,867.597 1900.54,864.331 1902.53,861.063 1904.53,857.79 1906.52,854.515 1908.51,851.236 1910.5,847.955 1912.49,844.67 1914.49,841.383 
  1916.48,838.093 1918.47,834.8 1920.46,831.504 1922.46,828.206 1924.45,824.906 1926.44,821.603 1928.43,818.298 1930.43,814.99 1932.42,811.681 1934.41,808.37 
  1936.4,805.056 1938.4,801.741 1940.39,798.424 1942.38,795.106 1944.37,791.786 1946.37,788.465 1948.36,785.142 1950.35,781.818 1952.34,778.492 1954.34,775.166 
  1956.33,771.838 1958.32,768.51 1960.31,765.181 1962.3,761.851 1964.3,758.52 1966.29,755.189 1968.28,751.857 1970.27,748.525 1972.27,745.193 1974.26,741.86 
  1976.25,738.527 1978.24,735.194 1980.24,731.861 1982.23,728.529 1984.22,725.196 1986.21,721.864 1988.21,718.533 1990.2,715.201 1992.19,711.871 1994.18,708.541 
  1996.18,705.211 1998.17,701.883 2000.16,698.556 2002.15,695.229 2004.15,691.904 2006.14,688.58 2008.13,685.257 2010.12,681.935 2012.11,678.615 2014.11,675.297 
  2016.1,671.98 2018.09,668.665 2020.08,665.352 2022.08,662.041 2024.07,658.731 2026.06,655.424 2028.05,652.119 2030.05,648.816 2032.04,645.515 2034.03,642.217 
  2036.02,638.922 2038.02,635.629 2040.01,632.339 2042,629.051 2043.99,625.767 2045.99,622.485 2047.98,619.207 2049.97,615.931 2051.96,612.659 2053.96,609.39 
  2055.95,606.125 2057.94,602.863 2059.93,599.604 2061.92,596.35 2063.92,593.099 2065.91,589.851 2067.9,586.608 2069.89,583.369 2071.89,580.134 2073.88,576.903 
  2075.87,573.676 2077.86,570.454 2079.86,567.236 2081.85,564.022 2083.84,560.814 2085.83,557.61 2087.83,554.41 2089.82,551.216 2091.81,548.026 2093.8,544.842 
  2095.8,541.662 2097.79,538.488 2099.78,535.319 2101.77,532.156 2103.77,528.998 2105.76,525.845 2107.75,522.699 2109.74,519.557 2111.74,516.422 2113.73,513.293 
  2115.72,510.169 2117.71,507.052 2119.7,503.94 2121.7,500.835 2123.69,497.736 2125.68,494.644 2127.67,491.558 2129.67,488.478 2131.66,485.405 2133.65,482.339 
  2135.64,479.28 2137.64,476.227 2139.63,473.182 2141.62,470.143 2143.61,467.112 2145.61,464.087 2147.6,461.07 2149.59,458.061 2151.58,455.059 2153.58,452.064 
  2155.57,449.077 2157.56,446.097 2159.55,443.126 2161.55,440.162 2163.54,437.206 2165.53,434.258 2167.52,431.318 2169.51,428.386 2171.51,425.463 2173.5,422.548 
  2175.49,419.641 2177.48,416.742 2179.48,413.853 2181.47,410.971 2183.46,408.099 2185.45,405.235 2187.45,402.38 2189.44,399.534 2191.43,396.697 2193.42,393.869 
  2195.42,391.05 2197.41,388.24 2199.4,385.44 2201.39,382.649 2203.39,379.867 2205.38,377.095 2207.37,374.333 2209.36,371.58 2211.36,368.837 2213.35,366.104 
  2215.34,363.38 2217.33,360.667 2219.32,357.964 2221.32,355.27 2223.31,352.587 2225.3,349.914 2227.29,347.252 2229.29,344.599 2231.28,341.958 2233.27,339.326 
  2235.26,336.706 2237.26,334.096 2239.25,331.497 2241.24,328.908 2243.23,326.33 2245.23,323.764 2247.22,321.208 2249.21,318.664 2251.2,316.13 2253.2,313.608 
  2255.19,311.097 2257.18,308.597 2259.17,306.109 2261.17,303.633 2263.16,301.167 2265.15,298.714 2267.14,296.272 2269.13,293.842 2271.13,291.423 2273.12,289.017 
  2275.11,286.622 2277.1,284.24 2279.1,281.869 2281.09,279.511 2283.08,277.165 2285.07,274.831 2287.07,272.509 2289.06,270.2 2291.05,267.903 2293.04,265.619 
  
  "/>
<path clip-path="url(#clip260)" d="
M1860.2 274.549 L2282.43 274.549 L2282.43 93.1086 L1860.2 93.1086  Z
  " fill="#282c34" fill-rule="evenodd" fill-opacity="1"/>
<polyline clip-path="url(#clip260)" style="stroke:#9eb1be; stroke-width:4; stroke-opacity:1; fill:none" points="
  1860.2,274.549 2282.43,274.549 2282.43,93.1086 1860.2,93.1086 1860.2,274.549 
  "/>
<polyline clip-path="url(#clip260)" style="stroke:#fe4365; stroke-width:4; stroke-opacity:1; fill:none" points="
  1883.64,153.589 2024.3,153.589 
  "/>
<path clip-path="url(#clip260)" d="M 0 0 M2047.74 136.309 L2052.42 136.309 L2052.42 166.933 L2069.25 166.933 L2069.25 170.869 L2047.74 170.869 L2047.74 136.309 Z" fill="#adb2b7" fill-rule="evenodd" fill-opacity="1" /><path clip-path="url(#clip260)" d="M 0 0 M2095.06 156.841 L2095.06 158.924 L2075.47 158.924 Q2075.75 163.322 2078.11 165.637 Q2080.5 167.929 2084.73 167.929 Q2087.19 167.929 2089.48 167.327 Q2091.79 166.725 2094.06 165.521 L2094.06 169.549 Q2091.77 170.521 2089.36 171.031 Q2086.96 171.54 2084.48 171.54 Q2078.28 171.54 2074.64 167.929 Q2071.03 164.318 2071.03 158.16 Q2071.03 151.795 2074.46 148.068 Q2077.9 144.318 2083.74 144.318 Q2088.97 144.318 2092 147.697 Q2095.06 151.054 2095.06 156.841 M2090.8 155.591 Q2090.75 152.096 2088.83 150.012 Q2086.93 147.929 2083.78 147.929 Q2080.22 147.929 2078.07 149.943 Q2075.94 151.957 2075.61 155.614 L2090.8 155.591 Z" fill="#adb2b7" fill-rule="evenodd" fill-opacity="1" /><path clip-path="url(#clip260)" d="M 0 0 M2111.31 157.836 Q2106.15 157.836 2104.15 159.017 Q2102.16 160.197 2102.16 163.045 Q2102.16 165.313 2103.65 166.656 Q2105.15 167.975 2107.72 167.975 Q2111.26 167.975 2113.39 165.475 Q2115.54 162.952 2115.54 158.785 L2115.54 157.836 L2111.31 157.836 M2119.8 156.077 L2119.8 170.869 L2115.54 170.869 L2115.54 166.933 Q2114.09 169.295 2111.91 170.429 Q2109.73 171.54 2106.59 171.54 Q2102.6 171.54 2100.24 169.318 Q2097.9 167.072 2097.9 163.322 Q2097.9 158.947 2100.82 156.725 Q2103.76 154.503 2109.57 154.503 L2115.54 154.503 L2115.54 154.086 Q2115.54 151.147 2113.6 149.549 Q2111.68 147.929 2108.18 147.929 Q2105.96 147.929 2103.85 148.461 Q2101.75 148.994 2099.8 150.059 L2099.8 146.123 Q2102.14 145.221 2104.34 144.781 Q2106.54 144.318 2108.62 144.318 Q2114.25 144.318 2117.03 147.234 Q2119.8 150.151 2119.8 156.077 Z" fill="#adb2b7" fill-rule="evenodd" fill-opacity="1" /><path clip-path="url(#clip260)" d="M 0 0 M2128.39 166.98 L2128.39 180.73 L2124.11 180.73 L2124.11 144.943 L2128.39 144.943 L2128.39 148.878 Q2129.73 146.563 2131.77 145.452 Q2133.83 144.318 2136.68 144.318 Q2141.4 144.318 2144.34 148.068 Q2147.3 151.818 2147.3 157.929 Q2147.3 164.04 2144.34 167.79 Q2141.4 171.54 2136.68 171.54 Q2133.83 171.54 2131.77 170.429 Q2129.73 169.295 2128.39 166.98 M2142.88 157.929 Q2142.88 153.23 2140.94 150.568 Q2139.02 147.883 2135.64 147.883 Q2132.26 147.883 2130.31 150.568 Q2128.39 153.23 2128.39 157.929 Q2128.39 162.628 2130.31 165.313 Q2132.26 167.975 2135.64 167.975 Q2139.02 167.975 2140.94 165.313 Q2142.88 162.628 2142.88 157.929 Z" fill="#adb2b7" fill-rule="evenodd" fill-opacity="1" /><path clip-path="url(#clip260)" d="M 0 0 M2164.9 134.85 L2164.9 138.392 L2160.82 138.392 Q2158.53 138.392 2157.63 139.318 Q2156.75 140.244 2156.75 142.651 L2156.75 144.943 L2163.76 144.943 L2163.76 148.253 L2156.75 148.253 L2156.75 170.869 L2152.46 170.869 L2152.46 148.253 L2148.39 148.253 L2148.39 144.943 L2152.46 144.943 L2152.46 143.137 Q2152.46 138.809 2154.48 136.841 Q2156.49 134.85 2160.87 134.85 L2164.9 134.85 Z" fill="#adb2b7" fill-rule="evenodd" fill-opacity="1" /><path clip-path="url(#clip260)" d="M 0 0 M2184.39 148.924 Q2183.67 148.508 2182.81 148.322 Q2181.98 148.114 2180.96 148.114 Q2177.35 148.114 2175.4 150.475 Q2173.48 152.813 2173.48 157.211 L2173.48 170.869 L2169.2 170.869 L2169.2 144.943 L2173.48 144.943 L2173.48 148.971 Q2174.83 146.609 2176.98 145.475 Q2179.13 144.318 2182.21 144.318 Q2182.65 144.318 2183.18 144.387 Q2183.71 144.434 2184.36 144.549 L2184.39 148.924 Z" fill="#adb2b7" fill-rule="evenodd" fill-opacity="1" /><path clip-path="url(#clip260)" d="M 0 0 M2197.86 147.929 Q2194.43 147.929 2192.44 150.614 Q2190.45 153.276 2190.45 157.929 Q2190.45 162.582 2192.42 165.267 Q2194.41 167.929 2197.86 167.929 Q2201.26 167.929 2203.25 165.244 Q2205.24 162.558 2205.24 157.929 Q2205.24 153.322 2203.25 150.637 Q2201.26 147.929 2197.86 147.929 M2197.86 144.318 Q2203.41 144.318 2206.58 147.929 Q2209.76 151.54 2209.76 157.929 Q2209.76 164.295 2206.58 167.929 Q2203.41 171.54 2197.86 171.54 Q2192.28 171.54 2189.11 167.929 Q2185.96 164.295 2185.96 157.929 Q2185.96 151.54 2189.11 147.929 Q2192.28 144.318 2197.86 144.318 Z" fill="#adb2b7" fill-rule="evenodd" fill-opacity="1" /><path clip-path="url(#clip260)" d="M 0 0 M2231.28 157.605 Q2231.28 152.975 2229.36 150.429 Q2227.46 147.883 2224.02 147.883 Q2220.59 147.883 2218.67 150.429 Q2216.77 152.975 2216.77 157.605 Q2216.77 162.211 2218.67 164.758 Q2220.59 167.304 2224.02 167.304 Q2227.46 167.304 2229.36 164.758 Q2231.28 162.211 2231.28 157.605 M2235.54 167.651 Q2235.54 174.271 2232.6 177.489 Q2229.66 180.73 2223.6 180.73 Q2221.35 180.73 2219.36 180.382 Q2217.37 180.058 2215.5 179.364 L2215.5 175.22 Q2217.37 176.239 2219.2 176.725 Q2221.03 177.211 2222.93 177.211 Q2227.12 177.211 2229.2 175.012 Q2231.28 172.836 2231.28 168.415 L2231.28 166.308 Q2229.96 168.6 2227.9 169.734 Q2225.84 170.869 2222.97 170.869 Q2218.21 170.869 2215.29 167.234 Q2212.37 163.6 2212.37 157.605 Q2212.37 151.586 2215.29 147.952 Q2218.21 144.318 2222.97 144.318 Q2225.84 144.318 2227.9 145.452 Q2229.96 146.586 2231.28 148.878 L2231.28 144.943 L2235.54 144.943 L2235.54 167.651 Z" fill="#adb2b7" fill-rule="evenodd" fill-opacity="1" /><polyline clip-path="url(#clip260)" style="stroke:#eca25c; stroke-width:4; stroke-opacity:1; fill:none" points="
  1883.64,214.069 2024.3,214.069 
  "/>
<path clip-path="url(#clip260)" d="M 0 0 M2064.13 215.145 Q2065.64 215.654 2067.05 217.321 Q2068.48 218.988 2069.92 221.904 L2074.66 231.349 L2069.64 231.349 L2065.22 222.483 Q2063.51 219.011 2061.89 217.876 Q2060.29 216.742 2057.51 216.742 L2052.42 216.742 L2052.42 231.349 L2047.74 231.349 L2047.74 196.789 L2058.3 196.789 Q2064.22 196.789 2067.14 199.265 Q2070.06 201.742 2070.06 206.742 Q2070.06 210.006 2068.53 212.159 Q2067.03 214.312 2064.13 215.145 M2052.42 200.631 L2052.42 212.9 L2058.3 212.9 Q2061.68 212.9 2063.39 211.349 Q2065.13 209.775 2065.13 206.742 Q2065.13 203.71 2063.39 202.182 Q2061.68 200.631 2058.3 200.631 L2052.42 200.631 Z" fill="#adb2b7" fill-rule="evenodd" fill-opacity="1" /><path clip-path="url(#clip260)" d="M 0 0 M2079.32 196.789 L2083.99 196.789 L2083.99 211.395 L2099.5 196.789 L2105.52 196.789 L2088.37 212.9 L2106.75 231.349 L2100.59 231.349 L2083.99 214.705 L2083.99 231.349 L2079.32 231.349 L2079.32 196.789 Z" fill="#adb2b7" fill-rule="evenodd" fill-opacity="1" /><path clip-path="url(#clip260)" d="M 0 0 M2124.66 200.863 L2112.86 219.312 L2124.66 219.312 L2124.66 200.863 M2123.44 196.789 L2129.32 196.789 L2129.32 219.312 L2134.25 219.312 L2134.25 223.201 L2129.32 223.201 L2129.32 231.349 L2124.66 231.349 L2124.66 223.201 L2109.06 223.201 L2109.06 218.687 L2123.44 196.789 Z" fill="#adb2b7" fill-rule="evenodd" fill-opacity="1" /></svg>
