<?xml version="1.0" encoding="utf-8"?>
<svg xmlns="http://www.w3.org/2000/svg" xmlns:xlink="http://www.w3.org/1999/xlink" width="600" height="400" viewBox="0 0 2400 1600">
<defs>
  <clipPath id="clip470">
    <rect x="0" y="0" width="2400" height="1600"/>
  </clipPath>
</defs>
<path clip-path="url(#clip470)" d="
M0 1600 L2400 1600 L2400 0 L0 0  Z
  " fill="#282c34" fill-rule="evenodd" fill-opacity="1"/>
<defs>
  <clipPath id="clip471">
    <rect x="480" y="0" width="1681" height="1600"/>
  </clipPath>
</defs>
<path clip-path="url(#clip470)" d="
M246.377 1423.18 L2352.76 1423.18 L2352.76 123.472 L246.377 123.472  Z
  " fill="#21252b" fill-rule="evenodd" fill-opacity="1"/>
<defs>
  <clipPath id="clip472">
    <rect x="246" y="123" width="2107" height="1301"/>
  </clipPath>
</defs>
<polyline clip-path="url(#clip472)" style="stroke:#adb2b7; stroke-width:2; stroke-opacity:0.1; fill:none" points="
  589.87,1423.18 589.87,123.472 
  "/>
<polyline clip-path="url(#clip472)" style="stroke:#adb2b7; stroke-width:2; stroke-opacity:0.1; fill:none" points="
  944.718,1423.18 944.718,123.472 
  "/>
<polyline clip-path="url(#clip472)" style="stroke:#adb2b7; stroke-width:2; stroke-opacity:0.1; fill:none" points="
  1299.57,1423.18 1299.57,123.472 
  "/>
<polyline clip-path="url(#clip472)" style="stroke:#adb2b7; stroke-width:2; stroke-opacity:0.1; fill:none" points="
  1654.41,1423.18 1654.41,123.472 
  "/>
<polyline clip-path="url(#clip472)" style="stroke:#adb2b7; stroke-width:2; stroke-opacity:0.1; fill:none" points="
  2009.26,1423.18 2009.26,123.472 
  "/>
<polyline clip-path="url(#clip470)" style="stroke:#adb2b7; stroke-width:4; stroke-opacity:1; fill:none" points="
  246.377,1423.18 2352.76,1423.18 
  "/>
<polyline clip-path="url(#clip470)" style="stroke:#adb2b7; stroke-width:4; stroke-opacity:1; fill:none" points="
  589.87,1423.18 589.87,1407.58 
  "/>
<polyline clip-path="url(#clip470)" style="stroke:#adb2b7; stroke-width:4; stroke-opacity:1; fill:none" points="
  944.718,1423.18 944.718,1407.58 
  "/>
<polyline clip-path="url(#clip470)" style="stroke:#adb2b7; stroke-width:4; stroke-opacity:1; fill:none" points="
  1299.57,1423.18 1299.57,1407.58 
  "/>
<polyline clip-path="url(#clip470)" style="stroke:#adb2b7; stroke-width:4; stroke-opacity:1; fill:none" points="
  1654.41,1423.18 1654.41,1407.58 
  "/>
<polyline clip-path="url(#clip470)" style="stroke:#adb2b7; stroke-width:4; stroke-opacity:1; fill:none" points="
  2009.26,1423.18 2009.26,1407.58 
  "/>
<path clip-path="url(#clip470)" d="M 0 0 M549.21 1479.92 L556.849 1479.92 L556.849 1453.55 L548.539 1455.22 L548.539 1450.96 L556.803 1449.29 L561.479 1449.29 L561.479 1479.92 L569.117 1479.92 L569.117 1483.85 L549.21 1483.85 L549.21 1479.92 Z" fill="#9eb1be" fill-rule="evenodd" fill-opacity="1" /><path clip-path="url(#clip470)" d="M 0 0 M574.187 1477.97 L579.071 1477.97 L579.071 1483.85 L574.187 1483.85 L574.187 1477.97 Z" fill="#9eb1be" fill-rule="evenodd" fill-opacity="1" /><path clip-path="url(#clip470)" d="M 0 0 M582.96 1449.29 L605.182 1449.29 L605.182 1451.28 L592.636 1483.85 L587.752 1483.85 L599.557 1453.23 L582.96 1453.23 L582.96 1449.29 Z" fill="#9eb1be" fill-rule="evenodd" fill-opacity="1" /><path clip-path="url(#clip470)" d="M 0 0 M610.298 1449.29 L628.654 1449.29 L628.654 1453.23 L614.58 1453.23 L614.58 1461.7 Q615.599 1461.35 616.617 1461.19 Q617.636 1461 618.654 1461 Q624.441 1461 627.821 1464.18 Q631.2 1467.35 631.2 1472.76 Q631.2 1478.34 627.728 1481.44 Q624.256 1484.52 617.937 1484.52 Q615.761 1484.52 613.492 1484.15 Q611.247 1483.78 608.839 1483.04 L608.839 1478.34 Q610.923 1479.48 613.145 1480.03 Q615.367 1480.59 617.844 1480.59 Q621.849 1480.59 624.187 1478.48 Q626.525 1476.38 626.525 1472.76 Q626.525 1469.15 624.187 1467.05 Q621.849 1464.94 617.844 1464.94 Q615.969 1464.94 614.094 1465.36 Q612.242 1465.77 610.298 1466.65 L610.298 1449.29 Z" fill="#9eb1be" fill-rule="evenodd" fill-opacity="1" /><path clip-path="url(#clip470)" d="M 0 0 M903.156 1479.92 L910.795 1479.92 L910.795 1453.55 L902.484 1455.22 L902.484 1450.96 L910.748 1449.29 L915.424 1449.29 L915.424 1479.92 L923.063 1479.92 L923.063 1483.85 L903.156 1483.85 L903.156 1479.92 Z" fill="#9eb1be" fill-rule="evenodd" fill-opacity="1" /><path clip-path="url(#clip470)" d="M 0 0 M928.132 1477.97 L933.017 1477.97 L933.017 1483.85 L928.132 1483.85 L928.132 1477.97 Z" fill="#9eb1be" fill-rule="evenodd" fill-opacity="1" /><path clip-path="url(#clip470)" d="M 0 0 M948.086 1467.44 Q944.753 1467.44 942.831 1469.22 Q940.933 1471 940.933 1474.13 Q940.933 1477.25 942.831 1479.04 Q944.753 1480.82 948.086 1480.82 Q951.419 1480.82 953.341 1479.04 Q955.262 1477.23 955.262 1474.13 Q955.262 1471 953.341 1469.22 Q951.442 1467.44 948.086 1467.44 M943.41 1465.45 Q940.401 1464.71 938.711 1462.65 Q937.044 1460.59 937.044 1457.63 Q937.044 1453.48 939.984 1451.07 Q942.947 1448.67 948.086 1448.67 Q953.248 1448.67 956.188 1451.07 Q959.128 1453.48 959.128 1457.63 Q959.128 1460.59 957.438 1462.65 Q955.771 1464.71 952.785 1465.45 Q956.165 1466.24 958.04 1468.53 Q959.938 1470.82 959.938 1474.13 Q959.938 1479.15 956.859 1481.84 Q953.804 1484.52 948.086 1484.52 Q942.368 1484.52 939.29 1481.84 Q936.234 1479.15 936.234 1474.13 Q936.234 1470.82 938.132 1468.53 Q940.03 1466.24 943.41 1465.45 M941.697 1458.06 Q941.697 1460.75 943.364 1462.25 Q945.054 1463.76 948.086 1463.76 Q951.095 1463.76 952.785 1462.25 Q954.498 1460.75 954.498 1458.06 Q954.498 1455.38 952.785 1453.88 Q951.095 1452.37 948.086 1452.37 Q945.054 1452.37 943.364 1453.88 Q941.697 1455.38 941.697 1458.06 Z" fill="#9eb1be" fill-rule="evenodd" fill-opacity="1" /><path clip-path="url(#clip470)" d="M 0 0 M975.007 1452.37 Q971.396 1452.37 969.567 1455.94 Q967.762 1459.48 967.762 1466.61 Q967.762 1473.71 969.567 1477.28 Q971.396 1480.82 975.007 1480.82 Q978.641 1480.82 980.447 1477.28 Q982.276 1473.71 982.276 1466.61 Q982.276 1459.48 980.447 1455.94 Q978.641 1452.37 975.007 1452.37 M975.007 1448.67 Q980.817 1448.67 983.873 1453.27 Q986.952 1457.86 986.952 1466.61 Q986.952 1475.33 983.873 1479.94 Q980.817 1484.52 975.007 1484.52 Q969.197 1484.52 966.118 1479.94 Q963.063 1475.33 963.063 1466.61 Q963.063 1457.86 966.118 1453.27 Q969.197 1448.67 975.007 1448.67 Z" fill="#9eb1be" fill-rule="evenodd" fill-opacity="1" /><path clip-path="url(#clip470)" d="M 0 0 M1258.5 1479.92 L1266.14 1479.92 L1266.14 1453.55 L1257.83 1455.22 L1257.83 1450.96 L1266.09 1449.29 L1270.77 1449.29 L1270.77 1479.92 L1278.41 1479.92 L1278.41 1483.85 L1258.5 1483.85 L1258.5 1479.92 Z" fill="#9eb1be" fill-rule="evenodd" fill-opacity="1" /><path clip-path="url(#clip470)" d="M 0 0 M1283.48 1477.97 L1288.36 1477.97 L1288.36 1483.85 L1283.48 1483.85 L1283.48 1477.97 Z" fill="#9eb1be" fill-rule="evenodd" fill-opacity="1" /><path clip-path="url(#clip470)" d="M 0 0 M1303.43 1467.44 Q1300.1 1467.44 1298.18 1469.22 Q1296.28 1471 1296.28 1474.13 Q1296.28 1477.25 1298.18 1479.04 Q1300.1 1480.82 1303.43 1480.82 Q1306.77 1480.82 1308.69 1479.04 Q1310.61 1477.23 1310.61 1474.13 Q1310.61 1471 1308.69 1469.22 Q1306.79 1467.44 1303.43 1467.44 M1298.76 1465.45 Q1295.75 1464.71 1294.06 1462.65 Q1292.39 1460.59 1292.39 1457.63 Q1292.39 1453.48 1295.33 1451.07 Q1298.29 1448.67 1303.43 1448.67 Q1308.59 1448.67 1311.53 1451.07 Q1314.47 1453.48 1314.47 1457.63 Q1314.47 1460.59 1312.78 1462.65 Q1311.12 1464.71 1308.13 1465.45 Q1311.51 1466.24 1313.39 1468.53 Q1315.28 1470.82 1315.28 1474.13 Q1315.28 1479.15 1312.21 1481.84 Q1309.15 1484.52 1303.43 1484.52 Q1297.71 1484.52 1294.64 1481.84 Q1291.58 1479.15 1291.58 1474.13 Q1291.58 1470.82 1293.48 1468.53 Q1295.38 1466.24 1298.76 1465.45 M1297.04 1458.06 Q1297.04 1460.75 1298.71 1462.25 Q1300.4 1463.76 1303.43 1463.76 Q1306.44 1463.76 1308.13 1462.25 Q1309.84 1460.75 1309.84 1458.06 Q1309.84 1455.38 1308.13 1453.88 Q1306.44 1452.37 1303.43 1452.37 Q1300.4 1452.37 1298.71 1453.88 Q1297.04 1455.38 1297.04 1458.06 Z" fill="#9eb1be" fill-rule="evenodd" fill-opacity="1" /><path clip-path="url(#clip470)" d="M 0 0 M1320.4 1449.29 L1338.76 1449.29 L1338.76 1453.23 L1324.68 1453.23 L1324.68 1461.7 Q1325.7 1461.35 1326.72 1461.19 Q1327.74 1461 1328.76 1461 Q1334.54 1461 1337.92 1464.18 Q1341.3 1467.35 1341.3 1472.76 Q1341.3 1478.34 1337.83 1481.44 Q1334.36 1484.52 1328.04 1484.52 Q1325.86 1484.52 1323.59 1484.15 Q1321.35 1483.78 1318.94 1483.04 L1318.94 1478.34 Q1321.02 1479.48 1323.25 1480.03 Q1325.47 1480.59 1327.95 1480.59 Q1331.95 1480.59 1334.29 1478.48 Q1336.63 1476.38 1336.63 1472.76 Q1336.63 1469.15 1334.29 1467.05 Q1331.95 1464.94 1327.95 1464.94 Q1326.07 1464.94 1324.2 1465.36 Q1322.34 1465.77 1320.4 1466.65 L1320.4 1449.29 Z" fill="#9eb1be" fill-rule="evenodd" fill-opacity="1" /><path clip-path="url(#clip470)" d="M 0 0 M1612.9 1479.92 L1620.54 1479.92 L1620.54 1453.55 L1612.23 1455.22 L1612.23 1450.96 L1620.49 1449.29 L1625.17 1449.29 L1625.17 1479.92 L1632.81 1479.92 L1632.81 1483.85 L1612.9 1483.85 L1612.9 1479.92 Z" fill="#9eb1be" fill-rule="evenodd" fill-opacity="1" /><path clip-path="url(#clip470)" d="M 0 0 M1637.88 1477.97 L1642.76 1477.97 L1642.76 1483.85 L1637.88 1483.85 L1637.88 1477.97 Z" fill="#9eb1be" fill-rule="evenodd" fill-opacity="1" /><path clip-path="url(#clip470)" d="M 0 0 M1647.97 1483.13 L1647.97 1478.88 Q1649.73 1479.71 1651.53 1480.15 Q1653.34 1480.59 1655.07 1480.59 Q1659.7 1480.59 1662.13 1477.49 Q1664.59 1474.36 1664.94 1468.02 Q1663.59 1470.01 1661.53 1471.07 Q1659.47 1472.14 1656.97 1472.14 Q1651.79 1472.14 1648.75 1469.01 Q1645.75 1465.87 1645.75 1460.43 Q1645.75 1455.1 1648.89 1451.88 Q1652.04 1448.67 1657.27 1448.67 Q1663.27 1448.67 1666.42 1453.27 Q1669.59 1457.86 1669.59 1466.61 Q1669.59 1474.78 1665.7 1479.66 Q1661.83 1484.52 1655.28 1484.52 Q1653.52 1484.52 1651.72 1484.18 Q1649.91 1483.83 1647.97 1483.13 M1657.27 1468.48 Q1660.42 1468.48 1662.25 1466.33 Q1664.1 1464.18 1664.1 1460.43 Q1664.1 1456.7 1662.25 1454.55 Q1660.42 1452.37 1657.27 1452.37 Q1654.13 1452.37 1652.27 1454.55 Q1650.44 1456.7 1650.44 1460.43 Q1650.44 1464.18 1652.27 1466.33 Q1654.13 1468.48 1657.27 1468.48 Z" fill="#9eb1be" fill-rule="evenodd" fill-opacity="1" /><path clip-path="url(#clip470)" d="M 0 0 M1684.66 1452.37 Q1681.05 1452.37 1679.22 1455.94 Q1677.41 1459.48 1677.41 1466.61 Q1677.41 1473.71 1679.22 1477.28 Q1681.05 1480.82 1684.66 1480.82 Q1688.29 1480.82 1690.1 1477.28 Q1691.93 1473.71 1691.93 1466.61 Q1691.93 1459.48 1690.1 1455.94 Q1688.29 1452.37 1684.66 1452.37 M1684.66 1448.67 Q1690.47 1448.67 1693.52 1453.27 Q1696.6 1457.86 1696.6 1466.61 Q1696.6 1475.33 1693.52 1479.94 Q1690.47 1484.52 1684.66 1484.52 Q1678.85 1484.52 1675.77 1479.94 Q1672.71 1475.33 1672.71 1466.61 Q1672.71 1457.86 1675.77 1453.27 Q1678.85 1448.67 1684.66 1448.67 Z" fill="#9eb1be" fill-rule="evenodd" fill-opacity="1" /><path clip-path="url(#clip470)" d="M 0 0 M1968.24 1479.92 L1975.88 1479.92 L1975.88 1453.55 L1967.57 1455.22 L1967.57 1450.96 L1975.84 1449.29 L1980.51 1449.29 L1980.51 1479.92 L1988.15 1479.92 L1988.15 1483.85 L1968.24 1483.85 L1968.24 1479.92 Z" fill="#9eb1be" fill-rule="evenodd" fill-opacity="1" /><path clip-path="url(#clip470)" d="M 0 0 M1993.22 1477.97 L1998.11 1477.97 L1998.11 1483.85 L1993.22 1483.85 L1993.22 1477.97 Z" fill="#9eb1be" fill-rule="evenodd" fill-opacity="1" /><path clip-path="url(#clip470)" d="M 0 0 M2003.31 1483.13 L2003.31 1478.88 Q2005.07 1479.71 2006.88 1480.15 Q2008.68 1480.59 2010.42 1480.59 Q2015.05 1480.59 2017.48 1477.49 Q2019.93 1474.36 2020.28 1468.02 Q2018.94 1470.01 2016.88 1471.07 Q2014.82 1472.14 2012.32 1472.14 Q2007.13 1472.14 2004.1 1469.01 Q2001.09 1465.87 2001.09 1460.43 Q2001.09 1455.1 2004.24 1451.88 Q2007.39 1448.67 2012.62 1448.67 Q2018.61 1448.67 2021.76 1453.27 Q2024.93 1457.86 2024.93 1466.61 Q2024.93 1474.78 2021.05 1479.66 Q2017.18 1484.52 2010.63 1484.52 Q2008.87 1484.52 2007.06 1484.18 Q2005.26 1483.83 2003.31 1483.13 M2012.62 1468.48 Q2015.77 1468.48 2017.6 1466.33 Q2019.45 1464.18 2019.45 1460.43 Q2019.45 1456.7 2017.6 1454.55 Q2015.77 1452.37 2012.62 1452.37 Q2009.47 1452.37 2007.62 1454.55 Q2005.79 1456.7 2005.79 1460.43 Q2005.79 1464.18 2007.62 1466.33 Q2009.47 1468.48 2012.62 1468.48 Z" fill="#9eb1be" fill-rule="evenodd" fill-opacity="1" /><path clip-path="url(#clip470)" d="M 0 0 M2030.05 1449.29 L2048.41 1449.29 L2048.41 1453.23 L2034.33 1453.23 L2034.33 1461.7 Q2035.35 1461.35 2036.37 1461.19 Q2037.39 1461 2038.41 1461 Q2044.19 1461 2047.57 1464.18 Q2050.95 1467.35 2050.95 1472.76 Q2050.95 1478.34 2047.48 1481.44 Q2044.01 1484.52 2037.69 1484.52 Q2035.51 1484.52 2033.24 1484.15 Q2031 1483.78 2028.59 1483.04 L2028.59 1478.34 Q2030.67 1479.48 2032.9 1480.03 Q2035.12 1480.59 2037.6 1480.59 Q2041.6 1480.59 2043.94 1478.48 Q2046.28 1476.38 2046.28 1472.76 Q2046.28 1469.15 2043.94 1467.05 Q2041.6 1464.94 2037.6 1464.94 Q2035.72 1464.94 2033.85 1465.36 Q2031.99 1465.77 2030.05 1466.65 L2030.05 1449.29 Z" fill="#9eb1be" fill-rule="evenodd" fill-opacity="1" /><path clip-path="url(#clip470)" d="M 0 0 M1289.86 1568.97 Q1276.65 1568.97 1276.65 1550.06 Q1276.65 1542.58 1281.58 1532.4 L1287.89 1532.4 Q1283.33 1542.58 1283.33 1550.22 Q1283.33 1564 1290.4 1564 Q1296.86 1564 1296.86 1546.88 L1302.27 1546.88 Q1302.27 1564 1308.73 1564 Q1315.8 1564 1315.8 1550.22 Q1315.8 1542.58 1311.25 1532.4 L1317.55 1532.4 Q1322.48 1542.58 1322.48 1550.06 Q1322.48 1568.97 1309.27 1568.97 Q1300.62 1568.97 1299.57 1559.45 Q1298.26 1568.97 1289.86 1568.97 Z" fill="#9eb1be" fill-rule="evenodd" fill-opacity="1" /><polyline clip-path="url(#clip472)" style="stroke:#adb2b7; stroke-width:2; stroke-opacity:0.1; fill:none" points="
  246.377,1180.08 2352.76,1180.08 
  "/>
<polyline clip-path="url(#clip472)" style="stroke:#adb2b7; stroke-width:2; stroke-opacity:0.1; fill:none" points="
  246.377,901.686 2352.76,901.686 
  "/>
<polyline clip-path="url(#clip472)" style="stroke:#adb2b7; stroke-width:2; stroke-opacity:0.1; fill:none" points="
  246.377,623.288 2352.76,623.288 
  "/>
<polyline clip-path="url(#clip472)" style="stroke:#adb2b7; stroke-width:2; stroke-opacity:0.1; fill:none" points="
  246.377,344.89 2352.76,344.89 
  "/>
<polyline clip-path="url(#clip470)" style="stroke:#adb2b7; stroke-width:4; stroke-opacity:1; fill:none" points="
  246.377,1423.18 246.377,123.472 
  "/>
<polyline clip-path="url(#clip470)" style="stroke:#adb2b7; stroke-width:4; stroke-opacity:1; fill:none" points="
  246.377,1180.08 271.653,1180.08 
  "/>
<polyline clip-path="url(#clip470)" style="stroke:#adb2b7; stroke-width:4; stroke-opacity:1; fill:none" points="
  246.377,901.686 271.653,901.686 
  "/>
<polyline clip-path="url(#clip470)" style="stroke:#adb2b7; stroke-width:4; stroke-opacity:1; fill:none" points="
  246.377,623.288 271.653,623.288 
  "/>
<polyline clip-path="url(#clip470)" style="stroke:#adb2b7; stroke-width:4; stroke-opacity:1; fill:none" points="
  246.377,344.89 271.653,344.89 
  "/>
<path clip-path="url(#clip470)" d="M 0 0 M115.458 1199.88 L123.097 1199.88 L123.097 1173.51 L114.787 1175.18 L114.787 1170.92 L123.051 1169.25 L127.727 1169.25 L127.727 1199.88 L135.365 1199.88 L135.365 1203.81 L115.458 1203.81 L115.458 1199.88 Z" fill="#9eb1be" fill-rule="evenodd" fill-opacity="1" /><path clip-path="url(#clip470)" d="M 0 0 M150.435 1172.33 Q146.824 1172.33 144.995 1175.9 Q143.189 1179.44 143.189 1186.57 Q143.189 1193.67 144.995 1197.24 Q146.824 1200.78 150.435 1200.78 Q154.069 1200.78 155.875 1197.24 Q157.703 1193.67 157.703 1186.57 Q157.703 1179.44 155.875 1175.9 Q154.069 1172.33 150.435 1172.33 M150.435 1168.63 Q156.245 1168.63 159.3 1173.23 Q162.379 1177.82 162.379 1186.57 Q162.379 1195.29 159.3 1199.9 Q156.245 1204.48 150.435 1204.48 Q144.625 1204.48 141.546 1199.9 Q138.49 1195.29 138.49 1186.57 Q138.49 1177.82 141.546 1173.23 Q144.625 1168.63 150.435 1168.63 Z" fill="#9eb1be" fill-rule="evenodd" fill-opacity="1" /><path clip-path="url(#clip470)" d="M 0 0 M166.949 1173.2 L180.209 1173.2 L180.209 1176.4 L162.379 1176.4 L162.379 1173.2 Q164.542 1170.97 168.266 1167.2 Q172.009 1163.42 172.968 1162.33 Q174.792 1160.28 175.507 1158.87 Q176.24 1157.44 176.24 1156.07 Q176.24 1153.83 174.661 1152.42 Q173.1 1151.01 170.579 1151.01 Q168.793 1151.01 166.799 1151.63 Q164.824 1152.25 162.567 1153.51 L162.567 1149.68 Q164.862 1148.75 166.855 1148.28 Q168.849 1147.81 170.504 1147.81 Q174.867 1147.81 177.463 1150 Q180.058 1152.18 180.058 1155.83 Q180.058 1157.56 179.4 1159.12 Q178.761 1160.66 177.049 1162.77 Q176.579 1163.31 174.059 1165.93 Q171.538 1168.52 166.949 1173.2 Z" fill="#9eb1be" fill-rule="evenodd" fill-opacity="1" /><path clip-path="url(#clip470)" d="M 0 0 M184.328 1171.62 L188.296 1171.62 L188.296 1176.4 L184.328 1176.4 L184.328 1171.62 Z" fill="#9eb1be" fill-rule="evenodd" fill-opacity="1" /><path clip-path="url(#clip470)" d="M 0 0 M201.01 1160.85 Q198.452 1160.85 196.948 1162.6 Q195.462 1164.35 195.462 1167.39 Q195.462 1170.42 196.948 1172.19 Q198.452 1173.94 201.01 1173.94 Q203.568 1173.94 205.054 1172.19 Q206.559 1170.42 206.559 1167.39 Q206.559 1164.35 205.054 1162.6 Q203.568 1160.85 201.01 1160.85 M208.552 1148.94 L208.552 1152.4 Q207.123 1151.73 205.656 1151.37 Q204.208 1151.01 202.778 1151.01 Q199.017 1151.01 197.023 1153.55 Q195.048 1156.09 194.766 1161.22 Q195.876 1159.59 197.55 1158.72 Q199.224 1157.84 201.236 1157.84 Q205.468 1157.84 207.913 1160.41 Q210.377 1162.97 210.377 1167.39 Q210.377 1171.72 207.819 1174.33 Q205.261 1176.95 201.01 1176.95 Q196.139 1176.95 193.562 1173.22 Q190.986 1169.48 190.986 1162.39 Q190.986 1155.73 194.145 1151.78 Q197.305 1147.81 202.628 1147.81 Q204.057 1147.81 205.505 1148.1 Q206.972 1148.38 208.552 1148.94 Z" fill="#9eb1be" fill-rule="evenodd" fill-opacity="1" /><path clip-path="url(#clip470)" d="M 0 0 M115.665 921.479 L123.304 921.479 L123.304 895.113 L114.994 896.78 L114.994 892.52 L123.258 890.854 L127.933 890.854 L127.933 921.479 L135.572 921.479 L135.572 925.414 L115.665 925.414 L115.665 921.479 Z" fill="#9eb1be" fill-rule="evenodd" fill-opacity="1" /><path clip-path="url(#clip470)" d="M 0 0 M150.642 893.932 Q147.031 893.932 145.202 897.497 Q143.396 901.039 143.396 908.168 Q143.396 915.275 145.202 918.84 Q147.031 922.381 150.642 922.381 Q154.276 922.381 156.081 918.84 Q157.91 915.275 157.91 908.168 Q157.91 901.039 156.081 897.497 Q154.276 893.932 150.642 893.932 M150.642 890.229 Q156.452 890.229 159.507 894.835 Q162.586 899.418 162.586 908.168 Q162.586 916.895 159.507 921.502 Q156.452 926.085 150.642 926.085 Q144.831 926.085 141.753 921.502 Q138.697 916.895 138.697 908.168 Q138.697 899.418 141.753 894.835 Q144.831 890.229 150.642 890.229 Z" fill="#9eb1be" fill-rule="evenodd" fill-opacity="1" /><path clip-path="url(#clip470)" d="M 0 0 M167.156 894.806 L180.416 894.806 L180.416 898.003 L162.586 898.003 L162.586 894.806 Q164.749 892.568 168.473 888.806 Q172.216 885.026 173.175 883.935 Q174.999 881.885 175.714 880.474 Q176.447 879.045 176.447 877.672 Q176.447 875.434 174.867 874.023 Q173.306 872.613 170.786 872.613 Q168.999 872.613 167.006 873.233 Q165.031 873.854 162.774 875.114 L162.774 871.277 Q165.069 870.356 167.062 869.886 Q169.056 869.415 170.711 869.415 Q175.074 869.415 177.67 871.597 Q180.265 873.779 180.265 877.428 Q180.265 879.158 179.607 880.719 Q178.968 882.261 177.256 884.368 Q176.786 884.913 174.266 887.527 Q171.745 890.123 167.156 894.806 Z" fill="#9eb1be" fill-rule="evenodd" fill-opacity="1" /><path clip-path="url(#clip470)" d="M 0 0 M184.535 893.226 L188.503 893.226 L188.503 898.003 L184.535 898.003 L184.535 893.226 Z" fill="#9eb1be" fill-rule="evenodd" fill-opacity="1" /><path clip-path="url(#clip470)" d="M 0 0 M200.747 884.669 Q198.039 884.669 196.478 886.117 Q194.935 887.565 194.935 890.104 Q194.935 892.643 196.478 894.091 Q198.039 895.539 200.747 895.539 Q203.455 895.539 205.016 894.091 Q206.577 892.624 206.577 890.104 Q206.577 887.565 205.016 886.117 Q203.474 884.669 200.747 884.669 M196.948 883.051 Q194.503 882.449 193.13 880.775 Q191.776 879.101 191.776 876.694 Q191.776 873.327 194.164 871.371 Q196.572 869.415 200.747 869.415 Q204.941 869.415 207.33 871.371 Q209.718 873.327 209.718 876.694 Q209.718 879.101 208.345 880.775 Q206.991 882.449 204.565 883.051 Q207.311 883.691 208.834 885.553 Q210.377 887.415 210.377 890.104 Q210.377 894.185 207.875 896.367 Q205.392 898.549 200.747 898.549 Q196.101 898.549 193.6 896.367 Q191.117 894.185 191.117 890.104 Q191.117 887.415 192.66 885.553 Q194.202 883.691 196.948 883.051 M195.556 877.051 Q195.556 879.233 196.91 880.456 Q198.283 881.678 200.747 881.678 Q203.192 881.678 204.565 880.456 Q205.957 879.233 205.957 877.051 Q205.957 874.87 204.565 873.647 Q203.192 872.425 200.747 872.425 Q198.283 872.425 196.91 873.647 Q195.556 874.87 195.556 877.051 Z" fill="#9eb1be" fill-rule="evenodd" fill-opacity="1" /><path clip-path="url(#clip470)" d="M 0 0 M114.931 643.081 L122.57 643.081 L122.57 616.715 L114.26 618.382 L114.26 614.122 L122.524 612.456 L127.2 612.456 L127.2 643.081 L134.839 643.081 L134.839 647.016 L114.931 647.016 L114.931 643.081 Z" fill="#9eb1be" fill-rule="evenodd" fill-opacity="1" /><path clip-path="url(#clip470)" d="M 0 0 M149.908 615.535 Q146.297 615.535 144.468 619.099 Q142.663 622.641 142.663 629.771 Q142.663 636.877 144.468 640.442 Q146.297 643.983 149.908 643.983 Q153.542 643.983 155.348 640.442 Q157.177 636.877 157.177 629.771 Q157.177 622.641 155.348 619.099 Q153.542 615.535 149.908 615.535 M149.908 611.831 Q155.718 611.831 158.774 616.437 Q161.852 621.021 161.852 629.771 Q161.852 638.497 158.774 643.104 Q155.718 647.687 149.908 647.687 Q144.098 647.687 141.019 643.104 Q137.964 638.497 137.964 629.771 Q137.964 621.021 141.019 616.437 Q144.098 611.831 149.908 611.831 Z" fill="#9eb1be" fill-rule="evenodd" fill-opacity="1" /><path clip-path="url(#clip470)" d="M 0 0 M174.548 604.465 Q177.275 605.048 178.798 606.891 Q180.341 608.735 180.341 611.443 Q180.341 615.599 177.482 617.875 Q174.623 620.151 169.357 620.151 Q167.589 620.151 165.708 619.793 Q163.846 619.455 161.852 618.759 L161.852 615.092 Q163.432 616.013 165.313 616.483 Q167.194 616.954 169.244 616.954 Q172.817 616.954 174.679 615.543 Q176.56 614.132 176.56 611.443 Q176.56 608.96 174.811 607.568 Q173.081 606.158 169.977 606.158 L166.705 606.158 L166.705 603.036 L170.128 603.036 Q172.93 603.036 174.416 601.926 Q175.902 600.798 175.902 598.691 Q175.902 596.528 174.36 595.381 Q172.836 594.215 169.977 594.215 Q168.416 594.215 166.63 594.553 Q164.843 594.892 162.699 595.607 L162.699 592.221 Q164.862 591.619 166.743 591.319 Q168.642 591.018 170.316 591.018 Q174.642 591.018 177.162 592.992 Q179.682 594.948 179.682 598.296 Q179.682 600.628 178.347 602.246 Q177.012 603.845 174.548 604.465 Z" fill="#9eb1be" fill-rule="evenodd" fill-opacity="1" /><path clip-path="url(#clip470)" d="M 0 0 M184.459 614.828 L188.428 614.828 L188.428 619.605 L184.459 619.605 L184.459 614.828 Z" fill="#9eb1be" fill-rule="evenodd" fill-opacity="1" /><path clip-path="url(#clip470)" d="M 0 0 M200.672 594.027 Q197.738 594.027 196.252 596.923 Q194.785 599.801 194.785 605.594 Q194.785 611.368 196.252 614.264 Q197.738 617.142 200.672 617.142 Q203.625 617.142 205.092 614.264 Q206.577 611.368 206.577 605.594 Q206.577 599.801 205.092 596.923 Q203.625 594.027 200.672 594.027 M200.672 591.018 Q205.392 591.018 207.875 594.76 Q210.377 598.484 210.377 605.594 Q210.377 612.684 207.875 616.427 Q205.392 620.151 200.672 620.151 Q195.951 620.151 193.45 616.427 Q190.967 612.684 190.967 605.594 Q190.967 598.484 193.45 594.76 Q195.951 591.018 200.672 591.018 Z" fill="#9eb1be" fill-rule="evenodd" fill-opacity="1" /><path clip-path="url(#clip470)" d="M 0 0 M116.229 364.683 L123.868 364.683 L123.868 338.317 L115.558 339.984 L115.558 335.725 L123.822 334.058 L128.498 334.058 L128.498 364.683 L136.136 364.683 L136.136 368.618 L116.229 368.618 L116.229 364.683 Z" fill="#9eb1be" fill-rule="evenodd" fill-opacity="1" /><path clip-path="url(#clip470)" d="M 0 0 M151.206 337.137 Q147.595 337.137 145.766 340.701 Q143.961 344.243 143.961 351.373 Q143.961 358.479 145.766 362.044 Q147.595 365.586 151.206 365.586 Q154.84 365.586 156.646 362.044 Q158.474 358.479 158.474 351.373 Q158.474 344.243 156.646 340.701 Q154.84 337.137 151.206 337.137 M151.206 333.433 Q157.016 333.433 160.072 338.039 Q163.15 342.623 163.15 351.373 Q163.15 360.099 160.072 364.706 Q157.016 369.289 151.206 369.289 Q145.396 369.289 142.317 364.706 Q139.261 360.099 139.261 351.373 Q139.261 342.623 142.317 338.039 Q145.396 333.433 151.206 333.433 Z" fill="#9eb1be" fill-rule="evenodd" fill-opacity="1" /><path clip-path="url(#clip470)" d="M 0 0 M175.845 326.067 Q178.573 326.65 180.096 328.493 Q181.638 330.337 181.638 333.045 Q181.638 337.201 178.779 339.477 Q175.921 341.753 170.655 341.753 Q168.887 341.753 167.006 341.396 Q165.144 341.057 163.15 340.361 L163.15 336.694 Q164.73 337.615 166.611 338.085 Q168.492 338.556 170.542 338.556 Q174.115 338.556 175.977 337.145 Q177.858 335.734 177.858 333.045 Q177.858 330.562 176.109 329.171 Q174.378 327.76 171.275 327.76 L168.003 327.76 L168.003 324.638 L171.426 324.638 Q174.228 324.638 175.714 323.528 Q177.2 322.4 177.2 320.293 Q177.2 318.13 175.657 316.983 Q174.134 315.817 171.275 315.817 Q169.714 315.817 167.927 316.156 Q166.141 316.494 163.997 317.209 L163.997 313.823 Q166.159 313.222 168.04 312.921 Q169.94 312.62 171.614 312.62 Q175.94 312.62 178.46 314.595 Q180.98 316.551 180.98 319.898 Q180.98 322.231 179.645 323.848 Q178.309 325.447 175.845 326.067 Z" fill="#9eb1be" fill-rule="evenodd" fill-opacity="1" /><path clip-path="url(#clip470)" d="M 0 0 M185.757 336.43 L189.726 336.43 L189.726 341.208 L185.757 341.208 L185.757 336.43 Z" fill="#9eb1be" fill-rule="evenodd" fill-opacity="1" /><path clip-path="url(#clip470)" d="M 0 0 M197.117 338.01 L210.377 338.01 L210.377 341.208 L192.547 341.208 L192.547 338.01 Q194.71 335.772 198.434 332.011 Q202.176 328.23 203.136 327.139 Q204.96 325.089 205.675 323.679 Q206.408 322.249 206.408 320.876 Q206.408 318.638 204.828 317.228 Q203.267 315.817 200.747 315.817 Q198.96 315.817 196.967 316.438 Q194.992 317.058 192.735 318.318 L192.735 314.482 Q195.029 313.56 197.023 313.09 Q199.017 312.62 200.672 312.62 Q205.035 312.62 207.631 314.801 Q210.226 316.983 210.226 320.632 Q210.226 322.362 209.568 323.923 Q208.928 325.465 207.217 327.572 Q206.747 328.117 204.226 330.732 Q201.706 333.327 197.117 338.01 Z" fill="#9eb1be" fill-rule="evenodd" fill-opacity="1" /><path clip-path="url(#clip470)" d="M 0 0 M35.3266 913.849 L35.3266 923.111 L45.9574 925.785 L45.9574 916.459 L35.3266 913.849 M17.2162 918.623 L30.4251 921.933 L30.4251 912.639 L17.2162 909.297 L17.2162 904.205 L30.4251 907.483 L30.4251 897.553 L35.3266 897.553 L35.3266 908.725 L45.9574 911.335 L45.9574 901.213 L50.8271 901.213 L50.8271 912.576 L64.0042 915.886 L64.0042 920.979 L50.8271 917.7 L50.8271 927.026 L64.0042 930.304 L64.0042 935.429 L50.8271 932.119 L50.8271 942.145 L45.9574 942.145 L45.9574 930.941 L35.3266 928.267 L35.3266 938.516 L30.4251 938.516 L30.4251 927.026 L17.2162 923.779 L17.2162 918.623 Z" fill="#9eb1be" fill-rule="evenodd" fill-opacity="1" /><path clip-path="url(#clip470)" d="M 0 0 M28.3562 870.689 L28.3562 864.833 L64.0042 864.833 L64.0042 870.689 L28.3562 870.689 M14.479 870.689 L14.479 864.833 L21.895 864.833 L21.895 870.689 L14.479 870.689 Z" fill="#9eb1be" fill-rule="evenodd" fill-opacity="1" /><path clip-path="url(#clip470)" d="M 0 0 M18.2347 852.897 L28.3562 852.897 L28.3562 840.834 L32.9077 840.834 L32.9077 852.897 L52.2594 852.897 Q56.6199 852.897 57.8613 851.72 Q59.1026 850.51 59.1026 846.85 L59.1026 840.834 L64.0042 840.834 L64.0042 846.85 Q64.0042 853.629 61.4897 856.207 Q58.9434 858.786 52.2594 858.786 L32.9077 858.786 L32.9077 863.082 L28.3562 863.082 L28.3562 858.786 L18.2347 858.786 L18.2347 852.897 Z" fill="#9eb1be" fill-rule="evenodd" fill-opacity="1" /><path clip-path="url(#clip470)" d="M 0 0 M44.7161 804.2 L47.5806 804.2 L47.5806 831.127 Q53.6281 830.745 56.8109 827.498 Q59.9619 824.22 59.9619 818.395 Q59.9619 815.021 59.1344 811.87 Q58.3069 808.687 56.6518 805.568 L62.1899 805.568 Q63.5267 808.719 64.227 812.029 Q64.9272 815.34 64.9272 818.745 Q64.9272 827.275 59.9619 832.272 Q54.9967 837.238 46.5303 837.238 Q37.7774 837.238 32.6531 832.527 Q27.4968 827.785 27.4968 819.764 Q27.4968 812.571 32.1438 808.401 Q36.7589 804.2 44.7161 804.2 M42.9973 810.056 Q38.1912 810.12 35.3266 812.762 Q32.4621 815.371 32.4621 819.7 Q32.4621 824.602 35.2312 827.562 Q38.0002 830.49 43.0292 830.936 L42.9973 810.056 Z" fill="#9eb1be" fill-rule="evenodd" fill-opacity="1" /><path clip-path="url(#clip470)" d="M 0 0 M33.8307 777.4 Q33.2578 778.387 33.0032 779.564 Q32.7167 780.71 32.7167 782.111 Q32.7167 787.076 35.9632 789.75 Q39.1779 792.391 45.2253 792.391 L64.0042 792.391 L64.0042 798.28 L28.3562 798.28 L28.3562 792.391 L33.8944 792.391 Q30.6479 790.545 29.0883 787.585 Q27.4968 784.625 27.4968 780.392 Q27.4968 779.787 27.5923 779.055 Q27.656 778.323 27.8151 777.432 L33.8307 777.4 Z" fill="#9eb1be" fill-rule="evenodd" fill-opacity="1" /><path clip-path="url(#clip470)" d="M 0 0 M46.0847 755.056 Q46.0847 762.154 47.7079 764.891 Q49.3312 767.629 53.2461 767.629 Q56.3653 767.629 58.2114 765.592 Q60.0256 763.523 60.0256 759.99 Q60.0256 755.12 56.5881 752.192 Q53.1188 749.232 47.3897 749.232 L46.0847 749.232 L46.0847 755.056 M43.6657 743.375 L64.0042 743.375 L64.0042 749.232 L58.5933 749.232 Q61.8398 751.237 63.3994 754.229 Q64.9272 757.221 64.9272 761.549 Q64.9272 767.024 61.8716 770.27 Q58.7843 773.485 53.6281 773.485 Q47.6125 773.485 44.5569 769.475 Q41.5014 765.433 41.5014 757.444 L41.5014 749.232 L40.9285 749.232 Q36.8862 749.232 34.6901 751.905 Q32.4621 754.547 32.4621 759.353 Q32.4621 762.409 33.1941 765.305 Q33.9262 768.202 35.3903 770.875 L29.9795 770.875 Q28.7381 767.661 28.1334 764.637 Q27.4968 761.613 27.4968 758.749 Q27.4968 751.014 31.5072 747.195 Q35.5176 743.375 43.6657 743.375 Z" fill="#9eb1be" fill-rule="evenodd" fill-opacity="1" /><path clip-path="url(#clip470)" d="M 0 0 M18.2347 731.44 L28.3562 731.44 L28.3562 719.377 L32.9077 719.377 L32.9077 731.44 L52.2594 731.44 Q56.6199 731.44 57.8613 730.262 Q59.1026 729.052 59.1026 725.392 L59.1026 719.377 L64.0042 719.377 L64.0042 725.392 Q64.0042 732.172 61.4897 734.75 Q58.9434 737.328 52.2594 737.328 L32.9077 737.328 L32.9077 741.625 L28.3562 741.625 L28.3562 737.328 L18.2347 737.328 L18.2347 731.44 Z" fill="#9eb1be" fill-rule="evenodd" fill-opacity="1" /><path clip-path="url(#clip470)" d="M 0 0 M28.3562 713.234 L28.3562 707.377 L64.0042 707.377 L64.0042 713.234 L28.3562 713.234 M14.479 713.234 L14.479 707.377 L21.895 707.377 L21.895 713.234 L14.479 713.234 Z" fill="#9eb1be" fill-rule="evenodd" fill-opacity="1" /><path clip-path="url(#clip470)" d="M 0 0 M32.4621 687.421 Q32.4621 692.131 36.1542 694.869 Q39.8145 697.606 46.212 697.606 Q52.6095 697.606 56.3017 694.9 Q59.9619 692.163 59.9619 687.421 Q59.9619 682.742 56.2698 680.005 Q52.5777 677.267 46.212 677.267 Q39.8781 677.267 36.186 680.005 Q32.4621 682.742 32.4621 687.421 M27.4968 687.421 Q27.4968 679.782 32.4621 675.421 Q37.4273 671.061 46.212 671.061 Q54.9649 671.061 59.9619 675.421 Q64.9272 679.782 64.9272 687.421 Q64.9272 695.091 59.9619 699.452 Q54.9649 703.781 46.212 703.781 Q37.4273 703.781 32.4621 699.452 Q27.4968 695.091 27.4968 687.421 Z" fill="#9eb1be" fill-rule="evenodd" fill-opacity="1" /><path clip-path="url(#clip470)" d="M 0 0 M42.4881 635.286 L64.0042 635.286 L64.0042 641.142 L42.679 641.142 Q37.6183 641.142 35.1038 643.115 Q32.5894 645.089 32.5894 649.036 Q32.5894 653.778 35.6131 656.515 Q38.6368 659.253 43.8567 659.253 L64.0042 659.253 L64.0042 665.141 L28.3562 665.141 L28.3562 659.253 L33.8944 659.253 Q30.6797 657.152 29.0883 654.319 Q27.4968 651.455 27.4968 647.731 Q27.4968 641.588 31.3163 638.437 Q35.1038 635.286 42.4881 635.286 Z" fill="#9eb1be" fill-rule="evenodd" fill-opacity="1" /><path clip-path="url(#clip470)" d="M 0 0 M29.4065 606.417 L34.9447 606.417 Q33.6716 608.9 33.035 611.573 Q32.3984 614.247 32.3984 617.112 Q32.3984 621.472 33.7352 623.668 Q35.072 625.833 37.7456 625.833 Q39.7826 625.833 40.9603 624.273 Q42.1061 622.713 43.1565 618.003 L43.6021 615.998 Q44.9389 609.759 47.3897 607.149 Q49.8086 604.507 54.1691 604.507 Q59.1344 604.507 62.0308 608.454 Q64.9272 612.369 64.9272 619.244 Q64.9272 622.109 64.3543 625.228 Q63.8132 628.315 62.6992 631.753 L56.6518 631.753 Q58.3387 628.506 59.198 625.355 Q60.0256 622.204 60.0256 619.117 Q60.0256 614.979 58.6251 612.751 Q57.1929 610.523 54.6147 610.523 Q52.2276 610.523 50.9545 612.146 Q49.6813 613.738 48.5037 619.18 L48.0262 621.217 Q46.8804 626.66 44.5251 629.079 Q42.138 631.498 38.0002 631.498 Q32.9713 631.498 30.2341 627.933 Q27.4968 624.368 27.4968 617.812 Q27.4968 614.565 27.9743 611.701 Q28.4517 608.836 29.4065 606.417 Z" fill="#9eb1be" fill-rule="evenodd" fill-opacity="1" /><path clip-path="url(#clip470)" d="M 0 0 M1027.77 36.0774 L1015.98 36.0774 L1012.58 49.6074 L1024.45 49.6074 L1027.77 36.0774 M1021.69 13.0277 L1017.48 29.839 L1029.31 29.839 L1033.56 13.0277 L1040.05 13.0277 L1035.87 29.839 L1048.51 29.839 L1048.51 36.0774 L1034.29 36.0774 L1030.97 49.6074 L1043.85 49.6074 L1043.85 55.8053 L1029.39 55.8053 L1025.18 72.576 L1018.7 72.576 L1022.87 55.8053 L1011 55.8053 L1006.83 72.576 L1000.31 72.576 L1004.52 55.8053 L991.758 55.8053 L991.758 49.6074 L1006.02 49.6074 L1009.42 36.0774 L996.376 36.0774 L996.376 29.839 L1011 29.839 L1015.13 13.0277 L1021.69 13.0277 Z" fill="#adb2b7" fill-rule="evenodd" fill-opacity="1" /><path clip-path="url(#clip470)" d="M 0 0 M1111.62 28.5427 L1111.62 35.5912 Q1108.46 33.9709 1105.06 33.1607 Q1101.66 32.3505 1098.01 32.3505 Q1092.46 32.3505 1089.67 34.0519 Q1086.91 35.7533 1086.91 39.156 Q1086.91 41.7486 1088.9 43.2475 Q1090.88 44.7058 1096.88 46.0426 L1099.43 46.6097 Q1107.37 48.3111 1110.69 51.4303 Q1114.06 54.509 1114.06 60.0587 Q1114.06 66.3781 1109.03 70.0644 Q1104.05 73.7508 1095.3 73.7508 Q1091.65 73.7508 1087.68 73.0216 Q1083.75 72.3329 1079.38 70.9151 L1079.38 63.2184 Q1083.51 65.3654 1087.52 66.4591 Q1091.53 67.5124 1095.46 67.5124 Q1100.73 67.5124 1103.56 65.73 Q1106.4 63.9071 1106.4 60.6258 Q1106.4 57.5877 1104.33 55.9673 Q1102.31 54.3469 1095.38 52.8481 L1092.79 52.2405 Q1085.86 50.7821 1082.78 47.7845 Q1079.7 44.7463 1079.7 39.4801 Q1079.7 33.0797 1084.24 29.5959 Q1088.78 26.1121 1097.12 26.1121 Q1101.25 26.1121 1104.9 26.7198 Q1108.55 27.3274 1111.62 28.5427 Z" fill="#adb2b7" fill-rule="evenodd" fill-opacity="1" /><path clip-path="url(#clip470)" d="M 0 0 M1121.87 27.2059 L1129.33 27.2059 L1129.33 72.576 L1121.87 72.576 L1121.87 27.2059 M1121.87 9.54393 L1129.33 9.54393 L1129.33 18.9825 L1121.87 18.9825 L1121.87 9.54393 Z" fill="#adb2b7" fill-rule="evenodd" fill-opacity="1" /><path clip-path="url(#clip470)" d="M 0 0 M1174.86 45.1919 L1174.86 72.576 L1167.41 72.576 L1167.41 45.4349 Q1167.41 38.994 1164.89 35.7938 Q1162.38 32.5936 1157.36 32.5936 Q1151.32 32.5936 1147.84 36.4419 Q1144.36 40.2903 1144.36 46.9338 L1144.36 72.576 L1136.86 72.576 L1136.86 27.2059 L1144.36 27.2059 L1144.36 34.2544 Q1147.03 30.163 1150.63 28.1376 Q1154.28 26.1121 1159.02 26.1121 Q1166.84 26.1121 1170.85 30.9732 Q1174.86 35.7938 1174.86 45.1919 Z" fill="#adb2b7" fill-rule="evenodd" fill-opacity="1" /><path clip-path="url(#clip470)" d="M 0 0 M1182.39 9.54393 L1189.89 9.54393 L1189.89 46.7717 L1212.13 27.2059 L1221.65 27.2059 L1197.58 48.4326 L1222.66 72.576 L1212.94 72.576 L1189.89 50.4176 L1189.89 72.576 L1182.39 72.576 L1182.39 9.54393 Z" fill="#adb2b7" fill-rule="evenodd" fill-opacity="1" /><path clip-path="url(#clip470)" d="M 0 0 M1274.43 32.4315 Q1268.44 32.4315 1264.95 37.1306 Q1261.47 41.7891 1261.47 49.9314 Q1261.47 58.0738 1264.91 62.7728 Q1268.39 67.4314 1274.43 67.4314 Q1280.39 67.4314 1283.87 62.7323 Q1287.35 58.0333 1287.35 49.9314 Q1287.35 41.8701 1283.87 37.1711 Q1280.39 32.4315 1274.43 32.4315 M1274.43 26.1121 Q1284.15 26.1121 1289.7 32.4315 Q1295.25 38.7509 1295.25 49.9314 Q1295.25 61.0714 1289.7 67.4314 Q1284.15 73.7508 1274.43 73.7508 Q1264.67 73.7508 1259.12 67.4314 Q1253.61 61.0714 1253.61 49.9314 Q1253.61 38.7509 1259.12 32.4315 Q1264.67 26.1121 1274.43 26.1121 Z" fill="#adb2b7" fill-rule="evenodd" fill-opacity="1" /><path clip-path="url(#clip470)" d="M 0 0 M1335.64 49.9314 Q1335.64 41.7081 1332.24 37.0496 Q1328.87 32.3505 1322.96 32.3505 Q1317.05 32.3505 1313.64 37.0496 Q1310.28 41.7081 1310.28 49.9314 Q1310.28 58.1548 1313.64 62.8538 Q1317.05 67.5124 1322.96 67.5124 Q1328.87 67.5124 1332.24 62.8538 Q1335.64 58.1548 1335.64 49.9314 M1310.28 34.0924 Q1312.63 30.0415 1316.2 28.0971 Q1319.8 26.1121 1324.78 26.1121 Q1333.05 26.1121 1338.19 32.6746 Q1343.38 39.2371 1343.38 49.9314 Q1343.38 60.6258 1338.19 67.1883 Q1333.05 73.7508 1324.78 73.7508 Q1319.8 73.7508 1316.2 71.8063 Q1312.63 69.8214 1310.28 65.7705 L1310.28 72.576 L1302.79 72.576 L1302.79 9.54393 L1310.28 9.54393 L1310.28 34.0924 Z" fill="#adb2b7" fill-rule="evenodd" fill-opacity="1" /><path clip-path="url(#clip470)" d="M 0 0 M1351.19 27.2059 L1358.65 27.2059 L1358.65 73.3862 Q1358.65 82.0551 1355.33 85.944 Q1352.05 89.8329 1344.71 89.8329 L1341.88 89.8329 L1341.88 83.5134 L1343.86 83.5134 Q1348.12 83.5134 1349.66 81.5285 Q1351.19 79.5841 1351.19 73.3862 L1351.19 27.2059 M1351.19 9.54393 L1358.65 9.54393 L1358.65 18.9825 L1351.19 18.9825 L1351.19 9.54393 Z" fill="#adb2b7" fill-rule="evenodd" fill-opacity="1" /><path clip-path="url(#clip470)" d="M 0 0 M1405.27 48.0275 L1405.27 51.6733 L1371 51.6733 Q1371.49 59.3701 1375.62 63.421 Q1379.79 67.4314 1387.21 67.4314 Q1391.5 67.4314 1395.51 66.3781 Q1399.56 65.3249 1403.53 63.2184 L1403.53 70.267 Q1399.52 71.9684 1395.31 72.8596 Q1391.1 73.7508 1386.76 73.7508 Q1375.91 73.7508 1369.55 67.4314 Q1363.23 61.1119 1363.23 50.3365 Q1363.23 39.1965 1369.22 32.6746 Q1375.26 26.1121 1385.47 26.1121 Q1394.62 26.1121 1399.93 32.0264 Q1405.27 37.9003 1405.27 48.0275 M1397.82 45.84 Q1397.74 39.7232 1394.38 36.0774 Q1391.06 32.4315 1385.55 32.4315 Q1379.31 32.4315 1375.54 35.9558 Q1371.81 39.4801 1371.25 45.8805 L1397.82 45.84 Z" fill="#adb2b7" fill-rule="evenodd" fill-opacity="1" /><path clip-path="url(#clip470)" d="M 0 0 M1445.74 28.9478 L1445.74 35.9153 Q1442.58 34.1734 1439.38 33.3227 Q1436.22 32.4315 1432.98 32.4315 Q1425.73 32.4315 1421.72 37.0496 Q1417.71 41.6271 1417.71 49.9314 Q1417.71 58.2358 1421.72 62.8538 Q1425.73 67.4314 1432.98 67.4314 Q1436.22 67.4314 1439.38 66.5807 Q1442.58 65.6895 1445.74 63.9476 L1445.74 70.8341 Q1442.62 72.2924 1439.26 73.0216 Q1435.94 73.7508 1432.17 73.7508 Q1421.92 73.7508 1415.89 67.3098 Q1409.85 60.8689 1409.85 49.9314 Q1409.85 38.832 1415.93 32.472 Q1422.05 26.1121 1432.66 26.1121 Q1436.1 26.1121 1439.38 26.8413 Q1442.66 27.5299 1445.74 28.9478 Z" fill="#adb2b7" fill-rule="evenodd" fill-opacity="1" /><path clip-path="url(#clip470)" d="M 0 0 M1460.93 14.324 L1460.93 27.2059 L1476.29 27.2059 L1476.29 32.9987 L1460.93 32.9987 L1460.93 57.6282 Q1460.93 63.1779 1462.43 64.7578 Q1463.97 66.3376 1468.63 66.3376 L1476.29 66.3376 L1476.29 72.576 L1468.63 72.576 Q1460 72.576 1456.72 69.3758 Q1453.44 66.1351 1453.44 57.6282 L1453.44 32.9987 L1447.97 32.9987 L1447.97 27.2059 L1453.44 27.2059 L1453.44 14.324 L1460.93 14.324 Z" fill="#adb2b7" fill-rule="evenodd" fill-opacity="1" /><path clip-path="url(#clip470)" d="M 0 0 M1513.03 28.5427 L1513.03 35.5912 Q1509.87 33.9709 1506.47 33.1607 Q1503.06 32.3505 1499.42 32.3505 Q1493.87 32.3505 1491.07 34.0519 Q1488.32 35.7533 1488.32 39.156 Q1488.32 41.7486 1490.3 43.2475 Q1492.29 44.7058 1498.28 46.0426 L1500.84 46.6097 Q1508.78 48.3111 1512.1 51.4303 Q1515.46 54.509 1515.46 60.0587 Q1515.46 66.3781 1510.44 70.0644 Q1505.45 73.7508 1496.7 73.7508 Q1493.06 73.7508 1489.09 73.0216 Q1485.16 72.3329 1480.78 70.9151 L1480.78 63.2184 Q1484.92 65.3654 1488.93 66.4591 Q1492.94 67.5124 1496.87 67.5124 Q1502.13 67.5124 1504.97 65.73 Q1507.8 63.9071 1507.8 60.6258 Q1507.8 57.5877 1505.74 55.9673 Q1503.71 54.3469 1496.78 52.8481 L1494.19 52.2405 Q1487.26 50.7821 1484.19 47.7845 Q1481.11 44.7463 1481.11 39.4801 Q1481.11 33.0797 1485.64 29.5959 Q1490.18 26.1121 1498.53 26.1121 Q1502.66 26.1121 1506.3 26.7198 Q1509.95 27.3274 1513.03 28.5427 Z" fill="#adb2b7" fill-rule="evenodd" fill-opacity="1" /><path clip-path="url(#clip470)" d="M 0 0 M1525.18 62.2867 L1533.73 62.2867 L1533.73 72.576 L1525.18 72.576 L1525.18 62.2867 M1525.18 29.6769 L1533.73 29.6769 L1533.73 39.9662 L1525.18 39.9662 L1525.18 29.6769 Z" fill="#adb2b7" fill-rule="evenodd" fill-opacity="1" /><path clip-path="url(#clip470)" d="M 0 0 M1586.47 17.4837 Q1580.15 17.4837 1576.95 23.7221 Q1573.79 29.92 1573.79 42.3968 Q1573.79 54.833 1576.95 61.0714 Q1580.15 67.2693 1586.47 67.2693 Q1592.83 67.2693 1595.99 61.0714 Q1599.19 54.833 1599.19 42.3968 Q1599.19 29.92 1595.99 23.7221 Q1592.83 17.4837 1586.47 17.4837 M1586.47 11.0023 Q1596.64 11.0023 1601.99 19.0636 Q1607.37 27.0843 1607.37 42.3968 Q1607.37 57.6687 1601.99 65.73 Q1596.64 73.7508 1586.47 73.7508 Q1576.3 73.7508 1570.92 65.73 Q1565.57 57.6687 1565.57 42.3968 Q1565.57 27.0843 1570.92 19.0636 Q1576.3 11.0023 1586.47 11.0023 Z" fill="#adb2b7" fill-rule="evenodd" fill-opacity="1" /><polyline clip-path="url(#clip472)" style="stroke:#fe4365; stroke-width:4; stroke-opacity:1; fill:none" points="
  305.991,553.16 326.063,559.655 346.136,566.22 366.208,572.301 386.28,579.006 406.352,585.786 426.424,592.643 446.497,599.578 466.569,606.006 486.641,613.098 
  506.713,620.273 526.786,627.535 546.858,634.269 566.93,641.702 587.002,648.597 607.074,656.209 627.147,663.918 647.219,671.072 667.291,678.975 687.363,686.311 
  707.436,694.416 727.508,701.943 747.58,710.263 767.652,717.991 787.724,725.819 807.797,734.476 827.869,742.522 847.941,751.423 868.013,759.699 888.086,768.09 
  908.158,777.379 928.23,786.021 948.302,794.788 968.374,803.685 988.447,813.541 1008.52,822.72 1028.59,832.04 1048.66,841.507 1068.74,852.005 1088.81,861.792 
  1108.88,871.739 1128.95,881.854 1149.02,892.14 1169.1,903.564 1189.17,914.23 1209.24,925.087 1229.31,936.143 1249.39,947.405 1269.46,959.934 1289.53,971.653 
  1309.6,983.602 1329.67,995.793 1349.75,1008.23 1369.82,1020.94 1389.89,1035.11 1409.96,1048.39 1430.04,1061.98 1450.11,1077.16 1470.18,1091.41 1490.25,1106.01 
  1510.32,1122.35 1530.4,1137.73 1550.47,1153.51 1570.54,1171.2 1590.61,1189.43 1610.69,1206.64 1630.76,1225.98 1650.83,1245.97 1670.9,1266.64 1690.97,1288.04 
  1711.05,1310.23 1731.12,1333.26 1751.19,1357.21 1771.26,1380.02 1791.34,1386.4 1811.41,1367.47 1831.48,1353.15 1851.55,1331.31 1871.62,1310.23 1891.7,1291.68 
  1911.77,1263.14 1931.84,1230.92 1951.91,1184.82 1971.99,1165.25 1992.06,1147.72 2012.13,1118.23 2032.2,1081.01 2052.27,1048.39 2072.35,992.444 2092.42,965.233 
  2112.49,919.141 2132.56,852.888 2152.64,816.031 2172.71,750.676 2192.78,686.311 2212.85,616.675 2232.92,531.482 2253,435.628 2273.07,314.356 2293.14,160.256 
  
  "/>
<path clip-path="url(#clip470)" d="
M1897.65 287.756 L2282.54 287.756 L2282.54 166.796 L1897.65 166.796  Z
  " fill="#282c34" fill-rule="evenodd" fill-opacity="1"/>
<polyline clip-path="url(#clip470)" style="stroke:#9eb1be; stroke-width:4; stroke-opacity:1; fill:none" points="
  1897.65,287.756 2282.54,287.756 2282.54,166.796 1897.65,166.796 1897.65,287.756 
  "/>
<polyline clip-path="url(#clip470)" style="stroke:#fe4365; stroke-width:4; stroke-opacity:1; fill:none" points="
  1921.05,227.276 2061.47,227.276 
  "/>
<path clip-path="url(#clip470)" d="M 0 0 M2084.88 209.996 L2091.18 209.996 L2106.5 238.908 L2106.5 209.996 L2111.04 209.996 L2111.04 244.556 L2104.74 244.556 L2089.42 215.644 L2089.42 244.556 L2084.88 244.556 L2084.88 209.996 Z" fill="#adb2b7" fill-rule="evenodd" fill-opacity="1" /><path clip-path="url(#clip470)" d="M 0 0 M2116.06 223.028 L2145.74 223.028 L2145.74 226.917 L2116.06 226.917 L2116.06 223.028 M2116.06 232.472 L2145.74 232.472 L2145.74 236.408 L2116.06 236.408 L2116.06 232.472 Z" fill="#adb2b7" fill-rule="evenodd" fill-opacity="1" /><path clip-path="url(#clip470)" d="M 0 0 M2150.85 209.996 L2169.21 209.996 L2169.21 213.931 L2155.13 213.931 L2155.13 222.403 Q2156.15 222.056 2157.17 221.894 Q2158.19 221.709 2159.21 221.709 Q2164.99 221.709 2168.37 224.88 Q2171.75 228.051 2171.75 233.468 Q2171.75 239.046 2168.28 242.148 Q2164.81 245.227 2158.49 245.227 Q2156.31 245.227 2154.05 244.857 Q2151.8 244.486 2149.39 243.746 L2149.39 239.046 Q2151.48 240.181 2153.7 240.736 Q2155.92 241.292 2158.4 241.292 Q2162.4 241.292 2164.74 239.185 Q2167.08 237.079 2167.08 233.468 Q2167.08 229.857 2164.74 227.75 Q2162.4 225.644 2158.4 225.644 Q2156.52 225.644 2154.65 226.06 Q2152.8 226.477 2150.85 227.357 L2150.85 209.996 Z" fill="#adb2b7" fill-rule="evenodd" fill-opacity="1" /><path clip-path="url(#clip470)" d="M 0 0 M2186.82 213.074 Q2183.21 213.074 2181.38 216.639 Q2179.58 220.181 2179.58 227.31 Q2179.58 234.417 2181.38 237.982 Q2183.21 241.523 2186.82 241.523 Q2190.46 241.523 2192.26 237.982 Q2194.09 234.417 2194.09 227.31 Q2194.09 220.181 2192.26 216.639 Q2190.46 213.074 2186.82 213.074 M2186.82 209.371 Q2192.63 209.371 2195.69 213.977 Q2198.77 218.56 2198.77 227.31 Q2198.77 236.037 2195.69 240.644 Q2192.63 245.227 2186.82 245.227 Q2181.01 245.227 2177.93 240.644 Q2174.88 236.037 2174.88 227.31 Q2174.88 218.56 2177.93 213.977 Q2181.01 209.371 2186.82 209.371 Z" fill="#adb2b7" fill-rule="evenodd" fill-opacity="1" /><path clip-path="url(#clip470)" d="M 0 0 M2203.84 238.676 L2208.72 238.676 L2208.72 244.556 L2203.84 244.556 L2203.84 238.676 Z" fill="#adb2b7" fill-rule="evenodd" fill-opacity="1" /><path clip-path="url(#clip470)" d="M 0 0 M2223.79 213.074 Q2220.18 213.074 2218.35 216.639 Q2216.55 220.181 2216.55 227.31 Q2216.55 234.417 2218.35 237.982 Q2220.18 241.523 2223.79 241.523 Q2227.42 241.523 2229.23 237.982 Q2231.06 234.417 2231.06 227.31 Q2231.06 220.181 2229.23 216.639 Q2227.42 213.074 2223.79 213.074 M2223.79 209.371 Q2229.6 209.371 2232.66 213.977 Q2235.73 218.56 2235.73 227.31 Q2235.73 236.037 2232.66 240.644 Q2229.6 245.227 2223.79 245.227 Q2217.98 245.227 2214.9 240.644 Q2211.85 236.037 2211.85 227.31 Q2211.85 218.56 2214.9 213.977 Q2217.98 209.371 2223.79 209.371 Z" fill="#adb2b7" fill-rule="evenodd" fill-opacity="1" /></svg>
