<?xml version="1.0" encoding="utf-8"?>
<svg xmlns="http://www.w3.org/2000/svg" xmlns:xlink="http://www.w3.org/1999/xlink" width="600" height="400" viewBox="0 0 2400 1600">
<defs>
  <clipPath id="clip400">
    <rect x="0" y="0" width="2400" height="1600"/>
  </clipPath>
</defs>
<path clip-path="url(#clip400)" d="
M0 1600 L2400 1600 L2400 0 L0 0  Z
  " fill="#282c34" fill-rule="evenodd" fill-opacity="1"/>
<defs>
  <clipPath id="clip401">
    <rect x="480" y="0" width="1681" height="1600"/>
  </clipPath>
</defs>
<path clip-path="url(#clip400)" d="
M238.13 1423.18 L2352.76 1423.18 L2352.76 47.2441 L238.13 47.2441  Z
  " fill="#21252b" fill-rule="evenodd" fill-opacity="1"/>
<defs>
  <clipPath id="clip402">
    <rect x="238" y="47" width="2116" height="1377"/>
  </clipPath>
</defs>
<polyline clip-path="url(#clip402)" style="stroke:#adb2b7; stroke-width:2; stroke-opacity:0.1; fill:none" points="
  297.978,1423.18 297.978,47.2441 
  "/>
<polyline clip-path="url(#clip402)" style="stroke:#adb2b7; stroke-width:2; stroke-opacity:0.1; fill:none" points="
  796.71,1423.18 796.71,47.2441 
  "/>
<polyline clip-path="url(#clip402)" style="stroke:#adb2b7; stroke-width:2; stroke-opacity:0.1; fill:none" points="
  1295.44,1423.18 1295.44,47.2441 
  "/>
<polyline clip-path="url(#clip402)" style="stroke:#adb2b7; stroke-width:2; stroke-opacity:0.1; fill:none" points="
  1794.18,1423.18 1794.18,47.2441 
  "/>
<polyline clip-path="url(#clip402)" style="stroke:#adb2b7; stroke-width:2; stroke-opacity:0.1; fill:none" points="
  2292.91,1423.18 2292.91,47.2441 
  "/>
<polyline clip-path="url(#clip400)" style="stroke:#adb2b7; stroke-width:4; stroke-opacity:1; fill:none" points="
  238.13,1423.18 2352.76,1423.18 
  "/>
<polyline clip-path="url(#clip400)" style="stroke:#adb2b7; stroke-width:4; stroke-opacity:1; fill:none" points="
  297.978,1423.18 297.978,1406.67 
  "/>
<polyline clip-path="url(#clip400)" style="stroke:#adb2b7; stroke-width:4; stroke-opacity:1; fill:none" points="
  796.71,1423.18 796.71,1406.67 
  "/>
<polyline clip-path="url(#clip400)" style="stroke:#adb2b7; stroke-width:4; stroke-opacity:1; fill:none" points="
  1295.44,1423.18 1295.44,1406.67 
  "/>
<polyline clip-path="url(#clip400)" style="stroke:#adb2b7; stroke-width:4; stroke-opacity:1; fill:none" points="
  1794.18,1423.18 1794.18,1406.67 
  "/>
<polyline clip-path="url(#clip400)" style="stroke:#adb2b7; stroke-width:4; stroke-opacity:1; fill:none" points="
  2292.91,1423.18 2292.91,1406.67 
  "/>
<path clip-path="url(#clip400)" d="M 0 0 M265.987 1452.37 Q262.376 1452.37 260.548 1455.94 Q258.742 1459.48 258.742 1466.61 Q258.742 1473.71 260.548 1477.28 Q262.376 1480.82 265.987 1480.82 Q269.622 1480.82 271.427 1477.28 Q273.256 1473.71 273.256 1466.61 Q273.256 1459.48 271.427 1455.94 Q269.622 1452.37 265.987 1452.37 M265.987 1448.67 Q271.798 1448.67 274.853 1453.27 Q277.932 1457.86 277.932 1466.61 Q277.932 1475.33 274.853 1479.94 Q271.798 1484.52 265.987 1484.52 Q260.177 1484.52 257.099 1479.94 Q254.043 1475.33 254.043 1466.61 Q254.043 1457.86 257.099 1453.27 Q260.177 1448.67 265.987 1448.67 Z" fill="#9eb1be" fill-rule="evenodd" fill-opacity="1" /><path clip-path="url(#clip400)" d="M 0 0 M283.001 1477.97 L287.885 1477.97 L287.885 1483.85 L283.001 1483.85 L283.001 1477.97 Z" fill="#9eb1be" fill-rule="evenodd" fill-opacity="1" /><path clip-path="url(#clip400)" d="M 0 0 M302.955 1452.37 Q299.344 1452.37 297.515 1455.94 Q295.709 1459.48 295.709 1466.61 Q295.709 1473.71 297.515 1477.28 Q299.344 1480.82 302.955 1480.82 Q306.589 1480.82 308.395 1477.28 Q310.223 1473.71 310.223 1466.61 Q310.223 1459.48 308.395 1455.94 Q306.589 1452.37 302.955 1452.37 M302.955 1448.67 Q308.765 1448.67 311.82 1453.27 Q314.899 1457.86 314.899 1466.61 Q314.899 1475.33 311.82 1479.94 Q308.765 1484.52 302.955 1484.52 Q297.145 1484.52 294.066 1479.94 Q291.01 1475.33 291.01 1466.61 Q291.01 1457.86 294.066 1453.27 Q297.145 1448.67 302.955 1448.67 Z" fill="#9eb1be" fill-rule="evenodd" fill-opacity="1" /><path clip-path="url(#clip400)" d="M 0 0 M329.969 1452.37 Q326.357 1452.37 324.529 1455.94 Q322.723 1459.48 322.723 1466.61 Q322.723 1473.71 324.529 1477.28 Q326.357 1480.82 329.969 1480.82 Q333.603 1480.82 335.408 1477.28 Q337.237 1473.71 337.237 1466.61 Q337.237 1459.48 335.408 1455.94 Q333.603 1452.37 329.969 1452.37 M329.969 1448.67 Q335.779 1448.67 338.834 1453.27 Q341.913 1457.86 341.913 1466.61 Q341.913 1475.33 338.834 1479.94 Q335.779 1484.52 329.969 1484.52 Q324.158 1484.52 321.08 1479.94 Q318.024 1475.33 318.024 1466.61 Q318.024 1457.86 321.08 1453.27 Q324.158 1448.67 329.969 1448.67 Z" fill="#9eb1be" fill-rule="evenodd" fill-opacity="1" /><path clip-path="url(#clip400)" d="M 0 0 M766.016 1452.37 Q762.405 1452.37 760.576 1455.94 Q758.771 1459.48 758.771 1466.61 Q758.771 1473.71 760.576 1477.28 Q762.405 1480.82 766.016 1480.82 Q769.65 1480.82 771.456 1477.28 Q773.285 1473.71 773.285 1466.61 Q773.285 1459.48 771.456 1455.94 Q769.65 1452.37 766.016 1452.37 M766.016 1448.67 Q771.826 1448.67 774.882 1453.27 Q777.961 1457.86 777.961 1466.61 Q777.961 1475.33 774.882 1479.94 Q771.826 1484.52 766.016 1484.52 Q760.206 1484.52 757.127 1479.94 Q754.072 1475.33 754.072 1466.61 Q754.072 1457.86 757.127 1453.27 Q760.206 1448.67 766.016 1448.67 Z" fill="#9eb1be" fill-rule="evenodd" fill-opacity="1" /><path clip-path="url(#clip400)" d="M 0 0 M783.03 1477.97 L787.914 1477.97 L787.914 1483.85 L783.03 1483.85 L783.03 1477.97 Z" fill="#9eb1be" fill-rule="evenodd" fill-opacity="1" /><path clip-path="url(#clip400)" d="M 0 0 M797.011 1479.92 L813.331 1479.92 L813.331 1483.85 L791.386 1483.85 L791.386 1479.92 Q794.048 1477.16 798.632 1472.53 Q803.238 1467.88 804.419 1466.54 Q806.664 1464.01 807.544 1462.28 Q808.447 1460.52 808.447 1458.83 Q808.447 1456.07 806.502 1454.34 Q804.581 1452.6 801.479 1452.6 Q799.28 1452.6 796.826 1453.37 Q794.396 1454.13 791.618 1455.68 L791.618 1450.96 Q794.442 1449.82 796.896 1449.25 Q799.349 1448.67 801.386 1448.67 Q806.757 1448.67 809.951 1451.35 Q813.146 1454.04 813.146 1458.53 Q813.146 1460.66 812.335 1462.58 Q811.548 1464.48 809.442 1467.07 Q808.863 1467.74 805.761 1470.96 Q802.66 1474.15 797.011 1479.92 Z" fill="#9eb1be" fill-rule="evenodd" fill-opacity="1" /><path clip-path="url(#clip400)" d="M 0 0 M818.446 1449.29 L836.803 1449.29 L836.803 1453.23 L822.729 1453.23 L822.729 1461.7 Q823.747 1461.35 824.766 1461.19 Q825.784 1461 826.803 1461 Q832.59 1461 835.97 1464.18 Q839.349 1467.35 839.349 1472.76 Q839.349 1478.34 835.877 1481.44 Q832.405 1484.52 826.085 1484.52 Q823.909 1484.52 821.641 1484.15 Q819.396 1483.78 816.988 1483.04 L816.988 1478.34 Q819.071 1479.48 821.294 1480.03 Q823.516 1480.59 825.993 1480.59 Q829.997 1480.59 832.335 1478.48 Q834.673 1476.38 834.673 1472.76 Q834.673 1469.15 832.335 1467.05 Q829.997 1464.94 825.993 1464.94 Q824.118 1464.94 822.243 1465.36 Q820.391 1465.77 818.446 1466.65 L818.446 1449.29 Z" fill="#9eb1be" fill-rule="evenodd" fill-opacity="1" /><path clip-path="url(#clip400)" d="M 0 0 M1263.95 1452.37 Q1260.34 1452.37 1258.51 1455.94 Q1256.7 1459.48 1256.7 1466.61 Q1256.7 1473.71 1258.51 1477.28 Q1260.34 1480.82 1263.95 1480.82 Q1267.58 1480.82 1269.39 1477.28 Q1271.22 1473.71 1271.22 1466.61 Q1271.22 1459.48 1269.39 1455.94 Q1267.58 1452.37 1263.95 1452.37 M1263.95 1448.67 Q1269.76 1448.67 1272.82 1453.27 Q1275.89 1457.86 1275.89 1466.61 Q1275.89 1475.33 1272.82 1479.94 Q1269.76 1484.52 1263.95 1484.52 Q1258.14 1484.52 1255.06 1479.94 Q1252.01 1475.33 1252.01 1466.61 Q1252.01 1457.86 1255.06 1453.27 Q1258.14 1448.67 1263.95 1448.67 Z" fill="#9eb1be" fill-rule="evenodd" fill-opacity="1" /><path clip-path="url(#clip400)" d="M 0 0 M1280.96 1477.97 L1285.85 1477.97 L1285.85 1483.85 L1280.96 1483.85 L1280.96 1477.97 Z" fill="#9eb1be" fill-rule="evenodd" fill-opacity="1" /><path clip-path="url(#clip400)" d="M 0 0 M1290.96 1449.29 L1309.32 1449.29 L1309.32 1453.23 L1295.25 1453.23 L1295.25 1461.7 Q1296.26 1461.35 1297.28 1461.19 Q1298.3 1461 1299.32 1461 Q1305.11 1461 1308.49 1464.18 Q1311.87 1467.35 1311.87 1472.76 Q1311.87 1478.34 1308.39 1481.44 Q1304.92 1484.52 1298.6 1484.52 Q1296.43 1484.52 1294.16 1484.15 Q1291.91 1483.78 1289.51 1483.04 L1289.51 1478.34 Q1291.59 1479.48 1293.81 1480.03 Q1296.03 1480.59 1298.51 1480.59 Q1302.51 1480.59 1304.85 1478.48 Q1307.19 1476.38 1307.19 1472.76 Q1307.19 1469.15 1304.85 1467.05 Q1302.51 1464.94 1298.51 1464.94 Q1296.64 1464.94 1294.76 1465.36 Q1292.91 1465.77 1290.96 1466.65 L1290.96 1449.29 Z" fill="#9eb1be" fill-rule="evenodd" fill-opacity="1" /><path clip-path="url(#clip400)" d="M 0 0 M1326.94 1452.37 Q1323.32 1452.37 1321.5 1455.94 Q1319.69 1459.48 1319.69 1466.61 Q1319.69 1473.71 1321.5 1477.28 Q1323.32 1480.82 1326.94 1480.82 Q1330.57 1480.82 1332.38 1477.28 Q1334.2 1473.71 1334.2 1466.61 Q1334.2 1459.48 1332.38 1455.94 Q1330.57 1452.37 1326.94 1452.37 M1326.94 1448.67 Q1332.75 1448.67 1335.8 1453.27 Q1338.88 1457.86 1338.88 1466.61 Q1338.88 1475.33 1335.8 1479.94 Q1332.75 1484.52 1326.94 1484.52 Q1321.13 1484.52 1318.05 1479.94 Q1314.99 1475.33 1314.99 1466.61 Q1314.99 1457.86 1318.05 1453.27 Q1321.13 1448.67 1326.94 1448.67 Z" fill="#9eb1be" fill-rule="evenodd" fill-opacity="1" /><path clip-path="url(#clip400)" d="M 0 0 M1763.13 1452.37 Q1759.52 1452.37 1757.69 1455.94 Q1755.89 1459.48 1755.89 1466.61 Q1755.89 1473.71 1757.69 1477.28 Q1759.52 1480.82 1763.13 1480.82 Q1766.77 1480.82 1768.57 1477.28 Q1770.4 1473.71 1770.4 1466.61 Q1770.4 1459.48 1768.57 1455.94 Q1766.77 1452.37 1763.13 1452.37 M1763.13 1448.67 Q1768.94 1448.67 1772 1453.27 Q1775.08 1457.86 1775.08 1466.61 Q1775.08 1475.33 1772 1479.94 Q1768.94 1484.52 1763.13 1484.52 Q1757.32 1484.52 1754.25 1479.94 Q1751.19 1475.33 1751.19 1466.61 Q1751.19 1457.86 1754.25 1453.27 Q1757.32 1448.67 1763.13 1448.67 Z" fill="#9eb1be" fill-rule="evenodd" fill-opacity="1" /><path clip-path="url(#clip400)" d="M 0 0 M1780.15 1477.97 L1785.03 1477.97 L1785.03 1483.85 L1780.15 1483.85 L1780.15 1477.97 Z" fill="#9eb1be" fill-rule="evenodd" fill-opacity="1" /><path clip-path="url(#clip400)" d="M 0 0 M1788.92 1449.29 L1811.14 1449.29 L1811.14 1451.28 L1798.6 1483.85 L1793.71 1483.85 L1805.52 1453.23 L1788.92 1453.23 L1788.92 1449.29 Z" fill="#9eb1be" fill-rule="evenodd" fill-opacity="1" /><path clip-path="url(#clip400)" d="M 0 0 M1816.26 1449.29 L1834.62 1449.29 L1834.62 1453.23 L1820.54 1453.23 L1820.54 1461.7 Q1821.56 1461.35 1822.58 1461.19 Q1823.6 1461 1824.62 1461 Q1830.4 1461 1833.78 1464.18 Q1837.16 1467.35 1837.16 1472.76 Q1837.16 1478.34 1833.69 1481.44 Q1830.22 1484.52 1823.9 1484.52 Q1821.72 1484.52 1819.45 1484.15 Q1817.21 1483.78 1814.8 1483.04 L1814.8 1478.34 Q1816.88 1479.48 1819.11 1480.03 Q1821.33 1480.59 1823.8 1480.59 Q1827.81 1480.59 1830.15 1478.48 Q1832.49 1476.38 1832.49 1472.76 Q1832.49 1469.15 1830.15 1467.05 Q1827.81 1464.94 1823.8 1464.94 Q1821.93 1464.94 1820.05 1465.36 Q1818.2 1465.77 1816.26 1466.65 L1816.26 1449.29 Z" fill="#9eb1be" fill-rule="evenodd" fill-opacity="1" /><path clip-path="url(#clip400)" d="M 0 0 M2251.3 1479.92 L2258.94 1479.92 L2258.94 1453.55 L2250.63 1455.22 L2250.63 1450.96 L2258.89 1449.29 L2263.57 1449.29 L2263.57 1479.92 L2271.21 1479.92 L2271.21 1483.85 L2251.3 1483.85 L2251.3 1479.92 Z" fill="#9eb1be" fill-rule="evenodd" fill-opacity="1" /><path clip-path="url(#clip400)" d="M 0 0 M2276.28 1477.97 L2281.16 1477.97 L2281.16 1483.85 L2276.28 1483.85 L2276.28 1477.97 Z" fill="#9eb1be" fill-rule="evenodd" fill-opacity="1" /><path clip-path="url(#clip400)" d="M 0 0 M2296.23 1452.37 Q2292.62 1452.37 2290.79 1455.94 Q2288.98 1459.48 2288.98 1466.61 Q2288.98 1473.71 2290.79 1477.28 Q2292.62 1480.82 2296.23 1480.82 Q2299.86 1480.82 2301.67 1477.28 Q2303.5 1473.71 2303.5 1466.61 Q2303.5 1459.48 2301.67 1455.94 Q2299.86 1452.37 2296.23 1452.37 M2296.23 1448.67 Q2302.04 1448.67 2305.1 1453.27 Q2308.17 1457.86 2308.17 1466.61 Q2308.17 1475.33 2305.1 1479.94 Q2302.04 1484.52 2296.23 1484.52 Q2290.42 1484.52 2287.34 1479.94 Q2284.29 1475.33 2284.29 1466.61 Q2284.29 1457.86 2287.34 1453.27 Q2290.42 1448.67 2296.23 1448.67 Z" fill="#9eb1be" fill-rule="evenodd" fill-opacity="1" /><path clip-path="url(#clip400)" d="M 0 0 M2323.24 1452.37 Q2319.63 1452.37 2317.8 1455.94 Q2316 1459.48 2316 1466.61 Q2316 1473.71 2317.8 1477.28 Q2319.63 1480.82 2323.24 1480.82 Q2326.88 1480.82 2328.68 1477.28 Q2330.51 1473.71 2330.51 1466.61 Q2330.51 1459.48 2328.68 1455.94 Q2326.88 1452.37 2323.24 1452.37 M2323.24 1448.67 Q2329.05 1448.67 2332.11 1453.27 Q2335.19 1457.86 2335.19 1466.61 Q2335.19 1475.33 2332.11 1479.94 Q2329.05 1484.52 2323.24 1484.52 Q2317.43 1484.52 2314.35 1479.94 Q2311.3 1475.33 2311.3 1466.61 Q2311.3 1457.86 2314.35 1453.27 Q2317.43 1448.67 2323.24 1448.67 Z" fill="#9eb1be" fill-rule="evenodd" fill-opacity="1" /><path clip-path="url(#clip400)" d="M 0 0 M1297.13 1571.35 Q1294.65 1577.72 1292.29 1579.66 Q1289.94 1581.6 1285.99 1581.6 L1281.31 1581.6 L1281.31 1576.7 L1284.75 1576.7 Q1287.17 1576.7 1288.5 1575.56 Q1289.84 1574.41 1291.46 1570.14 L1292.51 1567.47 L1278.1 1532.4 L1284.3 1532.4 L1295.44 1560.28 L1306.58 1532.4 L1312.79 1532.4 L1297.13 1571.35 Z" fill="#9eb1be" fill-rule="evenodd" fill-opacity="1" /><polyline clip-path="url(#clip402)" style="stroke:#adb2b7; stroke-width:2; stroke-opacity:0.1; fill:none" points="
  238.13,1384.24 2352.76,1384.24 
  "/>
<polyline clip-path="url(#clip402)" style="stroke:#adb2b7; stroke-width:2; stroke-opacity:0.1; fill:none" points="
  238.13,1059.73 2352.76,1059.73 
  "/>
<polyline clip-path="url(#clip402)" style="stroke:#adb2b7; stroke-width:2; stroke-opacity:0.1; fill:none" points="
  238.13,735.212 2352.76,735.212 
  "/>
<polyline clip-path="url(#clip402)" style="stroke:#adb2b7; stroke-width:2; stroke-opacity:0.1; fill:none" points="
  238.13,410.699 2352.76,410.699 
  "/>
<polyline clip-path="url(#clip402)" style="stroke:#adb2b7; stroke-width:2; stroke-opacity:0.1; fill:none" points="
  238.13,86.1857 2352.76,86.1857 
  "/>
<polyline clip-path="url(#clip400)" style="stroke:#adb2b7; stroke-width:4; stroke-opacity:1; fill:none" points="
  238.13,1423.18 238.13,47.2441 
  "/>
<polyline clip-path="url(#clip400)" style="stroke:#adb2b7; stroke-width:4; stroke-opacity:1; fill:none" points="
  238.13,1384.24 263.506,1384.24 
  "/>
<polyline clip-path="url(#clip400)" style="stroke:#adb2b7; stroke-width:4; stroke-opacity:1; fill:none" points="
  238.13,1059.73 263.506,1059.73 
  "/>
<polyline clip-path="url(#clip400)" style="stroke:#adb2b7; stroke-width:4; stroke-opacity:1; fill:none" points="
  238.13,735.212 263.506,735.212 
  "/>
<polyline clip-path="url(#clip400)" style="stroke:#adb2b7; stroke-width:4; stroke-opacity:1; fill:none" points="
  238.13,410.699 263.506,410.699 
  "/>
<polyline clip-path="url(#clip400)" style="stroke:#adb2b7; stroke-width:4; stroke-opacity:1; fill:none" points="
  238.13,86.1857 263.506,86.1857 
  "/>
<path clip-path="url(#clip400)" d="M 0 0 M126.205 1370.04 Q122.593 1370.04 120.765 1373.6 Q118.959 1377.14 118.959 1384.27 Q118.959 1391.38 120.765 1394.94 Q122.593 1398.49 126.205 1398.49 Q129.839 1398.49 131.644 1394.94 Q133.473 1391.38 133.473 1384.27 Q133.473 1377.14 131.644 1373.6 Q129.839 1370.04 126.205 1370.04 M126.205 1366.33 Q132.015 1366.33 135.07 1370.94 Q138.149 1375.52 138.149 1384.27 Q138.149 1393 135.07 1397.61 Q132.015 1402.19 126.205 1402.19 Q120.394 1402.19 117.316 1397.61 Q114.26 1393 114.26 1384.27 Q114.26 1375.52 117.316 1370.94 Q120.394 1366.33 126.205 1366.33 Z" fill="#9eb1be" fill-rule="evenodd" fill-opacity="1" /><path clip-path="url(#clip400)" d="M 0 0 M143.218 1395.64 L148.103 1395.64 L148.103 1401.52 L143.218 1401.52 L143.218 1395.64 Z" fill="#9eb1be" fill-rule="evenodd" fill-opacity="1" /><path clip-path="url(#clip400)" d="M 0 0 M163.172 1370.04 Q159.561 1370.04 157.732 1373.6 Q155.927 1377.14 155.927 1384.27 Q155.927 1391.38 157.732 1394.94 Q159.561 1398.49 163.172 1398.49 Q166.806 1398.49 168.612 1394.94 Q170.44 1391.38 170.44 1384.27 Q170.44 1377.14 168.612 1373.6 Q166.806 1370.04 163.172 1370.04 M163.172 1366.33 Q168.982 1366.33 172.038 1370.94 Q175.116 1375.52 175.116 1384.27 Q175.116 1393 172.038 1397.61 Q168.982 1402.19 163.172 1402.19 Q157.362 1402.19 154.283 1397.61 Q151.228 1393 151.228 1384.27 Q151.228 1375.52 154.283 1370.94 Q157.362 1366.33 163.172 1366.33 Z" fill="#9eb1be" fill-rule="evenodd" fill-opacity="1" /><path clip-path="url(#clip400)" d="M 0 0 M190.186 1370.04 Q186.575 1370.04 184.746 1373.6 Q182.94 1377.14 182.94 1384.27 Q182.94 1391.38 184.746 1394.94 Q186.575 1398.49 190.186 1398.49 Q193.82 1398.49 195.625 1394.94 Q197.454 1391.38 197.454 1384.27 Q197.454 1377.14 195.625 1373.6 Q193.82 1370.04 190.186 1370.04 M190.186 1366.33 Q195.996 1366.33 199.051 1370.94 Q202.13 1375.52 202.13 1384.27 Q202.13 1393 199.051 1397.61 Q195.996 1402.19 190.186 1402.19 Q184.376 1402.19 181.297 1397.61 Q178.241 1393 178.241 1384.27 Q178.241 1375.52 181.297 1370.94 Q184.376 1366.33 190.186 1366.33 Z" fill="#9eb1be" fill-rule="evenodd" fill-opacity="1" /><path clip-path="url(#clip400)" d="M 0 0 M128.797 1045.52 Q125.186 1045.52 123.357 1049.09 Q121.552 1052.63 121.552 1059.76 Q121.552 1066.87 123.357 1070.43 Q125.186 1073.97 128.797 1073.97 Q132.431 1073.97 134.237 1070.43 Q136.066 1066.87 136.066 1059.76 Q136.066 1052.63 134.237 1049.09 Q132.431 1045.52 128.797 1045.52 M128.797 1041.82 Q134.607 1041.82 137.663 1046.43 Q140.741 1051.01 140.741 1059.76 Q140.741 1068.49 137.663 1073.09 Q134.607 1077.68 128.797 1077.68 Q122.987 1077.68 119.908 1073.09 Q116.853 1068.49 116.853 1059.76 Q116.853 1051.01 119.908 1046.43 Q122.987 1041.82 128.797 1041.82 Z" fill="#9eb1be" fill-rule="evenodd" fill-opacity="1" /><path clip-path="url(#clip400)" d="M 0 0 M145.811 1071.13 L150.695 1071.13 L150.695 1077.01 L145.811 1077.01 L145.811 1071.13 Z" fill="#9eb1be" fill-rule="evenodd" fill-opacity="1" /><path clip-path="url(#clip400)" d="M 0 0 M159.792 1073.07 L176.112 1073.07 L176.112 1077.01 L154.167 1077.01 L154.167 1073.07 Q156.829 1070.32 161.413 1065.69 Q166.019 1061.03 167.2 1059.69 Q169.445 1057.17 170.325 1055.43 Q171.227 1053.67 171.227 1051.98 Q171.227 1049.23 169.283 1047.49 Q167.362 1045.76 164.26 1045.76 Q162.061 1045.76 159.607 1046.52 Q157.177 1047.28 154.399 1048.83 L154.399 1044.11 Q157.223 1042.98 159.677 1042.4 Q162.13 1041.82 164.167 1041.82 Q169.538 1041.82 172.732 1044.51 Q175.926 1047.19 175.926 1051.68 Q175.926 1053.81 175.116 1055.73 Q174.329 1057.63 172.223 1060.22 Q171.644 1060.89 168.542 1064.11 Q165.44 1067.31 159.792 1073.07 Z" fill="#9eb1be" fill-rule="evenodd" fill-opacity="1" /><path clip-path="url(#clip400)" d="M 0 0 M181.227 1042.45 L199.584 1042.45 L199.584 1046.38 L185.51 1046.38 L185.51 1054.85 Q186.528 1054.51 187.547 1054.34 Q188.565 1054.16 189.584 1054.16 Q195.371 1054.16 198.75 1057.33 Q202.13 1060.5 202.13 1065.92 Q202.13 1071.5 198.658 1074.6 Q195.186 1077.68 188.866 1077.68 Q186.69 1077.68 184.422 1077.31 Q182.176 1076.94 179.769 1076.19 L179.769 1071.5 Q181.852 1072.63 184.075 1073.19 Q186.297 1073.74 188.774 1073.74 Q192.778 1073.74 195.116 1071.63 Q197.454 1069.53 197.454 1065.92 Q197.454 1062.31 195.116 1060.2 Q192.778 1058.09 188.774 1058.09 Q186.899 1058.09 185.024 1058.51 Q183.172 1058.93 181.227 1059.81 L181.227 1042.45 Z" fill="#9eb1be" fill-rule="evenodd" fill-opacity="1" /><path clip-path="url(#clip400)" d="M 0 0 M127.2 721.011 Q123.589 721.011 121.76 724.575 Q119.955 728.117 119.955 735.247 Q119.955 742.353 121.76 745.918 Q123.589 749.46 127.2 749.46 Q130.834 749.46 132.64 745.918 Q134.468 742.353 134.468 735.247 Q134.468 728.117 132.64 724.575 Q130.834 721.011 127.2 721.011 M127.2 717.307 Q133.01 717.307 136.066 721.913 Q139.144 726.497 139.144 735.247 Q139.144 743.973 136.066 748.58 Q133.01 753.163 127.2 753.163 Q121.39 753.163 118.311 748.58 Q115.256 743.973 115.256 735.247 Q115.256 726.497 118.311 721.913 Q121.39 717.307 127.2 717.307 Z" fill="#9eb1be" fill-rule="evenodd" fill-opacity="1" /><path clip-path="url(#clip400)" d="M 0 0 M144.214 746.612 L149.098 746.612 L149.098 752.492 L144.214 752.492 L144.214 746.612 Z" fill="#9eb1be" fill-rule="evenodd" fill-opacity="1" /><path clip-path="url(#clip400)" d="M 0 0 M154.214 717.932 L172.57 717.932 L172.57 721.867 L158.496 721.867 L158.496 730.339 Q159.515 729.992 160.533 729.83 Q161.552 729.645 162.57 729.645 Q168.357 729.645 171.737 732.816 Q175.116 735.987 175.116 741.404 Q175.116 746.983 171.644 750.085 Q168.172 753.163 161.852 753.163 Q159.677 753.163 157.408 752.793 Q155.163 752.423 152.755 751.682 L152.755 746.983 Q154.839 748.117 157.061 748.673 Q159.283 749.228 161.76 749.228 Q165.765 749.228 168.102 747.122 Q170.44 745.015 170.44 741.404 Q170.44 737.793 168.102 735.687 Q165.765 733.58 161.76 733.58 Q159.885 733.58 158.01 733.997 Q156.158 734.413 154.214 735.293 L154.214 717.932 Z" fill="#9eb1be" fill-rule="evenodd" fill-opacity="1" /><path clip-path="url(#clip400)" d="M 0 0 M190.186 721.011 Q186.575 721.011 184.746 724.575 Q182.94 728.117 182.94 735.247 Q182.94 742.353 184.746 745.918 Q186.575 749.46 190.186 749.46 Q193.82 749.46 195.625 745.918 Q197.454 742.353 197.454 735.247 Q197.454 728.117 195.625 724.575 Q193.82 721.011 190.186 721.011 M190.186 717.307 Q195.996 717.307 199.051 721.913 Q202.13 726.497 202.13 735.247 Q202.13 743.973 199.051 748.58 Q195.996 753.163 190.186 753.163 Q184.376 753.163 181.297 748.58 Q178.241 743.973 178.241 735.247 Q178.241 726.497 181.297 721.913 Q184.376 717.307 190.186 717.307 Z" fill="#9eb1be" fill-rule="evenodd" fill-opacity="1" /><path clip-path="url(#clip400)" d="M 0 0 M128.103 396.498 Q124.492 396.498 122.663 400.062 Q120.857 403.604 120.857 410.734 Q120.857 417.84 122.663 421.405 Q124.492 424.946 128.103 424.946 Q131.737 424.946 133.542 421.405 Q135.371 417.84 135.371 410.734 Q135.371 403.604 133.542 400.062 Q131.737 396.498 128.103 396.498 M128.103 392.794 Q133.913 392.794 136.968 397.4 Q140.047 401.984 140.047 410.734 Q140.047 419.46 136.968 424.067 Q133.913 428.65 128.103 428.65 Q122.293 428.65 119.214 424.067 Q116.158 419.46 116.158 410.734 Q116.158 401.984 119.214 397.4 Q122.293 392.794 128.103 392.794 Z" fill="#9eb1be" fill-rule="evenodd" fill-opacity="1" /><path clip-path="url(#clip400)" d="M 0 0 M145.116 422.099 L150.001 422.099 L150.001 427.979 L145.116 427.979 L145.116 422.099 Z" fill="#9eb1be" fill-rule="evenodd" fill-opacity="1" /><path clip-path="url(#clip400)" d="M 0 0 M153.89 393.419 L176.112 393.419 L176.112 395.41 L163.565 427.979 L158.681 427.979 L170.487 397.354 L153.89 397.354 L153.89 393.419 Z" fill="#9eb1be" fill-rule="evenodd" fill-opacity="1" /><path clip-path="url(#clip400)" d="M 0 0 M181.227 393.419 L199.584 393.419 L199.584 397.354 L185.51 397.354 L185.51 405.826 Q186.528 405.479 187.547 405.317 Q188.565 405.132 189.584 405.132 Q195.371 405.132 198.75 408.303 Q202.13 411.474 202.13 416.891 Q202.13 422.47 198.658 425.571 Q195.186 428.65 188.866 428.65 Q186.69 428.65 184.422 428.28 Q182.176 427.909 179.769 427.169 L179.769 422.47 Q181.852 423.604 184.075 424.159 Q186.297 424.715 188.774 424.715 Q192.778 424.715 195.116 422.608 Q197.454 420.502 197.454 416.891 Q197.454 413.28 195.116 411.173 Q192.778 409.067 188.774 409.067 Q186.899 409.067 185.024 409.484 Q183.172 409.9 181.227 410.78 L181.227 393.419 Z" fill="#9eb1be" fill-rule="evenodd" fill-opacity="1" /><path clip-path="url(#clip400)" d="M 0 0 M118.242 99.5305 L125.88 99.5305 L125.88 73.1649 L117.57 74.8316 L117.57 70.5723 L125.834 68.9057 L130.51 68.9057 L130.51 99.5305 L138.149 99.5305 L138.149 103.466 L118.242 103.466 L118.242 99.5305 Z" fill="#9eb1be" fill-rule="evenodd" fill-opacity="1" /><path clip-path="url(#clip400)" d="M 0 0 M143.218 97.5861 L148.103 97.5861 L148.103 103.466 L143.218 103.466 L143.218 97.5861 Z" fill="#9eb1be" fill-rule="evenodd" fill-opacity="1" /><path clip-path="url(#clip400)" d="M 0 0 M163.172 71.9844 Q159.561 71.9844 157.732 75.5492 Q155.927 79.0908 155.927 86.2204 Q155.927 93.3268 157.732 96.8916 Q159.561 100.433 163.172 100.433 Q166.806 100.433 168.612 96.8916 Q170.44 93.3268 170.44 86.2204 Q170.44 79.0908 168.612 75.5492 Q166.806 71.9844 163.172 71.9844 M163.172 68.2807 Q168.982 68.2807 172.038 72.8871 Q175.116 77.4704 175.116 86.2204 Q175.116 94.9472 172.038 99.5537 Q168.982 104.137 163.172 104.137 Q157.362 104.137 154.283 99.5537 Q151.228 94.9472 151.228 86.2204 Q151.228 77.4704 154.283 72.8871 Q157.362 68.2807 163.172 68.2807 Z" fill="#9eb1be" fill-rule="evenodd" fill-opacity="1" /><path clip-path="url(#clip400)" d="M 0 0 M190.186 71.9844 Q186.575 71.9844 184.746 75.5492 Q182.94 79.0908 182.94 86.2204 Q182.94 93.3268 184.746 96.8916 Q186.575 100.433 190.186 100.433 Q193.82 100.433 195.625 96.8916 Q197.454 93.3268 197.454 86.2204 Q197.454 79.0908 195.625 75.5492 Q193.82 71.9844 190.186 71.9844 M190.186 68.2807 Q195.996 68.2807 199.051 72.8871 Q202.13 77.4704 202.13 86.2204 Q202.13 94.9472 199.051 99.5537 Q195.996 104.137 190.186 104.137 Q184.376 104.137 181.297 99.5537 Q178.241 94.9472 178.241 86.2204 Q178.241 77.4704 181.297 72.8871 Q184.376 68.2807 190.186 68.2807 Z" fill="#9eb1be" fill-rule="evenodd" fill-opacity="1" /><path clip-path="url(#clip400)" d="M 0 0 M20.1444 900.657 L26.9239 900.657 Q23.9002 903.903 22.4043 907.595 Q20.9083 911.256 20.9083 915.393 Q20.9083 923.541 25.9054 927.87 Q30.8707 932.199 40.2919 932.199 Q49.6813 932.199 54.6784 927.87 Q59.6436 923.541 59.6436 915.393 Q59.6436 911.256 58.1477 907.595 Q56.6518 903.903 53.6281 900.657 L60.3439 900.657 Q62.6355 904.031 63.7814 907.818 Q64.9272 911.574 64.9272 915.775 Q64.9272 926.565 58.3387 932.772 Q51.7183 938.978 40.2919 938.978 Q28.8336 938.978 22.2451 932.772 Q15.6248 926.565 15.6248 915.775 Q15.6248 911.51 16.7706 907.754 Q17.8846 903.967 20.1444 900.657 Z" fill="#9eb1be" fill-rule="evenodd" fill-opacity="1" /><path clip-path="url(#clip400)" d="M 0 0 M32.4621 880.7 Q32.4621 885.411 36.1542 888.148 Q39.8145 890.885 46.212 890.885 Q52.6095 890.885 56.3017 888.18 Q59.9619 885.443 59.9619 880.7 Q59.9619 876.021 56.2698 873.284 Q52.5777 870.547 46.212 870.547 Q39.8781 870.547 36.186 873.284 Q32.4621 876.021 32.4621 880.7 M27.4968 880.7 Q27.4968 873.061 32.4621 868.701 Q37.4273 864.34 46.212 864.34 Q54.9649 864.34 59.9619 868.701 Q64.9272 873.061 64.9272 880.7 Q64.9272 888.371 59.9619 892.731 Q54.9649 897.06 46.212 897.06 Q37.4273 897.06 32.4621 892.731 Q27.4968 888.371 27.4968 880.7 Z" fill="#9eb1be" fill-rule="evenodd" fill-opacity="1" /><path clip-path="url(#clip400)" d="M 0 0 M42.4881 828.565 L64.0042 828.565 L64.0042 834.422 L42.679 834.422 Q37.6183 834.422 35.1038 836.395 Q32.5894 838.368 32.5894 842.315 Q32.5894 847.057 35.6131 849.795 Q38.6368 852.532 43.8567 852.532 L64.0042 852.532 L64.0042 858.42 L28.3562 858.42 L28.3562 852.532 L33.8944 852.532 Q30.6797 850.431 29.0883 847.599 Q27.4968 844.734 27.4968 841.01 Q27.4968 834.867 31.3163 831.716 Q35.1038 828.565 42.4881 828.565 Z" fill="#9eb1be" fill-rule="evenodd" fill-opacity="1" /><path clip-path="url(#clip400)" d="M 0 0 M29.7248 796.768 L35.1993 796.768 Q33.8307 799.251 33.1623 801.765 Q32.4621 804.248 32.4621 806.794 Q32.4621 812.492 36.0905 815.643 Q39.6872 818.794 46.212 818.794 Q52.7369 818.794 56.3653 815.643 Q59.9619 812.492 59.9619 806.794 Q59.9619 804.248 59.2935 801.765 Q58.5933 799.251 57.2247 796.768 L62.6355 796.768 Q63.7814 799.219 64.3543 801.861 Q64.9272 804.471 64.9272 807.431 Q64.9272 815.484 59.8664 820.226 Q54.8057 824.968 46.212 824.968 Q37.491 824.968 32.4939 820.194 Q27.4968 815.388 27.4968 807.049 Q27.4968 804.344 28.0697 801.765 Q28.6108 799.187 29.7248 796.768 Z" fill="#9eb1be" fill-rule="evenodd" fill-opacity="1" /><path clip-path="url(#clip400)" d="M 0 0 M44.7161 760.134 L47.5806 760.134 L47.5806 787.061 Q53.6281 786.679 56.8109 783.432 Q59.9619 780.154 59.9619 774.329 Q59.9619 770.955 59.1344 767.804 Q58.3069 764.622 56.6518 761.502 L62.1899 761.502 Q63.5267 764.653 64.227 767.964 Q64.9272 771.274 64.9272 774.679 Q64.9272 783.209 59.9619 788.206 Q54.9967 793.172 46.5303 793.172 Q37.7774 793.172 32.6531 788.461 Q27.4968 783.719 27.4968 775.698 Q27.4968 768.505 32.1438 764.335 Q36.7589 760.134 44.7161 760.134 M42.9973 765.99 Q38.1912 766.054 35.3266 768.696 Q32.4621 771.306 32.4621 775.634 Q32.4621 780.536 35.2312 783.496 Q38.0002 786.424 43.0292 786.87 L42.9973 765.99 Z" fill="#9eb1be" fill-rule="evenodd" fill-opacity="1" /><path clip-path="url(#clip400)" d="M 0 0 M42.4881 724.358 L64.0042 724.358 L64.0042 730.215 L42.679 730.215 Q37.6183 730.215 35.1038 732.188 Q32.5894 734.162 32.5894 738.108 Q32.5894 742.851 35.6131 745.588 Q38.6368 748.325 43.8567 748.325 L64.0042 748.325 L64.0042 754.214 L28.3562 754.214 L28.3562 748.325 L33.8944 748.325 Q30.6797 746.225 29.0883 743.392 Q27.4968 740.527 27.4968 736.803 Q27.4968 730.66 31.3163 727.509 Q35.1038 724.358 42.4881 724.358 Z" fill="#9eb1be" fill-rule="evenodd" fill-opacity="1" /><path clip-path="url(#clip400)" d="M 0 0 M18.2347 712.423 L28.3562 712.423 L28.3562 700.36 L32.9077 700.36 L32.9077 712.423 L52.2594 712.423 Q56.6199 712.423 57.8613 711.245 Q59.1026 710.036 59.1026 706.375 L59.1026 700.36 L64.0042 700.36 L64.0042 706.375 Q64.0042 713.155 61.4897 715.733 Q58.9434 718.311 52.2594 718.311 L32.9077 718.311 L32.9077 722.608 L28.3562 722.608 L28.3562 718.311 L18.2347 718.311 L18.2347 712.423 Z" fill="#9eb1be" fill-rule="evenodd" fill-opacity="1" /><path clip-path="url(#clip400)" d="M 0 0 M33.8307 673.56 Q33.2578 674.547 33.0032 675.724 Q32.7167 676.87 32.7167 678.271 Q32.7167 683.236 35.9632 685.91 Q39.1779 688.551 45.2253 688.551 L64.0042 688.551 L64.0042 694.44 L28.3562 694.44 L28.3562 688.551 L33.8944 688.551 Q30.6479 686.705 29.0883 683.745 Q27.4968 680.785 27.4968 676.552 Q27.4968 675.947 27.5923 675.215 Q27.656 674.483 27.8151 673.592 L33.8307 673.56 Z" fill="#9eb1be" fill-rule="evenodd" fill-opacity="1" /><path clip-path="url(#clip400)" d="M 0 0 M46.0847 651.216 Q46.0847 658.314 47.7079 661.051 Q49.3312 663.789 53.2461 663.789 Q56.3653 663.789 58.2114 661.752 Q60.0256 659.683 60.0256 656.15 Q60.0256 651.28 56.5881 648.352 Q53.1188 645.392 47.3897 645.392 L46.0847 645.392 L46.0847 651.216 M43.6657 639.535 L64.0042 639.535 L64.0042 645.392 L58.5933 645.392 Q61.8398 647.397 63.3994 650.389 Q64.9272 653.381 64.9272 657.709 Q64.9272 663.184 61.8716 666.431 Q58.7843 669.645 53.6281 669.645 Q47.6125 669.645 44.5569 665.635 Q41.5014 661.593 41.5014 653.604 L41.5014 645.392 L40.9285 645.392 Q36.8862 645.392 34.6901 648.065 Q32.4621 650.707 32.4621 655.513 Q32.4621 658.569 33.1941 661.465 Q33.9262 664.362 35.3903 667.035 L29.9795 667.035 Q28.7381 663.821 28.1334 660.797 Q27.4968 657.773 27.4968 654.909 Q27.4968 647.174 31.5072 643.355 Q35.5176 639.535 43.6657 639.535 Z" fill="#9eb1be" fill-rule="evenodd" fill-opacity="1" /><path clip-path="url(#clip400)" d="M 0 0 M18.2347 627.6 L28.3562 627.6 L28.3562 615.537 L32.9077 615.537 L32.9077 627.6 L52.2594 627.6 Q56.6199 627.6 57.8613 626.422 Q59.1026 625.213 59.1026 621.552 L59.1026 615.537 L64.0042 615.537 L64.0042 621.552 Q64.0042 628.332 61.4897 630.91 Q58.9434 633.488 52.2594 633.488 L32.9077 633.488 L32.9077 637.785 L28.3562 637.785 L28.3562 633.488 L18.2347 633.488 L18.2347 627.6 Z" fill="#9eb1be" fill-rule="evenodd" fill-opacity="1" /><path clip-path="url(#clip400)" d="M 0 0 M28.3562 609.394 L28.3562 603.537 L64.0042 603.537 L64.0042 609.394 L28.3562 609.394 M14.479 609.394 L14.479 603.537 L21.895 603.537 L21.895 609.394 L14.479 609.394 Z" fill="#9eb1be" fill-rule="evenodd" fill-opacity="1" /><path clip-path="url(#clip400)" d="M 0 0 M32.4621 583.581 Q32.4621 588.291 36.1542 591.029 Q39.8145 593.766 46.212 593.766 Q52.6095 593.766 56.3017 591.061 Q59.9619 588.323 59.9619 583.581 Q59.9619 578.902 56.2698 576.165 Q52.5777 573.428 46.212 573.428 Q39.8781 573.428 36.186 576.165 Q32.4621 578.902 32.4621 583.581 M27.4968 583.581 Q27.4968 575.942 32.4621 571.581 Q37.4273 567.221 46.212 567.221 Q54.9649 567.221 59.9619 571.581 Q64.9272 575.942 64.9272 583.581 Q64.9272 591.252 59.9619 595.612 Q54.9649 599.941 46.212 599.941 Q37.4273 599.941 32.4621 595.612 Q27.4968 591.252 27.4968 583.581 Z" fill="#9eb1be" fill-rule="evenodd" fill-opacity="1" /><path clip-path="url(#clip400)" d="M 0 0 M42.4881 531.446 L64.0042 531.446 L64.0042 537.302 L42.679 537.302 Q37.6183 537.302 35.1038 539.276 Q32.5894 541.249 32.5894 545.196 Q32.5894 549.938 35.6131 552.675 Q38.6368 555.413 43.8567 555.413 L64.0042 555.413 L64.0042 561.301 L28.3562 561.301 L28.3562 555.413 L33.8944 555.413 Q30.6797 553.312 29.0883 550.479 Q27.4968 547.615 27.4968 543.891 Q27.4968 537.748 31.3163 534.597 Q35.1038 531.446 42.4881 531.446 Z" fill="#9eb1be" fill-rule="evenodd" fill-opacity="1" /><polyline clip-path="url(#clip402)" style="stroke:#fe4365; stroke-width:4; stroke-opacity:1; fill:none" points="
  297.978,1384.24 318.129,1384.24 338.28,1384.24 358.43,1384.24 378.581,1384.24 398.732,1384.24 418.883,1384.24 439.034,1384.24 459.184,1384.24 479.335,1384.24 
  499.486,1384.24 519.637,1384.24 539.788,1384.24 559.938,1384.24 580.089,1384.24 600.24,1384.24 620.391,1384.24 640.542,1384.24 660.693,1384.24 680.843,1384.24 
  700.994,1384.24 721.145,1384.24 741.296,1384.24 761.447,1384.24 781.597,1384.24 801.748,1384.24 821.899,1384.24 842.05,1384.24 862.201,1384.24 882.351,1384.24 
  902.502,1384.24 922.653,1384.24 942.804,1384.24 962.955,1384.24 983.105,1384.24 1003.26,1384.24 1023.41,1384.24 1043.56,1384.24 1063.71,1384.24 1083.86,1384.24 
  1104.01,1384.24 1124.16,1384.24 1144.31,1384.24 1164.46,1384.24 1184.61,1384.24 1204.76,1384.24 1224.92,1384.24 1245.07,1384.24 1265.22,1384.24 1285.37,1384.24 
  1305.52,1384.24 1325.67,1384.24 1345.82,1384.24 1365.97,1384.24 1386.12,1384.24 1406.27,1384.24 1426.42,1384.24 1446.57,1384.24 1466.72,1384.24 1486.88,1384.24 
  1507.03,1384.24 1527.18,1384.24 1547.33,1384.24 1567.48,1384.24 1587.63,1384.24 1607.78,1384.24 1627.93,1384.24 1648.08,1384.24 1668.23,1384.24 1688.38,1384.24 
  1708.53,1384.24 1728.69,1384.24 1748.84,1384.24 1768.99,1384.24 1789.14,1384.24 1809.29,1384.24 1829.44,1384.24 1849.59,1384.24 1869.74,1384.24 1889.89,1384.24 
  1910.04,1384.24 1930.19,1384.24 1950.34,1384.24 1970.5,1384.24 1990.65,1384.24 2010.8,1384.24 2030.95,1384.24 2051.1,1384.24 2071.25,1384.24 2091.4,1384.24 
  2111.55,1384.24 2131.7,1384.24 2151.85,1384.24 2172,1384.24 2192.15,1384.24 2212.3,1384.24 2232.46,1384.24 2252.61,1384.24 2272.76,1384.24 2292.91,86.1857 
  
  "/>
<polyline clip-path="url(#clip402)" style="stroke:#eca25c; stroke-width:4; stroke-opacity:1; fill:none" points="
  297.978,1384.24 318.129,1384.24 338.28,1384.24 358.43,1384.24 378.581,1384.24 398.732,1384.24 418.883,1384.24 439.034,1384.24 459.184,1384.24 479.335,1384.24 
  499.486,1384.24 519.637,1384.24 539.788,1384.24 559.938,1384.24 580.089,1384.24 600.24,1384.24 620.391,1384.24 640.542,1384.24 660.693,1384.24 680.843,1384.24 
  700.994,1384.24 721.145,1384.24 741.296,1384.24 761.447,1384.24 781.597,1384.24 801.748,1384.24 821.899,1384.24 842.05,1384.24 862.201,1384.24 882.351,1384.24 
  902.502,1384.24 922.653,1384.24 942.804,1384.24 962.955,1384.24 983.105,1384.24 1003.26,1384.24 1023.41,1384.24 1043.56,1384.24 1063.71,1384.24 1083.86,1384.24 
  1104.01,1384.24 1124.16,1384.24 1144.31,1384.24 1164.46,1384.24 1184.61,1384.24 1204.76,1384.24 1224.92,1384.24 1245.07,1384.24 1265.22,1384.24 1285.37,1384.24 
  1305.52,1384.24 1325.67,1384.24 1345.82,1384.24 1365.97,1384.24 1386.12,1384.24 1406.27,1384.24 1426.42,1384.24 1446.57,1384.24 1466.72,1384.24 1486.88,1384.24 
  1507.03,1384.24 1527.18,1384.24 1547.33,1384.24 1567.48,1384.24 1587.63,1384.24 1607.78,1384.24 1627.93,1384.24 1648.08,1384.24 1668.23,1384.24 1688.38,1384.24 
  1708.53,1384.24 1728.69,1384.24 1748.84,1384.24 1768.99,1384.24 1789.14,1384.24 1809.29,1384.24 1829.44,1384.24 1849.59,1384.24 1869.74,1384.24 1889.89,1384.23 
  1910.04,1384.22 1930.19,1384.18 1950.34,1384.07 1970.5,1383.83 1990.65,1383.26 2010.8,1382.05 2030.95,1379.57 2051.1,1374.79 2071.25,1366.07 2091.4,1350.94 
  2111.55,1326.05 2131.7,1287.16 2151.85,1229.41 2172,1147.89 2192.15,1038.42 2212.3,898.54 2232.46,728.415 2252.61,531.427 2272.76,314.236 2292.91,86.1857 
  
  "/>
<polyline clip-path="url(#clip402)" style="stroke:#3f9778; stroke-width:4; stroke-opacity:1; fill:none" points="
  297.978,1384.24 318.129,1384.24 338.28,1384.24 358.43,1384.24 378.581,1384.24 398.732,1384.24 418.883,1384.24 439.034,1384.24 459.184,1384.24 479.335,1384.24 
  499.486,1384.24 519.637,1384.24 539.788,1384.24 559.938,1384.24 580.089,1384.24 600.24,1384.24 620.391,1384.24 640.542,1384.24 660.693,1384.24 680.843,1384.24 
  700.994,1384.24 721.145,1384.24 741.296,1384.24 761.447,1384.24 781.597,1384.24 801.748,1384.24 821.899,1384.24 842.05,1384.24 862.201,1384.24 882.351,1384.24 
  902.502,1384.24 922.653,1384.24 942.804,1384.24 962.955,1384.23 983.105,1384.23 1003.26,1384.23 1023.41,1384.23 1043.56,1384.22 1063.71,1384.22 1083.86,1384.21 
  1104.01,1384.2 1124.16,1384.19 1144.31,1384.17 1164.46,1384.14 1184.61,1384.11 1204.76,1384.07 1224.92,1384.01 1245.07,1383.93 1265.22,1383.84 1285.37,1383.71 
  1305.52,1383.55 1325.67,1383.35 1345.82,1383.09 1365.97,1382.76 1386.12,1382.35 1406.27,1381.83 1426.42,1381.18 1446.57,1380.38 1466.72,1379.39 1486.88,1378.17 
  1507.03,1376.69 1527.18,1374.88 1547.33,1372.7 1567.48,1370.07 1587.63,1366.93 1607.78,1363.18 1627.93,1358.74 1648.08,1353.5 1668.23,1347.36 1688.38,1340.18 
  1708.53,1331.84 1728.69,1322.21 1748.84,1311.13 1768.99,1298.44 1789.14,1284 1809.29,1267.64 1829.44,1249.2 1849.59,1228.51 1869.74,1205.42 1889.89,1179.77 
  1910.04,1151.44 1930.19,1120.29 1950.34,1086.2 1970.5,1049.1 1990.65,1008.92 2010.8,965.613 2030.95,919.174 2051.1,869.622 2071.25,817.013 2091.4,761.436 
  2111.55,703.016 2131.7,641.914 2151.85,578.325 2172,512.475 2192.15,444.626 2212.3,375.063 2232.46,304.098 2252.61,232.063 2272.76,159.306 2292.91,86.1857 
  
  "/>
<polyline clip-path="url(#clip402)" style="stroke:#005d7f; stroke-width:4; stroke-opacity:1; fill:none" points="
  297.978,1384.24 318.129,1380.24 338.28,1376.23 358.43,1372.21 378.581,1368.17 398.732,1364.09 418.883,1359.98 439.034,1355.82 459.184,1351.6 479.335,1347.32 
  499.486,1342.97 519.637,1338.55 539.788,1334.04 559.938,1329.44 580.089,1324.73 600.24,1319.92 620.391,1314.99 640.542,1309.94 660.693,1304.76 680.843,1299.44 
  700.994,1293.98 721.145,1288.37 741.296,1282.59 761.447,1276.65 781.597,1270.54 801.748,1264.24 821.899,1257.76 842.05,1251.08 862.201,1244.21 882.351,1237.12 
  902.502,1229.83 922.653,1222.31 942.804,1214.57 962.955,1206.59 983.105,1198.38 1003.26,1189.93 1023.41,1181.22 1043.56,1172.26 1063.71,1163.05 1083.86,1153.57 
  1104.01,1143.82 1124.16,1133.79 1144.31,1123.49 1164.46,1112.91 1184.61,1102.04 1204.76,1090.89 1224.92,1079.44 1245.07,1067.69 1265.22,1055.65 1285.37,1043.31 
  1305.52,1030.66 1325.67,1017.71 1345.82,1004.46 1365.97,990.895 1386.12,977.024 1406.27,962.843 1426.42,948.354 1446.57,933.555 1466.72,918.448 1486.88,903.032 
  1507.03,887.31 1527.18,871.282 1547.33,854.951 1567.48,838.319 1587.63,821.388 1607.78,804.161 1627.93,786.641 1648.08,768.833 1668.23,750.74 1688.38,732.366 
  1708.53,713.717 1728.69,694.797 1748.84,675.612 1768.99,656.169 1789.14,636.472 1809.29,616.529 1829.44,596.346 1849.59,575.931 1869.74,555.291 1889.89,534.434 
  1910.04,513.369 1930.19,492.103 1950.34,470.646 1970.5,449.006 1990.65,427.193 2010.8,405.216 2030.95,383.086 2051.1,360.812 2071.25,338.404 2091.4,315.872 
  2111.55,293.228 2131.7,270.483 2151.85,247.646 2172,224.729 2192.15,201.744 2212.3,178.702 2232.46,155.613 2252.61,132.49 2272.76,109.343 2292.91,86.1857 
  
  "/>
<polyline clip-path="url(#clip402)" style="stroke:#00a8ff; stroke-width:4; stroke-opacity:1; fill:none" points="
  297.978,1384.24 318.129,1371.13 338.28,1358.02 358.43,1344.91 378.581,1331.8 398.732,1318.69 418.883,1305.58 439.034,1292.46 459.184,1279.35 479.335,1266.24 
  499.486,1253.13 519.637,1240.02 539.788,1226.91 559.938,1213.8 580.089,1200.69 600.24,1187.58 620.391,1174.47 640.542,1161.36 660.693,1148.25 680.843,1135.14 
  700.994,1122.03 721.145,1108.92 741.296,1095.8 761.447,1082.69 781.597,1069.58 801.748,1056.47 821.899,1043.36 842.05,1030.25 862.201,1017.14 882.351,1004.03 
  902.502,990.917 922.653,977.806 942.804,964.695 962.955,951.584 983.105,938.473 1003.26,925.362 1023.41,912.251 1043.56,899.14 1063.71,886.029 1083.86,872.917 
  1104.01,859.806 1124.16,846.695 1144.31,833.583 1164.46,820.472 1184.61,807.36 1204.76,794.249 1224.92,781.137 1245.07,768.026 1265.22,754.914 1285.37,741.803 
  1305.52,728.691 1325.67,715.579 1345.82,702.468 1365.97,689.356 1386.12,676.244 1406.27,663.132 1426.42,650.021 1446.57,636.909 1466.72,623.797 1486.88,610.685 
  1507.03,597.573 1527.18,584.461 1547.33,571.349 1567.48,558.237 1587.63,545.124 1607.78,532.012 1627.93,518.9 1648.08,505.788 1668.23,492.676 1688.38,479.563 
  1708.53,466.451 1728.69,453.339 1748.84,440.226 1768.99,427.114 1789.14,414.002 1809.29,400.889 1829.44,387.777 1849.59,374.664 1869.74,361.552 1889.89,348.439 
  1910.04,335.327 1930.19,322.214 1950.34,309.102 1970.5,295.989 1990.65,282.876 2010.8,269.764 2030.95,256.651 2051.1,243.538 2071.25,230.426 2091.4,217.313 
  2111.55,204.2 2131.7,191.088 2151.85,177.975 2172,164.862 2192.15,151.749 2212.3,138.637 2232.46,125.524 2252.61,112.411 2272.76,99.2984 2292.91,86.1857 
  
  "/>
<circle clip-path="url(#clip402)" cx="297.978" cy="1384.24" r="14" fill="#ffffff" fill-rule="evenodd" fill-opacity="1" stroke="#adb2b7" stroke-opacity="1" stroke-width="3.2"/>
<circle clip-path="url(#clip402)" cx="381.1" cy="1384.24" r="14" fill="#ffffff" fill-rule="evenodd" fill-opacity="1" stroke="#adb2b7" stroke-opacity="1" stroke-width="3.2"/>
<circle clip-path="url(#clip402)" cx="464.222" cy="1384.24" r="14" fill="#ffffff" fill-rule="evenodd" fill-opacity="1" stroke="#adb2b7" stroke-opacity="1" stroke-width="3.2"/>
<circle clip-path="url(#clip402)" cx="547.344" cy="1384.24" r="14" fill="#ffffff" fill-rule="evenodd" fill-opacity="1" stroke="#adb2b7" stroke-opacity="1" stroke-width="3.2"/>
<circle clip-path="url(#clip402)" cx="630.466" cy="1384.24" r="14" fill="#ffffff" fill-rule="evenodd" fill-opacity="1" stroke="#adb2b7" stroke-opacity="1" stroke-width="3.2"/>
<circle clip-path="url(#clip402)" cx="713.588" cy="1384.24" r="14" fill="#ffffff" fill-rule="evenodd" fill-opacity="1" stroke="#adb2b7" stroke-opacity="1" stroke-width="3.2"/>
<circle clip-path="url(#clip402)" cx="796.71" cy="1384.24" r="14" fill="#ffffff" fill-rule="evenodd" fill-opacity="1" stroke="#adb2b7" stroke-opacity="1" stroke-width="3.2"/>
<circle clip-path="url(#clip402)" cx="879.833" cy="1384.24" r="14" fill="#ffffff" fill-rule="evenodd" fill-opacity="1" stroke="#adb2b7" stroke-opacity="1" stroke-width="3.2"/>
<circle clip-path="url(#clip402)" cx="962.955" cy="1384.24" r="14" fill="#ffffff" fill-rule="evenodd" fill-opacity="1" stroke="#adb2b7" stroke-opacity="1" stroke-width="3.2"/>
<circle clip-path="url(#clip402)" cx="1046.08" cy="1384.24" r="14" fill="#ffffff" fill-rule="evenodd" fill-opacity="1" stroke="#adb2b7" stroke-opacity="1" stroke-width="3.2"/>
<circle clip-path="url(#clip402)" cx="1129.2" cy="1384.24" r="14" fill="#ffffff" fill-rule="evenodd" fill-opacity="1" stroke="#adb2b7" stroke-opacity="1" stroke-width="3.2"/>
<circle clip-path="url(#clip402)" cx="1212.32" cy="1384.24" r="14" fill="#ffffff" fill-rule="evenodd" fill-opacity="1" stroke="#adb2b7" stroke-opacity="1" stroke-width="3.2"/>
<circle clip-path="url(#clip402)" cx="1295.44" cy="1384.24" r="14" fill="#ffffff" fill-rule="evenodd" fill-opacity="1" stroke="#adb2b7" stroke-opacity="1" stroke-width="3.2"/>
<circle clip-path="url(#clip402)" cx="1378.57" cy="1384.24" r="14" fill="#ffffff" fill-rule="evenodd" fill-opacity="1" stroke="#adb2b7" stroke-opacity="1" stroke-width="3.2"/>
<circle clip-path="url(#clip402)" cx="1461.69" cy="1384.24" r="14" fill="#ffffff" fill-rule="evenodd" fill-opacity="1" stroke="#adb2b7" stroke-opacity="1" stroke-width="3.2"/>
<circle clip-path="url(#clip402)" cx="1544.81" cy="1384.24" r="14" fill="#ffffff" fill-rule="evenodd" fill-opacity="1" stroke="#adb2b7" stroke-opacity="1" stroke-width="3.2"/>
<circle clip-path="url(#clip402)" cx="1627.93" cy="1384.24" r="14" fill="#ffffff" fill-rule="evenodd" fill-opacity="1" stroke="#adb2b7" stroke-opacity="1" stroke-width="3.2"/>
<circle clip-path="url(#clip402)" cx="1711.05" cy="1384.24" r="14" fill="#ffffff" fill-rule="evenodd" fill-opacity="1" stroke="#adb2b7" stroke-opacity="1" stroke-width="3.2"/>
<circle clip-path="url(#clip402)" cx="1794.18" cy="1384.24" r="14" fill="#ffffff" fill-rule="evenodd" fill-opacity="1" stroke="#adb2b7" stroke-opacity="1" stroke-width="3.2"/>
<circle clip-path="url(#clip402)" cx="1877.3" cy="1384.24" r="14" fill="#ffffff" fill-rule="evenodd" fill-opacity="1" stroke="#adb2b7" stroke-opacity="1" stroke-width="3.2"/>
<circle clip-path="url(#clip402)" cx="1960.42" cy="1384.24" r="14" fill="#ffffff" fill-rule="evenodd" fill-opacity="1" stroke="#adb2b7" stroke-opacity="1" stroke-width="3.2"/>
<circle clip-path="url(#clip402)" cx="2043.54" cy="1384.24" r="14" fill="#ffffff" fill-rule="evenodd" fill-opacity="1" stroke="#adb2b7" stroke-opacity="1" stroke-width="3.2"/>
<circle clip-path="url(#clip402)" cx="2126.66" cy="1384.24" r="14" fill="#ffffff" fill-rule="evenodd" fill-opacity="1" stroke="#adb2b7" stroke-opacity="1" stroke-width="3.2"/>
<circle clip-path="url(#clip402)" cx="2209.79" cy="1384.24" r="14" fill="#ffffff" fill-rule="evenodd" fill-opacity="1" stroke="#adb2b7" stroke-opacity="1" stroke-width="3.2"/>
<circle clip-path="url(#clip402)" cx="2292.91" cy="86.1857" r="14" fill="#ffffff" fill-rule="evenodd" fill-opacity="1" stroke="#adb2b7" stroke-opacity="1" stroke-width="3.2"/>
<circle clip-path="url(#clip402)" cx="297.978" cy="1384.24" r="14" fill="#ffffff" fill-rule="evenodd" fill-opacity="1" stroke="#adb2b7" stroke-opacity="1" stroke-width="3.2"/>
<circle clip-path="url(#clip402)" cx="381.1" cy="1384.24" r="14" fill="#ffffff" fill-rule="evenodd" fill-opacity="1" stroke="#adb2b7" stroke-opacity="1" stroke-width="3.2"/>
<circle clip-path="url(#clip402)" cx="464.222" cy="1384.24" r="14" fill="#ffffff" fill-rule="evenodd" fill-opacity="1" stroke="#adb2b7" stroke-opacity="1" stroke-width="3.2"/>
<circle clip-path="url(#clip402)" cx="547.344" cy="1384.24" r="14" fill="#ffffff" fill-rule="evenodd" fill-opacity="1" stroke="#adb2b7" stroke-opacity="1" stroke-width="3.2"/>
<circle clip-path="url(#clip402)" cx="630.466" cy="1384.24" r="14" fill="#ffffff" fill-rule="evenodd" fill-opacity="1" stroke="#adb2b7" stroke-opacity="1" stroke-width="3.2"/>
<circle clip-path="url(#clip402)" cx="713.588" cy="1384.24" r="14" fill="#ffffff" fill-rule="evenodd" fill-opacity="1" stroke="#adb2b7" stroke-opacity="1" stroke-width="3.2"/>
<circle clip-path="url(#clip402)" cx="796.71" cy="1384.24" r="14" fill="#ffffff" fill-rule="evenodd" fill-opacity="1" stroke="#adb2b7" stroke-opacity="1" stroke-width="3.2"/>
<circle clip-path="url(#clip402)" cx="879.833" cy="1384.24" r="14" fill="#ffffff" fill-rule="evenodd" fill-opacity="1" stroke="#adb2b7" stroke-opacity="1" stroke-width="3.2"/>
<circle clip-path="url(#clip402)" cx="962.955" cy="1384.24" r="14" fill="#ffffff" fill-rule="evenodd" fill-opacity="1" stroke="#adb2b7" stroke-opacity="1" stroke-width="3.2"/>
<circle clip-path="url(#clip402)" cx="1046.08" cy="1384.24" r="14" fill="#ffffff" fill-rule="evenodd" fill-opacity="1" stroke="#adb2b7" stroke-opacity="1" stroke-width="3.2"/>
<circle clip-path="url(#clip402)" cx="1129.2" cy="1384.24" r="14" fill="#ffffff" fill-rule="evenodd" fill-opacity="1" stroke="#adb2b7" stroke-opacity="1" stroke-width="3.2"/>
<circle clip-path="url(#clip402)" cx="1212.32" cy="1384.24" r="14" fill="#ffffff" fill-rule="evenodd" fill-opacity="1" stroke="#adb2b7" stroke-opacity="1" stroke-width="3.2"/>
<circle clip-path="url(#clip402)" cx="1295.44" cy="1384.24" r="14" fill="#ffffff" fill-rule="evenodd" fill-opacity="1" stroke="#adb2b7" stroke-opacity="1" stroke-width="3.2"/>
<circle clip-path="url(#clip402)" cx="1378.57" cy="1384.24" r="14" fill="#ffffff" fill-rule="evenodd" fill-opacity="1" stroke="#adb2b7" stroke-opacity="1" stroke-width="3.2"/>
<circle clip-path="url(#clip402)" cx="1461.69" cy="1384.24" r="14" fill="#ffffff" fill-rule="evenodd" fill-opacity="1" stroke="#adb2b7" stroke-opacity="1" stroke-width="3.2"/>
<circle clip-path="url(#clip402)" cx="1544.81" cy="1384.24" r="14" fill="#ffffff" fill-rule="evenodd" fill-opacity="1" stroke="#adb2b7" stroke-opacity="1" stroke-width="3.2"/>
<circle clip-path="url(#clip402)" cx="1627.93" cy="1384.24" r="14" fill="#ffffff" fill-rule="evenodd" fill-opacity="1" stroke="#adb2b7" stroke-opacity="1" stroke-width="3.2"/>
<circle clip-path="url(#clip402)" cx="1711.05" cy="1384.24" r="14" fill="#ffffff" fill-rule="evenodd" fill-opacity="1" stroke="#adb2b7" stroke-opacity="1" stroke-width="3.2"/>
<circle clip-path="url(#clip402)" cx="1794.18" cy="1384.24" r="14" fill="#ffffff" fill-rule="evenodd" fill-opacity="1" stroke="#adb2b7" stroke-opacity="1" stroke-width="3.2"/>
<circle clip-path="url(#clip402)" cx="1877.3" cy="1384.23" r="14" fill="#ffffff" fill-rule="evenodd" fill-opacity="1" stroke="#adb2b7" stroke-opacity="1" stroke-width="3.2"/>
<circle clip-path="url(#clip402)" cx="1960.42" cy="1383.99" r="14" fill="#ffffff" fill-rule="evenodd" fill-opacity="1" stroke="#adb2b7" stroke-opacity="1" stroke-width="3.2"/>
<circle clip-path="url(#clip402)" cx="2043.54" cy="1377.5" r="14" fill="#ffffff" fill-rule="evenodd" fill-opacity="1" stroke="#adb2b7" stroke-opacity="1" stroke-width="3.2"/>
<circle clip-path="url(#clip402)" cx="2126.66" cy="1303.23" r="14" fill="#ffffff" fill-rule="evenodd" fill-opacity="1" stroke="#adb2b7" stroke-opacity="1" stroke-width="3.2"/>
<circle clip-path="url(#clip402)" cx="2209.79" cy="927.98" r="14" fill="#ffffff" fill-rule="evenodd" fill-opacity="1" stroke="#adb2b7" stroke-opacity="1" stroke-width="3.2"/>
<circle clip-path="url(#clip402)" cx="2292.91" cy="86.1857" r="14" fill="#ffffff" fill-rule="evenodd" fill-opacity="1" stroke="#adb2b7" stroke-opacity="1" stroke-width="3.2"/>
<circle clip-path="url(#clip402)" cx="297.978" cy="1384.24" r="14" fill="#ffffff" fill-rule="evenodd" fill-opacity="1" stroke="#adb2b7" stroke-opacity="1" stroke-width="3.2"/>
<circle clip-path="url(#clip402)" cx="381.1" cy="1384.24" r="14" fill="#ffffff" fill-rule="evenodd" fill-opacity="1" stroke="#adb2b7" stroke-opacity="1" stroke-width="3.2"/>
<circle clip-path="url(#clip402)" cx="464.222" cy="1384.24" r="14" fill="#ffffff" fill-rule="evenodd" fill-opacity="1" stroke="#adb2b7" stroke-opacity="1" stroke-width="3.2"/>
<circle clip-path="url(#clip402)" cx="547.344" cy="1384.24" r="14" fill="#ffffff" fill-rule="evenodd" fill-opacity="1" stroke="#adb2b7" stroke-opacity="1" stroke-width="3.2"/>
<circle clip-path="url(#clip402)" cx="630.466" cy="1384.24" r="14" fill="#ffffff" fill-rule="evenodd" fill-opacity="1" stroke="#adb2b7" stroke-opacity="1" stroke-width="3.2"/>
<circle clip-path="url(#clip402)" cx="713.588" cy="1384.24" r="14" fill="#ffffff" fill-rule="evenodd" fill-opacity="1" stroke="#adb2b7" stroke-opacity="1" stroke-width="3.2"/>
<circle clip-path="url(#clip402)" cx="796.71" cy="1384.24" r="14" fill="#ffffff" fill-rule="evenodd" fill-opacity="1" stroke="#adb2b7" stroke-opacity="1" stroke-width="3.2"/>
<circle clip-path="url(#clip402)" cx="879.833" cy="1384.24" r="14" fill="#ffffff" fill-rule="evenodd" fill-opacity="1" stroke="#adb2b7" stroke-opacity="1" stroke-width="3.2"/>
<circle clip-path="url(#clip402)" cx="962.955" cy="1384.24" r="14" fill="#ffffff" fill-rule="evenodd" fill-opacity="1" stroke="#adb2b7" stroke-opacity="1" stroke-width="3.2"/>
<circle clip-path="url(#clip402)" cx="1046.08" cy="1384.23" r="14" fill="#ffffff" fill-rule="evenodd" fill-opacity="1" stroke="#adb2b7" stroke-opacity="1" stroke-width="3.2"/>
<circle clip-path="url(#clip402)" cx="1129.2" cy="1384.19" r="14" fill="#ffffff" fill-rule="evenodd" fill-opacity="1" stroke="#adb2b7" stroke-opacity="1" stroke-width="3.2"/>
<circle clip-path="url(#clip402)" cx="1212.32" cy="1384.07" r="14" fill="#ffffff" fill-rule="evenodd" fill-opacity="1" stroke="#adb2b7" stroke-opacity="1" stroke-width="3.2"/>
<circle clip-path="url(#clip402)" cx="1295.44" cy="1383.71" r="14" fill="#ffffff" fill-rule="evenodd" fill-opacity="1" stroke="#adb2b7" stroke-opacity="1" stroke-width="3.2"/>
<circle clip-path="url(#clip402)" cx="1378.57" cy="1382.69" r="14" fill="#ffffff" fill-rule="evenodd" fill-opacity="1" stroke="#adb2b7" stroke-opacity="1" stroke-width="3.2"/>
<circle clip-path="url(#clip402)" cx="1461.69" cy="1380.06" r="14" fill="#ffffff" fill-rule="evenodd" fill-opacity="1" stroke="#adb2b7" stroke-opacity="1" stroke-width="3.2"/>
<circle clip-path="url(#clip402)" cx="1544.81" cy="1373.84" r="14" fill="#ffffff" fill-rule="evenodd" fill-opacity="1" stroke="#adb2b7" stroke-opacity="1" stroke-width="3.2"/>
<circle clip-path="url(#clip402)" cx="1627.93" cy="1360.33" r="14" fill="#ffffff" fill-rule="evenodd" fill-opacity="1" stroke="#adb2b7" stroke-opacity="1" stroke-width="3.2"/>
<circle clip-path="url(#clip402)" cx="1711.05" cy="1333.39" r="14" fill="#ffffff" fill-rule="evenodd" fill-opacity="1" stroke="#adb2b7" stroke-opacity="1" stroke-width="3.2"/>
<circle clip-path="url(#clip402)" cx="1794.18" cy="1284.16" r="14" fill="#ffffff" fill-rule="evenodd" fill-opacity="1" stroke="#adb2b7" stroke-opacity="1" stroke-width="3.2"/>
<circle clip-path="url(#clip402)" cx="1877.3" cy="1201.58" r="14" fill="#ffffff" fill-rule="evenodd" fill-opacity="1" stroke="#adb2b7" stroke-opacity="1" stroke-width="3.2"/>
<circle clip-path="url(#clip402)" cx="1960.42" cy="1074.53" r="14" fill="#ffffff" fill-rule="evenodd" fill-opacity="1" stroke="#adb2b7" stroke-opacity="1" stroke-width="3.2"/>
<circle clip-path="url(#clip402)" cx="2043.54" cy="895.185" r="14" fill="#ffffff" fill-rule="evenodd" fill-opacity="1" stroke="#adb2b7" stroke-opacity="1" stroke-width="3.2"/>
<circle clip-path="url(#clip402)" cx="2126.66" cy="662.924" r="14" fill="#ffffff" fill-rule="evenodd" fill-opacity="1" stroke="#adb2b7" stroke-opacity="1" stroke-width="3.2"/>
<circle clip-path="url(#clip402)" cx="2209.79" cy="386.973" r="14" fill="#ffffff" fill-rule="evenodd" fill-opacity="1" stroke="#adb2b7" stroke-opacity="1" stroke-width="3.2"/>
<circle clip-path="url(#clip402)" cx="2292.91" cy="86.1857" r="14" fill="#ffffff" fill-rule="evenodd" fill-opacity="1" stroke="#adb2b7" stroke-opacity="1" stroke-width="3.2"/>
<circle clip-path="url(#clip402)" cx="297.978" cy="1384.24" r="14" fill="#ffffff" fill-rule="evenodd" fill-opacity="1" stroke="#adb2b7" stroke-opacity="1" stroke-width="3.2"/>
<circle clip-path="url(#clip402)" cx="381.1" cy="1368.3" r="14" fill="#ffffff" fill-rule="evenodd" fill-opacity="1" stroke="#adb2b7" stroke-opacity="1" stroke-width="3.2"/>
<circle clip-path="url(#clip402)" cx="464.222" cy="1351.82" r="14" fill="#ffffff" fill-rule="evenodd" fill-opacity="1" stroke="#adb2b7" stroke-opacity="1" stroke-width="3.2"/>
<circle clip-path="url(#clip402)" cx="547.344" cy="1334.24" r="14" fill="#ffffff" fill-rule="evenodd" fill-opacity="1" stroke="#adb2b7" stroke-opacity="1" stroke-width="3.2"/>
<circle clip-path="url(#clip402)" cx="630.466" cy="1315.03" r="14" fill="#ffffff" fill-rule="evenodd" fill-opacity="1" stroke="#adb2b7" stroke-opacity="1" stroke-width="3.2"/>
<circle clip-path="url(#clip402)" cx="713.588" cy="1293.64" r="14" fill="#ffffff" fill-rule="evenodd" fill-opacity="1" stroke="#adb2b7" stroke-opacity="1" stroke-width="3.2"/>
<circle clip-path="url(#clip402)" cx="796.71" cy="1269.56" r="14" fill="#ffffff" fill-rule="evenodd" fill-opacity="1" stroke="#adb2b7" stroke-opacity="1" stroke-width="3.2"/>
<circle clip-path="url(#clip402)" cx="879.833" cy="1242.3" r="14" fill="#ffffff" fill-rule="evenodd" fill-opacity="1" stroke="#adb2b7" stroke-opacity="1" stroke-width="3.2"/>
<circle clip-path="url(#clip402)" cx="962.955" cy="1211.38" r="14" fill="#ffffff" fill-rule="evenodd" fill-opacity="1" stroke="#adb2b7" stroke-opacity="1" stroke-width="3.2"/>
<circle clip-path="url(#clip402)" cx="1046.08" cy="1176.36" r="14" fill="#ffffff" fill-rule="evenodd" fill-opacity="1" stroke="#adb2b7" stroke-opacity="1" stroke-width="3.2"/>
<circle clip-path="url(#clip402)" cx="1129.2" cy="1136.87" r="14" fill="#ffffff" fill-rule="evenodd" fill-opacity="1" stroke="#adb2b7" stroke-opacity="1" stroke-width="3.2"/>
<circle clip-path="url(#clip402)" cx="1212.32" cy="1092.56" r="14" fill="#ffffff" fill-rule="evenodd" fill-opacity="1" stroke="#adb2b7" stroke-opacity="1" stroke-width="3.2"/>
<circle clip-path="url(#clip402)" cx="1295.44" cy="1043.17" r="14" fill="#ffffff" fill-rule="evenodd" fill-opacity="1" stroke="#adb2b7" stroke-opacity="1" stroke-width="3.2"/>
<circle clip-path="url(#clip402)" cx="1378.57" cy="988.513" r="14" fill="#ffffff" fill-rule="evenodd" fill-opacity="1" stroke="#adb2b7" stroke-opacity="1" stroke-width="3.2"/>
<circle clip-path="url(#clip402)" cx="1461.69" cy="928.499" r="14" fill="#ffffff" fill-rule="evenodd" fill-opacity="1" stroke="#adb2b7" stroke-opacity="1" stroke-width="3.2"/>
<circle clip-path="url(#clip402)" cx="1544.81" cy="863.127" r="14" fill="#ffffff" fill-rule="evenodd" fill-opacity="1" stroke="#adb2b7" stroke-opacity="1" stroke-width="3.2"/>
<circle clip-path="url(#clip402)" cx="1627.93" cy="792.504" r="14" fill="#ffffff" fill-rule="evenodd" fill-opacity="1" stroke="#adb2b7" stroke-opacity="1" stroke-width="3.2"/>
<circle clip-path="url(#clip402)" cx="1711.05" cy="716.848" r="14" fill="#ffffff" fill-rule="evenodd" fill-opacity="1" stroke="#adb2b7" stroke-opacity="1" stroke-width="3.2"/>
<circle clip-path="url(#clip402)" cx="1794.18" cy="636.483" r="14" fill="#ffffff" fill-rule="evenodd" fill-opacity="1" stroke="#adb2b7" stroke-opacity="1" stroke-width="3.2"/>
<circle clip-path="url(#clip402)" cx="1877.3" cy="551.844" r="14" fill="#ffffff" fill-rule="evenodd" fill-opacity="1" stroke="#adb2b7" stroke-opacity="1" stroke-width="3.2"/>
<circle clip-path="url(#clip402)" cx="1960.42" cy="463.467" r="14" fill="#ffffff" fill-rule="evenodd" fill-opacity="1" stroke="#adb2b7" stroke-opacity="1" stroke-width="3.2"/>
<circle clip-path="url(#clip402)" cx="2043.54" cy="371.979" r="14" fill="#ffffff" fill-rule="evenodd" fill-opacity="1" stroke="#adb2b7" stroke-opacity="1" stroke-width="3.2"/>
<circle clip-path="url(#clip402)" cx="2126.66" cy="278.085" r="14" fill="#ffffff" fill-rule="evenodd" fill-opacity="1" stroke="#adb2b7" stroke-opacity="1" stroke-width="3.2"/>
<circle clip-path="url(#clip402)" cx="2209.79" cy="182.551" r="14" fill="#ffffff" fill-rule="evenodd" fill-opacity="1" stroke="#adb2b7" stroke-opacity="1" stroke-width="3.2"/>
<circle clip-path="url(#clip402)" cx="2292.91" cy="86.1857" r="14" fill="#ffffff" fill-rule="evenodd" fill-opacity="1" stroke="#adb2b7" stroke-opacity="1" stroke-width="3.2"/>
<circle clip-path="url(#clip402)" cx="297.978" cy="1384.24" r="14" fill="#ffffff" fill-rule="evenodd" fill-opacity="1" stroke="#adb2b7" stroke-opacity="1" stroke-width="3.2"/>
<circle clip-path="url(#clip402)" cx="381.1" cy="1330.16" r="14" fill="#ffffff" fill-rule="evenodd" fill-opacity="1" stroke="#adb2b7" stroke-opacity="1" stroke-width="3.2"/>
<circle clip-path="url(#clip402)" cx="464.222" cy="1276.08" r="14" fill="#ffffff" fill-rule="evenodd" fill-opacity="1" stroke="#adb2b7" stroke-opacity="1" stroke-width="3.2"/>
<circle clip-path="url(#clip402)" cx="547.344" cy="1222" r="14" fill="#ffffff" fill-rule="evenodd" fill-opacity="1" stroke="#adb2b7" stroke-opacity="1" stroke-width="3.2"/>
<circle clip-path="url(#clip402)" cx="630.466" cy="1167.92" r="14" fill="#ffffff" fill-rule="evenodd" fill-opacity="1" stroke="#adb2b7" stroke-opacity="1" stroke-width="3.2"/>
<circle clip-path="url(#clip402)" cx="713.588" cy="1113.84" r="14" fill="#ffffff" fill-rule="evenodd" fill-opacity="1" stroke="#adb2b7" stroke-opacity="1" stroke-width="3.2"/>
<circle clip-path="url(#clip402)" cx="796.71" cy="1059.76" r="14" fill="#ffffff" fill-rule="evenodd" fill-opacity="1" stroke="#adb2b7" stroke-opacity="1" stroke-width="3.2"/>
<circle clip-path="url(#clip402)" cx="879.833" cy="1005.67" r="14" fill="#ffffff" fill-rule="evenodd" fill-opacity="1" stroke="#adb2b7" stroke-opacity="1" stroke-width="3.2"/>
<circle clip-path="url(#clip402)" cx="962.955" cy="951.591" r="14" fill="#ffffff" fill-rule="evenodd" fill-opacity="1" stroke="#adb2b7" stroke-opacity="1" stroke-width="3.2"/>
<circle clip-path="url(#clip402)" cx="1046.08" cy="897.508" r="14" fill="#ffffff" fill-rule="evenodd" fill-opacity="1" stroke="#adb2b7" stroke-opacity="1" stroke-width="3.2"/>
<circle clip-path="url(#clip402)" cx="1129.2" cy="843.424" r="14" fill="#ffffff" fill-rule="evenodd" fill-opacity="1" stroke="#adb2b7" stroke-opacity="1" stroke-width="3.2"/>
<circle clip-path="url(#clip402)" cx="1212.32" cy="789.34" r="14" fill="#ffffff" fill-rule="evenodd" fill-opacity="1" stroke="#adb2b7" stroke-opacity="1" stroke-width="3.2"/>
<circle clip-path="url(#clip402)" cx="1295.44" cy="735.255" r="14" fill="#ffffff" fill-rule="evenodd" fill-opacity="1" stroke="#adb2b7" stroke-opacity="1" stroke-width="3.2"/>
<circle clip-path="url(#clip402)" cx="1378.57" cy="681.169" r="14" fill="#ffffff" fill-rule="evenodd" fill-opacity="1" stroke="#adb2b7" stroke-opacity="1" stroke-width="3.2"/>
<circle clip-path="url(#clip402)" cx="1461.69" cy="627.082" r="14" fill="#ffffff" fill-rule="evenodd" fill-opacity="1" stroke="#adb2b7" stroke-opacity="1" stroke-width="3.2"/>
<circle clip-path="url(#clip402)" cx="1544.81" cy="572.995" r="14" fill="#ffffff" fill-rule="evenodd" fill-opacity="1" stroke="#adb2b7" stroke-opacity="1" stroke-width="3.2"/>
<circle clip-path="url(#clip402)" cx="1627.93" cy="518.907" r="14" fill="#ffffff" fill-rule="evenodd" fill-opacity="1" stroke="#adb2b7" stroke-opacity="1" stroke-width="3.2"/>
<circle clip-path="url(#clip402)" cx="1711.05" cy="464.818" r="14" fill="#ffffff" fill-rule="evenodd" fill-opacity="1" stroke="#adb2b7" stroke-opacity="1" stroke-width="3.2"/>
<circle clip-path="url(#clip402)" cx="1794.18" cy="410.729" r="14" fill="#ffffff" fill-rule="evenodd" fill-opacity="1" stroke="#adb2b7" stroke-opacity="1" stroke-width="3.2"/>
<circle clip-path="url(#clip402)" cx="1877.3" cy="356.639" r="14" fill="#ffffff" fill-rule="evenodd" fill-opacity="1" stroke="#adb2b7" stroke-opacity="1" stroke-width="3.2"/>
<circle clip-path="url(#clip402)" cx="1960.42" cy="302.549" r="14" fill="#ffffff" fill-rule="evenodd" fill-opacity="1" stroke="#adb2b7" stroke-opacity="1" stroke-width="3.2"/>
<circle clip-path="url(#clip402)" cx="2043.54" cy="248.459" r="14" fill="#ffffff" fill-rule="evenodd" fill-opacity="1" stroke="#adb2b7" stroke-opacity="1" stroke-width="3.2"/>
<circle clip-path="url(#clip402)" cx="2126.66" cy="194.368" r="14" fill="#ffffff" fill-rule="evenodd" fill-opacity="1" stroke="#adb2b7" stroke-opacity="1" stroke-width="3.2"/>
<circle clip-path="url(#clip402)" cx="2209.79" cy="140.277" r="14" fill="#ffffff" fill-rule="evenodd" fill-opacity="1" stroke="#adb2b7" stroke-opacity="1" stroke-width="3.2"/>
<circle clip-path="url(#clip402)" cx="2292.91" cy="86.1857" r="14" fill="#ffffff" fill-rule="evenodd" fill-opacity="1" stroke="#adb2b7" stroke-opacity="1" stroke-width="3.2"/>
<path clip-path="url(#clip400)" d="
M308.618 455.989 L711.237 455.989 L711.237 93.1086 L308.618 93.1086  Z
  " fill="#282c34" fill-rule="evenodd" fill-opacity="1"/>
<polyline clip-path="url(#clip400)" style="stroke:#9eb1be; stroke-width:4; stroke-opacity:1; fill:none" points="
  308.618,455.989 711.237,455.989 711.237,93.1086 308.618,93.1086 308.618,455.989 
  "/>
<polyline clip-path="url(#clip400)" style="stroke:#fe4365; stroke-width:4; stroke-opacity:1; fill:none" points="
  332.113,153.589 473.088,153.589 
  "/>
<path clip-path="url(#clip400)" d="M 0 0 M503.992 137.582 L503.992 144.943 L512.765 144.943 L512.765 148.253 L503.992 148.253 L503.992 162.327 Q503.992 165.498 504.848 166.401 Q505.728 167.304 508.39 167.304 L512.765 167.304 L512.765 170.869 L508.39 170.869 Q503.459 170.869 501.584 169.04 Q499.709 167.188 499.709 162.327 L499.709 148.253 L496.584 148.253 L496.584 144.943 L499.709 144.943 L499.709 137.582 L503.992 137.582 Z" fill="#adb2b7" fill-rule="evenodd" fill-opacity="1" /><path clip-path="url(#clip400)" d="M 0 0 M517.788 149.341 L547.464 149.341 L547.464 153.23 L517.788 153.23 L517.788 149.341 M517.788 158.785 L547.464 158.785 L547.464 162.721 L517.788 162.721 L517.788 158.785 Z" fill="#adb2b7" fill-rule="evenodd" fill-opacity="1" /><path clip-path="url(#clip400)" d="M 0 0 M562.533 139.387 Q558.922 139.387 557.093 142.952 Q555.288 146.494 555.288 153.623 Q555.288 160.73 557.093 164.295 Q558.922 167.836 562.533 167.836 Q566.167 167.836 567.973 164.295 Q569.802 160.73 569.802 153.623 Q569.802 146.494 567.973 142.952 Q566.167 139.387 562.533 139.387 M562.533 135.684 Q568.343 135.684 571.399 140.29 Q574.477 144.873 574.477 153.623 Q574.477 162.35 571.399 166.957 Q568.343 171.54 562.533 171.54 Q556.723 171.54 553.644 166.957 Q550.589 162.35 550.589 153.623 Q550.589 144.873 553.644 140.29 Q556.723 135.684 562.533 135.684 Z" fill="#adb2b7" fill-rule="evenodd" fill-opacity="1" /><path clip-path="url(#clip400)" d="M 0 0 M579.547 164.989 L584.431 164.989 L584.431 170.869 L579.547 170.869 L579.547 164.989 Z" fill="#adb2b7" fill-rule="evenodd" fill-opacity="1" /><path clip-path="url(#clip400)" d="M 0 0 M599.5 139.387 Q595.889 139.387 594.061 142.952 Q592.255 146.494 592.255 153.623 Q592.255 160.73 594.061 164.295 Q595.889 167.836 599.5 167.836 Q603.135 167.836 604.94 164.295 Q606.769 160.73 606.769 153.623 Q606.769 146.494 604.94 142.952 Q603.135 139.387 599.5 139.387 M599.5 135.684 Q605.311 135.684 608.366 140.29 Q611.445 144.873 611.445 153.623 Q611.445 162.35 608.366 166.957 Q605.311 171.54 599.5 171.54 Q593.69 171.54 590.612 166.957 Q587.556 162.35 587.556 153.623 Q587.556 144.873 590.612 140.29 Q593.69 135.684 599.5 135.684 Z" fill="#adb2b7" fill-rule="evenodd" fill-opacity="1" /><polyline clip-path="url(#clip400)" style="stroke:#eca25c; stroke-width:4; stroke-opacity:1; fill:none" points="
  332.113,214.069 473.088,214.069 
  "/>
<path clip-path="url(#clip400)" d="M 0 0 M503.992 198.062 L503.992 205.423 L512.765 205.423 L512.765 208.733 L503.992 208.733 L503.992 222.807 Q503.992 225.978 504.848 226.881 Q505.728 227.784 508.39 227.784 L512.765 227.784 L512.765 231.349 L508.39 231.349 Q503.459 231.349 501.584 229.52 Q499.709 227.668 499.709 222.807 L499.709 208.733 L496.584 208.733 L496.584 205.423 L499.709 205.423 L499.709 198.062 L503.992 198.062 Z" fill="#adb2b7" fill-rule="evenodd" fill-opacity="1" /><path clip-path="url(#clip400)" d="M 0 0 M517.788 209.821 L547.464 209.821 L547.464 213.71 L517.788 213.71 L517.788 209.821 M517.788 219.265 L547.464 219.265 L547.464 223.201 L517.788 223.201 L517.788 219.265 Z" fill="#adb2b7" fill-rule="evenodd" fill-opacity="1" /><path clip-path="url(#clip400)" d="M 0 0 M562.533 199.867 Q558.922 199.867 557.093 203.432 Q555.288 206.974 555.288 214.103 Q555.288 221.21 557.093 224.775 Q558.922 228.316 562.533 228.316 Q566.167 228.316 567.973 224.775 Q569.802 221.21 569.802 214.103 Q569.802 206.974 567.973 203.432 Q566.167 199.867 562.533 199.867 M562.533 196.164 Q568.343 196.164 571.399 200.77 Q574.477 205.353 574.477 214.103 Q574.477 222.83 571.399 227.437 Q568.343 232.02 562.533 232.02 Q556.723 232.02 553.644 227.437 Q550.589 222.83 550.589 214.103 Q550.589 205.353 553.644 200.77 Q556.723 196.164 562.533 196.164 Z" fill="#adb2b7" fill-rule="evenodd" fill-opacity="1" /><path clip-path="url(#clip400)" d="M 0 0 M579.547 225.469 L584.431 225.469 L584.431 231.349 L579.547 231.349 L579.547 225.469 Z" fill="#adb2b7" fill-rule="evenodd" fill-opacity="1" /><path clip-path="url(#clip400)" d="M 0 0 M599.5 199.867 Q595.889 199.867 594.061 203.432 Q592.255 206.974 592.255 214.103 Q592.255 221.21 594.061 224.775 Q595.889 228.316 599.5 228.316 Q603.135 228.316 604.94 224.775 Q606.769 221.21 606.769 214.103 Q606.769 206.974 604.94 203.432 Q603.135 199.867 599.5 199.867 M599.5 196.164 Q605.311 196.164 608.366 200.77 Q611.445 205.353 611.445 214.103 Q611.445 222.83 608.366 227.437 Q605.311 232.02 599.5 232.02 Q593.69 232.02 590.612 227.437 Q587.556 222.83 587.556 214.103 Q587.556 205.353 590.612 200.77 Q593.69 196.164 599.5 196.164 Z" fill="#adb2b7" fill-rule="evenodd" fill-opacity="1" /><path clip-path="url(#clip400)" d="M 0 0 M626.514 199.867 Q622.903 199.867 621.074 203.432 Q619.269 206.974 619.269 214.103 Q619.269 221.21 621.074 224.775 Q622.903 228.316 626.514 228.316 Q630.148 228.316 631.954 224.775 Q633.783 221.21 633.783 214.103 Q633.783 206.974 631.954 203.432 Q630.148 199.867 626.514 199.867 M626.514 196.164 Q632.324 196.164 635.38 200.77 Q638.459 205.353 638.459 214.103 Q638.459 222.83 635.38 227.437 Q632.324 232.02 626.514 232.02 Q620.704 232.02 617.625 227.437 Q614.57 222.83 614.57 214.103 Q614.57 205.353 617.625 200.77 Q620.704 196.164 626.514 196.164 Z" fill="#adb2b7" fill-rule="evenodd" fill-opacity="1" /><path clip-path="url(#clip400)" d="M 0 0 M644.338 227.413 L651.977 227.413 L651.977 201.048 L643.667 202.715 L643.667 198.455 L651.931 196.789 L656.607 196.789 L656.607 227.413 L664.245 227.413 L664.245 231.349 L644.338 231.349 L644.338 227.413 Z" fill="#adb2b7" fill-rule="evenodd" fill-opacity="1" /><polyline clip-path="url(#clip400)" style="stroke:#3f9778; stroke-width:4; stroke-opacity:1; fill:none" points="
  332.113,274.549 473.088,274.549 
  "/>
<path clip-path="url(#clip400)" d="M 0 0 M503.992 258.542 L503.992 265.903 L512.765 265.903 L512.765 269.213 L503.992 269.213 L503.992 283.287 Q503.992 286.458 504.848 287.361 Q505.728 288.264 508.39 288.264 L512.765 288.264 L512.765 291.829 L508.39 291.829 Q503.459 291.829 501.584 290 Q499.709 288.148 499.709 283.287 L499.709 269.213 L496.584 269.213 L496.584 265.903 L499.709 265.903 L499.709 258.542 L503.992 258.542 Z" fill="#adb2b7" fill-rule="evenodd" fill-opacity="1" /><path clip-path="url(#clip400)" d="M 0 0 M517.788 270.301 L547.464 270.301 L547.464 274.19 L517.788 274.19 L517.788 270.301 M517.788 279.745 L547.464 279.745 L547.464 283.681 L517.788 283.681 L517.788 279.745 Z" fill="#adb2b7" fill-rule="evenodd" fill-opacity="1" /><path clip-path="url(#clip400)" d="M 0 0 M562.533 260.347 Q558.922 260.347 557.093 263.912 Q555.288 267.454 555.288 274.583 Q555.288 281.69 557.093 285.255 Q558.922 288.796 562.533 288.796 Q566.167 288.796 567.973 285.255 Q569.802 281.69 569.802 274.583 Q569.802 267.454 567.973 263.912 Q566.167 260.347 562.533 260.347 M562.533 256.644 Q568.343 256.644 571.399 261.25 Q574.477 265.833 574.477 274.583 Q574.477 283.31 571.399 287.917 Q568.343 292.5 562.533 292.5 Q556.723 292.5 553.644 287.917 Q550.589 283.31 550.589 274.583 Q550.589 265.833 553.644 261.25 Q556.723 256.644 562.533 256.644 Z" fill="#adb2b7" fill-rule="evenodd" fill-opacity="1" /><path clip-path="url(#clip400)" d="M 0 0 M579.547 285.949 L584.431 285.949 L584.431 291.829 L579.547 291.829 L579.547 285.949 Z" fill="#adb2b7" fill-rule="evenodd" fill-opacity="1" /><path clip-path="url(#clip400)" d="M 0 0 M599.5 260.347 Q595.889 260.347 594.061 263.912 Q592.255 267.454 592.255 274.583 Q592.255 281.69 594.061 285.255 Q595.889 288.796 599.5 288.796 Q603.135 288.796 604.94 285.255 Q606.769 281.69 606.769 274.583 Q606.769 267.454 604.94 263.912 Q603.135 260.347 599.5 260.347 M599.5 256.644 Q605.311 256.644 608.366 261.25 Q611.445 265.833 611.445 274.583 Q611.445 283.31 608.366 287.917 Q605.311 292.5 599.5 292.5 Q593.69 292.5 590.612 287.917 Q587.556 283.31 587.556 274.583 Q587.556 265.833 590.612 261.25 Q593.69 256.644 599.5 256.644 Z" fill="#adb2b7" fill-rule="evenodd" fill-opacity="1" /><path clip-path="url(#clip400)" d="M 0 0 M617.324 287.893 L624.963 287.893 L624.963 261.528 L616.653 263.195 L616.653 258.935 L624.917 257.269 L629.593 257.269 L629.593 287.893 L637.232 287.893 L637.232 291.829 L617.324 291.829 L617.324 287.893 Z" fill="#adb2b7" fill-rule="evenodd" fill-opacity="1" /><polyline clip-path="url(#clip400)" style="stroke:#005d7f; stroke-width:4; stroke-opacity:1; fill:none" points="
  332.113,335.029 473.088,335.029 
  "/>
<path clip-path="url(#clip400)" d="M 0 0 M503.992 319.022 L503.992 326.383 L512.765 326.383 L512.765 329.693 L503.992 329.693 L503.992 343.767 Q503.992 346.938 504.848 347.841 Q505.728 348.744 508.39 348.744 L512.765 348.744 L512.765 352.309 L508.39 352.309 Q503.459 352.309 501.584 350.48 Q499.709 348.628 499.709 343.767 L499.709 329.693 L496.584 329.693 L496.584 326.383 L499.709 326.383 L499.709 319.022 L503.992 319.022 Z" fill="#adb2b7" fill-rule="evenodd" fill-opacity="1" /><path clip-path="url(#clip400)" d="M 0 0 M517.788 330.781 L547.464 330.781 L547.464 334.67 L517.788 334.67 L517.788 330.781 M517.788 340.225 L547.464 340.225 L547.464 344.161 L517.788 344.161 L517.788 340.225 Z" fill="#adb2b7" fill-rule="evenodd" fill-opacity="1" /><path clip-path="url(#clip400)" d="M 0 0 M562.533 320.827 Q558.922 320.827 557.093 324.392 Q555.288 327.934 555.288 335.063 Q555.288 342.17 557.093 345.735 Q558.922 349.276 562.533 349.276 Q566.167 349.276 567.973 345.735 Q569.802 342.17 569.802 335.063 Q569.802 327.934 567.973 324.392 Q566.167 320.827 562.533 320.827 M562.533 317.124 Q568.343 317.124 571.399 321.73 Q574.477 326.313 574.477 335.063 Q574.477 343.79 571.399 348.397 Q568.343 352.98 562.533 352.98 Q556.723 352.98 553.644 348.397 Q550.589 343.79 550.589 335.063 Q550.589 326.313 553.644 321.73 Q556.723 317.124 562.533 317.124 Z" fill="#adb2b7" fill-rule="evenodd" fill-opacity="1" /><path clip-path="url(#clip400)" d="M 0 0 M579.547 346.429 L584.431 346.429 L584.431 352.309 L579.547 352.309 L579.547 346.429 Z" fill="#adb2b7" fill-rule="evenodd" fill-opacity="1" /><path clip-path="url(#clip400)" d="M 0 0 M590.311 348.373 L597.95 348.373 L597.95 322.008 L589.639 323.675 L589.639 319.415 L597.903 317.749 L602.579 317.749 L602.579 348.373 L610.218 348.373 L610.218 352.309 L590.311 352.309 L590.311 348.373 Z" fill="#adb2b7" fill-rule="evenodd" fill-opacity="1" /><polyline clip-path="url(#clip400)" style="stroke:#00a8ff; stroke-width:4; stroke-opacity:1; fill:none" points="
  332.113,395.509 473.088,395.509 
  "/>
<path clip-path="url(#clip400)" d="M 0 0 M503.992 379.502 L503.992 386.863 L512.765 386.863 L512.765 390.173 L503.992 390.173 L503.992 404.247 Q503.992 407.418 504.848 408.321 Q505.728 409.224 508.39 409.224 L512.765 409.224 L512.765 412.789 L508.39 412.789 Q503.459 412.789 501.584 410.96 Q499.709 409.108 499.709 404.247 L499.709 390.173 L496.584 390.173 L496.584 386.863 L499.709 386.863 L499.709 379.502 L503.992 379.502 Z" fill="#adb2b7" fill-rule="evenodd" fill-opacity="1" /><path clip-path="url(#clip400)" d="M 0 0 M517.788 391.261 L547.464 391.261 L547.464 395.15 L517.788 395.15 L517.788 391.261 M517.788 400.705 L547.464 400.705 L547.464 404.641 L517.788 404.641 L517.788 400.705 Z" fill="#adb2b7" fill-rule="evenodd" fill-opacity="1" /><path clip-path="url(#clip400)" d="M 0 0 M553.343 408.853 L560.982 408.853 L560.982 382.488 L552.672 384.155 L552.672 379.895 L560.936 378.229 L565.612 378.229 L565.612 408.853 L573.251 408.853 L573.251 412.789 L553.343 412.789 L553.343 408.853 Z" fill="#adb2b7" fill-rule="evenodd" fill-opacity="1" /><path clip-path="url(#clip400)" d="M 0 0 M578.32 406.909 L583.204 406.909 L583.204 412.789 L578.32 412.789 L578.32 406.909 Z" fill="#adb2b7" fill-rule="evenodd" fill-opacity="1" /><path clip-path="url(#clip400)" d="M 0 0 M598.274 381.307 Q594.663 381.307 592.834 384.872 Q591.028 388.414 591.028 395.543 Q591.028 402.65 592.834 406.215 Q594.663 409.756 598.274 409.756 Q601.908 409.756 603.713 406.215 Q605.542 402.65 605.542 395.543 Q605.542 388.414 603.713 384.872 Q601.908 381.307 598.274 381.307 M598.274 377.604 Q604.084 377.604 607.139 382.21 Q610.218 386.793 610.218 395.543 Q610.218 404.27 607.139 408.877 Q604.084 413.46 598.274 413.46 Q592.463 413.46 589.385 408.877 Q586.329 404.27 586.329 395.543 Q586.329 386.793 589.385 382.21 Q592.463 377.604 598.274 377.604 Z" fill="#adb2b7" fill-rule="evenodd" fill-opacity="1" /></svg>
