<?xml version="1.0" encoding="utf-8"?>
<svg xmlns="http://www.w3.org/2000/svg" xmlns:xlink="http://www.w3.org/1999/xlink" width="600" height="400" viewBox="0 0 2400 1600">
<defs>
  <clipPath id="clip600">
    <rect x="0" y="0" width="2400" height="1600"/>
  </clipPath>
</defs>
<path clip-path="url(#clip600)" d="
M0 1600 L2400 1600 L2400 0 L0 0  Z
  " fill="#282c34" fill-rule="evenodd" fill-opacity="1"/>
<defs>
  <clipPath id="clip601">
    <rect x="480" y="0" width="1681" height="1600"/>
  </clipPath>
</defs>
<path clip-path="url(#clip600)" d="
M248.351 1410.9 L2352.76 1410.9 L2352.76 47.2441 L248.351 47.2441  Z
  " fill="#21252b" fill-rule="evenodd" fill-opacity="1"/>
<defs>
  <clipPath id="clip602">
    <rect x="248" y="47" width="2105" height="1365"/>
  </clipPath>
</defs>
<polyline clip-path="url(#clip602)" style="stroke:#adb2b7; stroke-width:2; stroke-opacity:0.1; fill:none" points="
  307.91,1410.9 307.91,47.2441 
  "/>
<polyline clip-path="url(#clip602)" style="stroke:#adb2b7; stroke-width:2; stroke-opacity:0.1; fill:none" points="
  638.791,1410.9 638.791,47.2441 
  "/>
<polyline clip-path="url(#clip602)" style="stroke:#adb2b7; stroke-width:2; stroke-opacity:0.1; fill:none" points="
  969.672,1410.9 969.672,47.2441 
  "/>
<polyline clip-path="url(#clip602)" style="stroke:#adb2b7; stroke-width:2; stroke-opacity:0.1; fill:none" points="
  1300.55,1410.9 1300.55,47.2441 
  "/>
<polyline clip-path="url(#clip602)" style="stroke:#adb2b7; stroke-width:2; stroke-opacity:0.1; fill:none" points="
  1631.43,1410.9 1631.43,47.2441 
  "/>
<polyline clip-path="url(#clip602)" style="stroke:#adb2b7; stroke-width:2; stroke-opacity:0.1; fill:none" points="
  1962.32,1410.9 1962.32,47.2441 
  "/>
<polyline clip-path="url(#clip602)" style="stroke:#adb2b7; stroke-width:2; stroke-opacity:0.1; fill:none" points="
  2293.2,1410.9 2293.2,47.2441 
  "/>
<polyline clip-path="url(#clip600)" style="stroke:#adb2b7; stroke-width:4; stroke-opacity:1; fill:none" points="
  248.351,1410.9 2352.76,1410.9 
  "/>
<polyline clip-path="url(#clip600)" style="stroke:#adb2b7; stroke-width:4; stroke-opacity:1; fill:none" points="
  307.91,1410.9 307.91,1394.53 
  "/>
<polyline clip-path="url(#clip600)" style="stroke:#adb2b7; stroke-width:4; stroke-opacity:1; fill:none" points="
  638.791,1410.9 638.791,1394.53 
  "/>
<polyline clip-path="url(#clip600)" style="stroke:#adb2b7; stroke-width:4; stroke-opacity:1; fill:none" points="
  969.672,1410.9 969.672,1394.53 
  "/>
<polyline clip-path="url(#clip600)" style="stroke:#adb2b7; stroke-width:4; stroke-opacity:1; fill:none" points="
  1300.55,1410.9 1300.55,1394.53 
  "/>
<polyline clip-path="url(#clip600)" style="stroke:#adb2b7; stroke-width:4; stroke-opacity:1; fill:none" points="
  1631.43,1410.9 1631.43,1394.53 
  "/>
<polyline clip-path="url(#clip600)" style="stroke:#adb2b7; stroke-width:4; stroke-opacity:1; fill:none" points="
  1962.32,1410.9 1962.32,1394.53 
  "/>
<polyline clip-path="url(#clip600)" style="stroke:#adb2b7; stroke-width:4; stroke-opacity:1; fill:none" points="
  2293.2,1410.9 2293.2,1394.53 
  "/>
<path clip-path="url(#clip600)" d="M 0 0 M261.793 1489.17 L269.431 1489.17 L269.431 1462.8 L261.121 1464.47 L261.121 1460.21 L269.385 1458.54 L274.061 1458.54 L274.061 1489.17 L281.7 1489.17 L281.7 1493.1 L261.793 1493.1 L261.793 1489.17 Z" fill="#9eb1be" fill-rule="evenodd" fill-opacity="1" /><path clip-path="url(#clip600)" d="M 0 0 M296.769 1461.62 Q293.158 1461.62 291.329 1465.19 Q289.524 1468.73 289.524 1475.86 Q289.524 1482.97 291.329 1486.53 Q293.158 1490.07 296.769 1490.07 Q300.404 1490.07 302.209 1486.53 Q304.038 1482.97 304.038 1475.86 Q304.038 1468.73 302.209 1465.19 Q300.404 1461.62 296.769 1461.62 M296.769 1457.92 Q302.579 1457.92 305.635 1462.53 Q308.714 1467.11 308.714 1475.86 Q308.714 1484.59 305.635 1489.19 Q302.579 1493.78 296.769 1493.78 Q290.959 1493.78 287.88 1489.19 Q284.825 1484.59 284.825 1475.86 Q284.825 1467.11 287.88 1462.53 Q290.959 1457.92 296.769 1457.92 Z" fill="#9eb1be" fill-rule="evenodd" fill-opacity="1" /><path clip-path="url(#clip600)" d="M 0 0 M308.714 1452.02 L332.825 1452.02 L332.825 1455.22 L308.714 1455.22 L308.714 1452.02 Z" fill="#9eb1be" fill-rule="evenodd" fill-opacity="1" /><path clip-path="url(#clip600)" d="M 0 0 M345.069 1452.36 Q342.361 1452.36 340.8 1453.81 Q339.257 1455.26 339.257 1457.79 Q339.257 1460.33 340.8 1461.78 Q342.361 1463.23 345.069 1463.23 Q347.777 1463.23 349.338 1461.78 Q350.899 1460.31 350.899 1457.79 Q350.899 1455.26 349.338 1453.81 Q347.796 1452.36 345.069 1452.36 M341.27 1450.74 Q338.825 1450.14 337.452 1448.47 Q336.098 1446.79 336.098 1444.38 Q336.098 1441.02 338.486 1439.06 Q340.894 1437.11 345.069 1437.11 Q349.263 1437.11 351.652 1439.06 Q354.04 1441.02 354.04 1444.38 Q354.04 1446.79 352.667 1448.47 Q351.313 1450.14 348.887 1450.74 Q351.633 1451.38 353.156 1453.24 Q354.699 1455.1 354.699 1457.79 Q354.699 1461.88 352.197 1464.06 Q349.715 1466.24 345.069 1466.24 Q340.424 1466.24 337.922 1464.06 Q335.439 1461.88 335.439 1457.79 Q335.439 1455.1 336.982 1453.24 Q338.524 1451.38 341.27 1450.74 M339.878 1444.74 Q339.878 1446.92 341.232 1448.15 Q342.605 1449.37 345.069 1449.37 Q347.514 1449.37 348.887 1448.15 Q350.279 1446.92 350.279 1444.74 Q350.279 1442.56 348.887 1441.34 Q347.514 1440.11 345.069 1440.11 Q342.605 1440.11 341.232 1441.34 Q339.878 1442.56 339.878 1444.74 Z" fill="#9eb1be" fill-rule="evenodd" fill-opacity="1" /><path clip-path="url(#clip600)" d="M 0 0 M593.003 1489.17 L600.642 1489.17 L600.642 1462.8 L592.332 1464.47 L592.332 1460.21 L600.596 1458.54 L605.271 1458.54 L605.271 1489.17 L612.91 1489.17 L612.91 1493.1 L593.003 1493.1 L593.003 1489.17 Z" fill="#9eb1be" fill-rule="evenodd" fill-opacity="1" /><path clip-path="url(#clip600)" d="M 0 0 M627.98 1461.62 Q624.369 1461.62 622.54 1465.19 Q620.734 1468.73 620.734 1475.86 Q620.734 1482.97 622.54 1486.53 Q624.369 1490.07 627.98 1490.07 Q631.614 1490.07 633.419 1486.53 Q635.248 1482.97 635.248 1475.86 Q635.248 1468.73 633.419 1465.19 Q631.614 1461.62 627.98 1461.62 M627.98 1457.92 Q633.79 1457.92 636.845 1462.53 Q639.924 1467.11 639.924 1475.86 Q639.924 1484.59 636.845 1489.19 Q633.79 1493.78 627.98 1493.78 Q622.169 1493.78 619.091 1489.19 Q616.035 1484.59 616.035 1475.86 Q616.035 1467.11 619.091 1462.53 Q622.169 1457.92 627.98 1457.92 Z" fill="#9eb1be" fill-rule="evenodd" fill-opacity="1" /><path clip-path="url(#clip600)" d="M 0 0 M639.924 1452.02 L664.036 1452.02 L664.036 1455.22 L639.924 1455.22 L639.924 1452.02 Z" fill="#9eb1be" fill-rule="evenodd" fill-opacity="1" /><path clip-path="url(#clip600)" d="M 0 0 M667.195 1437.61 L685.251 1437.61 L685.251 1439.23 L675.057 1465.69 L671.088 1465.69 L680.68 1440.81 L667.195 1440.81 L667.195 1437.61 Z" fill="#9eb1be" fill-rule="evenodd" fill-opacity="1" /><path clip-path="url(#clip600)" d="M 0 0 M923.452 1489.17 L931.09 1489.17 L931.09 1462.8 L922.78 1464.47 L922.78 1460.21 L931.044 1458.54 L935.72 1458.54 L935.72 1489.17 L943.359 1489.17 L943.359 1493.1 L923.452 1493.1 L923.452 1489.17 Z" fill="#9eb1be" fill-rule="evenodd" fill-opacity="1" /><path clip-path="url(#clip600)" d="M 0 0 M958.428 1461.62 Q954.817 1461.62 952.988 1465.19 Q951.183 1468.73 951.183 1475.86 Q951.183 1482.97 952.988 1486.53 Q954.817 1490.07 958.428 1490.07 Q962.062 1490.07 963.868 1486.53 Q965.697 1482.97 965.697 1475.86 Q965.697 1468.73 963.868 1465.19 Q962.062 1461.62 958.428 1461.62 M958.428 1457.92 Q964.238 1457.92 967.294 1462.53 Q970.373 1467.11 970.373 1475.86 Q970.373 1484.59 967.294 1489.19 Q964.238 1493.78 958.428 1493.78 Q952.618 1493.78 949.539 1489.19 Q946.484 1484.59 946.484 1475.86 Q946.484 1467.11 949.539 1462.53 Q952.618 1457.92 958.428 1457.92 Z" fill="#9eb1be" fill-rule="evenodd" fill-opacity="1" /><path clip-path="url(#clip600)" d="M 0 0 M970.373 1452.02 L994.484 1452.02 L994.484 1455.22 L970.373 1455.22 L970.373 1452.02 Z" fill="#9eb1be" fill-rule="evenodd" fill-opacity="1" /><path clip-path="url(#clip600)" d="M 0 0 M1007.2 1450.14 Q1004.64 1450.14 1003.14 1451.89 Q1001.65 1453.64 1001.65 1456.68 Q1001.65 1459.71 1003.14 1461.48 Q1004.64 1463.23 1007.2 1463.23 Q1009.76 1463.23 1011.24 1461.48 Q1012.75 1459.71 1012.75 1456.68 Q1012.75 1453.64 1011.24 1451.89 Q1009.76 1450.14 1007.2 1450.14 M1014.74 1438.23 L1014.74 1441.69 Q1013.31 1441.02 1011.84 1440.66 Q1010.4 1440.3 1008.97 1440.3 Q1005.2 1440.3 1003.21 1442.84 Q1001.24 1445.38 1000.95 1450.52 Q1002.06 1448.88 1003.74 1448.01 Q1005.41 1447.13 1007.42 1447.13 Q1011.66 1447.13 1014.1 1449.71 Q1016.56 1452.26 1016.56 1456.68 Q1016.56 1461.01 1014.01 1463.62 Q1011.45 1466.24 1007.2 1466.24 Q1002.33 1466.24 999.75 1462.51 Q997.174 1458.77 997.174 1451.68 Q997.174 1445.02 1000.33 1441.07 Q1003.49 1437.11 1008.82 1437.11 Q1010.25 1437.11 1011.69 1437.39 Q1013.16 1437.67 1014.74 1438.23 Z" fill="#9eb1be" fill-rule="evenodd" fill-opacity="1" /><path clip-path="url(#clip600)" d="M 0 0 M1254.8 1489.17 L1262.44 1489.17 L1262.44 1462.8 L1254.13 1464.47 L1254.13 1460.21 L1262.4 1458.54 L1267.07 1458.54 L1267.07 1489.17 L1274.71 1489.17 L1274.71 1493.1 L1254.8 1493.1 L1254.8 1489.17 Z" fill="#9eb1be" fill-rule="evenodd" fill-opacity="1" /><path clip-path="url(#clip600)" d="M 0 0 M1289.78 1461.62 Q1286.17 1461.62 1284.34 1465.19 Q1282.53 1468.73 1282.53 1475.86 Q1282.53 1482.97 1284.34 1486.53 Q1286.17 1490.07 1289.78 1490.07 Q1293.41 1490.07 1295.22 1486.53 Q1297.05 1482.97 1297.05 1475.86 Q1297.05 1468.73 1295.22 1465.19 Q1293.41 1461.62 1289.78 1461.62 M1289.78 1457.92 Q1295.59 1457.92 1298.65 1462.53 Q1301.72 1467.11 1301.72 1475.86 Q1301.72 1484.59 1298.65 1489.19 Q1295.59 1493.78 1289.78 1493.78 Q1283.97 1493.78 1280.89 1489.19 Q1277.84 1484.59 1277.84 1475.86 Q1277.84 1467.11 1280.89 1462.53 Q1283.97 1457.92 1289.78 1457.92 Z" fill="#9eb1be" fill-rule="evenodd" fill-opacity="1" /><path clip-path="url(#clip600)" d="M 0 0 M1301.72 1452.02 L1325.84 1452.02 L1325.84 1455.22 L1301.72 1455.22 L1301.72 1452.02 Z" fill="#9eb1be" fill-rule="evenodd" fill-opacity="1" /><path clip-path="url(#clip600)" d="M 0 0 M1329.99 1437.61 L1344.91 1437.61 L1344.91 1440.81 L1333.47 1440.81 L1333.47 1447.69 Q1334.3 1447.41 1335.13 1447.28 Q1335.95 1447.13 1336.78 1447.13 Q1341.48 1447.13 1344.23 1449.71 Q1346.98 1452.28 1346.98 1456.68 Q1346.98 1461.22 1344.15 1463.74 Q1341.33 1466.24 1336.2 1466.24 Q1334.43 1466.24 1332.59 1465.94 Q1330.76 1465.64 1328.81 1465.04 L1328.81 1461.22 Q1330.5 1462.14 1332.31 1462.59 Q1334.11 1463.04 1336.12 1463.04 Q1339.38 1463.04 1341.28 1461.33 Q1343.18 1459.62 1343.18 1456.68 Q1343.18 1453.75 1341.28 1452.04 Q1339.38 1450.33 1336.12 1450.33 Q1334.6 1450.33 1333.08 1450.67 Q1331.57 1451 1329.99 1451.72 L1329.99 1437.61 Z" fill="#9eb1be" fill-rule="evenodd" fill-opacity="1" /><path clip-path="url(#clip600)" d="M 0 0 M1585.08 1489.17 L1592.72 1489.17 L1592.72 1462.8 L1584.41 1464.47 L1584.41 1460.21 L1592.67 1458.54 L1597.35 1458.54 L1597.35 1489.17 L1604.99 1489.17 L1604.99 1493.1 L1585.08 1493.1 L1585.08 1489.17 Z" fill="#9eb1be" fill-rule="evenodd" fill-opacity="1" /><path clip-path="url(#clip600)" d="M 0 0 M1620.06 1461.62 Q1616.45 1461.62 1614.62 1465.19 Q1612.81 1468.73 1612.81 1475.86 Q1612.81 1482.97 1614.62 1486.53 Q1616.45 1490.07 1620.06 1490.07 Q1623.69 1490.07 1625.5 1486.53 Q1627.33 1482.97 1627.33 1475.86 Q1627.33 1468.73 1625.5 1465.19 Q1623.69 1461.62 1620.06 1461.62 M1620.06 1457.92 Q1625.87 1457.92 1628.92 1462.53 Q1632 1467.11 1632 1475.86 Q1632 1484.59 1628.92 1489.19 Q1625.87 1493.78 1620.06 1493.78 Q1614.25 1493.78 1611.17 1489.19 Q1608.11 1484.59 1608.11 1475.86 Q1608.11 1467.11 1611.17 1462.53 Q1614.25 1457.92 1620.06 1457.92 Z" fill="#9eb1be" fill-rule="evenodd" fill-opacity="1" /><path clip-path="url(#clip600)" d="M 0 0 M1632 1452.02 L1656.11 1452.02 L1656.11 1455.22 L1632 1455.22 L1632 1452.02 Z" fill="#9eb1be" fill-rule="evenodd" fill-opacity="1" /><path clip-path="url(#clip600)" d="M 0 0 M1670.67 1440.92 L1661.08 1455.91 L1670.67 1455.91 L1670.67 1440.92 M1669.68 1437.61 L1674.45 1437.61 L1674.45 1455.91 L1678.46 1455.91 L1678.46 1459.07 L1674.45 1459.07 L1674.45 1465.69 L1670.67 1465.69 L1670.67 1459.07 L1658 1459.07 L1658 1455.41 L1669.68 1437.61 Z" fill="#9eb1be" fill-rule="evenodd" fill-opacity="1" /><path clip-path="url(#clip600)" d="M 0 0 M1916.42 1489.17 L1924.06 1489.17 L1924.06 1462.8 L1915.75 1464.47 L1915.75 1460.21 L1924.02 1458.54 L1928.69 1458.54 L1928.69 1489.17 L1936.33 1489.17 L1936.33 1493.1 L1916.42 1493.1 L1916.42 1489.17 Z" fill="#9eb1be" fill-rule="evenodd" fill-opacity="1" /><path clip-path="url(#clip600)" d="M 0 0 M1951.4 1461.62 Q1947.79 1461.62 1945.96 1465.19 Q1944.16 1468.73 1944.16 1475.86 Q1944.16 1482.97 1945.96 1486.53 Q1947.79 1490.07 1951.4 1490.07 Q1955.04 1490.07 1956.84 1486.53 Q1958.67 1482.97 1958.67 1475.86 Q1958.67 1468.73 1956.84 1465.19 Q1955.04 1461.62 1951.4 1461.62 M1951.4 1457.92 Q1957.21 1457.92 1960.27 1462.53 Q1963.35 1467.11 1963.35 1475.86 Q1963.35 1484.59 1960.27 1489.19 Q1957.21 1493.78 1951.4 1493.78 Q1945.59 1493.78 1942.51 1489.19 Q1939.46 1484.59 1939.46 1475.86 Q1939.46 1467.11 1942.51 1462.53 Q1945.59 1457.92 1951.4 1457.92 Z" fill="#9eb1be" fill-rule="evenodd" fill-opacity="1" /><path clip-path="url(#clip600)" d="M 0 0 M1963.35 1452.02 L1987.46 1452.02 L1987.46 1455.22 L1963.35 1455.22 L1963.35 1452.02 Z" fill="#9eb1be" fill-rule="evenodd" fill-opacity="1" /><path clip-path="url(#clip600)" d="M 0 0 M2003.09 1450.55 Q2005.81 1451.14 2007.34 1452.98 Q2008.88 1454.82 2008.88 1457.53 Q2008.88 1461.69 2006.02 1463.96 Q2003.16 1466.24 1997.9 1466.24 Q1996.13 1466.24 1994.25 1465.88 Q1992.38 1465.54 1990.39 1464.85 L1990.39 1461.18 Q1991.97 1462.1 1993.85 1462.57 Q1995.73 1463.04 1997.78 1463.04 Q2001.36 1463.04 2003.22 1461.63 Q2005.1 1460.22 2005.1 1457.53 Q2005.1 1455.05 2003.35 1453.66 Q2001.62 1452.25 1998.52 1452.25 L1995.24 1452.25 L1995.24 1449.12 L1998.67 1449.12 Q2001.47 1449.12 2002.95 1448.01 Q2004.44 1446.89 2004.44 1444.78 Q2004.44 1442.62 2002.9 1441.47 Q2001.37 1440.3 1998.52 1440.3 Q1996.95 1440.3 1995.17 1440.64 Q1993.38 1440.98 1991.24 1441.69 L1991.24 1438.31 Q1993.4 1437.71 1995.28 1437.41 Q1997.18 1437.11 1998.85 1437.11 Q2003.18 1437.11 2005.7 1439.08 Q2008.22 1441.04 2008.22 1444.38 Q2008.22 1446.72 2006.89 1448.33 Q2005.55 1449.93 2003.09 1450.55 Z" fill="#9eb1be" fill-rule="evenodd" fill-opacity="1" /><path clip-path="url(#clip600)" d="M 0 0 M2247.69 1489.17 L2255.33 1489.17 L2255.33 1462.8 L2247.02 1464.47 L2247.02 1460.21 L2255.28 1458.54 L2259.96 1458.54 L2259.96 1489.17 L2267.6 1489.17 L2267.6 1493.1 L2247.69 1493.1 L2247.69 1489.17 Z" fill="#9eb1be" fill-rule="evenodd" fill-opacity="1" /><path clip-path="url(#clip600)" d="M 0 0 M2282.67 1461.62 Q2279.06 1461.62 2277.23 1465.19 Q2275.42 1468.73 2275.42 1475.86 Q2275.42 1482.97 2277.23 1486.53 Q2279.06 1490.07 2282.67 1490.07 Q2286.3 1490.07 2288.11 1486.53 Q2289.94 1482.97 2289.94 1475.86 Q2289.94 1468.73 2288.11 1465.19 Q2286.3 1461.62 2282.67 1461.62 M2282.67 1457.92 Q2288.48 1457.92 2291.53 1462.53 Q2294.61 1467.11 2294.61 1475.86 Q2294.61 1484.59 2291.53 1489.19 Q2288.48 1493.78 2282.67 1493.78 Q2276.86 1493.78 2273.78 1489.19 Q2270.72 1484.59 2270.72 1475.86 Q2270.72 1467.11 2273.78 1462.53 Q2276.86 1457.92 2282.67 1457.92 Z" fill="#9eb1be" fill-rule="evenodd" fill-opacity="1" /><path clip-path="url(#clip600)" d="M 0 0 M2294.61 1452.02 L2318.72 1452.02 L2318.72 1455.22 L2294.61 1455.22 L2294.61 1452.02 Z" fill="#9eb1be" fill-rule="evenodd" fill-opacity="1" /><path clip-path="url(#clip600)" d="M 0 0 M2326.12 1462.5 L2339.37 1462.5 L2339.37 1465.69 L2321.54 1465.69 L2321.54 1462.5 Q2323.71 1460.26 2327.43 1456.5 Q2331.17 1452.72 2332.13 1451.63 Q2333.96 1449.58 2334.67 1448.16 Q2335.41 1446.74 2335.41 1445.36 Q2335.41 1443.12 2333.83 1441.71 Q2332.27 1440.3 2329.75 1440.3 Q2327.96 1440.3 2325.96 1440.92 Q2323.99 1441.54 2321.73 1442.8 L2321.73 1438.97 Q2324.03 1438.05 2326.02 1437.58 Q2328.01 1437.11 2329.67 1437.11 Q2334.03 1437.11 2336.63 1439.29 Q2339.22 1441.47 2339.22 1445.12 Q2339.22 1446.85 2338.57 1448.41 Q2337.93 1449.95 2336.21 1452.06 Q2335.74 1452.6 2333.22 1455.22 Q2330.7 1457.81 2326.12 1462.5 Z" fill="#9eb1be" fill-rule="evenodd" fill-opacity="1" /><path clip-path="url(#clip600)" d="M 0 0 M1200.34 1524.66 L1206.2 1524.66 L1206.2 1574.19 L1200.34 1574.19 L1200.34 1524.66 Z" fill="#9eb1be" fill-rule="evenodd" fill-opacity="1" /><path clip-path="url(#clip600)" d="M 0 0 M1226.15 1542.64 Q1221.44 1542.64 1218.71 1546.34 Q1215.97 1550 1215.97 1556.39 Q1215.97 1562.79 1218.67 1566.48 Q1221.41 1570.14 1226.15 1570.14 Q1230.83 1570.14 1233.57 1566.45 Q1236.31 1562.76 1236.31 1556.39 Q1236.31 1550.06 1233.57 1546.37 Q1230.83 1542.64 1226.15 1542.64 M1226.15 1537.68 Q1233.79 1537.68 1238.15 1542.64 Q1242.51 1547.61 1242.51 1556.39 Q1242.51 1565.15 1238.15 1570.14 Q1233.79 1575.11 1226.15 1575.11 Q1218.48 1575.11 1214.12 1570.14 Q1209.79 1565.15 1209.79 1556.39 Q1209.79 1547.61 1214.12 1542.64 Q1218.48 1537.68 1226.15 1537.68 Z" fill="#9eb1be" fill-rule="evenodd" fill-opacity="1" /><path clip-path="url(#clip600)" d="M 0 0 M1272.11 1555.95 Q1272.11 1549.58 1269.47 1546.08 Q1266.86 1542.58 1262.12 1542.58 Q1257.41 1542.58 1254.77 1546.08 Q1252.16 1549.58 1252.16 1555.95 Q1252.16 1562.28 1254.77 1565.78 Q1257.41 1569.28 1262.12 1569.28 Q1266.86 1569.28 1269.47 1565.78 Q1272.11 1562.28 1272.11 1555.95 M1277.97 1569.76 Q1277.97 1578.86 1273.93 1583.29 Q1269.89 1587.74 1261.55 1587.74 Q1258.46 1587.74 1255.72 1587.27 Q1252.99 1586.82 1250.41 1585.87 L1250.41 1580.17 Q1252.99 1581.57 1255.5 1582.24 Q1258.01 1582.91 1260.62 1582.91 Q1266.39 1582.91 1269.25 1579.88 Q1272.11 1576.89 1272.11 1570.81 L1272.11 1567.92 Q1270.3 1571.07 1267.47 1572.63 Q1264.64 1574.19 1260.69 1574.19 Q1254.13 1574.19 1250.12 1569.19 Q1246.11 1564.19 1246.11 1555.95 Q1246.11 1547.67 1250.12 1542.68 Q1254.13 1537.68 1260.69 1537.68 Q1264.64 1537.68 1267.47 1539.24 Q1270.3 1540.8 1272.11 1543.95 L1272.11 1538.54 L1277.97 1538.54 L1277.97 1569.76 Z" fill="#9eb1be" fill-rule="evenodd" fill-opacity="1" /><path clip-path="url(#clip600)" d="M 0 0 M1282.94 1570.68 L1289.43 1570.68 L1289.43 1551.24 L1282.33 1552.54 L1282.33 1548.85 L1289.65 1547.61 L1294.01 1547.61 L1294.01 1570.68 L1300.54 1570.68 L1300.54 1574.19 L1282.94 1574.19 L1282.94 1570.68 Z" fill="#9eb1be" fill-rule="evenodd" fill-opacity="1" /><path clip-path="url(#clip600)" d="M 0 0 M1318.68 1552.64 Q1317.09 1549.9 1313.87 1549.9 Q1310.66 1549.9 1309.07 1552.64 Q1307.44 1555.37 1307.44 1560.85 Q1307.44 1566.36 1309.07 1569.09 Q1310.66 1571.83 1313.87 1571.83 Q1317.09 1571.83 1318.68 1569.09 Q1320.3 1566.36 1320.3 1560.85 Q1320.3 1555.37 1318.68 1552.64 M1313.87 1547.07 Q1319 1547.07 1321.7 1550.6 Q1324.41 1554.13 1324.41 1560.85 Q1324.41 1567.6 1321.7 1571.13 Q1319 1574.66 1313.87 1574.66 Q1308.72 1574.66 1306.01 1571.13 Q1303.31 1567.6 1303.31 1560.85 Q1303.31 1554.13 1306.01 1550.6 Q1308.72 1547.07 1313.87 1547.07 Z" fill="#9eb1be" fill-rule="evenodd" fill-opacity="1" /><path clip-path="url(#clip600)" d="M 0 0 M1344.62 1524.72 Q1340.36 1532.04 1338.29 1539.21 Q1336.22 1546.37 1336.22 1553.72 Q1336.22 1561.07 1338.29 1568.3 Q1340.39 1575.49 1344.62 1582.78 L1339.53 1582.78 Q1334.75 1575.3 1332.37 1568.07 Q1330.01 1560.85 1330.01 1553.72 Q1330.01 1546.62 1332.37 1539.43 Q1334.72 1532.24 1339.53 1524.72 L1344.62 1524.72 Z" fill="#9eb1be" fill-rule="evenodd" fill-opacity="1" /><path clip-path="url(#clip600)" d="M 0 0 M1376.58 1532.9 Q1373.33 1530.68 1365.72 1530.68 Q1357.67 1530.68 1357.67 1534.4 Q1357.67 1537.33 1366.07 1538.86 Q1372.69 1540.03 1376.42 1543.6 Q1380.94 1547.9 1380.94 1556.71 Q1380.94 1565.15 1376.58 1570.11 Q1372.22 1575.11 1364.58 1575.11 Q1356.97 1575.11 1352.58 1570.11 Q1348.22 1565.15 1348.22 1556.39 Q1348.22 1549.9 1352.58 1544.65 Q1354.26 1542.61 1356.65 1541.47 Q1351.69 1538.95 1351.69 1534.46 Q1351.69 1525.81 1365.72 1525.81 Q1372.76 1525.81 1376.58 1528.03 L1376.58 1532.9 M1361.04 1543.06 Q1358.88 1543.98 1357.13 1546.3 Q1354.39 1549.9 1354.39 1556.39 Q1354.39 1562.85 1357.1 1566.48 Q1359.83 1570.14 1364.58 1570.14 Q1369.26 1570.14 1371.99 1566.45 Q1374.73 1562.76 1374.73 1556.71 Q1374.73 1550.38 1371.83 1547.32 Q1368.75 1544.04 1364.74 1543.69 Q1362.7 1543.5 1361.04 1543.06 Z" fill="#9eb1be" fill-rule="evenodd" fill-opacity="1" /><path clip-path="url(#clip600)" d="M 0 0 M1386.16 1524.72 L1391.25 1524.72 Q1396.02 1532.24 1398.38 1539.43 Q1400.77 1546.62 1400.77 1553.72 Q1400.77 1560.85 1398.38 1568.07 Q1396.02 1575.3 1391.25 1582.78 L1386.16 1582.78 Q1390.39 1575.49 1392.46 1568.3 Q1394.56 1561.07 1394.56 1553.72 Q1394.56 1546.37 1392.46 1539.21 Q1390.39 1532.04 1386.16 1524.72 Z" fill="#9eb1be" fill-rule="evenodd" fill-opacity="1" /><polyline clip-path="url(#clip602)" style="stroke:#adb2b7; stroke-width:2; stroke-opacity:0.1; fill:none" points="
  248.351,1314.21 2352.76,1314.21 
  "/>
<polyline clip-path="url(#clip602)" style="stroke:#adb2b7; stroke-width:2; stroke-opacity:0.1; fill:none" points="
  248.351,1071.74 2352.76,1071.74 
  "/>
<polyline clip-path="url(#clip602)" style="stroke:#adb2b7; stroke-width:2; stroke-opacity:0.1; fill:none" points="
  248.351,829.26 2352.76,829.26 
  "/>
<polyline clip-path="url(#clip602)" style="stroke:#adb2b7; stroke-width:2; stroke-opacity:0.1; fill:none" points="
  248.351,586.784 2352.76,586.784 
  "/>
<polyline clip-path="url(#clip602)" style="stroke:#adb2b7; stroke-width:2; stroke-opacity:0.1; fill:none" points="
  248.351,344.308 2352.76,344.308 
  "/>
<polyline clip-path="url(#clip602)" style="stroke:#adb2b7; stroke-width:2; stroke-opacity:0.1; fill:none" points="
  248.351,101.832 2352.76,101.832 
  "/>
<polyline clip-path="url(#clip600)" style="stroke:#adb2b7; stroke-width:4; stroke-opacity:1; fill:none" points="
  248.351,1410.9 248.351,47.2441 
  "/>
<polyline clip-path="url(#clip600)" style="stroke:#adb2b7; stroke-width:4; stroke-opacity:1; fill:none" points="
  248.351,1314.21 273.604,1314.21 
  "/>
<polyline clip-path="url(#clip600)" style="stroke:#adb2b7; stroke-width:4; stroke-opacity:1; fill:none" points="
  248.351,1071.74 273.604,1071.74 
  "/>
<polyline clip-path="url(#clip600)" style="stroke:#adb2b7; stroke-width:4; stroke-opacity:1; fill:none" points="
  248.351,829.26 273.604,829.26 
  "/>
<polyline clip-path="url(#clip600)" style="stroke:#adb2b7; stroke-width:4; stroke-opacity:1; fill:none" points="
  248.351,586.784 273.604,586.784 
  "/>
<polyline clip-path="url(#clip600)" style="stroke:#adb2b7; stroke-width:4; stroke-opacity:1; fill:none" points="
  248.351,344.308 273.604,344.308 
  "/>
<polyline clip-path="url(#clip600)" style="stroke:#adb2b7; stroke-width:4; stroke-opacity:1; fill:none" points="
  248.351,101.832 273.604,101.832 
  "/>
<path clip-path="url(#clip600)" d="M 0 0 M119.483 1334 L127.122 1334 L127.122 1307.64 L118.812 1309.3 L118.812 1305.05 L127.075 1303.38 L131.751 1303.38 L131.751 1334 L139.39 1334 L139.39 1337.94 L119.483 1337.94 L119.483 1334 Z" fill="#9eb1be" fill-rule="evenodd" fill-opacity="1" /><path clip-path="url(#clip600)" d="M 0 0 M154.46 1306.46 Q150.849 1306.46 149.02 1310.02 Q147.214 1313.56 147.214 1320.69 Q147.214 1327.8 149.02 1331.36 Q150.849 1334.91 154.46 1334.91 Q158.094 1334.91 159.899 1331.36 Q161.728 1327.8 161.728 1320.69 Q161.728 1313.56 159.899 1310.02 Q158.094 1306.46 154.46 1306.46 M154.46 1302.75 Q160.27 1302.75 163.325 1307.36 Q166.404 1311.94 166.404 1320.69 Q166.404 1329.42 163.325 1334.03 Q160.27 1338.61 154.46 1338.61 Q148.649 1338.61 145.571 1334.03 Q142.515 1329.42 142.515 1320.69 Q142.515 1311.94 145.571 1307.36 Q148.649 1302.75 154.46 1302.75 Z" fill="#9eb1be" fill-rule="evenodd" fill-opacity="1" /><path clip-path="url(#clip600)" d="M 0 0 M166.949 1307.33 L173.156 1307.33 L173.156 1285.91 L166.404 1287.26 L166.404 1283.8 L173.118 1282.45 L176.918 1282.45 L176.918 1307.33 L183.124 1307.33 L183.124 1310.53 L166.949 1310.53 L166.949 1307.33 Z" fill="#9eb1be" fill-rule="evenodd" fill-opacity="1" /><path clip-path="url(#clip600)" d="M 0 0 M187.243 1305.75 L191.211 1305.75 L191.211 1310.53 L187.243 1310.53 L187.243 1305.75 Z" fill="#9eb1be" fill-rule="evenodd" fill-opacity="1" /><path clip-path="url(#clip600)" d="M 0 0 M195.368 1282.45 L210.283 1282.45 L210.283 1285.65 L198.847 1285.65 L198.847 1292.53 Q199.675 1292.25 200.502 1292.12 Q201.33 1291.96 202.158 1291.96 Q206.859 1291.96 209.605 1294.54 Q212.351 1297.12 212.351 1301.52 Q212.351 1306.05 209.53 1308.57 Q206.709 1311.07 201.575 1311.07 Q199.807 1311.07 197.963 1310.77 Q196.139 1310.47 194.183 1309.87 L194.183 1306.05 Q195.876 1306.97 197.681 1307.42 Q199.487 1307.88 201.499 1307.88 Q204.753 1307.88 206.653 1306.16 Q208.552 1304.45 208.552 1301.52 Q208.552 1298.59 206.653 1296.87 Q204.753 1295.16 201.499 1295.16 Q199.976 1295.16 198.452 1295.5 Q196.948 1295.84 195.368 1296.55 L195.368 1282.45 Z" fill="#9eb1be" fill-rule="evenodd" fill-opacity="1" /><path clip-path="url(#clip600)" d="M 0 0 M117.565 1091.53 L125.203 1091.53 L125.203 1065.16 L116.893 1066.83 L116.893 1062.57 L125.157 1060.9 L129.833 1060.9 L129.833 1091.53 L137.472 1091.53 L137.472 1095.46 L117.565 1095.46 L117.565 1091.53 Z" fill="#9eb1be" fill-rule="evenodd" fill-opacity="1" /><path clip-path="url(#clip600)" d="M 0 0 M152.541 1063.98 Q148.93 1063.98 147.101 1067.55 Q145.296 1071.09 145.296 1078.22 Q145.296 1085.32 147.101 1088.89 Q148.93 1092.43 152.541 1092.43 Q156.175 1092.43 157.981 1088.89 Q159.81 1085.32 159.81 1078.22 Q159.81 1071.09 157.981 1067.55 Q156.175 1063.98 152.541 1063.98 M152.541 1060.28 Q158.351 1060.28 161.407 1064.88 Q164.486 1069.47 164.486 1078.22 Q164.486 1086.94 161.407 1091.55 Q158.351 1096.13 152.541 1096.13 Q146.731 1096.13 143.652 1091.55 Q140.597 1086.94 140.597 1078.22 Q140.597 1069.47 143.652 1064.88 Q146.731 1060.28 152.541 1060.28 Z" fill="#9eb1be" fill-rule="evenodd" fill-opacity="1" /><path clip-path="url(#clip600)" d="M 0 0 M169.056 1064.86 L182.315 1064.86 L182.315 1068.05 L164.486 1068.05 L164.486 1064.86 Q166.648 1062.62 170.372 1058.86 Q174.115 1055.08 175.074 1053.98 Q176.899 1051.93 177.613 1050.52 Q178.347 1049.09 178.347 1047.72 Q178.347 1045.48 176.767 1044.07 Q175.206 1042.66 172.686 1042.66 Q170.899 1042.66 168.905 1043.28 Q166.931 1043.9 164.674 1045.16 L164.674 1041.33 Q166.968 1040.41 168.962 1039.93 Q170.955 1039.46 172.611 1039.46 Q176.974 1039.46 179.569 1041.65 Q182.165 1043.83 182.165 1047.48 Q182.165 1049.21 181.507 1050.77 Q180.867 1052.31 179.156 1054.42 Q178.685 1054.96 176.165 1057.58 Q173.645 1060.17 169.056 1064.86 Z" fill="#9eb1be" fill-rule="evenodd" fill-opacity="1" /><path clip-path="url(#clip600)" d="M 0 0 M186.434 1063.28 L190.403 1063.28 L190.403 1068.05 L186.434 1068.05 L186.434 1063.28 Z" fill="#9eb1be" fill-rule="evenodd" fill-opacity="1" /><path clip-path="url(#clip600)" d="M 0 0 M202.647 1042.47 Q199.713 1042.47 198.227 1045.37 Q196.76 1048.25 196.76 1054.04 Q196.76 1059.81 198.227 1062.71 Q199.713 1065.59 202.647 1065.59 Q205.599 1065.59 207.066 1062.71 Q208.552 1059.81 208.552 1054.04 Q208.552 1048.25 207.066 1045.37 Q205.599 1042.47 202.647 1042.47 M202.647 1039.46 Q207.367 1039.46 209.85 1043.21 Q212.351 1046.93 212.351 1054.04 Q212.351 1061.13 209.85 1064.87 Q207.367 1068.6 202.647 1068.6 Q197.926 1068.6 195.424 1064.87 Q192.942 1061.13 192.942 1054.04 Q192.942 1046.93 195.424 1043.21 Q197.926 1039.46 202.647 1039.46 Z" fill="#9eb1be" fill-rule="evenodd" fill-opacity="1" /><path clip-path="url(#clip600)" d="M 0 0 M118.373 849.052 L126.012 849.052 L126.012 822.686 L117.702 824.353 L117.702 820.094 L125.966 818.427 L130.642 818.427 L130.642 849.052 L138.281 849.052 L138.281 852.987 L118.373 852.987 L118.373 849.052 Z" fill="#9eb1be" fill-rule="evenodd" fill-opacity="1" /><path clip-path="url(#clip600)" d="M 0 0 M153.35 821.506 Q149.739 821.506 147.91 825.071 Q146.105 828.612 146.105 835.742 Q146.105 842.848 147.91 846.413 Q149.739 849.955 153.35 849.955 Q156.984 849.955 158.79 846.413 Q160.618 842.848 160.618 835.742 Q160.618 828.612 158.79 825.071 Q156.984 821.506 153.35 821.506 M153.35 817.802 Q159.16 817.802 162.216 822.409 Q165.294 826.992 165.294 835.742 Q165.294 844.469 162.216 849.075 Q159.16 853.658 153.35 853.658 Q147.54 853.658 144.461 849.075 Q141.406 844.469 141.406 835.742 Q141.406 826.992 144.461 822.409 Q147.54 817.802 153.35 817.802 Z" fill="#9eb1be" fill-rule="evenodd" fill-opacity="1" /><path clip-path="url(#clip600)" d="M 0 0 M169.865 822.379 L183.124 822.379 L183.124 825.577 L165.294 825.577 L165.294 822.379 Q167.457 820.141 171.181 816.38 Q174.924 812.599 175.883 811.508 Q177.707 809.458 178.422 808.048 Q179.156 806.618 179.156 805.246 Q179.156 803.007 177.576 801.597 Q176.015 800.186 173.495 800.186 Q171.708 800.186 169.714 800.807 Q167.739 801.428 165.482 802.688 L165.482 798.851 Q167.777 797.929 169.771 797.459 Q171.764 796.989 173.419 796.989 Q177.783 796.989 180.378 799.171 Q182.974 801.352 182.974 805.001 Q182.974 806.731 182.315 808.292 Q181.676 809.835 179.964 811.941 Q179.494 812.486 176.974 815.101 Q174.454 817.696 169.865 822.379 Z" fill="#9eb1be" fill-rule="evenodd" fill-opacity="1" /><path clip-path="url(#clip600)" d="M 0 0 M187.243 820.8 L191.211 820.8 L191.211 825.577 L187.243 825.577 L187.243 820.8 Z" fill="#9eb1be" fill-rule="evenodd" fill-opacity="1" /><path clip-path="url(#clip600)" d="M 0 0 M195.368 797.497 L210.283 797.497 L210.283 800.694 L198.847 800.694 L198.847 807.578 Q199.675 807.296 200.502 807.164 Q201.33 807.013 202.158 807.013 Q206.859 807.013 209.605 809.59 Q212.351 812.167 212.351 816.568 Q212.351 821.1 209.53 823.621 Q206.709 826.122 201.575 826.122 Q199.807 826.122 197.963 825.821 Q196.139 825.52 194.183 824.918 L194.183 821.1 Q195.876 822.022 197.681 822.473 Q199.487 822.925 201.499 822.925 Q204.753 822.925 206.653 821.213 Q208.552 819.502 208.552 816.568 Q208.552 813.634 206.653 811.922 Q204.753 810.211 201.499 810.211 Q199.976 810.211 198.452 810.549 Q196.948 810.888 195.368 811.603 L195.368 797.497 Z" fill="#9eb1be" fill-rule="evenodd" fill-opacity="1" /><path clip-path="url(#clip600)" d="M 0 0 M116.906 606.576 L124.545 606.576 L124.545 580.211 L116.235 581.877 L116.235 577.618 L124.499 575.951 L129.175 575.951 L129.175 606.576 L136.814 606.576 L136.814 610.511 L116.906 610.511 L116.906 606.576 Z" fill="#9eb1be" fill-rule="evenodd" fill-opacity="1" /><path clip-path="url(#clip600)" d="M 0 0 M151.883 579.03 Q148.272 579.03 146.443 582.595 Q144.638 586.137 144.638 593.266 Q144.638 600.373 146.443 603.937 Q148.272 607.479 151.883 607.479 Q155.517 607.479 157.323 603.937 Q159.151 600.373 159.151 593.266 Q159.151 586.137 157.323 582.595 Q155.517 579.03 151.883 579.03 M151.883 575.326 Q157.693 575.326 160.749 579.933 Q163.827 584.516 163.827 593.266 Q163.827 601.993 160.749 606.599 Q157.693 611.183 151.883 611.183 Q146.073 611.183 142.994 606.599 Q139.939 601.993 139.939 593.266 Q139.939 584.516 142.994 579.933 Q146.073 575.326 151.883 575.326 Z" fill="#9eb1be" fill-rule="evenodd" fill-opacity="1" /><path clip-path="url(#clip600)" d="M 0 0 M176.523 567.961 Q179.25 568.544 180.773 570.387 Q182.315 572.23 182.315 574.938 Q182.315 579.095 179.457 581.371 Q176.598 583.646 171.332 583.646 Q169.564 583.646 167.683 583.289 Q165.821 582.951 163.827 582.255 L163.827 578.587 Q165.407 579.509 167.288 579.979 Q169.169 580.449 171.219 580.449 Q174.792 580.449 176.654 579.038 Q178.535 577.628 178.535 574.938 Q178.535 572.456 176.786 571.064 Q175.056 569.653 171.952 569.653 L168.68 569.653 L168.68 566.531 L172.103 566.531 Q174.905 566.531 176.391 565.422 Q177.877 564.293 177.877 562.187 Q177.877 560.024 176.334 558.877 Q174.811 557.71 171.952 557.71 Q170.391 557.71 168.604 558.049 Q166.818 558.388 164.674 559.102 L164.674 555.717 Q166.837 555.115 168.717 554.814 Q170.617 554.513 172.291 554.513 Q176.617 554.513 179.137 556.488 Q181.657 558.444 181.657 561.792 Q181.657 564.124 180.322 565.741 Q178.986 567.34 176.523 567.961 Z" fill="#9eb1be" fill-rule="evenodd" fill-opacity="1" /><path clip-path="url(#clip600)" d="M 0 0 M186.434 578.324 L190.403 578.324 L190.403 583.101 L186.434 583.101 L186.434 578.324 Z" fill="#9eb1be" fill-rule="evenodd" fill-opacity="1" /><path clip-path="url(#clip600)" d="M 0 0 M202.647 557.522 Q199.713 557.522 198.227 560.419 Q196.76 563.296 196.76 569.089 Q196.76 574.863 198.227 577.76 Q199.713 580.637 202.647 580.637 Q205.599 580.637 207.066 577.76 Q208.552 574.863 208.552 569.089 Q208.552 563.296 207.066 560.419 Q205.599 557.522 202.647 557.522 M202.647 554.513 Q207.367 554.513 209.85 558.256 Q212.351 561.98 212.351 569.089 Q212.351 576.18 209.85 579.922 Q207.367 583.646 202.647 583.646 Q197.926 583.646 195.424 579.922 Q192.942 576.18 192.942 569.089 Q192.942 561.98 195.424 558.256 Q197.926 554.513 202.647 554.513 Z" fill="#9eb1be" fill-rule="evenodd" fill-opacity="1" /><path clip-path="url(#clip600)" d="M 0 0 M117.715 364.1 L125.354 364.1 L125.354 337.735 L117.044 339.402 L117.044 335.142 L125.308 333.476 L129.983 333.476 L129.983 364.1 L137.622 364.1 L137.622 368.036 L117.715 368.036 L117.715 364.1 Z" fill="#9eb1be" fill-rule="evenodd" fill-opacity="1" /><path clip-path="url(#clip600)" d="M 0 0 M152.692 336.554 Q149.081 336.554 147.252 340.119 Q145.446 343.661 145.446 350.79 Q145.446 357.897 147.252 361.462 Q149.081 365.003 152.692 365.003 Q156.326 365.003 158.131 361.462 Q159.96 357.897 159.96 350.79 Q159.96 343.661 158.131 340.119 Q156.326 336.554 152.692 336.554 M152.692 332.851 Q158.502 332.851 161.557 337.457 Q164.636 342.04 164.636 350.79 Q164.636 359.517 161.557 364.124 Q158.502 368.707 152.692 368.707 Q146.882 368.707 143.803 364.124 Q140.747 359.517 140.747 350.79 Q140.747 342.04 143.803 337.457 Q146.882 332.851 152.692 332.851 Z" fill="#9eb1be" fill-rule="evenodd" fill-opacity="1" /><path clip-path="url(#clip600)" d="M 0 0 M177.331 325.485 Q180.058 326.068 181.582 327.911 Q183.124 329.754 183.124 332.463 Q183.124 336.619 180.265 338.895 Q177.407 341.171 172.14 341.171 Q170.372 341.171 168.492 340.813 Q166.63 340.475 164.636 339.779 L164.636 336.111 Q166.216 337.033 168.097 337.503 Q169.977 337.973 172.027 337.973 Q175.601 337.973 177.463 336.563 Q179.344 335.152 179.344 332.463 Q179.344 329.98 177.595 328.588 Q175.864 327.178 172.761 327.178 L169.488 327.178 L169.488 324.056 L172.911 324.056 Q175.714 324.056 177.2 322.946 Q178.685 321.817 178.685 319.711 Q178.685 317.548 177.143 316.401 Q175.62 315.235 172.761 315.235 Q171.2 315.235 169.413 315.573 Q167.626 315.912 165.482 316.627 L165.482 313.241 Q167.645 312.639 169.526 312.338 Q171.426 312.037 173.1 312.037 Q177.425 312.037 179.946 314.012 Q182.466 315.968 182.466 319.316 Q182.466 321.648 181.13 323.266 Q179.795 324.864 177.331 325.485 Z" fill="#9eb1be" fill-rule="evenodd" fill-opacity="1" /><path clip-path="url(#clip600)" d="M 0 0 M187.243 335.848 L191.211 335.848 L191.211 340.625 L187.243 340.625 L187.243 335.848 Z" fill="#9eb1be" fill-rule="evenodd" fill-opacity="1" /><path clip-path="url(#clip600)" d="M 0 0 M195.368 312.545 L210.283 312.545 L210.283 315.743 L198.847 315.743 L198.847 322.626 Q199.675 322.344 200.502 322.212 Q201.33 322.062 202.158 322.062 Q206.859 322.062 209.605 324.639 Q212.351 327.215 212.351 331.616 Q212.351 336.149 209.53 338.669 Q206.709 341.171 201.575 341.171 Q199.807 341.171 197.963 340.87 Q196.139 340.569 194.183 339.967 L194.183 336.149 Q195.876 337.071 197.681 337.522 Q199.487 337.973 201.499 337.973 Q204.753 337.973 206.653 336.262 Q208.552 334.55 208.552 331.616 Q208.552 328.682 206.653 326.971 Q204.753 325.259 201.499 325.259 Q199.976 325.259 198.452 325.598 Q196.948 325.936 195.368 326.651 L195.368 312.545 Z" fill="#9eb1be" fill-rule="evenodd" fill-opacity="1" /><path clip-path="url(#clip600)" d="M 0 0 M114.931 121.625 L122.57 121.625 L122.57 95.2591 L114.26 96.9258 L114.26 92.6666 L122.524 90.9999 L127.2 90.9999 L127.2 121.625 L134.839 121.625 L134.839 125.56 L114.931 125.56 L114.931 121.625 Z" fill="#9eb1be" fill-rule="evenodd" fill-opacity="1" /><path clip-path="url(#clip600)" d="M 0 0 M149.908 94.0786 Q146.297 94.0786 144.468 97.6434 Q142.663 101.185 142.663 108.315 Q142.663 115.421 144.468 118.986 Q146.297 122.528 149.908 122.528 Q153.542 122.528 155.348 118.986 Q157.177 115.421 157.177 108.315 Q157.177 101.185 155.348 97.6434 Q153.542 94.0786 149.908 94.0786 M149.908 90.3749 Q155.718 90.3749 158.774 94.9814 Q161.852 99.5647 161.852 108.315 Q161.852 117.041 158.774 121.648 Q155.718 126.231 149.908 126.231 Q144.098 126.231 141.019 121.648 Q137.964 117.041 137.964 108.315 Q137.964 99.5647 141.019 94.9814 Q144.098 90.3749 149.908 90.3749 Z" fill="#9eb1be" fill-rule="evenodd" fill-opacity="1" /><path clip-path="url(#clip600)" d="M 0 0 M174.529 73.3797 L164.937 88.3695 L174.529 88.3695 L174.529 73.3797 M173.532 70.0695 L178.309 70.0695 L178.309 88.3695 L182.315 88.3695 L182.315 91.5292 L178.309 91.5292 L178.309 98.1495 L174.529 98.1495 L174.529 91.5292 L161.852 91.5292 L161.852 87.8617 L173.532 70.0695 Z" fill="#9eb1be" fill-rule="evenodd" fill-opacity="1" /><path clip-path="url(#clip600)" d="M 0 0 M186.434 93.3723 L190.403 93.3723 L190.403 98.1495 L186.434 98.1495 L186.434 93.3723 Z" fill="#9eb1be" fill-rule="evenodd" fill-opacity="1" /><path clip-path="url(#clip600)" d="M 0 0 M202.647 72.5709 Q199.713 72.5709 198.227 75.4673 Q196.76 78.3449 196.76 84.1377 Q196.76 89.9117 198.227 92.8081 Q199.713 95.6857 202.647 95.6857 Q205.599 95.6857 207.066 92.8081 Q208.552 89.9117 208.552 84.1377 Q208.552 78.3449 207.066 75.4673 Q205.599 72.5709 202.647 72.5709 M202.647 69.5617 Q207.367 69.5617 209.85 73.3044 Q212.351 77.0284 212.351 84.1377 Q212.351 91.2283 209.85 94.971 Q207.367 98.6949 202.647 98.6949 Q197.926 98.6949 195.424 94.971 Q192.942 91.2283 192.942 84.1377 Q192.942 77.0284 195.424 73.3044 Q197.926 69.5617 202.647 69.5617 Z" fill="#9eb1be" fill-rule="evenodd" fill-opacity="1" /><path clip-path="url(#clip600)" d="M 0 0 M14.479 982.457 L14.479 976.601 L64.0042 976.601 L64.0042 982.457 L14.479 982.457 Z" fill="#9eb1be" fill-rule="evenodd" fill-opacity="1" /><path clip-path="url(#clip600)" d="M 0 0 M32.4621 956.644 Q32.4621 961.355 36.1542 964.092 Q39.8145 966.83 46.212 966.83 Q52.6095 966.83 56.3017 964.124 Q59.9619 961.387 59.9619 956.644 Q59.9619 951.966 56.2698 949.228 Q52.5777 946.491 46.212 946.491 Q39.8781 946.491 36.186 949.228 Q32.4621 951.966 32.4621 956.644 M27.4968 956.644 Q27.4968 949.006 32.4621 944.645 Q37.4273 940.285 46.212 940.285 Q54.9649 940.285 59.9619 944.645 Q64.9272 949.006 64.9272 956.644 Q64.9272 964.315 59.9619 968.676 Q54.9649 973.004 46.212 973.004 Q37.4273 973.004 32.4621 968.676 Q27.4968 964.315 27.4968 956.644 Z" fill="#9eb1be" fill-rule="evenodd" fill-opacity="1" /><path clip-path="url(#clip600)" d="M 0 0 M45.7664 910.684 Q39.4007 910.684 35.8996 913.326 Q32.3984 915.936 32.3984 920.678 Q32.3984 925.389 35.8996 928.031 Q39.4007 930.64 45.7664 930.64 Q52.1003 930.64 55.6014 928.031 Q59.1026 925.389 59.1026 920.678 Q59.1026 915.936 55.6014 913.326 Q52.1003 910.684 45.7664 910.684 M59.58 904.828 Q68.683 904.828 73.1071 908.87 Q77.5631 912.912 77.5631 921.251 Q77.5631 924.338 77.0857 927.076 Q76.6401 929.813 75.6852 932.391 L69.9879 932.391 Q71.3884 929.813 72.0568 927.298 Q72.7252 924.784 72.7252 922.174 Q72.7252 916.413 69.7015 913.549 Q66.7096 910.684 60.6303 910.684 L57.7339 910.684 Q60.885 912.498 62.4446 915.331 Q64.0042 918.164 64.0042 922.11 Q64.0042 928.667 59.0071 932.677 Q54.01 936.688 45.7664 936.688 Q37.491 936.688 32.4939 932.677 Q27.4968 928.667 27.4968 922.11 Q27.4968 918.164 29.0564 915.331 Q30.616 912.498 33.7671 910.684 L28.3562 910.684 L28.3562 904.828 L59.58 904.828 Z" fill="#9eb1be" fill-rule="evenodd" fill-opacity="1" /><path clip-path="url(#clip600)" d="M 0 0 M60.503 899.862 L60.503 893.369 L41.0558 893.369 L42.3608 900.467 L38.6686 900.467 L37.4273 893.146 L37.4273 888.786 L60.503 888.786 L60.503 882.261 L64.0042 882.261 L64.0042 899.862 L60.503 899.862 Z" fill="#9eb1be" fill-rule="evenodd" fill-opacity="1" /><path clip-path="url(#clip600)" d="M 0 0 M42.4562 864.119 Q39.719 865.71 39.719 868.925 Q39.719 872.14 42.4562 873.731 Q45.1935 875.354 50.668 875.354 Q56.1743 875.354 58.9116 873.731 Q61.6488 872.14 61.6488 868.925 Q61.6488 865.71 58.9116 864.119 Q56.1743 862.496 50.668 862.496 Q45.1935 862.496 42.4562 864.119 M36.8862 868.925 Q36.8862 863.801 40.4192 861.095 Q43.9522 858.39 50.668 858.39 Q57.4157 858.39 60.9486 861.095 Q64.4816 863.801 64.4816 868.925 Q64.4816 874.081 60.9486 876.787 Q57.4157 879.492 50.668 879.492 Q43.9522 879.492 40.4192 876.787 Q36.8862 874.081 36.8862 868.925 Z" fill="#9eb1be" fill-rule="evenodd" fill-opacity="1" /><path clip-path="url(#clip600)" d="M 0 0 M14.5426 838.179 Q21.8632 842.444 29.0246 844.512 Q36.186 846.581 43.5384 846.581 Q50.8908 846.581 58.1159 844.512 Q65.3091 842.412 72.5979 838.179 L72.5979 843.271 Q65.1182 848.045 57.8931 850.433 Q50.668 852.788 43.5384 852.788 Q36.4406 852.788 29.2474 850.433 Q22.0542 848.077 14.5426 843.271 L14.5426 838.179 Z" fill="#9eb1be" fill-rule="evenodd" fill-opacity="1" /><path clip-path="url(#clip600)" d="M 0 0 M35.3266 804.854 L35.3266 814.116 L45.9574 816.79 L45.9574 807.464 L35.3266 804.854 M17.2162 809.628 L30.4251 812.939 L30.4251 803.645 L17.2162 800.303 L17.2162 795.21 L30.4251 798.488 L30.4251 788.558 L35.3266 788.558 L35.3266 799.73 L45.9574 802.34 L45.9574 792.218 L50.8271 792.218 L50.8271 803.581 L64.0042 806.891 L64.0042 811.984 L50.8271 808.705 L50.8271 818.031 L64.0042 821.309 L64.0042 826.434 L50.8271 823.124 L50.8271 833.15 L45.9574 833.15 L45.9574 821.946 L35.3266 819.272 L35.3266 829.521 L30.4251 829.521 L30.4251 818.031 L17.2162 814.785 L17.2162 809.628 Z" fill="#9eb1be" fill-rule="evenodd" fill-opacity="1" /><path clip-path="url(#clip600)" d="M 0 0 M28.3562 761.695 L28.3562 755.838 L64.0042 755.838 L64.0042 761.695 L28.3562 761.695 M14.479 761.695 L14.479 755.838 L21.895 755.838 L21.895 761.695 L14.479 761.695 Z" fill="#9eb1be" fill-rule="evenodd" fill-opacity="1" /><path clip-path="url(#clip600)" d="M 0 0 M18.2347 743.902 L28.3562 743.902 L28.3562 731.839 L32.9077 731.839 L32.9077 743.902 L52.2594 743.902 Q56.6199 743.902 57.8613 742.725 Q59.1026 741.515 59.1026 737.855 L59.1026 731.839 L64.0042 731.839 L64.0042 737.855 Q64.0042 744.635 61.4897 747.213 Q58.9434 749.791 52.2594 749.791 L32.9077 749.791 L32.9077 754.088 L28.3562 754.088 L28.3562 749.791 L18.2347 749.791 L18.2347 743.902 Z" fill="#9eb1be" fill-rule="evenodd" fill-opacity="1" /><path clip-path="url(#clip600)" d="M 0 0 M44.7161 695.205 L47.5806 695.205 L47.5806 722.132 Q53.6281 721.75 56.8109 718.503 Q59.9619 715.225 59.9619 709.4 Q59.9619 706.027 59.1344 702.875 Q58.3069 699.693 56.6518 696.573 L62.1899 696.573 Q63.5267 699.724 64.227 703.035 Q64.9272 706.345 64.9272 709.75 Q64.9272 718.28 59.9619 723.278 Q54.9967 728.243 46.5303 728.243 Q37.7774 728.243 32.6531 723.532 Q27.4968 718.79 27.4968 710.769 Q27.4968 703.576 32.1438 699.406 Q36.7589 695.205 44.7161 695.205 M42.9973 701.061 Q38.1912 701.125 35.3266 703.767 Q32.4621 706.377 32.4621 710.705 Q32.4621 715.607 35.2312 718.567 Q38.0002 721.495 43.0292 721.941 L42.9973 701.061 Z" fill="#9eb1be" fill-rule="evenodd" fill-opacity="1" /><path clip-path="url(#clip600)" d="M 0 0 M33.8307 668.405 Q33.2578 669.392 33.0032 670.57 Q32.7167 671.715 32.7167 673.116 Q32.7167 678.081 35.9632 680.755 Q39.1779 683.396 45.2253 683.396 L64.0042 683.396 L64.0042 689.285 L28.3562 689.285 L28.3562 683.396 L33.8944 683.396 Q30.6479 681.55 29.0883 678.59 Q27.4968 675.63 27.4968 671.397 Q27.4968 670.792 27.5923 670.06 Q27.656 669.328 27.8151 668.437 L33.8307 668.405 Z" fill="#9eb1be" fill-rule="evenodd" fill-opacity="1" /><path clip-path="url(#clip600)" d="M 0 0 M46.0847 646.062 Q46.0847 653.159 47.7079 655.897 Q49.3312 658.634 53.2461 658.634 Q56.3653 658.634 58.2114 656.597 Q60.0256 654.528 60.0256 650.995 Q60.0256 646.125 56.5881 643.197 Q53.1188 640.237 47.3897 640.237 L46.0847 640.237 L46.0847 646.062 M43.6657 634.38 L64.0042 634.38 L64.0042 640.237 L58.5933 640.237 Q61.8398 642.242 63.3994 645.234 Q64.9272 648.226 64.9272 652.555 Q64.9272 658.029 61.8716 661.276 Q58.7843 664.49 53.6281 664.49 Q47.6125 664.49 44.5569 660.48 Q41.5014 656.438 41.5014 648.449 L41.5014 640.237 L40.9285 640.237 Q36.8862 640.237 34.6901 642.911 Q32.4621 645.552 32.4621 650.358 Q32.4621 653.414 33.1941 656.31 Q33.9262 659.207 35.3903 661.88 L29.9795 661.88 Q28.7381 658.666 28.1334 655.642 Q27.4968 652.618 27.4968 649.754 Q27.4968 642.019 31.5072 638.2 Q35.5176 634.38 43.6657 634.38 Z" fill="#9eb1be" fill-rule="evenodd" fill-opacity="1" /><path clip-path="url(#clip600)" d="M 0 0 M18.2347 622.445 L28.3562 622.445 L28.3562 610.382 L32.9077 610.382 L32.9077 622.445 L52.2594 622.445 Q56.6199 622.445 57.8613 621.267 Q59.1026 620.058 59.1026 616.397 L59.1026 610.382 L64.0042 610.382 L64.0042 616.397 Q64.0042 623.177 61.4897 625.755 Q58.9434 628.333 52.2594 628.333 L32.9077 628.333 L32.9077 632.63 L28.3562 632.63 L28.3562 628.333 L18.2347 628.333 L18.2347 622.445 Z" fill="#9eb1be" fill-rule="evenodd" fill-opacity="1" /><path clip-path="url(#clip600)" d="M 0 0 M28.3562 604.239 L28.3562 598.382 L64.0042 598.382 L64.0042 604.239 L28.3562 604.239 M14.479 604.239 L14.479 598.382 L21.895 598.382 L21.895 604.239 L14.479 604.239 Z" fill="#9eb1be" fill-rule="evenodd" fill-opacity="1" /><path clip-path="url(#clip600)" d="M 0 0 M32.4621 578.426 Q32.4621 583.137 36.1542 585.874 Q39.8145 588.611 46.212 588.611 Q52.6095 588.611 56.3017 585.906 Q59.9619 583.168 59.9619 578.426 Q59.9619 573.747 56.2698 571.01 Q52.5777 568.273 46.212 568.273 Q39.8781 568.273 36.186 571.01 Q32.4621 573.747 32.4621 578.426 M27.4968 578.426 Q27.4968 570.787 32.4621 566.427 Q37.4273 562.066 46.212 562.066 Q54.9649 562.066 59.9619 566.427 Q64.9272 570.787 64.9272 578.426 Q64.9272 586.097 59.9619 590.457 Q54.9649 594.786 46.212 594.786 Q37.4273 594.786 32.4621 590.457 Q27.4968 586.097 27.4968 578.426 Z" fill="#9eb1be" fill-rule="evenodd" fill-opacity="1" /><path clip-path="url(#clip600)" d="M 0 0 M42.4881 526.291 L64.0042 526.291 L64.0042 532.147 L42.679 532.147 Q37.6183 532.147 35.1038 534.121 Q32.5894 536.094 32.5894 540.041 Q32.5894 544.783 35.6131 547.52 Q38.6368 550.258 43.8567 550.258 L64.0042 550.258 L64.0042 556.146 L28.3562 556.146 L28.3562 550.258 L33.8944 550.258 Q30.6797 548.157 29.0883 545.324 Q27.4968 542.46 27.4968 538.736 Q27.4968 532.593 31.3163 529.442 Q35.1038 526.291 42.4881 526.291 Z" fill="#9eb1be" fill-rule="evenodd" fill-opacity="1" /><path clip-path="url(#clip600)" d="M 0 0 M29.4065 497.422 L34.9447 497.422 Q33.6716 499.905 33.035 502.579 Q32.3984 505.252 32.3984 508.117 Q32.3984 512.477 33.7352 514.673 Q35.072 516.838 37.7456 516.838 Q39.7826 516.838 40.9603 515.278 Q42.1061 513.719 43.1565 509.008 L43.6021 507.003 Q44.9389 500.764 47.3897 498.154 Q49.8086 495.513 54.1691 495.513 Q59.1344 495.513 62.0308 499.459 Q64.9272 503.374 64.9272 510.249 Q64.9272 513.114 64.3543 516.233 Q63.8132 519.32 62.6992 522.758 L56.6518 522.758 Q58.3387 519.511 59.198 516.36 Q60.0256 513.209 60.0256 510.122 Q60.0256 505.984 58.6251 503.756 Q57.1929 501.528 54.6147 501.528 Q52.2276 501.528 50.9545 503.151 Q49.6813 504.743 48.5037 510.186 L48.0262 512.223 Q46.8804 517.665 44.5251 520.084 Q42.138 522.503 38.0002 522.503 Q32.9713 522.503 30.2341 518.938 Q27.4968 515.374 27.4968 508.817 Q27.4968 505.57 27.9743 502.706 Q28.4517 499.841 29.4065 497.422 Z" fill="#9eb1be" fill-rule="evenodd" fill-opacity="1" /><path clip-path="url(#clip600)" d="M 0 0 M14.5426 490.293 L14.5426 485.2 Q22.0542 480.426 29.2474 478.071 Q36.4406 475.683 43.5384 475.683 Q50.668 475.683 57.8931 478.071 Q65.1182 480.426 72.5979 485.2 L72.5979 490.293 Q65.3091 486.06 58.1159 483.991 Q50.8908 481.89 43.5384 481.89 Q36.186 481.89 29.0246 483.991 Q21.8632 486.06 14.5426 490.293 Z" fill="#9eb1be" fill-rule="evenodd" fill-opacity="1" /><circle clip-path="url(#clip602)" cx="2293.2" cy="1372.3" r="14" fill="#fe4365" fill-rule="evenodd" fill-opacity="1" stroke="#adb2b7" stroke-opacity="1" stroke-width="3.2"/>
<circle clip-path="url(#clip602)" cx="2188.71" cy="1213.55" r="14" fill="#fe4365" fill-rule="evenodd" fill-opacity="1" stroke="#adb2b7" stroke-opacity="1" stroke-width="3.2"/>
<circle clip-path="url(#clip602)" cx="2084.22" cy="1063.47" r="14" fill="#fe4365" fill-rule="evenodd" fill-opacity="1" stroke="#adb2b7" stroke-opacity="1" stroke-width="3.2"/>
<circle clip-path="url(#clip602)" cx="1979.73" cy="910.519" r="14" fill="#fe4365" fill-rule="evenodd" fill-opacity="1" stroke="#adb2b7" stroke-opacity="1" stroke-width="3.2"/>
<circle clip-path="url(#clip602)" cx="1875.24" cy="757.786" r="14" fill="#fe4365" fill-rule="evenodd" fill-opacity="1" stroke="#adb2b7" stroke-opacity="1" stroke-width="3.2"/>
<circle clip-path="url(#clip602)" cx="1770.75" cy="606.647" r="14" fill="#fe4365" fill-rule="evenodd" fill-opacity="1" stroke="#adb2b7" stroke-opacity="1" stroke-width="3.2"/>
<circle clip-path="url(#clip602)" cx="1666.26" cy="488.719" r="14" fill="#fe4365" fill-rule="evenodd" fill-opacity="1" stroke="#adb2b7" stroke-opacity="1" stroke-width="3.2"/>
<circle clip-path="url(#clip602)" cx="1561.78" cy="411.455" r="14" fill="#fe4365" fill-rule="evenodd" fill-opacity="1" stroke="#adb2b7" stroke-opacity="1" stroke-width="3.2"/>
<circle clip-path="url(#clip602)" cx="1457.29" cy="354.912" r="14" fill="#fe4365" fill-rule="evenodd" fill-opacity="1" stroke="#adb2b7" stroke-opacity="1" stroke-width="3.2"/>
<circle clip-path="url(#clip602)" cx="1352.8" cy="310.438" r="14" fill="#fe4365" fill-rule="evenodd" fill-opacity="1" stroke="#adb2b7" stroke-opacity="1" stroke-width="3.2"/>
<circle clip-path="url(#clip602)" cx="1248.31" cy="273.69" r="14" fill="#fe4365" fill-rule="evenodd" fill-opacity="1" stroke="#adb2b7" stroke-opacity="1" stroke-width="3.2"/>
<circle clip-path="url(#clip602)" cx="1143.82" cy="242.452" r="14" fill="#fe4365" fill-rule="evenodd" fill-opacity="1" stroke="#adb2b7" stroke-opacity="1" stroke-width="3.2"/>
<circle clip-path="url(#clip602)" cx="1039.33" cy="215.219" r="14" fill="#fe4365" fill-rule="evenodd" fill-opacity="1" stroke="#adb2b7" stroke-opacity="1" stroke-width="3.2"/>
<circle clip-path="url(#clip602)" cx="934.843" cy="191.139" r="14" fill="#fe4365" fill-rule="evenodd" fill-opacity="1" stroke="#adb2b7" stroke-opacity="1" stroke-width="3.2"/>
<circle clip-path="url(#clip602)" cx="830.354" cy="169.533" r="14" fill="#fe4365" fill-rule="evenodd" fill-opacity="1" stroke="#adb2b7" stroke-opacity="1" stroke-width="3.2"/>
<circle clip-path="url(#clip602)" cx="725.865" cy="149.911" r="14" fill="#fe4365" fill-rule="evenodd" fill-opacity="1" stroke="#adb2b7" stroke-opacity="1" stroke-width="3.2"/>
<circle clip-path="url(#clip602)" cx="621.376" cy="131.987" r="14" fill="#fe4365" fill-rule="evenodd" fill-opacity="1" stroke="#adb2b7" stroke-opacity="1" stroke-width="3.2"/>
<circle clip-path="url(#clip602)" cx="516.888" cy="115.447" r="14" fill="#fe4365" fill-rule="evenodd" fill-opacity="1" stroke="#adb2b7" stroke-opacity="1" stroke-width="3.2"/>
<circle clip-path="url(#clip602)" cx="412.399" cy="100.133" r="14" fill="#fe4365" fill-rule="evenodd" fill-opacity="1" stroke="#adb2b7" stroke-opacity="1" stroke-width="3.2"/>
<circle clip-path="url(#clip602)" cx="307.91" cy="85.838" r="14" fill="#fe4365" fill-rule="evenodd" fill-opacity="1" stroke="#adb2b7" stroke-opacity="1" stroke-width="3.2"/>
<circle clip-path="url(#clip602)" cx="2293.2" cy="1339.84" r="14" fill="#eca25c" fill-rule="evenodd" fill-opacity="1" stroke="#adb2b7" stroke-opacity="1" stroke-width="3.2"/>
<circle clip-path="url(#clip602)" cx="2188.71" cy="1201.51" r="14" fill="#eca25c" fill-rule="evenodd" fill-opacity="1" stroke="#adb2b7" stroke-opacity="1" stroke-width="3.2"/>
<circle clip-path="url(#clip602)" cx="2084.22" cy="1051.66" r="14" fill="#eca25c" fill-rule="evenodd" fill-opacity="1" stroke="#adb2b7" stroke-opacity="1" stroke-width="3.2"/>
<circle clip-path="url(#clip602)" cx="1979.73" cy="902.824" r="14" fill="#eca25c" fill-rule="evenodd" fill-opacity="1" stroke="#adb2b7" stroke-opacity="1" stroke-width="3.2"/>
<circle clip-path="url(#clip602)" cx="1875.24" cy="754.025" r="14" fill="#eca25c" fill-rule="evenodd" fill-opacity="1" stroke="#adb2b7" stroke-opacity="1" stroke-width="3.2"/>
<circle clip-path="url(#clip602)" cx="1770.75" cy="635.631" r="14" fill="#eca25c" fill-rule="evenodd" fill-opacity="1" stroke="#adb2b7" stroke-opacity="1" stroke-width="3.2"/>
<circle clip-path="url(#clip602)" cx="1666.26" cy="558.082" r="14" fill="#eca25c" fill-rule="evenodd" fill-opacity="1" stroke="#adb2b7" stroke-opacity="1" stroke-width="3.2"/>
<circle clip-path="url(#clip602)" cx="1561.78" cy="501.388" r="14" fill="#eca25c" fill-rule="evenodd" fill-opacity="1" stroke="#adb2b7" stroke-opacity="1" stroke-width="3.2"/>
<circle clip-path="url(#clip602)" cx="1457.29" cy="456.764" r="14" fill="#eca25c" fill-rule="evenodd" fill-opacity="1" stroke="#adb2b7" stroke-opacity="1" stroke-width="3.2"/>
<circle clip-path="url(#clip602)" cx="1352.8" cy="419.961" r="14" fill="#eca25c" fill-rule="evenodd" fill-opacity="1" stroke="#adb2b7" stroke-opacity="1" stroke-width="3.2"/>
<circle clip-path="url(#clip602)" cx="1248.31" cy="388.643" r="14" fill="#eca25c" fill-rule="evenodd" fill-opacity="1" stroke="#adb2b7" stroke-opacity="1" stroke-width="3.2"/>
<circle clip-path="url(#clip602)" cx="1143.82" cy="361.457" r="14" fill="#eca25c" fill-rule="evenodd" fill-opacity="1" stroke="#adb2b7" stroke-opacity="1" stroke-width="3.2"/>
<circle clip-path="url(#clip602)" cx="1039.33" cy="337.318" r="14" fill="#eca25c" fill-rule="evenodd" fill-opacity="1" stroke="#adb2b7" stroke-opacity="1" stroke-width="3.2"/>
<circle clip-path="url(#clip602)" cx="934.843" cy="315.663" r="14" fill="#eca25c" fill-rule="evenodd" fill-opacity="1" stroke="#adb2b7" stroke-opacity="1" stroke-width="3.2"/>
<circle clip-path="url(#clip602)" cx="830.354" cy="296.028" r="14" fill="#eca25c" fill-rule="evenodd" fill-opacity="1" stroke="#adb2b7" stroke-opacity="1" stroke-width="3.2"/>
<circle clip-path="url(#clip602)" cx="725.865" cy="278.069" r="14" fill="#eca25c" fill-rule="evenodd" fill-opacity="1" stroke="#adb2b7" stroke-opacity="1" stroke-width="3.2"/>
<circle clip-path="url(#clip602)" cx="621.376" cy="261.567" r="14" fill="#eca25c" fill-rule="evenodd" fill-opacity="1" stroke="#adb2b7" stroke-opacity="1" stroke-width="3.2"/>
<circle clip-path="url(#clip602)" cx="516.888" cy="246.223" r="14" fill="#eca25c" fill-rule="evenodd" fill-opacity="1" stroke="#adb2b7" stroke-opacity="1" stroke-width="3.2"/>
<circle clip-path="url(#clip602)" cx="412.399" cy="231.921" r="14" fill="#eca25c" fill-rule="evenodd" fill-opacity="1" stroke="#adb2b7" stroke-opacity="1" stroke-width="3.2"/>
<circle clip-path="url(#clip602)" cx="307.91" cy="218.528" r="14" fill="#eca25c" fill-rule="evenodd" fill-opacity="1" stroke="#adb2b7" stroke-opacity="1" stroke-width="3.2"/>
<circle clip-path="url(#clip602)" cx="2293.2" cy="1298.95" r="14" fill="#3f9778" fill-rule="evenodd" fill-opacity="1" stroke="#adb2b7" stroke-opacity="1" stroke-width="3.2"/>
<circle clip-path="url(#clip602)" cx="2188.71" cy="1175.84" r="14" fill="#3f9778" fill-rule="evenodd" fill-opacity="1" stroke="#adb2b7" stroke-opacity="1" stroke-width="3.2"/>
<circle clip-path="url(#clip602)" cx="2084.22" cy="1053.59" r="14" fill="#3f9778" fill-rule="evenodd" fill-opacity="1" stroke="#adb2b7" stroke-opacity="1" stroke-width="3.2"/>
<circle clip-path="url(#clip602)" cx="1979.73" cy="974.067" r="14" fill="#3f9778" fill-rule="evenodd" fill-opacity="1" stroke="#adb2b7" stroke-opacity="1" stroke-width="3.2"/>
<circle clip-path="url(#clip602)" cx="1875.24" cy="916.48" r="14" fill="#3f9778" fill-rule="evenodd" fill-opacity="1" stroke="#adb2b7" stroke-opacity="1" stroke-width="3.2"/>
<circle clip-path="url(#clip602)" cx="1770.75" cy="871.305" r="14" fill="#3f9778" fill-rule="evenodd" fill-opacity="1" stroke="#adb2b7" stroke-opacity="1" stroke-width="3.2"/>
<circle clip-path="url(#clip602)" cx="1666.26" cy="834.129" r="14" fill="#3f9778" fill-rule="evenodd" fill-opacity="1" stroke="#adb2b7" stroke-opacity="1" stroke-width="3.2"/>
<circle clip-path="url(#clip602)" cx="1561.78" cy="802.541" r="14" fill="#3f9778" fill-rule="evenodd" fill-opacity="1" stroke="#adb2b7" stroke-opacity="1" stroke-width="3.2"/>
<circle clip-path="url(#clip602)" cx="1457.29" cy="775.595" r="14" fill="#3f9778" fill-rule="evenodd" fill-opacity="1" stroke="#adb2b7" stroke-opacity="1" stroke-width="3.2"/>
<circle clip-path="url(#clip602)" cx="1352.8" cy="751.248" r="14" fill="#3f9778" fill-rule="evenodd" fill-opacity="1" stroke="#adb2b7" stroke-opacity="1" stroke-width="3.2"/>
<circle clip-path="url(#clip602)" cx="1248.31" cy="729.426" r="14" fill="#3f9778" fill-rule="evenodd" fill-opacity="1" stroke="#adb2b7" stroke-opacity="1" stroke-width="3.2"/>
<circle clip-path="url(#clip602)" cx="1143.82" cy="709.654" r="14" fill="#3f9778" fill-rule="evenodd" fill-opacity="1" stroke="#adb2b7" stroke-opacity="1" stroke-width="3.2"/>
<circle clip-path="url(#clip602)" cx="1039.33" cy="691.58" r="14" fill="#3f9778" fill-rule="evenodd" fill-opacity="1" stroke="#adb2b7" stroke-opacity="1" stroke-width="3.2"/>
<circle clip-path="url(#clip602)" cx="934.843" cy="674.935" r="14" fill="#3f9778" fill-rule="evenodd" fill-opacity="1" stroke="#adb2b7" stroke-opacity="1" stroke-width="3.2"/>
<circle clip-path="url(#clip602)" cx="830.354" cy="659.51" r="14" fill="#3f9778" fill-rule="evenodd" fill-opacity="1" stroke="#adb2b7" stroke-opacity="1" stroke-width="3.2"/>
<circle clip-path="url(#clip602)" cx="725.865" cy="645.416" r="14" fill="#3f9778" fill-rule="evenodd" fill-opacity="1" stroke="#adb2b7" stroke-opacity="1" stroke-width="3.2"/>
<circle clip-path="url(#clip602)" cx="621.376" cy="631.946" r="14" fill="#3f9778" fill-rule="evenodd" fill-opacity="1" stroke="#adb2b7" stroke-opacity="1" stroke-width="3.2"/>
<circle clip-path="url(#clip602)" cx="516.888" cy="619.285" r="14" fill="#3f9778" fill-rule="evenodd" fill-opacity="1" stroke="#adb2b7" stroke-opacity="1" stroke-width="3.2"/>
<circle clip-path="url(#clip602)" cx="412.399" cy="607.342" r="14" fill="#3f9778" fill-rule="evenodd" fill-opacity="1" stroke="#adb2b7" stroke-opacity="1" stroke-width="3.2"/>
<circle clip-path="url(#clip602)" cx="307.91" cy="596.041" r="14" fill="#3f9778" fill-rule="evenodd" fill-opacity="1" stroke="#adb2b7" stroke-opacity="1" stroke-width="3.2"/>
<circle clip-path="url(#clip602)" cx="2293.2" cy="1281.14" r="14" fill="#005d7f" fill-rule="evenodd" fill-opacity="1" stroke="#adb2b7" stroke-opacity="1" stroke-width="3.2"/>
<circle clip-path="url(#clip602)" cx="2188.71" cy="1169.05" r="14" fill="#005d7f" fill-rule="evenodd" fill-opacity="1" stroke="#adb2b7" stroke-opacity="1" stroke-width="3.2"/>
<circle clip-path="url(#clip602)" cx="2084.22" cy="1067.56" r="14" fill="#005d7f" fill-rule="evenodd" fill-opacity="1" stroke="#adb2b7" stroke-opacity="1" stroke-width="3.2"/>
<circle clip-path="url(#clip602)" cx="1979.73" cy="1000.87" r="14" fill="#005d7f" fill-rule="evenodd" fill-opacity="1" stroke="#adb2b7" stroke-opacity="1" stroke-width="3.2"/>
<circle clip-path="url(#clip602)" cx="1875.24" cy="949.114" r="14" fill="#005d7f" fill-rule="evenodd" fill-opacity="1" stroke="#adb2b7" stroke-opacity="1" stroke-width="3.2"/>
<circle clip-path="url(#clip602)" cx="1770.75" cy="908.569" r="14" fill="#005d7f" fill-rule="evenodd" fill-opacity="1" stroke="#adb2b7" stroke-opacity="1" stroke-width="3.2"/>
<circle clip-path="url(#clip602)" cx="1666.26" cy="874.583" r="14" fill="#005d7f" fill-rule="evenodd" fill-opacity="1" stroke="#adb2b7" stroke-opacity="1" stroke-width="3.2"/>
<circle clip-path="url(#clip602)" cx="1561.78" cy="844.61" r="14" fill="#005d7f" fill-rule="evenodd" fill-opacity="1" stroke="#adb2b7" stroke-opacity="1" stroke-width="3.2"/>
<circle clip-path="url(#clip602)" cx="1457.29" cy="819.009" r="14" fill="#005d7f" fill-rule="evenodd" fill-opacity="1" stroke="#adb2b7" stroke-opacity="1" stroke-width="3.2"/>
<circle clip-path="url(#clip602)" cx="1352.8" cy="795.617" r="14" fill="#005d7f" fill-rule="evenodd" fill-opacity="1" stroke="#adb2b7" stroke-opacity="1" stroke-width="3.2"/>
<circle clip-path="url(#clip602)" cx="1248.31" cy="775.079" r="14" fill="#005d7f" fill-rule="evenodd" fill-opacity="1" stroke="#adb2b7" stroke-opacity="1" stroke-width="3.2"/>
<circle clip-path="url(#clip602)" cx="1143.82" cy="755.897" r="14" fill="#005d7f" fill-rule="evenodd" fill-opacity="1" stroke="#adb2b7" stroke-opacity="1" stroke-width="3.2"/>
<circle clip-path="url(#clip602)" cx="1039.33" cy="738.75" r="14" fill="#005d7f" fill-rule="evenodd" fill-opacity="1" stroke="#adb2b7" stroke-opacity="1" stroke-width="3.2"/>
<circle clip-path="url(#clip602)" cx="934.843" cy="722.894" r="14" fill="#005d7f" fill-rule="evenodd" fill-opacity="1" stroke="#adb2b7" stroke-opacity="1" stroke-width="3.2"/>
<circle clip-path="url(#clip602)" cx="830.354" cy="707.775" r="14" fill="#005d7f" fill-rule="evenodd" fill-opacity="1" stroke="#adb2b7" stroke-opacity="1" stroke-width="3.2"/>
<circle clip-path="url(#clip602)" cx="725.865" cy="694.019" r="14" fill="#005d7f" fill-rule="evenodd" fill-opacity="1" stroke="#adb2b7" stroke-opacity="1" stroke-width="3.2"/>
<circle clip-path="url(#clip602)" cx="621.376" cy="680.777" r="14" fill="#005d7f" fill-rule="evenodd" fill-opacity="1" stroke="#adb2b7" stroke-opacity="1" stroke-width="3.2"/>
<circle clip-path="url(#clip602)" cx="516.888" cy="668.629" r="14" fill="#005d7f" fill-rule="evenodd" fill-opacity="1" stroke="#adb2b7" stroke-opacity="1" stroke-width="3.2"/>
<circle clip-path="url(#clip602)" cx="412.399" cy="657.144" r="14" fill="#005d7f" fill-rule="evenodd" fill-opacity="1" stroke="#adb2b7" stroke-opacity="1" stroke-width="3.2"/>
<circle clip-path="url(#clip602)" cx="307.91" cy="645.974" r="14" fill="#005d7f" fill-rule="evenodd" fill-opacity="1" stroke="#adb2b7" stroke-opacity="1" stroke-width="3.2"/>
<circle clip-path="url(#clip602)" cx="2293.2" cy="1159.25" r="14" fill="#00a8ff" fill-rule="evenodd" fill-opacity="1" stroke="#adb2b7" stroke-opacity="1" stroke-width="3.2"/>
<circle clip-path="url(#clip602)" cx="2188.71" cy="1098.66" r="14" fill="#00a8ff" fill-rule="evenodd" fill-opacity="1" stroke="#adb2b7" stroke-opacity="1" stroke-width="3.2"/>
<circle clip-path="url(#clip602)" cx="2084.22" cy="1053.59" r="14" fill="#00a8ff" fill-rule="evenodd" fill-opacity="1" stroke="#adb2b7" stroke-opacity="1" stroke-width="3.2"/>
<circle clip-path="url(#clip602)" cx="1979.73" cy="1035.1" r="14" fill="#00a8ff" fill-rule="evenodd" fill-opacity="1" stroke="#adb2b7" stroke-opacity="1" stroke-width="3.2"/>
<circle clip-path="url(#clip602)" cx="1875.24" cy="1018.1" r="14" fill="#00a8ff" fill-rule="evenodd" fill-opacity="1" stroke="#adb2b7" stroke-opacity="1" stroke-width="3.2"/>
<circle clip-path="url(#clip602)" cx="1770.75" cy="984.94" r="14" fill="#00a8ff" fill-rule="evenodd" fill-opacity="1" stroke="#adb2b7" stroke-opacity="1" stroke-width="3.2"/>
<circle clip-path="url(#clip602)" cx="1666.26" cy="964.993" r="14" fill="#00a8ff" fill-rule="evenodd" fill-opacity="1" stroke="#adb2b7" stroke-opacity="1" stroke-width="3.2"/>
<circle clip-path="url(#clip602)" cx="1561.78" cy="935.448" r="14" fill="#00a8ff" fill-rule="evenodd" fill-opacity="1" stroke="#adb2b7" stroke-opacity="1" stroke-width="3.2"/>
<circle clip-path="url(#clip602)" cx="1457.29" cy="908.569" r="14" fill="#00a8ff" fill-rule="evenodd" fill-opacity="1" stroke="#adb2b7" stroke-opacity="1" stroke-width="3.2"/>
<circle clip-path="url(#clip602)" cx="1352.8" cy="878.754" r="14" fill="#00a8ff" fill-rule="evenodd" fill-opacity="1" stroke="#adb2b7" stroke-opacity="1" stroke-width="3.2"/>
<circle clip-path="url(#clip602)" cx="1248.31" cy="868.077" r="14" fill="#00a8ff" fill-rule="evenodd" fill-opacity="1" stroke="#adb2b7" stroke-opacity="1" stroke-width="3.2"/>
<circle clip-path="url(#clip602)" cx="1143.82" cy="855.639" r="14" fill="#00a8ff" fill-rule="evenodd" fill-opacity="1" stroke="#adb2b7" stroke-opacity="1" stroke-width="3.2"/>
<circle clip-path="url(#clip602)" cx="1039.33" cy="844.61" r="14" fill="#00a8ff" fill-rule="evenodd" fill-opacity="1" stroke="#adb2b7" stroke-opacity="1" stroke-width="3.2"/>
<circle clip-path="url(#clip602)" cx="934.843" cy="829.411" r="14" fill="#00a8ff" fill-rule="evenodd" fill-opacity="1" stroke="#adb2b7" stroke-opacity="1" stroke-width="3.2"/>
<circle clip-path="url(#clip602)" cx="830.354" cy="819.644" r="14" fill="#00a8ff" fill-rule="evenodd" fill-opacity="1" stroke="#adb2b7" stroke-opacity="1" stroke-width="3.2"/>
<circle clip-path="url(#clip602)" cx="725.865" cy="802.541" r="14" fill="#00a8ff" fill-rule="evenodd" fill-opacity="1" stroke="#adb2b7" stroke-opacity="1" stroke-width="3.2"/>
<circle clip-path="url(#clip602)" cx="621.376" cy="782.948" r="14" fill="#00a8ff" fill-rule="evenodd" fill-opacity="1" stroke="#adb2b7" stroke-opacity="1" stroke-width="3.2"/>
<circle clip-path="url(#clip602)" cx="516.888" cy="775.595" r="14" fill="#00a8ff" fill-rule="evenodd" fill-opacity="1" stroke="#adb2b7" stroke-opacity="1" stroke-width="3.2"/>
<circle clip-path="url(#clip602)" cx="412.399" cy="769.49" r="14" fill="#00a8ff" fill-rule="evenodd" fill-opacity="1" stroke="#adb2b7" stroke-opacity="1" stroke-width="3.2"/>
<circle clip-path="url(#clip602)" cx="307.91" cy="759.692" r="14" fill="#00a8ff" fill-rule="evenodd" fill-opacity="1" stroke="#adb2b7" stroke-opacity="1" stroke-width="3.2"/>
<path clip-path="url(#clip600)" d="
M1754.3 455.579 L2282.61 455.579 L2282.61 92.6992 L1754.3 92.6992  Z
  " fill="#282c34" fill-rule="evenodd" fill-opacity="1"/>
<polyline clip-path="url(#clip600)" style="stroke:#9eb1be; stroke-width:4; stroke-opacity:1; fill:none" points="
  1754.3,455.579 2282.61,455.579 2282.61,92.6992 1754.3,92.6992 1754.3,455.579 
  "/>
<circle clip-path="url(#clip600)" cx="1847.83" cy="153.179" r="23" fill="#fe4365" fill-rule="evenodd" fill-opacity="1" stroke="#adb2b7" stroke-opacity="1" stroke-width="5.12"/>
<path clip-path="url(#clip600)" d="M 0 0 M1948.46 135.899 L1953.14 135.899 L1953.14 168.052 Q1953.14 174.302 1950.75 177.126 Q1948.39 179.95 1943.14 179.95 L1941.36 179.95 L1941.36 176.015 L1942.81 176.015 Q1945.92 176.015 1947.19 174.279 Q1948.46 172.543 1948.46 168.052 L1948.46 135.899 Z" fill="#adb2b7" fill-rule="evenodd" fill-opacity="1" /><path clip-path="url(#clip600)" d="M 0 0 M1969.39 157.427 Q1964.23 157.427 1962.23 158.607 Q1960.24 159.788 1960.24 162.635 Q1960.24 164.904 1961.73 166.246 Q1963.23 167.566 1965.8 167.566 Q1969.34 167.566 1971.47 165.066 Q1973.62 162.543 1973.62 158.376 L1973.62 157.427 L1969.39 157.427 M1977.88 155.668 L1977.88 170.459 L1973.62 170.459 L1973.62 166.524 Q1972.17 168.885 1969.99 170.019 Q1967.81 171.13 1964.67 171.13 Q1960.68 171.13 1958.32 168.908 Q1955.98 166.663 1955.98 162.913 Q1955.98 158.538 1958.9 156.316 Q1961.84 154.094 1967.65 154.094 L1973.62 154.094 L1973.62 153.677 Q1973.62 150.737 1971.68 149.14 Q1969.76 147.519 1966.26 147.519 Q1964.04 147.519 1961.93 148.052 Q1959.83 148.584 1957.88 149.649 L1957.88 145.714 Q1960.22 144.811 1962.42 144.371 Q1964.62 143.908 1966.7 143.908 Q1972.33 143.908 1975.11 146.825 Q1977.88 149.742 1977.88 155.668 Z" fill="#adb2b7" fill-rule="evenodd" fill-opacity="1" /><path clip-path="url(#clip600)" d="M 0 0 M2001.01 145.529 L2001.01 149.51 Q1999.2 148.515 1997.37 148.029 Q1995.57 147.519 1993.72 147.519 Q1989.57 147.519 1987.28 150.158 Q1984.99 152.774 1984.99 157.519 Q1984.99 162.265 1987.28 164.904 Q1989.57 167.519 1993.72 167.519 Q1995.57 167.519 1997.37 167.033 Q1999.2 166.524 2001.01 165.529 L2001.01 169.464 Q1999.23 170.297 1997.3 170.714 Q1995.41 171.13 1993.25 171.13 Q1987.4 171.13 1983.95 167.45 Q1980.5 163.769 1980.5 157.519 Q1980.5 151.177 1983.97 147.543 Q1987.47 143.908 1993.53 143.908 Q1995.5 143.908 1997.37 144.325 Q1999.25 144.719 2001.01 145.529 Z" fill="#adb2b7" fill-rule="evenodd" fill-opacity="1" /><path clip-path="url(#clip600)" d="M 0 0 M2015.52 147.519 Q2012.1 147.519 2010.11 150.205 Q2008.11 152.867 2008.11 157.519 Q2008.11 162.172 2010.08 164.857 Q2012.07 167.519 2015.52 167.519 Q2018.92 167.519 2020.92 164.834 Q2022.91 162.149 2022.91 157.519 Q2022.91 152.913 2020.92 150.228 Q2018.92 147.519 2015.52 147.519 M2015.52 143.908 Q2021.08 143.908 2024.25 147.519 Q2027.42 151.131 2027.42 157.519 Q2027.42 163.885 2024.25 167.519 Q2021.08 171.13 2015.52 171.13 Q2009.94 171.13 2006.77 167.519 Q2003.62 163.885 2003.62 157.519 Q2003.62 151.131 2006.77 147.519 Q2009.94 143.908 2015.52 143.908 Z" fill="#adb2b7" fill-rule="evenodd" fill-opacity="1" /><path clip-path="url(#clip600)" d="M 0 0 M2050.5 157.519 Q2050.5 152.82 2048.55 150.158 Q2046.63 147.473 2043.25 147.473 Q2039.87 147.473 2037.93 150.158 Q2036.01 152.82 2036.01 157.519 Q2036.01 162.218 2037.93 164.904 Q2039.87 167.566 2043.25 167.566 Q2046.63 167.566 2048.55 164.904 Q2050.5 162.218 2050.5 157.519 M2036.01 148.469 Q2037.35 146.154 2039.39 145.043 Q2041.45 143.908 2044.29 143.908 Q2049.02 143.908 2051.96 147.658 Q2054.92 151.408 2054.92 157.519 Q2054.92 163.631 2051.96 167.38 Q2049.02 171.13 2044.29 171.13 Q2041.45 171.13 2039.39 170.019 Q2037.35 168.885 2036.01 166.57 L2036.01 170.459 L2031.73 170.459 L2031.73 134.441 L2036.01 134.441 L2036.01 148.469 Z" fill="#adb2b7" fill-rule="evenodd" fill-opacity="1" /><path clip-path="url(#clip600)" d="M 0 0 M2059.39 144.533 L2063.65 144.533 L2063.65 170.459 L2059.39 170.459 L2059.39 144.533 M2059.39 134.441 L2063.65 134.441 L2063.65 139.834 L2059.39 139.834 L2059.39 134.441 Z" fill="#adb2b7" fill-rule="evenodd" fill-opacity="1" /><circle clip-path="url(#clip600)" cx="1847.83" cy="213.659" r="23" fill="#eca25c" fill-rule="evenodd" fill-opacity="1" stroke="#adb2b7" stroke-opacity="1" stroke-width="5.12"/>
<path clip-path="url(#clip600)" d="M 0 0 M1966.91 226.009 L1966.91 216.726 L1959.27 216.726 L1959.27 212.884 L1971.54 212.884 L1971.54 227.722 Q1968.83 229.643 1965.57 230.638 Q1962.3 231.61 1958.6 231.61 Q1950.5 231.61 1945.92 226.888 Q1941.36 222.143 1941.36 213.694 Q1941.36 205.222 1945.92 200.5 Q1950.5 195.754 1958.6 195.754 Q1961.98 195.754 1965.01 196.588 Q1968.07 197.421 1970.64 199.041 L1970.64 204.018 Q1968.05 201.819 1965.13 200.708 Q1962.21 199.597 1958.99 199.597 Q1952.65 199.597 1949.46 203.138 Q1946.29 206.68 1946.29 213.694 Q1946.29 220.685 1949.46 224.226 Q1952.65 227.768 1958.99 227.768 Q1961.47 227.768 1963.42 227.351 Q1965.36 226.911 1966.91 226.009 Z" fill="#adb2b7" fill-rule="evenodd" fill-opacity="1" /><path clip-path="url(#clip600)" d="M 0 0 M1987.79 217.907 Q1982.63 217.907 1980.64 219.087 Q1978.65 220.268 1978.65 223.115 Q1978.65 225.384 1980.13 226.726 Q1981.63 228.046 1984.2 228.046 Q1987.74 228.046 1989.87 225.546 Q1992.03 223.023 1992.03 218.856 L1992.03 217.907 L1987.79 217.907 M1996.29 216.148 L1996.29 230.939 L1992.03 230.939 L1992.03 227.004 Q1990.57 229.365 1988.39 230.499 Q1986.22 231.61 1983.07 231.61 Q1979.09 231.61 1976.73 229.388 Q1974.39 227.143 1974.39 223.393 Q1974.39 219.018 1977.3 216.796 Q1980.24 214.574 1986.05 214.574 L1992.03 214.574 L1992.03 214.157 Q1992.03 211.217 1990.08 209.62 Q1988.16 207.999 1984.67 207.999 Q1982.44 207.999 1980.34 208.532 Q1978.23 209.064 1976.29 210.129 L1976.29 206.194 Q1978.62 205.291 1980.82 204.851 Q1983.02 204.388 1985.11 204.388 Q1990.73 204.388 1993.51 207.305 Q1996.29 210.222 1996.29 216.148 Z" fill="#adb2b7" fill-rule="evenodd" fill-opacity="1" /><path clip-path="url(#clip600)" d="M 0 0 M2000.31 220.708 L2000.31 205.013 L2004.57 205.013 L2004.57 220.546 Q2004.57 224.226 2006.01 226.078 Q2007.44 227.907 2010.31 227.907 Q2013.76 227.907 2015.75 225.708 Q2017.77 223.509 2017.77 219.712 L2017.77 205.013 L2022.03 205.013 L2022.03 230.939 L2017.77 230.939 L2017.77 226.958 Q2016.22 229.319 2014.16 230.476 Q2012.12 231.61 2009.41 231.61 Q2004.94 231.61 2002.63 228.833 Q2000.31 226.055 2000.31 220.708 M2011.03 204.388 L2011.03 204.388 Z" fill="#adb2b7" fill-rule="evenodd" fill-opacity="1" /><path clip-path="url(#clip600)" d="M 0 0 M2043.02 205.777 L2043.02 209.805 Q2041.22 208.879 2039.27 208.416 Q2037.33 207.953 2035.24 207.953 Q2032.07 207.953 2030.48 208.925 Q2028.9 209.898 2028.9 211.842 Q2028.9 213.324 2030.04 214.18 Q2031.17 215.013 2034.6 215.777 L2036.05 216.101 Q2040.59 217.074 2042.49 218.856 Q2044.41 220.615 2044.41 223.786 Q2044.41 227.398 2041.54 229.504 Q2038.69 231.61 2033.69 231.61 Q2031.61 231.61 2029.34 231.194 Q2027.1 230.8 2024.6 229.99 L2024.6 225.592 Q2026.96 226.819 2029.25 227.444 Q2031.54 228.046 2033.79 228.046 Q2036.79 228.046 2038.42 227.027 Q2040.04 225.986 2040.04 224.111 Q2040.04 222.374 2038.85 221.448 Q2037.7 220.523 2033.74 219.666 L2032.26 219.319 Q2028.3 218.486 2026.54 216.773 Q2024.78 215.036 2024.78 212.027 Q2024.78 208.37 2027.37 206.379 Q2029.97 204.388 2034.73 204.388 Q2037.1 204.388 2039.18 204.736 Q2041.26 205.083 2043.02 205.777 Z" fill="#adb2b7" fill-rule="evenodd" fill-opacity="1" /><path clip-path="url(#clip600)" d="M 0 0 M2065.41 205.777 L2065.41 209.805 Q2063.6 208.879 2061.66 208.416 Q2059.71 207.953 2057.63 207.953 Q2054.46 207.953 2052.86 208.925 Q2051.29 209.898 2051.29 211.842 Q2051.29 213.324 2052.42 214.18 Q2053.55 215.013 2056.98 215.777 L2058.44 216.101 Q2062.98 217.074 2064.87 218.856 Q2066.79 220.615 2066.79 223.786 Q2066.79 227.398 2063.92 229.504 Q2061.08 231.61 2056.08 231.61 Q2053.99 231.61 2051.73 231.194 Q2049.48 230.8 2046.98 229.99 L2046.98 225.592 Q2049.34 226.819 2051.63 227.444 Q2053.92 228.046 2056.17 228.046 Q2059.18 228.046 2060.8 227.027 Q2062.42 225.986 2062.42 224.111 Q2062.42 222.374 2061.24 221.448 Q2060.08 220.523 2056.12 219.666 L2054.64 219.319 Q2050.68 218.486 2048.92 216.773 Q2047.16 215.036 2047.16 212.027 Q2047.16 208.37 2049.76 206.379 Q2052.35 204.388 2057.12 204.388 Q2059.48 204.388 2061.56 204.736 Q2063.65 205.083 2065.41 205.777 Z" fill="#adb2b7" fill-rule="evenodd" fill-opacity="1" /><path clip-path="url(#clip600)" d="M 0 0 M2092.16 197.513 L2092.16 202.074 Q2089.5 200.8 2087.14 200.175 Q2084.78 199.55 2082.58 199.55 Q2078.76 199.55 2076.68 201.032 Q2074.62 202.513 2074.62 205.245 Q2074.62 207.537 2075.98 208.717 Q2077.37 209.874 2081.22 210.592 L2084.04 211.171 Q2089.27 212.166 2091.75 214.689 Q2094.25 217.189 2094.25 221.402 Q2094.25 226.425 2090.87 229.018 Q2087.51 231.61 2081.01 231.61 Q2078.55 231.61 2075.78 231.055 Q2073.02 230.499 2070.06 229.411 L2070.06 224.597 Q2072.91 226.194 2075.64 227.004 Q2078.37 227.814 2081.01 227.814 Q2085.01 227.814 2087.19 226.24 Q2089.36 224.666 2089.36 221.749 Q2089.36 219.203 2087.79 217.768 Q2086.24 216.333 2082.67 215.615 L2079.83 215.06 Q2074.6 214.018 2072.26 211.796 Q2069.92 209.574 2069.92 205.615 Q2069.92 201.032 2073.14 198.393 Q2076.38 195.754 2082.05 195.754 Q2084.48 195.754 2087 196.194 Q2089.53 196.634 2092.16 197.513 Z" fill="#adb2b7" fill-rule="evenodd" fill-opacity="1" /><path clip-path="url(#clip600)" d="M 0 0 M2120.89 216.911 L2120.89 218.995 L2101.31 218.995 Q2101.59 223.393 2103.95 225.708 Q2106.33 227.999 2110.57 227.999 Q2113.02 227.999 2115.31 227.398 Q2117.63 226.796 2119.9 225.592 L2119.9 229.62 Q2117.6 230.592 2115.2 231.101 Q2112.79 231.61 2110.31 231.61 Q2104.11 231.61 2100.47 227.999 Q2096.86 224.388 2096.86 218.231 Q2096.86 211.865 2100.29 208.138 Q2103.74 204.388 2109.57 204.388 Q2114.8 204.388 2117.84 207.768 Q2120.89 211.124 2120.89 216.911 M2116.63 215.661 Q2116.59 212.166 2114.66 210.083 Q2112.77 207.999 2109.62 207.999 Q2106.05 207.999 2103.9 210.013 Q2101.77 212.027 2101.45 215.685 L2116.63 215.661 Z" fill="#adb2b7" fill-rule="evenodd" fill-opacity="1" /><path clip-path="url(#clip600)" d="M 0 0 M2125.36 205.013 L2129.62 205.013 L2129.62 230.939 L2125.36 230.939 L2125.36 205.013 M2125.36 194.921 L2129.62 194.921 L2129.62 200.314 L2125.36 200.314 L2125.36 194.921 Z" fill="#adb2b7" fill-rule="evenodd" fill-opacity="1" /><path clip-path="url(#clip600)" d="M 0 0 M2151.15 208.949 L2151.15 194.921 L2155.41 194.921 L2155.41 230.939 L2151.15 230.939 L2151.15 227.05 Q2149.8 229.365 2147.74 230.499 Q2145.71 231.61 2142.84 231.61 Q2138.14 231.61 2135.17 227.86 Q2132.23 224.111 2132.23 217.999 Q2132.23 211.888 2135.17 208.138 Q2138.14 204.388 2142.84 204.388 Q2145.71 204.388 2147.74 205.523 Q2149.8 206.634 2151.15 208.949 M2136.63 217.999 Q2136.63 222.698 2138.55 225.384 Q2140.5 228.046 2143.88 228.046 Q2147.26 228.046 2149.2 225.384 Q2151.15 222.698 2151.15 217.999 Q2151.15 213.3 2149.2 210.638 Q2147.26 207.953 2143.88 207.953 Q2140.5 207.953 2138.55 210.638 Q2136.63 213.3 2136.63 217.999 Z" fill="#adb2b7" fill-rule="evenodd" fill-opacity="1" /><path clip-path="url(#clip600)" d="M 0 0 M2182.05 216.911 L2182.05 218.995 L2162.47 218.995 Q2162.74 223.393 2165.1 225.708 Q2167.49 227.999 2171.72 227.999 Q2174.18 227.999 2176.47 227.398 Q2178.78 226.796 2181.05 225.592 L2181.05 229.62 Q2178.76 230.592 2176.35 231.101 Q2173.95 231.61 2171.47 231.61 Q2165.27 231.61 2161.63 227.999 Q2158.02 224.388 2158.02 218.231 Q2158.02 211.865 2161.45 208.138 Q2164.9 204.388 2170.73 204.388 Q2175.96 204.388 2178.99 207.768 Q2182.05 211.124 2182.05 216.911 M2177.79 215.661 Q2177.74 212.166 2175.82 210.083 Q2173.92 207.999 2170.78 207.999 Q2167.21 207.999 2165.06 210.013 Q2162.93 212.027 2162.6 215.685 L2177.79 215.661 Z" fill="#adb2b7" fill-rule="evenodd" fill-opacity="1" /><path clip-path="url(#clip600)" d="M 0 0 M2186.52 194.921 L2190.78 194.921 L2190.78 230.939 L2186.52 230.939 L2186.52 194.921 Z" fill="#adb2b7" fill-rule="evenodd" fill-opacity="1" /><circle clip-path="url(#clip600)" cx="1847.83" cy="274.139" r="23" fill="#3f9778" fill-rule="evenodd" fill-opacity="1" stroke="#adb2b7" stroke-opacity="1" stroke-width="5.12"/>
<path clip-path="url(#clip600)" d="M 0 0 M1963.6 257.993 L1963.6 262.554 Q1960.94 261.28 1958.58 260.655 Q1956.22 260.03 1954.02 260.03 Q1950.2 260.03 1948.11 261.512 Q1946.05 262.993 1946.05 265.725 Q1946.05 268.017 1947.42 269.197 Q1948.81 270.354 1952.65 271.072 L1955.48 271.651 Q1960.71 272.646 1963.18 275.169 Q1965.68 277.669 1965.68 281.882 Q1965.68 286.905 1962.3 289.498 Q1958.95 292.09 1952.44 292.09 Q1949.99 292.09 1947.21 291.535 Q1944.46 290.979 1941.49 289.891 L1941.49 285.077 Q1944.34 286.674 1947.07 287.484 Q1949.8 288.294 1952.44 288.294 Q1956.45 288.294 1958.62 286.72 Q1960.8 285.146 1960.8 282.229 Q1960.8 279.683 1959.23 278.248 Q1957.67 276.813 1954.11 276.095 L1951.26 275.54 Q1946.03 274.498 1943.69 272.276 Q1941.36 270.054 1941.36 266.095 Q1941.36 261.512 1944.57 258.873 Q1947.81 256.234 1953.48 256.234 Q1955.92 256.234 1958.44 256.674 Q1960.96 257.114 1963.6 257.993 Z" fill="#adb2b7" fill-rule="evenodd" fill-opacity="1" /><path clip-path="url(#clip600)" d="M 0 0 M1984.36 260.03 Q1979.27 260.03 1976.26 263.827 Q1973.28 267.623 1973.28 274.174 Q1973.28 280.702 1976.26 284.498 Q1979.27 288.294 1984.36 288.294 Q1989.46 288.294 1992.42 284.498 Q1995.41 280.702 1995.41 274.174 Q1995.41 267.623 1992.42 263.827 Q1989.46 260.03 1984.36 260.03 M1984.36 256.234 Q1991.63 256.234 1995.98 261.118 Q2000.34 265.98 2000.34 274.174 Q2000.34 282.345 1995.98 287.229 Q1991.63 292.09 1984.36 292.09 Q1977.07 292.09 1972.7 287.229 Q1968.35 282.368 1968.35 274.174 Q1968.35 265.98 1972.7 261.118 Q1977.07 256.234 1984.36 256.234 Z" fill="#adb2b7" fill-rule="evenodd" fill-opacity="1" /><path clip-path="url(#clip600)" d="M 0 0 M2021.38 275.216 Q2022.88 275.725 2024.29 277.391 Q2025.73 279.058 2027.17 281.975 L2031.91 291.419 L2026.89 291.419 L2022.47 282.553 Q2020.75 279.081 2019.13 277.947 Q2017.54 276.813 2014.76 276.813 L2009.67 276.813 L2009.67 291.419 L2004.99 291.419 L2004.99 256.859 L2015.54 256.859 Q2021.47 256.859 2024.39 259.336 Q2027.3 261.813 2027.3 266.813 Q2027.3 270.077 2025.78 272.229 Q2024.27 274.382 2021.38 275.216 M2009.67 260.702 L2009.67 272.97 L2015.54 272.97 Q2018.92 272.97 2020.64 271.419 Q2022.37 269.845 2022.37 266.813 Q2022.37 263.78 2020.64 262.253 Q2018.92 260.702 2015.54 260.702 L2009.67 260.702 Z" fill="#adb2b7" fill-rule="evenodd" fill-opacity="1" /><path clip-path="url(#clip600)" d="M 0 0 M2061.68 255.447 Q2058.58 260.771 2057.07 265.98 Q2055.57 271.188 2055.57 276.535 Q2055.57 281.882 2057.07 287.137 Q2058.6 292.368 2061.68 297.669 L2057.98 297.669 Q2054.5 292.229 2052.77 286.975 Q2051.05 281.72 2051.05 276.535 Q2051.05 271.373 2052.77 266.142 Q2054.48 260.91 2057.98 255.447 L2061.68 255.447 Z" fill="#adb2b7" fill-rule="evenodd" fill-opacity="1" /><path clip-path="url(#clip600)" d="M 0 0 M2074.41 292.09 Q2064.8 292.09 2064.8 278.341 Q2064.8 272.901 2068.39 265.493 L2072.98 265.493 Q2069.66 272.901 2069.66 278.456 Q2069.66 288.479 2074.8 288.479 Q2079.5 288.479 2079.5 276.026 L2083.44 276.026 Q2083.44 288.479 2088.14 288.479 Q2093.28 288.479 2093.28 278.456 Q2093.28 272.901 2089.97 265.493 L2094.55 265.493 Q2098.14 272.901 2098.14 278.341 Q2098.14 292.09 2088.53 292.09 Q2082.23 292.09 2081.47 285.169 Q2080.52 292.09 2074.41 292.09 Z" fill="#adb2b7" fill-rule="evenodd" fill-opacity="1" /><path clip-path="url(#clip600)" d="M 0 0 M2103.16 269.892 L2132.84 269.892 L2132.84 273.78 L2103.16 273.78 L2103.16 269.892 M2103.16 279.336 L2132.84 279.336 L2132.84 283.271 L2103.16 283.271 L2103.16 279.336 Z" fill="#adb2b7" fill-rule="evenodd" fill-opacity="1" /><path clip-path="url(#clip600)" d="M 0 0 M2138.72 287.484 L2146.35 287.484 L2146.35 261.118 L2138.04 262.785 L2138.04 258.526 L2146.31 256.859 L2150.98 256.859 L2150.98 287.484 L2158.62 287.484 L2158.62 291.419 L2138.72 291.419 L2138.72 287.484 Z" fill="#adb2b7" fill-rule="evenodd" fill-opacity="1" /><path clip-path="url(#clip600)" d="M 0 0 M2163.69 285.54 L2168.58 285.54 L2168.58 291.419 L2163.69 291.419 L2163.69 285.54 Z" fill="#adb2b7" fill-rule="evenodd" fill-opacity="1" /><path clip-path="url(#clip600)" d="M 0 0 M2172.47 256.859 L2194.69 256.859 L2194.69 258.85 L2182.14 291.419 L2177.26 291.419 L2189.06 260.794 L2172.47 260.794 L2172.47 256.859 Z" fill="#adb2b7" fill-rule="evenodd" fill-opacity="1" /><path clip-path="url(#clip600)" d="M 0 0 M2199.8 256.859 L2218.16 256.859 L2218.16 260.794 L2204.09 260.794 L2204.09 269.267 Q2205.1 268.919 2206.12 268.757 Q2207.14 268.572 2208.16 268.572 Q2213.95 268.572 2217.33 271.743 Q2220.71 274.915 2220.71 280.331 Q2220.71 285.91 2217.23 289.012 Q2213.76 292.09 2207.44 292.09 Q2205.27 292.09 2203 291.72 Q2200.75 291.35 2198.34 290.609 L2198.34 285.91 Q2200.43 287.044 2202.65 287.6 Q2204.87 288.155 2207.35 288.155 Q2211.35 288.155 2213.69 286.049 Q2216.03 283.942 2216.03 280.331 Q2216.03 276.72 2213.69 274.614 Q2211.35 272.507 2207.35 272.507 Q2205.47 272.507 2203.6 272.924 Q2201.75 273.341 2199.8 274.22 L2199.8 256.859 Z" fill="#adb2b7" fill-rule="evenodd" fill-opacity="1" /><path clip-path="url(#clip600)" d="M 0 0 M2224.5 255.447 L2228.21 255.447 Q2231.68 260.91 2233.39 266.142 Q2235.13 271.373 2235.13 276.535 Q2235.13 281.72 2233.39 286.975 Q2231.68 292.229 2228.21 297.669 L2224.5 297.669 Q2227.58 292.368 2229.09 287.137 Q2230.61 281.882 2230.61 276.535 Q2230.61 271.188 2229.09 265.98 Q2227.58 260.771 2224.5 255.447 Z" fill="#adb2b7" fill-rule="evenodd" fill-opacity="1" /><circle clip-path="url(#clip600)" cx="1847.83" cy="334.619" r="23" fill="#005d7f" fill-rule="evenodd" fill-opacity="1" stroke="#adb2b7" stroke-opacity="1" stroke-width="5.12"/>
<path clip-path="url(#clip600)" d="M 0 0 M1963.6 318.473 L1963.6 323.034 Q1960.94 321.76 1958.58 321.135 Q1956.22 320.51 1954.02 320.51 Q1950.2 320.51 1948.11 321.992 Q1946.05 323.473 1946.05 326.205 Q1946.05 328.497 1947.42 329.677 Q1948.81 330.834 1952.65 331.552 L1955.48 332.131 Q1960.71 333.126 1963.18 335.649 Q1965.68 338.149 1965.68 342.362 Q1965.68 347.385 1962.3 349.978 Q1958.95 352.57 1952.44 352.57 Q1949.99 352.57 1947.21 352.015 Q1944.46 351.459 1941.49 350.371 L1941.49 345.557 Q1944.34 347.154 1947.07 347.964 Q1949.8 348.774 1952.44 348.774 Q1956.45 348.774 1958.62 347.2 Q1960.8 345.626 1960.8 342.709 Q1960.8 340.163 1959.23 338.728 Q1957.67 337.293 1954.11 336.575 L1951.26 336.02 Q1946.03 334.978 1943.69 332.756 Q1941.36 330.534 1941.36 326.575 Q1941.36 321.992 1944.57 319.353 Q1947.81 316.714 1953.48 316.714 Q1955.92 316.714 1958.44 317.154 Q1960.96 317.594 1963.6 318.473 Z" fill="#adb2b7" fill-rule="evenodd" fill-opacity="1" /><path clip-path="url(#clip600)" d="M 0 0 M1984.36 320.51 Q1979.27 320.51 1976.26 324.307 Q1973.28 328.103 1973.28 334.654 Q1973.28 341.182 1976.26 344.978 Q1979.27 348.774 1984.36 348.774 Q1989.46 348.774 1992.42 344.978 Q1995.41 341.182 1995.41 334.654 Q1995.41 328.103 1992.42 324.307 Q1989.46 320.51 1984.36 320.51 M1984.36 316.714 Q1991.63 316.714 1995.98 321.598 Q2000.34 326.46 2000.34 334.654 Q2000.34 342.825 1995.98 347.709 Q1991.63 352.57 1984.36 352.57 Q1977.07 352.57 1972.7 347.709 Q1968.35 342.848 1968.35 334.654 Q1968.35 326.46 1972.7 321.598 Q1977.07 316.714 1984.36 316.714 Z" fill="#adb2b7" fill-rule="evenodd" fill-opacity="1" /><path clip-path="url(#clip600)" d="M 0 0 M2021.38 335.696 Q2022.88 336.205 2024.29 337.871 Q2025.73 339.538 2027.17 342.455 L2031.91 351.899 L2026.89 351.899 L2022.47 343.033 Q2020.75 339.561 2019.13 338.427 Q2017.54 337.293 2014.76 337.293 L2009.67 337.293 L2009.67 351.899 L2004.99 351.899 L2004.99 317.339 L2015.54 317.339 Q2021.47 317.339 2024.39 319.816 Q2027.3 322.293 2027.3 327.293 Q2027.3 330.557 2025.78 332.709 Q2024.27 334.862 2021.38 335.696 M2009.67 321.182 L2009.67 333.45 L2015.54 333.45 Q2018.92 333.45 2020.64 331.899 Q2022.37 330.325 2022.37 327.293 Q2022.37 324.26 2020.64 322.733 Q2018.92 321.182 2015.54 321.182 L2009.67 321.182 Z" fill="#adb2b7" fill-rule="evenodd" fill-opacity="1" /><path clip-path="url(#clip600)" d="M 0 0 M2061.68 315.927 Q2058.58 321.251 2057.07 326.46 Q2055.57 331.668 2055.57 337.015 Q2055.57 342.362 2057.07 347.617 Q2058.6 352.848 2061.68 358.149 L2057.98 358.149 Q2054.5 352.709 2052.77 347.455 Q2051.05 342.2 2051.05 337.015 Q2051.05 331.853 2052.77 326.622 Q2054.48 321.39 2057.98 315.927 L2061.68 315.927 Z" fill="#adb2b7" fill-rule="evenodd" fill-opacity="1" /><path clip-path="url(#clip600)" d="M 0 0 M2074.41 352.57 Q2064.8 352.57 2064.8 338.821 Q2064.8 333.381 2068.39 325.973 L2072.98 325.973 Q2069.66 333.381 2069.66 338.936 Q2069.66 348.959 2074.8 348.959 Q2079.5 348.959 2079.5 336.506 L2083.44 336.506 Q2083.44 348.959 2088.14 348.959 Q2093.28 348.959 2093.28 338.936 Q2093.28 333.381 2089.97 325.973 L2094.55 325.973 Q2098.14 333.381 2098.14 338.821 Q2098.14 352.57 2088.53 352.57 Q2082.23 352.57 2081.47 345.649 Q2080.52 352.57 2074.41 352.57 Z" fill="#adb2b7" fill-rule="evenodd" fill-opacity="1" /><path clip-path="url(#clip600)" d="M 0 0 M2103.16 330.372 L2132.84 330.372 L2132.84 334.26 L2103.16 334.26 L2103.16 330.372 M2103.16 339.816 L2132.84 339.816 L2132.84 343.751 L2103.16 343.751 L2103.16 339.816 Z" fill="#adb2b7" fill-rule="evenodd" fill-opacity="1" /><path clip-path="url(#clip600)" d="M 0 0 M2138.72 347.964 L2146.35 347.964 L2146.35 321.598 L2138.04 323.265 L2138.04 319.006 L2146.31 317.339 L2150.98 317.339 L2150.98 347.964 L2158.62 347.964 L2158.62 351.899 L2138.72 351.899 L2138.72 347.964 Z" fill="#adb2b7" fill-rule="evenodd" fill-opacity="1" /><path clip-path="url(#clip600)" d="M 0 0 M2163.69 346.02 L2168.58 346.02 L2168.58 351.899 L2163.69 351.899 L2163.69 346.02 Z" fill="#adb2b7" fill-rule="evenodd" fill-opacity="1" /><path clip-path="url(#clip600)" d="M 0 0 M2183.65 335.487 Q2180.31 335.487 2178.39 337.27 Q2176.49 339.052 2176.49 342.177 Q2176.49 345.302 2178.39 347.084 Q2180.31 348.867 2183.65 348.867 Q2186.98 348.867 2188.9 347.084 Q2190.82 345.279 2190.82 342.177 Q2190.82 339.052 2188.9 337.27 Q2187 335.487 2183.65 335.487 M2178.97 333.497 Q2175.96 332.756 2174.27 330.696 Q2172.6 328.635 2172.6 325.672 Q2172.6 321.529 2175.54 319.122 Q2178.51 316.714 2183.65 316.714 Q2188.81 316.714 2191.75 319.122 Q2194.69 321.529 2194.69 325.672 Q2194.69 328.635 2193 330.696 Q2191.33 332.756 2188.34 333.497 Q2191.72 334.284 2193.6 336.575 Q2195.5 338.867 2195.5 342.177 Q2195.5 347.2 2192.42 349.885 Q2189.36 352.57 2183.65 352.57 Q2177.93 352.57 2174.85 349.885 Q2171.79 347.2 2171.79 342.177 Q2171.79 338.867 2173.69 336.575 Q2175.59 334.284 2178.97 333.497 M2177.26 326.112 Q2177.26 328.797 2178.92 330.302 Q2180.61 331.807 2183.65 331.807 Q2186.65 331.807 2188.34 330.302 Q2190.06 328.797 2190.06 326.112 Q2190.06 323.427 2188.34 321.922 Q2186.65 320.418 2183.65 320.418 Q2180.61 320.418 2178.92 321.922 Q2177.26 323.427 2177.26 326.112 Z" fill="#adb2b7" fill-rule="evenodd" fill-opacity="1" /><path clip-path="url(#clip600)" d="M 0 0 M2199.29 315.927 L2203 315.927 Q2206.47 321.39 2208.18 326.622 Q2209.92 331.853 2209.92 337.015 Q2209.92 342.2 2208.18 347.455 Q2206.47 352.709 2203 358.149 L2199.29 358.149 Q2202.37 352.848 2203.88 347.617 Q2205.4 342.362 2205.4 337.015 Q2205.4 331.668 2203.88 326.46 Q2202.37 321.251 2199.29 315.927 Z" fill="#adb2b7" fill-rule="evenodd" fill-opacity="1" /><circle clip-path="url(#clip600)" cx="1847.83" cy="395.099" r="23" fill="#00a8ff" fill-rule="evenodd" fill-opacity="1" stroke="#adb2b7" stroke-opacity="1" stroke-width="5.12"/>
<path clip-path="url(#clip600)" d="M 0 0 M1963.6 378.953 L1963.6 383.514 Q1960.94 382.24 1958.58 381.615 Q1956.22 380.99 1954.02 380.99 Q1950.2 380.99 1948.11 382.472 Q1946.05 383.953 1946.05 386.685 Q1946.05 388.977 1947.42 390.157 Q1948.81 391.314 1952.65 392.032 L1955.48 392.611 Q1960.71 393.606 1963.18 396.129 Q1965.68 398.629 1965.68 402.842 Q1965.68 407.865 1962.3 410.458 Q1958.95 413.05 1952.44 413.05 Q1949.99 413.05 1947.21 412.495 Q1944.46 411.939 1941.49 410.851 L1941.49 406.037 Q1944.34 407.634 1947.07 408.444 Q1949.8 409.254 1952.44 409.254 Q1956.45 409.254 1958.62 407.68 Q1960.8 406.106 1960.8 403.189 Q1960.8 400.643 1959.23 399.208 Q1957.67 397.773 1954.11 397.055 L1951.26 396.5 Q1946.03 395.458 1943.69 393.236 Q1941.36 391.014 1941.36 387.055 Q1941.36 382.472 1944.57 379.833 Q1947.81 377.194 1953.48 377.194 Q1955.92 377.194 1958.44 377.634 Q1960.96 378.074 1963.6 378.953 Z" fill="#adb2b7" fill-rule="evenodd" fill-opacity="1" /><path clip-path="url(#clip600)" d="M 0 0 M1984.36 380.99 Q1979.27 380.99 1976.26 384.787 Q1973.28 388.583 1973.28 395.134 Q1973.28 401.662 1976.26 405.458 Q1979.27 409.254 1984.36 409.254 Q1989.46 409.254 1992.42 405.458 Q1995.41 401.662 1995.41 395.134 Q1995.41 388.583 1992.42 384.787 Q1989.46 380.99 1984.36 380.99 M1984.36 377.194 Q1991.63 377.194 1995.98 382.078 Q2000.34 386.94 2000.34 395.134 Q2000.34 403.305 1995.98 408.189 Q1991.63 413.05 1984.36 413.05 Q1977.07 413.05 1972.7 408.189 Q1968.35 403.328 1968.35 395.134 Q1968.35 386.94 1972.7 382.078 Q1977.07 377.194 1984.36 377.194 Z" fill="#adb2b7" fill-rule="evenodd" fill-opacity="1" /><path clip-path="url(#clip600)" d="M 0 0 M2021.38 396.176 Q2022.88 396.685 2024.29 398.351 Q2025.73 400.018 2027.17 402.935 L2031.91 412.379 L2026.89 412.379 L2022.47 403.513 Q2020.75 400.041 2019.13 398.907 Q2017.54 397.773 2014.76 397.773 L2009.67 397.773 L2009.67 412.379 L2004.99 412.379 L2004.99 377.819 L2015.54 377.819 Q2021.47 377.819 2024.39 380.296 Q2027.3 382.773 2027.3 387.773 Q2027.3 391.037 2025.78 393.189 Q2024.27 395.342 2021.38 396.176 M2009.67 381.662 L2009.67 393.93 L2015.54 393.93 Q2018.92 393.93 2020.64 392.379 Q2022.37 390.805 2022.37 387.773 Q2022.37 384.74 2020.64 383.213 Q2018.92 381.662 2015.54 381.662 L2009.67 381.662 Z" fill="#adb2b7" fill-rule="evenodd" fill-opacity="1" /><path clip-path="url(#clip600)" d="M 0 0 M2061.68 376.407 Q2058.58 381.731 2057.07 386.94 Q2055.57 392.148 2055.57 397.495 Q2055.57 402.842 2057.07 408.097 Q2058.6 413.328 2061.68 418.629 L2057.98 418.629 Q2054.5 413.189 2052.77 407.935 Q2051.05 402.68 2051.05 397.495 Q2051.05 392.333 2052.77 387.102 Q2054.48 381.87 2057.98 376.407 L2061.68 376.407 Z" fill="#adb2b7" fill-rule="evenodd" fill-opacity="1" /><path clip-path="url(#clip600)" d="M 0 0 M2074.41 413.05 Q2064.8 413.05 2064.8 399.301 Q2064.8 393.861 2068.39 386.453 L2072.98 386.453 Q2069.66 393.861 2069.66 399.416 Q2069.66 409.439 2074.8 409.439 Q2079.5 409.439 2079.5 396.986 L2083.44 396.986 Q2083.44 409.439 2088.14 409.439 Q2093.28 409.439 2093.28 399.416 Q2093.28 393.861 2089.97 386.453 L2094.55 386.453 Q2098.14 393.861 2098.14 399.301 Q2098.14 413.05 2088.53 413.05 Q2082.23 413.05 2081.47 406.129 Q2080.52 413.05 2074.41 413.05 Z" fill="#adb2b7" fill-rule="evenodd" fill-opacity="1" /><path clip-path="url(#clip600)" d="M 0 0 M2103.16 390.852 L2132.84 390.852 L2132.84 394.74 L2103.16 394.74 L2103.16 390.852 M2103.16 400.296 L2132.84 400.296 L2132.84 404.231 L2103.16 404.231 L2103.16 400.296 Z" fill="#adb2b7" fill-rule="evenodd" fill-opacity="1" /><path clip-path="url(#clip600)" d="M 0 0 M2138.72 408.444 L2146.35 408.444 L2146.35 382.078 L2138.04 383.745 L2138.04 379.486 L2146.31 377.819 L2150.98 377.819 L2150.98 408.444 L2158.62 408.444 L2158.62 412.379 L2138.72 412.379 L2138.72 408.444 Z" fill="#adb2b7" fill-rule="evenodd" fill-opacity="1" /><path clip-path="url(#clip600)" d="M 0 0 M2163.69 406.5 L2168.58 406.5 L2168.58 412.379 L2163.69 412.379 L2163.69 406.5 Z" fill="#adb2b7" fill-rule="evenodd" fill-opacity="1" /><path clip-path="url(#clip600)" d="M 0 0 M2173.78 411.662 L2173.78 407.402 Q2175.54 408.236 2177.35 408.675 Q2179.16 409.115 2180.89 409.115 Q2185.52 409.115 2187.95 406.013 Q2190.4 402.888 2190.75 396.546 Q2189.41 398.537 2187.35 399.601 Q2185.29 400.666 2182.79 400.666 Q2177.6 400.666 2174.57 397.541 Q2171.56 394.393 2171.56 388.953 Q2171.56 383.629 2174.71 380.412 Q2177.86 377.194 2183.09 377.194 Q2189.09 377.194 2192.23 381.801 Q2195.4 386.384 2195.4 395.134 Q2195.4 403.305 2191.52 408.189 Q2187.65 413.05 2181.1 413.05 Q2179.34 413.05 2177.53 412.703 Q2175.73 412.356 2173.78 411.662 M2183.09 397.009 Q2186.24 397.009 2188.07 394.856 Q2189.92 392.703 2189.92 388.953 Q2189.92 385.227 2188.07 383.074 Q2186.24 380.898 2183.09 380.898 Q2179.94 380.898 2178.09 383.074 Q2176.26 385.227 2176.26 388.953 Q2176.26 392.703 2178.09 394.856 Q2179.94 397.009 2183.09 397.009 Z" fill="#adb2b7" fill-rule="evenodd" fill-opacity="1" /><path clip-path="url(#clip600)" d="M 0 0 M2200.52 377.819 L2218.88 377.819 L2218.88 381.754 L2204.8 381.754 L2204.8 390.227 Q2205.82 389.879 2206.84 389.717 Q2207.86 389.532 2208.88 389.532 Q2214.66 389.532 2218.04 392.703 Q2221.42 395.875 2221.42 401.291 Q2221.42 406.87 2217.95 409.972 Q2214.48 413.05 2208.16 413.05 Q2205.98 413.05 2203.72 412.68 Q2201.47 412.31 2199.06 411.569 L2199.06 406.87 Q2201.15 408.004 2203.37 408.56 Q2205.59 409.115 2208.07 409.115 Q2212.07 409.115 2214.41 407.009 Q2216.75 404.902 2216.75 401.291 Q2216.75 397.68 2214.41 395.574 Q2212.07 393.467 2208.07 393.467 Q2206.19 393.467 2204.32 393.884 Q2202.47 394.301 2200.52 395.18 L2200.52 377.819 Z" fill="#adb2b7" fill-rule="evenodd" fill-opacity="1" /><path clip-path="url(#clip600)" d="M 0 0 M2225.22 376.407 L2228.92 376.407 Q2232.4 381.87 2234.11 387.102 Q2235.84 392.333 2235.84 397.495 Q2235.84 402.68 2234.11 407.935 Q2232.4 413.189 2228.92 418.629 L2225.22 418.629 Q2228.3 413.328 2229.8 408.097 Q2231.33 402.842 2231.33 397.495 Q2231.33 392.148 2229.8 386.94 Q2228.3 381.731 2225.22 376.407 Z" fill="#adb2b7" fill-rule="evenodd" fill-opacity="1" /></svg>
