<?xml version="1.0" encoding="utf-8"?>
<svg xmlns="http://www.w3.org/2000/svg" xmlns:xlink="http://www.w3.org/1999/xlink" width="600" height="400" viewBox="0 0 2400 1600">
<defs>
  <clipPath id="clip560">
    <rect x="0" y="0" width="2400" height="1600"/>
  </clipPath>
</defs>
<path clip-path="url(#clip560)" d="
M0 1600 L2400 1600 L2400 0 L0 0  Z
  " fill="#282c34" fill-rule="evenodd" fill-opacity="1"/>
<defs>
  <clipPath id="clip561">
    <rect x="480" y="0" width="1681" height="1600"/>
  </clipPath>
</defs>
<path clip-path="url(#clip560)" d="
M238.13 1423.18 L2352.76 1423.18 L2352.76 47.2441 L238.13 47.2441  Z
  " fill="#21252b" fill-rule="evenodd" fill-opacity="1"/>
<defs>
  <clipPath id="clip562">
    <rect x="238" y="47" width="2116" height="1377"/>
  </clipPath>
</defs>
<polyline clip-path="url(#clip562)" style="stroke:#adb2b7; stroke-width:2; stroke-opacity:0.1; fill:none" points="
  297.978,1423.18 297.978,47.2441 
  "/>
<polyline clip-path="url(#clip562)" style="stroke:#adb2b7; stroke-width:2; stroke-opacity:0.1; fill:none" points="
  796.71,1423.18 796.71,47.2441 
  "/>
<polyline clip-path="url(#clip562)" style="stroke:#adb2b7; stroke-width:2; stroke-opacity:0.1; fill:none" points="
  1295.44,1423.18 1295.44,47.2441 
  "/>
<polyline clip-path="url(#clip562)" style="stroke:#adb2b7; stroke-width:2; stroke-opacity:0.1; fill:none" points="
  1794.18,1423.18 1794.18,47.2441 
  "/>
<polyline clip-path="url(#clip562)" style="stroke:#adb2b7; stroke-width:2; stroke-opacity:0.1; fill:none" points="
  2292.91,1423.18 2292.91,47.2441 
  "/>
<polyline clip-path="url(#clip560)" style="stroke:#adb2b7; stroke-width:4; stroke-opacity:1; fill:none" points="
  238.13,1423.18 2352.76,1423.18 
  "/>
<polyline clip-path="url(#clip560)" style="stroke:#adb2b7; stroke-width:4; stroke-opacity:1; fill:none" points="
  297.978,1423.18 297.978,1406.67 
  "/>
<polyline clip-path="url(#clip560)" style="stroke:#adb2b7; stroke-width:4; stroke-opacity:1; fill:none" points="
  796.71,1423.18 796.71,1406.67 
  "/>
<polyline clip-path="url(#clip560)" style="stroke:#adb2b7; stroke-width:4; stroke-opacity:1; fill:none" points="
  1295.44,1423.18 1295.44,1406.67 
  "/>
<polyline clip-path="url(#clip560)" style="stroke:#adb2b7; stroke-width:4; stroke-opacity:1; fill:none" points="
  1794.18,1423.18 1794.18,1406.67 
  "/>
<polyline clip-path="url(#clip560)" style="stroke:#adb2b7; stroke-width:4; stroke-opacity:1; fill:none" points="
  2292.91,1423.18 2292.91,1406.67 
  "/>
<path clip-path="url(#clip560)" d="M 0 0 M265.987 1452.37 Q262.376 1452.37 260.548 1455.94 Q258.742 1459.48 258.742 1466.61 Q258.742 1473.71 260.548 1477.28 Q262.376 1480.82 265.987 1480.82 Q269.622 1480.82 271.427 1477.28 Q273.256 1473.71 273.256 1466.61 Q273.256 1459.48 271.427 1455.94 Q269.622 1452.37 265.987 1452.37 M265.987 1448.67 Q271.798 1448.67 274.853 1453.27 Q277.932 1457.86 277.932 1466.61 Q277.932 1475.33 274.853 1479.94 Q271.798 1484.52 265.987 1484.52 Q260.177 1484.52 257.099 1479.94 Q254.043 1475.33 254.043 1466.61 Q254.043 1457.86 257.099 1453.27 Q260.177 1448.67 265.987 1448.67 Z" fill="#9eb1be" fill-rule="evenodd" fill-opacity="1" /><path clip-path="url(#clip560)" d="M 0 0 M283.001 1477.97 L287.885 1477.97 L287.885 1483.85 L283.001 1483.85 L283.001 1477.97 Z" fill="#9eb1be" fill-rule="evenodd" fill-opacity="1" /><path clip-path="url(#clip560)" d="M 0 0 M302.955 1452.37 Q299.344 1452.37 297.515 1455.94 Q295.709 1459.48 295.709 1466.61 Q295.709 1473.71 297.515 1477.28 Q299.344 1480.82 302.955 1480.82 Q306.589 1480.82 308.395 1477.28 Q310.223 1473.71 310.223 1466.61 Q310.223 1459.48 308.395 1455.94 Q306.589 1452.37 302.955 1452.37 M302.955 1448.67 Q308.765 1448.67 311.82 1453.27 Q314.899 1457.86 314.899 1466.61 Q314.899 1475.33 311.82 1479.94 Q308.765 1484.52 302.955 1484.52 Q297.145 1484.52 294.066 1479.94 Q291.01 1475.33 291.01 1466.61 Q291.01 1457.86 294.066 1453.27 Q297.145 1448.67 302.955 1448.67 Z" fill="#9eb1be" fill-rule="evenodd" fill-opacity="1" /><path clip-path="url(#clip560)" d="M 0 0 M329.969 1452.37 Q326.357 1452.37 324.529 1455.94 Q322.723 1459.48 322.723 1466.61 Q322.723 1473.71 324.529 1477.28 Q326.357 1480.82 329.969 1480.82 Q333.603 1480.82 335.408 1477.28 Q337.237 1473.71 337.237 1466.61 Q337.237 1459.48 335.408 1455.94 Q333.603 1452.37 329.969 1452.37 M329.969 1448.67 Q335.779 1448.67 338.834 1453.27 Q341.913 1457.86 341.913 1466.61 Q341.913 1475.33 338.834 1479.94 Q335.779 1484.52 329.969 1484.52 Q324.158 1484.52 321.08 1479.94 Q318.024 1475.33 318.024 1466.61 Q318.024 1457.86 321.08 1453.27 Q324.158 1448.67 329.969 1448.67 Z" fill="#9eb1be" fill-rule="evenodd" fill-opacity="1" /><path clip-path="url(#clip560)" d="M 0 0 M766.016 1452.37 Q762.405 1452.37 760.576 1455.94 Q758.771 1459.48 758.771 1466.61 Q758.771 1473.71 760.576 1477.28 Q762.405 1480.82 766.016 1480.82 Q769.65 1480.82 771.456 1477.28 Q773.285 1473.71 773.285 1466.61 Q773.285 1459.48 771.456 1455.94 Q769.65 1452.37 766.016 1452.37 M766.016 1448.67 Q771.826 1448.67 774.882 1453.27 Q777.961 1457.86 777.961 1466.61 Q777.961 1475.33 774.882 1479.94 Q771.826 1484.52 766.016 1484.52 Q760.206 1484.52 757.127 1479.94 Q754.072 1475.33 754.072 1466.61 Q754.072 1457.86 757.127 1453.27 Q760.206 1448.67 766.016 1448.67 Z" fill="#9eb1be" fill-rule="evenodd" fill-opacity="1" /><path clip-path="url(#clip560)" d="M 0 0 M783.03 1477.97 L787.914 1477.97 L787.914 1483.85 L783.03 1483.85 L783.03 1477.97 Z" fill="#9eb1be" fill-rule="evenodd" fill-opacity="1" /><path clip-path="url(#clip560)" d="M 0 0 M797.011 1479.92 L813.331 1479.92 L813.331 1483.85 L791.386 1483.85 L791.386 1479.92 Q794.048 1477.16 798.632 1472.53 Q803.238 1467.88 804.419 1466.54 Q806.664 1464.01 807.544 1462.28 Q808.447 1460.52 808.447 1458.83 Q808.447 1456.07 806.502 1454.34 Q804.581 1452.6 801.479 1452.6 Q799.28 1452.6 796.826 1453.37 Q794.396 1454.13 791.618 1455.68 L791.618 1450.96 Q794.442 1449.82 796.896 1449.25 Q799.349 1448.67 801.386 1448.67 Q806.757 1448.67 809.951 1451.35 Q813.146 1454.04 813.146 1458.53 Q813.146 1460.66 812.335 1462.58 Q811.548 1464.48 809.442 1467.07 Q808.863 1467.74 805.761 1470.96 Q802.66 1474.15 797.011 1479.92 Z" fill="#9eb1be" fill-rule="evenodd" fill-opacity="1" /><path clip-path="url(#clip560)" d="M 0 0 M818.446 1449.29 L836.803 1449.29 L836.803 1453.23 L822.729 1453.23 L822.729 1461.7 Q823.747 1461.35 824.766 1461.19 Q825.784 1461 826.803 1461 Q832.59 1461 835.97 1464.18 Q839.349 1467.35 839.349 1472.76 Q839.349 1478.34 835.877 1481.44 Q832.405 1484.52 826.085 1484.52 Q823.909 1484.52 821.641 1484.15 Q819.396 1483.78 816.988 1483.04 L816.988 1478.34 Q819.071 1479.48 821.294 1480.03 Q823.516 1480.59 825.993 1480.59 Q829.997 1480.59 832.335 1478.48 Q834.673 1476.38 834.673 1472.76 Q834.673 1469.15 832.335 1467.05 Q829.997 1464.94 825.993 1464.94 Q824.118 1464.94 822.243 1465.36 Q820.391 1465.77 818.446 1466.65 L818.446 1449.29 Z" fill="#9eb1be" fill-rule="evenodd" fill-opacity="1" /><path clip-path="url(#clip560)" d="M 0 0 M1263.95 1452.37 Q1260.34 1452.37 1258.51 1455.94 Q1256.7 1459.48 1256.7 1466.61 Q1256.7 1473.71 1258.51 1477.28 Q1260.34 1480.82 1263.95 1480.82 Q1267.58 1480.82 1269.39 1477.28 Q1271.22 1473.71 1271.22 1466.61 Q1271.22 1459.48 1269.39 1455.94 Q1267.58 1452.37 1263.95 1452.37 M1263.95 1448.67 Q1269.76 1448.67 1272.82 1453.27 Q1275.89 1457.86 1275.89 1466.61 Q1275.89 1475.33 1272.82 1479.94 Q1269.76 1484.52 1263.95 1484.52 Q1258.14 1484.52 1255.06 1479.94 Q1252.01 1475.33 1252.01 1466.61 Q1252.01 1457.86 1255.06 1453.27 Q1258.14 1448.67 1263.95 1448.67 Z" fill="#9eb1be" fill-rule="evenodd" fill-opacity="1" /><path clip-path="url(#clip560)" d="M 0 0 M1280.96 1477.97 L1285.85 1477.97 L1285.85 1483.85 L1280.96 1483.85 L1280.96 1477.97 Z" fill="#9eb1be" fill-rule="evenodd" fill-opacity="1" /><path clip-path="url(#clip560)" d="M 0 0 M1290.96 1449.29 L1309.32 1449.29 L1309.32 1453.23 L1295.25 1453.23 L1295.25 1461.7 Q1296.26 1461.35 1297.28 1461.19 Q1298.3 1461 1299.32 1461 Q1305.11 1461 1308.49 1464.18 Q1311.87 1467.35 1311.87 1472.76 Q1311.87 1478.34 1308.39 1481.44 Q1304.92 1484.52 1298.6 1484.52 Q1296.43 1484.52 1294.16 1484.15 Q1291.91 1483.78 1289.51 1483.04 L1289.51 1478.34 Q1291.59 1479.48 1293.81 1480.03 Q1296.03 1480.59 1298.51 1480.59 Q1302.51 1480.59 1304.85 1478.48 Q1307.19 1476.38 1307.19 1472.76 Q1307.19 1469.15 1304.85 1467.05 Q1302.51 1464.94 1298.51 1464.94 Q1296.64 1464.94 1294.76 1465.36 Q1292.91 1465.77 1290.96 1466.65 L1290.96 1449.29 Z" fill="#9eb1be" fill-rule="evenodd" fill-opacity="1" /><path clip-path="url(#clip560)" d="M 0 0 M1326.94 1452.37 Q1323.32 1452.37 1321.5 1455.94 Q1319.69 1459.48 1319.69 1466.61 Q1319.69 1473.71 1321.5 1477.28 Q1323.32 1480.82 1326.94 1480.82 Q1330.57 1480.82 1332.38 1477.28 Q1334.2 1473.71 1334.2 1466.61 Q1334.2 1459.48 1332.38 1455.94 Q1330.57 1452.37 1326.94 1452.37 M1326.94 1448.67 Q1332.75 1448.67 1335.8 1453.27 Q1338.88 1457.86 1338.88 1466.61 Q1338.88 1475.33 1335.8 1479.94 Q1332.75 1484.52 1326.94 1484.52 Q1321.13 1484.52 1318.05 1479.94 Q1314.99 1475.33 1314.99 1466.61 Q1314.99 1457.86 1318.05 1453.27 Q1321.13 1448.67 1326.94 1448.67 Z" fill="#9eb1be" fill-rule="evenodd" fill-opacity="1" /><path clip-path="url(#clip560)" d="M 0 0 M1763.13 1452.37 Q1759.52 1452.37 1757.69 1455.94 Q1755.89 1459.48 1755.89 1466.61 Q1755.89 1473.71 1757.69 1477.28 Q1759.52 1480.82 1763.13 1480.82 Q1766.77 1480.82 1768.57 1477.28 Q1770.4 1473.71 1770.4 1466.61 Q1770.4 1459.48 1768.57 1455.94 Q1766.77 1452.37 1763.13 1452.37 M1763.13 1448.67 Q1768.94 1448.67 1772 1453.27 Q1775.08 1457.86 1775.08 1466.61 Q1775.08 1475.33 1772 1479.94 Q1768.94 1484.52 1763.13 1484.52 Q1757.32 1484.52 1754.25 1479.94 Q1751.19 1475.33 1751.19 1466.61 Q1751.19 1457.86 1754.25 1453.27 Q1757.32 1448.67 1763.13 1448.67 Z" fill="#9eb1be" fill-rule="evenodd" fill-opacity="1" /><path clip-path="url(#clip560)" d="M 0 0 M1780.15 1477.97 L1785.03 1477.97 L1785.03 1483.85 L1780.15 1483.85 L1780.15 1477.97 Z" fill="#9eb1be" fill-rule="evenodd" fill-opacity="1" /><path clip-path="url(#clip560)" d="M 0 0 M1788.92 1449.29 L1811.14 1449.29 L1811.14 1451.28 L1798.6 1483.85 L1793.71 1483.85 L1805.52 1453.23 L1788.92 1453.23 L1788.92 1449.29 Z" fill="#9eb1be" fill-rule="evenodd" fill-opacity="1" /><path clip-path="url(#clip560)" d="M 0 0 M1816.26 1449.29 L1834.62 1449.29 L1834.62 1453.23 L1820.54 1453.23 L1820.54 1461.7 Q1821.56 1461.35 1822.58 1461.19 Q1823.6 1461 1824.62 1461 Q1830.4 1461 1833.78 1464.18 Q1837.16 1467.35 1837.16 1472.76 Q1837.16 1478.34 1833.69 1481.44 Q1830.22 1484.52 1823.9 1484.52 Q1821.72 1484.52 1819.45 1484.15 Q1817.21 1483.78 1814.8 1483.04 L1814.8 1478.34 Q1816.88 1479.48 1819.11 1480.03 Q1821.33 1480.59 1823.8 1480.59 Q1827.81 1480.59 1830.15 1478.48 Q1832.49 1476.38 1832.49 1472.76 Q1832.49 1469.15 1830.15 1467.05 Q1827.81 1464.94 1823.8 1464.94 Q1821.93 1464.94 1820.05 1465.36 Q1818.2 1465.77 1816.26 1466.65 L1816.26 1449.29 Z" fill="#9eb1be" fill-rule="evenodd" fill-opacity="1" /><path clip-path="url(#clip560)" d="M 0 0 M2251.3 1479.92 L2258.94 1479.92 L2258.94 1453.55 L2250.63 1455.22 L2250.63 1450.96 L2258.89 1449.29 L2263.57 1449.29 L2263.57 1479.92 L2271.21 1479.92 L2271.21 1483.85 L2251.3 1483.85 L2251.3 1479.92 Z" fill="#9eb1be" fill-rule="evenodd" fill-opacity="1" /><path clip-path="url(#clip560)" d="M 0 0 M2276.28 1477.97 L2281.16 1477.97 L2281.16 1483.85 L2276.28 1483.85 L2276.28 1477.97 Z" fill="#9eb1be" fill-rule="evenodd" fill-opacity="1" /><path clip-path="url(#clip560)" d="M 0 0 M2296.23 1452.37 Q2292.62 1452.37 2290.79 1455.94 Q2288.98 1459.48 2288.98 1466.61 Q2288.98 1473.71 2290.79 1477.28 Q2292.62 1480.82 2296.23 1480.82 Q2299.86 1480.82 2301.67 1477.28 Q2303.5 1473.71 2303.5 1466.61 Q2303.5 1459.48 2301.67 1455.94 Q2299.86 1452.37 2296.23 1452.37 M2296.23 1448.67 Q2302.04 1448.67 2305.1 1453.27 Q2308.17 1457.86 2308.17 1466.61 Q2308.17 1475.33 2305.1 1479.94 Q2302.04 1484.52 2296.23 1484.52 Q2290.42 1484.52 2287.34 1479.94 Q2284.29 1475.33 2284.29 1466.61 Q2284.29 1457.86 2287.34 1453.27 Q2290.42 1448.67 2296.23 1448.67 Z" fill="#9eb1be" fill-rule="evenodd" fill-opacity="1" /><path clip-path="url(#clip560)" d="M 0 0 M2323.24 1452.37 Q2319.63 1452.37 2317.8 1455.94 Q2316 1459.48 2316 1466.61 Q2316 1473.71 2317.8 1477.28 Q2319.63 1480.82 2323.24 1480.82 Q2326.88 1480.82 2328.68 1477.28 Q2330.51 1473.71 2330.51 1466.61 Q2330.51 1459.48 2328.68 1455.94 Q2326.88 1452.37 2323.24 1452.37 M2323.24 1448.67 Q2329.05 1448.67 2332.11 1453.27 Q2335.19 1457.86 2335.19 1466.61 Q2335.19 1475.33 2332.11 1479.94 Q2329.05 1484.52 2323.24 1484.52 Q2317.43 1484.52 2314.35 1479.94 Q2311.3 1475.33 2311.3 1466.61 Q2311.3 1457.86 2314.35 1453.27 Q2317.43 1448.67 2323.24 1448.67 Z" fill="#9eb1be" fill-rule="evenodd" fill-opacity="1" /><path clip-path="url(#clip560)" d="M 0 0 M1297.13 1571.35 Q1294.65 1577.72 1292.29 1579.66 Q1289.94 1581.6 1285.99 1581.6 L1281.31 1581.6 L1281.31 1576.7 L1284.75 1576.7 Q1287.17 1576.7 1288.5 1575.56 Q1289.84 1574.41 1291.46 1570.14 L1292.51 1567.47 L1278.1 1532.4 L1284.3 1532.4 L1295.44 1560.28 L1306.58 1532.4 L1312.79 1532.4 L1297.13 1571.35 Z" fill="#9eb1be" fill-rule="evenodd" fill-opacity="1" /><polyline clip-path="url(#clip562)" style="stroke:#adb2b7; stroke-width:2; stroke-opacity:0.1; fill:none" points="
  238.13,1384.24 2352.76,1384.24 
  "/>
<polyline clip-path="url(#clip562)" style="stroke:#adb2b7; stroke-width:2; stroke-opacity:0.1; fill:none" points="
  238.13,1059.73 2352.76,1059.73 
  "/>
<polyline clip-path="url(#clip562)" style="stroke:#adb2b7; stroke-width:2; stroke-opacity:0.1; fill:none" points="
  238.13,735.212 2352.76,735.212 
  "/>
<polyline clip-path="url(#clip562)" style="stroke:#adb2b7; stroke-width:2; stroke-opacity:0.1; fill:none" points="
  238.13,410.699 2352.76,410.699 
  "/>
<polyline clip-path="url(#clip562)" style="stroke:#adb2b7; stroke-width:2; stroke-opacity:0.1; fill:none" points="
  238.13,86.1857 2352.76,86.1857 
  "/>
<polyline clip-path="url(#clip560)" style="stroke:#adb2b7; stroke-width:4; stroke-opacity:1; fill:none" points="
  238.13,1423.18 238.13,47.2441 
  "/>
<polyline clip-path="url(#clip560)" style="stroke:#adb2b7; stroke-width:4; stroke-opacity:1; fill:none" points="
  238.13,1384.24 263.506,1384.24 
  "/>
<polyline clip-path="url(#clip560)" style="stroke:#adb2b7; stroke-width:4; stroke-opacity:1; fill:none" points="
  238.13,1059.73 263.506,1059.73 
  "/>
<polyline clip-path="url(#clip560)" style="stroke:#adb2b7; stroke-width:4; stroke-opacity:1; fill:none" points="
  238.13,735.212 263.506,735.212 
  "/>
<polyline clip-path="url(#clip560)" style="stroke:#adb2b7; stroke-width:4; stroke-opacity:1; fill:none" points="
  238.13,410.699 263.506,410.699 
  "/>
<polyline clip-path="url(#clip560)" style="stroke:#adb2b7; stroke-width:4; stroke-opacity:1; fill:none" points="
  238.13,86.1857 263.506,86.1857 
  "/>
<path clip-path="url(#clip560)" d="M 0 0 M126.205 1370.04 Q122.593 1370.04 120.765 1373.6 Q118.959 1377.14 118.959 1384.27 Q118.959 1391.38 120.765 1394.94 Q122.593 1398.49 126.205 1398.49 Q129.839 1398.49 131.644 1394.94 Q133.473 1391.38 133.473 1384.27 Q133.473 1377.14 131.644 1373.6 Q129.839 1370.04 126.205 1370.04 M126.205 1366.33 Q132.015 1366.33 135.07 1370.94 Q138.149 1375.52 138.149 1384.27 Q138.149 1393 135.07 1397.61 Q132.015 1402.19 126.205 1402.19 Q120.394 1402.19 117.316 1397.61 Q114.26 1393 114.26 1384.27 Q114.26 1375.52 117.316 1370.94 Q120.394 1366.33 126.205 1366.33 Z" fill="#9eb1be" fill-rule="evenodd" fill-opacity="1" /><path clip-path="url(#clip560)" d="M 0 0 M143.218 1395.64 L148.103 1395.64 L148.103 1401.52 L143.218 1401.52 L143.218 1395.64 Z" fill="#9eb1be" fill-rule="evenodd" fill-opacity="1" /><path clip-path="url(#clip560)" d="M 0 0 M163.172 1370.04 Q159.561 1370.04 157.732 1373.6 Q155.927 1377.14 155.927 1384.27 Q155.927 1391.38 157.732 1394.94 Q159.561 1398.49 163.172 1398.49 Q166.806 1398.49 168.612 1394.94 Q170.44 1391.38 170.44 1384.27 Q170.44 1377.14 168.612 1373.6 Q166.806 1370.04 163.172 1370.04 M163.172 1366.33 Q168.982 1366.33 172.038 1370.94 Q175.116 1375.52 175.116 1384.27 Q175.116 1393 172.038 1397.61 Q168.982 1402.19 163.172 1402.19 Q157.362 1402.19 154.283 1397.61 Q151.228 1393 151.228 1384.27 Q151.228 1375.52 154.283 1370.94 Q157.362 1366.33 163.172 1366.33 Z" fill="#9eb1be" fill-rule="evenodd" fill-opacity="1" /><path clip-path="url(#clip560)" d="M 0 0 M190.186 1370.04 Q186.575 1370.04 184.746 1373.6 Q182.94 1377.14 182.94 1384.27 Q182.94 1391.38 184.746 1394.94 Q186.575 1398.49 190.186 1398.49 Q193.82 1398.49 195.625 1394.94 Q197.454 1391.38 197.454 1384.27 Q197.454 1377.14 195.625 1373.6 Q193.82 1370.04 190.186 1370.04 M190.186 1366.33 Q195.996 1366.33 199.051 1370.94 Q202.13 1375.52 202.13 1384.27 Q202.13 1393 199.051 1397.61 Q195.996 1402.19 190.186 1402.19 Q184.376 1402.19 181.297 1397.61 Q178.241 1393 178.241 1384.27 Q178.241 1375.52 181.297 1370.94 Q184.376 1366.33 190.186 1366.33 Z" fill="#9eb1be" fill-rule="evenodd" fill-opacity="1" /><path clip-path="url(#clip560)" d="M 0 0 M128.797 1045.52 Q125.186 1045.52 123.357 1049.09 Q121.552 1052.63 121.552 1059.76 Q121.552 1066.87 123.357 1070.43 Q125.186 1073.97 128.797 1073.97 Q132.431 1073.97 134.237 1070.43 Q136.066 1066.87 136.066 1059.76 Q136.066 1052.63 134.237 1049.09 Q132.431 1045.52 128.797 1045.52 M128.797 1041.82 Q134.607 1041.82 137.663 1046.43 Q140.741 1051.01 140.741 1059.76 Q140.741 1068.49 137.663 1073.09 Q134.607 1077.68 128.797 1077.68 Q122.987 1077.68 119.908 1073.09 Q116.853 1068.49 116.853 1059.76 Q116.853 1051.01 119.908 1046.43 Q122.987 1041.82 128.797 1041.82 Z" fill="#9eb1be" fill-rule="evenodd" fill-opacity="1" /><path clip-path="url(#clip560)" d="M 0 0 M145.811 1071.13 L150.695 1071.13 L150.695 1077.01 L145.811 1077.01 L145.811 1071.13 Z" fill="#9eb1be" fill-rule="evenodd" fill-opacity="1" /><path clip-path="url(#clip560)" d="M 0 0 M159.792 1073.07 L176.112 1073.07 L176.112 1077.01 L154.167 1077.01 L154.167 1073.07 Q156.829 1070.32 161.413 1065.69 Q166.019 1061.03 167.2 1059.69 Q169.445 1057.17 170.325 1055.43 Q171.227 1053.67 171.227 1051.98 Q171.227 1049.23 169.283 1047.49 Q167.362 1045.76 164.26 1045.76 Q162.061 1045.76 159.607 1046.52 Q157.177 1047.28 154.399 1048.83 L154.399 1044.11 Q157.223 1042.98 159.677 1042.4 Q162.13 1041.82 164.167 1041.82 Q169.538 1041.82 172.732 1044.51 Q175.926 1047.19 175.926 1051.68 Q175.926 1053.81 175.116 1055.73 Q174.329 1057.63 172.223 1060.22 Q171.644 1060.89 168.542 1064.11 Q165.44 1067.31 159.792 1073.07 Z" fill="#9eb1be" fill-rule="evenodd" fill-opacity="1" /><path clip-path="url(#clip560)" d="M 0 0 M181.227 1042.45 L199.584 1042.45 L199.584 1046.38 L185.51 1046.38 L185.51 1054.85 Q186.528 1054.51 187.547 1054.34 Q188.565 1054.16 189.584 1054.16 Q195.371 1054.16 198.75 1057.33 Q202.13 1060.5 202.13 1065.92 Q202.13 1071.5 198.658 1074.6 Q195.186 1077.68 188.866 1077.68 Q186.69 1077.68 184.422 1077.31 Q182.176 1076.94 179.769 1076.19 L179.769 1071.5 Q181.852 1072.63 184.075 1073.19 Q186.297 1073.74 188.774 1073.74 Q192.778 1073.74 195.116 1071.63 Q197.454 1069.53 197.454 1065.92 Q197.454 1062.31 195.116 1060.2 Q192.778 1058.09 188.774 1058.09 Q186.899 1058.09 185.024 1058.51 Q183.172 1058.93 181.227 1059.81 L181.227 1042.45 Z" fill="#9eb1be" fill-rule="evenodd" fill-opacity="1" /><path clip-path="url(#clip560)" d="M 0 0 M127.2 721.011 Q123.589 721.011 121.76 724.575 Q119.955 728.117 119.955 735.247 Q119.955 742.353 121.76 745.918 Q123.589 749.46 127.2 749.46 Q130.834 749.46 132.64 745.918 Q134.468 742.353 134.468 735.247 Q134.468 728.117 132.64 724.575 Q130.834 721.011 127.2 721.011 M127.2 717.307 Q133.01 717.307 136.066 721.913 Q139.144 726.497 139.144 735.247 Q139.144 743.973 136.066 748.58 Q133.01 753.163 127.2 753.163 Q121.39 753.163 118.311 748.58 Q115.256 743.973 115.256 735.247 Q115.256 726.497 118.311 721.913 Q121.39 717.307 127.2 717.307 Z" fill="#9eb1be" fill-rule="evenodd" fill-opacity="1" /><path clip-path="url(#clip560)" d="M 0 0 M144.214 746.612 L149.098 746.612 L149.098 752.492 L144.214 752.492 L144.214 746.612 Z" fill="#9eb1be" fill-rule="evenodd" fill-opacity="1" /><path clip-path="url(#clip560)" d="M 0 0 M154.214 717.932 L172.57 717.932 L172.57 721.867 L158.496 721.867 L158.496 730.339 Q159.515 729.992 160.533 729.83 Q161.552 729.645 162.57 729.645 Q168.357 729.645 171.737 732.816 Q175.116 735.987 175.116 741.404 Q175.116 746.983 171.644 750.085 Q168.172 753.163 161.852 753.163 Q159.677 753.163 157.408 752.793 Q155.163 752.423 152.755 751.682 L152.755 746.983 Q154.839 748.117 157.061 748.673 Q159.283 749.228 161.76 749.228 Q165.765 749.228 168.102 747.122 Q170.44 745.015 170.44 741.404 Q170.44 737.793 168.102 735.687 Q165.765 733.58 161.76 733.58 Q159.885 733.58 158.01 733.997 Q156.158 734.413 154.214 735.293 L154.214 717.932 Z" fill="#9eb1be" fill-rule="evenodd" fill-opacity="1" /><path clip-path="url(#clip560)" d="M 0 0 M190.186 721.011 Q186.575 721.011 184.746 724.575 Q182.94 728.117 182.94 735.247 Q182.94 742.353 184.746 745.918 Q186.575 749.46 190.186 749.46 Q193.82 749.46 195.625 745.918 Q197.454 742.353 197.454 735.247 Q197.454 728.117 195.625 724.575 Q193.82 721.011 190.186 721.011 M190.186 717.307 Q195.996 717.307 199.051 721.913 Q202.13 726.497 202.13 735.247 Q202.13 743.973 199.051 748.58 Q195.996 753.163 190.186 753.163 Q184.376 753.163 181.297 748.58 Q178.241 743.973 178.241 735.247 Q178.241 726.497 181.297 721.913 Q184.376 717.307 190.186 717.307 Z" fill="#9eb1be" fill-rule="evenodd" fill-opacity="1" /><path clip-path="url(#clip560)" d="M 0 0 M128.103 396.498 Q124.492 396.498 122.663 400.062 Q120.857 403.604 120.857 410.734 Q120.857 417.84 122.663 421.405 Q124.492 424.946 128.103 424.946 Q131.737 424.946 133.542 421.405 Q135.371 417.84 135.371 410.734 Q135.371 403.604 133.542 400.062 Q131.737 396.498 128.103 396.498 M128.103 392.794 Q133.913 392.794 136.968 397.4 Q140.047 401.984 140.047 410.734 Q140.047 419.46 136.968 424.067 Q133.913 428.65 128.103 428.65 Q122.293 428.65 119.214 424.067 Q116.158 419.46 116.158 410.734 Q116.158 401.984 119.214 397.4 Q122.293 392.794 128.103 392.794 Z" fill="#9eb1be" fill-rule="evenodd" fill-opacity="1" /><path clip-path="url(#clip560)" d="M 0 0 M145.116 422.099 L150.001 422.099 L150.001 427.979 L145.116 427.979 L145.116 422.099 Z" fill="#9eb1be" fill-rule="evenodd" fill-opacity="1" /><path clip-path="url(#clip560)" d="M 0 0 M153.89 393.419 L176.112 393.419 L176.112 395.41 L163.565 427.979 L158.681 427.979 L170.487 397.354 L153.89 397.354 L153.89 393.419 Z" fill="#9eb1be" fill-rule="evenodd" fill-opacity="1" /><path clip-path="url(#clip560)" d="M 0 0 M181.227 393.419 L199.584 393.419 L199.584 397.354 L185.51 397.354 L185.51 405.826 Q186.528 405.479 187.547 405.317 Q188.565 405.132 189.584 405.132 Q195.371 405.132 198.75 408.303 Q202.13 411.474 202.13 416.891 Q202.13 422.47 198.658 425.571 Q195.186 428.65 188.866 428.65 Q186.69 428.65 184.422 428.28 Q182.176 427.909 179.769 427.169 L179.769 422.47 Q181.852 423.604 184.075 424.159 Q186.297 424.715 188.774 424.715 Q192.778 424.715 195.116 422.608 Q197.454 420.502 197.454 416.891 Q197.454 413.28 195.116 411.173 Q192.778 409.067 188.774 409.067 Q186.899 409.067 185.024 409.484 Q183.172 409.9 181.227 410.78 L181.227 393.419 Z" fill="#9eb1be" fill-rule="evenodd" fill-opacity="1" /><path clip-path="url(#clip560)" d="M 0 0 M118.242 99.5305 L125.88 99.5305 L125.88 73.1649 L117.57 74.8316 L117.57 70.5723 L125.834 68.9057 L130.51 68.9057 L130.51 99.5305 L138.149 99.5305 L138.149 103.466 L118.242 103.466 L118.242 99.5305 Z" fill="#9eb1be" fill-rule="evenodd" fill-opacity="1" /><path clip-path="url(#clip560)" d="M 0 0 M143.218 97.5861 L148.103 97.5861 L148.103 103.466 L143.218 103.466 L143.218 97.5861 Z" fill="#9eb1be" fill-rule="evenodd" fill-opacity="1" /><path clip-path="url(#clip560)" d="M 0 0 M163.172 71.9844 Q159.561 71.9844 157.732 75.5492 Q155.927 79.0908 155.927 86.2204 Q155.927 93.3268 157.732 96.8916 Q159.561 100.433 163.172 100.433 Q166.806 100.433 168.612 96.8916 Q170.44 93.3268 170.44 86.2204 Q170.44 79.0908 168.612 75.5492 Q166.806 71.9844 163.172 71.9844 M163.172 68.2807 Q168.982 68.2807 172.038 72.8871 Q175.116 77.4704 175.116 86.2204 Q175.116 94.9472 172.038 99.5537 Q168.982 104.137 163.172 104.137 Q157.362 104.137 154.283 99.5537 Q151.228 94.9472 151.228 86.2204 Q151.228 77.4704 154.283 72.8871 Q157.362 68.2807 163.172 68.2807 Z" fill="#9eb1be" fill-rule="evenodd" fill-opacity="1" /><path clip-path="url(#clip560)" d="M 0 0 M190.186 71.9844 Q186.575 71.9844 184.746 75.5492 Q182.94 79.0908 182.94 86.2204 Q182.94 93.3268 184.746 96.8916 Q186.575 100.433 190.186 100.433 Q193.82 100.433 195.625 96.8916 Q197.454 93.3268 197.454 86.2204 Q197.454 79.0908 195.625 75.5492 Q193.82 71.9844 190.186 71.9844 M190.186 68.2807 Q195.996 68.2807 199.051 72.8871 Q202.13 77.4704 202.13 86.2204 Q202.13 94.9472 199.051 99.5537 Q195.996 104.137 190.186 104.137 Q184.376 104.137 181.297 99.5537 Q178.241 94.9472 178.241 86.2204 Q178.241 77.4704 181.297 72.8871 Q184.376 68.2807 190.186 68.2807 Z" fill="#9eb1be" fill-rule="evenodd" fill-opacity="1" /><path clip-path="url(#clip560)" d="M 0 0 M20.1444 900.657 L26.9239 900.657 Q23.9002 903.903 22.4043 907.595 Q20.9083 911.256 20.9083 915.393 Q20.9083 923.541 25.9054 927.87 Q30.8707 932.199 40.2919 932.199 Q49.6813 932.199 54.6784 927.87 Q59.6436 923.541 59.6436 915.393 Q59.6436 911.256 58.1477 907.595 Q56.6518 903.903 53.6281 900.657 L60.3439 900.657 Q62.6355 904.031 63.7814 907.818 Q64.9272 911.574 64.9272 915.775 Q64.9272 926.565 58.3387 932.772 Q51.7183 938.978 40.2919 938.978 Q28.8336 938.978 22.2451 932.772 Q15.6248 926.565 15.6248 915.775 Q15.6248 911.51 16.7706 907.754 Q17.8846 903.967 20.1444 900.657 Z" fill="#9eb1be" fill-rule="evenodd" fill-opacity="1" /><path clip-path="url(#clip560)" d="M 0 0 M32.4621 880.7 Q32.4621 885.411 36.1542 888.148 Q39.8145 890.885 46.212 890.885 Q52.6095 890.885 56.3017 888.18 Q59.9619 885.443 59.9619 880.7 Q59.9619 876.021 56.2698 873.284 Q52.5777 870.547 46.212 870.547 Q39.8781 870.547 36.186 873.284 Q32.4621 876.021 32.4621 880.7 M27.4968 880.7 Q27.4968 873.061 32.4621 868.701 Q37.4273 864.34 46.212 864.34 Q54.9649 864.34 59.9619 868.701 Q64.9272 873.061 64.9272 880.7 Q64.9272 888.371 59.9619 892.731 Q54.9649 897.06 46.212 897.06 Q37.4273 897.06 32.4621 892.731 Q27.4968 888.371 27.4968 880.7 Z" fill="#9eb1be" fill-rule="evenodd" fill-opacity="1" /><path clip-path="url(#clip560)" d="M 0 0 M42.4881 828.565 L64.0042 828.565 L64.0042 834.422 L42.679 834.422 Q37.6183 834.422 35.1038 836.395 Q32.5894 838.368 32.5894 842.315 Q32.5894 847.057 35.6131 849.795 Q38.6368 852.532 43.8567 852.532 L64.0042 852.532 L64.0042 858.42 L28.3562 858.42 L28.3562 852.532 L33.8944 852.532 Q30.6797 850.431 29.0883 847.599 Q27.4968 844.734 27.4968 841.01 Q27.4968 834.867 31.3163 831.716 Q35.1038 828.565 42.4881 828.565 Z" fill="#9eb1be" fill-rule="evenodd" fill-opacity="1" /><path clip-path="url(#clip560)" d="M 0 0 M29.7248 796.768 L35.1993 796.768 Q33.8307 799.251 33.1623 801.765 Q32.4621 804.248 32.4621 806.794 Q32.4621 812.492 36.0905 815.643 Q39.6872 818.794 46.212 818.794 Q52.7369 818.794 56.3653 815.643 Q59.9619 812.492 59.9619 806.794 Q59.9619 804.248 59.2935 801.765 Q58.5933 799.251 57.2247 796.768 L62.6355 796.768 Q63.7814 799.219 64.3543 801.861 Q64.9272 804.471 64.9272 807.431 Q64.9272 815.484 59.8664 820.226 Q54.8057 824.968 46.212 824.968 Q37.491 824.968 32.4939 820.194 Q27.4968 815.388 27.4968 807.049 Q27.4968 804.344 28.0697 801.765 Q28.6108 799.187 29.7248 796.768 Z" fill="#9eb1be" fill-rule="evenodd" fill-opacity="1" /><path clip-path="url(#clip560)" d="M 0 0 M44.7161 760.134 L47.5806 760.134 L47.5806 787.061 Q53.6281 786.679 56.8109 783.432 Q59.9619 780.154 59.9619 774.329 Q59.9619 770.955 59.1344 767.804 Q58.3069 764.622 56.6518 761.502 L62.1899 761.502 Q63.5267 764.653 64.227 767.964 Q64.9272 771.274 64.9272 774.679 Q64.9272 783.209 59.9619 788.206 Q54.9967 793.172 46.5303 793.172 Q37.7774 793.172 32.6531 788.461 Q27.4968 783.719 27.4968 775.698 Q27.4968 768.505 32.1438 764.335 Q36.7589 760.134 44.7161 760.134 M42.9973 765.99 Q38.1912 766.054 35.3266 768.696 Q32.4621 771.306 32.4621 775.634 Q32.4621 780.536 35.2312 783.496 Q38.0002 786.424 43.0292 786.87 L42.9973 765.99 Z" fill="#9eb1be" fill-rule="evenodd" fill-opacity="1" /><path clip-path="url(#clip560)" d="M 0 0 M42.4881 724.358 L64.0042 724.358 L64.0042 730.215 L42.679 730.215 Q37.6183 730.215 35.1038 732.188 Q32.5894 734.162 32.5894 738.108 Q32.5894 742.851 35.6131 745.588 Q38.6368 748.325 43.8567 748.325 L64.0042 748.325 L64.0042 754.214 L28.3562 754.214 L28.3562 748.325 L33.8944 748.325 Q30.6797 746.225 29.0883 743.392 Q27.4968 740.527 27.4968 736.803 Q27.4968 730.66 31.3163 727.509 Q35.1038 724.358 42.4881 724.358 Z" fill="#9eb1be" fill-rule="evenodd" fill-opacity="1" /><path clip-path="url(#clip560)" d="M 0 0 M18.2347 712.423 L28.3562 712.423 L28.3562 700.36 L32.9077 700.36 L32.9077 712.423 L52.2594 712.423 Q56.6199 712.423 57.8613 711.245 Q59.1026 710.036 59.1026 706.375 L59.1026 700.36 L64.0042 700.36 L64.0042 706.375 Q64.0042 713.155 61.4897 715.733 Q58.9434 718.311 52.2594 718.311 L32.9077 718.311 L32.9077 722.608 L28.3562 722.608 L28.3562 718.311 L18.2347 718.311 L18.2347 712.423 Z" fill="#9eb1be" fill-rule="evenodd" fill-opacity="1" /><path clip-path="url(#clip560)" d="M 0 0 M33.8307 673.56 Q33.2578 674.547 33.0032 675.724 Q32.7167 676.87 32.7167 678.271 Q32.7167 683.236 35.9632 685.91 Q39.1779 688.551 45.2253 688.551 L64.0042 688.551 L64.0042 694.44 L28.3562 694.44 L28.3562 688.551 L33.8944 688.551 Q30.6479 686.705 29.0883 683.745 Q27.4968 680.785 27.4968 676.552 Q27.4968 675.947 27.5923 675.215 Q27.656 674.483 27.8151 673.592 L33.8307 673.56 Z" fill="#9eb1be" fill-rule="evenodd" fill-opacity="1" /><path clip-path="url(#clip560)" d="M 0 0 M46.0847 651.216 Q46.0847 658.314 47.7079 661.051 Q49.3312 663.789 53.2461 663.789 Q56.3653 663.789 58.2114 661.752 Q60.0256 659.683 60.0256 656.15 Q60.0256 651.28 56.5881 648.352 Q53.1188 645.392 47.3897 645.392 L46.0847 645.392 L46.0847 651.216 M43.6657 639.535 L64.0042 639.535 L64.0042 645.392 L58.5933 645.392 Q61.8398 647.397 63.3994 650.389 Q64.9272 653.381 64.9272 657.709 Q64.9272 663.184 61.8716 666.431 Q58.7843 669.645 53.6281 669.645 Q47.6125 669.645 44.5569 665.635 Q41.5014 661.593 41.5014 653.604 L41.5014 645.392 L40.9285 645.392 Q36.8862 645.392 34.6901 648.065 Q32.4621 650.707 32.4621 655.513 Q32.4621 658.569 33.1941 661.465 Q33.9262 664.362 35.3903 667.035 L29.9795 667.035 Q28.7381 663.821 28.1334 660.797 Q27.4968 657.773 27.4968 654.909 Q27.4968 647.174 31.5072 643.355 Q35.5176 639.535 43.6657 639.535 Z" fill="#9eb1be" fill-rule="evenodd" fill-opacity="1" /><path clip-path="url(#clip560)" d="M 0 0 M18.2347 627.6 L28.3562 627.6 L28.3562 615.537 L32.9077 615.537 L32.9077 627.6 L52.2594 627.6 Q56.6199 627.6 57.8613 626.422 Q59.1026 625.213 59.1026 621.552 L59.1026 615.537 L64.0042 615.537 L64.0042 621.552 Q64.0042 628.332 61.4897 630.91 Q58.9434 633.488 52.2594 633.488 L32.9077 633.488 L32.9077 637.785 L28.3562 637.785 L28.3562 633.488 L18.2347 633.488 L18.2347 627.6 Z" fill="#9eb1be" fill-rule="evenodd" fill-opacity="1" /><path clip-path="url(#clip560)" d="M 0 0 M28.3562 609.394 L28.3562 603.537 L64.0042 603.537 L64.0042 609.394 L28.3562 609.394 M14.479 609.394 L14.479 603.537 L21.895 603.537 L21.895 609.394 L14.479 609.394 Z" fill="#9eb1be" fill-rule="evenodd" fill-opacity="1" /><path clip-path="url(#clip560)" d="M 0 0 M32.4621 583.581 Q32.4621 588.291 36.1542 591.029 Q39.8145 593.766 46.212 593.766 Q52.6095 593.766 56.3017 591.061 Q59.9619 588.323 59.9619 583.581 Q59.9619 578.902 56.2698 576.165 Q52.5777 573.428 46.212 573.428 Q39.8781 573.428 36.186 576.165 Q32.4621 578.902 32.4621 583.581 M27.4968 583.581 Q27.4968 575.942 32.4621 571.581 Q37.4273 567.221 46.212 567.221 Q54.9649 567.221 59.9619 571.581 Q64.9272 575.942 64.9272 583.581 Q64.9272 591.252 59.9619 595.612 Q54.9649 599.941 46.212 599.941 Q37.4273 599.941 32.4621 595.612 Q27.4968 591.252 27.4968 583.581 Z" fill="#9eb1be" fill-rule="evenodd" fill-opacity="1" /><path clip-path="url(#clip560)" d="M 0 0 M42.4881 531.446 L64.0042 531.446 L64.0042 537.302 L42.679 537.302 Q37.6183 537.302 35.1038 539.276 Q32.5894 541.249 32.5894 545.196 Q32.5894 549.938 35.6131 552.675 Q38.6368 555.413 43.8567 555.413 L64.0042 555.413 L64.0042 561.301 L28.3562 561.301 L28.3562 555.413 L33.8944 555.413 Q30.6797 553.312 29.0883 550.479 Q27.4968 547.615 27.4968 543.891 Q27.4968 537.748 31.3163 534.597 Q35.1038 531.446 42.4881 531.446 Z" fill="#9eb1be" fill-rule="evenodd" fill-opacity="1" /><polyline clip-path="url(#clip562)" style="stroke:#fe4365; stroke-width:4; stroke-opacity:1; fill:none" points="
  297.978,1384.24 338.691,1357.83 379.404,1331.42 420.117,1305.01 460.829,1278.6 501.542,1252.18 542.255,1225.77 582.968,1199.35 623.681,1172.93 664.394,1146.51 
  705.107,1120.08 745.819,1093.66 786.532,1067.23 827.245,1040.79 867.958,1014.35 908.671,987.911 949.384,961.464 990.097,935.013 1030.81,908.557 1071.52,882.097 
  1112.24,855.631 1152.95,829.161 1193.66,802.686 1234.37,776.205 1275.09,749.719 1315.8,723.228 1356.51,696.732 1397.23,670.231 1437.94,643.725 1478.65,617.213 
  1519.36,590.697 1560.08,564.176 1600.79,537.65 1641.5,511.119 1682.22,484.584 1722.93,458.045 1763.64,431.502 1804.35,404.954 1845.07,378.404 1885.78,351.85 
  1926.49,325.292 1967.21,298.732 2007.92,272.17 2048.63,245.605 2089.34,219.038 2130.06,192.469 2170.77,165.9 2211.48,139.329 2252.2,112.757 2292.91,86.1857 
  
  "/>
<polyline clip-path="url(#clip562)" style="stroke:#eca25c; stroke-width:4; stroke-opacity:1; fill:none" points="
  297.978,1384.24 338.691,1357.79 379.404,1331.34 420.117,1304.89 460.829,1278.44 501.542,1251.99 542.255,1225.53 582.968,1199.08 623.681,1172.63 664.394,1146.17 
  705.107,1119.71 745.819,1093.25 786.532,1066.79 827.245,1040.33 867.958,1013.86 908.671,987.397 949.384,960.928 990.097,934.457 1030.81,907.983 1071.52,881.507 
  1112.24,855.028 1152.95,828.547 1193.66,802.063 1234.37,775.577 1275.09,749.088 1315.8,722.596 1356.51,696.102 1397.23,669.606 1437.94,643.106 1478.65,616.605 
  1519.36,590.101 1560.08,563.594 1600.79,537.085 1641.5,510.574 1682.22,484.061 1722.93,457.545 1763.64,431.028 1804.35,404.509 1845.07,377.988 1885.78,351.466 
  1926.49,324.942 1967.21,298.417 2007.92,271.89 2048.63,245.363 2089.34,218.835 2130.06,192.306 2170.77,165.776 2211.48,139.246 2252.2,112.716 2292.91,86.1857 
  
  "/>
<polyline clip-path="url(#clip562)" style="stroke:#3f9778; stroke-width:4; stroke-opacity:1; fill:none" points="
  297.978,1384.24 338.691,1357.75 379.404,1331.27 420.117,1304.78 460.829,1278.3 501.542,1251.81 542.255,1225.32 582.968,1198.84 623.681,1172.35 664.394,1145.86 
  705.107,1119.37 745.819,1092.89 786.532,1066.4 827.245,1039.91 867.958,1013.42 908.671,986.934 949.384,960.446 990.097,933.956 1030.81,907.467 1071.52,880.977 
  1112.24,854.487 1152.95,827.997 1193.66,801.506 1234.37,775.015 1275.09,748.524 1315.8,722.032 1356.51,695.54 1397.23,669.048 1437.94,642.556 1478.65,616.064 
  1519.36,589.571 1560.08,563.078 1600.79,536.585 1641.5,510.092 1682.22,483.598 1722.93,457.105 1763.64,430.611 1804.35,404.117 1845.07,377.623 1885.78,351.129 
  1926.49,324.635 1967.21,298.14 2007.92,271.646 2048.63,245.152 2089.34,218.657 2130.06,192.163 2170.77,165.669 2211.48,139.174 2252.2,112.68 2292.91,86.1857 
  
  "/>
<circle clip-path="url(#clip562)" cx="297.978" cy="1384.24" r="12" fill="#005d7f" fill-rule="evenodd" fill-opacity="1" stroke="#adb2b7" stroke-opacity="1" stroke-width="3.2"/>
<circle clip-path="url(#clip562)" cx="338.691" cy="1357.75" r="12" fill="#005d7f" fill-rule="evenodd" fill-opacity="1" stroke="#adb2b7" stroke-opacity="1" stroke-width="3.2"/>
<circle clip-path="url(#clip562)" cx="379.404" cy="1331.26" r="12" fill="#005d7f" fill-rule="evenodd" fill-opacity="1" stroke="#adb2b7" stroke-opacity="1" stroke-width="3.2"/>
<circle clip-path="url(#clip562)" cx="420.117" cy="1304.77" r="12" fill="#005d7f" fill-rule="evenodd" fill-opacity="1" stroke="#adb2b7" stroke-opacity="1" stroke-width="3.2"/>
<circle clip-path="url(#clip562)" cx="460.829" cy="1278.29" r="12" fill="#005d7f" fill-rule="evenodd" fill-opacity="1" stroke="#adb2b7" stroke-opacity="1" stroke-width="3.2"/>
<circle clip-path="url(#clip562)" cx="501.542" cy="1251.8" r="12" fill="#005d7f" fill-rule="evenodd" fill-opacity="1" stroke="#adb2b7" stroke-opacity="1" stroke-width="3.2"/>
<circle clip-path="url(#clip562)" cx="542.255" cy="1225.31" r="12" fill="#005d7f" fill-rule="evenodd" fill-opacity="1" stroke="#adb2b7" stroke-opacity="1" stroke-width="3.2"/>
<circle clip-path="url(#clip562)" cx="582.968" cy="1198.82" r="12" fill="#005d7f" fill-rule="evenodd" fill-opacity="1" stroke="#adb2b7" stroke-opacity="1" stroke-width="3.2"/>
<circle clip-path="url(#clip562)" cx="623.681" cy="1172.33" r="12" fill="#005d7f" fill-rule="evenodd" fill-opacity="1" stroke="#adb2b7" stroke-opacity="1" stroke-width="3.2"/>
<circle clip-path="url(#clip562)" cx="664.394" cy="1145.84" r="12" fill="#005d7f" fill-rule="evenodd" fill-opacity="1" stroke="#adb2b7" stroke-opacity="1" stroke-width="3.2"/>
<circle clip-path="url(#clip562)" cx="705.107" cy="1119.36" r="12" fill="#005d7f" fill-rule="evenodd" fill-opacity="1" stroke="#adb2b7" stroke-opacity="1" stroke-width="3.2"/>
<circle clip-path="url(#clip562)" cx="745.819" cy="1092.87" r="12" fill="#005d7f" fill-rule="evenodd" fill-opacity="1" stroke="#adb2b7" stroke-opacity="1" stroke-width="3.2"/>
<circle clip-path="url(#clip562)" cx="786.532" cy="1066.38" r="12" fill="#005d7f" fill-rule="evenodd" fill-opacity="1" stroke="#adb2b7" stroke-opacity="1" stroke-width="3.2"/>
<circle clip-path="url(#clip562)" cx="827.245" cy="1039.89" r="12" fill="#005d7f" fill-rule="evenodd" fill-opacity="1" stroke="#adb2b7" stroke-opacity="1" stroke-width="3.2"/>
<circle clip-path="url(#clip562)" cx="867.958" cy="1013.4" r="12" fill="#005d7f" fill-rule="evenodd" fill-opacity="1" stroke="#adb2b7" stroke-opacity="1" stroke-width="3.2"/>
<circle clip-path="url(#clip562)" cx="908.671" cy="986.91" r="12" fill="#005d7f" fill-rule="evenodd" fill-opacity="1" stroke="#adb2b7" stroke-opacity="1" stroke-width="3.2"/>
<circle clip-path="url(#clip562)" cx="949.384" cy="960.421" r="12" fill="#005d7f" fill-rule="evenodd" fill-opacity="1" stroke="#adb2b7" stroke-opacity="1" stroke-width="3.2"/>
<circle clip-path="url(#clip562)" cx="990.097" cy="933.931" r="12" fill="#005d7f" fill-rule="evenodd" fill-opacity="1" stroke="#adb2b7" stroke-opacity="1" stroke-width="3.2"/>
<circle clip-path="url(#clip562)" cx="1030.81" cy="907.442" r="12" fill="#005d7f" fill-rule="evenodd" fill-opacity="1" stroke="#adb2b7" stroke-opacity="1" stroke-width="3.2"/>
<circle clip-path="url(#clip562)" cx="1071.52" cy="880.952" r="12" fill="#005d7f" fill-rule="evenodd" fill-opacity="1" stroke="#adb2b7" stroke-opacity="1" stroke-width="3.2"/>
<circle clip-path="url(#clip562)" cx="1112.24" cy="854.462" r="12" fill="#005d7f" fill-rule="evenodd" fill-opacity="1" stroke="#adb2b7" stroke-opacity="1" stroke-width="3.2"/>
<circle clip-path="url(#clip562)" cx="1152.95" cy="827.972" r="12" fill="#005d7f" fill-rule="evenodd" fill-opacity="1" stroke="#adb2b7" stroke-opacity="1" stroke-width="3.2"/>
<circle clip-path="url(#clip562)" cx="1193.66" cy="801.481" r="12" fill="#005d7f" fill-rule="evenodd" fill-opacity="1" stroke="#adb2b7" stroke-opacity="1" stroke-width="3.2"/>
<circle clip-path="url(#clip562)" cx="1234.37" cy="774.991" r="12" fill="#005d7f" fill-rule="evenodd" fill-opacity="1" stroke="#adb2b7" stroke-opacity="1" stroke-width="3.2"/>
<circle clip-path="url(#clip562)" cx="1275.09" cy="748.5" r="12" fill="#005d7f" fill-rule="evenodd" fill-opacity="1" stroke="#adb2b7" stroke-opacity="1" stroke-width="3.2"/>
<circle clip-path="url(#clip562)" cx="1315.8" cy="722.009" r="12" fill="#005d7f" fill-rule="evenodd" fill-opacity="1" stroke="#adb2b7" stroke-opacity="1" stroke-width="3.2"/>
<circle clip-path="url(#clip562)" cx="1356.51" cy="695.518" r="12" fill="#005d7f" fill-rule="evenodd" fill-opacity="1" stroke="#adb2b7" stroke-opacity="1" stroke-width="3.2"/>
<circle clip-path="url(#clip562)" cx="1397.23" cy="669.027" r="12" fill="#005d7f" fill-rule="evenodd" fill-opacity="1" stroke="#adb2b7" stroke-opacity="1" stroke-width="3.2"/>
<circle clip-path="url(#clip562)" cx="1437.94" cy="642.536" r="12" fill="#005d7f" fill-rule="evenodd" fill-opacity="1" stroke="#adb2b7" stroke-opacity="1" stroke-width="3.2"/>
<circle clip-path="url(#clip562)" cx="1478.65" cy="616.044" r="12" fill="#005d7f" fill-rule="evenodd" fill-opacity="1" stroke="#adb2b7" stroke-opacity="1" stroke-width="3.2"/>
<circle clip-path="url(#clip562)" cx="1519.36" cy="589.552" r="12" fill="#005d7f" fill-rule="evenodd" fill-opacity="1" stroke="#adb2b7" stroke-opacity="1" stroke-width="3.2"/>
<circle clip-path="url(#clip562)" cx="1560.08" cy="563.06" r="12" fill="#005d7f" fill-rule="evenodd" fill-opacity="1" stroke="#adb2b7" stroke-opacity="1" stroke-width="3.2"/>
<circle clip-path="url(#clip562)" cx="1600.79" cy="536.568" r="12" fill="#005d7f" fill-rule="evenodd" fill-opacity="1" stroke="#adb2b7" stroke-opacity="1" stroke-width="3.2"/>
<circle clip-path="url(#clip562)" cx="1641.5" cy="510.076" r="12" fill="#005d7f" fill-rule="evenodd" fill-opacity="1" stroke="#adb2b7" stroke-opacity="1" stroke-width="3.2"/>
<circle clip-path="url(#clip562)" cx="1682.22" cy="483.584" r="12" fill="#005d7f" fill-rule="evenodd" fill-opacity="1" stroke="#adb2b7" stroke-opacity="1" stroke-width="3.2"/>
<circle clip-path="url(#clip562)" cx="1722.93" cy="457.091" r="12" fill="#005d7f" fill-rule="evenodd" fill-opacity="1" stroke="#adb2b7" stroke-opacity="1" stroke-width="3.2"/>
<circle clip-path="url(#clip562)" cx="1763.64" cy="430.599" r="12" fill="#005d7f" fill-rule="evenodd" fill-opacity="1" stroke="#adb2b7" stroke-opacity="1" stroke-width="3.2"/>
<circle clip-path="url(#clip562)" cx="1804.35" cy="404.106" r="12" fill="#005d7f" fill-rule="evenodd" fill-opacity="1" stroke="#adb2b7" stroke-opacity="1" stroke-width="3.2"/>
<circle clip-path="url(#clip562)" cx="1845.07" cy="377.613" r="12" fill="#005d7f" fill-rule="evenodd" fill-opacity="1" stroke="#adb2b7" stroke-opacity="1" stroke-width="3.2"/>
<circle clip-path="url(#clip562)" cx="1885.78" cy="351.12" r="12" fill="#005d7f" fill-rule="evenodd" fill-opacity="1" stroke="#adb2b7" stroke-opacity="1" stroke-width="3.2"/>
<circle clip-path="url(#clip562)" cx="1926.49" cy="324.627" r="12" fill="#005d7f" fill-rule="evenodd" fill-opacity="1" stroke="#adb2b7" stroke-opacity="1" stroke-width="3.2"/>
<circle clip-path="url(#clip562)" cx="1967.21" cy="298.134" r="12" fill="#005d7f" fill-rule="evenodd" fill-opacity="1" stroke="#adb2b7" stroke-opacity="1" stroke-width="3.2"/>
<circle clip-path="url(#clip562)" cx="2007.92" cy="271.64" r="12" fill="#005d7f" fill-rule="evenodd" fill-opacity="1" stroke="#adb2b7" stroke-opacity="1" stroke-width="3.2"/>
<circle clip-path="url(#clip562)" cx="2048.63" cy="245.147" r="12" fill="#005d7f" fill-rule="evenodd" fill-opacity="1" stroke="#adb2b7" stroke-opacity="1" stroke-width="3.2"/>
<circle clip-path="url(#clip562)" cx="2089.34" cy="218.653" r="12" fill="#005d7f" fill-rule="evenodd" fill-opacity="1" stroke="#adb2b7" stroke-opacity="1" stroke-width="3.2"/>
<circle clip-path="url(#clip562)" cx="2130.06" cy="192.16" r="12" fill="#005d7f" fill-rule="evenodd" fill-opacity="1" stroke="#adb2b7" stroke-opacity="1" stroke-width="3.2"/>
<circle clip-path="url(#clip562)" cx="2170.77" cy="165.666" r="12" fill="#005d7f" fill-rule="evenodd" fill-opacity="1" stroke="#adb2b7" stroke-opacity="1" stroke-width="3.2"/>
<circle clip-path="url(#clip562)" cx="2211.48" cy="139.173" r="12" fill="#005d7f" fill-rule="evenodd" fill-opacity="1" stroke="#adb2b7" stroke-opacity="1" stroke-width="3.2"/>
<circle clip-path="url(#clip562)" cx="2252.2" cy="112.679" r="12" fill="#005d7f" fill-rule="evenodd" fill-opacity="1" stroke="#adb2b7" stroke-opacity="1" stroke-width="3.2"/>
<circle clip-path="url(#clip562)" cx="2292.91" cy="86.1857" r="12" fill="#005d7f" fill-rule="evenodd" fill-opacity="1" stroke="#adb2b7" stroke-opacity="1" stroke-width="3.2"/>
<path clip-path="url(#clip560)" d="
M1783.1 395.509 L2282.27 395.509 L2282.27 93.1086 L1783.1 93.1086  Z
  " fill="#282c34" fill-rule="evenodd" fill-opacity="1"/>
<polyline clip-path="url(#clip560)" style="stroke:#9eb1be; stroke-width:4; stroke-opacity:1; fill:none" points="
  1783.1,395.509 2282.27,395.509 2282.27,93.1086 1783.1,93.1086 1783.1,395.509 
  "/>
<polyline clip-path="url(#clip560)" style="stroke:#fe4365; stroke-width:4; stroke-opacity:1; fill:none" points="
  1806.59,153.589 1947.57,153.589 
  "/>
<path clip-path="url(#clip560)" d="M 0 0 M1978.17 136.309 L1982.85 136.309 L1982.85 168.461 Q1982.85 174.711 1980.46 177.535 Q1978.1 180.359 1972.85 180.359 L1971.07 180.359 L1971.07 176.424 L1972.52 176.424 Q1975.63 176.424 1976.9 174.688 Q1978.17 172.952 1978.17 168.461 L1978.17 136.309 Z" fill="#adb2b7" fill-rule="evenodd" fill-opacity="1" /><path clip-path="url(#clip560)" d="M 0 0 M1999.1 157.836 Q1993.94 157.836 1991.94 159.017 Q1989.95 160.197 1989.95 163.045 Q1989.95 165.313 1991.44 166.656 Q1992.94 167.975 1995.51 167.975 Q1999.05 167.975 2001.18 165.475 Q2003.33 162.952 2003.33 158.785 L2003.33 157.836 L1999.1 157.836 M2007.59 156.077 L2007.59 170.869 L2003.33 170.869 L2003.33 166.933 Q2001.88 169.295 1999.7 170.429 Q1997.52 171.54 1994.38 171.54 Q1990.39 171.54 1988.03 169.318 Q1985.69 167.072 1985.69 163.322 Q1985.69 158.947 1988.61 156.725 Q1991.55 154.503 1997.36 154.503 L2003.33 154.503 L2003.33 154.086 Q2003.33 151.147 2001.39 149.549 Q1999.47 147.929 1995.97 147.929 Q1993.75 147.929 1991.64 148.461 Q1989.54 148.994 1987.59 150.059 L1987.59 146.123 Q1989.93 145.221 1992.13 144.781 Q1994.33 144.318 1996.41 144.318 Q2002.04 144.318 2004.81 147.234 Q2007.59 150.151 2007.59 156.077 Z" fill="#adb2b7" fill-rule="evenodd" fill-opacity="1" /><path clip-path="url(#clip560)" d="M 0 0 M2030.72 145.938 L2030.72 149.92 Q2028.91 148.924 2027.08 148.438 Q2025.28 147.929 2023.43 147.929 Q2019.28 147.929 2016.99 150.568 Q2014.7 153.184 2014.7 157.929 Q2014.7 162.674 2016.99 165.313 Q2019.28 167.929 2023.43 167.929 Q2025.28 167.929 2027.08 167.443 Q2028.91 166.933 2030.72 165.938 L2030.72 169.873 Q2028.94 170.707 2027.01 171.123 Q2025.12 171.54 2022.96 171.54 Q2017.11 171.54 2013.66 167.859 Q2010.21 164.179 2010.21 157.929 Q2010.21 151.586 2013.68 147.952 Q2017.18 144.318 2023.24 144.318 Q2025.21 144.318 2027.08 144.735 Q2028.96 145.128 2030.72 145.938 Z" fill="#adb2b7" fill-rule="evenodd" fill-opacity="1" /><path clip-path="url(#clip560)" d="M 0 0 M2045.23 147.929 Q2041.81 147.929 2039.81 150.614 Q2037.82 153.276 2037.82 157.929 Q2037.82 162.582 2039.79 165.267 Q2041.78 167.929 2045.23 167.929 Q2048.63 167.929 2050.62 165.244 Q2052.62 162.558 2052.62 157.929 Q2052.62 153.322 2050.62 150.637 Q2048.63 147.929 2045.23 147.929 M2045.23 144.318 Q2050.79 144.318 2053.96 147.929 Q2057.13 151.54 2057.13 157.929 Q2057.13 164.295 2053.96 167.929 Q2050.79 171.54 2045.23 171.54 Q2039.65 171.54 2036.48 167.929 Q2033.33 164.295 2033.33 157.929 Q2033.33 151.54 2036.48 147.929 Q2039.65 144.318 2045.23 144.318 Z" fill="#adb2b7" fill-rule="evenodd" fill-opacity="1" /><path clip-path="url(#clip560)" d="M 0 0 M2080.21 157.929 Q2080.21 153.23 2078.26 150.568 Q2076.34 147.883 2072.96 147.883 Q2069.58 147.883 2067.64 150.568 Q2065.72 153.23 2065.72 157.929 Q2065.72 162.628 2067.64 165.313 Q2069.58 167.975 2072.96 167.975 Q2076.34 167.975 2078.26 165.313 Q2080.21 162.628 2080.21 157.929 M2065.72 148.878 Q2067.06 146.563 2069.1 145.452 Q2071.16 144.318 2074 144.318 Q2078.73 144.318 2081.67 148.068 Q2084.63 151.818 2084.63 157.929 Q2084.63 164.04 2081.67 167.79 Q2078.73 171.54 2074 171.54 Q2071.16 171.54 2069.1 170.429 Q2067.06 169.295 2065.72 166.98 L2065.72 170.869 L2061.44 170.869 L2061.44 134.85 L2065.72 134.85 L2065.72 148.878 Z" fill="#adb2b7" fill-rule="evenodd" fill-opacity="1" /><path clip-path="url(#clip560)" d="M 0 0 M2089.1 144.943 L2093.36 144.943 L2093.36 170.869 L2089.1 170.869 L2089.1 144.943 M2089.1 134.85 L2093.36 134.85 L2093.36 140.244 L2089.1 140.244 L2089.1 134.85 Z" fill="#adb2b7" fill-rule="evenodd" fill-opacity="1" /><polyline clip-path="url(#clip560)" style="stroke:#eca25c; stroke-width:4; stroke-opacity:1; fill:none" points="
  1806.59,214.069 1947.57,214.069 
  "/>
<path clip-path="url(#clip560)" d="M 0 0 M1996.62 226.418 L1996.62 217.136 L1988.98 217.136 L1988.98 213.293 L2001.25 213.293 L2001.25 228.131 Q1998.54 230.052 1995.28 231.048 Q1992.01 232.02 1988.31 232.02 Q1980.21 232.02 1975.63 227.298 Q1971.07 222.552 1971.07 214.103 Q1971.07 205.631 1975.63 200.909 Q1980.21 196.164 1988.31 196.164 Q1991.69 196.164 1994.72 196.997 Q1997.78 197.83 2000.35 199.451 L2000.35 204.427 Q1997.75 202.228 1994.84 201.117 Q1991.92 200.006 1988.7 200.006 Q1982.36 200.006 1979.17 203.548 Q1976 207.089 1976 214.103 Q1976 221.094 1979.17 224.636 Q1982.36 228.177 1988.7 228.177 Q1991.18 228.177 1993.13 227.761 Q1995.07 227.321 1996.62 226.418 Z" fill="#adb2b7" fill-rule="evenodd" fill-opacity="1" /><path clip-path="url(#clip560)" d="M 0 0 M2017.5 218.316 Q2012.34 218.316 2010.35 219.497 Q2008.36 220.677 2008.36 223.525 Q2008.36 225.793 2009.84 227.136 Q2011.34 228.455 2013.91 228.455 Q2017.45 228.455 2019.58 225.955 Q2021.74 223.432 2021.74 219.265 L2021.74 218.316 L2017.5 218.316 M2026 216.557 L2026 231.349 L2021.74 231.349 L2021.74 227.413 Q2020.28 229.775 2018.1 230.909 Q2015.93 232.02 2012.78 232.02 Q2008.8 232.02 2006.44 229.798 Q2004.1 227.552 2004.1 223.802 Q2004.1 219.427 2007.01 217.205 Q2009.95 214.983 2015.76 214.983 L2021.74 214.983 L2021.74 214.566 Q2021.74 211.627 2019.79 210.029 Q2017.87 208.409 2014.38 208.409 Q2012.15 208.409 2010.05 208.941 Q2007.94 209.474 2006 210.539 L2006 206.603 Q2008.33 205.701 2010.53 205.261 Q2012.73 204.798 2014.81 204.798 Q2020.44 204.798 2023.22 207.714 Q2026 210.631 2026 216.557 Z" fill="#adb2b7" fill-rule="evenodd" fill-opacity="1" /><path clip-path="url(#clip560)" d="M 0 0 M2030.02 221.117 L2030.02 205.423 L2034.28 205.423 L2034.28 220.955 Q2034.28 224.636 2035.72 226.488 Q2037.15 228.316 2040.02 228.316 Q2043.47 228.316 2045.46 226.117 Q2047.48 223.918 2047.48 220.122 L2047.48 205.423 L2051.74 205.423 L2051.74 231.349 L2047.48 231.349 L2047.48 227.367 Q2045.93 229.728 2043.87 230.886 Q2041.83 232.02 2039.12 232.02 Q2034.65 232.02 2032.34 229.242 Q2030.02 226.464 2030.02 221.117 M2040.74 204.798 L2040.74 204.798 Z" fill="#adb2b7" fill-rule="evenodd" fill-opacity="1" /><path clip-path="url(#clip560)" d="M 0 0 M2072.73 206.187 L2072.73 210.214 Q2070.93 209.289 2068.98 208.826 Q2067.04 208.363 2064.95 208.363 Q2061.78 208.363 2060.19 209.335 Q2058.61 210.307 2058.61 212.251 Q2058.61 213.733 2059.75 214.589 Q2060.88 215.423 2064.31 216.187 L2065.76 216.511 Q2070.3 217.483 2072.2 219.265 Q2074.12 221.025 2074.12 224.196 Q2074.12 227.807 2071.25 229.913 Q2068.4 232.02 2063.4 232.02 Q2061.32 232.02 2059.05 231.603 Q2056.81 231.21 2054.31 230.4 L2054.31 226.001 Q2056.67 227.228 2058.96 227.853 Q2061.25 228.455 2063.5 228.455 Q2066.5 228.455 2068.12 227.437 Q2069.75 226.395 2069.75 224.52 Q2069.75 222.784 2068.56 221.858 Q2067.41 220.932 2063.45 220.076 L2061.97 219.728 Q2058.01 218.895 2056.25 217.182 Q2054.49 215.446 2054.49 212.437 Q2054.49 208.779 2057.08 206.789 Q2059.68 204.798 2064.44 204.798 Q2066.81 204.798 2068.89 205.145 Q2070.97 205.492 2072.73 206.187 Z" fill="#adb2b7" fill-rule="evenodd" fill-opacity="1" /><path clip-path="url(#clip560)" d="M 0 0 M2095.12 206.187 L2095.12 210.214 Q2093.31 209.289 2091.37 208.826 Q2089.42 208.363 2087.34 208.363 Q2084.17 208.363 2082.57 209.335 Q2081 210.307 2081 212.251 Q2081 213.733 2082.13 214.589 Q2083.26 215.423 2086.69 216.187 L2088.15 216.511 Q2092.68 217.483 2094.58 219.265 Q2096.5 221.025 2096.5 224.196 Q2096.5 227.807 2093.63 229.913 Q2090.79 232.02 2085.79 232.02 Q2083.7 232.02 2081.43 231.603 Q2079.19 231.21 2076.69 230.4 L2076.69 226.001 Q2079.05 227.228 2081.34 227.853 Q2083.63 228.455 2085.88 228.455 Q2088.89 228.455 2090.51 227.437 Q2092.13 226.395 2092.13 224.52 Q2092.13 222.784 2090.95 221.858 Q2089.79 220.932 2085.83 220.076 L2084.35 219.728 Q2080.39 218.895 2078.63 217.182 Q2076.87 215.446 2076.87 212.437 Q2076.87 208.779 2079.47 206.789 Q2082.06 204.798 2086.83 204.798 Q2089.19 204.798 2091.27 205.145 Q2093.36 205.492 2095.12 206.187 Z" fill="#adb2b7" fill-rule="evenodd" fill-opacity="1" /><path clip-path="url(#clip560)" d="M 0 0 M2098.82 216.464 L2111.3 216.464 L2111.3 220.261 L2098.82 220.261 L2098.82 216.464 Z" fill="#adb2b7" fill-rule="evenodd" fill-opacity="1" /><path clip-path="url(#clip560)" d="M 0 0 M2136.67 197.923 L2136.67 202.483 Q2134 201.21 2131.64 200.585 Q2129.28 199.96 2127.08 199.96 Q2123.26 199.96 2121.18 201.441 Q2119.12 202.923 2119.12 205.654 Q2119.12 207.946 2120.49 209.127 Q2121.87 210.284 2125.72 211.002 L2128.54 211.58 Q2133.77 212.576 2136.25 215.099 Q2138.75 217.599 2138.75 221.812 Q2138.75 226.835 2135.37 229.427 Q2132.01 232.02 2125.51 232.02 Q2123.06 232.02 2120.28 231.464 Q2117.52 230.909 2114.56 229.821 L2114.56 225.006 Q2117.41 226.603 2120.14 227.413 Q2122.87 228.224 2125.51 228.224 Q2129.51 228.224 2131.69 226.65 Q2133.87 225.076 2133.87 222.159 Q2133.87 219.613 2132.29 218.177 Q2130.74 216.742 2127.18 216.025 L2124.33 215.469 Q2119.1 214.427 2116.76 212.205 Q2114.42 209.983 2114.42 206.025 Q2114.42 201.441 2117.64 198.802 Q2120.88 196.164 2126.55 196.164 Q2128.98 196.164 2131.5 196.603 Q2134.03 197.043 2136.67 197.923 Z" fill="#adb2b7" fill-rule="evenodd" fill-opacity="1" /><path clip-path="url(#clip560)" d="M 0 0 M2165.39 217.321 L2165.39 219.404 L2145.81 219.404 Q2146.09 223.802 2148.45 226.117 Q2150.83 228.409 2155.07 228.409 Q2157.52 228.409 2159.81 227.807 Q2162.13 227.205 2164.4 226.001 L2164.4 230.029 Q2162.11 231.001 2159.7 231.511 Q2157.29 232.02 2154.81 232.02 Q2148.61 232.02 2144.98 228.409 Q2141.37 224.798 2141.37 218.64 Q2141.37 212.275 2144.79 208.548 Q2148.24 204.798 2154.07 204.798 Q2159.3 204.798 2162.34 208.177 Q2165.39 211.534 2165.39 217.321 M2161.13 216.071 Q2161.09 212.576 2159.17 210.492 Q2157.27 208.409 2154.12 208.409 Q2150.55 208.409 2148.4 210.423 Q2146.27 212.437 2145.95 216.094 L2161.13 216.071 Z" fill="#adb2b7" fill-rule="evenodd" fill-opacity="1" /><path clip-path="url(#clip560)" d="M 0 0 M2169.86 205.423 L2174.12 205.423 L2174.12 231.349 L2169.86 231.349 L2169.86 205.423 M2169.86 195.33 L2174.12 195.33 L2174.12 200.724 L2169.86 200.724 L2169.86 195.33 Z" fill="#adb2b7" fill-rule="evenodd" fill-opacity="1" /><path clip-path="url(#clip560)" d="M 0 0 M2195.65 209.358 L2195.65 195.33 L2199.91 195.33 L2199.91 231.349 L2195.65 231.349 L2195.65 227.46 Q2194.3 229.775 2192.24 230.909 Q2190.21 232.02 2187.34 232.02 Q2182.64 232.02 2179.68 228.27 Q2176.74 224.52 2176.74 218.409 Q2176.74 212.298 2179.68 208.548 Q2182.64 204.798 2187.34 204.798 Q2190.21 204.798 2192.24 205.932 Q2194.3 207.043 2195.65 209.358 M2181.13 218.409 Q2181.13 223.108 2183.05 225.793 Q2185 228.455 2188.38 228.455 Q2191.76 228.455 2193.7 225.793 Q2195.65 223.108 2195.65 218.409 Q2195.65 213.71 2193.7 211.048 Q2191.76 208.363 2188.38 208.363 Q2185 208.363 2183.05 211.048 Q2181.13 213.71 2181.13 218.409 Z" fill="#adb2b7" fill-rule="evenodd" fill-opacity="1" /><path clip-path="url(#clip560)" d="M 0 0 M2226.55 217.321 L2226.55 219.404 L2206.97 219.404 Q2207.24 223.802 2209.61 226.117 Q2211.99 228.409 2216.23 228.409 Q2218.68 228.409 2220.97 227.807 Q2223.29 227.205 2225.55 226.001 L2225.55 230.029 Q2223.26 231.001 2220.86 231.511 Q2218.45 232.02 2215.97 232.02 Q2209.77 232.02 2206.13 228.409 Q2202.52 224.798 2202.52 218.64 Q2202.52 212.275 2205.95 208.548 Q2209.4 204.798 2215.23 204.798 Q2220.46 204.798 2223.49 208.177 Q2226.55 211.534 2226.55 217.321 M2222.29 216.071 Q2222.24 212.576 2220.32 210.492 Q2218.42 208.409 2215.28 208.409 Q2211.71 208.409 2209.56 210.423 Q2207.43 212.437 2207.11 216.094 L2222.29 216.071 Z" fill="#adb2b7" fill-rule="evenodd" fill-opacity="1" /><path clip-path="url(#clip560)" d="M 0 0 M2231.02 195.33 L2235.28 195.33 L2235.28 231.349 L2231.02 231.349 L2231.02 195.33 Z" fill="#adb2b7" fill-rule="evenodd" fill-opacity="1" /><polyline clip-path="url(#clip560)" style="stroke:#3f9778; stroke-width:4; stroke-opacity:1; fill:none" points="
  1806.59,274.549 1947.57,274.549 
  "/>
<path clip-path="url(#clip560)" d="M 0 0 M1993.31 258.403 L1993.31 262.963 Q1990.65 261.69 1988.29 261.065 Q1985.93 260.44 1983.73 260.44 Q1979.91 260.44 1977.82 261.921 Q1975.76 263.403 1975.76 266.134 Q1975.76 268.426 1977.13 269.607 Q1978.52 270.764 1982.36 271.482 L1985.19 272.06 Q1990.42 273.056 1992.89 275.579 Q1995.39 278.079 1995.39 282.292 Q1995.39 287.315 1992.01 289.907 Q1988.66 292.5 1982.15 292.5 Q1979.7 292.5 1976.92 291.944 Q1974.17 291.389 1971.2 290.301 L1971.2 285.486 Q1974.05 287.083 1976.78 287.893 Q1979.51 288.704 1982.15 288.704 Q1986.16 288.704 1988.33 287.13 Q1990.51 285.556 1990.51 282.639 Q1990.51 280.093 1988.94 278.657 Q1987.38 277.222 1983.82 276.505 L1980.97 275.949 Q1975.74 274.907 1973.4 272.685 Q1971.07 270.463 1971.07 266.505 Q1971.07 261.921 1974.28 259.282 Q1977.52 256.644 1983.19 256.644 Q1985.63 256.644 1988.15 257.083 Q1990.67 257.523 1993.31 258.403 Z" fill="#adb2b7" fill-rule="evenodd" fill-opacity="1" /><path clip-path="url(#clip560)" d="M 0 0 M2014.07 260.44 Q2008.98 260.44 2005.97 264.236 Q2002.99 268.032 2002.99 274.583 Q2002.99 281.111 2005.97 284.907 Q2008.98 288.704 2014.07 288.704 Q2019.17 288.704 2022.13 284.907 Q2025.12 281.111 2025.12 274.583 Q2025.12 268.032 2022.13 264.236 Q2019.17 260.44 2014.07 260.44 M2014.07 256.644 Q2021.34 256.644 2025.69 261.528 Q2030.05 266.389 2030.05 274.583 Q2030.05 282.755 2025.69 287.639 Q2021.34 292.5 2014.07 292.5 Q2006.78 292.5 2002.41 287.639 Q1998.06 282.778 1998.06 274.583 Q1998.06 266.389 2002.41 261.528 Q2006.78 256.644 2014.07 256.644 Z" fill="#adb2b7" fill-rule="evenodd" fill-opacity="1" /><path clip-path="url(#clip560)" d="M 0 0 M2051.09 275.625 Q2052.59 276.134 2054 277.801 Q2055.44 279.468 2056.87 282.384 L2061.62 291.829 L2056.6 291.829 L2052.18 282.963 Q2050.46 279.491 2048.84 278.356 Q2047.25 277.222 2044.47 277.222 L2039.37 277.222 L2039.37 291.829 L2034.7 291.829 L2034.7 257.269 L2045.25 257.269 Q2051.18 257.269 2054.1 259.745 Q2057.01 262.222 2057.01 267.222 Q2057.01 270.486 2055.49 272.639 Q2053.98 274.792 2051.09 275.625 M2039.37 261.111 L2039.37 273.38 L2045.25 273.38 Q2048.63 273.38 2050.35 271.829 Q2052.08 270.255 2052.08 267.222 Q2052.08 264.19 2050.35 262.662 Q2048.63 261.111 2045.25 261.111 L2039.37 261.111 Z" fill="#adb2b7" fill-rule="evenodd" fill-opacity="1" /><circle clip-path="url(#clip560)" cx="1877.08" cy="335.029" r="23" fill="#005d7f" fill-rule="evenodd" fill-opacity="1" stroke="#adb2b7" stroke-opacity="1" stroke-width="5.85143"/>
<path clip-path="url(#clip560)" d="M 0 0 M1986.9 322.355 L1980.56 339.554 L1993.26 339.554 L1986.9 322.355 M1984.26 317.749 L1989.56 317.749 L2002.73 352.309 L1997.87 352.309 L1994.72 343.443 L1979.14 343.443 L1976 352.309 L1971.07 352.309 L1984.26 317.749 Z" fill="#adb2b7" fill-rule="evenodd" fill-opacity="1" /><path clip-path="url(#clip560)" d="M 0 0 M2028.75 336.661 L2028.75 352.309 L2024.49 352.309 L2024.49 336.799 Q2024.49 333.119 2023.06 331.29 Q2021.62 329.462 2018.75 329.462 Q2015.3 329.462 2013.31 331.661 Q2011.32 333.86 2011.32 337.656 L2011.32 352.309 L2007.04 352.309 L2007.04 326.383 L2011.32 326.383 L2011.32 330.411 Q2012.85 328.073 2014.91 326.915 Q2016.99 325.758 2019.7 325.758 Q2024.17 325.758 2026.46 328.536 Q2028.75 331.29 2028.75 336.661 Z" fill="#adb2b7" fill-rule="evenodd" fill-opacity="1" /><path clip-path="url(#clip560)" d="M 0 0 M2045 339.276 Q2039.84 339.276 2037.85 340.457 Q2035.86 341.637 2035.86 344.485 Q2035.86 346.753 2037.34 348.096 Q2038.84 349.415 2041.41 349.415 Q2044.95 349.415 2047.08 346.915 Q2049.24 344.392 2049.24 340.225 L2049.24 339.276 L2045 339.276 M2053.5 337.517 L2053.5 352.309 L2049.24 352.309 L2049.24 348.373 Q2047.78 350.735 2045.6 351.869 Q2043.43 352.98 2040.28 352.98 Q2036.3 352.98 2033.94 350.758 Q2031.6 348.512 2031.6 344.762 Q2031.6 340.387 2034.51 338.165 Q2037.45 335.943 2043.26 335.943 L2049.24 335.943 L2049.24 335.526 Q2049.24 332.587 2047.29 330.989 Q2045.37 329.369 2041.87 329.369 Q2039.65 329.369 2037.55 329.901 Q2035.44 330.434 2033.5 331.499 L2033.5 327.563 Q2035.83 326.661 2038.03 326.221 Q2040.23 325.758 2042.31 325.758 Q2047.94 325.758 2050.72 328.674 Q2053.5 331.591 2053.5 337.517 Z" fill="#adb2b7" fill-rule="evenodd" fill-opacity="1" /><path clip-path="url(#clip560)" d="M 0 0 M2057.96 316.29 L2062.22 316.29 L2062.22 352.309 L2057.96 352.309 L2057.96 316.29 Z" fill="#adb2b7" fill-rule="evenodd" fill-opacity="1" /><path clip-path="url(#clip560)" d="M 0 0 M2077.48 354.716 Q2075.67 359.346 2073.96 360.758 Q2072.25 362.17 2069.37 362.17 L2065.97 362.17 L2065.97 358.605 L2068.47 358.605 Q2070.23 358.605 2071.2 357.772 Q2072.18 356.938 2073.36 353.836 L2074.12 351.892 L2063.63 326.383 L2068.15 326.383 L2076.25 346.661 L2084.35 326.383 L2088.87 326.383 L2077.48 354.716 Z" fill="#adb2b7" fill-rule="evenodd" fill-opacity="1" /><path clip-path="url(#clip560)" d="M 0 0 M2097.55 319.022 L2097.55 326.383 L2106.32 326.383 L2106.32 329.693 L2097.55 329.693 L2097.55 343.767 Q2097.55 346.938 2098.4 347.841 Q2099.28 348.744 2101.94 348.744 L2106.32 348.744 L2106.32 352.309 L2101.94 352.309 Q2097.01 352.309 2095.14 350.48 Q2093.26 348.628 2093.26 343.767 L2093.26 329.693 L2090.14 329.693 L2090.14 326.383 L2093.26 326.383 L2093.26 319.022 L2097.55 319.022 Z" fill="#adb2b7" fill-rule="evenodd" fill-opacity="1" /><path clip-path="url(#clip560)" d="M 0 0 M2110.79 326.383 L2115.05 326.383 L2115.05 352.309 L2110.79 352.309 L2110.79 326.383 M2110.79 316.29 L2115.05 316.29 L2115.05 321.684 L2110.79 321.684 L2110.79 316.29 Z" fill="#adb2b7" fill-rule="evenodd" fill-opacity="1" /><path clip-path="url(#clip560)" d="M 0 0 M2138.17 327.378 L2138.17 331.36 Q2136.37 330.364 2134.54 329.878 Q2132.73 329.369 2130.88 329.369 Q2126.74 329.369 2124.44 332.008 Q2122.15 334.624 2122.15 339.369 Q2122.15 344.114 2124.44 346.753 Q2126.74 349.369 2130.88 349.369 Q2132.73 349.369 2134.54 348.883 Q2136.37 348.373 2138.17 347.378 L2138.17 351.313 Q2136.39 352.147 2134.47 352.563 Q2132.57 352.98 2130.42 352.98 Q2124.56 352.98 2121.11 349.299 Q2117.66 345.619 2117.66 339.369 Q2117.66 333.026 2121.13 329.392 Q2124.63 325.758 2130.69 325.758 Q2132.66 325.758 2134.54 326.175 Q2136.41 326.568 2138.17 327.378 Z" fill="#adb2b7" fill-rule="evenodd" fill-opacity="1" /><path clip-path="url(#clip560)" d="M 0 0 M2154.42 339.276 Q2149.26 339.276 2147.27 340.457 Q2145.28 341.637 2145.28 344.485 Q2145.28 346.753 2146.76 348.096 Q2148.26 349.415 2150.83 349.415 Q2154.37 349.415 2156.5 346.915 Q2158.66 344.392 2158.66 340.225 L2158.66 339.276 L2154.42 339.276 M2162.92 337.517 L2162.92 352.309 L2158.66 352.309 L2158.66 348.373 Q2157.2 350.735 2155.02 351.869 Q2152.85 352.98 2149.7 352.98 Q2145.72 352.98 2143.36 350.758 Q2141.02 348.512 2141.02 344.762 Q2141.02 340.387 2143.93 338.165 Q2146.87 335.943 2152.68 335.943 L2158.66 335.943 L2158.66 335.526 Q2158.66 332.587 2156.71 330.989 Q2154.79 329.369 2151.3 329.369 Q2149.07 329.369 2146.97 329.901 Q2144.86 330.434 2142.92 331.499 L2142.92 327.563 Q2145.25 326.661 2147.45 326.221 Q2149.65 325.758 2151.74 325.758 Q2157.36 325.758 2160.14 328.674 Q2162.92 331.591 2162.92 337.517 Z" fill="#adb2b7" fill-rule="evenodd" fill-opacity="1" /><path clip-path="url(#clip560)" d="M 0 0 M2167.38 316.29 L2171.64 316.29 L2171.64 352.309 L2167.38 352.309 L2167.38 316.29 Z" fill="#adb2b7" fill-rule="evenodd" fill-opacity="1" /></svg>
