<?xml version="1.0" encoding="utf-8"?>
<svg xmlns="http://www.w3.org/2000/svg" xmlns:xlink="http://www.w3.org/1999/xlink" width="600" height="400" viewBox="0 0 2400 1600">
<defs>
  <clipPath id="clip720">
    <rect x="0" y="0" width="2400" height="1600"/>
  </clipPath>
</defs>
<path clip-path="url(#clip720)" d="
M0 1600 L2400 1600 L2400 0 L0 0  Z
  " fill="#282c34" fill-rule="evenodd" fill-opacity="1"/>
<defs>
  <clipPath id="clip721">
    <rect x="480" y="0" width="1681" height="1600"/>
  </clipPath>
</defs>
<path clip-path="url(#clip720)" d="
M253.246 1423.18 L2352.76 1423.18 L2352.76 47.2441 L253.246 47.2441  Z
  " fill="#21252b" fill-rule="evenodd" fill-opacity="1"/>
<defs>
  <clipPath id="clip722">
    <rect x="253" y="47" width="2101" height="1377"/>
  </clipPath>
</defs>
<polyline clip-path="url(#clip722)" style="stroke:#adb2b7; stroke-width:2; stroke-opacity:0.1; fill:none" points="
  595.619,1423.18 595.619,47.2441 
  "/>
<polyline clip-path="url(#clip722)" style="stroke:#adb2b7; stroke-width:2; stroke-opacity:0.1; fill:none" points="
  949.31,1423.18 949.31,47.2441 
  "/>
<polyline clip-path="url(#clip722)" style="stroke:#adb2b7; stroke-width:2; stroke-opacity:0.1; fill:none" points="
  1303,1423.18 1303,47.2441 
  "/>
<polyline clip-path="url(#clip722)" style="stroke:#adb2b7; stroke-width:2; stroke-opacity:0.1; fill:none" points="
  1656.69,1423.18 1656.69,47.2441 
  "/>
<polyline clip-path="url(#clip722)" style="stroke:#adb2b7; stroke-width:2; stroke-opacity:0.1; fill:none" points="
  2010.38,1423.18 2010.38,47.2441 
  "/>
<polyline clip-path="url(#clip720)" style="stroke:#adb2b7; stroke-width:4; stroke-opacity:1; fill:none" points="
  253.246,1423.18 2352.76,1423.18 
  "/>
<polyline clip-path="url(#clip720)" style="stroke:#adb2b7; stroke-width:4; stroke-opacity:1; fill:none" points="
  595.619,1423.18 595.619,1406.67 
  "/>
<polyline clip-path="url(#clip720)" style="stroke:#adb2b7; stroke-width:4; stroke-opacity:1; fill:none" points="
  949.31,1423.18 949.31,1406.67 
  "/>
<polyline clip-path="url(#clip720)" style="stroke:#adb2b7; stroke-width:4; stroke-opacity:1; fill:none" points="
  1303,1423.18 1303,1406.67 
  "/>
<polyline clip-path="url(#clip720)" style="stroke:#adb2b7; stroke-width:4; stroke-opacity:1; fill:none" points="
  1656.69,1423.18 1656.69,1406.67 
  "/>
<polyline clip-path="url(#clip720)" style="stroke:#adb2b7; stroke-width:4; stroke-opacity:1; fill:none" points="
  2010.38,1423.18 2010.38,1406.67 
  "/>
<path clip-path="url(#clip720)" d="M 0 0 M554.959 1479.92 L562.598 1479.92 L562.598 1453.55 L554.288 1455.22 L554.288 1450.96 L562.552 1449.29 L567.228 1449.29 L567.228 1479.92 L574.866 1479.92 L574.866 1483.85 L554.959 1483.85 L554.959 1479.92 Z" fill="#9eb1be" fill-rule="evenodd" fill-opacity="1" /><path clip-path="url(#clip720)" d="M 0 0 M579.936 1477.97 L584.82 1477.97 L584.82 1483.85 L579.936 1483.85 L579.936 1477.97 Z" fill="#9eb1be" fill-rule="evenodd" fill-opacity="1" /><path clip-path="url(#clip720)" d="M 0 0 M588.709 1449.29 L610.931 1449.29 L610.931 1451.28 L598.385 1483.85 L593.501 1483.85 L605.306 1453.23 L588.709 1453.23 L588.709 1449.29 Z" fill="#9eb1be" fill-rule="evenodd" fill-opacity="1" /><path clip-path="url(#clip720)" d="M 0 0 M616.047 1449.29 L634.403 1449.29 L634.403 1453.23 L620.329 1453.23 L620.329 1461.7 Q621.348 1461.35 622.366 1461.19 Q623.385 1461 624.403 1461 Q630.19 1461 633.57 1464.18 Q636.949 1467.35 636.949 1472.76 Q636.949 1478.34 633.477 1481.44 Q630.005 1484.52 623.686 1484.52 Q621.51 1484.52 619.241 1484.15 Q616.996 1483.78 614.588 1483.04 L614.588 1478.34 Q616.672 1479.48 618.894 1480.03 Q621.116 1480.59 623.593 1480.59 Q627.598 1480.59 629.936 1478.48 Q632.274 1476.38 632.274 1472.76 Q632.274 1469.15 629.936 1467.05 Q627.598 1464.94 623.593 1464.94 Q621.718 1464.94 619.843 1465.36 Q617.991 1465.77 616.047 1466.65 L616.047 1449.29 Z" fill="#9eb1be" fill-rule="evenodd" fill-opacity="1" /><path clip-path="url(#clip720)" d="M 0 0 M907.747 1479.92 L915.386 1479.92 L915.386 1453.55 L907.076 1455.22 L907.076 1450.96 L915.34 1449.29 L920.016 1449.29 L920.016 1479.92 L927.655 1479.92 L927.655 1483.85 L907.747 1483.85 L907.747 1479.92 Z" fill="#9eb1be" fill-rule="evenodd" fill-opacity="1" /><path clip-path="url(#clip720)" d="M 0 0 M932.724 1477.97 L937.608 1477.97 L937.608 1483.85 L932.724 1483.85 L932.724 1477.97 Z" fill="#9eb1be" fill-rule="evenodd" fill-opacity="1" /><path clip-path="url(#clip720)" d="M 0 0 M952.678 1467.44 Q949.344 1467.44 947.423 1469.22 Q945.525 1471 945.525 1474.13 Q945.525 1477.25 947.423 1479.04 Q949.344 1480.82 952.678 1480.82 Q956.011 1480.82 957.932 1479.04 Q959.854 1477.23 959.854 1474.13 Q959.854 1471 957.932 1469.22 Q956.034 1467.44 952.678 1467.44 M948.002 1465.45 Q944.993 1464.71 943.303 1462.65 Q941.636 1460.59 941.636 1457.63 Q941.636 1453.48 944.576 1451.07 Q947.539 1448.67 952.678 1448.67 Q957.84 1448.67 960.78 1451.07 Q963.719 1453.48 963.719 1457.63 Q963.719 1460.59 962.03 1462.65 Q960.363 1464.71 957.377 1465.45 Q960.756 1466.24 962.631 1468.53 Q964.53 1470.82 964.53 1474.13 Q964.53 1479.15 961.451 1481.84 Q958.395 1484.52 952.678 1484.52 Q946.96 1484.52 943.882 1481.84 Q940.826 1479.15 940.826 1474.13 Q940.826 1470.82 942.724 1468.53 Q944.622 1466.24 948.002 1465.45 M946.289 1458.06 Q946.289 1460.75 947.956 1462.25 Q949.645 1463.76 952.678 1463.76 Q955.687 1463.76 957.377 1462.25 Q959.09 1460.75 959.09 1458.06 Q959.09 1455.38 957.377 1453.88 Q955.687 1452.37 952.678 1452.37 Q949.645 1452.37 947.956 1453.88 Q946.289 1455.38 946.289 1458.06 Z" fill="#9eb1be" fill-rule="evenodd" fill-opacity="1" /><path clip-path="url(#clip720)" d="M 0 0 M979.599 1452.37 Q975.988 1452.37 974.159 1455.94 Q972.354 1459.48 972.354 1466.61 Q972.354 1473.71 974.159 1477.28 Q975.988 1480.82 979.599 1480.82 Q983.233 1480.82 985.039 1477.28 Q986.867 1473.71 986.867 1466.61 Q986.867 1459.48 985.039 1455.94 Q983.233 1452.37 979.599 1452.37 M979.599 1448.67 Q985.409 1448.67 988.465 1453.27 Q991.543 1457.86 991.543 1466.61 Q991.543 1475.33 988.465 1479.94 Q985.409 1484.52 979.599 1484.52 Q973.789 1484.52 970.71 1479.94 Q967.655 1475.33 967.655 1466.61 Q967.655 1457.86 970.71 1453.27 Q973.789 1448.67 979.599 1448.67 Z" fill="#9eb1be" fill-rule="evenodd" fill-opacity="1" /><path clip-path="url(#clip720)" d="M 0 0 M1261.94 1479.92 L1269.58 1479.92 L1269.58 1453.55 L1261.26 1455.22 L1261.26 1450.96 L1269.53 1449.29 L1274.2 1449.29 L1274.2 1479.92 L1281.84 1479.92 L1281.84 1483.85 L1261.94 1483.85 L1261.94 1479.92 Z" fill="#9eb1be" fill-rule="evenodd" fill-opacity="1" /><path clip-path="url(#clip720)" d="M 0 0 M1286.91 1477.97 L1291.8 1477.97 L1291.8 1483.85 L1286.91 1483.85 L1286.91 1477.97 Z" fill="#9eb1be" fill-rule="evenodd" fill-opacity="1" /><path clip-path="url(#clip720)" d="M 0 0 M1306.87 1467.44 Q1303.53 1467.44 1301.61 1469.22 Q1299.71 1471 1299.71 1474.13 Q1299.71 1477.25 1301.61 1479.04 Q1303.53 1480.82 1306.87 1480.82 Q1310.2 1480.82 1312.12 1479.04 Q1314.04 1477.23 1314.04 1474.13 Q1314.04 1471 1312.12 1469.22 Q1310.22 1467.44 1306.87 1467.44 M1302.19 1465.45 Q1299.18 1464.71 1297.49 1462.65 Q1295.82 1460.59 1295.82 1457.63 Q1295.82 1453.48 1298.76 1451.07 Q1301.73 1448.67 1306.87 1448.67 Q1312.03 1448.67 1314.97 1451.07 Q1317.91 1453.48 1317.91 1457.63 Q1317.91 1460.59 1316.22 1462.65 Q1314.55 1464.71 1311.57 1465.45 Q1314.95 1466.24 1316.82 1468.53 Q1318.72 1470.82 1318.72 1474.13 Q1318.72 1479.15 1315.64 1481.84 Q1312.58 1484.52 1306.87 1484.52 Q1301.15 1484.52 1298.07 1481.84 Q1295.01 1479.15 1295.01 1474.13 Q1295.01 1470.82 1296.91 1468.53 Q1298.81 1466.24 1302.19 1465.45 M1300.48 1458.06 Q1300.48 1460.75 1302.14 1462.25 Q1303.83 1463.76 1306.87 1463.76 Q1309.88 1463.76 1311.57 1462.25 Q1313.28 1460.75 1313.28 1458.06 Q1313.28 1455.38 1311.57 1453.88 Q1309.88 1452.37 1306.87 1452.37 Q1303.83 1452.37 1302.14 1453.88 Q1300.48 1455.38 1300.48 1458.06 Z" fill="#9eb1be" fill-rule="evenodd" fill-opacity="1" /><path clip-path="url(#clip720)" d="M 0 0 M1323.83 1449.29 L1342.19 1449.29 L1342.19 1453.23 L1328.12 1453.23 L1328.12 1461.7 Q1329.13 1461.35 1330.15 1461.19 Q1331.17 1461 1332.19 1461 Q1337.98 1461 1341.36 1464.18 Q1344.74 1467.35 1344.74 1472.76 Q1344.74 1478.34 1341.26 1481.44 Q1337.79 1484.52 1331.47 1484.52 Q1329.3 1484.52 1327.03 1484.15 Q1324.78 1483.78 1322.38 1483.04 L1322.38 1478.34 Q1324.46 1479.48 1326.68 1480.03 Q1328.9 1480.59 1331.38 1480.59 Q1335.38 1480.59 1337.72 1478.48 Q1340.06 1476.38 1340.06 1472.76 Q1340.06 1469.15 1337.72 1467.05 Q1335.38 1464.94 1331.38 1464.94 Q1329.51 1464.94 1327.63 1465.36 Q1325.78 1465.77 1323.83 1466.65 L1323.83 1449.29 Z" fill="#9eb1be" fill-rule="evenodd" fill-opacity="1" /><path clip-path="url(#clip720)" d="M 0 0 M1615.18 1479.92 L1622.81 1479.92 L1622.81 1453.55 L1614.5 1455.22 L1614.5 1450.96 L1622.77 1449.29 L1627.44 1449.29 L1627.44 1479.92 L1635.08 1479.92 L1635.08 1483.85 L1615.18 1483.85 L1615.18 1479.92 Z" fill="#9eb1be" fill-rule="evenodd" fill-opacity="1" /><path clip-path="url(#clip720)" d="M 0 0 M1640.15 1477.97 L1645.04 1477.97 L1645.04 1483.85 L1640.15 1483.85 L1640.15 1477.97 Z" fill="#9eb1be" fill-rule="evenodd" fill-opacity="1" /><path clip-path="url(#clip720)" d="M 0 0 M1650.25 1483.13 L1650.25 1478.88 Q1652 1479.71 1653.81 1480.15 Q1655.62 1480.59 1657.35 1480.59 Q1661.98 1480.59 1664.41 1477.49 Q1666.87 1474.36 1667.21 1468.02 Q1665.87 1470.01 1663.81 1471.07 Q1661.75 1472.14 1659.25 1472.14 Q1654.06 1472.14 1651.03 1469.01 Q1648.02 1465.87 1648.02 1460.43 Q1648.02 1455.1 1651.17 1451.88 Q1654.32 1448.67 1659.55 1448.67 Q1665.55 1448.67 1668.69 1453.27 Q1671.87 1457.86 1671.87 1466.61 Q1671.87 1474.78 1667.98 1479.66 Q1664.11 1484.52 1657.56 1484.52 Q1655.8 1484.52 1654 1484.18 Q1652.19 1483.83 1650.25 1483.13 M1659.55 1468.48 Q1662.7 1468.48 1664.53 1466.33 Q1666.38 1464.18 1666.38 1460.43 Q1666.38 1456.7 1664.53 1454.55 Q1662.7 1452.37 1659.55 1452.37 Q1656.4 1452.37 1654.55 1454.55 Q1652.72 1456.7 1652.72 1460.43 Q1652.72 1464.18 1654.55 1466.33 Q1656.4 1468.48 1659.55 1468.48 Z" fill="#9eb1be" fill-rule="evenodd" fill-opacity="1" /><path clip-path="url(#clip720)" d="M 0 0 M1686.93 1452.37 Q1683.32 1452.37 1681.49 1455.94 Q1679.69 1459.48 1679.69 1466.61 Q1679.69 1473.71 1681.49 1477.28 Q1683.32 1480.82 1686.93 1480.82 Q1690.57 1480.82 1692.37 1477.28 Q1694.2 1473.71 1694.2 1466.61 Q1694.2 1459.48 1692.37 1455.94 Q1690.57 1452.37 1686.93 1452.37 M1686.93 1448.67 Q1692.74 1448.67 1695.8 1453.27 Q1698.88 1457.86 1698.88 1466.61 Q1698.88 1475.33 1695.8 1479.94 Q1692.74 1484.52 1686.93 1484.52 Q1681.12 1484.52 1678.05 1479.94 Q1674.99 1475.33 1674.99 1466.61 Q1674.99 1457.86 1678.05 1453.27 Q1681.12 1448.67 1686.93 1448.67 Z" fill="#9eb1be" fill-rule="evenodd" fill-opacity="1" /><path clip-path="url(#clip720)" d="M 0 0 M1969.36 1479.92 L1977 1479.92 L1977 1453.55 L1968.69 1455.22 L1968.69 1450.96 L1976.96 1449.29 L1981.63 1449.29 L1981.63 1479.92 L1989.27 1479.92 L1989.27 1483.85 L1969.36 1483.85 L1969.36 1479.92 Z" fill="#9eb1be" fill-rule="evenodd" fill-opacity="1" /><path clip-path="url(#clip720)" d="M 0 0 M1994.34 1477.97 L1999.23 1477.97 L1999.23 1483.85 L1994.34 1483.85 L1994.34 1477.97 Z" fill="#9eb1be" fill-rule="evenodd" fill-opacity="1" /><path clip-path="url(#clip720)" d="M 0 0 M2004.43 1483.13 L2004.43 1478.88 Q2006.19 1479.71 2008 1480.15 Q2009.8 1480.59 2011.54 1480.59 Q2016.17 1480.59 2018.6 1477.49 Q2021.05 1474.36 2021.4 1468.02 Q2020.06 1470.01 2018 1471.07 Q2015.94 1472.14 2013.44 1472.14 Q2008.25 1472.14 2005.22 1469.01 Q2002.21 1465.87 2002.21 1460.43 Q2002.21 1455.1 2005.36 1451.88 Q2008.51 1448.67 2013.74 1448.67 Q2019.73 1448.67 2022.88 1453.27 Q2026.05 1457.86 2026.05 1466.61 Q2026.05 1474.78 2022.17 1479.66 Q2018.3 1484.52 2011.75 1484.52 Q2009.99 1484.52 2008.18 1484.18 Q2006.38 1483.83 2004.43 1483.13 M2013.74 1468.48 Q2016.89 1468.48 2018.72 1466.33 Q2020.57 1464.18 2020.57 1460.43 Q2020.57 1456.7 2018.72 1454.55 Q2016.89 1452.37 2013.74 1452.37 Q2010.59 1452.37 2008.74 1454.55 Q2006.91 1456.7 2006.91 1460.43 Q2006.91 1464.18 2008.74 1466.33 Q2010.59 1468.48 2013.74 1468.48 Z" fill="#9eb1be" fill-rule="evenodd" fill-opacity="1" /><path clip-path="url(#clip720)" d="M 0 0 M2031.17 1449.29 L2049.53 1449.29 L2049.53 1453.23 L2035.45 1453.23 L2035.45 1461.7 Q2036.47 1461.35 2037.49 1461.19 Q2038.51 1461 2039.53 1461 Q2045.31 1461 2048.69 1464.18 Q2052.07 1467.35 2052.07 1472.76 Q2052.07 1478.34 2048.6 1481.44 Q2045.13 1484.52 2038.81 1484.52 Q2036.63 1484.52 2034.36 1484.15 Q2032.12 1483.78 2029.71 1483.04 L2029.71 1478.34 Q2031.79 1479.48 2034.02 1480.03 Q2036.24 1480.59 2038.72 1480.59 Q2042.72 1480.59 2045.06 1478.48 Q2047.4 1476.38 2047.4 1472.76 Q2047.4 1469.15 2045.06 1467.05 Q2042.72 1464.94 2038.72 1464.94 Q2036.84 1464.94 2034.97 1465.36 Q2033.11 1465.77 2031.17 1466.65 L2031.17 1449.29 Z" fill="#9eb1be" fill-rule="evenodd" fill-opacity="1" /><path clip-path="url(#clip720)" d="M 0 0 M1293.29 1568.97 Q1280.08 1568.97 1280.08 1550.06 Q1280.08 1542.58 1285.02 1532.4 L1291.32 1532.4 Q1286.77 1542.58 1286.77 1550.22 Q1286.77 1564 1293.83 1564 Q1300.3 1564 1300.3 1546.88 L1305.71 1546.88 Q1305.71 1564 1312.17 1564 Q1319.23 1564 1319.23 1550.22 Q1319.23 1542.58 1314.68 1532.4 L1320.98 1532.4 Q1325.92 1542.58 1325.92 1550.06 Q1325.92 1568.97 1312.71 1568.97 Q1304.05 1568.97 1303 1559.45 Q1301.7 1568.97 1293.29 1568.97 Z" fill="#9eb1be" fill-rule="evenodd" fill-opacity="1" /><polyline clip-path="url(#clip722)" style="stroke:#adb2b7; stroke-width:2; stroke-opacity:0.1; fill:none" points="
  253.246,1233.45 2352.76,1233.45 
  "/>
<polyline clip-path="url(#clip722)" style="stroke:#adb2b7; stroke-width:2; stroke-opacity:0.1; fill:none" points="
  253.246,886.003 2352.76,886.003 
  "/>
<polyline clip-path="url(#clip722)" style="stroke:#adb2b7; stroke-width:2; stroke-opacity:0.1; fill:none" points="
  253.246,538.558 2352.76,538.558 
  "/>
<polyline clip-path="url(#clip722)" style="stroke:#adb2b7; stroke-width:2; stroke-opacity:0.1; fill:none" points="
  253.246,191.114 2352.76,191.114 
  "/>
<polyline clip-path="url(#clip720)" style="stroke:#adb2b7; stroke-width:4; stroke-opacity:1; fill:none" points="
  253.246,1423.18 253.246,47.2441 
  "/>
<polyline clip-path="url(#clip720)" style="stroke:#adb2b7; stroke-width:4; stroke-opacity:1; fill:none" points="
  253.246,1233.45 278.44,1233.45 
  "/>
<polyline clip-path="url(#clip720)" style="stroke:#adb2b7; stroke-width:4; stroke-opacity:1; fill:none" points="
  253.246,886.003 278.44,886.003 
  "/>
<polyline clip-path="url(#clip720)" style="stroke:#adb2b7; stroke-width:4; stroke-opacity:1; fill:none" points="
  253.246,538.558 278.44,538.558 
  "/>
<polyline clip-path="url(#clip720)" style="stroke:#adb2b7; stroke-width:4; stroke-opacity:1; fill:none" points="
  253.246,191.114 278.44,191.114 
  "/>
<path clip-path="url(#clip720)" d="M 0 0 M142.316 1216.17 L160.672 1216.17 L160.672 1220.1 L146.598 1220.1 L146.598 1228.57 Q147.616 1228.23 148.635 1228.07 Q149.653 1227.88 150.672 1227.88 Q156.459 1227.88 159.839 1231.05 Q163.218 1234.22 163.218 1239.64 Q163.218 1245.22 159.746 1248.32 Q156.274 1251.4 149.954 1251.4 Q147.778 1251.4 145.51 1251.03 Q143.265 1250.66 140.857 1249.92 L140.857 1245.22 Q142.941 1246.35 145.163 1246.91 Q147.385 1247.46 149.862 1247.46 Q153.866 1247.46 156.204 1245.36 Q158.542 1243.25 158.542 1239.64 Q158.542 1236.03 156.204 1233.92 Q153.866 1231.82 149.862 1231.82 Q147.987 1231.82 146.112 1232.23 Q144.26 1232.65 142.316 1233.53 L142.316 1216.17 Z" fill="#9eb1be" fill-rule="evenodd" fill-opacity="1" /><path clip-path="url(#clip720)" d="M 0 0 M178.288 1219.25 Q174.677 1219.25 172.848 1222.81 Q171.042 1226.35 171.042 1233.48 Q171.042 1240.59 172.848 1244.15 Q174.677 1247.69 178.288 1247.69 Q181.922 1247.69 183.727 1244.15 Q185.556 1240.59 185.556 1233.48 Q185.556 1226.35 183.727 1222.81 Q181.922 1219.25 178.288 1219.25 M178.288 1215.54 Q184.098 1215.54 187.153 1220.15 Q190.232 1224.73 190.232 1233.48 Q190.232 1242.21 187.153 1246.82 Q184.098 1251.4 178.288 1251.4 Q172.477 1251.4 169.399 1246.82 Q166.343 1242.21 166.343 1233.48 Q166.343 1224.73 169.399 1220.15 Q172.477 1215.54 178.288 1215.54 Z" fill="#9eb1be" fill-rule="evenodd" fill-opacity="1" /><path clip-path="url(#clip720)" d="M 0 0 M205.301 1219.25 Q201.69 1219.25 199.862 1222.81 Q198.056 1226.35 198.056 1233.48 Q198.056 1240.59 199.862 1244.15 Q201.69 1247.69 205.301 1247.69 Q208.936 1247.69 210.741 1244.15 Q212.57 1240.59 212.57 1233.48 Q212.57 1226.35 210.741 1222.81 Q208.936 1219.25 205.301 1219.25 M205.301 1215.54 Q211.111 1215.54 214.167 1220.15 Q217.246 1224.73 217.246 1233.48 Q217.246 1242.21 214.167 1246.82 Q211.111 1251.4 205.301 1251.4 Q199.491 1251.4 196.412 1246.82 Q193.357 1242.21 193.357 1233.48 Q193.357 1224.73 196.412 1220.15 Q199.491 1215.54 205.301 1215.54 Z" fill="#9eb1be" fill-rule="evenodd" fill-opacity="1" /><path clip-path="url(#clip720)" d="M 0 0 M116.297 899.348 L123.936 899.348 L123.936 872.982 L115.626 874.649 L115.626 870.39 L123.89 868.723 L128.566 868.723 L128.566 899.348 L136.204 899.348 L136.204 903.283 L116.297 903.283 L116.297 899.348 Z" fill="#9eb1be" fill-rule="evenodd" fill-opacity="1" /><path clip-path="url(#clip720)" d="M 0 0 M151.274 871.802 Q147.663 871.802 145.834 875.366 Q144.029 878.908 144.029 886.038 Q144.029 893.144 145.834 896.709 Q147.663 900.25 151.274 900.25 Q154.908 900.25 156.714 896.709 Q158.542 893.144 158.542 886.038 Q158.542 878.908 156.714 875.366 Q154.908 871.802 151.274 871.802 M151.274 868.098 Q157.084 868.098 160.14 872.704 Q163.218 877.288 163.218 886.038 Q163.218 894.764 160.14 899.371 Q157.084 903.954 151.274 903.954 Q145.464 903.954 142.385 899.371 Q139.329 894.764 139.329 886.038 Q139.329 877.288 142.385 872.704 Q145.464 868.098 151.274 868.098 Z" fill="#9eb1be" fill-rule="evenodd" fill-opacity="1" /><path clip-path="url(#clip720)" d="M 0 0 M178.288 871.802 Q174.677 871.802 172.848 875.366 Q171.042 878.908 171.042 886.038 Q171.042 893.144 172.848 896.709 Q174.677 900.25 178.288 900.25 Q181.922 900.25 183.727 896.709 Q185.556 893.144 185.556 886.038 Q185.556 878.908 183.727 875.366 Q181.922 871.802 178.288 871.802 M178.288 868.098 Q184.098 868.098 187.153 872.704 Q190.232 877.288 190.232 886.038 Q190.232 894.764 187.153 899.371 Q184.098 903.954 178.288 903.954 Q172.477 903.954 169.399 899.371 Q166.343 894.764 166.343 886.038 Q166.343 877.288 169.399 872.704 Q172.477 868.098 178.288 868.098 Z" fill="#9eb1be" fill-rule="evenodd" fill-opacity="1" /><path clip-path="url(#clip720)" d="M 0 0 M205.301 871.802 Q201.69 871.802 199.862 875.366 Q198.056 878.908 198.056 886.038 Q198.056 893.144 199.862 896.709 Q201.69 900.25 205.301 900.25 Q208.936 900.25 210.741 896.709 Q212.57 893.144 212.57 886.038 Q212.57 878.908 210.741 875.366 Q208.936 871.802 205.301 871.802 M205.301 868.098 Q211.111 868.098 214.167 872.704 Q217.246 877.288 217.246 886.038 Q217.246 894.764 214.167 899.371 Q211.111 903.954 205.301 903.954 Q199.491 903.954 196.412 899.371 Q193.357 894.764 193.357 886.038 Q193.357 877.288 196.412 872.704 Q199.491 868.098 205.301 868.098 Z" fill="#9eb1be" fill-rule="evenodd" fill-opacity="1" /><path clip-path="url(#clip720)" d="M 0 0 M117.293 551.903 L124.931 551.903 L124.931 525.538 L116.621 527.204 L116.621 522.945 L124.885 521.278 L129.561 521.278 L129.561 551.903 L137.2 551.903 L137.2 555.838 L117.293 555.838 L117.293 551.903 Z" fill="#9eb1be" fill-rule="evenodd" fill-opacity="1" /><path clip-path="url(#clip720)" d="M 0 0 M142.316 521.278 L160.672 521.278 L160.672 525.214 L146.598 525.214 L146.598 533.686 Q147.616 533.339 148.635 533.176 Q149.653 532.991 150.672 532.991 Q156.459 532.991 159.839 536.163 Q163.218 539.334 163.218 544.75 Q163.218 550.329 159.746 553.431 Q156.274 556.51 149.954 556.51 Q147.778 556.51 145.51 556.139 Q143.265 555.769 140.857 555.028 L140.857 550.329 Q142.941 551.463 145.163 552.019 Q147.385 552.575 149.862 552.575 Q153.866 552.575 156.204 550.468 Q158.542 548.362 158.542 544.75 Q158.542 541.139 156.204 539.033 Q153.866 536.926 149.862 536.926 Q147.987 536.926 146.112 537.343 Q144.26 537.76 142.316 538.639 L142.316 521.278 Z" fill="#9eb1be" fill-rule="evenodd" fill-opacity="1" /><path clip-path="url(#clip720)" d="M 0 0 M178.288 524.357 Q174.677 524.357 172.848 527.922 Q171.042 531.464 171.042 538.593 Q171.042 545.7 172.848 549.264 Q174.677 552.806 178.288 552.806 Q181.922 552.806 183.727 549.264 Q185.556 545.7 185.556 538.593 Q185.556 531.464 183.727 527.922 Q181.922 524.357 178.288 524.357 M178.288 520.653 Q184.098 520.653 187.153 525.26 Q190.232 529.843 190.232 538.593 Q190.232 547.32 187.153 551.926 Q184.098 556.51 178.288 556.51 Q172.477 556.51 169.399 551.926 Q166.343 547.32 166.343 538.593 Q166.343 529.843 169.399 525.26 Q172.477 520.653 178.288 520.653 Z" fill="#9eb1be" fill-rule="evenodd" fill-opacity="1" /><path clip-path="url(#clip720)" d="M 0 0 M205.301 524.357 Q201.69 524.357 199.862 527.922 Q198.056 531.464 198.056 538.593 Q198.056 545.7 199.862 549.264 Q201.69 552.806 205.301 552.806 Q208.936 552.806 210.741 549.264 Q212.57 545.7 212.57 538.593 Q212.57 531.464 210.741 527.922 Q208.936 524.357 205.301 524.357 M205.301 520.653 Q211.111 520.653 214.167 525.26 Q217.246 529.843 217.246 538.593 Q217.246 547.32 214.167 551.926 Q211.111 556.51 205.301 556.51 Q199.491 556.51 196.412 551.926 Q193.357 547.32 193.357 538.593 Q193.357 529.843 196.412 525.26 Q199.491 520.653 205.301 520.653 Z" fill="#9eb1be" fill-rule="evenodd" fill-opacity="1" /><path clip-path="url(#clip720)" d="M 0 0 M119.885 204.459 L136.204 204.459 L136.204 208.394 L114.26 208.394 L114.26 204.459 Q116.922 201.704 121.505 197.075 Q126.112 192.422 127.292 191.079 Q129.538 188.556 130.417 186.82 Q131.32 185.061 131.32 183.371 Q131.32 180.616 129.376 178.88 Q127.455 177.144 124.353 177.144 Q122.154 177.144 119.7 177.908 Q117.269 178.672 114.492 180.223 L114.492 175.501 Q117.316 174.366 119.769 173.788 Q122.223 173.209 124.26 173.209 Q129.63 173.209 132.825 175.894 Q136.019 178.579 136.019 183.07 Q136.019 185.2 135.209 187.121 Q134.422 189.019 132.316 191.612 Q131.737 192.283 128.635 195.5 Q125.533 198.695 119.885 204.459 Z" fill="#9eb1be" fill-rule="evenodd" fill-opacity="1" /><path clip-path="url(#clip720)" d="M 0 0 M151.274 176.913 Q147.663 176.913 145.834 180.477 Q144.029 184.019 144.029 191.149 Q144.029 198.255 145.834 201.82 Q147.663 205.362 151.274 205.362 Q154.908 205.362 156.714 201.82 Q158.542 198.255 158.542 191.149 Q158.542 184.019 156.714 180.477 Q154.908 176.913 151.274 176.913 M151.274 173.209 Q157.084 173.209 160.14 177.815 Q163.218 182.399 163.218 191.149 Q163.218 199.875 160.14 204.482 Q157.084 209.065 151.274 209.065 Q145.464 209.065 142.385 204.482 Q139.329 199.875 139.329 191.149 Q139.329 182.399 142.385 177.815 Q145.464 173.209 151.274 173.209 Z" fill="#9eb1be" fill-rule="evenodd" fill-opacity="1" /><path clip-path="url(#clip720)" d="M 0 0 M178.288 176.913 Q174.677 176.913 172.848 180.477 Q171.042 184.019 171.042 191.149 Q171.042 198.255 172.848 201.82 Q174.677 205.362 178.288 205.362 Q181.922 205.362 183.727 201.82 Q185.556 198.255 185.556 191.149 Q185.556 184.019 183.727 180.477 Q181.922 176.913 178.288 176.913 M178.288 173.209 Q184.098 173.209 187.153 177.815 Q190.232 182.399 190.232 191.149 Q190.232 199.875 187.153 204.482 Q184.098 209.065 178.288 209.065 Q172.477 209.065 169.399 204.482 Q166.343 199.875 166.343 191.149 Q166.343 182.399 169.399 177.815 Q172.477 173.209 178.288 173.209 Z" fill="#9eb1be" fill-rule="evenodd" fill-opacity="1" /><path clip-path="url(#clip720)" d="M 0 0 M205.301 176.913 Q201.69 176.913 199.862 180.477 Q198.056 184.019 198.056 191.149 Q198.056 198.255 199.862 201.82 Q201.69 205.362 205.301 205.362 Q208.936 205.362 210.741 201.82 Q212.57 198.255 212.57 191.149 Q212.57 184.019 210.741 180.477 Q208.936 176.913 205.301 176.913 M205.301 173.209 Q211.111 173.209 214.167 177.815 Q217.246 182.399 217.246 191.149 Q217.246 199.875 214.167 204.482 Q211.111 209.065 205.301 209.065 Q199.491 209.065 196.412 204.482 Q193.357 199.875 193.357 191.149 Q193.357 182.399 196.412 177.815 Q199.491 173.209 205.301 173.209 Z" fill="#9eb1be" fill-rule="evenodd" fill-opacity="1" /><path clip-path="url(#clip720)" d="M 0 0 M35.3266 875.735 L35.3266 884.997 L45.9574 887.671 L45.9574 878.345 L35.3266 875.735 M17.2162 880.509 L30.4251 883.819 L30.4251 874.525 L17.2162 871.183 L17.2162 866.091 L30.4251 869.369 L30.4251 859.439 L35.3266 859.439 L35.3266 870.611 L45.9574 873.22 L45.9574 863.099 L50.8271 863.099 L50.8271 874.462 L64.0042 877.772 L64.0042 882.865 L50.8271 879.586 L50.8271 888.912 L64.0042 892.19 L64.0042 897.315 L50.8271 894.005 L50.8271 904.031 L45.9574 904.031 L45.9574 892.827 L35.3266 890.153 L35.3266 900.402 L30.4251 900.402 L30.4251 888.912 L17.2162 885.665 L17.2162 880.509 Z" fill="#9eb1be" fill-rule="evenodd" fill-opacity="1" /><path clip-path="url(#clip720)" d="M 0 0 M28.3562 832.575 L28.3562 826.719 L64.0042 826.719 L64.0042 832.575 L28.3562 832.575 M14.479 832.575 L14.479 826.719 L21.895 826.719 L21.895 832.575 L14.479 832.575 Z" fill="#9eb1be" fill-rule="evenodd" fill-opacity="1" /><path clip-path="url(#clip720)" d="M 0 0 M18.2347 814.783 L28.3562 814.783 L28.3562 802.72 L32.9077 802.72 L32.9077 814.783 L52.2594 814.783 Q56.6199 814.783 57.8613 813.606 Q59.1026 812.396 59.1026 808.736 L59.1026 802.72 L64.0042 802.72 L64.0042 808.736 Q64.0042 815.515 61.4897 818.093 Q58.9434 820.672 52.2594 820.672 L32.9077 820.672 L32.9077 824.968 L28.3562 824.968 L28.3562 820.672 L18.2347 820.672 L18.2347 814.783 Z" fill="#9eb1be" fill-rule="evenodd" fill-opacity="1" /><path clip-path="url(#clip720)" d="M 0 0 M44.7161 766.086 L47.5806 766.086 L47.5806 793.013 Q53.6281 792.631 56.8109 789.384 Q59.9619 786.106 59.9619 780.281 Q59.9619 776.907 59.1344 773.756 Q58.3069 770.573 56.6518 767.454 L62.1899 767.454 Q63.5267 770.605 64.227 773.915 Q64.9272 777.226 64.9272 780.631 Q64.9272 789.161 59.9619 794.158 Q54.9967 799.124 46.5303 799.124 Q37.7774 799.124 32.6531 794.413 Q27.4968 789.671 27.4968 781.65 Q27.4968 774.457 32.1438 770.287 Q36.7589 766.086 44.7161 766.086 M42.9973 771.942 Q38.1912 772.006 35.3266 774.648 Q32.4621 777.257 32.4621 781.586 Q32.4621 786.488 35.2312 789.448 Q38.0002 792.376 43.0292 792.822 L42.9973 771.942 Z" fill="#9eb1be" fill-rule="evenodd" fill-opacity="1" /><path clip-path="url(#clip720)" d="M 0 0 M33.8307 739.286 Q33.2578 740.273 33.0032 741.45 Q32.7167 742.596 32.7167 743.997 Q32.7167 748.962 35.9632 751.635 Q39.1779 754.277 45.2253 754.277 L64.0042 754.277 L64.0042 760.166 L28.3562 760.166 L28.3562 754.277 L33.8944 754.277 Q30.6479 752.431 29.0883 749.471 Q27.4968 746.511 27.4968 742.278 Q27.4968 741.673 27.5923 740.941 Q27.656 740.209 27.8151 739.318 L33.8307 739.286 Z" fill="#9eb1be" fill-rule="evenodd" fill-opacity="1" /><path clip-path="url(#clip720)" d="M 0 0 M46.0847 716.942 Q46.0847 724.04 47.7079 726.777 Q49.3312 729.515 53.2461 729.515 Q56.3653 729.515 58.2114 727.478 Q60.0256 725.409 60.0256 721.876 Q60.0256 717.006 56.5881 714.078 Q53.1188 711.118 47.3897 711.118 L46.0847 711.118 L46.0847 716.942 M43.6657 705.261 L64.0042 705.261 L64.0042 711.118 L58.5933 711.118 Q61.8398 713.123 63.3994 716.115 Q64.9272 719.107 64.9272 723.435 Q64.9272 728.91 61.8716 732.156 Q58.7843 735.371 53.6281 735.371 Q47.6125 735.371 44.5569 731.361 Q41.5014 727.318 41.5014 719.33 L41.5014 711.118 L40.9285 711.118 Q36.8862 711.118 34.6901 713.791 Q32.4621 716.433 32.4621 721.239 Q32.4621 724.295 33.1941 727.191 Q33.9262 730.088 35.3903 732.761 L29.9795 732.761 Q28.7381 729.546 28.1334 726.523 Q27.4968 723.499 27.4968 720.635 Q27.4968 712.9 31.5072 709.081 Q35.5176 705.261 43.6657 705.261 Z" fill="#9eb1be" fill-rule="evenodd" fill-opacity="1" /><path clip-path="url(#clip720)" d="M 0 0 M18.2347 693.326 L28.3562 693.326 L28.3562 681.263 L32.9077 681.263 L32.9077 693.326 L52.2594 693.326 Q56.6199 693.326 57.8613 692.148 Q59.1026 690.938 59.1026 687.278 L59.1026 681.263 L64.0042 681.263 L64.0042 687.278 Q64.0042 694.058 61.4897 696.636 Q58.9434 699.214 52.2594 699.214 L32.9077 699.214 L32.9077 703.511 L28.3562 703.511 L28.3562 699.214 L18.2347 699.214 L18.2347 693.326 Z" fill="#9eb1be" fill-rule="evenodd" fill-opacity="1" /><path clip-path="url(#clip720)" d="M 0 0 M28.3562 675.12 L28.3562 669.263 L64.0042 669.263 L64.0042 675.12 L28.3562 675.12 M14.479 675.12 L14.479 669.263 L21.895 669.263 L21.895 675.12 L14.479 675.12 Z" fill="#9eb1be" fill-rule="evenodd" fill-opacity="1" /><path clip-path="url(#clip720)" d="M 0 0 M32.4621 649.307 Q32.4621 654.017 36.1542 656.755 Q39.8145 659.492 46.212 659.492 Q52.6095 659.492 56.3017 656.786 Q59.9619 654.049 59.9619 649.307 Q59.9619 644.628 56.2698 641.891 Q52.5777 639.153 46.212 639.153 Q39.8781 639.153 36.186 641.891 Q32.4621 644.628 32.4621 649.307 M27.4968 649.307 Q27.4968 641.668 32.4621 637.307 Q37.4273 632.947 46.212 632.947 Q54.9649 632.947 59.9619 637.307 Q64.9272 641.668 64.9272 649.307 Q64.9272 656.977 59.9619 661.338 Q54.9649 665.667 46.212 665.667 Q37.4273 665.667 32.4621 661.338 Q27.4968 656.977 27.4968 649.307 Z" fill="#9eb1be" fill-rule="evenodd" fill-opacity="1" /><path clip-path="url(#clip720)" d="M 0 0 M42.4881 597.172 L64.0042 597.172 L64.0042 603.028 L42.679 603.028 Q37.6183 603.028 35.1038 605.001 Q32.5894 606.975 32.5894 610.922 Q32.5894 615.664 35.6131 618.401 Q38.6368 621.139 43.8567 621.139 L64.0042 621.139 L64.0042 627.027 L28.3562 627.027 L28.3562 621.139 L33.8944 621.139 Q30.6797 619.038 29.0883 616.205 Q27.4968 613.341 27.4968 609.617 Q27.4968 603.474 31.3163 600.323 Q35.1038 597.172 42.4881 597.172 Z" fill="#9eb1be" fill-rule="evenodd" fill-opacity="1" /><path clip-path="url(#clip720)" d="M 0 0 M29.4065 568.303 L34.9447 568.303 Q33.6716 570.786 33.035 573.459 Q32.3984 576.133 32.3984 578.998 Q32.3984 583.358 33.7352 585.554 Q35.072 587.719 37.7456 587.719 Q39.7826 587.719 40.9603 586.159 Q42.1061 584.599 43.1565 579.889 L43.6021 577.884 Q44.9389 571.645 47.3897 569.035 Q49.8086 566.393 54.1691 566.393 Q59.1344 566.393 62.0308 570.34 Q64.9272 574.255 64.9272 581.13 Q64.9272 583.995 64.3543 587.114 Q63.8132 590.201 62.6992 593.639 L56.6518 593.639 Q58.3387 590.392 59.198 587.241 Q60.0256 584.09 60.0256 581.003 Q60.0256 576.865 58.6251 574.637 Q57.1929 572.409 54.6147 572.409 Q52.2276 572.409 50.9545 574.032 Q49.6813 575.624 48.5037 581.066 L48.0262 583.103 Q46.8804 588.546 44.5251 590.965 Q42.138 593.384 38.0002 593.384 Q32.9713 593.384 30.2341 589.819 Q27.4968 586.254 27.4968 579.698 Q27.4968 576.451 27.9743 573.587 Q28.4517 570.722 29.4065 568.303 Z" fill="#9eb1be" fill-rule="evenodd" fill-opacity="1" /><polyline clip-path="url(#clip722)" style="stroke:#fe4365; stroke-width:4; stroke-opacity:1; fill:none" points="
  312.666,800.532 332.673,808.87 352.679,817.209 372.686,824.853 392.693,833.191 412.7,841.53 432.706,849.869 452.713,858.207 472.72,865.851 492.727,874.19 
  512.733,882.528 532.74,890.867 552.747,898.511 572.754,906.85 592.761,914.493 612.767,922.832 632.774,931.171 652.781,938.814 672.788,947.153 692.794,954.797 
  712.801,963.136 732.808,970.779 752.815,979.118 772.821,986.762 792.828,994.406 812.835,1002.74 832.842,1010.39 852.849,1018.73 872.855,1026.37 892.862,1034.01 
  912.869,1042.35 932.876,1050 952.882,1057.64 972.889,1065.28 992.896,1073.62 1012.9,1081.27 1032.91,1088.91 1052.92,1096.55 1072.92,1104.89 1092.93,1112.54 
  1112.94,1120.18 1132.94,1127.82 1152.95,1135.47 1172.96,1143.81 1192.96,1151.45 1212.97,1159.09 1232.98,1166.74 1252.98,1174.38 1272.99,1182.72 1293,1190.36 
  1313,1198.01 1333.01,1205.65 1353.02,1213.3 1373.02,1220.94 1393.03,1229.28 1413.04,1236.92 1433.04,1244.57 1453.05,1252.9 1473.06,1260.55 1493.07,1268.19 
  1513.07,1276.53 1533.08,1284.17 1553.09,1291.82 1573.09,1300.16 1593.1,1308.5 1613.11,1316.14 1633.11,1324.48 1653.12,1332.82 1673.13,1341.16 1693.13,1349.49 
  1713.14,1357.83 1733.15,1366.17 1753.15,1374.51 1773.16,1382.15 1793.17,1384.24 1813.17,1377.98 1833.18,1373.12 1853.19,1365.48 1873.19,1357.83 1893.2,1350.88 
  1913.21,1339.77 1933.21,1326.56 1953.22,1306.41 1973.23,1297.38 1993.23,1289.04 2013.24,1274.45 2033.25,1254.99 2053.25,1236.92 2073.26,1203.57 2093.27,1186.19 
  2113.27,1154.92 2133.28,1105.59 2153.29,1075.71 2173.3,1018.03 2193.3,954.797 2213.31,878.359 2233.32,772.041 2253.32,633.063 2273.33,422.512 2293.34,86.1857 
  
  "/>
</svg>
